<?xml version="1.0" encoding="utf-8"?>
<!-- Generator: Adobe Illustrator 16.0.0, SVG Export Plug-In . SVG Version: 6.00 Build 0)  -->
<!DOCTYPE svg PUBLIC "-//W3C//DTD SVG 1.1//EN" "http://www.w3.org/Graphics/SVG/1.1/DTD/svg11.dtd">
<svg version="1.1" id="Capa_1" xmlns="http://www.w3.org/2000/svg" xmlns:xlink="http://www.w3.org/1999/xlink" x="0px" y="0px"
	 width="720px" height="488.976px" viewBox="0 0 720 488.976" enable-background="new 0 0 720 488.976" xml:space="preserve">
<g>
	<g>
		<polygon fill="#D8D8D8" points="41.682,177.34 80.651,199.591 252.629,261.01 633.483,51.065 717,9.597 64.917,136.639 		"/>
		
			<linearGradient id="SVGID_1_" gradientUnits="userSpaceOnUse" x1="553.0938" y1="-699.479" x2="553.0938" y2="-326.106" gradientTransform="matrix(0.9918 -0.1282 0.1282 0.9918 -122.1182 823.4763)">
			<stop  offset="0" style="stop-color:#FFFFFF"/>
			<stop  offset="0.3008" style="stop-color:#FCFCFC"/>
			<stop  offset="0.539" style="stop-color:#F2F2F2"/>
			<stop  offset="0.7556" style="stop-color:#E1E1E1"/>
			<stop  offset="0.9585" style="stop-color:#CACACA"/>
			<stop  offset="1" style="stop-color:#C4C4C4"/>
		</linearGradient>
		<polygon fill="url(#SVGID_1_)" points="716.528,9.738 11.003,218.9 4.871,478.226 		"/>
		<polygon fill="#FFFFFF" points="717,9.597 23.263,95.817 19.401,182.49 		"/>
		
			<linearGradient id="SVGID_2_" gradientUnits="userSpaceOnUse" x1="774.415" y1="-430.1777" x2="489.324" y2="-601.6959" gradientTransform="matrix(0.9918 -0.1282 0.1282 0.9918 -122.1182 823.4763)">
			<stop  offset="0" style="stop-color:#D8D8D8"/>
			<stop  offset="0.3659" style="stop-color:#D5D5D5"/>
			<stop  offset="0.632" style="stop-color:#CCCCCC"/>
			<stop  offset="0.8656" style="stop-color:#BCBCBC"/>
			<stop  offset="1" style="stop-color:#AFAFAF"/>
		</linearGradient>
		<polygon fill="url(#SVGID_2_)" points="717,9.597 204.027,471.293 124.552,399.905 		"/>
	</g>
	<g>
		<path fill="#5454F4" d="M51.066,333.724c0.606-0.052,1.042-0.193,1.304-0.411c-0.42-0.554-0.614-0.958-0.591-1.209
			c0.058-0.498-0.325-0.858-1.141-1.084c0.051,0.633-0.079,1.316-0.399,2.037c-0.527,0.44-0.685,0.806-0.476,1.081
			C50.237,334.194,50.669,334.055,51.066,333.724z"/>
		<path fill="#5454F4" d="M58.215,367.583c0.422,0.556,1.105,0.892,2.052,1c0.709,0.089,1.262-0.035,1.659-0.367
			c-0.42-0.559-0.667-1.029-0.748-1.419c0.03-0.248-0.406-0.682-1.299-1.294c0.21,0.281,0.118,0.583-0.278,0.917L58.215,367.583z"/>
		<path fill="#5454F4" d="M228.099,281.203c0.444,1.445,0.987,1.445,1.617,0.003l-0.471-0.621c-0.629-0.835-1.3-1.298-2.012-1.38
			C227.657,279.761,227.944,280.428,228.099,281.203z"/>
		<polygon fill="#5454F4" points="223.22,309.83 221.128,309.199 220.455,310.444 222.545,311.075 		"/>
		<path fill="#5454F4" d="M30.603,411.883c-0.185,0.611,0.239-0.538,1.271-3.452c0.719-1.052,1.203-2.257,1.469-3.615
			c-0.262,0.22-0.658,0.551-1.186,0.995c-0.526,0.444-1.121,0.938-1.78,1.496c-1.317,1.103-2.147,2.145-2.495,3.115
			C28.964,410.422,29.869,410.911,30.603,411.883z"/>
		<polygon fill="#5454F4" points="31.693,418.464 29.123,420.62 30.068,421.873 32.638,419.714 		"/>
		<polygon fill="#5454F4" points="268.441,311.523 267.059,312.684 267.529,313.311 268.915,312.147 		"/>
		<path fill="#5454F4" d="M40.813,409.784c0.606-0.05,1.041-0.191,1.302-0.411c-0.418-0.556-0.613-0.955-0.589-1.209
			c0.058-0.498-0.325-0.857-1.143-1.084c0.054,0.632-0.075,1.318-0.398,2.04c-0.527,0.438-0.684,0.803-0.477,1.081
			C39.985,410.256,40.419,410.116,40.813,409.784z"/>
		<path fill="#5454F4" d="M47.964,443.64c0.421,0.561,1.105,0.892,2.051,1.007c0.709,0.086,1.264-0.038,1.66-0.373
			c-0.42-0.553-0.669-1.025-0.748-1.416c0.029-0.248-0.405-0.681-1.3-1.291c0.21,0.279,0.117,0.58-0.278,0.912L47.964,443.64z"/>
		<polygon fill="#5454F4" points="249.273,280.329 246.184,282.922 247.318,284.426 250.407,281.832 		"/>
		<polygon fill="#5454F4" points="117.842,279.619 108.659,287.33 111.584,291.201 120.764,283.493 		"/>
		<polygon fill="#5454F4" points="147.26,374.616 145.876,375.777 146.348,376.404 147.734,375.242 		"/>
		<path fill="#5454F4" d="M263.94,272.374c0.421,0.558,1.105,0.89,2.05,1.005c0.71,0.084,1.264-0.041,1.659-0.371
			c-0.419-0.557-0.666-1.031-0.746-1.416c0.029-0.252-0.405-0.686-1.302-1.297c0.213,0.28,0.117,0.583-0.276,0.916L263.94,272.374z"
			/>
		<polygon fill="#AFAFAF" points="76.074,171.086 74.052,171.84 74.382,172.826 76.406,172.069 		"/>
		<path fill="#5454F4" d="M33.936,404.316c-0.315-0.418-1.183-0.709-2.604-0.88c-1.34,0.219-2.38-0.157-3.116-1.133
			c0.813,2.498,1.53,4.166,2.16,5.003L33.936,404.316z"/>
		<path fill="#5454F4" d="M75.207,375.745c-0.314-0.415-1.182-0.71-2.604-0.878c-1.339,0.219-2.379-0.157-3.116-1.133
			c0.814,2.499,1.531,4.166,2.162,4.999L75.207,375.745z"/>
		<path fill="#5454F4" d="M49.32,391.27c-0.314-0.419-1.183-0.71-2.603-0.882c-1.34,0.218-2.38-0.156-3.117-1.133
			c0.815,2.497,1.532,4.171,2.162,5.003L49.32,391.27z"/>
		<path fill="#5454F4" d="M72.217,384.406c-0.316-0.414-1.183-0.71-2.604-0.878c-1.34,0.219-2.379-0.157-3.116-1.133
			c0.813,2.498,1.53,4.166,2.16,4.999L72.217,384.406z"/>
		<path fill="#5454F4" d="M9.912,397.534c0.445,1.445,0.987,1.445,1.618,0.003l-0.473-0.624c-0.628-0.835-1.299-1.294-2.01-1.378
			C9.469,396.092,9.756,396.756,9.912,397.534z"/>
		<polygon fill="#AFAFAF" points="93.239,169.021 91.217,169.776 91.547,170.759 93.571,170.006 		"/>
		<path fill="#5454F4" d="M38.745,447.695c0.605-0.054,1.043-0.195,1.304-0.414c-0.418-0.555-0.612-0.958-0.588-1.209
			c0.057-0.494-0.325-0.855-1.143-1.085c0.053,0.636-0.078,1.317-0.399,2.038c-0.527,0.445-0.684,0.809-0.477,1.082
			C37.917,448.166,38.35,448.028,38.745,447.695z"/>
		<path fill="#AFAFAF" d="M78.264,177.895c-0.439,0.619,0.471-0.518,2.729-3.401c1.207-0.898,2.208-2.067,3.016-3.506
			c-0.379,0.143-0.951,0.357-1.719,0.641c-0.764,0.288-1.623,0.608-2.58,0.965c-1.912,0.71-3.243,1.547-3.997,2.511
			C76.942,175.557,77.79,176.485,78.264,177.895z"/>
		<polygon fill="#5454F4" points="352.017,313.144 349.93,314.895 350.697,315.91 352.783,314.157 		"/>
		<path fill="#5454F4" d="M10.416,310.274c0.425-0.583,0.423-1.148,0.003-1.704c-0.55-0.444-1.025-0.502-1.422-0.171L10.416,310.274
			z"/>
		<path fill="#5454F4" d="M114.242,354.64c0.445,1.445,0.988,1.449,1.618,0.007l-0.474-0.625c-0.629-0.834-1.298-1.293-2.009-1.381
			C113.799,353.201,114.086,353.864,114.242,354.64z"/>
		<path fill="#5454F4" d="M60.548,342.796c1.471-3.32,1.615-5.748,0.453-7.284c-0.963-1.279-1.69-1.718-2.18-1.313
			c-0.729,0.613-1.475,0.413-2.253-0.617c-0.92,0.359-1.667,1.197-2.26,2.525c-0.876,1.994-1.409,3.907-1.612,5.746
			C54.931,341.66,57.548,341.974,60.548,342.796z"/>
		<polygon fill="#5454F4" points="109.362,383.267 107.271,382.636 106.598,383.886 108.688,384.514 		"/>
		<path fill="#5454F4" d="M91.205,381.476c1.818-0.163,2.208,1.212,1.176,4.12c3.033-1.408,5.182-3.548,6.449-6.433
			c-0.209-0.274-1.917-0.547-5.13-0.806c-0.995-1.889-0.651-3.425,1.035-4.615c2.585-1.716,4.01-2.688,4.271-2.904
			c-0.209-0.274-0.784-0.475-1.735-0.586c-0.944-0.114-1.709-0.27-2.29-0.463c-1.582,2.465-4.223,6.385-7.919,11.76
			C88.481,381.715,89.865,381.693,91.205,381.476z"/>
		<polygon fill="#5454F4" points="68.128,373.593 66.151,375.253 66.78,376.087 68.759,374.426 		"/>
		<polygon fill="#5454F4" points="74.933,385.596 71.846,389.212 72.474,390.046 75.404,386.223 		"/>
		<polygon fill="#5454F4" points="43.656,371.995 42.271,373.157 42.743,373.781 44.127,372.617 		"/>
		<path fill="#5454F4" d="M208.148,287.73c0.424-0.582,0.424-1.146,0.003-1.702c-0.548-0.45-1.026-0.504-1.42-0.173L208.148,287.73z
			"/>
		<path fill="#5454F4" d="M134.941,384.617c0.606-0.051,1.043-0.192,1.304-0.411c-0.42-0.559-0.614-0.959-0.589-1.209
			c0.056-0.498-0.326-0.858-1.142-1.085c0.054,0.639-0.078,1.319-0.399,2.039c-0.527,0.44-0.686,0.805-0.476,1.082
			C134.113,385.087,134.545,384.953,134.941,384.617z"/>
		<path fill="#5454F4" d="M49.212,322.02c-0.314-0.419-1.183-0.71-2.604-0.882c-1.34,0.219-2.379-0.157-3.115-1.132
			c0.813,2.5,1.53,4.169,2.16,5.002L49.212,322.02z"/>
		<path fill="#5454F4" d="M57.976,355.811c0.337,1.093,0.746,1.093,1.223,0l-0.358-0.468c-0.475-0.63-0.98-0.98-1.517-1.041
			C57.642,354.724,57.86,355.223,57.976,355.811z"/>
		<path fill="#5454F4" d="M80.623,382.861c0.798-1.797,0.874-3.115,0.245-3.952c-0.523-0.693-0.918-0.933-1.183-0.71
			c-0.395,0.331-0.8,0.222-1.224-0.336c-0.499,0.193-0.904,0.652-1.226,1.369c-0.477,1.081-0.765,2.122-0.875,3.121
			C77.573,382.247,78.993,382.418,80.623,382.861z"/>
		<polygon fill="#5454F4" points="50.746,361.273 48.654,360.644 47.981,361.892 50.072,362.519 		"/>
		<polygon fill="#5454F4" points="9.511,351.6 7.534,353.26 8.165,354.094 10.141,352.434 		"/>
		<polygon fill="#5454F4" points="16.316,363.604 13.229,367.219 13.859,368.053 16.787,364.229 		"/>
		<path fill="#5454F4" d="M190.772,281.195c0.424-0.579,0.426-1.146,0.002-1.707c-0.549-0.443-1.025-0.499-1.42-0.168
			L190.772,281.195z"/>
		<path fill="#5454F4" d="M117.565,378.086c0.605-0.056,1.042-0.196,1.303-0.414c-0.417-0.555-0.612-0.958-0.588-1.21
			c0.057-0.498-0.325-0.859-1.143-1.085c0.053,0.637-0.078,1.317-0.399,2.039c-0.526,0.441-0.684,0.806-0.477,1.081
			C116.736,378.552,117.17,378.414,117.565,378.086z"/>
		<path fill="#5454F4" d="M32.514,345.56c0.777,1.03,2.035,1.642,3.778,1.849c1.308,0.157,2.327-0.071,3.056-0.684
			c-0.772-1.02-1.229-1.893-1.376-2.606c0.056-0.463-0.748-1.26-2.395-2.385c0.389,0.514,0.216,1.073-0.513,1.686L32.514,345.56z"/>
		<path fill="#5454F4" d="M86.968,420.639c1.297-1.09,1.955-2.581,1.977-4.489c2.706-0.729,4.905-1.803,6.595-3.223l2.242-1.882
			c-0.018-0.669-0.385-1.479-1.099-2.421c-0.315-0.42-0.654-0.866-1.011-1.339c-0.356-0.475-0.73-0.97-1.128-1.496
			c-1.135,0.436-2.228,0.927-3.283,1.469c-0.755,0.296-1.532,0.773-2.331,1.439l-2.239,1.881l1.07,1.417
			c0.518,0.254,1.641-0.087,3.371-1.026l0.951,1.26l-1.645,2.665c-0.755,0.294-1.489,0.396-2.207,0.309
			c-0.354-0.039-0.737-0.065-1.148-0.065c-0.404,0-0.879-0.032-1.416-0.098c-0.099,0.084-0.266,0.401-0.509,0.942
			c-0.597,1.361-0.788,1.864-0.568,1.509L86.968,420.639z"/>
		<path fill="#5454F4" d="M38.444,314.585c-0.315-0.419-1.182-0.713-2.603-0.882c-1.341,0.218-2.381-0.156-3.116-1.133
			c0.813,2.499,1.53,4.165,2.16,4.998L38.444,314.585z"/>
		<polygon fill="#5454F4" points="20.099,369.363 14.413,367.652 12.579,371.044 18.269,372.757 		"/>
		<path fill="#5454F4" d="M180.022,280.913c0.426-0.584,0.424-1.152,0.005-1.708c-0.551-0.444-1.026-0.504-1.422-0.172
			L180.022,280.913z"/>
		<path fill="#5454F4" d="M106.815,377.799c0.606-0.055,1.042-0.193,1.303-0.415c-0.418-0.554-0.613-0.958-0.589-1.21
			c0.058-0.496-0.326-0.854-1.143-1.081c0.053,0.635-0.077,1.318-0.398,2.036c-0.527,0.443-0.684,0.807-0.477,1.082
			C105.988,378.268,106.42,378.13,106.815,377.799z"/>
		<path fill="#5454F4" d="M78.85,420.423c1.297-1.088,1.955-2.58,1.978-4.488c2.707-0.729,4.906-1.805,6.596-3.227l2.239-1.878
			c-0.017-0.67-0.385-1.479-1.098-2.424c-0.315-0.419-0.654-0.863-1.01-1.336c-0.357-0.475-0.732-0.973-1.129-1.496
			c-1.135,0.436-2.227,0.927-3.285,1.469c-0.754,0.293-1.531,0.77-2.327,1.439l-2.241,1.881l1.071,1.417
			c0.52,0.256,1.64-0.091,3.37-1.03l0.954,1.26l-1.647,2.67c-0.754,0.294-1.489,0.395-2.207,0.308
			c-0.354-0.043-0.737-0.065-1.148-0.065c-0.404,0-0.878-0.033-1.416-0.098c-0.098,0.083-0.266,0.397-0.507,0.944
			c-0.6,1.361-0.789,1.862-0.57,1.506L78.85,420.423z"/>
		<path fill="#5454F4" d="M21.088,315.197c-0.317-0.416-1.183-0.711-2.604-0.881c-1.341,0.217-2.378-0.154-3.116-1.131
			c0.813,2.498,1.529,4.166,2.16,4.999L21.088,315.197z"/>
		<path fill="#5454F4" d="M27.498,325.827c0.445,1.445,0.99,1.445,1.62,0.004l-0.473-0.626c-0.63-0.834-1.3-1.294-2.009-1.38
			C27.057,324.385,27.345,325.049,27.498,325.827z"/>
		<path fill="#5454F4" d="M52.498,376.044c0.797-1.803,0.875-3.121,0.245-3.954c-0.523-0.695-0.919-0.937-1.183-0.711
			c-0.396,0.332-0.801,0.223-1.222-0.339c-0.501,0.198-0.906,0.653-1.228,1.373c-0.477,1.081-0.765,2.119-0.875,3.12
			C49.448,375.428,50.87,375.595,52.498,376.044z"/>
		<polygon fill="#5454F4" points="22.619,354.45 20.528,353.82 19.855,355.068 21.946,355.698 		"/>
		<path fill="#5454F4" d="M37.091,324.869c0.606-0.054,1.043-0.191,1.304-0.411c-0.418-0.559-0.613-0.957-0.589-1.209
			c0.057-0.498-0.324-0.857-1.143-1.084c0.053,0.632-0.078,1.318-0.399,2.039c-0.526,0.439-0.684,0.804-0.477,1.076
			C36.263,325.339,36.696,325.201,37.091,324.869z"/>
		<path fill="#5454F4" d="M44.243,358.725c0.421,0.561,1.105,0.892,2.049,1.005c0.712,0.087,1.264-0.036,1.659-0.372
			c-0.417-0.552-0.666-1.026-0.748-1.415c0.032-0.251-0.404-0.681-1.298-1.292c0.21,0.276,0.115,0.581-0.28,0.913L44.243,358.725z"
			/>
		<path fill="#5454F4" d="M16.629,403.028c-0.185,0.61,0.239-0.539,1.271-3.452c0.717-1.052,1.204-2.258,1.468-3.618
			c-0.26,0.223-0.656,0.553-1.187,0.997c-0.526,0.441-1.118,0.939-1.779,1.496c-1.315,1.104-2.149,2.142-2.493,3.113
			C14.991,401.567,15.896,402.057,16.629,403.028z"/>
		<polygon fill="#5454F4" points="17.719,409.606 15.15,411.766 16.095,413.015 18.666,410.859 		"/>
		<path fill="#5454F4" d="M26.838,400.932c0.606-0.057,1.043-0.193,1.304-0.417c-0.419-0.552-0.612-0.957-0.589-1.204
			c0.057-0.499-0.326-0.859-1.143-1.087c0.054,0.637-0.077,1.319-0.398,2.039c-0.527,0.438-0.686,0.804-0.477,1.08
			C26.012,401.4,26.443,401.262,26.838,400.932z"/>
		<path fill="#5454F4" d="M33.991,434.785c0.421,0.563,1.105,0.894,2.049,1.006c0.711,0.085,1.264-0.04,1.659-0.371
			c-0.419-0.555-0.666-1.027-0.745-1.417c0.029-0.251-0.406-0.682-1.3-1.293c0.209,0.278,0.115,0.583-0.28,0.915L33.991,434.785z"/>
		<path fill="#5454F4" d="M54.866,438.041c0.606-0.052,1.043-0.193,1.304-0.412c-0.418-0.554-0.613-0.957-0.588-1.208
			c0.057-0.499-0.327-0.86-1.143-1.085c0.053,0.636-0.078,1.317-0.401,2.038c-0.524,0.44-0.683,0.805-0.474,1.081
			C54.039,438.515,54.471,438.375,54.866,438.041z"/>
		<path fill="#5454F4" d="M19.962,395.459c-0.316-0.414-1.183-0.707-2.604-0.877c-1.341,0.218-2.379-0.156-3.116-1.132
			c0.813,2.496,1.53,4.165,2.162,5.001L19.962,395.459z"/>
		<path fill="#5454F4" d="M61.234,366.891c-0.316-0.419-1.183-0.71-2.604-0.882c-1.341,0.222-2.378-0.156-3.116-1.128
			c0.813,2.496,1.529,4.165,2.159,4.999L61.234,366.891z"/>
		<path fill="#5454F4" d="M37.854,372.945c-0.313-0.415-1.183-0.711-2.603-0.88c-1.339,0.217-2.38-0.155-3.114-1.133
			c0.813,2.499,1.529,4.168,2.159,5.001L37.854,372.945z"/>
		<path fill="#5454F4" d="M59.097,382.521c-0.314-0.42-1.183-0.711-2.604-0.882c-1.34,0.22-2.38-0.156-3.117-1.131
			c0.814,2.497,1.531,4.165,2.16,4.997L59.097,382.521z"/>
		<path fill="#5454F4" d="M20.936,438.893c0.797-1.799,0.875-3.117,0.245-3.95c-0.523-0.691-0.919-0.935-1.183-0.709
			c-0.396,0.331-0.801,0.221-1.224-0.34c-0.5,0.197-0.903,0.652-1.226,1.372c-0.476,1.082-0.765,2.119-0.875,3.118
			C17.886,438.28,19.306,438.449,20.936,438.893z"/>
		<path fill="#5454F4" d="M24.77,438.842c0.609-0.056,1.043-0.196,1.306-0.416c-0.419-0.552-0.615-0.956-0.591-1.208
			c0.057-0.495-0.324-0.858-1.141-1.084c0.054,0.638-0.077,1.318-0.4,2.039c-0.525,0.438-0.684,0.805-0.476,1.079
			C23.944,439.308,24.377,439.173,24.77,438.842z"/>
		<path fill="#5454F4" d="M227.094,393.121c0.361-0.028,0.623-0.115,0.78-0.246c-0.251-0.332-0.367-0.571-0.353-0.722
			c0.034-0.298-0.195-0.514-0.684-0.647c0.032,0.378-0.045,0.787-0.238,1.214c-0.315,0.267-0.409,0.485-0.286,0.649
			C226.6,393.401,226.858,393.319,227.094,393.121z"/>
		<path fill="#5454F4" d="M231.366,413.353c0.253,0.333,0.662,0.532,1.225,0.597c0.426,0.052,0.756-0.021,0.993-0.221
			c-0.251-0.331-0.399-0.611-0.446-0.845c0.018-0.15-0.244-0.408-0.776-0.772c0.123,0.168,0.069,0.347-0.167,0.546L231.366,413.353z
			"/>
		<path fill="#5454F4" d="M194.639,392.072c0.477-1.076,0.524-1.862,0.146-2.363c-0.313-0.411-0.549-0.556-0.708-0.425
			c-0.234,0.2-0.478,0.135-0.73-0.199c-0.298,0.116-0.541,0.388-0.734,0.818c-0.283,0.648-0.455,1.268-0.522,1.864
			C192.816,391.706,193.666,391.809,194.639,392.072z"/>
		<path fill="#5454F4" d="M214.868,439.824c-0.108,0.364,0.143-0.324,0.76-2.063c0.427-0.629,0.717-1.351,0.876-2.162
			c-0.155,0.131-0.392,0.33-0.708,0.597c-0.314,0.261-0.67,0.561-1.064,0.891c-0.787,0.659-1.284,1.284-1.489,1.861
			C213.889,438.95,214.429,439.241,214.868,439.824z"/>
		<polygon fill="#5454F4" points="215.521,443.754 213.983,445.045 214.547,445.793 216.084,444.504 		"/>
		<path fill="#5454F4" d="M220.969,438.569c0.361-0.033,0.621-0.117,0.778-0.249c-0.25-0.331-0.367-0.57-0.353-0.721
			c0.034-0.299-0.195-0.514-0.682-0.647c0.032,0.381-0.047,0.787-0.24,1.221c-0.314,0.261-0.409,0.479-0.285,0.644
			C220.473,438.85,220.733,438.771,220.969,438.569z"/>
		<path fill="#5454F4" d="M205.2,465.241c1.025-0.86,1.545-2.043,1.564-3.555c2.141-0.573,3.881-1.423,5.22-2.548l1.771-1.485
			c-0.014-0.531-0.304-1.174-0.869-1.92c-0.25-0.33-0.518-0.683-0.799-1.059c-0.283-0.374-0.581-0.768-0.895-1.182
			c-0.897,0.345-1.76,0.734-2.596,1.164c-0.599,0.229-1.212,0.608-1.843,1.136l-1.772,1.488l0.849,1.122
			c0.407,0.2,1.295-0.07,2.666-0.813l0.751,0.995l-1.302,2.11c-0.595,0.234-1.177,0.313-1.745,0.244
			c-0.28-0.032-0.583-0.05-0.908-0.05c-0.32,0-0.696-0.03-1.122-0.077c-0.078,0.065-0.209,0.313-0.402,0.744
			c-0.472,1.076-0.624,1.477-0.45,1.193L205.2,465.241z"/>
		<path fill="#5454F4" d="M169.746,401.164c-0.189-0.248-0.709-0.422-1.559-0.525c-0.8,0.132-1.421-0.094-1.861-0.676
			c0.487,1.492,0.916,2.489,1.292,2.99L169.746,401.164z"/>
		<path fill="#5454F4" d="M173.576,407.517c0.266,0.862,0.59,0.862,0.967,0l-0.283-0.371c-0.375-0.499-0.776-0.771-1.202-0.827
			C173.311,406.655,173.483,407.051,173.576,407.517z"/>
		<path fill="#5454F4" d="M188.513,437.52c0.477-1.074,0.521-1.863,0.147-2.362c-0.313-0.411-0.548-0.557-0.708-0.423
			c-0.234,0.197-0.479,0.131-0.731-0.203c-0.299,0.117-0.54,0.39-0.733,0.819c-0.284,0.648-0.457,1.27-0.523,1.864
			C186.689,437.153,187.539,437.254,188.513,437.52z"/>
		<polygon fill="#5454F4" points="170.66,424.62 169.413,424.244 169.008,424.988 170.258,425.363 		"/>
		<path fill="#5454F4" d="M159.813,423.547c1.084-0.095,1.319,0.725,0.703,2.465c1.811-0.841,3.095-2.124,3.852-3.845
			c-0.125-0.164-1.145-0.327-3.066-0.479c-0.596-1.13-0.388-2.047,0.621-2.76c1.543-1.024,2.395-1.602,2.55-1.732
			c-0.125-0.166-0.468-0.286-1.036-0.351c-0.566-0.069-1.023-0.159-1.367-0.28c-0.947,1.475-2.524,3.819-4.734,7.03
			C158.183,423.692,159.011,423.682,159.813,423.547z"/>
		<path fill="#5454F4" d="M184.409,432.089c-0.188-0.247-0.706-0.427-1.555-0.528c-0.802,0.131-1.42-0.091-1.861-0.674
			c0.487,1.493,0.913,2.487,1.292,2.986L184.409,432.089z"/>
		<path fill="#5454F4" d="M188.24,438.441c0.266,0.863,0.59,0.863,0.969,0l-0.283-0.375c-0.375-0.496-0.777-0.772-1.202-0.822
			C187.976,437.578,188.149,437.976,188.24,438.441z"/>
		<path fill="#5454F4" d="M186.491,423.341c-0.188-0.249-0.706-0.423-1.556-0.525c-0.801,0.131-1.422-0.095-1.861-0.678
			c0.484,1.492,0.913,2.491,1.29,2.986L186.491,423.341z"/>
		<path fill="#5454F4" d="M190.323,429.689c0.266,0.866,0.59,0.866,0.967,0.003l-0.282-0.375c-0.375-0.494-0.776-0.771-1.202-0.822
			C190.059,428.831,190.229,429.228,190.323,429.689z"/>
		<path fill="#5454F4" d="M205.259,459.695c0.477-1.076,0.523-1.865,0.147-2.363c-0.313-0.411-0.548-0.557-0.707-0.422
			c-0.236,0.195-0.478,0.132-0.73-0.205c-0.299,0.118-0.542,0.391-0.734,0.82c-0.285,0.648-0.456,1.269-0.522,1.865
			C203.438,459.328,204.286,459.431,205.259,459.695z"/>
		<polygon fill="#5454F4" points="187.408,446.793 186.158,446.417 185.756,447.165 187.005,447.538 		"/>
		<path fill="#5454F4" d="M177.558,444.723c1.086-0.094,1.319,0.725,0.703,2.466c1.814-0.841,3.096-2.124,3.854-3.847
			c-0.124-0.163-1.145-0.322-3.066-0.479c-0.594-1.128-0.387-2.05,0.619-2.76c1.544-1.022,2.395-1.603,2.552-1.732
			c-0.125-0.164-0.47-0.284-1.038-0.353c-0.565-0.067-1.02-0.161-1.368-0.277c-0.946,1.474-2.524,3.815-4.732,7.025
			C175.931,444.868,176.757,444.854,177.558,444.723z"/>
		<path fill="#5454F4" d="M198.673,424.898c-0.187-0.248-0.707-0.423-1.556-0.529c-0.8,0.135-1.422-0.09-1.862-0.672
			c0.487,1.492,0.916,2.489,1.292,2.984L198.673,424.898z"/>
		<path fill="#5454F4" d="M216.86,435.303c-0.189-0.251-0.708-0.426-1.557-0.529c-0.799,0.133-1.422-0.094-1.862-0.676
			c0.488,1.498,0.917,2.489,1.292,2.988L216.86,435.303z"/>
		<path fill="#5454F4" d="M227.551,421.847c-0.188-0.248-0.708-0.423-1.556-0.524c-0.801,0.131-1.424-0.095-1.864-0.677
			c0.487,1.492,0.916,2.49,1.292,2.989L227.551,421.847z"/>
		<path fill="#5454F4" d="M202.504,431.247c0.266,0.866,0.59,0.866,0.966,0.003l-0.28-0.375c-0.377-0.494-0.778-0.771-1.202-0.822
			C202.24,430.389,202.412,430.785,202.504,431.247z"/>
		<path fill="#5454F4" d="M219.409,454.987c0.478-1.076,0.524-1.862,0.146-2.361c-0.311-0.415-0.547-0.559-0.706-0.426
			c-0.237,0.2-0.479,0.134-0.731-0.202c-0.298,0.119-0.54,0.391-0.734,0.821c-0.283,0.647-0.456,1.267-0.524,1.863
			C217.587,454.622,218.437,454.723,219.409,454.987z"/>
		<polygon fill="#5454F4" points="199.589,448.353 198.34,447.978 197.938,448.723 199.187,449.098 		"/>
		<path fill="#5454F4" d="M188.741,447.281c1.085-0.095,1.319,0.724,0.703,2.465c1.811-0.841,3.096-2.124,3.852-3.846
			c-0.125-0.164-1.145-0.326-3.064-0.479c-0.596-1.133-0.389-2.05,0.619-2.76c1.544-1.023,2.395-1.606,2.55-1.733
			c-0.125-0.167-0.468-0.284-1.038-0.353c-0.564-0.067-1.021-0.161-1.367-0.276c-0.945,1.475-2.523,3.814-4.733,7.025
			C187.113,447.426,187.939,447.412,188.741,447.281z"/>
		<polygon fill="#5454F4" points="174.951,442.574 173.77,443.565 174.147,444.063 175.327,443.072 		"/>
		<path fill="#5454F4" d="M168.509,423.816c-0.188-0.25-0.706-0.426-1.556-0.528c-0.801,0.132-1.42-0.092-1.861-0.672
			c0.484,1.492,0.913,2.485,1.29,2.984L168.509,423.816z"/>
		<path fill="#5454F4" d="M172.34,430.166c0.266,0.866,0.59,0.866,0.967,0.004l-0.282-0.373c-0.375-0.5-0.776-0.774-1.202-0.825
			C172.076,429.307,172.25,429.703,172.34,430.166z"/>
		<path fill="#5454F4" d="M202.805,379.112c0.254-0.35,0.254-0.688,0.003-1.02c-0.329-0.27-0.613-0.302-0.85-0.101L202.805,379.112z
			"/>
		<path fill="#5454F4" d="M345.555,254.991c0.986,3.196,2.188,3.199,3.582,0.005l-1.045-1.383c-1.394-1.846-2.878-2.865-4.451-3.052
			C344.576,251.798,345.214,253.269,345.555,254.991z"/>
		<path fill="#5454F4" d="M255.439,285.072c-0.185,0.612,0.236-0.541,1.271-3.45c0.716-1.057,1.201-2.262,1.468-3.618
			c-0.261,0.218-0.656,0.549-1.188,0.992c-0.527,0.445-1.12,0.939-1.78,1.497c-1.316,1.103-2.146,2.145-2.495,3.115
			C253.8,283.613,254.703,284.098,255.439,285.072z"/>
		<polygon fill="#5454F4" points="258.555,323.501 251.72,331.499 253.116,333.345 259.599,324.885 		"/>
		<polygon fill="#5454F4" points="243.652,407.936 240.589,410.51 241.634,411.895 244.697,409.319 		"/>
		<polygon fill="#AFAFAF" points="177.796,160.562 174.622,158.221 172.801,159.906 175.976,162.247 		"/>
		<polygon fill="#5454F4" points="305.528,379.073 301.15,382.746 302.546,384.593 306.922,380.917 		"/>
		<polygon fill="#5454F4" points="251.364,375.533 248.299,378.104 249.346,379.488 252.41,376.917 		"/>
		<polygon fill="#5454F4" points="296.486,381.304 293.421,383.874 294.468,385.258 297.531,382.688 		"/>
		<polygon fill="#5454F4" points="253.979,407.404 247.146,415.402 248.54,417.249 255.024,408.788 		"/>
		<polygon fill="#5454F4" points="184.757,377.296 181.691,379.869 182.738,381.253 185.802,378.684 		"/>
		<path fill="#5454F4" d="M291.8,364.207c1.341-0.117,2.307-0.429,2.885-0.914c-0.927-1.229-1.358-2.118-1.306-2.674
			c0.126-1.101-0.719-1.902-2.528-2.405c0.118,1.409-0.173,2.922-0.883,4.515c-1.167,0.977-1.514,1.783-1.054,2.392
			C289.966,365.249,290.924,364.942,291.8,364.207z"/>
		<path fill="#5454F4" d="M328.312,317.454c-0.33,1.095,0.427-0.972,2.282-6.2c1.288-1.892,2.161-4.052,2.639-6.495
			c-0.47,0.394-1.18,0.991-2.131,1.788c-0.945,0.793-2.012,1.688-3.197,2.682c-2.365,1.984-3.859,3.853-4.479,5.596
			C325.37,314.833,326.995,315.706,328.312,317.454z"/>
		<polygon fill="#5454F4" points="330.271,329.268 325.654,333.146 327.351,335.392 331.969,331.515 		"/>
		<path fill="#5454F4" d="M177.892,390.46c0.934,1.238,2.446,1.973,4.539,2.225c1.573,0.186,2.795-0.087,3.67-0.822
			c-0.928-1.228-1.475-2.275-1.652-3.135c0.065-0.554-0.898-1.512-2.876-2.866c0.467,0.62,0.26,1.293-0.617,2.029L177.892,390.46z"
			/>
		<polygon fill="#5454F4" points="416.105,255.089 413.585,257.208 414.388,258.271 416.906,256.151 		"/>
		<polygon fill="#5454F4" points="359.206,223.229 356.141,225.798 357.185,227.182 360.248,224.611 		"/>
		<polygon fill="#5454F4" points="432.813,258.726 430.146,257.921 429.286,259.512 431.952,260.313 		"/>
		<path fill="#5454F4" d="M435.603,196.961c1.104-2.49,1.209-4.314,0.339-5.468c-0.723-0.958-1.271-1.289-1.638-0.984
			c-0.545,0.459-1.105,0.31-1.692-0.461c-0.689,0.264-1.249,0.899-1.694,1.892c-0.661,1.496-1.058,2.935-1.212,4.315
			C431.384,196.11,433.352,196.346,435.603,196.961z"/>
		<path fill="#5454F4" d="M298.982,235.433c-0.697-0.922-2.617-1.573-5.763-1.948c-2.966,0.484-5.265-0.346-6.896-2.505
			c1.799,5.53,3.385,9.221,4.781,11.067L298.982,235.433z"/>
		<polygon fill="#5454F4" points="303.829,298.743 299.202,297.35 297.709,300.11 302.336,301.504 		"/>
		<polygon fill="#5454F4" points="227.628,303.903 220.793,311.897 222.188,313.744 228.671,305.286 		"/>
		<polygon fill="#5454F4" points="266.89,391.876 262.514,395.55 263.908,397.396 268.284,393.722 		"/>
		<polygon fill="#5454F4" points="212.725,388.337 209.663,390.908 210.706,392.293 213.771,389.721 		"/>
		<path fill="#AFAFAF" d="M96.372,186.895c-0.3-0.896-1.601-1.923-3.899-3.076c-2.377-0.456-3.919-1.724-4.624-3.816
			c-0.005,4.705,0.282,7.953,0.882,9.742L96.372,186.895z"/>
		<polygon fill="#5454F4" points="274.601,359.476 270.222,363.148 271.618,364.993 275.996,361.315 		"/>
		<polygon fill="#5454F4" points="289.659,386.041 282.825,394.039 284.221,395.885 290.704,387.425 		"/>
		<polygon fill="#5454F4" points="220.436,355.932 217.371,358.506 218.417,359.889 221.48,357.319 		"/>
		<polygon fill="#AFAFAF" points="192.037,153.972 188.866,151.631 187.042,153.316 190.216,155.656 		"/>
		<polygon fill="#5454F4" points="319.724,365.245 315.347,368.919 316.74,370.765 321.117,367.091 		"/>
		<polygon fill="#5454F4" points="265.557,361.702 262.495,364.275 263.54,365.66 266.604,363.087 		"/>
		<path fill="#5454F4" d="M179.73,324.921c-0.483-0.638-1.809-1.085-3.981-1.343c-2.051,0.333-3.641-0.24-4.766-1.733
			c1.243,3.822,2.339,6.37,3.303,7.645L179.73,324.921z"/>
		<path fill="#5454F4" d="M310.051,319.296c0.986,3.196,2.188,3.196,3.583,0.007l-1.047-1.384c-1.394-1.848-2.876-2.865-4.449-3.051
			C309.072,316.103,309.712,317.574,310.051,319.296z"/>
		<polygon fill="#5454F4" points="299.254,382.647 294.627,381.253 293.134,384.014 297.764,385.407 		"/>
		<polygon fill="#5454F4" points="207.993,361.236 203.615,364.913 205.011,366.756 209.387,363.083 		"/>
		<polygon fill="#5454F4" points="223.052,387.808 216.218,395.802 217.613,397.651 224.096,389.19 		"/>
		<polygon fill="#5454F4" points="153.826,357.697 150.763,360.269 151.81,361.655 154.873,359.08 		"/>
		<path fill="#5454F4" d="M260.87,344.604c1.343-0.115,2.309-0.426,2.887-0.913c-0.928-1.226-1.356-2.119-1.305-2.671
			c0.126-1.104-0.72-1.901-2.528-2.402c0.117,1.407-0.171,2.914-0.883,4.509c-1.166,0.98-1.515,1.784-1.055,2.397
			C259.039,345.648,259.997,345.341,260.87,344.604z"/>
		<path fill="#5454F4" d="M225.313,449.294c2.062-2.748,2.701-5.981,1.923-9.717c4.968-2.72,8.799-5.876,11.487-9.457l3.563-4.749
			c-0.326-1.3-1.388-2.705-3.192-4.205c-0.797-0.665-1.649-1.381-2.552-2.129c-0.9-0.75-1.849-1.542-2.852-2.378
			c-2.024,1.398-3.949,2.879-5.776,4.444c-1.344,0.936-2.654,2.244-3.924,3.934l-3.562,4.746l2.702,2.255
			c1.123,0.243,3.163-0.966,6.137-3.63l2.402,2.002l-2.059,6c-1.347,0.936-2.736,1.485-4.178,1.663
			c-0.71,0.088-1.469,0.227-2.27,0.423c-0.791,0.195-1.732,0.356-2.808,0.487c-0.155,0.212-0.347,0.907-0.585,2.087
			c-0.58,2.941-0.733,4.02-0.46,3.214L225.313,449.294z"/>
		<path fill="#5454F4" d="M350.548,287.396c1.344-0.084-1.248-0.088-7.773-0.019c-2.631-0.722-5.381-0.82-8.254-0.317
			c0.637,0.397,1.602,0.995,2.896,1.792c1.284,0.794,2.732,1.689,4.344,2.683c3.215,1.988,5.911,2.97,8.089,2.949
			C348.995,292.125,349.229,289.77,350.548,287.396z"/>
		<polygon fill="#5454F4" points="305.178,313.364 300.561,317.238 302.256,319.485 306.873,315.61 		"/>
		<polygon fill="#5454F4" points="199.952,360.749 194.262,365.525 196.354,368.292 202.042,363.516 		"/>
		<polygon fill="#5454F4" points="176.221,360.063 170.531,364.841 172.62,367.608 178.312,362.831 		"/>
		<path fill="#5454F4" d="M306.915,341.208c1.296-0.381-1.238,0.197-7.601,1.727c-2.715-0.116-5.421,0.4-8.128,1.54
			c0.703,0.24,1.767,0.608,3.19,1.099c1.415,0.489,3.01,1.039,4.787,1.655c3.541,1.219,6.372,1.575,8.497,1.065
			C306.35,346.178,306.104,343.824,306.915,341.208z"/>
		<polygon fill="#5454F4" points="300.824,364.579 295.134,369.355 297.225,372.126 302.916,367.35 		"/>
		<path fill="#5454F4" d="M146.963,370.862c0.933,1.238,2.446,1.975,4.539,2.222c1.571,0.189,2.795-0.085,3.67-0.819
			c-0.927-1.228-1.474-2.276-1.652-3.135c0.065-0.558-0.898-1.511-2.879-2.866c0.469,0.62,0.26,1.294-0.614,2.028L146.963,370.862z"
			/>
		<path fill="#5454F4" d="M112.057,343.133c0.934,1.232,2.447,1.969,4.539,2.219c1.574,0.188,2.796-0.083,3.673-0.819
			c-0.929-1.228-1.478-2.273-1.654-3.135c0.068-0.557-0.897-1.51-2.877-2.863c0.467,0.619,0.26,1.291-0.617,2.023L112.057,343.133z"
			/>
		<path fill="#5454F4" d="M86.557,328.565c0.935,1.233,2.447,1.969,4.539,2.221c1.574,0.188,2.797-0.084,3.672-0.819
			c-0.929-1.227-1.476-2.275-1.653-3.138c0.067-0.554-0.898-1.508-2.876-2.862c0.466,0.619,0.259,1.291-0.616,2.023L86.557,328.565z
			"/>
		<polygon fill="#5454F4" points="253.998,389.023 250.936,391.596 251.982,392.979 255.044,390.406 		"/>
		<polygon fill="#5454F4" points="296.869,315.625 290.038,323.625 291.43,325.471 297.915,317.013 		"/>
		<polygon fill="#5454F4" points="289.679,367.657 286.616,370.229 287.661,371.615 290.725,369.042 		"/>
		<polygon fill="#5454F4" points="277.237,372.963 272.859,376.637 274.253,378.482 278.629,374.81 		"/>
		<polygon fill="#5454F4" points="223.071,369.425 220.008,371.995 221.052,373.383 224.117,370.808 		"/>
		<path fill="#5454F4" d="M330.116,356.332c1.341-0.115,2.307-0.425,2.884-0.914c-0.926-1.227-1.357-2.118-1.303-2.672
			c0.126-1.103-0.721-1.899-2.53-2.402c0.119,1.409-0.17,2.916-0.883,4.511c-1.164,0.98-1.513,1.784-1.054,2.396
			C328.283,357.373,329.238,357.067,330.116,356.332z"/>
		<polygon fill="#5454F4" points="269.195,372.471 263.507,377.25 265.595,380.019 271.286,375.242 		"/>
		<path fill="#5454F4" d="M235.853,338.314c-0.41,1.35,0.528-1.198,2.811-7.642c1.588-2.33,2.665-4.995,3.252-8.005
			c-0.578,0.484-1.455,1.218-2.627,2.206c-1.165,0.975-2.477,2.077-3.939,3.305c-2.915,2.448-4.755,4.743-5.52,6.896
			C232.227,335.082,234.23,336.163,235.853,338.314z"/>
		<polygon fill="#5454F4" points="313.254,366.148 307.565,370.924 309.656,373.695 315.347,368.919 		"/>
		<polygon fill="#5454F4" points="245.464,371.79 239.773,376.568 241.865,379.335 247.554,374.559 		"/>
		<polygon fill="#5454F4" points="214.536,352.188 208.845,356.966 210.937,359.736 216.627,354.96 		"/>
		<path fill="#5454F4" d="M216.206,382.59c0.935,1.232,2.448,1.97,4.539,2.221c1.573,0.188,2.797-0.085,3.671-0.818
			c-0.926-1.232-1.476-2.277-1.654-3.141c0.067-0.553-0.895-1.506-2.876-2.859c0.468,0.618,0.26,1.288-0.617,2.023L216.206,382.59z"
			/>
		<polygon fill="#5454F4" points="175,283.723 170.625,287.396 172.018,289.241 176.395,285.567 		"/>
		<path fill="#5454F4" d="M56.308,429.679c1.628-3.006,1.801-6.267,0.515-9.794c4.474-3.433,7.775-7.11,9.899-11.031l2.813-5.195
			c-0.497-1.217-1.734-2.422-3.707-3.608c-0.873-0.527-1.806-1.088-2.792-1.682c-0.984-0.595-2.021-1.22-3.12-1.878
			c-1.782,1.681-3.453,3.428-5.019,5.241c-1.185,1.126-2.281,2.604-3.282,4.453l-2.816,5.191l2.955,1.78
			c1.131,0.07,2.957-1.435,5.49-4.499l2.627,1.582l-1.173,6.183c-1.184,1.125-2.464,1.879-3.846,2.276
			c-0.683,0.196-1.405,0.452-2.159,0.767c-0.746,0.314-1.642,0.619-2.674,0.916c-0.123,0.229-0.213,0.938-0.28,2.124
			c-0.154,2.968-0.154,4.046,0,3.216L56.308,429.679z"/>
		<path fill="#5454F4" d="M70.94,362.788c0.931,1.233,2.445,1.969,4.538,2.22c1.571,0.186,2.796-0.087,3.671-0.822
			c-0.928-1.226-1.477-2.275-1.655-3.134c0.068-0.554-0.896-1.509-2.876-2.862c0.466,0.616,0.259,1.288-0.616,2.023L70.94,362.788z"
			/>
		<polygon fill="#5454F4" points="286.678,354.883 279.848,362.879 281.24,364.726 287.725,356.268 		"/>
		<polygon fill="#5454F4" points="212.881,408.679 209.815,411.248 210.861,412.637 213.924,410.062 		"/>
		<path fill="#5454F4" d="M206.016,421.844c0.934,1.234,2.448,1.97,4.539,2.22c1.573,0.19,2.797-0.083,3.671-0.817
			c-0.926-1.228-1.476-2.276-1.653-3.141c0.067-0.552-0.898-1.506-2.876-2.86c0.467,0.62,0.26,1.289-0.616,2.024L206.016,421.844z"
			/>
		<polygon fill="#5454F4" points="255.751,335.281 248.919,343.28 250.312,345.126 256.794,336.664 		"/>
		<polygon fill="#5454F4" points="248.56,387.315 245.497,389.885 246.542,391.27 249.606,388.698 		"/>
		<polygon fill="#5454F4" points="236.118,392.619 231.741,396.293 233.135,398.139 237.511,394.465 		"/>
		<polygon fill="#5454F4" points="181.953,389.08 178.89,391.652 179.935,393.035 182.999,390.464 		"/>
		<path fill="#5454F4" d="M288.996,375.988c1.341-0.116,2.307-0.43,2.885-0.913c-0.927-1.227-1.357-2.119-1.305-2.677
			c0.126-1.099-0.721-1.899-2.53-2.397c0.119,1.408-0.17,2.914-0.882,4.51c-1.165,0.977-1.514,1.783-1.054,2.393
			C287.164,377.029,288.121,376.725,288.996,375.988z"/>
		<path fill="#5454F4" d="M220.919,371.388c-1.344,0.115,1.248,0.058,7.771-0.161c2.646,0.664,5.395,0.699,8.259,0.128
			c-0.644-0.379-1.623-0.955-2.932-1.723c-1.301-0.763-2.766-1.627-4.398-2.585c-3.253-1.916-5.97-2.836-8.147-2.763
			C222.375,366.622,222.188,368.983,220.919,371.388z"/>
		<polygon fill="#5454F4" points="228.076,392.129 222.387,396.905 224.479,399.671 230.166,394.898 		"/>
		<polygon fill="#5454F4" points="197.148,372.53 191.458,377.306 193.55,380.074 199.241,375.297 		"/>
		<path fill="#5454F4" d="M201.93,376.884c-0.409,1.355,0.527-1.197,2.813-7.639c1.586-2.329,2.662-4.997,3.25-8.009
			c-0.579,0.488-1.455,1.224-2.627,2.207c-1.164,0.975-2.477,2.079-3.938,3.305c-2.916,2.448-4.754,4.748-5.519,6.896
			C198.303,373.654,200.306,374.733,201.93,376.884z"/>
		<polygon fill="#5454F4" points="204.344,391.442 198.655,396.221 200.747,398.99 206.436,394.214 		"/>
		<polygon fill="#5454F4" points="173.416,371.847 167.727,376.623 169.818,379.389 175.507,374.612 		"/>
		<polygon fill="#5454F4" points="261.508,407.917 255.817,412.69 257.91,415.461 263.6,410.685 		"/>
		<polygon fill="#5454F4" points="182.808,351.861 180.238,354.021 181.183,355.271 183.753,353.115 		"/>
		<polygon fill="#5454F4" points="142.565,365.97 139.48,369.581 140.108,370.416 143.039,366.595 		"/>
		<polygon fill="#5454F4" points="109.223,390.275 107.839,391.438 108.311,392.062 109.695,390.901 		"/>
		<path fill="#5454F4" d="M114.997,376.219c-0.184,0.611,0.239-0.543,1.271-3.451c0.719-1.053,1.203-2.258,1.469-3.616
			c-0.262,0.218-0.658,0.551-1.186,0.995c-0.527,0.438-1.121,0.938-1.78,1.491c-1.317,1.108-2.148,2.144-2.495,3.118
			C113.359,374.759,114.264,375.245,114.997,376.219z"/>
		<polygon fill="#5454F4" points="116.089,382.798 113.519,384.955 114.462,386.205 117.034,384.049 		"/>
		<path fill="#5454F4" d="M118.249,384.763c-0.185,0.615,0.238-0.54,1.271-3.45c0.718-1.05,1.203-2.258,1.469-3.616
			c-0.261,0.218-0.658,0.55-1.188,0.994c-0.525,0.445-1.118,0.939-1.778,1.497c-1.317,1.103-2.15,2.145-2.495,3.115
			C116.61,383.307,117.515,383.795,118.249,384.763z"/>
		<polygon fill="#5454F4" points="119.34,391.346 116.769,393.501 117.714,394.752 120.286,392.595 		"/>
		<polygon fill="#5454F4" points="105.367,382.487 102.796,384.646 103.74,385.899 106.312,383.74 		"/>
		<path fill="#5454F4" d="M106.121,396.225c0.421,0.556,1.106,0.888,2.051,1.002c0.71,0.087,1.263-0.038,1.66-0.37
			c-0.419-0.557-0.666-1.03-0.748-1.416c0.031-0.251-0.406-0.683-1.3-1.296c0.21,0.281,0.118,0.583-0.278,0.918L106.121,396.225z"/>
		<path fill="#5454F4" d="M135.561,381.21c-0.185,0.61,0.239-0.543,1.271-3.452c0.716-1.055,1.203-2.26,1.468-3.618
			c-0.262,0.219-0.657,0.549-1.187,0.992c-0.526,0.445-1.119,0.939-1.781,1.499c-1.317,1.103-2.148,2.143-2.493,3.111
			C133.923,379.749,134.827,380.234,135.561,381.21z"/>
		<path fill="#5454F4" d="M127.705,390.398c-0.184,0.608,0.239-0.542,1.271-3.455c0.717-1.052,1.203-2.257,1.47-3.616
			c-0.263,0.22-0.659,0.552-1.188,0.996c-0.527,0.443-1.119,0.941-1.78,1.495c-1.315,1.106-2.149,2.146-2.494,3.117
			C126.067,388.938,126.971,389.423,127.705,390.398z"/>
		<path fill="#5454F4" d="M116.983,390.09c-0.187,0.61,0.237-0.544,1.271-3.452c0.716-1.052,1.203-2.258,1.467-3.618
			c-0.26,0.217-0.656,0.55-1.185,0.997c-0.525,0.44-1.121,0.938-1.78,1.493c-1.318,1.106-2.148,2.145-2.494,3.116
			C115.345,388.629,116.248,389.118,116.983,390.09z"/>
		<polygon fill="#5454F4" points="118.075,396.668 115.502,398.823 116.448,400.076 119.019,397.916 		"/>
		<path fill="#5454F4" d="M175.087,402.245c0.935,1.235,2.448,1.971,4.539,2.221c1.572,0.19,2.796-0.086,3.673-0.821
			c-0.927-1.228-1.476-2.273-1.654-3.135c0.066-0.554-0.896-1.509-2.879-2.861c0.468,0.615,0.261,1.287-0.615,2.022L175.087,402.245
			z"/>
		<path fill="#5454F4" d="M372.313,245.001c-0.207-0.274-0.774-0.468-1.706-0.576c-0.877,0.142-1.553-0.102-2.038-0.739
			c0.533,1.631,1.002,2.724,1.416,3.269L372.313,245.001z"/>
		<path fill="#5454F4" d="M376.505,251.95c0.292,0.947,0.646,0.947,1.058,0.003l-0.309-0.409c-0.41-0.544-0.849-0.847-1.314-0.901
			C376.215,251.012,376.405,251.444,376.505,251.95z"/>
		<polygon fill="#5454F4" points="370.894,272.044 370.107,271.808 369.854,272.276 370.641,272.513 		"/>
		<polygon fill="#5454F4" points="387.928,272.679 387.403,273.12 387.584,273.354 388.104,272.916 		"/>
		<polygon fill="#5454F4" points="305.244,250.997 302.86,252.995 303.619,253.998 306,252.001 		"/>
		<polygon fill="#5454F4" points="332.968,321.654 332.063,322.416 332.373,322.824 333.276,322.062 		"/>
		<path fill="#5454F4" d="M363.461,256.221c0.274-0.379,0.274-0.75,0-1.114c-0.36-0.291-0.672-0.331-0.93-0.112L363.461,256.221z"/>
		<path fill="#5454F4" d="M315.576,319.59c0.398-0.035,0.682-0.127,0.854-0.269c-0.275-0.364-0.403-0.627-0.386-0.789
			c0.037-0.328-0.214-0.564-0.747-0.71c0.034,0.414-0.053,0.861-0.261,1.332c-0.345,0.288-0.449,0.527-0.313,0.705
			C315.034,319.896,315.318,319.809,315.576,319.59z"/>
		<path fill="#5454F4" d="M352.092,251.945c0.279-0.377,0.28-0.748,0.004-1.113c-0.359-0.29-0.672-0.331-0.93-0.113L352.092,251.945
			z"/>
		<path fill="#5454F4" d="M345.061,251.76c0.28-0.382,0.279-0.748,0.004-1.117c-0.359-0.29-0.671-0.328-0.929-0.109L345.061,251.76z
			"/>
		<path fill="#AFAFAF" d="M77.584,172.295c0.187,0.051,0.33,0.054,0.428,0.019c-0.07-0.208-0.088-0.35-0.056-0.422
			c0.065-0.143-0.014-0.292-0.234-0.444c-0.046,0.192-0.151,0.382-0.317,0.561c-0.2,0.075-0.283,0.167-0.247,0.269
			C77.293,172.347,77.436,172.354,77.584,172.295z"/>
		<path fill="#AFAFAF" d="M75.563,176.169c0.071,0.21,0.243,0.382,0.512,0.52c0.203,0.102,0.379,0.124,0.53,0.069
			c-0.071-0.212-0.099-0.379-0.084-0.502c0.033-0.073-0.053-0.248-0.261-0.525c0.035,0.105-0.022,0.186-0.173,0.24L75.563,176.169z"
			/>
		<path fill="#5454F4" d="M359.606,322.697c0.312-0.707,0.342-1.222,0.097-1.549c-0.203-0.27-0.359-0.364-0.464-0.275
			c-0.151,0.127-0.31,0.086-0.476-0.132c-0.198,0.076-0.356,0.251-0.48,0.535c-0.187,0.423-0.3,0.829-0.341,1.221
			C358.415,322.453,358.97,322.521,359.606,322.697z"/>
		<polygon fill="#5454F4" points="338.938,345.752 338.123,345.505 337.858,345.992 338.677,346.24 		"/>
		<path fill="#5454F4" d="M331.845,345.054c0.709-0.064,0.861,0.473,0.459,1.608c1.184-0.549,2.023-1.386,2.519-2.516
			c-0.081-0.104-0.749-0.21-2.005-0.312c-0.387-0.74-0.254-1.34,0.406-1.808c1.009-0.665,1.566-1.047,1.667-1.13
			c-0.081-0.111-0.305-0.187-0.678-0.231c-0.369-0.044-0.667-0.105-0.894-0.182c-0.619,0.964-1.651,2.497-3.097,4.599
			C330.779,345.148,331.319,345.138,331.845,345.054z"/>
		<polygon fill="#5454F4" points="325.483,346.662 324.276,348.075 324.523,348.399 325.668,346.907 		"/>
		<path fill="#5454F4" d="M368.466,298.021c-0.124-0.162-0.463-0.28-1.018-0.345c-0.524,0.087-0.929-0.058-1.219-0.441
			c0.317,0.978,0.6,1.628,0.842,1.957L368.466,298.021z"/>
		<path fill="#AFAFAF" d="M72.279,179.704c-0.052-0.156-0.282-0.337-0.687-0.542c-0.421-0.081-0.693-0.301-0.817-0.674
			c-0.001,0.831,0.05,1.406,0.156,1.719L72.279,179.704z"/>
		<path fill="#5454F4" d="M337.531,345.229c-0.122-0.165-0.462-0.28-1.017-0.348c-0.524,0.089-0.931-0.058-1.218-0.438
			c0.318,0.975,0.599,1.626,0.845,1.954L337.531,345.229z"/>
		<polygon fill="#5454F4" points="412.901,275.251 411.161,274.727 410.598,275.764 412.343,276.292 		"/>
		<polygon fill="#5454F4" points="384.202,277.194 381.63,280.205 382.155,280.901 384.596,277.715 		"/>
		<polygon fill="#AFAFAF" points="82.558,175.699 80.613,176.423 80.908,177.3 82.851,176.576 		"/>
		<polygon fill="#AFAFAF" points="118.043,172.54 115.267,173.577 115.661,174.746 118.437,173.711 		"/>
		<polygon fill="#AFAFAF" points="149.866,164.447 145.163,167.191 145.556,168.359 150.161,165.323 		"/>
		<polygon fill="#AFAFAF" points="92.524,167.937 90.582,168.666 90.877,169.542 92.82,168.819 		"/>
		<polygon fill="#AFAFAF" points="167.358,152.577 164.582,153.611 164.974,154.783 167.75,153.746 		"/>
		<polygon fill="#AFAFAF" points="113.182,172.011 111.237,172.736 111.533,173.617 113.476,172.893 		"/>
		<polygon fill="#AFAFAF" points="155.192,164.497 153.116,162.964 151.923,164.067 154.001,165.599 		"/>
		<polygon fill="#AFAFAF" points="227.172,141.848 224.396,142.885 224.791,144.055 227.566,143.02 		"/>
		<polygon fill="#AFAFAF" points="87.782,177.3 83.078,180.047 83.472,181.215 88.075,178.182 		"/>
		<polygon fill="#5454F4" points="366.358,311.228 364.354,312.909 365.036,313.816 367.043,312.134 		"/>
		<path fill="#AFAFAF" d="M114.488,169.627c0.687,0.182,1.217,0.204,1.585,0.064c-0.263-0.778-0.331-1.299-0.213-1.564
			c0.241-0.529-0.049-1.078-0.868-1.653c-0.171,0.721-0.562,1.42-1.174,2.082c-0.739,0.277-1.044,0.616-0.916,1.001
			C113.407,169.812,113.932,169.834,114.488,169.627z"/>
		<path fill="#5454F4" d="M348.653,321.64c0.611,0.808,1.6,1.29,2.967,1.454c1.029,0.123,1.831-0.055,2.402-0.536
			c-0.606-0.805-0.966-1.487-1.081-2.054c0.043-0.359-0.587-0.986-1.882-1.871c0.305,0.404,0.17,0.845-0.402,1.326L348.653,321.64z"
			/>
		<polygon fill="#5454F4" points="401.254,267.867 399.51,267.344 398.95,268.385 400.691,268.907 		"/>
		<polygon fill="#5454F4" points="372.555,269.812 369.979,272.822 370.503,273.518 372.949,270.333 		"/>
		<path fill="#AFAFAF" d="M147.963,165.803c2.058,0.551,1.994,2.222-0.193,5.013c3.849-0.337,6.987-1.838,9.422-4.502
			c-0.129-0.387-1.915-1.369-5.359-2.943c-0.415-2.479,0.519-4.033,2.806-4.667c3.463-0.852,5.381-1.35,5.748-1.489
			c-0.131-0.386-0.692-0.834-1.7-1.34c-0.999-0.502-1.786-0.98-2.354-1.427c-2.631,2.078-6.953,5.341-12.961,9.775
			C144.874,164.98,146.407,165.51,147.963,165.803z"/>
		<polygon fill="#AFAFAF" points="96.734,171.917 93.958,172.95 94.352,174.123 97.126,173.085 		"/>
		<polygon fill="#AFAFAF" points="106.704,164.154 103.925,165.192 104.318,166.365 107.095,165.327 		"/>
		<polygon fill="#AFAFAF" points="109.013,173.132 104.311,175.874 104.704,177.047 109.307,174.01 		"/>
		<polygon fill="#AFAFAF" points="77.921,187.968 75.977,188.692 76.272,189.57 78.215,188.846 		"/>
		<polygon fill="#AFAFAF" points="127.358,168.228 124.581,169.266 124.976,170.434 127.752,169.4 		"/>
		<polygon fill="#AFAFAF" points="159.18,160.14 154.478,162.881 154.871,164.049 159.475,161.016 		"/>
		<polygon fill="#AFAFAF" points="101.839,163.626 99.897,164.355 100.19,165.232 102.135,164.508 		"/>
		<path fill="#5454F4" d="M403.598,275.606c0.37,1.205,0.822,1.205,1.348,0.005l-0.394-0.521c-0.525-0.693-1.084-1.077-1.675-1.15
			C403.229,274.407,403.468,274.958,403.598,275.606z"/>
		<polygon fill="#AFAFAF" points="114.34,173.184 112.264,171.65 111.073,172.753 113.148,174.287 		"/>
		<polygon fill="#AFAFAF" points="178.781,143.396 174.078,146.14 174.471,147.308 179.075,144.276 		"/>
		<polygon fill="#5454F4" points="337.264,310.587 335.259,312.269 335.943,313.175 337.948,311.493 		"/>
		<path fill="#5454F4" d="M385.076,285.143c0.504-0.044,0.87-0.16,1.085-0.345c-0.347-0.461-0.512-0.799-0.491-1.007
			c0.048-0.414-0.269-0.718-0.952-0.906c0.049,0.533-0.063,1.1-0.332,1.7c-0.438,0.368-0.571,0.671-0.397,0.904
			C384.386,285.536,384.743,285.419,385.076,285.143z"/>
		<polygon fill="#5454F4" points="368.239,306.026 364.517,309.149 365.884,310.959 369.604,307.835 		"/>
		<polygon fill="#5454F4" points="336.805,341.118 333.082,344.241 334.451,346.055 338.172,342.928 		"/>
		<path fill="#AFAFAF" d="M131.429,172.146c-0.425,0.602,0.458-0.499,2.644-3.291c1.169-0.87,2.139-2.002,2.921-3.393
			c-0.366,0.135-0.922,0.342-1.667,0.619c-0.737,0.276-1.571,0.586-2.498,0.933c-1.847,0.691-3.139,1.499-3.869,2.431
			C130.152,169.885,130.971,170.784,131.429,172.146z"/>
		<polygon fill="#AFAFAF" points="158.916,155.792 155.308,157.139 155.896,158.894 159.504,157.546 		"/>
		<path fill="#5454F4" d="M399.213,287.181c-0.152,0.51,0.199-0.45,1.06-2.879c0.6-0.873,1.002-1.879,1.223-3.015
			c-0.217,0.185-0.549,0.462-0.99,0.831c-0.435,0.366-0.933,0.785-1.48,1.243c-1.1,0.925-1.794,1.789-2.079,2.6
			C397.845,285.965,398.604,286.369,399.213,287.181z"/>
		<polygon fill="#AFAFAF" points="118.064,164.479 114.454,165.825 115.044,167.581 118.653,166.233 		"/>
		<path fill="#5454F4" d="M332.774,319.197c0.609,0.812,1.6,1.293,2.967,1.456c1.029,0.12,1.829-0.058,2.403-0.539
			c-0.607-0.8-0.965-1.485-1.083-2.05c0.045-0.362-0.584-0.985-1.88-1.87c0.304,0.4,0.169,0.841-0.403,1.321L332.774,319.197z"/>
		<polygon fill="#5454F4" points="368.674,240.744 365.809,243.146 366.719,244.353 369.585,241.949 		"/>
		<polygon fill="#5454F4" points="410.284,281.611 407.709,284.623 408.231,285.317 410.677,282.132 		"/>
		<polygon fill="#AFAFAF" points="90.787,168.162 88.841,168.887 89.137,169.764 91.08,169.04 		"/>
		<path fill="#AFAFAF" d="M85.225,173.468c0.264,0.786,0.898,1.423,1.897,1.929c0.751,0.377,1.406,0.462,1.959,0.253
			c-0.26-0.778-0.363-1.397-0.311-1.86c0.124-0.261-0.202-0.909-0.964-1.945c0.131,0.395-0.082,0.689-0.637,0.896L85.225,173.468z"
			/>
		<polygon fill="#5454F4" points="398.634,274.227 396.061,277.237 396.585,277.937 399.026,274.748 		"/>
		<polygon fill="#AFAFAF" points="112.018,163.991 110.073,164.719 110.369,165.596 112.312,164.872 		"/>
		<polygon fill="#AFAFAF" points="105.815,171.345 103.04,172.382 103.433,173.551 106.209,172.517 		"/>
		<path fill="#AFAFAF" d="M133.979,165.679c0.688,0.183,1.22,0.204,1.585,0.067c-0.261-0.78-0.33-1.299-0.214-1.566
			c0.243-0.527-0.049-1.078-0.867-1.654c-0.17,0.722-0.561,1.421-1.173,2.083c-0.74,0.277-1.045,0.615-0.916,1.002
			C132.899,165.865,133.425,165.887,133.979,165.679z"/>
		<path fill="#AFAFAF" d="M125.458,173.741c-0.425,0.597,0.456-0.503,2.643-3.292c1.168-0.874,2.14-2.007,2.921-3.397
			c-0.368,0.14-0.922,0.347-1.666,0.624c-0.737,0.272-1.571,0.586-2.499,0.932c-1.849,0.688-3.139,1.5-3.869,2.432
			C124.178,171.476,125,172.376,125.458,173.741z"/>
		<polygon fill="#AFAFAF" points="101.896,169.645 98.286,170.991 98.876,172.747 102.485,171.402 		"/>
		<path fill="#5454F4" d="M375.653,282.771c-0.156,0.511,0.196-0.451,1.059-2.875c0.598-0.878,1.002-1.882,1.224-3.015
			c-0.215,0.183-0.547,0.458-0.988,0.826c-0.439,0.367-0.932,0.783-1.485,1.248c-1.098,0.921-1.789,1.784-2.077,2.596
			C374.288,281.555,375.041,281.96,375.653,282.771z"/>
		<polygon fill="#AFAFAF" points="123.993,167.509 120.384,168.854 120.973,170.613 124.581,169.266 		"/>
		<polygon fill="#AFAFAF" points="231.902,138.531 228.294,139.879 228.882,141.637 232.491,140.291 		"/>
		<polygon fill="#AFAFAF" points="75.596,185.038 71.987,186.384 72.576,188.14 76.184,186.792 		"/>
		<path fill="#AFAFAF" d="M82.983,184.729c0.262,0.786,0.896,1.427,1.896,1.929c0.75,0.379,1.406,0.463,1.959,0.256
			c-0.261-0.78-0.363-1.399-0.311-1.857c0.122-0.266-0.201-0.915-0.965-1.948c0.131,0.394-0.081,0.688-0.637,0.896L82.983,184.729z"
			/>
		<polygon fill="#5454F4" points="341.778,253.6 338.915,256.002 339.826,257.208 342.689,254.806 		"/>
		<polygon fill="#AFAFAF" points="113.459,164.06 108.758,166.801 109.149,167.969 113.754,164.937 		"/>
		<polygon fill="#5454F4" points="370.297,281.349 368.29,283.031 368.975,283.935 370.98,282.252 		"/>
		<path fill="#5454F4" d="M373.267,296.024c0.61,0.809,1.602,1.29,2.97,1.452c1.03,0.123,1.83-0.055,2.402-0.535
			c-0.607-0.804-0.967-1.489-1.084-2.053c0.045-0.361-0.587-0.986-1.882-1.871c0.308,0.403,0.17,0.845-0.402,1.324L373.267,296.024z
			"/>
		<polygon fill="#5454F4" points="383.149,281.629 380.573,284.644 381.099,285.339 383.543,282.153 		"/>
		<path fill="#5454F4" d="M156.267,349.364c0.44-0.601,0.44-1.187,0.005-1.762c-0.568-0.464-1.061-0.521-1.47-0.179L156.267,349.364
			z"/>
		<path fill="#5454F4" d="M128.75,335.05c0.441-0.602,0.441-1.188,0.003-1.768c-0.567-0.457-1.06-0.517-1.469-0.175L128.75,335.05z"
			/>
		<polygon fill="#5454F4" points="103.918,320.289 101.399,322.405 102.202,323.467 104.722,321.354 		"/>
		<polygon fill="#5454F4" points="112.589,335.588 108.656,340.195 109.457,341.257 113.192,336.385 		"/>
		<polygon fill="#5454F4" points="120.625,323.927 117.96,323.123 117.1,324.713 119.767,325.514 		"/>
		<polygon fill="#5454F4" points="66.125,325.105 66.938,328.39 68.185,328.049 67.372,324.761 		"/>
		<polygon fill="#5454F4" points="76.043,310.471 74.268,312.718 75.298,314.188 77.073,311.945 		"/>
		<polygon fill="#5454F4" points="75.741,337.881 75.219,338.322 75.397,338.556 75.919,338.117 		"/>
		<polygon fill="#5454F4" points="100.717,340.452 98.973,339.929 98.412,340.965 100.156,341.488 		"/>
		<polygon fill="#5454F4" points="72.017,342.393 69.444,345.406 69.969,346.098 72.41,342.917 		"/>
		<polygon fill="#5454F4" points="89.068,333.069 87.326,332.545 86.765,333.586 88.506,334.109 		"/>
		<path fill="#5454F4" d="M91.413,340.808c0.372,1.206,0.823,1.206,1.349,0.005l-0.394-0.521c-0.525-0.694-1.084-1.076-1.677-1.149
			C91.043,339.608,91.283,340.16,91.413,340.808z"/>
		<path fill="#5454F4" d="M72.891,350.344c0.505-0.044,0.868-0.164,1.085-0.346c-0.349-0.462-0.511-0.798-0.491-1.009
			c0.047-0.415-0.272-0.714-0.952-0.903c0.045,0.532-0.066,1.101-0.334,1.701c-0.438,0.368-0.569,0.669-0.397,0.898
			C72.199,350.733,72.561,350.62,72.891,350.344z"/>
		<path fill="#5454F4" d="M87.027,352.383c-0.154,0.51,0.198-0.452,1.061-2.879c0.597-0.879,1.003-1.884,1.224-3.017
			c-0.217,0.184-0.549,0.461-0.989,0.831c-0.439,0.367-0.935,0.783-1.484,1.245c-1.098,0.921-1.792,1.787-2.079,2.597
			C85.662,351.166,86.416,351.571,87.027,352.383z"/>
		<polygon fill="#5454F4" points="98.096,346.809 95.521,349.823 96.047,350.519 98.49,347.333 		"/>
		<polygon fill="#5454F4" points="86.447,339.428 83.875,342.438 84.398,343.136 86.841,339.95 		"/>
		<polygon fill="#5454F4" points="70.961,346.831 68.388,349.841 68.912,350.536 71.355,347.351 		"/>
		<polygon fill="#AFAFAF" points="203.62,145.03 201.677,145.755 201.972,146.632 203.914,145.906 		"/>
		<polygon fill="#AFAFAF" points="82.157,173.678 79.38,174.717 79.773,175.885 82.55,174.852 		"/>
		<polygon fill="#5454F4" points="351.309,320.738 349.305,322.42 349.988,323.322 351.993,321.64 		"/>
		<path fill="#AFAFAF" d="M110.32,168.014c0.687,0.186,1.218,0.203,1.584,0.065c-0.262-0.78-0.331-1.3-0.213-1.565
			c0.242-0.524-0.049-1.077-0.867-1.653c-0.171,0.722-0.561,1.419-1.174,2.086c-0.739,0.274-1.045,0.611-0.915,0.998
			C109.24,168.2,109.764,168.222,110.32,168.014z"/>
		<path fill="#AFAFAF" d="M82.75,191.81c-0.423,0.601,0.458-0.5,2.645-3.292c1.168-0.87,2.137-2.002,2.922-3.393
			c-0.369,0.135-0.922,0.342-1.667,0.619c-0.738,0.277-1.57,0.586-2.498,0.933c-1.849,0.692-3.139,1.502-3.87,2.432
			C81.473,189.548,82.293,190.447,82.75,191.81z"/>
		<polygon fill="#AFAFAF" points="180.576,146.458 176.967,147.804 177.556,149.56 181.165,148.212 		"/>
		<polygon fill="#AFAFAF" points="190.772,155.264 187.598,152.923 185.776,154.612 188.951,156.954 		"/>
		<polygon fill="#AFAFAF" points="205.014,148.674 201.84,146.333 200.018,148.023 203.192,150.359 		"/>
		<polygon fill="#AFAFAF" points="192.611,145.069 187.907,147.811 188.3,148.979 192.905,145.947 		"/>
		<polygon fill="#AFAFAF" points="216.597,139.736 214.652,140.46 214.947,141.338 216.891,140.613 		"/>
		<polygon fill="#AFAFAF" points="194.405,148.128 190.796,149.474 191.387,151.23 194.995,149.886 		"/>
		<polygon fill="#5454F4" points="374.462,308.111 370.743,311.235 372.109,313.044 375.832,309.921 		"/>
		<path fill="#AFAFAF" d="M145.163,167.191c-0.423,0.597,0.458-0.502,2.646-3.296c1.167-0.87,2.137-2.002,2.92-3.393
			c-0.367,0.139-0.921,0.342-1.666,0.622c-0.739,0.274-1.573,0.586-2.5,0.93c-1.847,0.691-3.137,1.502-3.868,2.43
			C143.885,164.926,144.705,165.825,145.163,167.191z"/>
		<path fill="#AFAFAF" d="M104.311,175.874c-0.423,0.601,0.457-0.498,2.643-3.291c1.171-0.871,2.14-2.002,2.922-3.393
			c-0.366,0.135-0.922,0.342-1.665,0.619c-0.738,0.277-1.571,0.59-2.498,0.931c-1.849,0.692-3.139,1.504-3.87,2.432
			C103.032,173.613,103.853,174.513,104.311,175.874z"/>
		<polygon fill="#AFAFAF" points="103.139,183.556 99.531,184.903 100.121,186.661 103.73,185.315 		"/>
		<polygon fill="#AFAFAF" points="91.444,178.922 87.835,180.268 88.424,182.022 92.033,180.676 		"/>
		<path fill="#AFAFAF" d="M101.496,191.944c-0.423,0.601,0.458-0.5,2.644-3.292c1.169-0.87,2.14-2.002,2.922-3.393
			c-0.367,0.134-0.923,0.342-1.665,0.619c-0.739,0.277-1.572,0.586-2.499,0.933c-1.851,0.692-3.139,1.5-3.871,2.433
			C100.219,189.68,101.038,190.583,101.496,191.944z"/>
		<polygon fill="#5454F4" points="372.548,300.659 370.862,302.071 371.484,302.89 373.163,301.479 		"/>
		<polygon fill="#5454F4" points="201.964,428.088 196.15,429.001 196.127,430.359 201.948,429.105 		"/>
		
			<rect x="171.478" y="405.138" transform="matrix(0.9999 0.0161 -0.0161 0.9999 6.5536 -2.7161)" fill="#5454F4" width="0.667" height="0.299"/>
		<path fill="#5454F4" d="M141.842,411.646c0.003-0.213-0.189-0.524-0.579-0.951c-0.456-0.284-0.681-0.669-0.673-1.159
			c-0.344,0.97-0.521,1.658-0.526,2.078L141.842,411.646z"/>
		<polygon fill="#5454F4" points="189.871,423.874 188.84,422.302 187.781,422.728 188.809,424.301 		"/>
		<polygon fill="#5454F4" points="166.553,406.127 162.749,406.724 162.736,407.612 166.541,406.792 		"/>
		<path fill="#5454F4" d="M182.473,417.912c-0.44,1.178-0.09,1.48,1.041,0.905l0.01-0.666c0.013-0.888-0.185-1.558-0.601-2.009
			C182.914,416.734,182.766,417.326,182.473,417.912z"/>
		<path fill="#5454F4" d="M162.43,412.847c0.416,0.306,0.766,0.46,1.047,0.462c0.007-0.592,0.085-0.957,0.227-1.106
			c0.286-0.286,0.223-0.734-0.188-1.336c-0.288,0.438-0.713,0.804-1.283,1.09c-0.562-0.011-0.845,0.134-0.849,0.425
			C161.66,412.687,162.008,412.842,162.43,412.847z"/>
		<path fill="#5454F4" d="M172.108,423.899c-0.425,0.294,0.425-0.213,2.555-1.51c0.99-0.273,1.91-0.78,2.763-1.504
			c-0.278-0.008-0.7-0.014-1.265-0.024c-0.56-0.008-1.192-0.02-1.896-0.034c-1.404-0.024-2.461,0.18-3.17,0.612
			C171.79,422.043,172.126,422.863,172.108,423.899z"/>
		<polygon fill="#5454F4" points="184.009,427.023 180.209,427.62 180.192,428.509 184,427.69 		"/>
		<polygon fill="#5454F4" points="179.477,413.517 175.673,414.113 175.658,415.001 179.467,414.184 		"/>
		<path fill="#5454F4" d="M156.588,404.7c-0.425,0.286,0.426-0.215,2.553-1.513c0.991-0.275,1.911-0.779,2.765-1.507
			c-0.28-0.003-0.702-0.011-1.264-0.021c-0.561-0.011-1.193-0.022-1.897-0.033c-1.404-0.024-2.461,0.179-3.171,0.608
			C156.27,402.843,156.606,403.66,156.588,404.7z"/>
		<polygon fill="#5454F4" points="153.313,400.007 150.753,399.958 150.734,401.117 153.296,401.164 		"/>
		<path fill="#5454F4" d="M146.753,413.324c-0.016,1.034,0.457,2.068,1.414,3.114c0.719,0.781,1.445,1.182,2.177,1.192
			c0.016-1.026,0.151-1.795,0.403-2.309c0.252-0.248,0.143-1.152-0.321-2.705c-0.009,0.518-0.38,0.765-1.11,0.75L146.753,413.324z"
			/>
		<polygon fill="#5454F4" points="163.06,408.843 159.258,409.44 159.243,410.331 163.05,409.51 		"/>
		<polygon fill="#C4C4C4" points="356.176,199.455 355.262,199.177 354.967,199.724 355.881,199.998 		"/>
		<path fill="#C4C4C4" d="M347.174,189.948c0.793-0.072,0.964,0.528,0.514,1.8c1.324-0.613,2.263-1.552,2.817-2.812
			c-0.09-0.121-0.836-0.236-2.24-0.349c-0.436-0.827-0.285-1.497,0.452-2.018c1.13-0.749,1.751-1.171,1.865-1.27
			c-0.089-0.119-0.342-0.204-0.759-0.255c-0.413-0.049-0.746-0.116-0.999-0.202c-0.689,1.077-1.846,2.792-3.46,5.136
			C345.983,190.054,346.586,190.042,347.174,189.948z"/>
		<polygon fill="#C4C4C4" points="332.86,201.599 331.511,203.179 331.786,203.543 333.067,201.873 		"/>
		<path fill="#C4C4C4" d="M354.603,198.865c-0.138-0.183-0.519-0.31-1.138-0.382c-0.586,0.094-1.041-0.069-1.36-0.495
			c0.354,1.093,0.667,1.82,0.941,2.185L354.603,198.865z"/>
		<path fill="#C4C4C4" d="M357.402,203.512c0.193,0.629,0.432,0.629,0.708,0l-0.207-0.274c-0.272-0.364-0.57-0.564-0.88-0.6
			C357.21,202.88,357.333,203.172,357.402,203.512z"/>
		<polygon fill="#C4C4C4" points="310.019,213.344 309.414,213.854 309.62,214.126 310.226,213.618 		"/>
		<path fill="#C4C4C4" d="M346.625,199.783c0.267-0.021,0.457-0.084,0.571-0.178c-0.184-0.244-0.269-0.419-0.258-0.529
			c0.026-0.218-0.141-0.374-0.499-0.472c0.024,0.275-0.032,0.574-0.174,0.888c-0.229,0.192-0.298,0.353-0.207,0.474
			C346.264,199.99,346.453,199.928,346.625,199.783z"/>
		<path fill="#C4C4C4" d="M326.83,191.095c0.001-0.153-0.138-0.385-0.423-0.694c-0.332-0.208-0.497-0.488-0.491-0.846
			c-0.251,0.706-0.38,1.209-0.387,1.515L326.83,191.095z"/>
		<polygon fill="#C4C4C4" points="369.717,183.679 366.94,184.116 366.926,184.764 369.71,184.167 		"/>
		
			<rect x="309.663" y="198.623" transform="matrix(0.9999 0.0172 -0.0172 0.9999 3.4719 -5.3165)" fill="#C4C4C4" width="1.872" height="0.845"/>
		<path fill="#C4C4C4" d="M366.706,188.59c0.304,0.223,0.559,0.336,0.763,0.339c0.006-0.433,0.064-0.699,0.169-0.807
			c0.207-0.212,0.158-0.539-0.139-0.979c-0.211,0.323-0.525,0.589-0.938,0.796c-0.408-0.008-0.618,0.099-0.623,0.314
			C366.142,188.474,366.395,188.587,366.706,188.59z"/>
		<polygon fill="#C4C4C4" points="314.898,196.626 311.42,196.564 311.394,198.254 314.871,198.316 		"/>
		<path fill="#C4C4C4" d="M357.233,198.927c-0.311,0.21,0.311-0.157,1.868-1.104c0.725-0.201,1.396-0.573,2.021-1.1
			c-0.204-0.002-0.515-0.011-0.926-0.017c-0.411-0.007-0.873-0.015-1.386-0.026c-1.028-0.019-1.798,0.131-2.317,0.447
			C356.999,197.573,357.243,198.169,357.233,198.927z"/>
		<path fill="#C4C4C4" d="M330.421,192.322c-0.012,0.753,0.333,1.511,1.035,2.275c0.525,0.571,1.055,0.863,1.591,0.874
			c0.012-0.75,0.111-1.315,0.295-1.686c0.185-0.186,0.104-0.845-0.236-1.98c-0.006,0.378-0.278,0.562-0.812,0.551L330.421,192.322z"
			/>
		<polygon fill="#C4C4C4" points="367.165,185.663 364.385,186.101 364.373,186.752 367.157,186.151 		"/>
		
			<rect x="322.274" y="199.697" transform="matrix(0.9998 0.0177 -0.0177 0.9998 3.5991 -5.7016)" fill="#C4C4C4" width="3.477" height="1.693"/>
		
			<rect x="326.393" y="194.569" transform="matrix(0.9998 0.019 -0.019 0.9998 3.7536 -6.1658)" fill="#C4C4C4" width="1.572" height="0.768"/>
		<polygon fill="#C4C4C4" points="403.916,146.512 404.828,146.786 405.124,146.239 404.213,145.966 		"/>
		<path fill="#C4C4C4" d="M412.915,156.017c-0.792,0.07-0.963-0.531-0.511-1.802c-1.326,0.616-2.266,1.552-2.817,2.812
			c0.09,0.121,0.835,0.239,2.241,0.353c0.434,0.823,0.286,1.496-0.452,2.018c-1.13,0.746-1.751,1.171-1.865,1.267
			c0.089,0.12,0.342,0.208,0.76,0.253c0.411,0.051,0.745,0.121,0.998,0.204c0.689-1.077,1.849-2.788,3.46-5.136
			C414.109,155.912,413.502,155.92,412.915,156.017z"/>
		<polygon fill="#C4C4C4" points="425.777,155.384 426.856,154.121 426.635,153.83 425.613,155.165 		"/>
		<path fill="#C4C4C4" d="M405.491,147.098c0.138,0.183,0.515,0.31,1.136,0.385c0.584-0.097,1.039,0.066,1.359,0.492
			c-0.354-1.089-0.665-1.816-0.94-2.185L405.491,147.098z"/>
		<path fill="#C4C4C4" d="M402.688,142.452c-0.194-0.63-0.429-0.63-0.706,0l0.208,0.274c0.272,0.364,0.566,0.564,0.877,0.6
			C402.88,143.085,402.756,142.795,402.688,142.452z"/>
		<polygon fill="#C4C4C4" points="444.021,146.003 444.505,145.597 444.338,145.379 443.854,145.782 		"/>
		<path fill="#C4C4C4" d="M414.783,156.833c-0.209,0.019-0.362,0.066-0.454,0.145c0.146,0.193,0.214,0.331,0.201,0.419
			c-0.016,0.175,0.118,0.302,0.401,0.379c-0.021-0.222,0.027-0.459,0.139-0.71c0.188-0.153,0.241-0.28,0.165-0.379
			C415.07,156.669,414.921,156.717,414.783,156.833z"/>
		<path fill="#C4C4C4" d="M430.596,163.771c-0.003,0.124,0.109,0.307,0.333,0.554c0.269,0.167,0.398,0.393,0.396,0.678
			c0.2-0.565,0.305-0.969,0.308-1.212L430.596,163.771z"/>
		<polygon fill="#C4C4C4" points="390.374,162.286 393.152,161.851 393.162,161.199 390.38,161.799 		"/>
		<polygon fill="#C4C4C4" points="442.802,157.748 444.297,157.772 444.312,157.099 442.812,157.069 		"/>
		<path fill="#C4C4C4" d="M393.387,157.372c-0.306-0.222-0.561-0.335-0.765-0.337c-0.004,0.433-0.063,0.702-0.167,0.81
			c-0.212,0.212-0.162,0.536,0.139,0.977c0.211-0.32,0.521-0.589,0.936-0.793c0.411,0.007,0.622-0.103,0.622-0.318
			C393.95,157.492,393.695,157.379,393.387,157.372z"/>
		
			<rect x="440.132" y="158.027" transform="matrix(-0.9998 -0.0183 0.0183 -0.9998 880.0751 325.4424)" fill="#C4C4C4" width="2.782" height="1.355"/>
		<path fill="#C4C4C4" d="M402.86,147.036c0.311-0.212-0.311,0.157-1.871,1.104c-0.723,0.204-1.396,0.571-2.019,1.103
			c0.201,0.003,0.513,0.008,0.924,0.019c0.41,0.003,0.872,0.014,1.384,0.021c1.028,0.019,1.804-0.131,2.319-0.444
			C403.092,148.395,402.847,147.793,402.86,147.036z"/>
		<path fill="#C4C4C4" d="M427.727,162.792c0.01-0.603-0.268-1.208-0.827-1.816c-0.421-0.458-0.842-0.692-1.27-0.7
			c-0.011,0.597-0.091,1.049-0.235,1.348c-0.147,0.146-0.082,0.673,0.186,1.58c0.008-0.302,0.223-0.447,0.651-0.436L427.727,162.792
			z"/>
		<polygon fill="#C4C4C4" points="392.928,160.299 395.704,159.862 395.72,159.213 392.936,159.811 		"/>
		<polygon fill="#C4C4C4" points="247.226,263.255 246.312,262.982 246.018,263.527 246.932,263.801 		"/>
		<path fill="#C4C4C4" d="M238.224,253.748c0.792-0.069,0.966,0.532,0.514,1.803c1.325-0.616,2.262-1.553,2.817-2.811
			c-0.091-0.12-0.838-0.24-2.24-0.354c-0.437-0.822-0.285-1.494,0.452-2.017c1.13-0.745,1.75-1.171,1.866-1.266
			c-0.091-0.12-0.343-0.208-0.758-0.255c-0.414-0.052-0.748-0.12-1.001-0.204c-0.691,1.078-1.846,2.789-3.46,5.136
			C237.034,253.854,237.639,253.843,238.224,253.748z"/>
		<polygon fill="#C4C4C4" points="248.754,210.271 247.406,211.851 247.682,212.215 248.961,210.545 		"/>
		<path fill="#C4C4C4" d="M245.652,262.668c-0.137-0.182-0.516-0.31-1.138-0.385c-0.585,0.097-1.04-0.065-1.361-0.492
			c0.357,1.089,0.669,1.815,0.943,2.181L245.652,262.668z"/>
		<path fill="#C4C4C4" d="M273.298,212.184c0.195,0.629,0.431,0.629,0.707,0l-0.207-0.274c-0.275-0.363-0.567-0.564-0.878-0.601
			C273.104,211.553,273.23,211.845,273.298,212.184z"/>
		<polygon fill="#C4C4C4" points="225.914,222.016 225.31,222.526 225.516,222.799 226.122,222.29 		"/>
		<path fill="#C4C4C4" d="M237.677,263.585c0.264-0.021,0.455-0.083,0.571-0.181c-0.184-0.241-0.27-0.416-0.258-0.528
			c0.025-0.215-0.143-0.376-0.5-0.473c0.025,0.28-0.032,0.573-0.175,0.891c-0.229,0.193-0.297,0.35-0.207,0.474
			C237.314,263.79,237.505,263.731,237.677,263.585z"/>
		<path fill="#C4C4C4" d="M242.727,199.767c0.001-0.152-0.14-0.386-0.421-0.695c-0.335-0.207-0.499-0.487-0.493-0.845
			c-0.252,0.708-0.382,1.213-0.386,1.515L242.727,199.767z"/>
		<polygon fill="#C4C4C4" points="260.769,247.479 257.988,247.915 257.978,248.568 260.761,247.967 		"/>
		
			<rect x="225.558" y="207.295" transform="matrix(0.9999 0.0172 -0.0172 0.9999 3.6078 -3.8666)" fill="#C4C4C4" width="1.873" height="0.844"/>
		<path fill="#C4C4C4" d="M257.753,252.395c0.307,0.221,0.564,0.335,0.768,0.339c0.005-0.433,0.063-0.702,0.167-0.813
			c0.209-0.212,0.162-0.535-0.139-0.976c-0.209,0.32-0.522,0.588-0.938,0.793c-0.409-0.008-0.616,0.103-0.622,0.317
			C257.192,252.274,257.447,252.386,257.753,252.395z"/>
		<polygon fill="#C4C4C4" points="230.792,205.298 227.316,205.237 227.289,206.926 230.768,206.988 		"/>
		<path fill="#C4C4C4" d="M248.284,262.729c-0.311,0.212,0.313-0.155,1.868-1.103c0.723-0.205,1.395-0.571,2.02-1.103
			c-0.204-0.004-0.512-0.007-0.924-0.019c-0.411-0.004-0.872-0.015-1.387-0.022c-1.026-0.017-1.799,0.131-2.318,0.443
			C248.05,261.373,248.295,261.973,248.284,262.729z"/>
		<path fill="#C4C4C4" d="M246.317,200.996c-0.011,0.753,0.335,1.51,1.035,2.274c0.524,0.573,1.057,0.863,1.589,0.874
			c0.012-0.75,0.113-1.315,0.295-1.686c0.185-0.186,0.104-0.844-0.235-1.981c-0.006,0.379-0.277,0.562-0.813,0.551L246.317,200.996z
			"/>
		<polygon fill="#C4C4C4" points="258.217,249.467 255.435,249.903 255.424,250.552 258.208,249.955 		"/>
		
			<rect x="238.169" y="208.369" transform="matrix(0.9998 0.0178 -0.0178 0.9998 3.7677 -4.2435)" fill="#C4C4C4" width="3.479" height="1.693"/>
		
			<rect x="242.288" y="203.241" transform="matrix(0.9998 0.0189 -0.0189 0.9998 3.9016 -4.5689)" fill="#C4C4C4" width="1.572" height="0.765"/>
		<polygon fill="#C4C4C4" points="262.059,221.725 262.972,222.002 263.265,221.455 262.352,221.179 		"/>
		<path fill="#C4C4C4" d="M263.63,222.311c0.137,0.183,0.517,0.309,1.139,0.385c0.585-0.095,1.038,0.07,1.36,0.496
			c-0.357-1.093-0.667-1.82-0.945-2.184L263.63,222.311z"/>
		<path fill="#C4C4C4" d="M260.829,217.669c-0.194-0.634-0.43-0.634-0.705-0.005l0.205,0.274c0.276,0.364,0.568,0.568,0.877,0.605
			C261.023,218.299,260.897,218.008,260.829,217.669z"/>
		<polygon fill="#C4C4C4" points="306.269,170.958 309.049,170.522 309.059,169.871 306.277,170.471 		"/>
		<path fill="#C4C4C4" d="M309.284,166.045c-0.306-0.223-0.563-0.336-0.766-0.339c-0.007,0.433-0.064,0.703-0.168,0.81
			c-0.21,0.212-0.162,0.536,0.139,0.977c0.208-0.32,0.521-0.59,0.937-0.794c0.409,0.008,0.619-0.102,0.622-0.317
			C309.844,166.164,309.59,166.051,309.284,166.045z"/>
		<path fill="#C4C4C4" d="M260.999,222.249c0.311-0.211-0.313,0.159-1.868,1.106c-0.723,0.201-1.394,0.568-2.019,1.1
			c0.204,0.003,0.51,0.011,0.923,0.019c0.409,0.006,0.872,0.014,1.387,0.022c1.026,0.018,1.799-0.129,2.318-0.444
			C261.233,223.607,260.986,223.006,260.999,222.249z"/>
		<polygon fill="#C4C4C4" points="308.823,168.972 311.602,168.534 311.612,167.886 308.829,168.483 		"/>
		<polygon fill="#C4C4C4" points="431.445,156.876 434.222,156.928 434.242,155.576 431.465,155.525 		"/>
		
			<rect x="429.689" y="160.386" transform="matrix(-0.9998 -0.0175 0.0175 -0.9998 857.7471 328.9048)" fill="#C4C4C4" width="1.253" height="0.611"/>
		<polygon fill="#C4C4C4" points="45.438,149.625 46.167,149.843 46.401,149.406 45.672,149.188 		"/>
		<path fill="#C4C4C4" d="M52.625,157.215c-0.634,0.055-0.771-0.422-0.41-1.438c-1.058,0.491-1.807,1.238-2.25,2.247
			c0.071,0.094,0.668,0.189,1.789,0.28c0.347,0.659,0.227,1.194-0.361,1.609c-0.901,0.597-1.398,0.936-1.49,1.012
			c0.072,0.099,0.272,0.167,0.606,0.207c0.33,0.038,0.595,0.091,0.797,0.161c0.553-0.86,1.475-2.228,2.765-4.103
			C53.577,157.132,53.093,157.139,52.625,157.215z"/>
		<polygon fill="#C4C4C4" points="64.059,147.91 65.134,146.649 64.916,146.358 63.892,147.692 		"/>
		<path fill="#C4C4C4" d="M46.693,150.09c0.11,0.146,0.413,0.252,0.908,0.31c0.468-0.076,0.831,0.056,1.088,0.392
			c-0.283-0.869-0.534-1.452-0.754-1.744L46.693,150.09z"/>
		<path fill="#C4C4C4" d="M44.455,146.385c-0.153-0.506-0.343-0.506-0.564,0l0.167,0.215c0.218,0.291,0.453,0.455,0.7,0.482
			C44.611,146.886,44.51,146.654,44.455,146.385z"/>
		<polygon fill="#C4C4C4" points="82.3,138.527 82.782,138.125 82.618,137.904 82.134,138.31 		"/>
		<path fill="#C4C4C4" d="M53.062,149.358c-0.211,0.019-0.363,0.069-0.454,0.146c0.146,0.193,0.214,0.336,0.205,0.422
			c-0.018,0.172,0.115,0.298,0.399,0.379c-0.019-0.221,0.028-0.462,0.14-0.713c0.183-0.153,0.238-0.28,0.166-0.376
			C53.353,149.194,53.2,149.246,53.062,149.358z"/>
		<path fill="#C4C4C4" d="M68.872,156.302c-0.002,0.119,0.111,0.305,0.338,0.552c0.266,0.164,0.397,0.39,0.392,0.675
			c0.203-0.565,0.306-0.966,0.31-1.21L68.872,156.302z"/>
		<polygon fill="#C4C4C4" points="34.621,162.221 36.841,161.872 36.85,161.355 34.626,161.834 		"/>
		
			<rect x="81.088" y="149.61" transform="matrix(-0.9998 -0.0189 0.0189 -0.9998 160.8179 301.4209)" fill="#C4C4C4" width="1.495" height="0.677"/>
		<path fill="#C4C4C4" d="M37.028,158.3c-0.244-0.178-0.449-0.27-0.611-0.272c-0.005,0.346-0.05,0.56-0.133,0.647
			c-0.167,0.167-0.13,0.429,0.11,0.778c0.166-0.253,0.417-0.469,0.75-0.633c0.326,0.003,0.491-0.081,0.495-0.251
			C37.477,158.391,37.274,158.304,37.028,158.3z"/>
		<polygon fill="#C4C4C4" points="78.403,151.881 81.18,151.933 81.202,150.582 78.423,150.531 		"/>
		<path fill="#C4C4C4" d="M44.592,150.043c0.249-0.168-0.249,0.127-1.492,0.881c-0.578,0.164-1.114,0.455-1.613,0.88
			c0.162,0.004,0.407,0.007,0.737,0.012c0.328,0.006,0.695,0.014,1.106,0.021c0.82,0.014,1.437-0.106,1.853-0.357
			C44.778,151.128,44.581,150.646,44.592,150.043z"/>
		<path fill="#C4C4C4" d="M66.004,155.318c0.01-0.604-0.266-1.208-0.825-1.817c-0.419-0.458-0.844-0.691-1.271-0.699
			c-0.01,0.602-0.09,1.048-0.235,1.348c-0.149,0.148-0.083,0.677,0.188,1.584c0.005-0.304,0.221-0.449,0.647-0.441L66.004,155.318z"
			/>
		<polygon fill="#C4C4C4" points="36.66,160.638 38.88,160.288 38.889,159.768 36.665,160.247 		"/>
		
			<rect x="69.733" y="148.079" transform="matrix(-0.9999 -0.0167 0.0167 -0.9999 139.7524 298.6749)" fill="#C4C4C4" width="2.779" height="1.351"/>
		
			<rect x="67.967" y="152.912" transform="matrix(-0.9998 -0.0175 0.0175 -0.9998 134.5001 307.6116)" fill="#C4C4C4" width="1.256" height="0.611"/>
		<path fill="#5454F4" d="M311.673,319.887c-0.121,0.4,0.155-0.354,0.83-2.255c0.47-0.691,0.788-1.478,0.961-2.366
			c-0.169,0.142-0.429,0.359-0.776,0.651c-0.345,0.288-0.732,0.612-1.164,0.977c-0.861,0.719-1.406,1.402-1.632,2.037
			C310.602,318.931,311.193,319.251,311.673,319.887z"/>
		<path fill="#5454F4" d="M315.982,317.359c-0.122,0.4,0.156-0.354,0.831-2.257c0.469-0.689,0.787-1.478,0.959-2.368
			c-0.172,0.146-0.429,0.36-0.775,0.652c-0.345,0.287-0.732,0.615-1.164,0.975c-0.861,0.725-1.406,1.408-1.632,2.04
			C314.91,316.404,315.502,316.722,315.982,317.359z"/>
		<path fill="#5454F4" d="M310.844,323.37c-0.12,0.4,0.155-0.353,0.831-2.257c0.469-0.689,0.788-1.479,0.963-2.368
			c-0.172,0.143-0.431,0.361-0.778,0.653c-0.344,0.286-0.732,0.613-1.164,0.975c-0.861,0.725-1.406,1.405-1.632,2.039
			C309.772,322.416,310.363,322.732,310.844,323.37z"/>
		<path fill="#5454F4" d="M346.819,329.344c0.611,0.813,1.601,1.294,2.968,1.457c1.028,0.124,1.83-0.059,2.401-0.54
			c-0.606-0.799-0.964-1.485-1.08-2.049c0.042-0.364-0.586-0.985-1.883-1.871c0.306,0.403,0.17,0.84-0.402,1.321L346.819,329.344z"
			/>
		<polygon fill="#5454F4" points="302.568,348.214 300.483,349.964 301.249,350.98 303.334,349.229 		"/>
		<path fill="#5454F4" d="M310.158,357.764c0.313-0.701,0.342-1.221,0.097-1.544c-0.205-0.269-0.36-0.363-0.462-0.276
			c-0.154,0.126-0.313,0.082-0.479-0.135c-0.195,0.075-0.353,0.256-0.479,0.538c-0.185,0.423-0.299,0.827-0.342,1.221
			C308.966,357.522,309.522,357.589,310.158,357.764z"/>
		<polygon fill="#5454F4" points="316.911,346.299 314.907,347.981 315.59,348.887 317.596,347.206 		"/>
		<path fill="#5454F4" d="M299.205,356.706c0.612,0.813,1.601,1.294,2.969,1.459c1.029,0.124,1.83-0.06,2.401-0.541
			c-0.606-0.799-0.964-1.484-1.08-2.05c0.042-0.362-0.586-0.986-1.883-1.87c0.307,0.403,0.17,0.842-0.402,1.325L299.205,356.706z"/>
		<polygon fill="#5454F4" points="301.861,355.805 299.858,357.487 300.542,358.395 302.545,356.712 		"/>
		<polygon fill="#5454F4" points="325.017,343.18 321.295,346.303 322.663,348.115 326.383,344.992 		"/>
		<polygon fill="#5454F4" points="309.493,342.735 305.773,345.858 307.141,347.669 310.861,344.543 		"/>
		<polygon fill="#5454F4" points="323.099,335.73 321.418,337.144 322.036,337.958 323.718,336.549 		"/>
		<path fill="#5454F4" d="M297.372,364.415c0.611,0.808,1.6,1.292,2.967,1.453c1.028,0.123,1.83-0.057,2.402-0.536
			c-0.605-0.804-0.966-1.489-1.081-2.05c0.044-0.363-0.587-0.989-1.881-1.875c0.305,0.404,0.168,0.845-0.402,1.326L297.372,364.415z
			"/>
	</g>
</g>
</svg>
