<?xml version="1.0" encoding="utf-8"?>
<!-- Generator: Adobe Illustrator 15.0.2, SVG Export Plug-In . SVG Version: 6.00 Build 0)  -->
<!DOCTYPE svg PUBLIC "-//W3C//DTD SVG 1.1//EN" "http://www.w3.org/Graphics/SVG/1.1/DTD/svg11.dtd">
<svg version="1.1" id="Layer_1" xmlns="http://www.w3.org/2000/svg" xmlns:xlink="http://www.w3.org/1999/xlink" x="0px" y="0px"
	 width="527.54px" height="531.219px" viewBox="0 0 527.54 531.219" enable-background="new 0 0 527.54 531.219"
	 xml:space="preserve">
<g id="Capa_1">
</g>
<g id="Layer_2">
	<g>
		<path fill="#5353F9" d="M270.555,19.886c-135.856,0-246,110.571-246,246.857c0,136.284,110.143,246.429,246,246.429
			c135.857,0,246-110.572,246-246.429C516.555,130.457,406.413,19.886,270.555,19.886z"/>
		<g opacity="0.25">
			
				<image overflow="visible" enable-background="new    " width="396" height="471" xlink:href="1E8FF1C5.png"  transform="matrix(1.0104 0 0 1.0177 -161.9287 70.207)">
			</image>
		</g>
		<g>
			<g>
				<g>
					<defs>
						<ellipse id="SVGID_1_" cx="263.27" cy="265.885" rx="258.43" ry="259.714"/>
					</defs>
					<clipPath id="SVGID_2_">
						<use xlink:href="#SVGID_1_"  overflow="visible"/>
					</clipPath>
					<g clip-path="url(#SVGID_2_)">
						<g id="Behance_5_">
							<path fill="#FFFFFF" d="M208.413,253.029h-39.428v-34.286h35.57c7.287,0,13.287-3,18.43-1.286
								c5.57,2.143,8.143,5.143,8.143,12.429c0,6.429-2.143,14.143-6.429,16.286C220.413,248.743,215.271,253.029,208.413,253.029z"
								/>
							<path fill="#FFFFFF" d="M234.127,289.457c0,9.43-3.429,16.715-10.285,20.143c-3.43,1.715-8.571,3.43-15.43,3.43h-39.428
								v-42.857h39.857c6.429,0,12,0.857,15.429,2.572C231.127,275.744,234.127,281.314,234.127,289.457z"/>
							<path fill="#FFFFFF" d="M261.555,2.743c-143.57,0-259.713,116.572-259.713,259.714c0,143.57,116.571,259.715,259.713,259.715
								c143.572,0,259.715-116.572,259.715-259.715S405.127,2.743,261.555,2.743z M301.842,197.315h68.57v21.428h-68.57V197.315z
								 M259.842,316.029c-3,4.715-6.43,9-11.144,12c-5.144,3.857-10.714,6.857-17.571,8.145c-6.429,1.285-13.713,2.57-21.429,2.57
								h-66.428v-150h71.571c18.856,0,32.143,3.857,40.285,14.143c4.715,6.429,7.285,13.286,7.285,22.286
								c0,9.428-2.57,16.286-7.285,21.857c-2.572,3.429-6.429,6-11.572,8.571c7.715,3,13.715,7.285,18,13.285
								c3.857,6,6,13.715,6,22.287C266.7,300.599,264.555,308.744,259.842,316.029z M390.555,291.599h-83.57
								c0.43,12.857,4.285,18,12,22.715c4.715,3,9.857,3.43,16.285,3.43c6.857,0,12.43-1.715,16.715-5.145
								c2.145-1.713,4.285,0.43,6-8.143h30.43c-0.857,8.57-4.715,13.715-11.145,20.57c-10.285,11.145-24.428,16.717-43.285,16.717
								c-15.43,0-28.715-4.717-40.285-14.145s-17.57-24.428-17.57-45.428c0-19.716,5.143-34.716,15.855-45
								c10.715-10.287,24-15.858,41.145-15.858c9.855,0,18.855,1.714,27,5.143c8.143,3.429,14.57,9,19.713,16.715
								c4.715,6.856,7.715,15.428,9,24.428C390.555,273.171,390.555,287.314,390.555,291.599z M333.555,245.743
								c-7.713,0-13.713,2.572-18,6.856c-4.285,4.287-6.855,13.287-8.143,17.572h51.857c-0.43-4.285-3.43-14.144-8.143-18
								C346.842,247.886,340.842,245.743,333.555,245.743z"/>
						</g>
						<g>
							<path fill="#5353F9" d="M492.127,296.744c-0.857,0-1.715,0.855-2.145,1.713c-0.428,0.857-0.855,1.287-0.428,2.143
								c0.857,0,1.285,0,1.715,0s0.855,0,2.143-0.428c-0.43,0-0.857,0-0.857-0.857L492.127,296.744z"/>
							<path fill="#5353F9" d="M408.127,177.172c-1.715-0.429-2.145,0.429-0.857,1.714h0.857c1.285,0,2.143-0.857,3-1.286
								C409.842,177.172,408.985,177.172,408.127,177.172z"/>
							<path fill="#5353F9" d="M464.27,242.315c-0.428-0.429,0.43,0.428,2.572,3.428c0.428,1.286,1.713,2.572,2.57,3.429
								c0-0.428,0-0.856-0.43-1.714c0-0.856-0.428-1.714-0.428-2.571c-0.428-2.143-0.855-3.429-1.715-4.285
								C466.842,241.457,465.985,241.886,464.27,242.315z"/>
							
								<rect x="454.29" y="236.908" transform="matrix(0.1519 0.9884 -0.9884 0.1519 621.9424 -249.2706)" fill="#5353F9" width="3.858" height="1.715"/>
							<path fill="#5353F9" d="M460.413,254.315c-0.43,0.856-0.43,1.286-0.43,1.714c0.857,0,1.287,0,1.717,0
								c0.428,0.428,0.855,0,1.713-0.43c-0.857-0.428-1.285-0.856-1.713-1.713c0-0.857-0.43-1.287-0.857-1.287
								C460.413,253.029,460.413,253.457,460.413,254.315z"/>
							<path fill="#5353F9" d="M422.27,242.315c-0.855,0-1.715,0.856-2.143,1.714s-0.857,1.286-0.428,2.143c0.855,0,1.283,0,1.713,0
								s0.857,0,2.143-0.429c-0.428,0-0.855,0-0.855-0.856L422.27,242.315z"/>
							
								<rect x="462.975" y="369.338" transform="matrix(-0.3097 0.9508 -0.9508 -0.3097 959.3373 43.0323)" fill="#5353F9" width="2.144" height="0.859"/>
							<path fill="#5353F9" d="M406.413,262.457c-0.43,0.857-0.43,1.286-0.43,1.715c0.857,0,1.287,0,1.717,0
								c0.428,0.428,0.855,0,1.713-0.43c-0.857-0.428-1.285-0.857-1.713-1.714c0-0.856-0.43-1.286-0.857-1.286
								C406.413,261.171,406.413,262.029,406.413,262.457z"/>
							<path fill="#5353F9" d="M469.842,250.029c0.428,0,1.285-0.857,2.57-2.143c0.43-1.715,1.715-2.571,3-2.571
								c-3-0.429-5.143-0.857-6.43-0.429L469.842,250.029z"/>
							<path fill="#5353F9" d="M473.7,310.029c0.428,0,1.283-0.855,2.57-2.143c0.43-1.715,1.713-2.572,3-2.572
								c-3-0.428-5.143-0.855-6.43-0.428L473.7,310.029z"/>
							<path fill="#5353F9" d="M473.7,273.599c0.428,0,1.283-0.855,2.57-2.143c0.43-1.714,1.713-2.57,3-2.57
								c-3-0.43-5.143-0.857-6.43-0.43L473.7,273.599z"/>
							<path fill="#5353F9" d="M466.842,301.886c0.428,0,1.285-0.857,2.57-2.143c0.43-1.717,1.715-2.572,3-2.572
								c-3-0.428-5.143-0.857-6.43-0.428L466.842,301.886z"/>
							<path fill="#5353F9" d="M491.27,228.6c-1.715-0.429-2.143,0-0.855,1.714h0.855c1.285,0,2.145-0.429,2.572-1.286
								C492.985,229.029,492.127,229.029,491.27,228.6z"/>
							<path fill="#5353F9" d="M414.127,211.457c1.285,1.714,2.572,2.572,3.855,2.572c0.857,0,1.287-0.429,1.287-0.857
								c0-0.428,0.43-0.857,1.285-1.286c0-0.429,0-1.286-0.428-2.143c-0.857-1.286-1.715-2.143-2.572-2.571
								C416.27,208.457,415.413,209.743,414.127,211.457z"/>
							<path fill="#5353F9" d="M423.555,230.315c-0.428,0.857-0.428,1.286-0.428,1.714c0.855,0,1.285,0,1.715,0
								c0.428,0.428,0.857,0,1.713-0.429c-0.855-0.429-1.285-0.857-1.713-1.714c0-0.857-0.43-1.286-0.857-1.286
								C423.555,229.029,423.555,229.886,423.555,230.315z"/>
							<path fill="#5353F9" d="M471.127,363.171c-1.715-0.428-2.145,0-0.857,1.715h0.857c1.285,0,2.143-0.43,2.572-1.287
								C472.842,363.599,471.985,363.599,471.127,363.171z"/>
							<path fill="#5353F9" d="M515.27,313.457c2.572,3.43,4.715,5.143,6.857,4.715c1.715-0.428,2.572-0.857,2.572-1.715
								c0-1.285,0.428-1.713,2.143-2.143c0-1.287,0-2.57-1.287-3.857c-1.285-2.143-2.998-3.857-4.713-5.143
								C519.985,308.314,517.842,310.886,515.27,313.457z"/>
							<path fill="#5353F9" d="M458.27,323.744c-0.855,2.143-2.57,1.713-4.715-1.287c-0.428,3.857,0.43,7.287,2.572,10.287
								c0.428,0,1.715-1.717,3.855-5.145c2.572,0,3.857,1.285,3.857,3.857c0,3.855,0.43,5.57,0.43,6c0.43,0,0.857-0.43,1.713-1.285
								c0.857-0.857,1.287-1.715,1.717-2.145c-1.717-3-3.857-8.143-6.857-15C459.555,320.744,458.7,322.029,458.27,323.744z"/>
							
								<rect x="477.521" y="301.555" transform="matrix(0.1517 0.9884 -0.9884 0.1517 705.0451 -217.1269)" fill="#5353F9" width="3" height="1.284"/>
							<polygon fill="#5353F9" points="463.842,304.029 462.127,298.886 460.842,298.886 462.985,304.029 							"/>
							
								<rect x="494.756" y="277.465" transform="matrix(0.1523 0.9883 -0.9883 0.1523 694.9855 -254.4634)" fill="#5353F9" width="2.142" height="0.86"/>
							<path fill="#5353F9" d="M470.27,353.314c-0.428,0.43-0.855,0.857-0.855,1.285c0.855,0.43,1.285,0.43,1.285,0.857
								c0.43,0.43,0.855,0.43,1.715,0.43c-0.43-0.43-0.857-1.287-0.857-2.143c0.43-0.857,0-1.287,0-1.287
								C471.127,352.029,470.7,352.457,470.27,353.314z"/>
							<path fill="#5353F9" d="M504.127,303.171c-1.285-0.428-1.715,0-0.857,1.285h0.857c0.855,0,1.715-0.43,2.143-0.857
								C505.413,303.599,504.555,303.599,504.127,303.171z"/>
							<path fill="#5353F9" d="M463.413,311.744c1.287,1.713,2.57,2.57,3.857,2.57c0.855,0,1.285-0.43,1.285-0.857
								s0.428-0.857,1.285-1.285c0-0.428,0-1.285-0.428-2.145c-0.857-1.283-1.715-2.143-2.572-2.57
								C465.555,308.744,464.7,310.029,463.413,311.744z"/>
							<polygon fill="#5353F9" points="502.842,292.457 504.555,290.744 504.127,289.029 501.985,291.171 							"/>
							<polygon fill="#5353F9" points="521.27,254.743 519.555,249.599 518.27,249.599 520.413,255.171 							"/>
							<path fill="#5353F9" d="M36.128,321.599c0.429,2.145,1.286,3.43,3.429,4.715c-0.857,3.43-1.286,6-0.857,9l0.429,3.43
								c0.857,0.43,1.714,0.43,3,0.43c0.429,0,1.286,0,2.143-0.43c0.857,0,1.286-0.43,2.143-0.43c0.429-1.285,0.429-3,0.429-4.285
								c0-0.855,0-2.143,0-3.43l-0.429-3.428l-2.143,0.428c-0.429,0.43-0.857,1.715-0.857,4.287l-1.714,0.428l-1.716-3.428
								c0-0.857,0.428-1.715,0.857-2.572c0.429-0.428,0.429-0.855,0.857-1.285c0.429-0.43,0.429-0.855,0.857-1.285
								c0,0-0.429-0.43-0.429-1.285c-0.857-1.287-1.286-1.715-1.286-1.287L36.128,321.599z"/>
							<polygon fill="#5353F9" points="513.127,255.599 518.27,250.457 516.127,246.599 510.985,251.743 							"/>
							<path fill="#5353F9" d="M475.842,410.314c0.428,0.857,0.857,1.285,1.713,0.857c0.857-0.428,1.287-0.857,0.857-1.285
								L475.842,410.314z"/>
							<path fill="#5353F9" d="M414.555,330.171c-0.855,0-1.713,0.855-2.143,1.715c-0.43,0.857-0.857,1.285-0.43,2.143
								c0.857,0,1.287,0,1.717,0c0.428,0,0.855,0,2.143-0.43c-0.43,0-0.857,0-0.857-0.855L414.555,330.171z"/>
							<path fill="#5353F9" d="M486.985,286.029c1.285,1.715,2.57,2.57,3.857,2.57c0.857,0,1.285-0.428,1.285-0.855
								s0.428-0.857,1.285-1.285c0-0.43,0-1.285-0.43-2.145c-0.855-1.285-1.713-2.143-2.57-2.57
								C489.555,283.029,488.27,284.314,486.985,286.029z"/>
							<polygon fill="#5353F9" points="526.842,266.743 528.555,265.029 527.7,263.315 525.985,265.457 							"/>
							<path fill="#5353F9" d="M509.27,286.886c-0.855,0-1.715,0.857-2.143,1.713c-0.428,0.857-0.857,1.287-0.428,2.145
								c0.855,0,1.283,0,1.713,0s0.857,0,2.143-0.43c-0.428,0-0.855,0-0.855-0.855L509.27,286.886z"/>
							<path fill="#5353F9" d="M481.842,232.457c-0.43-0.428,0.428,0.43,2.57,3.43c0.43,1.285,1.715,2.57,2.57,3.429
								c0-0.429,0-0.857-0.428-1.714c0-0.857-0.428-1.715-0.428-2.571c-0.43-2.144-0.857-3.429-1.715-4.286
								C483.985,231.6,483.127,232.457,481.842,232.457z"/>
							
								<rect x="471.342" y="227.05" transform="matrix(0.1514 0.9885 -0.9885 0.1514 626.8913 -274.4144)" fill="#5353F9" width="3.857" height="1.713"/>
							<path fill="#5353F9" d="M477.555,244.457c-0.428,0.857-0.428,1.286-0.428,1.715c0.855,0,1.285,0,1.715,0
								c0.428,0.428,0.857,0,1.713-0.43c-0.855-0.428-1.285-0.857-1.713-1.714c0-0.856-0.43-1.286-0.857-1.286
								C477.555,243.599,477.555,244.029,477.555,244.457z"/>
							<path fill="#5353F9" d="M439.413,232.886c-0.857,0-1.713,0.856-2.143,1.713c-0.428,0.857-0.857,1.287-0.428,2.144
								c0.857,0,1.285,0,1.713,0c0.43,0,0.857,0,2.145-0.428c-0.43,0-0.857,0-0.857-0.857L439.413,232.886z"/>
							<path fill="#5353F9" d="M423.555,253.029c-0.428,0.857-0.428,1.286-0.428,1.714c0.855,0,1.285,0,1.715,0
								c0.428,0.429,0.857,0,1.713-0.428c-0.855-0.429-1.285-0.857-1.713-1.714c0-0.857-0.43-1.286-0.857-1.286
								C423.555,251.743,423.555,252.171,423.555,253.029z"/>
							<path fill="#5353F9" d="M487.413,240.599c0.43,0,1.287-0.856,2.57-2.143c0.43-1.714,1.717-2.57,3-2.57
								c-3-0.43-5.143-0.857-6.428-0.43L487.413,240.599z"/>
							<path fill="#5353F9" d="M490.842,300.171c0.428,0,1.285-0.857,2.57-2.145c0.43-1.713,1.715-2.57,3-2.57
								c-3-0.43-5.143-0.857-6.43-0.43L490.842,300.171z"/>
							<path fill="#5353F9" d="M498.985,272.314c0.43,0,1.285-0.856,2.57-2.143c0.43-1.715,1.715-2.57,3-2.57
								c-3-0.43-5.143-0.857-6.428-0.43L498.985,272.314z"/>
							<path fill="#5353F9" d="M476.7,289.029c0.428,0,1.283-0.855,2.57-2.143c0.43-1.715,1.713-2.572,3-2.572
								c-3-0.428-5.143-0.855-6.43-0.428L476.7,289.029z"/>
							<path fill="#5353F9" d="M443.27,216.6c1.285,1.714,2.572,2.571,3.857,2.571c0.855,0,1.285-0.429,1.285-0.857
								c0-0.429,0.43-0.857,1.287-1.286c0-0.429,0-1.286-0.43-2.143c-0.857-1.286-1.715-2.143-2.57-2.571
								C445.842,213.6,444.555,215.315,443.27,216.6z"/>
							<path fill="#5353F9" d="M441.127,220.886c-0.428,0.857-0.428,1.286-0.428,1.714c0.855,0,1.283,0,1.713,0
								c0.43,0.429,0.857,0,1.715-0.429c-0.857-0.429-1.285-0.857-1.715-1.714c0-0.857-0.43-1.286-0.857-1.286
								C441.127,219.6,441.127,220.029,441.127,220.886z"/>
							<path fill="#5353F9" d="M399.985,469.886c-0.43,0.428-0.43,0.857-0.43,0.857c0.43,0,0.857,0,0.857,0
								c0.43,0.428,0.43,0,1.287,0c-0.43-0.43-0.857-0.43-0.857-1.287c0-0.43,0-0.857-0.43-0.857
								C399.985,469.029,399.985,469.457,399.985,469.886z"/>
							<path fill="#5353F9" d="M383.7,454.457c-0.43,0-0.857,0-1.717,0.43c-0.428,0.428-0.855,0.428-0.855,0.857
								c0.428,0,0.855,0.428,0.855,0.428s0.43,0.428,1.287,0.428c-0.43,0-0.43-0.428,0-0.428L383.7,454.457z"/>
							<path fill="#5353F9" d="M434.27,450.599c0,1.287,0.857,2.145,1.285,2.572c0.43,0,0.857,0,0.857,0
								c0-0.428,0.43-0.428,0.857-0.428c0.43-0.43,0.43-0.857,0.43-1.287c0-0.857-0.43-1.713-0.857-2.143
								C436.413,449.744,435.555,450.171,434.27,450.599z"/>
							<path fill="#5353F9" d="M383.7,418.029c0-0.43,0,0.43,0.428,2.57c0,0.857,0,1.715,0.428,2.572c0-0.428,0-0.428,0.43-0.857
								c0-0.428,0.43-0.855,0.43-1.715c0.428-1.285,0.428-2.143,0.428-3C384.985,418.457,384.555,418.457,383.7,418.029z"/>
							
								<rect x="379.057" y="412.769" transform="matrix(-0.3105 0.9506 -0.9506 -0.3105 891.4247 180.2467)" fill="#5353F9" width="2.572" height="1.286"/>
							<path fill="#5353F9" d="M378.127,423.599c-0.428,0.43-0.428,0.43-0.428,0.857c0.428,0,0.855,0.43,0.855,0.43
								c0,0.428,0.428,0.428,1.285,0c-0.428-0.43-0.428-0.857-0.428-1.287c0-0.428,0-0.855,0-0.855
								C378.555,422.744,378.555,423.171,378.127,423.599z"/>
							<path fill="#5353F9" d="M360.985,406.886c-0.43,0-0.855,0-1.715,0.428c-0.428,0.43-0.855,0.43-0.855,0.857
								c0.428,0,0.855,0.428,0.855,0.428s0.43,0.43,1.285,0.43c-0.428,0-0.428-0.43,0-0.43L360.985,406.886z"/>
							<path fill="#5353F9" d="M453.985,425.314c0.43,0,0.857,0,1.715-0.428c0.855-0.857,1.715-0.857,2.143-0.43
								c-1.285-1.285-2.57-1.713-3-2.143L453.985,425.314z"/>
							<path fill="#5353F9" d="M445.842,421.457c-0.857-0.857-1.287-0.43-0.857,0.857h0.43c0.855,0.43,1.285,0.43,1.715,0
								C446.7,422.314,446.27,421.886,445.842,421.457z"/>
							<path fill="#5353F9" d="M461.27,357.171c0,1.285,0.857,2.143,1.285,2.572c0.43,0,0.857,0,0.857,0
								c0-0.43,0.43-0.43,0.857-0.43c0.43-0.43,0.43-0.857,0.43-1.287c0-0.855-0.43-1.713-0.857-2.143
								C463.413,356.314,462.555,357.171,461.27,357.171z"/>
							<polygon fill="#5353F9" points="438.127,403.029 439.413,402.599 439.413,401.744 438.127,402.171 							"/>
							<polygon fill="#5353F9" points="458.27,388.029 458.7,384.599 457.842,384.599 457.413,388.029 							"/>
							<path fill="#5353F9" d="M419.27,405.171c0.43,0,0.857,0,1.715-0.428c0.857-0.857,1.715-0.857,2.145-0.43
								c-1.287-1.287-2.572-1.715-3-2.143L419.27,405.171z"/>
							<path fill="#5353F9" d="M461.27,356.314c-0.855-0.855-1.285-0.428-0.855,0.857h0.428c0.857,0.428,1.285,0.428,1.713,0
								C462.127,356.744,461.7,356.744,461.27,356.314z"/>
							<polygon fill="#5353F9" points="403.413,383.314 405.127,382.886 405.127,381.599 403.413,382.457 							"/>
							<path fill="#5353F9" d="M415.413,376.886c-0.857,0.857-1.713,0-2.143-1.715c-1.287,2.143-1.715,4.285-1.287,6.428
								c0.43,0,1.287-0.428,3.43-1.713c1.287,0.857,1.715,1.713,1.287,3c-0.857,2.143-1.287,3-1.287,3.428
								c0.43,0,0.857,0,1.287-0.428c0.428-0.43,1.283-0.43,1.713-0.857c0-2.143,0-5.143,0.43-9.855
								C416.7,376.029,415.842,376.457,415.413,376.886z"/>
							
								<rect x="431.395" y="370.866" transform="matrix(-0.3101 0.9507 -0.9507 -0.3101 919.2729 75.4719)" fill="#5353F9" width="1.713" height="0.857"/>
							<polygon fill="#5353F9" points="423.555,368.314 423.985,364.886 423.555,364.457 423.127,367.886 							"/>
							
								<rect x="447.118" y="362.775" transform="matrix(-0.3098 0.9508 -0.9508 -0.3098 931.6226 49.7329)" fill="#5353F9" width="1.286" height="0.429"/>
							<path fill="#5353F9" d="M347.27,413.314c-0.428,0.43-0.428,0.43-0.428,0.857c0.428,0,0.857,0.428,0.857,0.428
								c0,0.43,0.428,0.43,1.283,0c-0.428-0.428-0.428-0.855-0.428-1.285c0-0.428,0-0.855,0-0.855
								C347.7,412.886,347.27,412.886,347.27,413.314z"/>
							<path fill="#5353F9" d="M422.7,415.029c0.428,0,0.855,0,1.713-0.43c0.857-0.855,1.715-0.855,2.143-0.428
								c-1.285-1.285-2.57-1.715-3-2.145L422.7,415.029z"/>
							<path fill="#5353F9" d="M414.985,411.599c-0.855-0.855-1.285-0.428-0.855,0.857h0.428c0.857,0.43,1.285,0.43,1.715,0
								C415.842,412.029,415.413,412.029,414.985,411.599z"/>
							<path fill="#5353F9" d="M380.7,392.744c0,1.283,0.855,2.143,1.283,2.57c0.43,0,0.857,0,0.857,0c0-0.43,0.43-0.43,0.857-0.43
								c0.43-0.428,0.43-0.857,0.43-1.285c0-0.855-0.43-1.715-0.857-2.143C382.842,391.886,381.985,392.314,380.7,392.744z"/>
							<polygon fill="#5353F9" points="406.842,393.171 408.555,392.744 408.555,391.457 406.842,391.886 							"/>
							<path fill="#5353F9" d="M393.127,400.886c-0.857,0.857-1.715,0-2.145-1.715c-1.283,2.143-1.713,4.285-1.283,6.428
								c0.428,0,1.283-0.428,3.428-1.713c1.285,0.857,1.715,1.713,1.285,3c-0.857,2.143-1.285,3-1.285,3.428
								c0.428,0,0.857,0,1.285-0.428c0.43-0.43,1.287-0.43,1.715-0.857c0-2.143,0-5.143,0.428-9.855
								C394.413,399.599,393.985,400.457,393.127,400.886z"/>
							
								<rect x="434.786" y="380.639" transform="matrix(-0.3101 0.9507 -0.9507 -0.3101 933.0079 85.0513)" fill="#5353F9" width="1.713" height="0.859"/>
							<polygon fill="#5353F9" points="426.985,378.171 427.413,374.744 426.985,374.314 426.555,377.744 							"/>
							
								<rect x="450.51" y="372.549" transform="matrix(-0.3098 0.9508 -0.9508 -0.3098 945.3575 59.3099)" fill="#5353F9" width="1.286" height="0.427"/>
							<path fill="#5353F9" d="M409.413,421.457c0.43,0,0.857,0,1.715-0.43c0.855-0.855,1.715-0.855,2.143-0.428
								c-1.285-1.285-2.57-1.715-3-2.143L409.413,421.457z"/>
							<path fill="#5353F9" d="M384.555,424.029c0.43,0,0.857,0,1.715-0.43c0.857-0.855,1.715-0.855,2.145-0.428
								c-1.285-1.285-2.572-1.715-3-2.145L384.555,424.029z"/>
							<path fill="#5353F9" d="M373.413,450.171c0.43,0,0.857-0.428,1.715-1.285c0.428-0.857,1.285-1.287,2.143-1.287
								c-1.715-0.428-3-0.855-3.855-0.855v3.428H373.413z"/>
							<path fill="#5353F9" d="M401.7,418.029c-0.857-0.857-1.287-0.43-0.857,0.857h0.428c0.857,0.428,1.285,0.428,1.715,0
								C402.555,418.886,402.127,418.457,401.7,418.029z"/>
							<path fill="#5353F9" d="M367.413,399.171c0,1.285,0.857,2.143,1.287,2.572c0.428,0,0.855,0,0.855,0
								c0-0.43,0.428-0.43,0.857-0.43c0.43-0.428,0.43-0.857,0.43-1.285c0-0.855-0.43-1.715-0.857-2.143
								C369.555,398.314,368.7,398.744,367.413,399.171z"/>
							<polygon fill="#5353F9" points="472.842,418.886 474.127,418.457 474.127,417.599 472.413,418.029 							"/>
							<path fill="#5353F9" d="M454.842,348.171c-0.857,0.855-1.715,0-2.143-1.715c-1.287,2.143-1.717,4.287-1.287,6.43
								c0.43,0,1.287-0.43,3.43-1.715c1.285,0.855,1.713,1.715,1.285,3c-0.857,2.143-1.285,3-1.285,3.428
								c0.428,0,0.857,0,1.285-0.428s1.285-0.428,1.715-0.857c0-2.143,0-5.57,0.428-9.855
								C456.555,346.886,455.7,347.314,454.842,348.171z"/>
							
								<rect x="266.419" y="408.564" transform="matrix(-0.3101 0.9507 -0.9507 -0.3101 738.9854 281.7052)" fill="#5353F9" width="1.713" height="0.859"/>
							<polygon fill="#5353F9" points="337.413,385.457 337.842,382.457 336.985,382.029 336.555,385.457 							"/>
							
								<rect x="436.966" y="379.181" transform="matrix(-0.3098 0.9508 -0.9508 -0.3098 933.9235 80.8753)" fill="#5353F9" width="1.286" height="0.429"/>
							<path fill="#5353F9" d="M365.27,400.886c-0.428,0.428-0.428,0.428-0.428,0.857c0.428,0,0.857,0.428,0.857,0.428
								c0,0.428,0.428,0.428,1.283,0c-0.428-0.428-0.428-0.857-0.428-1.285c0-0.43,0-0.857,0-0.857
								C365.27,400.029,365.27,400.457,365.27,400.886z"/>
							<path fill="#5353F9" d="M440.7,402.599c0.428,0,0.855,0,1.713-0.428c0.857-0.857,1.715-0.857,2.143-0.428
								c-1.285-1.287-2.57-1.717-3-2.145L440.7,402.599z"/>
							<path fill="#5353F9" d="M432.985,399.171c-0.855-0.857-1.285-0.428-0.855,0.855h0.428c0.857,0.43,1.285,0.43,1.715,0
								C433.842,399.599,433.413,399.171,432.985,399.171z"/>
							<path fill="#5353F9" d="M398.7,380.314c0,1.285,0.855,2.145,1.283,2.572c0.43,0,0.857,0,0.857,0c0-0.43,0.43-0.43,0.857-0.43
								c0.428-0.43,0.428-0.857,0.428-1.285c0-0.857-0.428-1.715-0.855-2.145C400.842,379.457,399.985,379.886,398.7,380.314z"/>
							<polygon fill="#5353F9" points="424.842,380.744 426.555,380.314 426.555,379.029 424.842,379.457 							"/>
							<path fill="#5353F9" d="M436.842,374.314c-0.857,0.857-1.715,0-2.143-1.715c-1.287,2.145-1.717,4.287-1.287,6.43
								c0.43,0,1.287-0.43,3.43-1.715c1.285,0.857,1.713,1.715,1.285,3c-0.857,2.145-1.285,3-1.285,3.43c0.428,0,0.857,0,1.285-0.43
								c0.428-0.428,1.285-0.428,1.715-0.855c0-2.145,0-5.145,0.428-9.857C438.127,373.029,437.27,373.886,436.842,374.314z"/>
							
								<rect x="452.609" y="368.252" transform="matrix(-0.3097 0.9508 -0.9508 -0.3097 944.4685 51.7045)" fill="#5353F9" width="1.715" height="0.857"/>
							<polygon fill="#5353F9" points="444.985,365.314 445.413,362.314 444.555,361.886 444.555,365.314 							"/>
							<path fill="#5353F9" d="M434.27,468.599c0,0.43,0,0.857,0.857,0.857c0.428,0,0.855,0,0.855-0.43L434.27,468.599z"/>
							<path fill="#5353F9" d="M441.985,383.314c-0.43,0.43-0.43,0.43-0.43,0.857c0.43,0,0.857,0.428,0.857,0.428
								c0,0.43,0.43,0.43,1.287,0c-0.43-0.428-0.43-0.855-0.43-1.285c0-0.428,0-0.855,0-0.855
								C442.413,382.886,441.985,383.314,441.985,383.314z"/>
							<path fill="#5353F9" d="M424.842,367.029c-0.43,0-0.857,0-1.715,0.43c-0.428,0.428-0.857,0.428-0.857,0.855
								c0.43,0,0.857,0.43,0.857,0.43s0.428,0.43,1.285,0.43c-0.43,0-0.43-0.43,0-0.43L424.842,367.029z"/>
							<path fill="#5353F9" d="M441.127,347.314c-0.428,1.715-0.428,3,0.855,4.285c-1.713,2.145-3,3.857-3.855,6l-0.857,2.572
								c0.43,0.428,0.857,0.855,2.145,1.285c0.428,0,0.855,0.43,1.285,0.43s1.285,0.428,1.715,0.428
								c0.855-0.855,1.285-1.715,1.715-3c0.428-0.428,0.855-1.285,1.285-2.143l0.855-2.572l-1.715-0.428
								c-0.428,0-1.285,0.855-2.143,2.572l-1.285-0.43v-3c0.428-0.43,0.855-1.287,1.715-1.287c0.428,0,0.428-0.428,0.857-0.428
								c0.428-0.428,0.855-0.428,1.283-0.855c0,0,0-0.43,0-0.857c0-1.287-0.428-1.715-0.428-1.287L441.127,347.314z"/>
							
								<rect x="372.176" y="464.469" transform="matrix(-0.3099 0.9508 -0.9508 -0.3099 933.2202 253.7073)" fill="#5353F9" width="4.714" height="2.144"/>
							
								<rect x="394.719" y="501.967" transform="matrix(0.0133 0.9999 -0.9999 0.0133 894.8047 99.3274)" fill="#5353F9" width="4.713" height="2.143"/>
							<polygon fill="#5353F9" points="364.413,475.457 366.555,463.029 363.985,462.171 362.7,475.029 							"/>
							
								<rect x="451.179" y="454.646" transform="matrix(-0.3095 0.9509 -0.9509 -0.3095 1027.2485 165.4996)" fill="#5353F9" width="4.714" height="2.143"/>
							<path fill="#5353F9" d="M452.27,440.744c-1.715-0.43-3.855-0.43-6,0.855c-1.715,0.857-2.57,2.145-3,3.428
								c1.715,0.43,3,1.287,3.857,1.717c0.428,0.428,1.715,0.855,4.715,0.855c-0.857-0.428-1.287-0.855-0.857-2.572L452.27,440.744z
								"/>
							
								<rect x="357.918" y="494.018" transform="matrix(-0.3099 0.9508 -0.9508 -0.3099 944.2468 305.2406)" fill="#5353F9" width="6.857" height="2.572"/>
							<polygon fill="#5353F9" points="313.842,518.744 315.555,506.314 312.985,505.457 311.7,517.886 							"/>
							
								<rect x="411.545" y="455.907" transform="matrix(0.0133 0.9999 -0.9999 0.0133 865.3513 37.0529)" fill="#5353F9" width="4.713" height="2.143"/>
							<polygon fill="#5353F9" points="245.271,401.744 246.985,389.314 244.413,388.886 243.555,401.314 							"/>
							
								<rect x="99.615" y="318.191" transform="matrix(-0.3098 0.9508 -0.9508 -0.3098 437.1182 321.2103)" fill="#5353F9" width="4.714" height="2.143"/>
							<polygon fill="#5353F9" points="407.7,469.886 405.555,457.457 402.985,457.457 405.985,469.886 							"/>
							<path fill="#5353F9" d="M504.127,211.457c-1.285,0.857-2.145,2.143-2.145,3c1.717,0.429,2.572,1.286,3,1.714
								c0.43,1.286,2.145,1.286,4.287,0.429c-0.857-1.286-1.715-3-2.145-4.714c0.43-1.714,0.43-2.571-0.428-3
								C505.413,209.315,504.555,210.172,504.127,211.457z"/>
							<path fill="#5353F9" d="M483.985,367.457c-1.715,0.43-3.43,1.287-5.143,3.43c-1.287,1.713-1.715,3-1.287,4.285
								c1.715-0.428,3-0.428,4.287,0c0.428,0.428,2.143,0,4.713-1.285c-0.855,0-1.285-0.43-1.713-1.715L483.985,367.457z"/>
							<path fill="#5353F9" d="M513.985,349.029c-1.715,0.43-3.43,1.285-5.143,3.43c-1.287,1.715-1.715,3-1.287,4.285
								c1.715-0.43,3-0.43,4.287,0c0.428,0.43,2.143,0,4.713-1.285c-0.855,0-1.285-0.43-1.713-1.715L513.985,349.029z"/>
							
								<rect x="373.586" y="489.297" transform="matrix(-0.3095 0.9509 -0.9509 -0.3095 958.5911 284.6599)" fill="#5353F9" width="4.714" height="2.144"/>
							
								<rect x="88.296" y="307.05" transform="matrix(-0.3098 0.9508 -0.9508 -0.3098 411.6997 317.3809)" fill="#5353F9" width="4.714" height="2.143"/>
							
								<rect x="399.249" y="495.995" transform="matrix(0.013 0.9999 -0.9999 0.013 896.5866 87.9368)" fill="#5353F9" width="8.999" height="4.286"/>
							<path fill="#5353F9" d="M417.555,466.886c-1.713,0-3.428,0.857-5.57,3c-1.285,1.285-2.143,2.57-2.143,4.285
								c1.713,0,3,0,4.285,0.428c0.428,0.43,2.143,0,4.715-0.855c-0.857,0-1.287-0.857-1.287-2.145V466.886z"/>
							<path fill="#5353F9" d="M489.127,313.029c-1.715,0.43-3.428,1.285-5.145,3.43c-1.283,1.715-1.713,3-1.283,4.285
								c1.713-0.43,3-0.43,4.283,0c0.43,0.43,2.145,0,4.717-1.285c-0.857,0-1.287-0.43-1.717-1.715L489.127,313.029z"/>
							
								<rect x="392.855" y="441.906" transform="matrix(0.0133 0.9999 -0.9999 0.0133 832.9099 41.9273)" fill="#5353F9" width="4.713" height="2.145"/>
							<polygon fill="#5353F9" points="515.27,217.029 516.985,205.029 514.413,204.172 513.127,216.6 							"/>
							
								<rect x="380.281" y="487.57" transform="matrix(-0.3099 0.9508 -0.9508 -0.3099 965.7987 276.2595)" fill="#5353F9" width="4.714" height="2.143"/>
							
								<rect x="389.027" y="474.121" transform="matrix(0.0128 0.9999 -0.9999 0.0128 862.7912 76.8899)" fill="#5353F9" width="6.856" height="2.571"/>
							
								<rect x="446.662" y="441.322" transform="matrix(-0.3099 0.9508 -0.9508 -0.3099 1008.7783 152.5667)" fill="#5353F9" width="4.714" height="2.143"/>
							<path fill="#5353F9" d="M3.985,269.315c1.286-0.857-1.286,0.856-7.714,5.144c-3,1.285-6,3-8.572,5.57
								c0.857,0,2.143,0,3.857-0.43c1.714,0,3.857-0.428,6-0.428c4.714-0.428,7.714-1.285,9.857-3
								C5.271,274.457,3.985,272.314,3.985,269.315z"/>
							
								<rect x="393.487" y="464.964" transform="matrix(0.013 0.9999 -0.9999 0.013 859.8713 63.0709)" fill="#5353F9" width="8.999" height="4.286"/>
							
								<rect x="411.763" y="442.824" transform="matrix(0.013 0.9999 -0.9999 0.013 855.77 22.9448)" fill="#5353F9" width="8.999" height="4.286"/>
							
								<rect x="463.598" y="448.909" transform="matrix(-0.3097 0.9508 -0.9508 -0.3097 1041.9448 145.6646)" fill="#5353F9" width="8.999" height="4.285"/>
							<polygon fill="#5353F9" points="392.27,367.457 393.985,357.171 391.842,356.314 390.985,367.029 							"/>
							
								<rect x="318.687" y="500.597" transform="matrix(-0.3099 0.9508 -0.9508 -0.3099 897.5042 351.8856)" fill="#5353F9" width="4.714" height="2.143"/>
							
								<rect x="336.038" y="508.245" transform="matrix(-0.3099 0.9508 -0.9508 -0.3099 931.3315 344.7869)" fill="#5353F9" width="9" height="4.285"/>
							<path fill="#5353F9" d="M320.27,487.029c-1.715-0.43-3.855-0.43-6,0.857c-1.715,0.857-2.57,2.143-3,3.428
								c1.715,0.43,3,1.285,3.857,1.715c0.428,0.428,1.715,0.857,4.715,0.857c-0.857-0.43-1.287-0.857-0.857-2.572L320.27,487.029z"
								/>
							<path fill="#5353F9" d="M434.7,330.599c-0.857,0-1.717,0.857-2.145,1.715s-0.855,1.285-0.428,2.145c0.855,0,1.285,0,1.713,0
								c0.43,0,0.857,0,2.143-0.43c-0.428,0-0.855,0-0.855-0.855L434.7,330.599z"/>
							<path fill="#5353F9" d="M447.985,427.457c-1.715-0.43-3.855-0.43-6,0.857c-1.715,0.857-2.57,2.143-3,3.43
								c1.715,0.428,3,1.283,3.857,1.713c0.428,0.43,1.713,0.857,4.713,0.857c-0.855-0.43-1.285-0.857-0.855-2.57L447.985,427.457z"
								/>
							<path fill="#5353F9" d="M471.127,401.314c0,0.857,0.428,1.285,1.285,1.715c0.857,0,1.287,0,1.715-0.855L471.127,401.314z"/>
							<path fill="#5353F9" d="M481.842,389.744c0.428,0.855,0.857,1.283,1.713,0.855c0.857-0.428,1.287-0.855,0.857-1.285
								L481.842,389.744z"/>
							
								<rect x="508.86" y="369.39" transform="matrix(0.1515 0.9885 -0.9885 0.1515 799.3841 -190.7335)" fill="#5353F9" width="3.855" height="1.713"/>
							<polygon fill="#5353F9" points="491.27,372.171 489.127,365.744 487.413,365.744 489.985,372.599 							"/>
							<polygon fill="#5353F9" points="498.127,387.599 500.27,385.029 499.413,383.314 496.842,385.886 							"/>
							
								<rect x="525.527" y="328.822" transform="matrix(0.9651 0.2619 -0.2619 0.9651 104.7618 -126.6403)" fill="#5353F9" width="3.855" height="1.714"/>
							
								<rect x="510.651" y="331.718" transform="matrix(0.1503 0.9886 -0.9886 0.1503 762.4005 -223.2427)" fill="#5353F9" width="0.857" height="0.429"/>
							<polygon fill="#5353F9" points="493.413,357.171 495.127,355.457 494.27,354.171 492.985,355.886 							"/>
							<polygon fill="#5353F9" points="508.842,325.886 507.555,321.171 506.27,321.599 507.985,325.886 							"/>
							<polygon fill="#5353F9" points="507.985,349.029 509.7,347.314 508.842,346.457 507.127,347.744 							"/>
							<path fill="#5353F9" d="M498.555,346.886c-1.285-0.43-1.713,0-0.855,1.285h0.855c0.857,0,1.715-0.428,2.145-1.285
								C500.27,347.314,499.413,347.314,498.555,346.886z"/>
							<path fill="#5353F9" d="M500.27,322.029c-0.428,0.428-0.428,0.857-0.428,1.285c0.857,0,1.285,0,1.285,0
								c0.428,0.43,0.855,0,1.285-0.428c-0.43-0.43-0.857-0.857-1.285-1.287c0-0.855-0.428-0.855-0.857-0.855
								C500.27,321.171,500.27,321.599,500.27,322.029z"/>
							<path fill="#5353F9" d="M489.985,335.744c-0.43-0.43,0.43,0.428,2.143,2.57c0.43,1.285,1.287,2.143,2.145,3
								c0-0.43,0-0.857-0.43-1.715c0-0.855-0.428-1.285-0.428-2.143c-0.43-1.715-0.857-3-1.287-3.857
								C491.7,334.886,490.842,335.744,489.985,335.744z"/>
							<polygon fill="#5353F9" points="488.7,350.744 487.413,346.029 486.127,346.457 487.842,350.744 							"/>
							<polygon fill="#5353F9" points="503.27,342.599 501.555,338.314 500.7,338.314 502.413,342.599 							"/>
							<polygon fill="#5353F9" points="504.985,322.029 503.7,317.744 502.413,317.744 504.127,322.029 							"/>
							<polygon fill="#5353F9" points="404.27,420.599 409.413,415.886 408.555,414.599 403.413,419.744 							"/>
							
								<rect x="448.681" y="422.425" transform="matrix(-0.8431 0.5378 -0.5378 -0.8431 1055.0319 537.4521)" fill="#5353F9" width="0.857" height="0.429"/>
							<path fill="#5353F9" d="M475.413,396.171c0,0,0.43,0.428,1.287,0.428c0.855,0,1.283,0,1.283,0.857
								c-0.428-1.285-0.428-2.143-0.855-2.143L475.413,396.171z"/>
							<polygon fill="#5353F9" points="419.27,416.744 420.985,417.599 421.842,416.314 419.7,415.457 							"/>
							<polygon fill="#5353F9" points="453.985,418.029 457.413,415.029 456.985,414.171 453.555,417.599 							"/>
							
								<rect x="479.064" y="379.566" transform="matrix(-0.8436 0.537 -0.537 -0.8436 1090.1313 442.8815)" fill="#5353F9" width="3.001" height="1.285"/>
							<path fill="#5353F9" d="M430.413,417.599c-0.43-1.285-0.857-1.285-1.713,0l0.428,0.857c0.428,0.857,1.285,1.287,1.715,1.715
								C430.842,418.886,430.413,418.457,430.413,417.599z"/>
							<path fill="#5353F9" d="M453.985,409.029c-0.43,0-0.855,0-1.285,0.43c0.428,0.428,0.428,0.855,0.428,1.285
								s0.43,0.855,0.857,1.285c0-0.43,0-1.285,0.43-1.715c0.428-0.428,0.855-0.855,0.428-0.855
								C454.842,408.599,454.413,408.599,453.985,409.029z"/>
							
								<rect x="476.027" y="383.073" transform="matrix(-0.8438 0.5367 -0.5367 -0.8438 1089.1074 451.696)" fill="#5353F9" width="5.572" height="2.572"/>
							<path fill="#5353F9" d="M437.27,404.744c0.43-0.43-0.428,0.428-1.715,3c-0.855,0.855-1.285,2.143-1.713,3.428
								c0.428,0,0.857-0.428,1.285-0.857c0.428-0.428,1.285-0.855,2.143-1.285c1.285-0.855,2.572-1.715,3-2.57
								C438.555,406.457,437.7,406.029,437.27,404.744z"/>
							<polygon fill="#5353F9" points="423.127,409.886 426.555,406.886 426.127,406.029 422.7,409.029 							"/>
							<polygon fill="#5353F9" points="436.413,419.744 439.842,416.744 438.985,415.886 435.985,419.314 							"/>
							<path fill="#5353F9" d="M465.127,412.886c0.428-0.43-0.428,0.428-1.715,3c-0.857,0.857-1.285,2.143-1.713,3.428
								c0.428,0,0.855-0.428,1.283-0.855c0.43-0.43,1.287-0.857,2.145-1.285c1.285-0.857,2.572-1.715,3-2.572
								C466.413,414.599,465.555,413.744,465.127,412.886z"/>
							
								<rect x="470.743" y="413.074" transform="matrix(-0.8436 0.537 -0.537 -0.8436 1092.7864 509.1257)" fill="#5353F9" width="3.001" height="1.286"/>
							<path fill="#5353F9" d="M469.413,397.886c-0.43-0.857-1.713-1.715-3.43-2.143c-1.283-0.43-2.143,0-3,0.428
								c0.43,0.855,0.857,1.715,0.857,2.572c0,0.428,0.43,1.283,2.143,2.57c-0.428-0.43,0-0.857,0.857-1.287L469.413,397.886z"/>
							<polygon fill="#5353F9" points="455.7,413.314 459.127,410.314 458.7,409.457 455.27,412.457 							"/>
							
								<rect x="468.487" y="380.329" transform="matrix(-0.8438 0.5367 -0.5367 -0.8438 1073.7325 450.6831)" fill="#5353F9" width="5.572" height="2.571"/>
							
								<rect x="470.496" y="390.869" transform="matrix(-0.8437 0.5369 -0.5369 -0.8437 1079.9985 468.5261)" fill="#5353F9" width="2.572" height="1.285"/>
							<path fill="#5353F9" d="M298.413,540.599c-0.43-0.855-1.285-0.855-2.143-0.855c-0.857,0.43-1.287,1.285-0.857,1.715
								L298.413,540.599z"/>
							<path fill="#5353F9" d="M450.555,261.171c-0.428-0.856-1.285-0.856-1.713-0.856c-0.857,0.428-0.857,0.856-0.857,1.714
								L450.555,261.171z"/>
							
								<rect x="424.496" y="284.115" transform="matrix(-0.3358 -0.9419 0.9419 -0.3358 301.1711 782.3236)" fill="#5353F9" width="3.857" height="1.714"/>
							<polygon fill="#5353F9" points="444.985,279.599 447.985,285.599 449.7,285.171 445.842,279.171 							"/>
							<polygon fill="#5353F9" points="435.555,266.315 433.413,268.886 435.127,270.601 436.842,267.601 							"/>
							
								<rect x="433.148" y="321.679" transform="matrix(-0.3353 -0.9421 0.9421 -0.3353 275.708 838.3046)" fill="#5353F9" width="0.856" height="0.428"/>
							<polygon fill="#5353F9" points="445.413,294.599 444.127,296.314 444.985,297.171 446.27,295.457 							"/>
							<polygon fill="#5353F9" points="273.985,496.029 276.985,500.744 277.842,500.314 274.842,495.599 							"/>
							<polygon fill="#5353F9" points="432.985,304.886 431.7,306.599 432.555,307.886 433.842,306.171 							"/>
							<path fill="#5353F9" d="M442.413,305.314c1.287,0,1.715-0.428,0.43-1.715l-0.857,0.43c-0.855,0.43-1.715,0.857-1.715,1.285
								C440.7,305.314,441.555,304.886,442.413,305.314z"/>
							<path fill="#5353F9" d="M452.7,314.314c0.428,0.43-0.43-0.428-2.572-2.143c-0.857-0.857-1.715-1.715-2.572-2.572
								c0,0.43,0.43,0.857,0.43,1.287c0.43,0.428,0.43,1.285,0.857,2.143c0.428,1.715,1.285,2.57,2.143,3.43
								C450.985,315.599,451.842,314.744,452.7,314.314z"/>
							<polygon fill="#5353F9" points="450.985,299.744 453.555,304.029 454.413,303.599 451.842,299.744 							"/>
							<polygon fill="#5353F9" points="438.985,310.029 441.127,314.314 441.985,313.886 439.413,310.029 							"/>
							<g>
								<path fill="#5353F9" d="M495.555,126.172c-0.855-0.429-1.713,0-2.143,0.857s0,1.714,0.43,1.714L495.555,126.172z"/>
								<path fill="#5353F9" d="M459.555,135.6c-0.855-0.429-1.713,0-2.143,0.857s0,1.714,0.43,2.143L459.555,135.6z"/>
								
									<rect x="455.231" y="177.191" transform="matrix(-0.883 -0.4693 0.4693 -0.883 778.1027 550.0119)" fill="#5353F9" width="4.713" height="1.714"/>
								<polygon fill="#5353F9" points="469.842,157.029 477.985,160.029 478.842,158.315 470.27,155.743 								"/>
								<polygon fill="#5353F9" points="449.7,152.743 450.555,157.029 453.127,157.029 452.27,153.172 								"/>
								
									<rect x="494.555" y="205.862" transform="matrix(-0.884 -0.4675 0.4675 -0.884 836.1846 619.671)" fill="#5353F9" width="0.859" height="0.429"/>
								<polygon fill="#5353F9" points="483.127,170.743 483.555,173.315 485.27,173.315 484.842,170.743 								"/>
								<polygon fill="#5353F9" points="502.413,208.457 507.985,210.6 508.413,209.315 502.842,207.6 								"/>
								<polygon fill="#5353F9" points="480.555,190.457 480.555,193.457 482.27,193.457 482.27,190.886 								"/>
								<path fill="#5353F9" d="M489.127,183.172c1.285-1.286,0.855-1.714-0.857-1.714l-0.428,0.857c-0.43,1.286-0.857,2.143-0.43,3
									C487.842,184.457,488.27,183.6,489.127,183.172z"/>
								<path fill="#5353F9" d="M506.7,182.743c0.855,0-0.857,0-4.287,0c-1.285-0.428-3-0.428-4.713,0
									c0.428,0,0.855,0.429,1.713,0.857c0.857,0.428,1.715,0.857,2.57,1.286c1.717,0.857,3.43,1.286,4.717,1.286
									C505.842,184.886,505.842,184.029,506.7,182.743z"/>
								<polygon fill="#5353F9" points="492.985,170.743 498.127,172.457 498.985,171.172 493.413,169.886 								"/>
								<polygon fill="#5353F9" points="489.985,190.457 495.555,192.6 495.985,191.315 490.413,189.6 								"/>
							</g>
							<g>
								<path fill="#5353F9" d="M62.699,172.886c-0.857-0.429-1.714,0-2.143,0.857c-0.429,0.857,0,1.714,0.429,1.714L62.699,172.886
									z"/>
								<path fill="#5353F9" d="M26.699,182.743c-0.857-0.428-1.714,0-2.143,0.857c-0.429,0.857,0,1.714,0.429,2.143L26.699,182.743
									z"/>
								
									<rect x="22.643" y="224.292" transform="matrix(-0.8831 -0.4692 0.4692 -0.8831 -58.5603 435.7073)" fill="#5353F9" width="4.715" height="1.714"/>
								<polygon fill="#5353F9" points="36.985,204.172 45.128,207.172 45.985,205.457 37.842,202.886 								"/>
								<polygon fill="#5353F9" points="17.271,199.886 17.699,203.743 20.271,204.172 19.842,200.315 								"/>
								
									<rect x="61.932" y="252.94" transform="matrix(-0.8835 -0.4685 0.4685 -0.8835 -1.1544 506.0214)" fill="#5353F9" width="0.857" height="0.429"/>
								<polygon fill="#5353F9" points="50.271,217.886 50.699,220.457 52.413,220.457 51.985,217.886 								"/>
								<polygon fill="#5353F9" points="69.985,255.599 75.128,257.315 75.985,256.457 70.413,254.743 								"/>
								<polygon fill="#5353F9" points="47.699,237.599 48.128,240.171 49.842,240.599 49.413,238.029 								"/>
								<path fill="#5353F9" d="M56.271,230.315c1.286-1.286,0.857-1.714-0.857-1.714l-0.428,0.857
									c-0.429,1.286-0.857,2.143-0.429,3C54.985,231.172,55.413,230.743,56.271,230.315z"/>
								<path fill="#5353F9" d="M73.842,229.457c0.857,0-0.857,0-4.286,0c-1.286-0.428-3-0.428-4.714,0
									c0.429,0,0.857,0.429,1.714,0.857c0.857,0.428,1.714,0.857,2.571,1.286c1.715,0.857,3.429,1.287,4.715,1.287
									C72.985,232.029,72.985,230.743,73.842,229.457z"/>
								<polygon fill="#5353F9" points="60.128,217.886 65.699,219.6 66.128,218.315 60.556,217.029 								"/>
								<polygon fill="#5353F9" points="57.556,237.599 62.699,239.315 63.556,238.457 57.985,236.743 								"/>
							</g>
						</g>
						<path fill="#5353F9" d="M375.555,447.599c-0.855-0.428-1.713,0-2.143,0.857s0,1.715,0.43,2.143L375.555,447.599z"/>
						<polygon fill="#5353F9" points="385.842,469.029 393.985,472.029 394.842,470.314 386.27,468.171 						"/>
						<polygon fill="#5353F9" points="365.7,464.744 366.555,469.029 369.127,469.029 368.27,465.171 						"/>
						<g>
							<path fill="#5353F9" d="M417.555,403.029c-0.855-0.43-1.713,0-2.143,0.857s0,1.713,0.43,1.713L417.555,403.029z"/>
							<path fill="#5353F9" d="M382.842,412.457c-0.857-0.43-1.715,0-2.143,0.857c-0.43,0.857,0,1.713,0.428,2.143L382.842,412.457z
								"/>
							
								<rect x="378.902" y="452.296" transform="matrix(-0.8832 -0.469 0.469 -0.8832 505.4888 1032.1807)" fill="#5353F9" width="4.715" height="1.713"/>
							<polygon fill="#5353F9" points="393.127,433.029 400.842,436.029 401.7,434.314 393.555,432.171 							"/>
							<polygon fill="#5353F9" points="373.842,429.171 374.27,433.029 376.842,433.029 376.413,429.171 							"/>
							
								<rect x="416.828" y="480.322" transform="matrix(-0.8837 -0.4681 0.4681 -0.8837 561.0366 1100.49)" fill="#5353F9" width="0.855" height="0.428"/>
							<polygon fill="#5353F9" points="405.985,446.314 405.985,448.886 407.7,448.886 407.27,446.314 							"/>
							<polygon fill="#5353F9" points="424.842,482.744 429.985,484.457 430.413,483.599 425.27,481.886 							"/>
							<polygon fill="#5353F9" points="403.413,465.599 403.413,468.171 405.127,468.171 404.7,465.599 							"/>
							<path fill="#5353F9" d="M411.555,458.314c1.287-1.285,0.857-1.715-0.855-1.715l-0.43,0.857c-0.428,0.857-0.855,2.143-0.428,3
								C410.27,459.171,410.7,458.744,411.555,458.314z"/>
							<path fill="#5353F9" d="M428.7,457.886c0.855,0-0.857,0-4.287,0c-1.285-0.43-3-0.43-4.285,0c0.428,0,0.855,0.428,1.715,0.857
								c0.857,0.428,1.713,0.855,2.57,1.283c1.715,0.857,3.43,1.287,4.287,1.287C427.842,460.029,427.842,459.171,428.7,457.886z"/>
							<polygon fill="#5353F9" points="415.413,446.314 420.555,448.029 420.985,446.744 415.842,445.457 							"/>
							<polygon fill="#5353F9" points="412.842,465.599 417.985,467.314 418.413,466.029 413.27,464.744 							"/>
						</g>
						<g>
							<path fill="#5353F9" d="M470.7,461.744c0.428-0.857,0.428-1.717,0-2.145c-0.857-0.428-1.287-0.428-1.717,0L470.7,461.744z"/>
							<path fill="#5353F9" d="M473.7,425.744c0.428-0.857,0.428-1.717,0-2.572c-0.857-0.428-1.717-0.428-2.145,0L473.7,425.744z"/>
							
								<rect x="433.28" y="409.631" transform="matrix(0.7383 -0.6745 0.6745 0.7383 -162.8566 401.2605)" fill="#5353F9" width="4.714" height="1.714"/>
							<polygon fill="#5353F9" points="450.985,428.314 445.842,434.744 446.7,436.029 451.842,429.171 							"/>
							<polygon fill="#5353F9" points="461.27,411.599 457.413,410.744 456.127,412.886 459.985,413.744 							"/>
							
								<rect x="397.751" y="435.081" transform="matrix(0.7372 -0.6757 0.6757 0.7372 -189.4798 383.4758)" fill="#5353F9" width="0.858" height="0.429"/>
							<polygon fill="#5353F9" points="434.27,436.029 431.7,435.599 430.842,436.886 433.413,437.314 							"/>
							<polygon fill="#5353F9" points="393.555,441.599 390.127,445.886 390.985,446.744 393.985,442.029 							"/>
							<polygon fill="#5353F9" points="417.127,427.029 414.555,426.599 413.7,427.886 416.27,428.744 							"/>
							<path fill="#5353F9" d="M420.985,437.314c0.43,1.715,1.285,1.715,2.145,0l-0.43-0.855c-0.857-0.857-1.715-1.285-2.57-1.285
								C420.555,435.599,420.985,436.457,420.985,437.314z"/>
							<path fill="#5353F9" d="M415.842,453.599c0,0.857,0.428-0.428,1.285-3.855c0.855-1.285,1.285-2.57,1.285-4.285
								c-0.43,0.428-0.857,0.855-1.285,1.285s-1.285,1.285-2.145,1.715c-1.283,1.285-2.57,2.57-2.57,3.855
								C413.7,451.886,414.985,452.314,415.842,453.599z"/>
							<polygon fill="#5353F9" points="431.27,445.029 427.842,449.314 428.7,450.171 431.7,445.457 							"/>
							<polygon fill="#5353F9" points="413.7,436.029 410.27,440.314 411.127,441.171 414.555,436.457 							"/>
						</g>
						<g>
							<path fill="#5353F9" d="M466.413,393.599c-0.857-0.428-1.713,0-2.143,0.857s0,1.715,0.43,1.715L466.413,393.599z"/>
							<path fill="#5353F9" d="M431.7,402.599c-0.857-0.428-1.717,0-2.145,0.857s0,1.715,0.428,2.143L431.7,402.599z"/>
							
								<rect x="427.495" y="442.63" transform="matrix(-0.8832 -0.469 0.469 -0.8832 601.5327 1036.7651)" fill="#5353F9" width="4.715" height="1.714"/>
							<polygon fill="#5353F9" points="441.555,423.599 449.27,426.171 450.127,424.886 441.985,422.314 							"/>
							<polygon fill="#5353F9" points="422.27,419.314 422.7,423.171 425.27,423.599 424.842,419.744 							"/>
							<polygon fill="#5353F9" points="454.413,436.457 454.413,439.029 456.127,439.457 455.7,436.886 							"/>
							<polygon fill="#5353F9" points="451.842,455.744 452.27,458.314 453.555,458.744 453.555,456.171 							"/>
							<path fill="#5353F9" d="M459.985,448.457c1.285-1.285,0.857-1.713-0.855-1.713l-0.43,0.855c-0.43,0.857-0.857,2.145-0.43,3
								C458.7,449.744,459.127,449.314,459.985,448.457z"/>
							<polygon fill="#5353F9" points="463.842,436.457 468.985,438.171 469.413,437.314 464.27,436.029 							"/>
						</g>
						<path fill="#5353F9" d="M104.271,213.172c0.428,0,1.286-0.857,2.571-2.143c0.429-1.714,1.714-2.572,3-2.572
							c-3-0.428-5.143-0.857-6-0.428L104.271,213.172z"/>
						<path fill="#5353F9" d="M124.413,243.171c0.43,0,1.286-0.856,2.571-2.143c0.429-1.714,1.714-2.571,3-2.571
							c-3-0.428-5.144-0.856-6-0.428L124.413,243.171z"/>
						<path fill="#5353F9" d="M96.985,132.172c-1.714-0.429-2.143,0-0.857,1.714h0.857c1.286,0,2.143-0.429,2.571-1.286
							C98.699,132.6,97.842,132.6,96.985,132.172z"/>
						<path fill="#5353F9" d="M71.699,215.315c-0.857,2.143-2.571,1.714-4.714-1.286c-0.429,3.857,0.428,7.286,2.571,10.286
							c0.429,0,1.714-1.714,3.857-4.714c2.572,0,3.857,1.286,3.857,3.857c0,3.429,0.428,5.572,0.428,6
							c0.429,0,0.857-0.428,1.714-1.286c0.857-0.857,1.286-1.714,1.714-2.143c-1.286-3-3.857-7.714-6.857-14.572
							C72.985,212.743,72.128,214.029,71.699,215.315z"/>
						<path fill="#5353F9" d="M97.413,364.029c-0.857,2.145-2.571,1.715-4.714-1.285c-0.428,3.855,0.429,7.285,2.572,10.285
							c0.428,0,1.714-1.715,3.857-4.715c2.571,0,3.857,1.285,3.857,3.857c0,3.428,0.428,5.572,0.428,6
							c0.429,0,0.857-0.428,1.714-1.285c0.857-0.857,1.286-1.715,1.714-2.143c-1.286-3-3.857-7.717-6.857-14.572
							C98.699,361.029,97.842,362.314,97.413,364.029z"/>
						
							<rect x="73.169" y="89.433" transform="matrix(0.1515 0.9885 -0.9885 0.1515 151.8155 2.8619)" fill="#5353F9" width="2.143" height="0.857"/>
						<path fill="#5353F9" d="M40.413,283.886c1.286,1.713,2.572,2.57,3.857,2.57c0.857,0,1.286-0.43,1.286-0.857
							s0.429-0.855,0.857-1.285c0-0.428,0-1.285-0.428-2.143c-0.857-1.285-1.714-2.145-2.572-2.572
							C42.556,280.886,41.699,282.171,40.413,283.886z"/>
						<polygon fill="#5353F9" points="98.271,81.6 102.985,76.457 100.842,72.6 95.699,77.743 						"/>
						<path fill="#5353F9" d="M31.842,134.743c0.429,2.143,1.286,3.429,3.429,4.714c-0.857,3-1.286,6-0.857,8.572l0.429,3.428
							c0.857,0.429,1.714,0.429,3,0.429c0.429,0,1.286,0,1.714-0.429c0.857,0,1.286,0,2.143-0.428c0.429-1.286,0.429-3,0.429-4.286
							c0-0.857,0-2.143,0-3l-0.429-3.428l-2.143,0.428c-0.429,0.429-0.857,1.714-0.857,3.857l-1.714,0.429l-1.714-3.429
							c0-0.857,0.428-1.714,0.857-2.571c0.429-0.429,0.429-0.857,0.857-1.286c0.428-0.428,0.428-0.857,0.857-1.286
							c0,0-0.429-0.428-0.429-0.857c-0.857-1.286-1.286-1.714-1.286-1.286L31.842,134.743z"/>
						<path fill="#5353F9" d="M96.556,109.457c-0.857,0-1.714,0.429-2.143,1.714c-0.428,0.857-0.857,1.286-0.428,1.714
							c0.857,0,1.286,0,1.714,0c0.429,0,0.857,0,2.143-0.429c-0.429,0-0.429,0-0.857-0.857L96.556,109.457z"/>
						<path fill="#5353F9" d="M38.271,240.599c0.428,0,1.286-0.856,2.571-2.143c0.429-1.714,1.714-2.57,3-2.57
							c-3-0.43-5.143-0.857-6-0.43L38.271,240.599z"/>
						<path fill="#5353F9" d="M41.271,172.457c0.428,0,1.286-0.857,2.571-2.143c0.429-1.714,1.714-2.572,3-2.572
							c-3.429-0.428-5.143-0.428-6.429-0.428L41.271,172.457z"/>
						<path fill="#5353F9" d="M71.271,197.315c0.428,0,1.286-0.857,2.571-2.143c0.429-1.714,1.714-2.571,3-2.571
							c-3-0.429-5.143-0.857-6-0.429L71.271,197.315z"/>
						<path fill="#5353F9" d="M91.842,244.457c-0.429,1.286-0.429,3,0.857,4.286c-1.714,2.144-3,3.856-3.428,6l-0.857,2.572
							c0.429,0.428,0.857,0.856,2.143,1.286c0.429,0,0.857,0.429,1.286,0.429s0.857,0.429,1.714,0.429
							c0.857-0.857,1.286-1.715,1.714-3c0.428-0.429,0.857-1.287,1.286-2.144l0.857-2.572l-1.714-0.428
							c-0.428,0-1.286,0.856-2.143,2.571l-1.715-0.857v-3c0.429-0.43,0.857-0.857,1.714-1.286c0.429,0,0.429-0.428,0.857-0.428
							c0.429,0,0.857-0.429,1.286-0.857c0,0,0-0.428,0-0.856c0-1.286-0.428-1.715-0.428-1.286L91.842,244.457z"/>
						<path fill="#5353F9" d="M34.842,298.457c-0.429-0.43,0.429,0.43,2.571,2.57c0.429,1.287,1.286,2.145,2.572,3
							c0-0.428,0-0.855-0.429-1.283c0-0.857-0.429-1.287-0.429-2.145c-0.429-1.715-0.857-3-1.286-3.43
							C36.985,297.599,36.128,298.457,34.842,298.457z"/>
						<polygon fill="#5353F9" points="94.842,180.6 93.556,176.315 92.271,176.743 93.985,181.029 						"/>
					</g>
				</g>
			</g>
		</g>
		<g id="Behance_1_">
			<path fill="#FFFFFF" d="M208.413,253.029h-39.428v-34.286h35.57c7.287,0,13.287-3,18.43-1.286
				c5.57,2.143,8.143,5.143,8.143,12.429c0,6.429-2.143,14.143-6.429,16.286C220.413,248.743,215.271,253.029,208.413,253.029z"/>
			<path fill="#FFFFFF" d="M234.127,289.457c0,9.43-3.429,16.715-10.285,20.143c-3.43,1.715-8.571,3.43-15.43,3.43h-39.428v-42.857
				h39.857c6.429,0,12,0.857,15.429,2.572C231.127,275.744,234.127,281.314,234.127,289.457z"/>
			<path fill="#FFFFFF" d="M333.555,245.743c-7.713,0-13.713,2.572-18,6.856c-4.285,4.287-6.855,13.287-8.143,17.572h51.857
				c-0.43-4.285-3.43-14.144-8.143-18C346.842,247.886,340.842,245.743,333.555,245.743z"/>
		</g>
	</g>
</g>
</svg>
