<?xml version="1.0" encoding="utf-8"?>
<!-- Generator: Adobe Illustrator 16.0.0, SVG Export Plug-In . SVG Version: 6.00 Build 0)  -->
<!DOCTYPE svg PUBLIC "-//W3C//DTD SVG 1.1//EN" "http://www.w3.org/Graphics/SVG/1.1/DTD/svg11.dtd">
<svg version="1.1" id="Capa_3" xmlns="http://www.w3.org/2000/svg" xmlns:xlink="http://www.w3.org/1999/xlink" x="0px" y="0px"
	 width="720px" height="720px" viewBox="0 0 720 720" enable-background="new 0 0 720 720" xml:space="preserve">
<g>
	<path fill="#FFFFFF" d="M715.784,357.479c0,194.694-157.834,352.535-352.534,352.535c-194.699,0-352.535-157.841-352.535-352.535
		c0-194.7,157.835-352.535,352.535-352.535C557.95,4.944,715.784,162.779,715.784,357.479z"/>
	<g>
		<circle fill="#5454F4" cx="374.946" cy="262.452" r="80.505"/>
		<g>
			<circle fill="#5454F4" cx="374.946" cy="262.452" r="49.96"/>
			<path fill="#FFFFFF" d="M384.852,315.968c-2.113,0-4.007-1.485-4.442-3.641c-0.493-2.461,1.096-4.844,3.556-5.341
				c6.76-1.359,13.233-4.316,18.712-8.552c1.992-1.532,4.844-1.156,6.364,0.821c1.532,1.979,1.162,4.829-0.816,6.361
				c-6.582,5.083-14.35,8.628-22.476,10.261C385.451,315.938,385.151,315.968,384.852,315.968z M362.23,315.313
				c-0.386,0-0.771-0.045-1.156-0.147c-8.004-2.105-15.557-6.092-21.835-11.54c-1.892-1.643-2.095-4.509-0.452-6.4
				c1.633-1.897,4.508-2.09,6.396-0.457c5.235,4.544,11.53,7.872,18.195,9.622c2.423,0.634,3.869,3.12,3.235,5.539
				C366.076,313.964,364.24,315.313,362.23,315.313z M419.784,289.04c-0.669,0-1.354-0.152-1.998-0.467
				c-2.247-1.105-3.171-3.83-2.064-6.076c3.083-6.259,4.651-13.005,4.651-20.045c0-2.507,2.027-4.535,4.533-4.535
				c2.507,0,4.535,2.028,4.535,4.535c0,8.439-1.877,16.535-5.584,24.052C423.065,288.107,421.458,289.04,419.784,289.04z
				 M328.906,286.422c-1.765,0-3.443-1.045-4.179-2.77c-2.835-6.715-4.275-13.847-4.275-21.201c0-1.056,0.025-2.106,0.086-3.145
				c0.147-2.501,2.466-4.409,4.793-4.261c2.5,0.147,4.413,2.292,4.266,4.792c-0.051,0.863-0.076,1.73-0.076,2.613
				c0,6.132,1.202,12.071,3.565,17.661c0.975,2.313-0.106,4.97-2.414,5.944C330.098,286.301,329.5,286.422,328.906,286.422z
				 M422.036,250.238c-1.862,0-3.611-1.157-4.271-3.013c-2.318-6.493-6.164-12.488-11.129-17.322
				c-1.795-1.75-1.831-4.621-0.081-6.417c1.745-1.79,4.617-1.831,6.412-0.081c5.949,5.798,10.564,12.985,13.339,20.775
				c0.843,2.359-0.391,4.952-2.749,5.793C423.057,250.157,422.544,250.238,422.036,250.238z M331.442,242.386
				c-0.755,0-1.526-0.188-2.231-0.588c-2.181-1.237-2.942-4.007-1.709-6.183c4.083-7.202,9.86-13.487,16.708-18.174
				c2.055-1.419,4.89-0.892,6.305,1.178c1.415,2.069,0.887,4.889-1.182,6.309c-5.711,3.906-10.535,9.15-13.938,15.161
				C334.557,241.565,333.025,242.386,331.442,242.386z M390.433,219.47c-0.468,0-0.938-0.071-1.406-0.223
				c-4.539-1.481-9.479-2.151-14.125-2.222c-2.131,0-4.281,0.152-6.392,0.446c-2.43,0.331-4.773-1.37-5.122-3.854
				c-0.356-2.475,1.374-4.773,3.854-5.123c2.552-0.36,5.355-0.431,7.71-0.538c5.767,0,11.448,0.893,16.886,2.668
				c2.384,0.771,3.682,3.333,2.905,5.711C394.118,218.253,392.344,219.47,390.433,219.47z"/>
		</g>
		<path fill="#5454F4" d="M538.782,435.016c-27.923,15.41-66.318,29.652-104.618,35.663c-34.069,5.34-98.172-7.542-98.172-22.764
			c0-5.767,56.22,14.207,90.224,5.138c26.081-6.96,22.378-31.35,8.191-34.566c-14.101-3.2-96.715-33.472-132.003-34.511
			c-16.626-0.492-57.665,5.777-77.522,9.013c-6.807,1.106-11.073,0.984-11.494,7.497c-1.977,30.26-5.873,92.13-7.993,124.449
			c-0.045,0.686,0.903,9.871,8.481,3.409c8.293-7.076,19.928-14.913,30.691-12.479c16.88,3.836,162.932,30.591,183.08,25.909
			c28.818-6.699,110.405-55.049,126.048-70.076C577.938,448.401,559.092,423.807,538.782,435.016z"/>
		<g>
			<line fill="#FFFFFF" x1="185.37" y1="394.119" x2="177.579" y2="534.744"/>
			<path fill="#5454F4" d="M178.142,532c-0.097,0-0.193,0-0.294,0c-2.861,0-5.057-3.664-4.894-6.525l1.445-26.645
				c0.157-2.86,2.45-5.306,5.473-5.158c2.861,0.162,5.057,2.478,4.894,5.343l-1.445,27.102C183.168,528.88,180.881,532,178.142,532z
				 M181.032,477.673c-0.095,0-0.192-0.005-0.293-0.01c-2.861-0.162-5.057-2.606-4.895-5.473l1.445-26.117
				c0.158-2.87,2.47-5.042,5.473-4.899c2.86,0.157,5.057,2.607,4.895,5.468l-1.445,26.122
				C186.06,475.533,183.772,477.673,181.032,477.673z M183.929,423c-0.096,0-0.192,0-0.293,0c-2.861,0-5.057-1.396-4.896-4.258
				l1.445-25.516c0.157-2.861,2.48-4.733,5.473-4.602c2.861,0.162,5.057,2.77,4.895,5.635l-1.445,24.974
				C188.956,421.998,186.668,423,183.929,423z"/>
		</g>
	</g>
	<polygon fill="#FFFFFF" points="482.491,519.955 479.26,521.263 479.58,523.424 482.806,522.116 	"/>
	<g>
		<path fill="#5454F4" d="M675.618,401.347c-1.089,0.164-2.095,0.879-3.013,2.131c-0.688,0.944-0.974,1.816-0.847,2.638
			c1.086-0.167,1.922-0.152,2.51,0.03c0.31,0.233,1.244-0.051,2.79-0.847c-0.542,0.086-0.878-0.279-1.004-1.101L675.618,401.347z"/>
		<path fill="#5454F4" d="M562.65,240.266c-2.504-0.522-2.986,0.315-1.435,2.496l1.335-0.203c1.779-0.274,3.043-0.923,3.794-1.948
			C565.156,240.794,563.925,240.682,562.65,240.266z"/>
		<path fill="#5454F4" d="M638.494,328.101c-0.668-0.736,0.534,0.755,3.607,4.459c0.831,1.826,2.059,3.444,3.673,4.869
			c-0.088-0.543-0.209-1.359-0.376-2.45c-0.168-1.085-0.355-2.307-0.562-3.671c-0.422-2.719-1.143-4.697-2.168-5.935
			C641.788,326.904,640.398,327.811,638.494,328.101z"/>
		
			<rect x="624.453" y="320.876" transform="matrix(0.1512 0.9885 -0.9885 0.1512 850.7287 -346.5141)" fill="#5454F4" width="5.367" height="2.479"/>
		<path fill="#5454F4" d="M633.027,344.184c-0.427,0.904-0.588,1.624-0.507,2.161c1.09-0.162,1.785-0.132,2.104,0.103
			c0.623,0.461,1.416,0.197,2.384-0.788c-0.897-0.415-1.709-1.125-2.412-2.134c-0.17-1.085-0.53-1.592-1.067-1.506
			C633.068,342.647,632.901,343.368,633.027,344.184z"/>
		<path fill="#5454F4" d="M581.719,328.248c-1.097,0.161-2.096,0.877-3.014,2.13c-0.695,0.943-0.974,1.815-0.853,2.637
			c1.086-0.173,1.922-0.158,2.511,0.03c0.314,0.233,1.247-0.051,2.794-0.842c-0.547,0.081-0.876-0.284-1.003-1.106L581.719,328.248z
			"/>
		
			<rect x="636.666" y="499.127" transform="matrix(-0.3103 0.9506 -0.9506 -0.3103 1311.2163 48.2328)" fill="#5454F4" width="2.892" height="1.235"/>
		<path fill="#5454F4" d="M560.39,355.323c-0.422,0.898-0.583,1.623-0.503,2.161c1.085-0.163,1.786-0.131,2.105,0.097
			c0.623,0.461,1.414,0.198,2.384-0.787c-0.897-0.411-1.709-1.125-2.414-2.13c-0.168-1.085-0.527-1.592-1.072-1.511
			C560.43,353.781,560.267,354.5,560.39,355.323z"/>
		<path fill="#5454F4" d="M645.961,338.651c0.817-0.126,1.912-1.132,3.297-3.013c0.792-2.064,2.141-3.251,4.048-3.545
			c-4.017-0.771-6.842-1.034-8.469-0.786L645.961,338.651z"/>
		<path fill="#5454F4" d="M650.851,419.13c0.816-0.122,1.912-1.126,3.297-3.007c0.792-2.069,2.142-3.251,4.048-3.546
			c-4.017-0.771-6.837-1.034-8.471-0.791L650.851,419.13z"/>
		<path fill="#5454F4" d="M651.002,370.498c0.818-0.122,1.917-1.126,3.303-3.013c0.792-2.064,2.141-3.246,4.048-3.54
			c-4.016-0.771-6.842-1.045-8.475-0.791L651.002,370.498z"/>
		<path fill="#5454F4" d="M641.635,408.225c0.817-0.121,1.918-1.125,3.298-3.012c0.795-2.069,2.145-3.251,4.052-3.541
			c-4.018-0.771-6.843-1.045-8.476-0.792L641.635,408.225z"/>
		<path fill="#5454F4" d="M674.578,309.83c-2.303-0.481-2.743,0.285-1.319,2.288l1.229-0.183c1.632-0.253,2.789-0.853,3.485-1.791
			C676.875,310.313,675.75,310.211,674.578,309.83z"/>
		<path fill="#5454F4" d="M570.599,286.585c1.776,2.515,3.485,3.642,5.118,3.393c1.354-0.208,1.998-0.583,1.912-1.131
			c-0.121-0.812,0.356-1.309,1.446-1.471c0.146-0.862-0.137-1.786-0.847-2.795c-1.065-1.506-2.228-2.713-3.479-3.646
			C573.9,282.74,572.521,284.617,570.599,286.585z"/>
		<path fill="#5454F4" d="M583.752,312.058c-0.42,0.902-0.584,1.632-0.502,2.17c1.086-0.167,1.785-0.131,2.104,0.092
			c0.618,0.466,1.416,0.202,2.384-0.782c-0.897-0.416-1.71-1.125-2.414-2.135c-0.167-1.09-0.526-1.587-1.064-1.506
			C583.792,310.526,583.63,311.246,583.752,312.058z"/>
		<path fill="#5454F4" d="M647.522,490.698c-2.302-0.486-2.743,0.283-1.316,2.287l1.22-0.187c1.635-0.255,2.796-0.843,3.486-1.786
			C649.822,491.181,648.689,491.073,647.522,490.698z"/>
		<path fill="#5454F4" d="M630.162,437.391c-1.258,2.698-3.425,2.201-6.498-1.507c-0.568,5.381,0.568,10.078,3.413,14.095
			c0.544-0.086,2.293-2.303,5.25-6.654c3.349,0.052,5.134,1.72,5.362,5.026c0.202,4.981,0.354,7.745,0.436,8.283
			c0.537-0.081,1.273-0.74,2.197-2.003c0.922-1.252,1.748-2.217,2.479-2.887c-2.03-4.145-5.153-10.904-9.373-20.278
			C632.049,433.343,630.959,435.326,630.162,437.391z"/>
		<polygon fill="#5454F4" points="659.488,410.76 658.865,406.684 657.231,406.927 657.86,411.016 		"/>
		<polygon fill="#5454F4" points="637.836,411.158 635.48,404 633.85,404.249 636.607,411.344 		"/>
		<polygon fill="#5454F4" points="681.512,377.315 681.07,374.455 679.848,374.647 680.284,377.498 		"/>
		<path fill="#5454F4" d="M646.515,477.298c-0.787,0.618-1.26,1.187-1.425,1.704c1.045,0.346,1.652,0.689,1.83,1.034
			c0.349,0.695,1.177,0.817,2.485,0.376c-0.619-0.771-1.02-1.774-1.197-2.992c0.341-1.045,0.249-1.658-0.274-1.826
			C647.24,475.948,646.769,476.517,646.515,477.298z"/>
		<path fill="#5454F4" d="M691.636,410.071c-1.744-0.365-2.075,0.213-0.999,1.725l0.923-0.142c1.233-0.184,2.11-0.639,2.634-1.35
			C693.366,410.438,692.519,410.355,691.636,410.071z"/>
		<path fill="#5454F4" d="M636.889,421.326c1.773,2.516,3.482,3.642,5.112,3.394c1.354-0.208,1.997-0.583,1.918-1.127
			c-0.129-0.821,0.349-1.308,1.444-1.479c0.142-0.853-0.143-1.78-0.849-2.791c-1.063-1.51-2.229-2.718-3.482-3.641
			C640.189,417.477,638.81,419.363,636.889,421.326z"/>
		<polygon fill="#5454F4" points="690.166,395.615 692.707,393.141 691.581,391.224 689.033,393.698 		"/>
		<polygon fill="#5454F4" points="714.983,345.036 712.635,337.875 711.002,338.128 713.761,345.219 		"/>
		<path fill="#5454F4" d="M62.507,434.576c0.411,2.672,1.881,4.757,4.428,6.264c-1.217,4.393-1.562,8.333-1.025,11.822l0.705,4.621
			c0.918,0.492,2.303,0.598,4.149,0.314c0.822-0.127,1.694-0.265,2.622-0.406c0.923-0.141,1.897-0.289,2.926-0.446
			c0.335-1.947,0.563-3.875,0.69-5.781c0.218-1.299,0.208-2.764-0.045-4.414l-0.71-4.62l-2.769,0.426
			c-0.766,0.543-1.212,2.395-1.355,5.569l-2.465,0.38l-2.252-4.387c0.218-1.294,0.68-2.414,1.375-3.362
			c0.345-0.472,0.69-1,1.025-1.583c0.33-0.568,0.756-1.217,1.278-1.928c-0.03-0.202-0.319-0.68-0.852-1.445
			c-1.344-1.893-1.866-2.551-1.562-1.969L62.507,434.576z"/>
		<polygon fill="#5454F4" points="704.17,345.959 711.088,339.224 708.02,334.01 701.096,340.756 		"/>
		<path fill="#5454F4" d="M571.122,446.403c-1.096,0.168-2.095,0.879-3.019,2.136c-0.689,0.938-0.968,1.814-0.847,2.632
			c1.085-0.166,1.923-0.152,2.51,0.036c0.315,0.232,1.249-0.052,2.795-0.848c-0.542,0.086-0.878-0.284-1.004-1.101L571.122,446.403z
			"/>
		<path fill="#5454F4" d="M668.888,386.724c1.775,2.522,3.485,3.643,5.118,3.394c1.354-0.207,1.997-0.583,1.912-1.125
			c-0.122-0.822,0.355-1.31,1.446-1.476c0.146-0.858-0.138-1.787-0.848-2.797c-1.065-1.511-2.228-2.717-3.481-3.642
			C672.193,382.874,670.81,384.762,668.888,386.724z"/>
		<path fill="#5454F4" d="M698.869,388.363c-1.096,0.167-2.101,0.883-3.019,2.131c-0.69,0.942-0.972,1.82-0.848,2.637
			c1.088-0.162,1.925-0.152,2.513,0.029c0.309,0.24,1.241-0.044,2.795-0.842c-0.548,0.081-0.883-0.283-1.006-1.1L698.869,388.363z"
			/>
		<path fill="#5454F4" d="M661.741,315.121c-0.671-0.736,0.534,0.75,3.606,4.453c0.832,1.827,2.059,3.45,3.672,4.869
			c-0.08-0.537-0.208-1.354-0.375-2.444s-0.355-2.313-0.564-3.678c-0.414-2.714-1.135-4.691-2.165-5.93
			C665.033,313.924,663.643,314.827,661.741,315.121z"/>
		<polygon fill="#5454F4" points="652.012,311.601 651.2,306.295 648.752,306.671 649.569,311.977 		"/>
		<path fill="#5454F4" d="M656.272,331.2c-0.42,0.903-0.588,1.628-0.501,2.166c1.086-0.167,1.779-0.132,2.1,0.097
			c0.624,0.466,1.42,0.202,2.389-0.781c-0.903-0.416-1.71-1.126-2.419-2.141c-0.161-1.085-0.528-1.587-1.065-1.501
			C656.313,329.667,656.146,330.389,656.272,331.2z"/>
		<path fill="#5454F4" d="M604.962,315.263c-1.095,0.163-2.093,0.883-3.011,2.13c-0.69,0.944-0.975,1.821-0.848,2.637
			c1.081-0.166,1.917-0.152,2.507,0.031c0.313,0.238,1.246-0.051,2.794-0.842c-0.544,0.082-0.878-0.284-1.006-1.101L604.962,315.263
			z"/>
		<path fill="#5454F4" d="M583.641,342.338c-0.422,0.903-0.59,1.623-0.508,2.166c1.09-0.167,1.785-0.132,2.105,0.097
			c0.624,0.461,1.419,0.198,2.389-0.787c-0.904-0.411-1.716-1.126-2.42-2.135c-0.166-1.084-0.526-1.593-1.064-1.506
			C583.681,340.806,583.513,341.522,583.641,342.338z"/>
		<path fill="#5454F4" d="M669.207,325.671c0.816-0.132,1.912-1.131,3.296-3.012c0.798-2.07,2.143-3.257,4.054-3.546
			c-4.021-0.771-6.842-1.04-8.477-0.785L669.207,325.671z"/>
		<path fill="#5454F4" d="M674.098,406.15c0.815-0.126,1.911-1.131,3.295-3.007c0.798-2.069,2.141-3.257,4.054-3.552
			c-4.021-0.771-6.842-1.034-8.476-0.786L674.098,406.15z"/>
		<path fill="#5454F4" d="M684.94,368.358c0.815-0.121,1.918-1.127,3.298-3.008c0.795-2.064,2.141-3.252,4.052-3.546
			c-4.021-0.771-6.843-1.039-8.477-0.791L684.94,368.358z"/>
		<path fill="#5454F4" d="M654.827,391.087c0.817-0.126,1.918-1.126,3.298-3.008c0.795-2.069,2.14-3.258,4.052-3.545
			c-4.021-0.771-6.843-1.041-8.477-0.792L654.827,391.087z"/>
		<path fill="#5454F4" d="M610.042,293.6c1.773,2.521,3.482,3.646,5.11,3.394c1.36-0.209,2-0.583,1.918-1.127
			c-0.126-0.821,0.349-1.309,1.445-1.475c0.143-0.857-0.142-1.787-0.847-2.795c-1.064-1.507-2.227-2.719-3.479-3.643
			C613.343,289.75,611.963,291.638,610.042,293.6z"/>
		<path fill="#5454F4" d="M607.001,299.078c-0.419,0.903-0.587,1.629-0.507,2.166c1.087-0.167,1.786-0.131,2.105,0.096
			c0.623,0.462,1.421,0.198,2.384-0.786c-0.897-0.416-1.709-1.126-2.413-2.13c-0.169-1.085-0.528-1.592-1.066-1.512
			C607.042,297.541,606.876,298.261,607.001,299.078z"/>
		<path fill="#5454F4" d="M551.894,634.24c-0.326,0.497-0.481,0.914-0.477,1.238c0.653-0.011,1.064,0.071,1.237,0.227
			c0.33,0.33,0.821,0.239,1.475-0.269c-0.497-0.314-0.918-0.801-1.252-1.46c-0.01-0.654-0.183-0.984-0.508-0.979
			C552.046,633.332,551.889,633.742,551.894,634.24z"/>
		<path fill="#5454F4" d="M529.932,613.688c-0.63-0.207-1.354-0.096-2.182,0.324c-0.624,0.314-1.009,0.713-1.162,1.179
			c0.624,0.202,1.065,0.435,1.329,0.694c0.103,0.207,0.681,0.309,1.72,0.299c-0.313-0.102-0.395-0.385-0.243-0.857L529.932,613.688z
			"/>
		<path fill="#5454F4" d="M598.146,608.149c0.269,1.824,0.878,2.88,1.815,3.185c0.781,0.254,1.223,0.233,1.328-0.082
			c0.152-0.471,0.539-0.607,1.169-0.398c0.303-0.424,0.404-0.99,0.298-1.722c-0.161-1.09-0.456-2.048-0.878-2.88
			C600.945,606.987,599.705,607.622,598.146,608.149z"/>
		<path fill="#5454F4" d="M529.83,564.62c-0.158-0.568,0.079,0.548,0.725,3.347c-0.047,1.198,0.172,2.395,0.649,3.585
			c0.103-0.308,0.254-0.773,0.462-1.403c0.202-0.629,0.431-1.328,0.685-2.11c0.512-1.562,0.658-2.815,0.441-3.754
			C531.91,564.863,530.926,564.976,529.83,564.62z"/>
		
			<rect x="523.775" y="557.631" transform="matrix(-0.3095 0.9509 -0.9509 -0.3095 1218.9315 231.582)" fill="#5454F4" width="3.212" height="1.482"/>
		<path fill="#5454F4" d="M522.588,571.731c-0.468,0.364-0.751,0.71-0.854,1.014c0.623,0.203,0.99,0.417,1.097,0.619
			c0.207,0.416,0.704,0.485,1.485,0.223c-0.371-0.46-0.609-1.055-0.716-1.784c0.203-0.631,0.148-0.995-0.161-1.097
			C523.021,570.919,522.739,571.259,522.588,571.731z"/>
		<path fill="#5454F4" d="M499.503,549.425c-0.628-0.209-1.354-0.098-2.182,0.323c-0.623,0.313-1.009,0.711-1.16,1.178
			c0.618,0.201,1.065,0.436,1.329,0.689c0.101,0.213,0.674,0.313,1.719,0.304c-0.314-0.101-0.396-0.385-0.242-0.857L499.503,549.425
			z"/>
		<path fill="#5454F4" d="M624.323,574.004c0.467,0.151,1.325-0.092,2.566-0.72c0.98-0.894,2.019-1.157,3.115-0.802
			c-1.938-1.491-3.368-2.396-4.307-2.698L624.323,574.004z"/>
		<path fill="#5454F4" d="M613.682,569.236c-1.1-0.872-1.541-0.585-1.324,0.871l0.705,0.225c0.939,0.309,1.72,0.302,2.339-0.012
			C614.774,570.117,614.199,569.754,613.682,569.236z"/>
		<path fill="#5454F4" d="M634.509,482.877c0.269,1.821,0.876,2.882,1.815,3.186c0.775,0.254,1.222,0.228,1.324-0.086
			c0.152-0.472,0.544-0.604,1.167-0.401c0.309-0.415,0.405-0.983,0.303-1.714c-0.165-1.09-0.46-2.05-0.878-2.882
			C637.303,481.711,636.062,482.35,634.509,482.877z"/>
		<polygon fill="#5454F4" points="603.063,544.504 605.085,543.865 605,542.541 602.976,543.18 		"/>
		<polygon fill="#5454F4" points="629.913,524.195 630.583,519.746 629.644,519.442 629.207,523.972 		"/>
		<path fill="#5454F4" d="M577.948,547.222c0.468,0.152,1.325-0.091,2.567-0.719c0.979-0.894,2.019-1.162,3.114-0.802
			c-1.938-1.492-3.367-2.399-4.306-2.704L577.948,547.222z"/>
		<path fill="#5454F4" d="M634.093,481.446c-1.095-0.876-1.543-0.588-1.318,0.863l0.705,0.233c0.938,0.304,1.72,0.298,2.337-0.015
			C635.189,482.319,634.615,481.964,634.093,481.446z"/>
		<polygon fill="#5454F4" points="556.687,517.723 558.711,517.083 558.623,515.755 556.601,516.394 		"/>
		<path fill="#5454F4" d="M572.384,509.343c-1.395,1.107-2.413,0.254-3.056-2.551c-1.752,2.719-2.411,5.534-1.975,8.436
			c0.31,0.101,1.842-0.609,4.591-2.131c1.774,0.923,2.277,2.293,1.512,4.119c-1.234,2.713-1.898,4.23-1.999,4.54
			c0.31,0.101,0.878-0.056,1.709-0.482c0.832-0.415,1.532-0.71,2.104-0.872c0.031-2.754,0.184-7.203,0.452-13.341
			C574.479,507.694,573.363,508.456,572.384,509.343z"/>
		<polygon fill="#5454F4" points="595.199,503.029 595.96,500.681 595.021,500.376 594.261,502.72 		"/>
		<polygon fill="#5454F4" points="583.538,497.413 584.208,492.961 583.27,492.656 582.834,497.185 		"/>
		<polygon fill="#5454F4" points="615.945,491.108 616.478,489.471 615.778,489.237 615.24,490.881 		"/>
		<path fill="#5454F4" d="M480.837,558.127c-0.466,0.367-0.751,0.712-0.847,1.02c0.624,0.203,0.984,0.411,1.096,0.614
			c0.209,0.415,0.699,0.493,1.481,0.224c-0.364-0.456-0.608-1.057-0.715-1.785c0.202-0.623,0.147-0.994-0.163-1.092
			C481.275,557.315,480.99,557.661,480.837,558.127z"/>
		<path fill="#5454F4" d="M582.575,560.399c0.466,0.152,1.323-0.087,2.565-0.721c0.984-0.888,2.02-1.155,3.115-0.801
			c-1.933-1.491-3.369-2.395-4.307-2.698L582.575,560.399z"/>
		<path fill="#5454F4" d="M571.934,555.638c-1.102-0.878-1.542-0.583-1.319,0.866l0.7,0.229c0.938,0.31,1.72,0.299,2.344-0.016
			C573.029,556.515,572.456,556.154,571.934,555.638z"/>
		<path fill="#5454F4" d="M525.971,530.281c0.267,1.826,0.877,2.88,1.815,3.19c0.781,0.254,1.222,0.229,1.328-0.086
			c0.152-0.472,0.538-0.603,1.166-0.402c0.31-0.418,0.407-0.987,0.3-1.719c-0.163-1.085-0.456-2.048-0.877-2.88
			C528.77,529.12,527.526,529.754,525.971,530.281z"/>
		<polygon fill="#5454F4" points="561.313,530.9 563.336,530.268 563.25,528.941 561.226,529.582 		"/>
		<path fill="#5454F4" d="M542.505,541.598c-1.396,1.101-2.414,0.249-3.059-2.553c-1.75,2.72-2.409,5.53-1.969,8.438
			c0.31,0.101,1.836-0.609,4.586-2.137c1.774,0.924,2.277,2.298,1.511,4.124c-1.231,2.713-1.896,4.226-1.997,4.54
			c0.31,0.1,0.881-0.062,1.713-0.482c0.828-0.421,1.527-0.71,2.101-0.873c0.029-2.754,0.184-7.206,0.457-13.344
			C544.6,539.948,543.489,540.71,542.505,541.598z"/>
		
			<rect x="598.507" y="514.394" transform="matrix(-0.3103 0.9506 -0.9506 -0.3103 1275.2997 104.5058)" fill="#5454F4" width="2.464" height="0.986"/>
		<polygon fill="#5454F4" points="588.164,510.596 588.835,506.143 587.896,505.839 587.46,510.368 		"/>
		
			<rect x="619.622" y="502.986" transform="matrix(-0.3108 0.9505 -0.9505 -0.3108 1291.7599 70.0405)" fill="#5454F4" width="1.728" height="0.739"/>
		<path fill="#5454F4" d="M564.64,569.347c0.473,0.153,1.329-0.091,2.571-0.72c0.979-0.894,2.019-1.156,3.115-0.802
			c-1.938-1.491-3.374-2.394-4.313-2.699L564.64,569.347z"/>
		<path fill="#5454F4" d="M530.976,572.258c0.467,0.153,1.324-0.09,2.571-0.72c0.98-0.893,2.014-1.157,3.115-0.801
			c-1.938-1.491-3.372-2.396-4.312-2.699L530.976,572.258z"/>
		<path fill="#5454F4" d="M516.271,607.566c0.493-0.006,1.223-0.513,2.196-1.507c0.644-1.161,1.537-1.75,2.694-1.766
			c-2.313-0.79-3.962-1.183-4.952-1.166L516.271,607.566z"/>
		<path fill="#5454F4" d="M553.998,564.579c-1.101-0.872-1.541-0.583-1.317,0.872l0.704,0.224c0.939,0.309,1.715,0.305,2.338-0.011
			C555.095,565.457,554.521,565.097,553.998,564.579z"/>
		<path fill="#5454F4" d="M508.04,539.229c0.269,1.821,0.876,2.88,1.815,3.185c0.775,0.254,1.222,0.227,1.324-0.086
			c0.151-0.472,0.542-0.605,1.167-0.4c0.309-0.416,0.405-0.985,0.299-1.715c-0.162-1.091-0.456-2.049-0.874-2.881
			C510.834,538.062,509.591,538.701,508.04,539.229z"/>
		<path fill="#5454F4" d="M625.871,470.461c-1.401,1.105-2.42,0.253-3.063-2.553c-1.752,2.72-2.411,5.535-1.969,8.441
			c0.308,0.096,1.836-0.613,4.585-2.136c1.774,0.923,2.278,2.293,1.512,4.119c-1.233,2.718-1.898,4.23-1.998,4.539
			c0.309,0.102,0.881-0.056,1.713-0.481c0.827-0.416,1.527-0.711,2.1-0.873c0.031-2.749,0.183-7.203,0.456-13.339
			C627.966,468.812,626.851,469.573,625.871,470.461z"/>
		
			<rect x="372.21" y="552.215" transform="matrix(-0.3096 0.9509 -0.9509 -0.3096 1014.6108 368.7151)" fill="#5454F4" width="2.47" height="0.985"/>
		<polygon fill="#5454F4" points="602.641,513.238 603.173,511.595 602.474,511.362 601.936,513.006 		"/>
		<path fill="#5454F4" d="M504.94,541.333c-0.466,0.37-0.745,0.71-0.848,1.021c0.624,0.203,0.984,0.411,1.097,0.618
			c0.208,0.416,0.699,0.487,1.48,0.224c-0.364-0.467-0.607-1.061-0.714-1.791c0.206-0.624,0.146-0.989-0.164-1.09
			C505.378,540.527,505.098,540.862,504.94,541.333z"/>
		<path fill="#5454F4" d="M606.678,543.612c0.466,0.15,1.323-0.092,2.566-0.721c0.982-0.894,2.02-1.162,3.113-0.802
			c-1.932-1.49-3.367-2.395-4.306-2.703L606.678,543.612z"/>
		<path fill="#5454F4" d="M596.035,538.843c-1.101-0.873-1.541-0.587-1.316,0.867l0.699,0.229c0.938,0.305,1.719,0.305,2.343-0.014
			C597.131,539.722,596.559,539.359,596.035,538.843z"/>
		<path fill="#5454F4" d="M550.073,513.492c0.269,1.821,0.877,2.882,1.815,3.186c0.781,0.254,1.227,0.229,1.328-0.085
			c0.152-0.474,0.538-0.604,1.167-0.401c0.31-0.417,0.406-0.984,0.299-1.715c-0.162-1.095-0.457-2.05-0.876-2.882
			C552.872,512.326,551.63,512.96,550.073,513.492z"/>
		<polygon fill="#5454F4" points="585.415,514.111 587.438,513.472 587.353,512.144 585.329,512.782 		"/>
		<path fill="#5454F4" d="M601.113,505.732c-1.394,1.105-2.414,0.253-3.059-2.551c-1.75,2.718-2.409,5.533-1.967,8.435
			c0.309,0.102,1.836-0.608,4.584-2.13c1.774,0.923,2.277,2.292,1.513,4.117c-1.233,2.714-1.897,4.23-1.999,4.54
			c0.309,0.102,0.883-0.056,1.715-0.481c0.826-0.417,1.525-0.711,2.1-0.873c0.03-2.749,0.182-7.203,0.456-13.34
			C603.208,504.084,602.097,504.845,601.113,505.732z"/>
		
			<rect x="622.607" y="497.598" transform="matrix(-0.3093 0.951 -0.951 -0.3093 1290.4796 58.9245)" fill="#5454F4" width="2.469" height="0.986"/>
		<polygon fill="#5454F4" points="612.268,493.803 612.942,489.35 611.999,489.045 611.563,493.569 		"/>
		<path fill="#5454F4" d="M608.301,518.067c-0.466,0.366-0.752,0.711-0.852,1.014c0.623,0.204,0.989,0.417,1.096,0.62
			c0.208,0.415,0.705,0.487,1.486,0.223c-0.371-0.462-0.609-1.061-0.717-1.785c0.203-0.629,0.148-0.994-0.162-1.096
			C608.736,517.256,608.453,517.596,608.301,518.067z"/>
		<path fill="#5454F4" d="M585.218,495.755c-0.629-0.208-1.354-0.096-2.181,0.33c-0.625,0.315-1.01,0.71-1.167,1.177
			c0.63,0.203,1.07,0.437,1.335,0.689c0.1,0.214,0.675,0.31,1.719,0.305c-0.315-0.101-0.397-0.386-0.243-0.862L585.218,495.755z"/>
		<path fill="#5454F4" d="M607.033,469.396c-0.659,2.039-0.361,4.037,0.901,6.005c-2.428,2.668-4.071,5.336-4.94,7.989l-1.145,3.516
			c0.472,0.675,1.414,1.237,2.819,1.698c0.625,0.203,1.289,0.42,1.993,0.648c0.705,0.229,1.447,0.473,2.229,0.727
			c0.927-1.253,1.773-2.537,2.549-3.84c0.615-0.837,1.133-1.877,1.537-3.13l1.146-3.521l-2.108-0.688
			c-0.732,0.11-1.71,1.262-2.943,3.458l-1.875-0.613l-0.025-3.9c0.612-0.837,1.337-1.461,2.169-1.887
			c0.411-0.213,0.843-0.457,1.284-0.751c0.437-0.288,0.969-0.588,1.593-0.907c0.051-0.157,0.016-0.594-0.086-1.324
			c-0.274-1.815-0.411-2.47-0.405-1.947L607.033,469.396z"/>
		
			<rect x="514.293" y="626.901" transform="matrix(-0.3099 0.9508 -0.9508 -0.3099 1275.2185 330.9964)" fill="#5454F4" width="6.396" height="2.743"/>
		<polygon fill="#5454F4" points="504.185,641.717 506.676,625.231 503.2,624.095 501.576,640.864 		"/>
		<path fill="#5454F4" d="M612.87,592.7c-2.328-0.755-5.015-0.35-8.084,1.212c-2.303,1.168-3.739,2.623-4.301,4.361
			c2.306,0.751,3.95,1.614,4.924,2.567c0.386,0.775,2.512,1.146,6.366,1.116c-1.162-0.386-1.45-1.441-0.888-3.176L612.87,592.7z"/>
		<polygon fill="#5454F4" points="499.837,673.407 502.668,664.713 499.193,663.588 496.363,672.271 		"/>
		<polygon fill="#5454F4" points="435.751,699.736 438.235,683.247 434.763,682.12 433.145,698.891 		"/>
		<polygon fill="#5454F4" points="572.13,620.23 572.045,613.835 569.307,613.87 569.386,620.267 		"/>
		<polygon fill="#5454F4" points="343.778,542.606 346.268,526.118 342.794,524.986 341.176,541.756 		"/>
		
			<rect x="147.995" y="430.567" transform="matrix(-0.3102 0.9507 -0.9507 -0.3102 608.7217 422.1895)" fill="#5454F4" width="6.392" height="2.742"/>
		<polygon fill="#5454F4" points="562.448,634.063 559.491,617.655 555.838,617.7 559.705,634.098 		"/>
		<path fill="#5454F4" d="M691.798,286.919c-1.728,1.36-2.778,2.632-3.148,3.784c2.313,0.751,3.655,1.512,4.058,2.283
			c0.771,1.532,2.601,1.806,5.497,0.826c-1.365-1.709-2.257-3.925-2.646-6.629c0.755-2.313,0.542-3.662-0.604-4.037
			C693.412,283.927,692.366,285.185,691.798,286.919z"/>
		<path fill="#5454F4" d="M664.77,496.465c-2.419,0.371-4.642,1.953-6.676,4.722c-1.526,2.081-2.154,4.028-1.877,5.834
			c2.405-0.365,4.257-0.335,5.555,0.071c0.694,0.521,2.758-0.106,6.188-1.867c-1.212,0.184-1.949-0.628-2.222-2.435L664.77,496.465z
			"/>
		
			<rect x="516.333" y="660.659" transform="matrix(-0.3104 0.9506 -0.9506 -0.3104 1310.1233 373.6591)" fill="#5454F4" width="6.393" height="2.744"/>
		<polygon fill="#5454F4" points="136.398,420.338 138.381,414.251 135.774,413.403 133.796,419.484 		"/>
		<path fill="#5454F4" d="M570.889,630.699c-2.444,0.031-4.858,1.283-7.258,3.744c-1.805,1.855-2.693,3.691-2.674,5.518
			c2.436-0.03,4.267,0.254,5.494,0.842c0.613,0.613,2.749,0.274,6.386-0.994c-1.222,0.016-1.843-0.893-1.862-2.718L570.889,630.699z
			"/>
		<path fill="#5454F4" d="M671.733,423.066c-2.42,0.365-4.636,1.948-6.67,4.717c-1.527,2.085-2.157,4.028-1.876,5.833
			c2.403-0.366,4.254-0.334,5.554,0.076c0.693,0.522,2.758-0.106,6.183-1.871c-1.209,0.182-1.942-0.629-2.222-2.435L671.733,423.066
			z"/>
		<polygon fill="#5454F4" points="547.07,601.129 546.989,594.728 544.245,594.77 544.331,601.158 		"/>
		<polygon fill="#5454F4" points="703.352,302.545 705.841,286.055 702.368,284.929 700.744,301.698 		"/>
		
			<rect x="525.201" y="657.979" transform="matrix(-0.3098 0.9508 -0.9508 -0.3098 1319.0164 361.2228)" fill="#5454F4" width="6.402" height="2.742"/>
		<polygon fill="#5454F4" points="543.484,646.362 543.361,637.223 539.711,637.272 539.827,646.409 		"/>
		
			<rect x="614.482" y="595.774" transform="matrix(-0.3097 0.9508 -0.9508 -0.3097 1376.7726 194.7834)" fill="#5454F4" width="6.401" height="2.741"/>
		<path fill="#5454F4" d="M34.391,364.184c1.729-1.354-1.755,1.051-10.459,7.197c-4.17,1.522-7.948,3.947-11.367,7.264
			c1.208-0.09,3.028-0.223,5.468-0.406c2.425-0.183,5.158-0.391,8.202-0.618c6.066-0.456,10.555-1.704,13.461-3.754
			C36.47,371.655,34.705,368.429,34.391,364.184z"/>
		
			<rect x="543.372" y="627.802" transform="matrix(0.0127 0.9999 -0.9999 0.0127 1172.8008 73.2421)" fill="#5454F4" width="11.875" height="5.484"/>
		
			<rect x="567.951" y="597.819" transform="matrix(0.0132 0.9999 -0.9999 0.0132 1166.8528 18.8214)" fill="#5454F4" width="11.881" height="5.484"/>
		<polygon fill="#5454F4" points="541.644,496.379 543.718,482.654 540.826,481.711 539.479,495.673 		"/>
		
			<rect x="442.742" y="675.52" transform="matrix(-0.3104 0.9506 -0.9506 -0.3104 1227.826 463.1262)" fill="#5454F4" width="6.392" height="2.743"/>
		
			<rect x="465.884" y="685.723" transform="matrix(-0.3099 0.9508 -0.9508 -0.3099 1272.614 453.2298)" fill="#5454F4" width="11.88" height="5.483"/>
		<path fill="#5454F4" d="M444.373,657.166c-2.322-0.76-5.015-0.35-8.078,1.207c-2.304,1.177-3.738,2.627-4.306,4.367
			c2.312,0.752,3.954,1.612,4.929,2.567c0.38,0.775,2.511,1.141,6.365,1.109c-1.167-0.374-1.455-1.435-0.886-3.175L444.373,657.166z
			"/>
		<path fill="#5454F4" d="M598.232,447.169c-1.096,0.173-2.1,0.883-3.018,2.13c-0.69,0.944-0.975,1.827-0.848,2.638
			c1.085-0.161,1.924-0.151,2.511,0.035c0.311,0.239,1.248-0.044,2.794-0.846c-0.548,0.081-0.876-0.284-1.004-1.097L598.232,447.169
			z"/>
		<path fill="#5454F4" d="M616.117,577.412c-2.329-0.757-5.017-0.346-8.079,1.217c-2.304,1.166-3.739,2.622-4.308,4.362
			c2.314,0.751,3.951,1.612,4.932,2.567c0.38,0.774,2.51,1.145,6.365,1.11c-1.167-0.38-1.458-1.436-0.894-3.171L616.117,577.412z"/>
		<path fill="#5454F4" d="M647.522,542.059c-0.086,1.178,0.411,1.932,1.502,2.288c1.168,0.081,1.888-0.284,2.152-1.097
			L647.522,542.059z"/>
		<path fill="#5454F4" d="M662.076,526.346c0.452,1.085,1.237,1.531,2.368,1.358c1.081-0.447,1.557-1.099,1.431-1.947
			L662.076,526.346z"/>
		<polygon fill="#5454F4" points="674.472,503.029 671.475,493.904 669.396,494.229 672.909,503.268 		"/>
		
			<rect x="700.451" y="448.311" transform="matrix(0.1552 0.9879 -0.9879 0.1552 1035.2902 -313.5798)" fill="#5454F4" width="1.088" height="0.465"/>
		<polygon fill="#5454F4" points="677.577,482.461 679.697,480.393 678.752,478.8 676.633,480.863 		"/>
		<polygon fill="#5454F4" points="698.266,440.298 696.307,434.332 694.948,434.54 697.246,440.454 		"/>
		<path fill="#5454F4" d="M684.646,469c-1.918-0.401-2.287,0.238-1.096,1.907l1.02-0.152c1.36-0.213,2.328-0.711,2.905-1.491
			C686.563,469.405,685.626,469.314,684.646,469z"/>
		<path fill="#5454F4" d="M686.873,435.412c-0.35,0.75-0.486,1.354-0.42,1.806c0.905-0.142,1.49-0.111,1.755,0.081
			c0.517,0.385,1.182,0.162,1.986-0.659c-0.749-0.345-1.424-0.933-2.013-1.775c-0.138-0.903-0.44-1.329-0.887-1.258
			C686.909,434.134,686.767,434.732,686.873,435.412z"/>
		<path fill="#5454F4" d="M672.655,453.875c-0.558-0.608,0.448,0.629,3.008,3.718c0.695,1.522,1.715,2.87,3.06,4.058
			c-0.07-0.451-0.173-1.131-0.316-2.044c-0.136-0.903-0.291-1.923-0.466-3.06c-0.35-2.267-0.948-3.915-1.804-4.945
			C675.399,452.875,674.243,453.632,672.655,453.875z"/>
		<polygon fill="#5454F4" points="671.16,473.849 669.197,467.884 667.837,468.092 670.135,474.005 		"/>
		<polygon fill="#5454F4" points="690.536,463.025 688.577,457.061 687.219,457.273 689.517,463.187 		"/>
		<polygon fill="#5454F4" points="693.157,435.381 691.201,429.417 689.841,429.625 692.139,435.538 		"/>
		<polygon fill="#5454F4" points="557.437,568.186 564.578,561.77 563.448,559.994 556.591,566.854 		"/>
		<polygon fill="#5454F4" points="617.654,571.021 618.572,570.438 618.319,570.048 617.401,570.624 		"/>
		<path fill="#5454F4" d="M653.412,535.354c0.172,0.273,0.706,0.507,1.593,0.704c0.867-0.04,1.503,0.26,1.908,0.894
			c-0.356-1.558-0.706-2.612-1.051-3.16L653.412,535.354z"/>
		<polygon fill="#5454F4" points="577.514,562.748 580.257,563.859 581.342,562.356 578.594,561.242 		"/>
		<polygon fill="#5454F4" points="624.439,564.717 629.111,560.521 628.37,559.36 623.888,563.843 		"/>
		
			<rect x="658.188" y="512.599" transform="matrix(-0.8437 0.5369 -0.5369 -0.8437 1493.0151 592.2386)" fill="#5454F4" width="4.186" height="1.793"/>
		<path fill="#5454F4" d="M592.684,563.809c-0.405-1.922-1.143-2.004-2.191-0.243l0.552,0.87c0.743,1.164,1.583,1.849,2.532,2.061
			C593.085,565.721,592.784,564.822,592.684,563.809z"/>
		<path fill="#5454F4" d="M624.323,552.319c-0.826-0.014-1.435,0.097-1.821,0.345c0.492,0.771,0.7,1.314,0.636,1.64
			c-0.148,0.629,0.323,1.146,1.398,1.553c0.011-0.823,0.285-1.681,0.817-2.558c0.771-0.493,1.034-0.934,0.791-1.319
			C625.511,551.839,624.906,551.95,624.323,552.319z"/>
		<polygon fill="#5454F4" points="655.091,523.069 661.648,518.9 659.721,515.871 653.169,520.041 		"/>
		<path fill="#5454F4" d="M601.698,546.735c0.333-0.755-0.396,0.664-2.192,4.25c-1.111,1.248-1.938,2.729-2.479,4.433
			c0.386-0.242,0.963-0.606,1.743-1.105c0.771-0.491,1.645-1.045,2.613-1.662c1.933-1.229,3.2-2.445,3.798-3.643
			C603.721,548.846,602.559,548.096,601.698,546.735z"/>
		<polygon fill="#5454F4" points="582.813,553.404 587.485,549.21 586.744,548.049 582.256,552.538 		"/>
		<polygon fill="#5454F4" points="600.521,566.791 605.191,562.592 604.452,561.435 599.962,565.919 		"/>
		<path fill="#5454F4" d="M639.234,557.601c0.336-0.762-0.395,0.659-2.189,4.249c-1.112,1.25-1.938,2.725-2.482,4.435
			c0.383-0.245,0.966-0.615,1.74-1.105c0.776-0.497,1.645-1.045,2.618-1.665c1.934-1.231,3.2-2.444,3.799-3.64
			C641.255,559.709,640.098,558.956,639.234,557.601z"/>
		
			<rect x="646.896" y="557.944" transform="matrix(-0.8436 0.537 -0.537 -0.8436 1496.5674 681.7389)" fill="#5454F4" width="4.186" height="1.797"/>
		<path fill="#5454F4" d="M645.281,537.6c-0.856-1.353-2.384-2.261-4.58-2.754c-1.648-0.364-2.977-0.227-3.987,0.417
			c0.853,1.338,1.325,2.454,1.421,3.347c-0.132,0.548,0.791,1.619,2.749,3.205c-0.431-0.674-0.137-1.328,0.872-1.968L645.281,537.6z
			"/>
		<polygon fill="#5454F4" points="626.88,558.066 631.552,553.866 630.816,552.71 626.326,557.195 		"/>
		
			<rect x="643.752" y="513.389" transform="matrix(-0.8439 0.5365 -0.5365 -0.8439 1470.5779 602.4529)" fill="#5454F4" width="7.772" height="3.586"/>
		
			<rect x="646.504" y="528.15" transform="matrix(-0.8433 0.5374 -0.5374 -0.8433 1479.2146 626.6914)" fill="#5454F4" width="3.511" height="1.619"/>
		<path fill="#5454F4" d="M619.651,353.558c-0.634-0.963-1.47-1.248-2.521-0.872c-0.953,0.628-1.293,1.344-1.014,2.13
			L619.651,353.558z"/>
		
			<rect x="584.966" y="384.82" transform="matrix(-0.3354 -0.9421 0.9421 -0.3354 421.1277 1068.7695)" fill="#5454F4" width="5.135" height="2.054"/>
		<polygon fill="#5454F4" points="612.068,378.193 616.624,386.385 618.562,385.695 613.521,377.676 		"/>
		<polygon fill="#5454F4" points="599.536,360.354 597.015,363.985 598.842,366.056 601.366,362.435 		"/>
		<polygon fill="#5454F4" points="596.305,434.9 596.665,435.898 597.093,435.747 596.736,434.742 		"/>
		<polygon fill="#5454F4" points="612.891,398.486 611.236,400.86 612.435,402.216 614.089,399.846 		"/>
		<polygon fill="#5454F4" points="382.388,669.147 386.12,675.853 387.703,675.288 383.58,668.72 		"/>
		<polygon fill="#5454F4" points="596.31,412.435 594.658,414.809 595.853,416.168 597.507,413.795 		"/>
		<path fill="#5454F4" d="M608.596,412.699c1.912,0.029,2.15-0.654,0.699-2.04L608.347,411c-1.268,0.451-2.106,1.105-2.511,1.963
			C606.682,412.663,607.6,412.572,608.596,412.699z"/>
		<path fill="#5454F4" d="M622.885,424.982c0.646,0.483-0.544-0.521-3.573-3.012c-0.941-1.328-2.17-2.435-3.682-3.322
			c0.152,0.421,0.377,1.05,0.68,1.902c0.301,0.842,0.64,1.79,1.014,2.846c0.753,2.104,1.633,3.575,2.644,4.407
			C620.438,426.443,621.407,425.511,622.885,424.982z"/>
		<polygon fill="#5454F4" points="620.631,405.558 623.613,410.914 624.877,410.468 621.584,405.218 		"/>
		<polygon fill="#5454F4" points="604.049,419.506 607.033,424.867 608.295,424.415 605.004,419.171 		"/>
		<g>
			<path fill="#5454F4" d="M631.805,184.462c-1.394-0.355-2.414,0.091-3.068,1.318c-0.344,1.39-0.057,2.333,0.861,2.825
				L631.805,184.462z"/>
			<polygon fill="#5454F4" points="625.933,241.068 631.612,244.085 632.819,241.808 627.139,238.795 			"/>
			<polygon fill="#5454F4" points="645.601,213.643 656.729,217.37 657.937,215.098 646.504,211.938 			"/>
			<polygon fill="#5454F4" points="618.946,207.733 619.679,213.222 623.122,213.591 622.396,208.108 			"/>
			
				<rect x="678.962" y="279.156" transform="matrix(-0.8816 -0.472 0.472 -0.8816 1146.9182 846.5621)" fill="#5454F4" width="1.333" height="0.574"/>
			<polygon fill="#5454F4" points="663.49,231.714 663.969,235.301 666.22,235.544 665.742,231.958 			"/>
			<polygon fill="#5454F4" points="689.704,282.802 696.981,285.236 697.773,283.754 690.297,281.686 			"/>
			<polygon fill="#5454F4" points="659.939,258.612 660.417,262.198 662.669,262.442 662.192,258.861 			"/>
			<path fill="#5454F4" d="M671.519,248.483c1.798-1.593,1.437-2.425-1.069-2.475l-0.588,1.116c-0.791,1.482-1.015,2.8-0.664,3.936
				C669.725,250.065,670.495,249.203,671.519,248.483z"/>
			<path fill="#5454F4" d="M695.105,247.773c1.01-0.102-0.938-0.02-5.838,0.233c-1.998-0.431-4.068-0.416-6.214,0.036
				c0.493,0.259,1.233,0.654,2.231,1.182c0.984,0.527,2.102,1.121,3.343,1.78c2.476,1.314,4.529,1.933,6.163,1.847
				C694.081,251.191,694.188,249.507,695.105,247.773z"/>
			<polygon fill="#5454F4" points="676.622,231.714 683.9,234.15 684.693,232.668 677.216,230.599 			"/>
			<polygon fill="#5454F4" points="673.072,258.612 680.351,261.052 681.142,259.565 673.665,257.501 			"/>
		</g>
		<g>
			<path fill="#5454F4" d="M98.169,235.032c-1.268-0.325-2.191,0.081-2.789,1.197c-0.315,1.268-0.051,2.125,0.786,2.567
				L98.169,235.032z"/>
			<path fill="#5454F4" d="M49.867,247.777c-1.395-0.35-2.409,0.092-3.069,1.325c-0.345,1.389-0.055,2.333,0.868,2.825
				L49.867,247.777z"/>
			
				<rect x="44.223" y="303.472" transform="matrix(-0.8834 -0.4686 0.4686 -0.8834 -53.4614 596.216)" fill="#5454F4" width="6.43" height="2.573"/>
			<polygon fill="#5454F4" points="63.664,276.958 74.792,280.692 76,278.418 64.572,275.253 			"/>
			<polygon fill="#5454F4" points="37.014,271.055 37.74,276.537 41.183,276.908 40.458,271.424 			"/>
			
				<rect x="97.029" y="342.48" transform="matrix(-0.883 -0.4694 0.4694 -0.883 23.043 691.2742)" fill="#5454F4" width="1.327" height="0.569"/>
			<polygon fill="#5454F4" points="81.553,295.035 82.03,298.616 84.282,298.86 83.81,295.278 			"/>
			<polygon fill="#5454F4" points="107.766,346.117 115.05,348.557 115.835,347.071 108.36,345.006 			"/>
			<polygon fill="#5454F4" points="78.003,321.933 78.479,325.519 80.73,325.762 80.26,322.176 			"/>
			<path fill="#5454F4" d="M89.583,311.799c1.795-1.588,1.436-2.419-1.071-2.471l-0.588,1.116c-0.791,1.481-1.015,2.794-0.665,3.937
				C87.787,313.381,88.558,312.524,89.583,311.799z"/>
			<path fill="#5454F4" d="M113.168,311.094c1.009-0.101-0.938-0.021-5.838,0.233c-2-0.436-4.068-0.416-6.214,0.03
				c0.492,0.264,1.238,0.66,2.231,1.187c0.989,0.527,2.101,1.116,3.343,1.776c2.476,1.318,4.53,1.932,6.163,1.846
				C112.143,314.512,112.25,312.829,113.168,311.094z"/>
			<polygon fill="#5454F4" points="94.685,295.035 101.963,297.47 102.755,295.983 95.279,293.918 			"/>
			<polygon fill="#5454F4" points="91.135,321.933 98.413,324.373 99.204,322.881 91.728,320.817 			"/>
		</g>
	</g>
	<path fill="#5454F4" d="M551.211,649.865c-1.658-0.416-2.865,0.106-3.642,1.572c-0.416,1.649-0.071,2.771,1.025,3.353
		L551.211,649.865z"/>
	<g>
		<path fill="#5454F4" d="M575.688,544.401c-1.229-0.304-2.12,0.082-2.693,1.168c-0.306,1.218-0.051,2.049,0.755,2.476
			L575.688,544.401z"/>
		<path fill="#5454F4" d="M529.039,556.717c-1.35-0.334-2.329,0.093-2.963,1.279c-0.335,1.344-0.057,2.258,0.832,2.729
			L529.039,556.717z"/>
		
			<rect x="523.587" y="610.501" transform="matrix(-0.883 -0.4695 0.4695 -0.883 704.546 1399.1492)" fill="#5454F4" width="6.211" height="2.487"/>
		<polygon fill="#5454F4" points="542.362,584.903 553.111,588.5 554.277,586.309 543.235,583.254 		"/>
		<polygon fill="#5454F4" points="516.621,579.196 517.327,584.491 520.649,584.853 519.949,579.553 		"/>
		<polygon fill="#5454F4" points="559.639,602.357 560.101,605.816 562.275,606.054 561.813,602.591 		"/>
		<polygon fill="#5454F4" points="556.211,628.336 556.67,631.796 558.848,632.033 558.386,628.57 		"/>
		<path fill="#5454F4" d="M567.394,618.546c1.735-1.53,1.385-2.332-1.034-2.388l-0.569,1.08c-0.765,1.431-0.979,2.699-0.644,3.795
			C565.66,620.08,566.403,619.248,567.394,618.546z"/>
		<path fill="#5454F4" d="M590.172,617.868c0.971-0.103-0.912-0.021-5.64,0.223c-1.933-0.416-3.931-0.407-5.999,0.03
			c0.476,0.253,1.191,0.639,2.15,1.146c0.958,0.509,2.032,1.076,3.23,1.715c2.389,1.268,4.372,1.866,5.955,1.785
			C589.179,621.17,589.28,619.541,590.172,617.868z"/>
		<polygon fill="#5454F4" points="572.319,602.357 579.35,604.71 580.116,603.275 572.893,601.275 		"/>
		<polygon fill="#5454F4" points="568.89,628.336 575.92,630.69 576.686,629.248 569.464,627.256 		"/>
	</g>
	<g>
		<polygon fill="#5454F4" points="601.606,551.412 597.021,555.607 598.695,557.438 603.28,553.248 		"/>
		<polygon fill="#5454F4" points="620.19,578.188 613.195,587.11 614.874,588.94 621.447,579.563 		"/>
		<polygon fill="#5454F4" points="634.194,555.851 628.965,554.739 627.515,557.751 632.738,558.863 		"/>
		
			<rect x="548.662" y="587.577" transform="matrix(0.7383 -0.6745 0.6745 0.7383 -252.739 524.3466)" fill="#5454F4" width="1.286" height="0.554"/>
		<polygon fill="#5454F4" points="597.959,588.621 594.541,587.892 593.586,589.86 597.006,590.589 		"/>
		<polygon fill="#5454F4" points="542.991,595.936 538.416,601.769 539.513,602.971 543.813,596.838 		"/>
		<polygon fill="#5454F4" points="574.632,576.682 571.212,575.957 570.26,577.93 573.678,578.654 		"/>
		<path fill="#5454F4" d="M580.105,590.498c0.86,2.15,1.733,2.09,2.596-0.172l-0.825-0.903c-1.096-1.196-2.218-1.822-3.363-1.877
			C579.242,588.354,579.774,589.332,580.105,590.498z"/>
		<path fill="#5454F4" d="M573.109,612.187c-0.227,0.953,0.325-0.847,1.679-5.387c1.04-1.685,1.7-3.565,1.985-5.665
			c-0.401,0.359-1,0.907-1.802,1.647c-0.801,0.727-1.699,1.553-2.699,2.466c-1.998,1.825-3.226,3.5-3.678,5.011
			C570.332,610.148,571.832,610.786,573.109,612.187z"/>
		<polygon fill="#5454F4" points="593.708,600.565 589.134,606.405 590.229,607.602 594.529,601.464 		"/>
		<polygon fill="#5454F4" points="570.382,588.631 565.807,594.464 566.903,595.662 571.203,589.528 		"/>
	</g>
	<g>
		<path fill="#5454F4" d="M640.87,531.519c-1.228-0.304-2.122,0.081-2.693,1.167c-0.306,1.218-0.052,2.05,0.759,2.476
			L640.87,531.519z"/>
		<path fill="#5454F4" d="M594.22,543.835c-1.35-0.34-2.328,0.091-2.961,1.278c-0.335,1.339-0.057,2.251,0.836,2.729L594.22,543.835
			z"/>
		
			<rect x="588.768" y="597.62" transform="matrix(-0.8829 -0.4696 0.4696 -0.8829 833.2156 1405.5261)" fill="#5454F4" width="6.212" height="2.486"/>
		<polygon fill="#5454F4" points="607.545,572.014 618.293,575.616 619.46,573.426 608.418,570.371 		"/>
		<polygon fill="#5454F4" points="581.805,566.31 582.51,571.609 585.836,571.964 585.131,566.669 		"/>
		<polygon fill="#5454F4" points="622.572,585.697 623.028,589.156 625.205,589.395 624.743,585.93 		"/>
		<path fill="#5454F4" d="M621.391,615.447"/>
	</g>
	<path fill="#5454F4" d="M154.044,288.944c0.796-0.117,1.872-1.101,3.221-2.942c0.776-2.023,2.095-3.18,3.961-3.464
		c-3.93-0.751-6.689-1.015-8.282-0.771L154.044,288.944z"/>
	<path fill="#5454F4" d="M181.079,329.272c0.797-0.127,1.872-1.105,3.221-2.947c0.776-2.023,2.095-3.18,3.96-3.464
		c-3.93-0.751-6.689-1.014-8.282-0.771L181.079,329.272z"/>
	<path fill="#5454F4" d="M144.346,180.278c-2.251-0.473-2.683,0.278-1.288,2.237l1.197-0.183c1.593-0.244,2.728-0.822,3.408-1.745
		C146.593,180.75,145.492,180.648,144.346,180.278z"/>
	<path fill="#5454F4" d="M110.053,292.104c-1.228,2.638-3.342,2.141-6.345-1.481c-0.559,5.266,0.552,9.851,3.337,13.776
		c0.527-0.081,2.232-2.241,5.122-6.502c3.272,0.05,5.022,1.684,5.245,4.915c0.198,4.865,0.345,7.573,0.426,8.101
		c0.528-0.082,1.244-0.73,2.151-1.964c0.897-1.222,1.704-2.166,2.424-2.82c-1.988-4.052-5.042-10.657-9.166-19.827
		C111.899,288.148,110.834,290.08,110.053,292.104z"/>
	<path fill="#5454F4" d="M144.727,491.748c-1.228,2.638-3.342,2.146-6.351-1.476c-0.552,5.261,0.558,9.851,3.338,13.776
		c0.527-0.08,2.236-2.241,5.127-6.502c3.271,0.044,5.017,1.683,5.245,4.908c0.197,4.87,0.345,7.578,0.421,8.101
		c0.527-0.081,1.247-0.725,2.15-1.963c0.897-1.223,1.709-2.16,2.424-2.82c-1.983-4.048-5.036-10.657-9.16-19.821
		C146.568,487.793,145.503,489.725,144.727,491.748z"/>
	
		<rect x="112.391" y="122.246" transform="matrix(0.1511 0.9885 -0.9885 0.1511 218.0525 -8.2024)" fill="#5454F4" width="2.822" height="1.211"/>
	<path fill="#5454F4" d="M68.106,383.802c1.735,2.461,3.404,3.562,4.997,3.317c1.33-0.201,1.958-0.567,1.871-1.1
		c-0.121-0.801,0.345-1.278,1.416-1.441c0.142-0.841-0.137-1.744-0.827-2.732c-1.044-1.472-2.181-2.653-3.403-3.562
		C71.333,380.045,69.983,381.886,68.106,383.802z"/>
	<polygon fill="#5454F4" points="145.782,111.839 152.543,105.256 149.545,100.163 142.779,106.746 	"/>
	<path fill="#5454F4" d="M56.821,183.722c0.401,2.617,1.841,4.656,4.332,6.122c-1.192,4.296-1.527,8.151-1.004,11.56l0.695,4.515
		c0.893,0.481,2.247,0.583,4.053,0.304c0.801-0.122,1.659-0.254,2.562-0.391c0.903-0.137,1.856-0.284,2.861-0.441
		c0.324-1.897,0.546-3.784,0.674-5.65c0.213-1.269,0.203-2.698-0.045-4.306l-0.69-4.52l-2.714,0.416
		c-0.746,0.528-1.181,2.338-1.324,5.442l-2.409,0.37l-2.196-4.292c0.213-1.262,0.66-2.353,1.345-3.286
		c0.334-0.457,0.668-0.974,0.999-1.542c0.32-0.558,0.741-1.187,1.252-1.886c-0.035-0.193-0.314-0.665-0.836-1.411
		c-1.314-1.856-1.826-2.495-1.527-1.927L56.821,183.722z"/>
	<path fill="#5454F4" d="M143.555,149.581c-1.069,0.168-2.049,0.863-2.951,2.084c-0.675,0.924-0.949,1.78-0.827,2.577
		c1.06-0.162,1.882-0.147,2.455,0.031c0.304,0.233,1.217-0.046,2.729-0.823c-0.533,0.082-0.857-0.279-0.978-1.075L143.555,149.581z"
		/>
	<path fill="#5454F4" d="M65.083,325.635c0.796-0.122,1.872-1.1,3.222-2.941c0.776-2.024,2.094-3.181,3.961-3.465
		c-3.927-0.755-6.686-1.014-8.283-0.771L65.083,325.635z"/>
	<path fill="#5454F4" d="M69.223,234.494c0.801-0.122,1.876-1.106,3.226-2.942c0.775-2.024,2.089-3.18,3.956-3.464
		c-3.926-0.756-6.685-1.02-8.282-0.771L69.223,234.494z"/>
	<path fill="#5454F4" d="M109.947,267.874c0.801-0.122,1.876-1.1,3.226-2.947c0.776-2.018,2.089-3.174,3.956-3.458
		c-3.926-0.75-6.685-1.014-8.278-0.771L109.947,267.874z"/>
	<path fill="#5454F4" d="M137.194,330.824c-0.649,1.988-0.354,3.936,0.878,5.863c-2.369,2.607-3.981,5.215-4.823,7.812l-1.121,3.438
		c0.462,0.654,1.38,1.208,2.754,1.654c0.609,0.202,1.263,0.411,1.948,0.639c0.69,0.223,1.415,0.457,2.18,0.71
		c0.904-1.228,1.735-2.48,2.491-3.753c0.599-0.822,1.106-1.836,1.502-3.063l1.121-3.439l-2.064-0.669
		c-0.71,0.105-1.669,1.227-2.871,3.373l-1.836-0.599l-0.025-3.809c0.604-0.822,1.309-1.431,2.12-1.847
		c0.406-0.202,0.822-0.446,1.258-0.729c0.426-0.284,0.948-0.578,1.552-0.893c0.05-0.147,0.02-0.578-0.082-1.289
		c-0.269-1.78-0.401-2.414-0.396-1.907L137.194,330.824z"/>
	<path fill="#5454F4" d="M60.813,403.731c-0.604-0.588,0.472,0.608,3.226,3.591c0.73,1.48,1.827,2.78,3.277,3.922
		c-0.066-0.442-0.167-1.107-0.304-1.994c-0.137-0.888-0.29-1.887-0.456-2.992c-0.34-2.217-0.97-3.819-1.888-4.819
		C63.836,402.707,62.552,403.468,60.813,403.731z"/>
	<polygon fill="#5454F4" points="141.369,245.439 139.457,239.607 138.128,239.814 140.375,245.592 	"/>
</g>
</svg>
