<?xml version="1.0" encoding="utf-8"?>
<!-- Generator: Adobe Illustrator 15.0.2, SVG Export Plug-In . SVG Version: 6.00 Build 0)  -->
<!DOCTYPE svg PUBLIC "-//W3C//DTD SVG 1.1//EN" "http://www.w3.org/Graphics/SVG/1.1/DTD/svg11.dtd">
<svg version="1.1" id="Layer_1" xmlns="http://www.w3.org/2000/svg" xmlns:xlink="http://www.w3.org/1999/xlink" x="0px" y="0px"
	 width="530.563px" height="525.768px" viewBox="0 0 530.563 525.768" enable-background="new 0 0 530.563 525.768"
	 xml:space="preserve">
<g id="Capa_1">
</g>
<g id="Layer_2">
	<g>
		<g>
			<g>
				<defs>
					<circle id="SVGID_1_" cx="265.282" cy="262.884" r="260.143"/>
				</defs>
				<clipPath id="SVGID_2_">
					<use xlink:href="#SVGID_1_"  overflow="visible"/>
				</clipPath>
				<path clip-path="url(#SVGID_2_)" fill="#5353F9" d="M266.996,14.313c-135.857,0-246,110.571-246,246.857
					c0,136.286,110.144,246.428,246,246.428c135.857,0,246-110.572,246-246.428C512.996,124.455,402.854,14.313,266.996,14.313z"/>
			</g>
		</g>
		<g>
			<g>
				<defs>
					<circle id="SVGID_3_" cx="265.282" cy="262.884" r="260.143"/>
				</defs>
				<clipPath id="SVGID_4_">
					<use xlink:href="#SVGID_3_"  overflow="visible"/>
				</clipPath>
				<g clip-path="url(#SVGID_4_)">
					<path fill="#FFFFFF" d="M263.996,3.598C120.425,3.598,4.282,120.17,4.282,263.313c0,143.571,116.571,259.713,259.714,259.713
						c143.573,0,259.715-116.57,259.715-259.713C523.711,119.741,407.139,3.598,263.996,3.598z M323.139,183.17h-28.285
						c-16.715,0-12.857,2.143-12.857,13.714v34.286h33l-5.143,41.143h-27.43v102.857h-48V272.313h-34.287V231.17h34.287v-38.143
						c0-34.714,24-53.572,54.857-53.572c15,0,26.57,1.286,34.285,1.714v42L323.139,183.17L323.139,183.17z"/>
					<g>
						<path fill="#5353F9" d="M512.568,327.599c-0.43,0.428-0.43,1.285-0.43,1.715c0.855,0,1.285,0,1.285,0
							c0.43,0.43,0.857,0,1.715-0.43c-0.43-0.428-1.285-0.857-1.715-1.713c0-0.857-0.43-1.287-0.855-0.857
							C512.568,326.313,512.568,326.741,512.568,327.599z"/>
						<path fill="#5353F9" d="M476.568,316.456c-0.857,0-1.287,0.428-2.145,1.285c-0.43,0.855-0.855,1.285-0.43,1.715
							c0.857,0,1.287,0,1.715,0c0.43,0,0.857,0,2.145-0.43c-0.43,0-0.43,0-0.857-0.855L476.568,316.456z"/>
						<path fill="#5353F9" d="M450.424,264.599c-0.428-0.43,0.43,0.43,2.572,3c0.428,1.285,1.285,2.572,2.57,3.428
							c0-0.428,0-0.855-0.428-1.713c0-0.857-0.43-1.715-0.43-2.57c-0.428-1.715-0.855-3.43-1.715-4.288
							C452.996,264.169,452.139,264.599,450.424,264.599z"/>
						
							<rect x="440.542" y="259.659" transform="matrix(0.1514 0.9885 -0.9885 0.1514 632.9878 -216.299)" fill="#5353F9" width="3.857" height="1.713"/>
						<path fill="#5353F9" d="M446.568,276.171c-0.43,0.428-0.43,1.285-0.43,1.713c0.855,0,1.285,0,1.285,0
							c0.43,0.43,0.857,0,1.715-0.428c-0.43-0.43-1.285-0.857-1.715-1.715c0-0.857-0.43-1.285-0.855-0.857
							C446.568,274.884,446.568,275.313,446.568,276.171z"/>
						<path fill="#5353F9" d="M410.568,265.028c-0.857,0-1.287,0.428-2.145,1.285c-0.43,0.855-0.855,1.285-0.43,1.715
							c0.857,0,1.287,0,1.715,0c0.43,0,0.857,0,2.145-0.43c-0.43,0-0.43,0-0.857-0.855L410.568,265.028z"/>
						
							<rect x="476.852" y="445.933" transform="matrix(-0.3099 0.9508 -0.9508 -0.3099 1050.428 130.3131)" fill="#5353F9" width="2.143" height="0.857"/>
						<path fill="#5353F9" d="M395.568,283.884c-0.43,0.43-0.43,1.287-0.43,1.715c0.855,0,1.285,0,1.285,0
							c0.43,0.428,0.857,0,1.715-0.428c-0.43-0.43-1.285-0.857-1.715-1.715c0-0.857-0.43-1.285-0.855-0.857
							C395.568,283.026,395.568,283.456,395.568,283.884z"/>
						<path fill="#5353F9" d="M455.996,272.313c0.428,0,1.285-0.857,2.145-2.143c0.428-1.287,1.713-2.145,3-2.572
							c-3-0.43-4.717-0.855-6-0.43L455.996,272.313z"/>
						<path fill="#5353F9" d="M459.424,328.884c0.43,0,1.287-0.857,2.145-2.143c0.428-1.285,1.715-2.145,3-2.57
							c-3-0.43-4.715-0.857-6-0.43L459.424,328.884z"/>
						<path fill="#5353F9" d="M459.424,294.599c0.43,0,1.287-0.855,2.145-2.143c0.428-1.285,1.715-2.145,3-2.572
							c-3-0.428-4.715-0.857-6-0.428L459.424,294.599z"/>
						<path fill="#5353F9" d="M452.996,321.171c0.428,0,1.285-0.857,2.145-2.145c0.428-1.285,1.713-2.143,3-2.57
							c-3-0.43-4.717-0.857-6-0.43L452.996,321.171z"/>
						<path fill="#5353F9" d="M476.139,252.17c-1.715-0.43-2.145,0-0.857,1.714h0.857c1.285,0,2.143-0.429,2.57-1.286
							C477.424,252.17,476.568,252.17,476.139,252.17z"/>
						<path fill="#5353F9" d="M402.854,235.456c1.285,1.714,2.57,2.57,3.428,2.57c0.859,0,1.287-0.428,1.287-0.856
							s0.428-0.856,0.855-0.856c0-0.43,0-1.287-0.43-2.144c-0.855-0.856-1.713-1.714-2.57-2.571
							C405.424,232.884,404.139,234.17,402.854,235.456z"/>
						<path fill="#5353F9" d="M412.281,253.456c-0.428,0.429-0.428,1.285-0.428,1.714c0.855,0,1.285,0,1.285,0
							c0.43,0.429,0.855,0,1.715-0.429c-0.43-0.428-1.285-0.857-1.715-1.715c0-0.856-0.43-1.285-0.857-0.856
							C412.281,252.598,411.854,253.028,412.281,253.456z"/>
						<path fill="#5353F9" d="M456.854,379.026c-1.715-0.428-2.145,0-0.857,1.717h0.857c1.285,0,2.143-0.43,2.57-1.287
							C458.568,379.456,457.711,379.456,456.854,379.026z"/>
						<path fill="#5353F9" d="M498.854,331.884c2.143,3.43,4.715,4.715,6.428,4.287c1.715-0.43,2.572-0.857,2.572-1.287
							c0-0.857,0.428-1.713,1.715-1.713c0-1.287,0-2.145-1.287-3.43c-1.285-2.145-3-3.43-4.715-4.715
							C503.139,327.171,501.424,329.313,498.854,331.884z"/>
						<polygon fill="#5353F9" points="509.139,415.456 511.711,415.026 511.281,413.313 509.139,414.171 						"/>
						<path fill="#5353F9" d="M444.854,341.741c-0.857,1.715-2.572,1.715-4.715-0.857c-0.43,3.857,0.43,7.287,2.57,9.857
							c0.43,0,1.715-1.715,3.857-4.715c2.143,0,3.428,1.285,3.855,3.43c0,3.428,0.43,5.57,0.43,6c0.43,0,0.857-0.43,1.715-1.285
							c0.855-0.857,1.285-1.715,1.715-2.145c-1.287-3-3.43-7.715-6.43-14.143C446.139,338.741,445.281,340.026,444.854,341.741z"/>
						
							<rect x="463.262" y="321.057" transform="matrix(0.1517 0.9884 -0.9884 0.1517 712.2268 -186.4882)" fill="#5353F9" width="3" height="1.286"/>
						<polygon fill="#5353F9" points="449.996,323.313 448.281,318.171 447.424,318.171 449.139,323.313 						"/>
						
							<rect x="479.138" y="298.016" transform="matrix(0.1514 0.9885 -0.9885 0.1514 702.5251 -221.4064)" fill="#5353F9" width="2.142" height="0.858"/>
						<path fill="#5353F9" d="M466.711,508.456c0.43,0.855,0.857,0.855,1.713,0.855c0.857-0.428,0.857-0.855,0.857-1.285
							L466.711,508.456z"/>
						<path fill="#5353F9" d="M483.854,430.456c-0.43,0.428-0.857,0.855-0.857,1.285c0.857,0.43,1.285,0.43,1.285,0.855
							c0.43,0.43,0.857,0.43,1.715,0.43c-0.428-0.43-0.855-1.285-0.855-2.143c0.428-0.857,0-1.287,0-1.287
							C484.281,429.599,483.854,430.026,483.854,430.456z"/>
						<path fill="#5353F9" d="M524.996,331.884c0.428,0,1.285-0.857,2.145-2.143c0.428-1.285,1.713-2.145,3-2.57
							c-3-0.43-4.717-0.857-6-0.43L524.996,331.884z"/>
						<path fill="#5353F9" d="M487.711,322.456c-1.287-0.43-1.287,0-0.857,1.285h0.857c0.855,0,1.285-0.43,1.713-0.857
							C488.996,322.456,488.568,322.456,487.711,322.456z"/>
						<path fill="#5353F9" d="M449.568,330.171c1.285,1.713,2.57,2.57,3.428,2.57s1.285-0.43,1.285-0.857s0.43-0.857,0.857-0.857
							c0-0.428,0-1.283-0.43-2.143c-0.855-0.857-1.715-1.713-2.57-2.57C451.711,327.599,450.854,328.884,449.568,330.171z"/>
						<polygon fill="#5353F9" points="486.854,312.171 488.568,310.456 487.711,309.171 485.996,310.884 						"/>
						
							<rect x="517.261" y="274.482" transform="matrix(0.1516 0.9884 -0.9884 0.1516 712.0529 -279.3531)" fill="#5353F9" width="3.001" height="1.286"/>
						<polygon fill="#5353F9" points="504.424,276.599 502.711,271.456 501.424,271.884 503.568,277.026 						"/>
						<path fill="#5353F9" d="M482.568,494.741c0.428,0.855,0.855,0.855,1.713,0.855c0.857-0.428,0.857-0.855,0.857-1.285
							L482.568,494.741z"/>
						<path fill="#5353F9" d="M504.424,425.313c-0.428,0.43-0.855,0.857-0.855,1.285c0.855,0.428,1.285,0.428,1.285,0.857
							c0.428,0.428,0.857,0.428,1.715,0.428c-0.43-0.428-0.857-1.285-0.857-2.143c0.43-0.857,0-1.285,0-1.285
							C504.854,424.456,504.424,424.884,504.424,425.313z"/>
						<path fill="#5353F9" d="M512.139,302.741c-1.285,0.43-2.57,1.285-3.857,2.57c-0.857,1.285-1.285,2.145-1.285,3.43
							c1.285-0.43,2.572,0,3.428,0c0.43,0.43,1.717,0,3.43-1.285c-0.855,0-1.285-0.43-1.285-1.285L512.139,302.741z"/>
						<path fill="#5353F9" d="M410.139,316.026c0.43,1.717,1.285,3.43,3,4.287c-0.857,3-1.285,6-0.857,8.143l0.43,3.43
							c0.43,0.428,1.713,0.428,3,0.428c0.43,0,1.285,0,1.713-0.428c0.857,0,1.287,0,2.145-0.43c0.428-1.285,0.428-2.57,0.428-3.857
							c0-0.855,0-2.143,0-3l-0.428-3.428l-2.145,0.428c-0.428,0.43-0.855,1.715-0.855,3.857l-1.715,0.428l-1.715-3
							c0-0.857,0.43-1.713,0.855-2.57c0.43-0.43,0.43-0.857,0.857-1.287c0.428-0.428,0.43-0.855,0.857-1.283
							c0,0-0.43-0.43-0.43-0.857c-0.857-1.287-1.285-1.715-1.285-1.287L410.139,316.026z"/>
						<path fill="#5353F9" d="M537.854,325.026c0.428,0,1.285-0.855,2.143-2.143c0.428-1.285,1.715-2.143,3-2.57
							c-3-0.43-4.715-0.857-6-0.43L537.854,325.026z"/>
						<polygon fill="#5353F9" points="496.711,277.456 501.424,272.741 499.281,268.884 494.568,273.599 						"/>
						<path fill="#5353F9" d="M488.996,484.456c0.428,0.855,0.857,0.855,1.715,0.855c0.855-0.428,0.855-0.855,0.855-1.285
							L488.996,484.456z"/>
						<path fill="#5353F9" d="M514.711,418.884c-0.43,0.43-0.857,0.857-0.857,1.287c0.857,0.428,1.287,0.428,1.287,0.855
							c0.428,0.43,0.855,0.43,1.713,0.43c-0.43-0.43-0.857-1.285-0.857-2.145c0.43-0.855,0-1.285,0-1.285
							C515.566,418.026,515.139,418.456,514.711,418.884z"/>
						<path fill="#5353F9" d="M403.281,347.741c-0.857,0-1.285,0.43-2.143,1.285c-0.43,0.857-0.857,1.285-0.43,1.715
							c0.857,0,1.285,0,1.715,0s0.857,0,2.145-0.43c-0.43,0-0.43,0-0.857-0.855L403.281,347.741z"/>
						<path fill="#5353F9" d="M427.281,295.884c0.43,1.715,1.287,3.43,3,4.287c-0.857,3-1.285,6-0.857,8.143l0.43,3.43
							c0.43,0.428,1.715,0.428,3,0.428c0.43,0,1.287,0,1.715-0.428c0.855,0,1.285,0,2.143-0.43c0.43-1.287,0.43-2.57,0.43-3.857
							c0-0.857,0-2.143,0-3l-0.43-3.43l-2.143,0.43c-0.428,0.43-0.857,1.715-0.857,3.857l-1.715,0.43l-1.713-3
							c0-0.857,0.428-1.717,0.857-2.572c0.428-0.428,0.428-0.857,0.855-1.285c0.428-0.43,0.428-0.857,0.857-1.287
							c0,0-0.43-0.428-0.43-0.855c-0.857-1.285-1.285-1.715-1.285-1.285L427.281,295.884z"/>
						<path fill="#5353F9" d="M533.568,308.313c-1.715-0.43-1.715,0-0.857,1.713h0.857c1.285,0,2.143-0.428,2.57-1.283
							C535.281,308.741,534.424,308.313,533.568,308.313z"/>
						<path fill="#5353F9" d="M471.854,306.171c1.285,1.713,2.57,2.57,3.428,2.57c0.859,0,1.287-0.43,1.287-0.857
							s0.428-0.857,0.855-0.857c0-0.428,0-1.283-0.43-2.143c-0.855-0.857-1.713-1.713-2.57-2.57
							C474.424,303.171,473.139,304.456,471.854,306.171z"/>
						<polygon fill="#5353F9" points="509.568,287.741 511.281,286.026 510.424,284.741 508.711,286.456 						"/>
						<path fill="#5353F9" d="M528.854,318.171c-0.43,0.428-0.43,1.285-0.43,1.713c0.857,0,1.285,0,1.285,0
							c0.43,0.43,0.857,0,1.715-0.428c-0.43-0.43-1.285-0.857-1.715-1.715c0-0.857-0.428-1.285-0.855-0.857
							C528.854,317.313,528.854,317.741,528.854,318.171z"/>
						<path fill="#5353F9" d="M492.854,307.026c-0.857,0-1.285,0.43-2.145,1.287c-0.428,0.857-0.855,1.285-0.428,1.713
							c0.855,0,1.285,0,1.713,0c0.43,0,0.857,0,2.145-0.428c-0.43,0-0.43,0-0.857-0.855L492.854,307.026z"/>
						<path fill="#5353F9" d="M466.711,255.598c-0.43-0.429,0.43,0.43,2.57,3c0.43,1.286,1.287,2.571,2.572,3.43
							c0-0.43,0-0.857-0.43-1.715c0-0.857-0.43-1.714-0.43-2.572c-0.428-1.713-0.855-3.428-1.713-4.285
							C469.281,254.741,468.424,255.598,466.711,255.598z"/>
						
							<rect x="457.132" y="250.421" transform="matrix(0.1519 0.9884 -0.9884 0.1519 637.6897 -240.6249)" fill="#5353F9" width="3.857" height="1.715"/>
						<path fill="#5353F9" d="M463.281,267.169c-0.428,0.43-0.428,1.287-0.428,1.715c0.855,0,1.285,0,1.285,0
							c0.43,0.43,0.855,0,1.715-0.428c-0.43-0.43-1.285-0.857-1.715-1.715c0-0.857-0.43-1.285-0.857-0.857
							C463.281,265.884,462.854,266.313,463.281,267.169z"/>
						<path fill="#5353F9" d="M426.854,255.598c-0.857,0-1.287,0.43-2.145,1.286c-0.428,0.856-0.855,1.286-0.428,1.714
							c0.855,0,1.285,0,1.713,0c0.43,0,0.857,0,2.145-0.429c-0.43,0-0.43,0-0.857-0.856L426.854,255.598z"/>
						<path fill="#5353F9" d="M411.854,274.884c-0.43,0.43-0.43,1.287-0.43,1.715c0.857,0,1.285,0,1.285,0
							c0.43,0.428,0.857,0,1.715-0.428c-0.43-0.43-1.285-0.857-1.715-1.715c0-0.857-0.428-1.285-0.855-0.857
							C412.281,273.599,411.854,274.026,411.854,274.884z"/>
						<path fill="#5353F9" d="M472.281,262.884c0.43,0,1.287-0.856,2.143-2.144c0.43-1.285,1.717-2.143,3-2.57
							c-3-0.43-4.713-0.857-6-0.43L472.281,262.884z"/>
						<path fill="#5353F9" d="M475.711,319.456c0.43,0,1.285-0.857,2.143-2.145c0.43-1.285,1.715-2.143,3-2.57
							c-3-0.43-4.713-0.857-6-0.43L475.711,319.456z"/>
						<path fill="#5353F9" d="M483.424,292.884c0.43,0,1.287-0.857,2.145-2.143c0.428-1.285,1.715-2.145,3-2.57
							c-3-0.43-4.715-0.857-6-0.43L483.424,292.884z"/>
						<path fill="#5353F9" d="M461.996,309.171c0.428,0,1.285-0.857,2.145-2.145c0.428-1.285,1.713-2.143,3-2.57
							c-3-0.43-4.717-0.857-6-0.43L461.996,309.171z"/>
						<path fill="#5353F9" d="M430.711,240.598c1.285,1.714,2.57,2.571,3.43,2.571c0.855,0,1.283-0.429,1.283-0.856
							c0-0.43,0.43-0.857,0.857-0.857c0-0.428,0-1.286-0.428-2.143c-0.857-0.857-1.715-1.715-2.572-2.572
							C432.854,238.028,431.996,239.313,430.711,240.598z"/>
						<path fill="#5353F9" d="M428.568,244.456c-0.43,0.429-0.43,1.285-0.43,1.714c0.855,0,1.285,0,1.285,0
							c0.43,0.429,0.857,0,1.715-0.429c-0.43-0.428-1.285-0.857-1.715-1.715c0-0.856-0.43-1.285-0.855-0.856
							C428.568,243.17,428.568,244.028,428.568,244.456z"/>
						<path fill="#5353F9" d="M390.424,481.026c-0.428,0.43-0.428,0.43-0.428,0.857c0.428,0,0.857,0.43,0.857,0.43
							c0,0.43,0.428,0.43,0.855,0c-0.428-0.43-0.428-0.857-0.428-1.287c0-0.428,0-0.855,0-0.855
							C390.854,480.599,390.854,480.599,390.424,481.026z"/>
						<path fill="#5353F9" d="M374.139,465.599c-0.43,0-0.857,0-1.715,0.428c-0.43,0.43-0.855,0.43-0.855,0.857
							c0.428,0,0.855,0.43,0.855,0.43s0.43,0.43,1.285,0c-0.428,0-0.428-0.43,0-0.43L374.139,465.599z"/>
						<path fill="#5353F9" d="M422.139,461.313c0,1.285,0.43,2.143,1.285,2.143c0.43,0,0.857,0,0.857,0
							c0-0.43,0.428-0.43,0.855-0.43c0.43-0.428,0.43-0.855,0-1.283c0-0.857-0.428-1.287-0.428-2.145
							C424.281,460.884,423.424,461.313,422.139,461.313z"/>
						<path fill="#5353F9" d="M374.139,430.884c0-0.428,0,0.43,0.43,2.143c0,0.857,0,1.717,0.428,2.572c0-0.428,0-0.428,0.428-0.855
							c0-0.43,0.43-0.857,0.43-1.287c0.428-1.285,0.428-2.143,0.428-2.572C375.854,431.313,374.996,431.313,374.139,430.884z"/>
						
							<rect x="370.061" y="425.836" transform="matrix(-0.3097 0.9508 -0.9508 -0.3097 891.3719 205.3738)" fill="#5353F9" width="2.144" height="0.859"/>
						<path fill="#5353F9" d="M368.996,436.026c-0.428,0.43-0.428,0.43-0.428,0.857c0.428,0,0.855,0.43,0.855,0.43
							c0,0.43,0.43,0.43,0.857,0c-0.43-0.43-0.43-0.857-0.43-1.287c0-0.428,0-0.855,0-0.855
							C369.424,435.171,369.424,435.599,368.996,436.026z"/>
						<path fill="#5353F9" d="M353.139,420.171c-0.43,0-0.857,0-1.715,0.428c-0.43,0.428-0.855,0.428-0.855,0.857
							c0.428,0,0.855,0.428,0.855,0.428s0.43,0.43,1.285,0c-0.428,0-0.428-0.428,0-0.428L353.139,420.171z"/>
						<path fill="#5353F9" d="M368.139,401.741c-0.43,1.285-0.43,3,0.43,4.285c-1.715,1.715-3,3.857-3.43,5.57l-0.857,2.574
							c0.43,0.428,0.857,0.855,2.143,1.285c0.43,0,0.857,0.428,1.287,0.428s0.857,0.43,1.713,0.43
							c0.857-0.857,1.287-1.715,1.717-2.57c0.428-0.43,0.855-1.287,1.283-2.145l0.857-2.572l-1.285-0.428
							c-0.428,0-1.285,0.857-2.143,2.572l-1.285-0.43v-2.57c0.428-0.43,0.855-0.857,1.713-1.287c0.43,0,0.43-0.428,0.857-0.428
							s0.855-0.43,1.285-0.43c0,0,0-0.43,0-0.855c0-1.287-0.43-1.715-0.43-1.287L368.139,401.741z"/>
						<path fill="#5353F9" d="M440.568,437.313c0.428,0,0.855,0,1.713-0.43c0.859-0.428,1.287-0.857,2.143-0.428
							c-1.283-0.857-2.57-1.715-3-1.715L440.568,437.313z"/>
						<path fill="#5353F9" d="M433.281,434.313c-0.857-0.43-1.285-0.43-0.857,0.43h0.43c0.857,0.428,1.287,0,1.715,0
							C434.139,434.741,433.711,434.741,433.281,434.313z"/>
						<path fill="#5353F9" d="M475.281,434.313c0,1.285,0.43,2.143,1.287,2.143c0.428,0,0.855,0,0.855,0
							c0-0.43,0.43-0.43,0.857-0.43c0.428-0.428,0.428-0.855,0-1.283c0-0.857-0.43-1.287-0.43-2.145
							C477.424,433.456,476.568,433.884,475.281,434.313z"/>
						<polygon fill="#5353F9" points="425.568,416.741 427.281,416.313 426.854,415.456 425.568,415.884 						"/>
						<path fill="#5353F9" d="M436.711,410.741c-0.857,0.855-1.715,0-2.143-1.715c-1.287,1.715-1.715,3.857-1.287,6
							c0.43,0,1.287-0.43,3.43-1.715c1.285,0.857,1.713,1.715,0.857,3c-0.857,1.715-1.287,3-1.287,3c0.43,0,0.43,0,1.287-0.428
							c0.428-0.43,1.285-0.43,1.285-0.43c0-2.143,0-5.143,0.428-9.43C437.996,409.884,437.568,410.313,436.711,410.741z"/>
						<polygon fill="#5353F9" points="444.424,402.599 444.854,399.599 444.424,399.171 443.996,402.171 						"/>
						<path fill="#5353F9" d="M407.996,418.884c0.428,0,0.857,0,1.715-0.428c0.857-0.43,1.285-0.857,2.143-0.43
							c-1.285-0.855-2.57-1.715-3-1.715L407.996,418.884z"/>
						<path fill="#5353F9" d="M475.281,433.456c-0.857-0.43-1.285-0.43-0.857,0.428h0.43c0.857,0.43,1.287,0,1.715,0
							C475.711,433.884,475.711,433.884,475.281,433.456z"/>
						<polygon fill="#5353F9" points="392.996,397.884 394.711,397.456 394.281,396.599 392.996,397.026 						"/>
						<path fill="#5353F9" d="M404.139,392.313c-0.857,0.857-1.715,0-2.145-1.715c-1.285,1.715-1.713,3.857-1.285,6
							c0.43,0,1.285-0.428,3.43-1.715c1.285,0.857,1.715,1.715,0.855,3c-0.855,1.715-1.285,3-1.285,3c0.43,0,0.43,0,1.285-0.428
							c0.43-0.43,1.287-0.43,1.287-0.43c0-2.143,0-5.143,0.428-9.43C405.424,391.026,404.996,391.456,404.139,392.313z"/>
						
							<rect x="419.306" y="386.161" transform="matrix(-0.3101 0.9507 -0.9507 -0.3101 917.9771 107.0012)" fill="#5353F9" width="1.713" height="0.857"/>
						<polygon fill="#5353F9" points="411.854,383.741 412.281,380.741 411.854,380.313 411.424,383.741 						"/>
						
							<rect x="434.222" y="378.557" transform="matrix(-0.3098 0.9508 -0.9508 -0.3098 929.7351 82.6646)" fill="#5353F9" width="1.286" height="0.427"/>
						<path fill="#5353F9" d="M339.854,426.171c-0.43,0.428-0.43,0.428-0.43,0.855c0.43,0,0.857,0.43,0.857,0.43
							c0,0.428,0.428,0.428,0.857,0c-0.43-0.43-0.43-0.857-0.43-1.285c0-0.43,0-0.857,0-0.857
							C340.281,425.741,339.854,426.171,339.854,426.171z"/>
						<path fill="#5353F9" d="M411.424,427.884c0.43,0,0.857,0,1.717-0.428c0.855-0.43,1.283-0.857,2.143-0.43
							c-1.287-0.855-2.572-1.715-3-1.715L411.424,427.884z"/>
						<path fill="#5353F9" d="M403.711,424.456c-0.857-0.43-1.287-0.43-0.857,0.428h0.428c0.857,0.43,1.287,0,1.715,0
							C404.568,425.313,404.139,424.884,403.711,424.456z"/>
						<path fill="#5353F9" d="M371.568,406.884c0,1.287,0.428,2.143,1.285,2.143c0.428,0,0.855,0,0.855,0
							c0-0.428,0.43-0.428,0.857-0.428c0.428-0.428,0.428-0.855,0-1.285c0-0.857-0.428-1.287-0.428-2.143
							C373.711,406.026,372.854,406.456,371.568,406.884z"/>
						<polygon fill="#5353F9" points="396.424,407.313 397.711,406.884 397.711,406.026 396.424,406.456 						"/>
						<path fill="#5353F9" d="M407.568,401.313c-0.857,0.857-1.715,0-2.145-1.715c-1.285,1.715-1.715,3.857-1.285,6
							c0.428,0,1.285-0.428,3.43-1.715c1.285,0.857,1.713,1.715,0.855,3c-0.855,1.715-1.285,3-1.285,3c0.428,0,0.428,0,1.285-0.428
							c0.43-0.43,1.285-0.43,1.285-0.43c0-2.143,0-5.143,0.43-9.43C408.854,400.026,407.996,400.884,407.568,401.313z"/>
						
							<rect x="422.342" y="395.536" transform="matrix(-0.3101 0.9507 -0.9507 -0.3101 930.8662 116.3975)" fill="#5353F9" width="1.713" height="0.857"/>
						<polygon fill="#5353F9" points="415.281,393.171 415.711,389.741 414.854,389.741 414.854,392.741 						"/>
						
							<rect x="437.388" y="387.526" transform="matrix(-0.3098 0.9508 -0.9508 -0.3098 942.4094 91.402)" fill="#5353F9" width="1.286" height="0.427"/>
						<path fill="#5353F9" d="M398.568,434.313c0.428,0,0.855,0,1.713-0.43c0.859-0.428,1.287-0.857,2.143-0.428
							c-1.283-0.857-2.57-1.715-3-1.715L398.568,434.313z"/>
						<path fill="#5353F9" d="M374.996,436.456c0.428,0,0.857,0,1.715-0.43s1.285-0.855,2.143-0.43c-1.285-0.855-2.57-1.713-3-1.713
							L374.996,436.456z"/>
						<path fill="#5353F9" d="M372.854,455.313c0.428,0,0.855,0,1.715-0.43c0.855-0.428,1.285-0.857,2.143-0.428
							c-1.287-0.857-2.57-1.715-3-1.715L372.854,455.313z"/>
						<path fill="#5353F9" d="M391.281,430.884c-0.857-0.428-1.285-0.428-0.857,0.43h0.43c0.857,0.43,1.287,0,1.715,0
							C392.139,431.313,391.711,431.313,391.281,430.884z"/>
						<path fill="#5353F9" d="M359.139,412.884c0,1.287,0.43,2.143,1.285,2.143c0.43,0,0.857,0,0.857,0
							c0-0.428,0.428-0.428,0.857-0.428c0.428-0.428,0.428-0.855,0-1.285c0-0.857-0.43-1.287-0.43-2.143
							C360.854,412.456,359.996,412.884,359.139,412.884z"/>
						<polygon fill="#5353F9" points="458.139,431.741 459.854,431.313 459.854,430.456 458.139,430.884 						"/>
						<path fill="#5353F9" d="M469.281,425.741c-0.857,0.855-1.713,0-2.143-1.715c-1.285,1.715-1.715,3.857-1.285,6
							c0.428,0,1.285-0.43,3.428-1.715c1.287,0.857,1.715,1.715,0.857,3c-0.857,1.715-1.285,3-1.285,3c0.428,0,0.428,0,1.285-0.428
							c0.428-0.43,1.285-0.43,1.285-0.43c0-2.143,0-5.143,0.43-9.43C470.996,424.456,470.139,425.313,469.281,425.741z"/>
						
							<rect x="410.095" y="401.659" transform="matrix(-0.3101 0.9507 -0.9507 -0.3101 920.6443 136.0617)" fill="#5353F9" width="1.713" height="0.857"/>
						<polygon fill="#5353F9" points="402.854,399.171 403.281,396.171 402.424,395.741 401.996,399.171 						"/>
						
							<rect x="424.602" y="393.919" transform="matrix(-0.3098 0.9508 -0.9508 -0.3098 931.7415 111.9348)" fill="#5353F9" width="1.286" height="0.429"/>
						<path fill="#5353F9" d="M356.996,414.599c-0.428,0.428-0.428,0.428-0.428,0.857c0.428,0,0.855,0.428,0.855,0.428
							c0,0.43,0.43,0.43,0.857,0c-0.43-0.428-0.43-0.857-0.43-1.285s0-0.855,0-0.855
							C356.996,414.171,356.996,414.171,356.996,414.599z"/>
						<path fill="#5353F9" d="M428.139,416.313c0.43,0,0.855,0,1.715-0.43c0.857-0.428,1.285-0.857,2.143-0.428
							c-1.285-0.857-2.572-1.715-3-1.715L428.139,416.313z"/>
						<path fill="#5353F9" d="M420.854,412.884c-0.857-0.428-1.285-0.428-0.857,0.43h0.428c0.857,0.43,1.287,0,1.717,0
							C421.711,413.313,421.281,413.313,420.854,412.884z"/>
						<path fill="#5353F9" d="M388.281,394.884c0,1.287,0.43,2.143,1.287,2.143c0.428,0,0.855,0,0.855,0
							c0-0.428,0.43-0.428,0.857-0.428c0.428-0.428,0.428-0.855,0-1.285c0-0.857-0.43-1.287-0.43-2.143
							C390.424,394.026,389.568,394.456,388.281,394.884z"/>
						<polygon fill="#5353F9" points="413.139,395.313 414.854,394.884 414.854,394.026 413.139,394.456 						"/>
						<path fill="#5353F9" d="M424.281,389.741c-0.857,0.855-1.713,0-2.143-1.715c-1.285,1.715-1.715,3.857-1.285,6
							c0.428,0,1.285-0.43,3.428-1.715c1.287,0.857,1.715,1.715,0.857,3c-0.857,1.715-1.285,3-1.285,3c0.428,0,0.428,0,1.285-0.428
							c0.428-0.43,1.285-0.43,1.285-0.43c0-2.143,0-5.143,0.43-9.43C425.996,388.456,425.139,388.884,424.281,389.741z"/>
						
							<rect x="439.53" y="383.599" transform="matrix(-0.3097 0.9508 -0.9508 -0.3097 941.9315 84.2406)" fill="#5353F9" width="1.715" height="0.857"/>
						<polygon fill="#5353F9" points="431.996,381.171 432.854,378.171 431.996,377.741 431.568,381.171 						"/>
						<path fill="#5353F9" d="M422.139,478.456c0,0.428,0,0.855,0.43,0.855c0.428,0,0.855,0,0.855-0.428L422.139,478.456z"/>
						<path fill="#5353F9" d="M429.424,398.313c-0.428,0.43-0.428,0.43-0.428,0.857c0.428,0,0.857,0.428,0.857,0.428
							c0,0.428,0.428,0.428,0.855,0c-0.428-0.428-0.428-0.857-0.428-1.285s0-0.857,0-0.857
							C429.854,397.456,429.424,397.884,429.424,398.313z"/>
						<path fill="#5353F9" d="M413.139,382.456c-0.43,0-0.857,0-1.715,0.428c-0.43,0.43-0.855,0.43-0.855,0.857
							c0.428,0,0.855,0.43,0.855,0.43s0.43,0.428,1.285,0c-0.428,0-0.428-0.43,0-0.43L413.139,382.456z"/>
						<path fill="#5353F9" d="M428.568,364.026c-0.43,1.287-0.43,3,0.428,4.287c-1.715,1.713-3,3.857-3.43,5.57l-0.855,2.572
							c0.43,0.428,0.855,0.855,2.143,1.285c0.43,0,0.857,0.43,1.287,0.43c0.428,0,0.855,0.428,1.713,0.428
							c0.857-0.855,1.287-1.715,1.715-2.572c0.428-0.428,0.855-1.283,1.285-2.143l0.857-2.57l-1.287-0.43
							c-0.428,0-1.283,0.857-2.143,2.572l-1.285-0.43v-2.57c0.428-0.43,0.857-0.857,1.715-1.285c0.43,0,0.43-0.43,0.855-0.43
							c0.43,0,0.857-0.43,1.287-0.43c0,0,0-0.428,0-0.855c0-1.285-0.43-1.715-0.43-1.285L428.568,364.026z"/>
						
							<rect x="363.642" y="474.848" transform="matrix(-0.3098 0.9508 -0.9508 -0.3098 931.4059 275.2875)" fill="#5353F9" width="4.287" height="1.713"/>
						
							<rect x="375.734" y="509.074" transform="matrix(-0.3098 0.9508 -0.9508 -0.3098 979.7878 308.6194)" fill="#5353F9" width="4.287" height="1.715"/>
						<polygon fill="#5353F9" points="356.139,484.884 357.854,473.313 355.711,472.884 354.424,484.456 						"/>
						
							<rect x="438.482" y="465.299" transform="matrix(-0.3094 0.9509 -0.9509 -0.3094 1020.2328 191.3713)" fill="#5353F9" width="4.286" height="1.715"/>
						<path fill="#5353F9" d="M439.281,452.313c-1.713-0.43-3.428-0.43-5.57,0.857c-1.715,0.855-2.57,1.713-3,3
							c1.713,0.428,2.57,1.285,3.43,1.713c0.428,0.43,1.713,0.857,4.283,0.857c-0.855-0.43-0.855-0.857-0.428-2.145L439.281,452.313
							z"/>
						
							<rect x="349.877" y="502.559" transform="matrix(-0.3097 0.9508 -0.9508 -0.3097 941.5076 324.1275)" fill="#5353F9" width="6.427" height="2.571"/>
						<polygon fill="#5353F9" points="322.711,492.599 324.424,481.026 322.281,480.171 320.996,492.171 						"/>
						
							<rect x="405.011" y="472.847" transform="matrix(-0.3095 0.9509 -0.9509 -0.3095 983.617 233.1651)" fill="#5353F9" width="4.285" height="1.713"/>
						
							<rect x="361.953" y="536.872" transform="matrix(-0.3097 0.9508 -0.9508 -0.3097 989.9493 357.5825)" fill="#5353F9" width="6.427" height="2.571"/>
						<polygon fill="#5353F9" points="334.711,526.884 336.854,515.313 334.281,514.456 332.996,526.456 						"/>
						
							<rect x="417.128" y="507.117" transform="matrix(-0.3103 0.9506 -0.9506 -0.3103 1032.2805 267.0508)" fill="#5353F9" width="4.286" height="1.713"/>
						
							<rect x="370.422" y="530.773" transform="matrix(-0.3099 0.9508 -0.9508 -0.3099 993.4857 342.1794)" fill="#5353F9" width="4.285" height="1.713"/>
						<path fill="#5353F9" d="M476.568,513.171c0.855,0.428,2.57,0,4.713-1.287c1.715-1.713,3.43-2.143,5.572-1.285
							c-3.43-2.572-6-4.285-7.715-4.715L476.568,513.171z"/>
						
							<rect x="424.632" y="493.425" transform="matrix(-0.3098 0.9508 -0.9508 -0.3098 1030.7758 241.2001)" fill="#5353F9" width="6.43" height="2.57"/>
						<polygon fill="#5353F9" points="397.711,483.171 399.424,471.599 396.854,471.171 395.568,482.741 						"/>
						
							<rect x="479.741" y="463.659" transform="matrix(-0.3099 0.9508 -0.9508 -0.3099 1072.8779 150.3293)" fill="#5353F9" width="4.285" height="1.715"/>
						<path fill="#5353F9" d="M488.139,235.884c-1.285,0.856-2.145,1.714-2.145,2.571c1.715,0.429,2.572,0.857,3,1.714
							c0.43,1.286,1.715,1.286,3.857,0.429c-0.857-1.286-1.713-2.57-1.713-4.714c0.428-1.714,0.428-2.571-0.43-3
							C488.996,233.741,488.568,234.598,488.139,235.884z"/>
						
							<rect x="431.226" y="486.585" transform="matrix(-0.3099 0.9508 -0.9508 -0.3099 1034.6564 226.0279)" fill="#5353F9" width="8.143" height="3.856"/>
						
							<rect x="454.532" y="472.321" transform="matrix(-0.3097 0.9508 -0.9508 -0.3097 1051.5566 185.0504)" fill="#5353F9" width="8.142" height="3.856"/>
						<path fill="#5353F9" d="M480.424,450.599c-1.713-0.428-3.428-0.428-5.57,0.857c-1.713,0.855-2.57,1.715-3,3
							c1.715,0.428,2.57,1.285,3.43,1.715c0.428,0.428,1.713,0.855,4.285,0.855c-0.857-0.43-0.857-0.855-0.428-2.143
							L480.424,450.599z"/>
						<path fill="#5353F9" d="M468.854,382.884c-1.715,0.43-3.43,1.287-4.715,3.43c-1.285,1.285-1.715,3-1.285,4.285
							c1.715-0.428,3-0.428,3.855,0c0.43,0.428,2.145,0,4.285-1.285c-0.855,0-1.285-0.43-1.713-1.715L468.854,382.884z"/>
						<path fill="#5353F9" d="M497.139,365.741c-1.715,0.43-3.43,1.285-4.715,3.43c-1.285,1.285-1.715,3-1.285,4.285
							c1.715-0.43,3-0.43,3.855,0c0.43,0.428,2.145,0,4.287-1.285c-0.857,0-1.287-0.43-1.715-1.715L497.139,365.741z"/>
						
							<rect x="364.853" y="498.25" transform="matrix(-0.3099 0.9508 -0.9508 -0.3099 955.2695 304.8702)" fill="#5353F9" width="4.285" height="1.713"/>
						
							<rect x="351.132" y="526.055" transform="matrix(-0.3099 0.9508 -0.9508 -0.3099 965.5425 353.8827)" fill="#5353F9" width="6.428" height="2.571"/>
						
							<rect x="406.541" y="496.879" transform="matrix(-0.3098 0.9508 -0.9508 -0.3098 1008.5428 263.355)" fill="#5353F9" width="4.287" height="1.715"/>
						
							<rect x="357.984" y="519.793" transform="matrix(-0.3097 0.9508 -0.9508 -0.3097 970.2498 339.0259)" fill="#5353F9" width="8.142" height="3.858"/>
						<path fill="#5353F9" d="M515.566,225.598c-0.428-1.286,0,1.286,1.715,8.571c0,3,0.43,6.429,1.715,9.429
							c0.428-0.857,0.857-2.143,1.285-3.857c0.43-1.713,1.285-3.428,1.715-5.57c1.285-3.857,1.715-7.286,1.285-9.857
							C521.139,226.456,518.568,226.884,515.566,225.598z"/>
						
							<rect x="381.3" y="505.49" transform="matrix(-0.3097 0.9508 -0.9508 -0.3097 987.2 298.1703)" fill="#5353F9" width="8.141" height="3.857"/>
						
							<rect x="422.574" y="503.917" transform="matrix(-0.3098 0.9508 -0.9508 -0.3098 1039.7852 256.912)" fill="#5353F9" width="8.145" height="3.858"/>
						<path fill="#5353F9" d="M407.139,483.599c-1.715-0.428-3.43-0.428-5.57,0.857c-1.715,0.855-2.572,1.715-3,3
							c1.713,0.428,2.57,1.285,3.428,1.715c0.428,0.428,1.715,0.855,4.285,0.855c-0.857-0.43-0.857-0.855-0.428-2.143
							L407.139,483.599z"/>
						
							<rect x="484.128" y="473.634" transform="matrix(0.1516 0.9884 -0.9884 0.1516 882.8785 -78.7964)" fill="#5353F9" width="6.428" height="2.571"/>
						<path fill="#5353F9" d="M473.996,331.456c-1.715,0.428-3.43,1.285-4.715,3.428c-1.285,1.287-1.713,3-1.285,4.287
							c1.715-0.43,3-0.43,3.857,0c0.428,0.428,2.143,0,4.285-1.287c-0.857,0-1.285-0.428-1.715-1.713L473.996,331.456z"/>
						
							<rect x="392.674" y="454.82" transform="matrix(-0.3103 0.9506 -0.9506 -0.3103 950.5237 221.7697)" fill="#5353F9" width="4.286" height="1.713"/>
						<path fill="#5353F9" d="M393.424,441.599c-1.713-0.428-3.428-0.428-5.57,0.857c-1.713,0.855-2.57,1.715-3,3
							c1.715,0.428,2.57,1.285,3.43,1.715c0.428,0.428,1.713,0.855,4.285,0.855c-0.857-0.43-0.857-0.855-0.428-2.143
							L393.424,441.599z"/>
						<polygon fill="#5353F9" points="498.424,241.028 500.139,229.456 497.996,228.598 496.711,240.598 						"/>
						
							<rect x="371.291" y="496.679" transform="matrix(-0.3099 0.9508 -0.9508 -0.3099 962.2092 296.6927)" fill="#5353F9" width="4.285" height="1.713"/>
						
							<rect x="378.873" y="482.572" transform="matrix(-0.3099 0.9508 -0.9508 -0.3099 960.5384 270.546)" fill="#5353F9" width="6.428" height="2.569"/>
						
							<rect x="434.01" y="452.856" transform="matrix(-0.3095 0.9509 -0.9509 -0.3095 1002.5832 179.4125)" fill="#5353F9" width="4.285" height="1.715"/>
						<path fill="#5353F9" d="M409.281,496.884c1.287-0.857-1.285,0.857-7.285,5.143c-3,0.857-5.572,2.572-8.143,5.145
							c0.855,0,2.143,0,3.855-0.428c1.715,0,3.43-0.43,5.572-0.43c4.285-0.43,7.285-1.287,9.428-2.57
							C410.996,502.026,409.711,499.884,409.281,496.884z"/>
						
							<rect x="385.783" y="476.303" transform="matrix(-0.3097 0.9508 -0.9508 -0.3097 965.3047 255.6356)" fill="#5353F9" width="8.142" height="3.858"/>
						
							<rect x="427.177" y="474.345" transform="matrix(-0.3099 0.9508 -0.9508 -0.3099 1017.7157 213.8475)" fill="#5353F9" width="8.143" height="3.858"/>
						<path fill="#5353F9" d="M424.281,479.741c-0.428-1.285,0,1.285,1.715,8.57c0,3,0.428,6.43,1.715,9.43
							c0.43-0.857,0.857-2.145,1.285-3.857s1.285-3.428,1.715-5.57c1.285-3.857,1.713-7.287,1.285-9.857
							C429.854,480.599,427.281,481.026,424.281,479.741z"/>
						
							<rect x="408.827" y="461.473" transform="matrix(-0.3097 0.9508 -0.9508 -0.3097 981.4009 214.3451)" fill="#5353F9" width="8.141" height="3.857"/>
						
							<rect x="450.102" y="459.898" transform="matrix(-0.3097 0.9508 -0.9508 -0.3097 1033.9427 172.9947)" fill="#5353F9" width="8.142" height="3.858"/>
						<polygon fill="#5353F9" points="400.281,402.599 401.568,392.741 399.424,392.313 398.568,402.171 						"/>
						
							<rect x="327.858" y="475.794" transform="matrix(-0.3099 0.9508 -0.9508 -0.3099 885.4591 310.629)" fill="#5353F9" width="4.285" height="1.715"/>
						
							<rect x="344.276" y="482.97" transform="matrix(-0.3099 0.9508 -0.9508 -0.3099 917.3259 303.9647)" fill="#5353F9" width="8.143" height="3.858"/>
						<path fill="#5353F9" d="M328.711,463.026c-1.715-0.428-3.43-0.428-5.57,0.857c-1.717,0.857-2.572,1.715-3,3
							c1.713,0.43,2.57,1.287,3.428,1.715c0.428,0.428,1.715,0.857,4.285,0.857c-0.857-0.43-0.857-0.857-0.43-2.145L328.711,463.026
							z"/>
						
							<rect x="455.667" y="487.771" transform="matrix(-0.3098 0.9508 -0.9508 -0.3098 1063.9595 204.9485)" fill="#5353F9" width="3.858" height="1.713"/>
						<polygon fill="#5353F9" points="487.711,452.313 488.568,447.171 487.281,446.741 486.854,451.884 						"/>
						
							<rect x="503.777" y="407.685" transform="matrix(-0.3088 0.9511 -0.9511 -0.3088 1048.9288 53.987)" fill="#5353F9" width="2.144" height="0.859"/>
						<path fill="#5353F9" d="M507.854,425.741c0-0.857,0,0.43,0.855,3.855c0,1.287,0,3,0.857,4.287c0-0.43,0.428-0.857,0.428-1.715
							c0.43-0.857,0.43-1.715,0.857-2.572c0.43-1.713,0.857-3.428,0.43-4.285C510.424,425.741,509.139,426.171,507.854,425.741z"/>
						
							<rect x="500.964" y="417.545" transform="matrix(-0.3098 0.9508 -0.9508 -0.3098 1056.5206 69.8951)" fill="#5353F9" width="3.858" height="1.713"/>
						<path fill="#5353F9" d="M499.711,419.741c0-0.857,0,0.43,0.855,3.855c0,1.287,0,3,0.857,4.287c0-0.43,0.43-0.857,0.43-1.715
							c0.428-0.857,0.428-1.715,0.855-2.572c0.43-1.713,0.857-3.428,0.43-4.285C502.281,420.171,500.996,420.171,499.711,419.741z"
							/>
						
							<rect x="492.547" y="411.889" transform="matrix(-0.3098 0.9508 -0.9508 -0.3098 1040.1196 70.4917)" fill="#5353F9" width="3.858" height="1.715"/>
						
							<rect x="511.45" y="410.946" transform="matrix(-0.3094 0.9509 -0.9509 -0.3094 1063.8096 51.018)" fill="#5353F9" width="3.857" height="1.715"/>
						<path fill="#5353F9" d="M422.139,348.599c-0.857,0-1.285,0.428-2.145,1.285c-0.428,0.857-0.855,1.287-0.428,1.715
							c0.855,0,1.285,0,1.715,0c0.428,0,0.857,0,2.143-0.428c-0.43,0-0.43,0-0.855-0.857L422.139,348.599z"/>
						<path fill="#5353F9" d="M485.139,433.884c0-0.857,0,0.43,0.855,3.857c0,1.285,0,3,0.857,4.285c0-0.43,0.43-0.855,0.43-1.715
							c0.428-0.855,0.428-1.715,0.857-2.57c0.428-1.715,0.855-3.43,0.428-4.285C487.711,434.313,486.424,434.313,485.139,433.884z"
							/>
						<path fill="#5353F9" d="M487.281,420.599c0-0.855,0,0.428,0.857,3.857c0,1.285,0,3,0.855,4.285c0-0.43,0.43-0.857,0.43-1.715
							c0.43-0.855,0.43-1.715,0.857-2.57c0.428-1.715,0.857-3.43,0.428-4.285C489.854,421.026,488.568,421.026,487.281,420.599z"/>
						<path fill="#5353F9" d="M497.996,414.171c0-0.857,0,0.428,0.857,3.855c0,1.285,0,3,0.855,4.285c0-0.428,0.43-0.855,0.43-1.715
							c0.43-0.855,0.43-1.713,0.855-2.57c0.43-1.715,0.857-3.43,0.43-4.285C500.139,414.599,499.281,414.599,497.996,414.171z"/>
						
							<rect x="490.559" y="406.08" transform="matrix(-0.3098 0.9508 -0.9508 -0.3098 1031.9921 64.7703)" fill="#5353F9" width="3.858" height="1.713"/>
						<path fill="#5353F9" d="M434.996,439.884c-1.715-0.428-3.43-0.428-5.572,0.857c-1.713,0.855-2.57,1.715-3,3
							c1.717,0.43,2.572,1.285,3.43,1.715c0.43,0.428,1.715,0.855,4.287,0.855c-0.859-0.428-0.859-0.855-0.43-2.141L434.996,439.884
							z"/>
						<path fill="#5353F9" d="M484.711,475.884c0,0.857,0.43,1.287,0.855,1.715c0.857,0,1.287,0,1.715-0.855L484.711,475.884z"/>
						<path fill="#5353F9" d="M467.139,403.884c0.43,0.857,0.855,1.287,1.715,0.857c0.857-0.43,1.285-0.857,0.855-1.285
							L467.139,403.884z"/>
						
							<rect x="492.253" y="385.072" transform="matrix(0.1519 0.9884 -0.9884 0.1519 800.3507 -161.3247)" fill="#5353F9" width="3.857" height="1.284"/>
						<polygon fill="#5353F9" points="475.711,387.599 473.568,381.171 472.281,381.599 474.854,388.026 						"/>
						<polygon fill="#5353F9" points="482.139,402.171 484.711,399.599 483.424,397.884 481.281,400.456 						"/>
						
							<rect x="508.334" y="346.454" transform="matrix(0.9651 0.2618 -0.2618 0.9651 108.6614 -121.4762)" fill="#5353F9" width="3.857" height="1.285"/>
						
							<rect x="494.206" y="349.218" transform="matrix(0.1503 0.9886 -0.9886 0.1503 765.7286 -192.1163)" fill="#5353F9" width="0.857" height="0.427"/>
						<polygon fill="#5353F9" points="477.854,373.026 479.568,371.741 478.711,370.456 477.424,372.171 						"/>
						<polygon fill="#5353F9" points="492.424,343.456 491.139,339.599 490.281,339.599 491.996,343.884 						"/>
						<polygon fill="#5353F9" points="491.568,365.741 493.281,364.026 492.424,363.171 491.139,364.456 						"/>
						<path fill="#5353F9" d="M482.996,363.599c-1.285-0.428-1.715,0-0.855,1.285h0.855c0.857,0,1.715-0.428,2.145-0.857
							C484.281,364.026,483.854,364.026,482.996,363.599z"/>
						<path fill="#5353F9" d="M484.711,340.026c-0.43,0.43-0.43,0.857-0.43,1.287c0.43,0,0.857,0,1.287,0
							c0.428,0.43,0.855,0,1.285-0.43c-0.43-0.428-0.857-0.857-1.287-1.285c0-0.428-0.428-0.855-0.428-0.855
							C484.711,339.171,484.711,339.599,484.711,340.026z"/>
						<path fill="#5353F9" d="M474.424,353.313c-0.428-0.43,0.43,0.43,2.145,2.57c0.428,0.857,1.285,2.143,2.143,3
							c0-0.428,0-0.857-0.428-1.285c0-0.428,0-1.285-0.43-2.143c-0.43-1.715-0.857-2.572-1.285-3.43
							C476.568,352.456,475.711,352.884,474.424,353.313z"/>
						<polygon fill="#5353F9" points="473.568,367.026 472.281,363.171 470.996,363.171 472.711,367.456 						"/>
						<polygon fill="#5353F9" points="487.281,359.741 485.568,355.456 484.711,355.456 486.424,359.741 						"/>
						<polygon fill="#5353F9" points="488.996,340.026 487.711,336.171 486.854,336.171 488.139,340.456 						"/>
						<polygon fill="#5353F9" points="393.854,433.456 398.568,428.741 397.711,427.884 392.996,432.599 						"/>
						
							<rect x="435.775" y="435.026" transform="matrix(-0.8431 0.5378 -0.5378 -0.8431 1038.0198 567.6179)" fill="#5353F9" width="0.857" height="0.429"/>
						<path fill="#5353F9" d="M461.139,410.313c0,0,0.428,0.43,1.285,0.43c0.43,0,0.857,0,1.285,0.428
							c-0.428-1.287-0.428-1.715-0.855-2.145L461.139,410.313z"/>
						<polygon fill="#5353F9" points="407.568,429.599 409.711,430.456 410.568,429.171 408.424,428.741 						"/>
						<polygon fill="#5353F9" points="440.568,430.884 443.996,427.884 443.568,427.026 440.139,430.456 						"/>
						
							<rect x="464.225" y="394.453" transform="matrix(-0.8439 0.5365 -0.5365 -0.8439 1070.7224 478.6284)" fill="#5353F9" width="3" height="1.286"/>
						<path fill="#5353F9" d="M418.281,430.456c-0.428-1.285-0.857-1.285-1.713,0l0.428,0.428c0.428,0.857,1.285,1.287,1.715,1.287
							C418.711,431.741,418.281,430.884,418.281,430.456z"/>
						<path fill="#5353F9" d="M440.568,422.313c-0.43,0-0.857,0-1.287,0.43c0.43,0.428,0.43,0.855,0.43,1.283
							c0,0.43,0.43,0.857,0.855,1.287c0-0.43,0-1.287,0.43-1.715c0.428-0.428,0.857-0.855,0.428-0.855
							C441.424,421.884,440.996,421.884,440.568,422.313z"/>
						
							<rect x="461.141" y="397.974" transform="matrix(-0.8439 0.5364 -0.5364 -0.8439 1069.6299 487.339)" fill="#5353F9" width="5.571" height="2.572"/>
						<path fill="#5353F9" d="M424.711,418.456c0.43-0.43-0.43,0.428-1.715,3c-0.855,0.855-1.285,1.715-1.715,3
							c0.43,0,0.857-0.43,1.287-0.857c0.428-0.428,1.285-0.855,1.713-1.285c1.287-0.857,2.143-1.715,2.572-2.57
							C425.996,419.741,425.568,419.313,424.711,418.456z"/>
						<polygon fill="#5353F9" points="411.424,423.171 414.854,420.171 414.424,419.313 410.996,422.313 						"/>
						<polygon fill="#5353F9" points="423.854,432.599 427.281,429.599 426.854,428.741 423.424,431.741 						"/>
						<path fill="#5353F9" d="M451.281,426.171c0.43-0.43-0.428,0.428-1.713,3c-0.857,0.855-1.287,1.713-1.715,3
							c0.428,0,0.855-0.43,1.285-0.857s1.285-0.857,1.715-1.287c1.285-0.855,2.143-1.713,2.57-2.57
							C452.568,427.456,451.711,427.026,451.281,426.171z"/>
						
							<rect x="456.546" y="426.242" transform="matrix(-0.8439 0.5365 -0.5365 -0.8439 1073.6199 541.3633)" fill="#5353F9" width="3" height="1.285"/>
						<path fill="#5353F9" d="M455.568,412.026c-0.43-0.855-1.715-1.713-3.43-2.143c-1.285-0.428-2.145,0-3,0.43
							c0.43,0.857,0.855,1.713,0.855,2.143s0.43,1.287,2.145,2.143c-0.43-0.428,0-0.855,0.43-1.285L455.568,412.026z"/>
						<polygon fill="#5353F9" points="442.281,426.171 445.711,423.171 445.281,422.741 441.854,425.741 						"/>
						
							<rect x="454.167" y="394.965" transform="matrix(-0.8439 0.5365 -0.5365 -0.8439 1055.1685 485.4669)" fill="#5353F9" width="5.573" height="2.571"/>
						
							<rect x="455.975" y="405.507" transform="matrix(-0.8434 0.5372 -0.5372 -0.8434 1061.124 503.0659)" fill="#5353F9" width="2.57" height="1.287"/>
						<path fill="#5353F9" d="M308.139,513.171c-0.43-0.857-1.285-0.857-2.145-0.857c-0.855,0.43-0.855,1.285-0.855,1.713
							L308.139,513.171z"/>
						<path fill="#5353F9" d="M277.281,496.884c-0.428-0.857-1.285-1.285-2.143-0.857c-0.857,0.43-1.285,1.287-0.857,1.717
							L277.281,496.884z"/>
						
							<rect x="246.673" y="524.355" transform="matrix(-0.3357 -0.942 0.942 -0.3357 -162.0893 936.1187)" fill="#5353F9" width="4.715" height="1.714"/>
						<polygon fill="#5353F9" points="270.424,518.741 274.711,526.026 276.424,525.171 271.711,518.313 						"/>
						<polygon fill="#5353F9" points="259.711,502.884 257.139,506.313 258.852,508.026 260.996,505.026 						"/>
						<polygon fill="#5353F9" points="271.281,536.741 269.996,538.884 270.854,539.741 272.139,537.599 						"/>
						<polygon fill="#5353F9" points="256.711,548.741 255.424,550.884 256.282,552.171 257.568,550.026 						"/>
						<path fill="#5353F9" d="M267.424,549.171c1.717,0,1.717-0.43,0.43-1.715l-0.857,0.428c-1.286,0.43-1.714,0.857-2.143,1.715
							C265.71,549.171,266.568,549.171,267.424,549.171z"/>
						<path fill="#5353F9" d="M280.281,559.884c0.43,0.43-0.428-0.428-3-2.57c-0.857-1.287-1.713-2.143-3.428-3
							c0,0.43,0.428,0.857,0.428,1.713c0.43,0.857,0.43,1.717,0.857,2.572c0.855,1.715,1.285,3,2.143,3.857
							C278.139,561.171,278.996,560.313,280.281,559.884z"/>
						<polygon fill="#5353F9" points="278.139,542.741 280.711,547.456 281.996,547.026 278.996,542.313 						"/>
						<polygon fill="#5353F9" points="263.568,555.171 266.139,559.884 267.424,559.456 264.424,554.741 						"/>
						<g>
							<path fill="#5353F9" d="M479.996,154.884c-0.855-0.429-1.715,0-2.143,0.857c-0.43,0.857,0,1.286,0.428,1.714L479.996,154.884
								z"/>
							<path fill="#5353F9" d="M445.711,163.884c-0.857-0.429-1.715,0-2.143,0.857c-0.43,0.857,0,1.714,0.428,2.143L445.711,163.884
								z"/>
							
								<rect x="441.727" y="203.227" transform="matrix(-0.8832 -0.469 0.469 -0.8832 740.5679 592.6169)" fill="#5353F9" width="4.715" height="1.714"/>
							<polygon fill="#5353F9" points="455.568,184.455 463.281,187.027 464.139,185.313 456.424,183.17 							"/>
							<polygon fill="#5353F9" points="436.711,180.17 437.568,184.027 439.711,184.455 439.281,180.598 							"/>
							
								<rect x="478.935" y="230.503" transform="matrix(-0.8832 -0.4689 0.4689 -0.8832 794.5638 659.2844)" fill="#5353F9" width="0.858" height="0.429"/>
							<polygon fill="#5353F9" points="467.996,197.313 468.424,199.455 470.139,199.884 469.711,197.313 							"/>
							<polygon fill="#5353F9" points="486.424,232.884 491.568,234.598 492.424,233.741 486.854,232.028 							"/>
							<polygon fill="#5353F9" points="465.854,216.17 465.854,218.313 467.568,218.741 467.139,216.17 							"/>
							<path fill="#5353F9" d="M473.996,208.884c1.285-1.286,0.857-1.714-0.855-1.714l-0.43,0.857
								c-0.43,0.857-0.857,2.143-0.43,2.571C472.711,210.17,473.139,209.313,473.996,208.884z"/>
							<path fill="#5353F9" d="M490.281,208.455c0.857,0-0.857,0-4.285,0c-1.285-0.428-3-0.428-4.285,0
								c0.43,0,0.857,0.429,1.713,0.857c0.857,0.428,1.287,0.857,2.145,1.286c1.715,0.857,3,1.286,4.285,1.286
								C489.424,210.598,489.854,209.741,490.281,208.455z"/>
							<polygon fill="#5353F9" points="477.424,197.313 482.568,198.598 482.996,197.741 477.854,196.455 							"/>
							<polygon fill="#5353F9" points="474.854,216.17 479.996,217.884 480.424,216.598 475.281,215.313 							"/>
						</g>
					</g>
					<g>
						<path fill="#5353F9" d="M380.568,310.026c-0.857,0-1.287,0-1.715,0.857c0,0.857,0,1.287,0.428,1.287L380.568,310.026z"/>
						<path fill="#5353F9" d="M353.996,316.884c-0.855,0-1.285,0-1.715,0.857c0,0.855,0,1.285,0.43,1.715L353.996,316.884z"/>
						
							<rect x="350.884" y="348.435" transform="matrix(-0.883 -0.4694 0.4694 -0.883 500.0782 822.8197)" fill="#5353F9" width="3.429" height="1.285"/>
						<polygon fill="#5353F9" points="361.711,333.171 367.711,335.313 368.568,334.026 362.139,332.313 						"/>
						<polygon fill="#5353F9" points="346.711,330.171 347.139,333.171 348.854,333.171 348.424,330.171 						"/>
						
							<rect x="380.146" y="369.785" transform="matrix(-0.8827 -0.4699 0.4699 -0.8827 542.6647 875.4322)" fill="#5353F9" width="0.856" height="0.429"/>
						<polygon fill="#5353F9" points="371.568,343.456 371.568,345.599 372.854,345.599 372.854,343.456 						"/>
						<polygon fill="#5353F9" points="386.139,372.171 389.996,373.456 390.854,372.599 386.568,371.313 						"/>
						<polygon fill="#5353F9" points="369.424,358.456 369.854,360.599 371.139,360.599 370.711,358.456 						"/>
						<path fill="#5353F9" d="M375.854,352.884c0.855-0.857,0.855-1.285-0.43-1.285l-0.43,0.428
							c-0.428,0.857-0.428,1.717-0.428,2.145C374.996,353.741,375.424,353.313,375.854,352.884z"/>
						<path fill="#5353F9" d="M389.139,352.456c0.43,0-0.43,0-3.43,0c-1.285-0.43-2.143-0.43-3.428,0
							c0.428,0,0.855,0.428,1.285,0.855c0.428,0.43,1.285,0.43,1.715,0.857c1.285,0.855,2.57,1.285,3.428,0.855
							C388.711,354.171,388.711,353.313,389.139,352.456z"/>
						<polygon fill="#5353F9" points="378.854,343.456 382.711,344.741 383.139,343.884 379.281,343.026 						"/>
						<polygon fill="#5353F9" points="376.711,358.456 380.996,359.741 381.424,358.884 377.139,358.026 						"/>
					</g>
					<g>
						<path fill="#5353F9" d="M451.281,449.313c0-0.857-0.428-1.287-1.285-1.715c-0.855,0-1.285,0.428-1.715,1.285L451.281,449.313z
							"/>
						<path fill="#5353F9" d="M431.996,419.313c0-0.857-0.428-1.715-1.715-1.715c-0.857,0-1.713,0.428-1.713,1.285L431.996,419.313z
							"/>
						
							<rect x="390.257" y="428.96" transform="matrix(0.1753 -0.9845 0.9845 0.1753 -99.3646 741.0179)" fill="#5353F9" width="4.714" height="1.714"/>
						<polygon fill="#5353F9" points="415.281,435.171 415.281,443.313 416.996,443.741 416.568,435.171 						"/>
						<polygon fill="#5353F9" points="413.139,415.456 409.711,417.171 410.139,419.741 413.996,418.026 						"/>
						
							<rect x="377.155" y="472.658" transform="matrix(0.1755 -0.9845 0.9845 0.1755 -154.2085 761.621)" fill="#5353F9" width="0.857" height="0.431"/>
						<polygon fill="#5353F9" points="406.711,451.026 404.568,452.313 404.568,454.026 407.139,452.741 						"/>
						<polygon fill="#5353F9" points="377.568,480.171 377.568,485.741 378.854,486.171 378.424,480.599 						"/>
						<polygon fill="#5353F9" points="387.424,454.884 385.281,455.741 385.711,457.456 387.854,456.171 						"/>
						<path fill="#5353F9" d="M397.281,460.456c1.287,0.855,2.143,0.428,1.287-1.285h-0.857c-1.287,0-2.143,0-3,0.428
							C395.568,459.599,396.424,460.026,397.281,460.456z"/>
						<path fill="#5353F9" d="M402.854,476.313c0.428,0.857,0-0.857-1.285-3.857c0-1.285-0.43-3-1.287-4.285
							c0,0.428,0,0.855-0.428,1.715c0,0.857-0.43,1.713-0.43,2.57c-0.43,2.143-0.43,3.43,0,4.715
							C400.281,476.313,401.568,475.884,402.854,476.313z"/>
						<polygon fill="#5353F9" points="409.711,460.026 409.711,465.599 410.996,466.026 410.568,460.456 						"/>
						<polygon fill="#5353F9" points="390.424,463.884 390.424,469.026 391.711,469.456 391.281,463.884 						"/>
					</g>
					<g>
						<path fill="#5353F9" d="M491.996,424.884c0-0.857,0-1.713-0.855-1.713c-0.857,0-1.717,0-1.717,0.855L491.996,424.884z"/>
						<path fill="#5353F9" d="M479.568,391.456c0-0.857-0.43-1.715-1.287-2.145c-0.857,0-1.715,0-2.143,0.857L479.568,391.456z"/>
						
							<rect x="436.532" y="392.576" transform="matrix(0.3819 -0.9242 0.9242 0.3819 -92.3444 648.7828)" fill="#5353F9" width="4.715" height="1.714"/>
						<polygon fill="#5353F9" points="459.854,403.456 458.139,411.599 459.854,412.026 461.139,403.884 						"/>
						<polygon fill="#5353F9" points="462.424,383.741 458.139,384.599 458.139,387.171 461.996,386.313 						"/>
						
							<rect x="414.898" y="431.943" transform="matrix(0.3824 -0.924 0.924 0.3824 -142.7945 650.6904)" fill="#5353F9" width="0.858" height="0.429"/>
						<polygon fill="#5353F9" points="448.281,417.171 445.711,418.026 445.711,419.741 448.281,418.884 						"/>
						<polygon fill="#5353F9" points="413.568,439.456 412.281,445.026 413.139,445.456 414.424,439.884 						"/>
						<polygon fill="#5353F9" points="428.568,416.741 425.996,417.171 425.996,418.884 428.568,418.456 						"/>
						<path fill="#5353F9" d="M436.711,424.026c1.285,1.287,1.713,0.857,1.713-0.855l-0.855-0.428c-1.285-0.43-2.145-0.43-3,0
							C435.424,423.171,436.281,423.599,436.711,424.026z"/>
						<path fill="#5353F9" d="M438.854,441.171c0,0.855,0-0.857-0.43-4.287c0-1.285,0-3-0.43-4.285c0,0.428-0.428,0.857-0.855,1.715
							s-0.857,1.713-0.857,2.57c-0.857,1.715-0.857,3.43-0.857,4.715C436.281,440.741,437.568,440.313,438.854,441.171z"/>
						<polygon fill="#5353F9" points="449.139,426.599 447.854,432.171 449.139,432.599 449.996,427.026 						"/>
						<polygon fill="#5353F9" points="429.424,426.171 428.568,431.313 429.424,431.741 430.281,426.599 						"/>
					</g>
					<g>
						<path fill="#5353F9" d="M431.139,164.313c-0.857,0-1.285,0-1.715,0.857c0,0.857,0,1.286,0.43,1.714L431.139,164.313z"/>
						<polygon fill="#5353F9" points="419.568,189.17 426.424,191.313 427.281,190.027 420.424,188.313 						"/>
						
							<rect x="430.342" y="231.961" transform="matrix(-0.8832 -0.4689 0.4689 -0.8832 702.3668 639.2429)" fill="#5353F9" width="0.858" height="0.429"/>
						<polygon fill="#5353F9" points="420.854,202.027 420.854,204.17 422.568,204.598 422.139,202.027 						"/>
						<polygon fill="#5353F9" points="437.139,234.17 441.854,235.456 442.281,234.598 437.568,233.313 						"/>
						<polygon fill="#5353F9" points="418.281,218.741 418.711,221.313 419.996,221.313 419.996,219.17 						"/>
						<path fill="#5353F9" d="M425.568,212.741c1.285-0.857,0.855-1.714-0.857-1.714l-0.43,0.857
							c-0.428,0.857-0.428,1.714-0.428,2.571C424.711,213.598,425.139,213.17,425.568,212.741z"/>
						<path fill="#5353F9" d="M440.568,212.313c0.428,0-0.43,0-3.857,0c-1.287-0.429-2.57-0.429-3.857,0
							c0.43,0,0.857,0.428,1.287,0.857c0.428,0.429,1.283,0.857,2.143,1.286c1.713,0.857,3,1.286,3.857,1.286
							C439.711,214.455,439.711,213.17,440.568,212.313z"/>
						<polygon fill="#5353F9" points="428.996,202.027 433.281,203.741 434.139,202.455 429.424,201.17 						"/>
						<polygon fill="#5353F9" points="426.854,218.741 431.139,220.455 431.568,219.598 426.854,218.313 						"/>
					</g>
					<path fill="#5353F9" d="M466.281,122.741c-0.857-0.428-1.713,0-2.143,0.857s0,1.714,0.43,2.143L466.281,122.741z"/>
					<polygon fill="#5353F9" points="476.568,144.17 484.711,147.17 485.568,145.455 476.996,142.884 					"/>
					<polygon fill="#5353F9" points="456.854,139.884 457.281,144.17 459.854,144.17 459.424,140.313 					"/>
					<path fill="#5353F9" d="M459.424,357.171c-0.855-0.43-1.713,0-2.143,0.855c-0.428,0.857,0,1.715,0.43,2.145L459.424,357.171z"
						/>
					<polygon fill="#5353F9" points="469.711,379.026 477.854,381.599 478.711,379.884 470.139,377.741 					"/>
					<polygon fill="#5353F9" points="449.996,374.313 450.424,378.599 452.996,379.026 452.568,374.741 					"/>
					<polygon fill="#5353F9" points="94.711,112.455 97.282,111.598 97.282,109.884 94.711,110.741 					"/>
					<path fill="#5353F9" d="M99.853,296.313c0.429,0.857,0.857,1.285,1.714,0.857c0.857-0.43,1.286-0.857,0.857-1.287
						L99.853,296.313z"/>
					<path fill="#5353F9" d="M191.139,206.741c0.429,0.857,0.856,1.286,1.713,0.857c0.857-0.429,1.287-0.857,0.857-1.286
						L191.139,206.741z"/>
					<path fill="#5353F9" d="M212.568,184.455c0.429,0.429,0.856,0.857,1.714,0.429c0.857-0.429,1.286-0.429,1.286-0.857
						L212.568,184.455z"/>
					<path fill="#5353F9" d="M174.852,196.027c0.43,0.428,0.857,0.857,1.715,0.428c0.857-0.428,1.285-0.428,1.285-0.857
						L174.852,196.027z"/>
					<path fill="#5353F9" d="M227.139,143.741c0.429,0.429,0.856,0.857,1.713,0.429c0.857-0.429,1.287-0.429,1.287-0.857
						L227.139,143.741z"/>
					<path fill="#5353F9" d="M66.425,196.455c0.428,0.857,0.857,1.286,1.714,0.857c0.857-0.429,1.286-0.857,0.857-1.286
						L66.425,196.455z"/>
					<path fill="#5353F9" d="M89.568,122.741c-0.429,0.429-0.857,0.857-0.857,1.286c0.857,0.428,1.286,0.428,1.286,0.857
						c0.429,0.429,0.857,0.429,1.714,0.429c-0.429-0.429-0.857-1.286-0.857-2.143c0.429-0.857,0-1.286,0-1.286
						C90.425,121.884,89.996,122.313,89.568,122.741z"/>
					<path fill="#5353F9" d="M100.711,115.884c-0.429,0.429-0.857,0.857-0.857,1.286c0.857,0.429,1.286,0.429,1.286,0.857
						c0.429,0.428,0.857,0.428,1.714,0.428c-0.428-0.428-0.857-1.286-0.857-2.143c0.429-0.857,0-1.286,0-1.286
						C101.139,115.027,101.139,115.455,100.711,115.884z"/>
					<path fill="#5353F9" d="M60.425,215.741c0.857,0.429,2.571,0,4.714-1.286c1.714-1.714,3.857-2.143,6-1.714
						c-3.857-3-6.428-4.714-8.143-5.143L60.425,215.741z"/>
					
						<rect x="4.889" y="194.641" transform="matrix(-0.3098 0.9508 -0.9508 -0.3098 197.1833 248.711)" fill="#5353F9" width="6.857" height="2.571"/>
					
						<rect x="63.257" y="163.228" transform="matrix(-0.3098 0.9508 -0.9508 -0.3098 242.158 152.8116)" fill="#5353F9" width="4.714" height="2.143"/>
					
						<rect x="80.171" y="207.961" transform="matrix(-0.3098 0.9508 -0.9508 -0.3098 310.6697 194.6977)" fill="#5353F9" width="9" height="4.286"/>
					
						<rect x="36.503" y="172.706" transform="matrix(-0.3097 0.9508 -0.9508 -0.3097 219.9525 190.021)" fill="#5353F9" width="9" height="4.285"/>
					<path fill="#5353F9" d="M64.282,149.313c-1.714-0.429-3.857-0.429-6,0.857c-1.714,0.857-2.571,2.143-3,3.429
						c1.714,0.429,3,1.286,3.857,1.714c0.429,0.428,1.714,0.857,4.714,0.857c-0.857-0.429-1.286-0.857-0.857-2.571L64.282,149.313z"
						/>
					
						<rect x="2.447" y="205.803" transform="matrix(-0.3097 0.9508 -0.9508 -0.3097 206.8204 265.7397)" fill="#5353F9" width="9" height="4.286"/>
					
						<rect x="68.372" y="173.656" transform="matrix(0.1516 0.9884 -0.9884 0.1516 233.8328 77.4476)" fill="#5353F9" width="6.857" height="2.571"/>
					
						<rect x="7.268" y="174.658" transform="matrix(-0.3098 0.9508 -0.9508 -0.3098 183.5181 220.3797)" fill="#5353F9" width="9" height="4.286"/>
					<path fill="#5353F9" d="M30.425,130.884c-0.429-1.714,0.428,1.714,2.143,9.429c0,3.428,0.429,6.428,1.714,9.857
						c0.429-0.857,0.857-2.143,1.286-3.857c0.429-1.714,1.286-3.857,1.714-6c1.286-4.286,1.714-7.714,1.286-10.286
						C35.996,131.313,33.425,131.741,30.425,130.884z"/>
					<path fill="#5353F9" d="M209.568,189.17c-0.429,1.714,0.429-1.714,2.144-9.429c0-3.428,0.428-6.428,1.713-9.857
						c0.428,0.857,0.857,2.143,1.287,3.857c0.428,1.714,1.285,3.857,1.713,6c1.287,4.286,1.715,7.714,1.287,10.286
						C215.568,188.741,212.568,188.313,209.568,189.17z"/>
					
						<rect x="37.903" y="188.765" transform="matrix(-0.3096 0.9509 -0.9509 -0.3096 232.468 210.4644)" fill="#5353F9" width="3.857" height="1.715"/>
					<polygon fill="#5353F9" points="71.996,151.027 72.853,145.884 71.568,145.455 71.139,151.027 					"/>
					
						<rect x="89.317" y="103.915" transform="matrix(-0.3092 0.951 -0.951 -0.3092 217.5654 50.6448)" fill="#5353F9" width="2.143" height="0.857"/>
					<path fill="#5353F9" d="M93.425,122.741c0-0.857,0,0.857,0.857,4.286c0,1.286,0,3,0.857,4.286c0-0.429,0.429-0.857,0.429-1.714
						c0.429-0.857,0.429-1.714,0.857-2.571c0.428-2.143,0.857-3.429,0.428-4.714C95.996,123.17,94.711,123.17,93.425,122.741z"/>
					
						<rect x="86.074" y="114.471" transform="matrix(-0.3099 0.9508 -0.9508 -0.3099 224.9267 67.4008)" fill="#5353F9" width="3.857" height="1.714"/>
					<path fill="#5353F9" d="M84.853,116.741c0-0.857,0,0.857,0.857,4.286c0,1.286,0,3,0.857,4.286c0-0.429,0.429-0.857,0.429-1.714
						c0.429-0.857,0.429-1.714,0.857-2.571c0.429-2.143,0.857-3.429,0.429-4.714C87.425,117.17,86.139,117.17,84.853,116.741z"/>
					
						<rect x="77.406" y="108.15" transform="matrix(-0.3099 0.9508 -0.9508 -0.3099 207.5611 67.3626)" fill="#5353F9" width="3.857" height="1.714"/>
					
						<rect x="97.232" y="107.247" transform="matrix(-0.3095 0.9509 -0.9509 -0.3095 232.6469 47.2696)" fill="#5353F9" width="3.857" height="1.714"/>
					<path fill="#5353F9" d="M55.711,131.741c0-0.857,0,0.857,0.857,4.286c0,1.286,0,3,0.857,4.286c0-0.429,0.428-0.857,0.428-1.714
						c0.429-0.857,0.429-1.714,0.857-2.571c0.428-2.143,0.857-3.429,0.428-4.714C58.282,132.17,56.996,132.17,55.711,131.741z"/>
					<path fill="#5353F9" d="M71.568,117.598c0-0.857,0,0.857,0.857,4.286c0,1.286,0,3,0.857,4.286c0-0.429,0.429-0.857,0.429-1.714
						c0.428-0.857,0.428-1.714,0.857-2.571c0.429-2.143,0.857-3.429,0.429-4.714C74.139,118.027,72.853,118.455,71.568,117.598z"/>
					<path fill="#5353F9" d="M82.711,110.741c0-0.857,0,0.857,0.857,4.286c0,1.286,0,3,0.857,4.286c0-0.429,0.428-0.857,0.428-1.714
						c0.429-0.857,0.429-1.714,0.857-2.571c0.428-2.143,0.857-3.429,0.428-4.714C85.282,111.17,83.996,111.17,82.711,110.741z"/>
					
						<rect x="75.361" y="102.15" transform="matrix(-0.3099 0.9508 -0.9508 -0.3099 199.1763 61.442)" fill="#5353F9" width="3.857" height="1.714"/>
					
						<rect x="189.985" y="172.647" transform="matrix(-0.3098 0.9508 -0.9508 -0.3098 418.7034 43.9117)" fill="#5353F9" width="6.857" height="2.572"/>
					
						<rect x="198.71" y="165.885" transform="matrix(-0.3097 0.9508 -0.9508 -0.3097 422.0881 27.4863)" fill="#5353F9" width="4.714" height="2.142"/>
					
						<rect x="178.658" y="161.492" transform="matrix(-0.3098 0.9508 -0.9508 -0.3098 393.2615 40.0704)" fill="#5353F9" width="6.857" height="2.571"/>
					
						<rect x="185.718" y="154.359" transform="matrix(-0.3097 0.9508 -0.9508 -0.3097 397.9345 24.1032)" fill="#5353F9" width="9" height="4.286"/>
					
						<rect x="24.079" y="236.768" transform="matrix(-0.8831 -0.4692 0.4692 -0.8831 -65.0337 457.7629)" fill="#5353F9" width="0.858" height="0.429"/>
					<polygon fill="#5353F9" points="31.711,239.313 36.853,241.028 37.711,240.17 32.139,238.456 					"/>
					<path fill="#5353F9" d="M35.568,214.027c0.857,0-0.857,0-4.286,0c-1.286-0.429-3-0.429-4.286,0
						c0.429,0,0.857,0.428,1.714,0.857c0.857,0.429,1.714,0.857,2.571,1.286c1.714,0.857,3.429,1.286,4.286,1.286
						C34.711,216.598,34.711,215.313,35.568,214.027z"/>
					<polygon fill="#5353F9" points="19.711,222.17 24.853,223.884 25.711,222.598 20.139,221.313 					"/>
					<path fill="#5353F9" d="M23.139,266.313c-0.428,0.855-0.428,1.285-0.428,1.715c0.857,0,1.286,0,1.714,0
						c0.428,0.428,0.857,0,1.714-0.43c-0.857-0.43-1.286-0.855-1.714-1.715c0-0.855-0.429-1.285-0.857-1.285
						C23.139,265.028,22.711,265.884,23.139,266.313z"/>
					<polygon fill="#5353F9" points="56.996,177.598 59.568,176.741 59.568,175.027 56.996,175.884 					"/>
					<path fill="#5353F9" d="M71.568,214.027c0.429,0.857,0.857,1.286,1.714,0.857s1.286-0.857,1.286-1.714L71.568,214.027z"/>
					<path fill="#5353F9" d="M35.568,271.026c0.429,0,1.286-0.855,2.571-2.143c0.429-1.715,1.714-2.57,3-2.57
						c-3-0.43-5.143-0.857-6.428-0.43L35.568,271.026z"/>
					
						<rect x="27.924" y="210.292" transform="matrix(0.1517 0.9884 -0.9884 0.1517 233.454 149.8547)" fill="#5353F9" width="3" height="1.286"/>
					<path fill="#5353F9" d="M22.282,240.17c-1.286,0.429-3,1.286-4.286,3c-0.857,1.286-1.286,2.57-1.286,3.429
						c1.286-0.429,2.571,0,3.428,0c0.429,0.429,1.714,0,3.857-1.286c-0.857,0-1.286-0.429-1.286-1.714L22.282,240.17z"/>
					<path fill="#5353F9" d="M49.711,264.169c0.428,0,1.286-0.856,2.571-2.141c0.429-1.715,1.714-2.572,3-2.572
						c-3-0.857-5.143-1.286-6.429-0.857L49.711,264.169z"/>
					<path fill="#5353F9" d="M59.568,245.313c0.429,0,1.286-0.857,2.571-2.143c0.429-1.715,1.714-2.571,3-2.571
						c-3-0.429-5.143-0.856-6.428-0.429L59.568,245.313z"/>
					<path fill="#5353F9" d="M44.996,246.17c-1.714-0.43-2.143,0-0.857,1.714h0.857c1.286,0,2.143-0.429,2.571-1.286
						C46.711,246.598,45.853,246.17,44.996,246.17z"/>
					<path fill="#5353F9" d="M40.282,256.884c-0.429,0.856-0.429,1.286-0.429,1.714c0.857,0,1.286,0,1.714,0
						c0.429,0.43,0.857,0,1.714-0.429c-0.857-0.429-1.286-0.856-1.714-1.714c0-0.857-0.429-1.286-0.857-1.286
						C40.282,255.598,40.282,256.028,40.282,256.884z"/>
					<polygon fill="#5353F9" points="56.139,186.17 58.282,174.17 55.711,173.313 54.425,185.741 					"/>
				</g>
			</g>
		</g>
	</g>
</g>
</svg>
