<?xml version="1.0" encoding="utf-8"?>
<!-- Generator: Adobe Illustrator 15.0.2, SVG Export Plug-In . SVG Version: 6.00 Build 0)  -->
<!DOCTYPE svg PUBLIC "-//W3C//DTD SVG 1.1//EN" "http://www.w3.org/Graphics/SVG/1.1/DTD/svg11.dtd">
<svg version="1.1" id="Layer_1" xmlns="http://www.w3.org/2000/svg" xmlns:xlink="http://www.w3.org/1999/xlink" x="0px" y="0px"
	 width="525.643px" height="525px" viewBox="0 0 525.643 525" enable-background="new 0 0 525.643 525" xml:space="preserve">
<g id="Capa_1">
</g>
<g id="Layer_2">
	<g>
		<g>
			<g>
				<g>
					<defs>
						<circle id="SVGID_1_" cx="262.766" cy="262.5" r="260.143"/>
					</defs>
					<clipPath id="SVGID_2_">
						<use xlink:href="#SVGID_1_"  overflow="visible"/>
					</clipPath>
					<path clip-path="url(#SVGID_2_)" fill="#5353F9" d="M264.479,13.929c-135.857,0-246,110.571-246,246.857
						s110.143,246.428,246,246.428c135.857,0,246-110.571,246-246.428C510.479,124.071,400.337,13.929,264.479,13.929z"/>
				</g>
			</g>
			<g>
				<g>
					<defs>
						<circle id="SVGID_3_" cx="262.766" cy="262.5" r="260.143"/>
					</defs>
					<clipPath id="SVGID_4_">
						<use xlink:href="#SVGID_3_"  overflow="visible"/>
					</clipPath>
					<g clip-path="url(#SVGID_4_)">
						<path fill="#FFFFFF" d="M261.48,3.214C117.909,3.214,1.766,119.786,1.766,262.93c0,143.57,116.571,259.713,259.714,259.713
							c143.572,0,259.714-116.57,259.714-259.713C521.194,119.357,404.624,3.214,261.48,3.214z"/>
						<g>
							<path fill="#5353F9" d="M42.052,397.071c-0.429,0.429-0.429,1.286-0.429,1.715c0.857,0,1.286,0,1.286,0
								c0.428,0.428,0.857,0,1.714-0.429c-0.428-0.43-1.286-0.857-1.714-1.716c0-0.855-0.429-1.284-0.857-0.855
								C42.052,395.786,42.052,396.643,42.052,397.071z"/>
							<path fill="#5353F9" d="M490.337,230.357c-0.857,0-1.285,0.429-2.143,1.285c-0.428,0.857-0.857,1.287-0.428,1.715
								c0.857,0,1.285,0,1.713,0c0.43,0,0.857,0,2.145-0.428c-0.43,0-0.43,0-0.857-0.857L490.337,230.357z"/>
							<path fill="#5353F9" d="M464.194,178.929c-0.428-0.429,0.43,0.428,2.572,3c0.428,1.286,1.285,2.571,2.57,3.428
								c0-0.428,0-0.857-0.43-1.714c0-0.857-0.428-1.714-0.428-2.572c-0.428-1.714-0.855-3.428-1.715-4.286
								C466.337,178.071,465.479,178.929,464.194,178.929z"/>
							
								<rect x="454.469" y="174.025" transform="matrix(0.1514 0.9885 -0.9885 0.1514 560.1689 -302.7307)" fill="#5353F9" width="3.857" height="1.713"/>
							<path fill="#5353F9" d="M460.337,190.5c-0.43,0.429-0.43,1.286-0.43,1.714c0.857,0,1.287,0,1.287,0
								c0.43,0.429,0.857,0,1.713-0.429c-0.428-0.429-1.283-0.857-1.713-1.714c0-0.857-0.43-1.286-0.857-0.857
								C460.337,189.214,460.337,189.643,460.337,190.5z"/>
							<path fill="#5353F9" d="M424.337,178.929c-0.857,0-1.285,0.428-2.143,1.286c-0.428,0.856-0.857,1.285-0.428,1.714
								c0.857,0,1.285,0,1.713,0c0.43,0,0.857,0,2.145-0.429c-0.43,0-0.43,0-0.857-0.857L424.337,178.929z"/>
							
								<rect x="490.397" y="359.909" transform="matrix(-0.3099 0.9508 -0.9508 -0.3099 986.3842 4.7488)" fill="#5353F9" width="2.143" height="0.856"/>
							<path fill="#5353F9" d="M409.337,198.214c-0.43,0.429-0.43,1.286-0.43,1.714c0.857,0,1.287,0,1.287,0
								c0.43,0.428,0.857,0,1.713-0.429c-0.428-0.429-1.283-0.857-1.713-1.714c0-0.857-0.43-1.286-0.857-0.857
								C409.337,196.929,409.337,197.357,409.337,198.214z"/>
							<path fill="#5353F9" d="M469.337,186.643c0.43,0,1.287-0.857,2.143-2.143c0.43-1.286,1.715-2.143,3-2.571
								c-3-0.429-4.713-0.857-6-0.429L469.337,186.643z"/>
							<path fill="#5353F9" d="M472.767,242.786c0.428,0,1.285-0.856,2.143-2.144c0.43-1.285,1.715-2.143,3-2.572
								c-3-0.428-4.715-0.856-6-0.428L472.767,242.786z"/>
							<path fill="#5353F9" d="M472.767,208.929c0.428,0,1.285-0.857,2.143-2.143c0.43-1.286,1.715-2.143,3-2.571
								c-3-0.429-4.715-0.857-6-0.429L472.767,208.929z"/>
							<path fill="#5353F9" d="M466.337,235.5c0.43,0,1.287-0.857,2.143-2.143c0.43-1.287,1.715-2.144,3-2.571
								c-3-0.429-4.713-0.856-6-0.429L466.337,235.5z"/>
							<path fill="#5353F9" d="M489.479,166.071c-1.713-0.428-2.143,0-0.855,1.714h0.855c1.287,0,2.145-0.429,2.572-1.286
								C491.194,166.5,490.337,166.5,489.479,166.071z"/>
							<path fill="#5353F9" d="M416.624,149.786c1.283,1.714,2.57,2.571,3.428,2.571c0.855,0,1.285-0.428,1.285-0.857
								s0.43-0.857,0.857-0.857c0-0.429,0-1.286-0.43-2.143c-0.857-0.857-1.713-1.714-2.57-2.571
								C418.767,147.214,417.909,148.5,416.624,149.786z"/>
							<path fill="#5353F9" d="M425.624,167.786c-0.43,0.429-0.43,1.286-0.43,1.714c0.857,0,1.285,0,1.285,0
								c0.428,0.429,0.857,0,1.715-0.429c-0.43-0.428-1.287-0.857-1.715-1.714c0-0.857-0.428-1.286-0.855-0.857
								C425.624,166.5,425.624,167.357,425.624,167.786z"/>
							<path fill="#5353F9" d="M470.624,293.357c-1.717-0.43-2.145,0-0.857,1.714h0.857c1.283,0,2.143-0.43,2.57-1.285
								C471.909,293.357,471.479,293.357,470.624,293.357z"/>
							<path fill="#5353F9" d="M512.194,246.214c2.145,3.429,4.715,4.714,6.43,4.286c1.715-0.43,2.57-0.857,2.57-1.286
								c0-0.856,0.43-1.714,1.715-1.714c0-1.286,0-2.143-1.285-3.43c-1.285-2.143-3-3.428-4.715-4.713
								C516.479,241.07,514.767,243.643,512.194,246.214z"/>
							<polygon fill="#5353F9" points="522.909,329.786 525.052,328.929 525.052,327.643 522.479,328.071 							"/>
							<path fill="#5353F9" d="M458.194,255.643c-0.855,1.715-2.57,1.715-4.715-0.856c-0.428,3.856,0.43,7.286,2.572,9.856
								c0.428,0,1.715-1.713,3.855-4.713c2.145,0,3.43,1.285,3.857,3.428c0,3.429,0.43,5.571,0.43,6.001
								c0.43,0,0.857-0.43,1.713-1.286c0.857-0.856,1.287-1.715,1.717-2.143c-1.287-3-3.43-7.715-6.43-14.144
								C459.479,253.07,459.052,254.357,458.194,255.643z"/>
							
								<rect x="476.673" y="235.094" transform="matrix(0.1517 0.9884 -0.9884 0.1517 638.6606 -272.6573)" fill="#5353F9" width="3.001" height="1.286"/>
							<polygon fill="#5353F9" points="463.767,237.214 462.052,232.5 460.767,232.5 462.909,237.643 							"/>
							
								<rect x="492.661" y="212.481" transform="matrix(0.1522 0.9884 -0.9884 0.1522 629.0184 -307.4749)" fill="#5353F9" width="2.143" height="0.858"/>
							<path fill="#5353F9" d="M480.052,422.786c0.428,0.855,0.855,0.855,1.715,0.855c0.857-0.429,0.857-0.855,0.857-1.284
								L480.052,422.786z"/>
							<path fill="#5353F9" d="M497.624,344.786c-0.43,0.428-0.857,0.855-0.857,1.285c0.857,0.429,1.285,0.429,1.285,0.856
								c0.43,0.43,0.855,0.43,1.715,0.43c-0.43-0.43-0.857-1.286-0.857-2.145c0.43-0.855,0-1.285,0-1.285
								C498.052,343.929,497.624,344.357,497.624,344.786z"/>
							<path fill="#5353F9" d="M54.052,401.357c0.429,0,1.286-0.857,2.143-2.145c0.428-1.285,1.714-2.143,3-2.571
								c-3-0.429-4.714-0.855-6-0.429L54.052,401.357z"/>
							<path fill="#5353F9" d="M501.479,236.786c-1.285-0.429-1.285,0-0.855,1.286h0.855c0.857,0,1.287-0.428,1.715-0.857
								C502.767,236.786,501.909,236.786,501.479,236.786z"/>
							<path fill="#5353F9" d="M462.909,244.5c1.285,1.714,2.57,2.57,3.43,2.57c0.857,0,1.285-0.428,1.285-0.856
								s0.43-0.856,0.855-0.856c0-0.43,0-1.287-0.428-2.144c-0.857-0.856-1.715-1.714-2.572-2.571
								C465.479,241.93,464.194,243.214,462.909,244.5z"/>
							<polygon fill="#5353F9" points="500.624,226.5 502.337,224.786 501.479,223.5 499.767,225.214 							"/>
							
								<rect x="46.785" y="344.167" transform="matrix(0.1516 0.9884 -0.9884 0.1516 381.7883 244.8029)" fill="#5353F9" width="3.001" height="1.286"/>
							<polygon fill="#5353F9" points="517.767,190.929 516.052,185.786 515.194,186.214 516.909,190.929 							"/>
							<path fill="#5353F9" d="M496.337,409.071c0.43,0.856,0.857,0.856,1.715,0.856c0.855-0.429,0.855-0.856,0.855-1.286
								L496.337,409.071z"/>
							<path fill="#5353F9" d="M518.194,339.643c-0.428,0.43-0.855,0.857-0.855,1.286c0.855,0.43,1.285,0.43,1.285,0.857
								c0.43,0.428,0.855,0.428,1.715,0.428c-0.43-0.428-0.857-1.285-0.857-2.143c0.43-0.857,0-1.285,0-1.285
								C518.624,338.786,518.194,339.214,518.194,339.643z"/>
							<path fill="#5353F9" d="M525.479,216.643c-1.285,0.428-2.57,1.286-3.855,2.571c-0.857,1.286-1.285,2.143-1.285,3.428
								c1.285-0.428,2.57,0,3.428,0c0.43,0.429,1.715,0,3.43-1.286c-0.857,0-1.287-0.428-1.287-1.286L525.479,216.643z"/>
							<path fill="#5353F9" d="M423.909,230.357c0.43,1.713,1.285,3.429,3,4.285c-0.855,3-1.285,6-0.855,8.144l0.428,3.429
								c0.428,0.43,1.715,0.43,3,0.43c0.428,0,1.285,0,1.715-0.43c0.855,0,1.285,0,2.143-0.429c0.428-1.286,0.428-2.572,0.428-3.856
								c0-0.857,0-2.144,0-3l-0.43-3.43l-2.143,0.43c-0.43,0.428-0.857,1.713-0.857,3.856l-1.713,0.429l-1.717-3
								c0-0.857,0.43-1.714,0.857-2.57c0.43-0.43,0.43-0.857,0.857-1.287c0.428-0.429,0.428-0.856,0.855-1.285
								c0,0-0.428-0.428-0.428-0.857c-0.855-1.285-1.283-1.715-1.283-1.285L423.909,230.357z"/>
							<path fill="#5353F9" d="M67.337,394.929c0.429,0,1.286-0.856,2.143-2.143c0.429-1.286,1.714-2.145,3-2.572
								c-3-0.428-4.714-0.855-6-0.428L67.337,394.929z"/>
							<polygon fill="#5353F9" points="510.479,191.357 515.194,186.643 513.052,183.214 508.337,187.929 							"/>
							<path fill="#5353F9" d="M502.767,398.786c0.428,0.855,0.857,0.855,1.713,0.855c0.857-0.429,0.857-0.855,0.857-1.284
								L502.767,398.786z"/>
							<path fill="#5353F9" d="M528.479,333.214c-0.428,0.429-0.855,0.857-0.855,1.286c0.855,0.429,1.285,0.429,1.285,0.857
								c0.43,0.429,0.857,0.429,1.715,0.429c-0.43-0.429-0.857-1.286-0.857-2.144c0.428-0.855,0-1.284,0-1.284
								C528.909,332.357,528.479,332.786,528.479,333.214z"/>
							<path fill="#5353F9" d="M417.052,262.07c-0.857,0-1.285,0.43-2.145,1.287c-0.428,0.856-0.855,1.285-0.428,1.713
								c0.857,0,1.285,0,1.715,0s0.857,0,2.143-0.428c-0.43,0-0.43,0-0.857-0.857L417.052,262.07z"/>
							<path fill="#5353F9" d="M441.052,210.214c0.428,1.714,1.285,3.429,3,4.286c-0.857,3-1.285,6-0.857,8.143l0.43,3.427
								c0.428,0.43,1.715,0.43,3,0.43c0.428,0,1.285,0,1.715-0.43c0.855,0,1.285,0,2.143-0.428c0.43-1.286,0.43-2.572,0.43-3.856
								c0-0.857,0-2.143,0-3l-0.43-3.429l-2.143,0.429c-0.43,0.429-0.857,1.714-0.857,3.857l-1.715,0.428l-1.715-3
								c0-0.857,0.428-1.714,0.855-2.571c0.43-0.429,0.43-0.857,0.857-1.286c0.428-0.429,0.43-0.857,0.857-1.286
								c0,0-0.43-0.429-0.43-0.857c-0.855-1.286-1.285-1.714-1.285-1.286L441.052,210.214z"/>
							<path fill="#5353F9" d="M63.052,377.786c-1.714-0.429-1.714,0-0.857,1.714h0.857c1.286,0,2.143-0.429,2.571-1.286
								C64.766,378.214,63.909,378.214,63.052,377.786z"/>
							<path fill="#5353F9" d="M485.624,220.071c1.283,1.714,2.57,2.571,3.428,2.571c0.855,0,1.285-0.428,1.285-0.857
								c0-0.429,0.43-0.857,0.857-0.857c0-0.429,0-1.286-0.43-2.143c-0.857-0.857-1.713-1.714-2.57-2.571
								C487.767,217.5,486.909,218.786,485.624,220.071z"/>
							<polygon fill="#5353F9" points="522.909,202.071 524.624,200.357 523.767,199.071 522.052,200.786 							"/>
							<path fill="#5353F9" d="M58.337,388.071c-0.428,0.429-0.428,1.286-0.428,1.715c0.857,0,1.286,0,1.286,0
								c0.428,0.428,0.857,0,1.714-0.429c-0.429-0.43-1.286-0.857-1.714-1.716c0-0.855-0.429-1.284-0.857-0.855
								C58.337,386.786,58.337,387.214,58.337,388.071z"/>
							<path fill="#5353F9" d="M506.624,221.357c-0.857,0-1.287,0.429-2.145,1.286c-0.43,0.857-0.855,1.286-0.43,1.714
								c0.857,0,1.287,0,1.715,0c0.43,0,0.857,0,2.143-0.428c-0.428,0-0.428,0-0.855-0.857L506.624,221.357z"/>
							<path fill="#5353F9" d="M480.479,169.929c-0.428-0.429,0.43,0.428,2.572,3c0.428,1.286,1.285,2.571,2.572,3.428
								c0-0.428,0-0.857-0.43-1.714c0-0.857-0.43-1.714-0.43-2.572c-0.428-1.714-0.857-3.428-1.715-4.286
								C482.624,169.071,481.767,169.5,480.479,169.929z"/>
							
								<rect x="470.631" y="164.86" transform="matrix(0.1514 0.9885 -0.9885 0.1514 564.815 -326.4863)" fill="#5353F9" width="3.857" height="1.713"/>
							<path fill="#5353F9" d="M476.624,181.071c-0.43,0.429-0.43,1.286-0.43,1.714c0.857,0,1.285,0,1.285,0
								c0.428,0.429,0.857,0,1.715-0.429c-0.43-0.428-1.287-0.857-1.715-1.714c0-0.857-0.428-1.286-0.855-0.857
								C476.624,180.214,476.624,180.643,476.624,181.071z"/>
							<path fill="#5353F9" d="M440.624,169.929c-0.857,0-1.287,0.428-2.145,1.286c-0.428,0.857-0.855,1.286-0.428,1.714
								c0.855,0,1.285,0,1.713,0c0.43,0,0.857,0,2.143-0.429c-0.428,0-0.428,0-0.855-0.857L440.624,169.929z"/>
							<path fill="#5353F9" d="M425.624,189.214c-0.43,0.429-0.43,1.286-0.43,1.714c0.857,0,1.285,0,1.285,0
								c0.428,0.428,0.857,0,1.715-0.429c-0.43-0.429-1.287-0.857-1.715-1.714c0-0.857-0.428-1.286-0.855-0.857
								C425.624,187.929,425.624,188.357,425.624,189.214z"/>
							<path fill="#5353F9" d="M485.624,177.214c0.428,0,1.283-0.857,2.143-2.143c0.428-1.286,1.713-2.143,3-2.571
								c-3-0.429-4.715-0.857-6-0.429L485.624,177.214z"/>
							<path fill="#5353F9" d="M489.052,233.786c0.428,0,1.285-0.856,2.143-2.144c0.43-1.285,1.715-2.143,3-2.572
								c-3-0.428-4.715-0.856-6-0.428L489.052,233.786z"/>
							<path fill="#5353F9" d="M496.767,207.214c0.428,0,1.285-0.857,2.143-2.143c0.43-1.286,1.715-2.143,3-2.571
								c-3-0.429-4.715-0.857-6-0.429L496.767,207.214z"/>
							<path fill="#5353F9" d="M475.767,223.071c0.428,0,1.285-0.857,2.143-2.143c0.43-1.286,1.715-2.143,3-2.572
								c-3-0.428-4.715-0.857-6-0.428L475.767,223.071z"/>
							<path fill="#5353F9" d="M444.052,154.929c1.285,1.714,2.572,2.571,3.428,2.571c0.857,0,1.287-0.429,1.287-0.857
								c0-0.429,0.428-0.857,0.857-0.857c0-0.429,0-1.286-0.43-2.143c-0.857-0.857-1.715-1.714-2.57-2.572
								C446.624,151.929,445.337,153.214,444.052,154.929z"/>
							<path fill="#5353F9" d="M441.909,158.786c-0.43,0.429-0.43,1.286-0.43,1.714c0.857,0,1.287,0,1.287,0
								c0.428,0.429,0.857,0,1.713-0.429c-0.428-0.428-1.285-0.857-1.713-1.714c0-0.857-0.43-1.286-0.857-0.857
								C441.909,157.5,441.909,157.929,441.909,158.786z"/>
							<path fill="#5353F9" d="M420.052,410.357c-0.428,0-0.857,0-0.857,0.429c0.43,0.428,0.43,0.428,0.43,0.855
								c0,0.429,0.43,0.43,0.855,0.857c0-0.429,0-0.857,0.43-1.286c0.43-0.428,0.43-0.428,0.43-0.855
								C420.479,409.929,420.052,410.357,420.052,410.357z"/>
							<path fill="#5353F9" d="M387.909,379.5c-0.43,0-0.855,0-1.715,0.429c-0.428,0.43-0.855,0.43-0.855,0.857
								c0.428,0,0.855,0.428,0.855,0.428s0.43,0.429,1.285,0c-0.428,0-0.428-0.428,0-0.428L387.909,379.5z"/>
							<path fill="#5353F9" d="M435.909,375.643c0,1.286,0.43,2.145,1.285,2.145c0.43,0,0.857,0,0.857,0
								c0-0.429,0.428-0.429,0.855-0.429c0.43-0.43,0.43-0.857,0-1.286c0-0.857-0.428-1.285-0.428-2.144
								C437.624,374.786,436.767,375.214,435.909,375.643z"/>
							<path fill="#5353F9" d="M387.909,345.214c0-0.428,0,0.429,0.43,2.145c0,0.855,0,1.714,0.428,2.57c0-0.429,0-0.429,0.43-0.856
								c0-0.43,0.43-0.857,0.43-1.285c0.428-1.286,0.428-2.145,0.428-2.572C389.194,345.214,388.767,345.214,387.909,345.214z"/>
							
								<rect x="383.881" y="340.354" transform="matrix(-0.3098 0.9508 -0.9508 -0.3098 828.2271 80.341)" fill="#5353F9" width="2.144" height="0.857"/>
							<path fill="#5353F9" d="M382.767,350.357c-0.43,0.429-0.43,0.429-0.43,0.855c0.43,0,0.857,0.429,0.857,0.429
								c0,0.43,0.43,0.43,0.857,0c-0.43-0.429-0.43-0.855-0.43-1.284c0-0.43,0-0.857,0-0.857
								C383.194,349.5,382.767,349.929,382.767,350.357z"/>
							<path fill="#5353F9" d="M366.479,334.5c-0.428,0-0.855,0-1.713,0.429c-0.43,0.43-0.857,0.43-0.857,0.857
								c0.43,0,0.857,0.428,0.857,0.428s0.428,0.429,1.285,0c-0.428,0-0.428-0.428,0-0.428L366.479,334.5z"/>
							<path fill="#5353F9" d="M381.909,316.071c-0.43,1.286-0.43,3,0.43,4.286c-1.715,1.714-3,3.855-3.43,5.57l-0.857,2.572
								c0.428,0.429,0.855,0.857,2.143,1.286c0.43,0,0.857,0.428,1.285,0.428c0.43,0,0.857,0.429,1.715,0.429
								c0.857-0.855,1.285-1.714,1.715-2.57c0.43-0.43,0.857-1.285,1.285-2.144l0.857-2.57l-1.285-0.43
								c-0.43,0-1.287,0.857-2.143,2.571l-1.287-0.429V322.5c0.43-0.429,0.857-0.857,1.715-1.286c0.428,0,0.428-0.428,0.855-0.428
								c0.43,0,0.857-0.429,1.287-0.429c0,0,0-0.43,0-0.857c0-1.286-0.43-1.714-0.43-1.286L381.909,316.071z"/>
							<path fill="#5353F9" d="M454.337,351.643c0.43,0,0.857,0,1.715-0.429c0.855-0.428,1.285-0.855,2.143-0.428
								c-1.285-0.857-2.57-1.715-3-1.715L454.337,351.643z"/>
							<path fill="#5353F9" d="M446.624,348.214c-0.857-0.428-1.287-0.428-0.857,0.429h0.428c0.857,0.43,1.285,0,1.715,0
								C447.479,349.071,447.052,348.643,446.624,348.214z"/>
							<path fill="#5353F9" d="M489.052,348.643c0,1.286,0.428,2.145,1.285,2.145c0.43,0,0.857,0,0.857,0
								c0-0.429,0.43-0.429,0.857-0.429c0.428-0.43,0.428-0.857,0-1.286c0-0.857-0.43-1.285-0.43-2.144
								C491.194,347.786,489.909,348.214,489.052,348.643z"/>
							<polygon fill="#5353F9" points="439.337,331.071 440.624,330.643 440.624,329.786 439.337,330.214 							"/>
							<path fill="#5353F9" d="M450.479,325.071c-0.855,0.856-1.713,0-2.143-1.714c-1.285,1.714-1.713,3.855-1.285,6
								c0.428,0,1.285-0.43,3.428-1.716c1.287,0.857,1.715,1.716,0.857,3c-0.857,1.716-1.285,3-1.285,3c0.428,0,0.428,0,1.285-0.429
								c0.43-0.428,1.287-0.428,1.287-0.428c0-2.145,0-5.145,0.428-9.429C451.767,323.786,450.909,324.643,450.479,325.071z"/>
							<polygon fill="#5353F9" points="458.194,316.929 458.624,313.5 457.767,313.5 457.767,316.5 							"/>
							<path fill="#5353F9" d="M421.767,332.786c0.428,0,0.857,0,1.713-0.429c0.857-0.43,1.287-0.857,2.145-0.43
								c-1.285-0.856-2.57-1.715-3-1.715L421.767,332.786z"/>
							<path fill="#5353F9" d="M488.624,347.786c-0.857-0.429-1.287-0.429-0.857,0.428h0.428c0.857,0.429,1.285,0,1.715,0
								C489.479,348.214,489.052,348.214,488.624,347.786z"/>
							<polygon fill="#5353F9" points="406.767,312.214 408.052,311.786 408.052,310.929 406.767,311.357 							"/>
							<path fill="#5353F9" d="M417.909,306.214c-0.855,0.857-1.715,0-2.143-1.714c-1.287,1.714-1.715,3.857-1.287,6
								c0.43,0,1.287-0.429,3.43-1.714c1.285,0.855,1.715,1.714,0.857,3c-0.857,1.714-1.287,3-1.287,3c0.43,0,0.43,0,1.287-0.429
								c0.428-0.43,1.285-0.43,1.285-0.43c0-2.143,0-5.143,0.428-9.429C419.194,305.357,418.337,305.786,417.909,306.214z"/>
							
								<rect x="432.718" y="300.54" transform="matrix(-0.3099 0.9508 -0.9508 -0.3099 854.0916 -17.9914)" fill="#5353F9" width="1.714" height="0.859"/>
							<polygon fill="#5353F9" points="425.624,298.071 426.052,294.643 425.194,294.643 425.194,297.643 							"/>
							
								<rect x="447.769" y="292.533" transform="matrix(-0.3098 0.9508 -0.9508 -0.3098 865.6902 -42.8914)" fill="#5353F9" width="1.286" height="0.429"/>
							<path fill="#5353F9" d="M353.624,340.5c-0.43,0.429-0.43,0.429-0.43,0.857c0.43,0,0.857,0.429,0.857,0.429
								c0,0.428,0.428,0.428,0.855,0c-0.43-0.429-0.43-0.857-0.43-1.286s0-0.857,0-0.857
								C353.624,340.071,353.624,340.071,353.624,340.5z"/>
							<path fill="#5353F9" d="M424.767,342.214c0.428,0,0.857,0,1.713-0.428c0.857-0.429,1.287-0.857,2.145-0.429
								c-1.285-0.857-2.57-1.716-3-1.716L424.767,342.214z"/>
							<path fill="#5353F9" d="M417.479,338.786c-0.855-0.429-1.285-0.429-0.855,0.428h0.43c0.855,0.429,1.285,0,1.713,0
								C418.337,339.643,417.909,339.214,417.479,338.786z"/>
							<path fill="#5353F9" d="M385.337,321.214c0,1.286,0.43,2.145,1.287,2.145c0.428,0,0.855,0,0.855,0
								c0-0.43,0.428-0.43,0.857-0.43c0.428-0.429,0.428-0.856,0-1.286c0-0.855-0.43-1.284-0.43-2.143
								C387.052,320.357,386.194,320.786,385.337,321.214z"/>
							<polygon fill="#5353F9" points="409.767,321.643 411.479,321.214 411.479,319.929 409.767,320.357 							"/>
							<path fill="#5353F9" d="M420.909,315.643c-0.855,0.857-1.715,0-2.143-1.714c-1.287,1.714-1.715,3.857-1.287,6
								c0.43,0,1.287-0.429,3.43-1.715c1.285,0.857,1.715,1.715,0.857,3c-0.857,1.715-1.287,3-1.287,3c0.43,0,0.43,0,1.287-0.428
								c0.428-0.429,1.285-0.429,1.285-0.429c0-2.145,0-5.145,0.428-9.43C422.624,314.357,421.767,314.786,420.909,315.643z"/>
							
								<rect x="435.885" y="309.507" transform="matrix(-0.3101 0.9507 -0.9507 -0.3101 866.8209 -9.1794)" fill="#5353F9" width="1.713" height="0.859"/>
							<polygon fill="#5353F9" points="428.624,307.071 429.479,304.071 428.624,304.071 428.194,307.071 							"/>
							
								<rect x="450.802" y="301.908" transform="matrix(-0.3098 0.9508 -0.9508 -0.3098 878.5768 -33.4956)" fill="#5353F9" width="1.286" height="0.429"/>
							<path fill="#5353F9" d="M412.337,348.643c0.43,0,0.857,0,1.715-0.429c0.855-0.428,1.285-0.855,2.143-0.428
								c-1.285-0.857-2.57-1.715-3-1.715L412.337,348.643z"/>
							<path fill="#5353F9" d="M388.767,350.357c0.428,0,0.857,0,1.713-0.43c0.857-0.429,1.287-0.856,2.145-0.429
								c-1.285-0.857-2.57-1.714-3-1.714L388.767,350.357z"/>
							<path fill="#5353F9" d="M386.624,369.643c0.428,0,0.855,0,1.713-0.429c0.857-0.428,1.287-0.855,2.143-0.428
								c-1.285-0.857-2.57-1.715-3-1.715L386.624,369.643z"/>
							<path fill="#5353F9" d="M404.624,345.214c-0.857-0.428-1.287-0.428-0.857,0.429h0.428c0.857,0.43,1.285,0,1.715,0
								C405.479,345.643,405.052,345.643,404.624,345.214z"/>
							<path fill="#5353F9" d="M372.479,327.214c0,1.286,0.43,2.145,1.287,2.145c0.428,0,0.857,0,0.857,0
								c0-0.43,0.428-0.43,0.855-0.43c0.428-0.429,0.428-0.856,0-1.286c0-0.855-0.428-1.284-0.428-2.143
								C374.624,326.357,373.767,326.786,372.479,327.214z"/>
							<polygon fill="#5353F9" points="471.909,346.071 473.194,345.214 473.194,344.357 471.909,344.786 							"/>
							<path fill="#5353F9" d="M483.052,340.071c-0.857,0.856-1.715,0-2.145-1.714c-1.283,1.714-1.713,3.855-1.283,6
								c0.428,0,1.283-0.43,3.428-1.716c1.285,0.857,1.715,1.716,0.857,3c-0.857,1.716-1.285,3-1.285,3c0.428,0,0.428,0,1.285-0.429
								c0.428-0.428,1.285-0.428,1.285-0.428c0-2.145,0-5.145,0.43-9.429C484.337,338.786,483.479,339.214,483.052,340.071z"/>
							
								<rect x="423.505" y="316.037" transform="matrix(-0.3099 0.9508 -0.9508 -0.3099 856.7582 11.0681)" fill="#5353F9" width="1.714" height="0.859"/>
							<polygon fill="#5353F9" points="416.194,313.5 416.624,310.5 416.194,310.071 415.767,313.5 							"/>
							
								<rect x="438.017" y="308.305" transform="matrix(-0.3098 0.9508 -0.9508 -0.3098 867.912 -12.9612)" fill="#5353F9" width="1.286" height="0.429"/>
							<path fill="#5353F9" d="M370.337,328.929c-0.43,0.43-0.43,0.43-0.43,0.857c0.43,0,0.857,0.428,0.857,0.428
								c0,0.429,0.43,0.429,0.857,0c-0.43-0.428-0.43-0.855-0.43-1.285c0-0.429,0-0.856,0-0.856
								C370.767,328.071,370.337,328.5,370.337,328.929z"/>
							<path fill="#5353F9" d="M441.909,330.214c0.43,0,0.857,0,1.715-0.428c0.855-0.429,1.285-0.857,2.143-0.429
								c-1.285-0.857-2.57-1.716-3-1.716L441.909,330.214z"/>
							<path fill="#5353F9" d="M434.194,327.214c-0.855-0.428-1.285-0.428-0.855,0.429h0.428c0.857,0.43,1.285,0,1.713,0
								C435.052,327.643,434.624,327.214,434.194,327.214z"/>
							<path fill="#5353F9" d="M402.052,309.214c0,1.286,0.428,2.145,1.285,2.145c0.43,0,0.857,0,0.857,0
								c0-0.43,0.43-0.43,0.857-0.43c0.428-0.429,0.428-0.856,0-1.286c0-0.855-0.43-1.284-0.43-2.143
								C404.194,308.357,403.337,308.786,402.052,309.214z"/>
							<polygon fill="#5353F9" points="426.909,309.643 428.194,309.214 428.194,308.357 426.909,308.786 							"/>
							<path fill="#5353F9" d="M438.052,303.643c-0.857,0.857-1.715,0-2.145-1.714c-1.283,1.714-1.713,3.857-1.283,6
								c0.428,0,1.283-0.429,3.428-1.715c1.285,0.857,1.715,1.715,0.857,3c-0.857,1.715-1.285,3-1.285,3
								c0.428,0,0.428,0,1.285-0.428c0.428-0.429,1.285-0.429,1.285-0.429c0-2.145,0-5.145,0.43-9.43
								C439.337,302.786,438.479,303.214,438.052,303.643z"/>
							
								<rect x="452.942" y="297.979" transform="matrix(-0.3099 0.9508 -0.9508 -0.3099 878.147 -40.5748)" fill="#5353F9" width="1.714" height="0.857"/>
							<polygon fill="#5353F9" points="445.767,295.5 446.194,292.5 445.767,292.071 445.337,295.071 							"/>
							<path fill="#5353F9" d="M448.337,424.929c-0.43,0.43-0.43,0.857,0,1.285c0.43,0.429,0.857,0.429,0.857,0L448.337,424.929z"/>
							<path fill="#5353F9" d="M442.767,312.643c-0.43,0.43-0.43,0.43-0.43,0.857c0.43,0,0.857,0.429,0.857,0.429
								c0,0.43,0.43,0.43,0.855,0c-0.428-0.429-0.428-0.856-0.428-1.286c0-0.429,0-0.855,0-0.855
								C443.194,311.786,443.194,312.214,442.767,312.643z"/>
							<path fill="#5353F9" d="M426.909,296.786c-0.43,0-0.855,0-1.715,0.428c-0.428,0.429-0.855,0.429-0.855,0.857
								c0.428,0,0.855,0.429,0.855,0.429s0.43,0.429,1.285,0c-0.428,0-0.428-0.429,0-0.429L426.909,296.786z"/>
							<path fill="#5353F9" d="M441.909,278.357c-0.43,1.284-0.43,3,0.43,4.284c-1.715,1.716-3,3.857-3.43,5.571l-0.855,2.572
								c0.428,0.428,0.855,0.855,2.143,1.285c0.43,0,0.857,0.429,1.285,0.429s0.857,0.429,1.715,0.429
								c0.857-0.856,1.285-1.715,1.713-2.57c0.43-0.43,0.857-1.286,1.287-2.145l0.857-2.571l-1.287-0.428
								c-0.43,0-1.287,0.857-2.143,2.572l-1.287-0.429v-2.571c0.43-0.429,0.857-0.857,1.715-1.286c0.428,0,0.428-0.429,0.855-0.429
								c0.43,0,0.857-0.43,1.287-0.43c0,0,0-0.429,0-0.855c0-1.286-0.43-1.715-0.43-1.286L441.909,278.357z"/>
							
								<rect x="399.53" y="392.02" transform="matrix(-0.765 0.644 -0.644 -0.765 961.9769 434.7373)" fill="#5353F9" width="4.287" height="1.713"/>
							
								<rect x="391.808" y="427.262" transform="matrix(-0.7649 0.6441 -0.6441 -0.7649 971.0529 501.8463)" fill="#5353F9" width="4.285" height="1.715"/>
							<polygon fill="#5353F9" points="388.767,395.786 396.052,386.786 394.767,384.643 387.479,394.071 							"/>
							
								<rect x="451.901" y="379.676" transform="matrix(-0.3099 0.9508 -0.9508 -0.3099 956.5386 66.7491)" fill="#5353F9" width="4.286" height="1.713"/>
							<path fill="#5353F9" d="M452.624,366.643c-1.717-0.429-3.43-0.429-5.572,0.857c-1.715,0.857-2.572,1.714-3,3
								c1.715,0.429,2.572,1.286,3.428,1.714c0.43,0.429,1.715,0.857,4.287,0.857c-0.857-0.43-0.857-0.857-0.43-2.144
								L452.624,366.643z"/>
							
								<rect x="372.56" y="408.78" transform="matrix(-0.7649 0.6441 -0.6441 -0.7649 927.3479 481.67)" fill="#5353F9" width="6.43" height="2.571"/>
							<polygon fill="#5353F9" points="356.194,384.643 363.909,375.643 362.194,373.5 354.909,382.929 							"/>
							
								<rect x="435.465" y="412.154" transform="matrix(-0.765 0.644 -0.644 -0.765 1038.3702 447.1307)" fill="#5353F9" width="4.287" height="1.714"/>
							
								<rect x="364.888" y="444.046" transform="matrix(-0.765 0.6441 -0.6441 -0.765 936.5124 548.9192)" fill="#5353F9" width="6.429" height="2.571"/>
							<polygon fill="#5353F9" points="282.909,435.643 290.194,426.643 288.479,424.5 281.624,433.929 							"/>
							
								<rect x="427.745" y="447.396" transform="matrix(-0.7648 0.6443 -0.6443 -0.7648 1047.46 514.1251)" fill="#5353F9" width="4.285" height="1.715"/>
							
								<rect x="375.978" y="442.797" transform="matrix(-0.7649 0.6441 -0.6441 -0.7649 953.1202 539.4603)" fill="#5353F9" width="4.285" height="1.715"/>
							<path fill="#5353F9" d="M490.337,427.071c0.857,0.429,2.57,0,4.715-1.285c1.715-1.715,3.43-2.145,5.572-1.286
								c-3.43-2.571-6-4.286-7.717-4.714L490.337,427.071z"/>
							
								<rect x="441.366" y="440.216" transform="matrix(-0.7649 0.6441 -0.6441 -0.7649 1069.0339 492.8289)" fill="#5353F9" width="6.43" height="2.571"/>
							<polygon fill="#5353F9" points="424.767,415.929 432.479,406.929 430.767,405.214 423.479,414.643 							"/>
							
								<rect x="493.286" y="377.632" transform="matrix(-0.3095 0.9509 -0.9509 -0.3095 1008.6761 24.539)" fill="#5353F9" width="4.285" height="1.715"/>
							<path fill="#5353F9" d="M501.479,150.214c-1.285,0.857-2.143,1.714-2.143,2.571c1.715,0.429,2.57,0.857,3,1.714
								c0.43,1.286,1.715,1.286,3.857,0.429c-0.857-1.286-1.715-2.572-1.715-4.714c0.428-1.714,0.428-2.571-0.43-3
								C502.767,148.071,501.909,148.929,501.479,150.214z"/>
							
								<rect x="450.091" y="438.508" transform="matrix(-0.7649 0.6441 -0.6441 -0.7649 1085.2568 484.7863)" fill="#5353F9" width="8.143" height="3.857"/>
							
								<rect x="467.961" y="386.667" transform="matrix(-0.3099 0.9508 -0.9508 -0.3099 987.7764 60.2223)" fill="#5353F9" width="8.143" height="3.858"/>
							<path fill="#5353F9" d="M494.194,364.929c-1.715-0.429-3.428-0.429-5.57,0.857c-1.717,0.855-2.572,1.714-3,3
								c1.713,0.428,2.57,1.285,3.428,1.714c0.428,0.429,1.715,0.857,4.285,0.857c-0.857-0.43-0.857-0.857-0.43-2.145
								L494.194,364.929z"/>
							<path fill="#5353F9" d="M482.624,297.214c-1.717,0.429-3.43,1.286-4.717,3.429c-1.283,1.286-1.713,3-1.283,4.286
								c1.713-0.429,3-0.429,3.855,0c0.428,0.43,2.145,0,4.285-1.286c-0.857,0-1.285-0.429-1.713-1.714L482.624,297.214z"/>
							<path fill="#5353F9" d="M510.909,279.643c-1.715,0.43-3.43,1.286-4.715,3.43c-1.285,1.286-1.715,3-1.285,4.286
								c1.715-0.43,3-0.43,3.857,0c0.428,0.429,2.143,0,4.285-1.286c-0.857,0-1.285-0.43-1.715-1.714L510.909,279.643z"/>
							
								<rect x="388.374" y="412.658" transform="matrix(-0.7649 0.6441 -0.6441 -0.7649 955.5858 478.2821)" fill="#5353F9" width="4.285" height="1.715"/>
							
								<rect x="361.464" y="429.416" transform="matrix(-0.7651 0.6439 -0.6439 -0.7651 921.0278 525.41)" fill="#5353F9" width="6.43" height="2.57"/>
							
								<rect x="424.311" y="432.791" transform="matrix(-0.7648 0.6443 -0.6443 -0.7648 1031.9893 490.5628)" fill="#5353F9" width="4.285" height="1.714"/>
							
								<rect x="370.361" y="428.02" transform="matrix(-0.7647 0.6443 -0.6443 -0.7647 937.806 517.4951)" fill="#5353F9" width="8.142" height="3.858"/>
							<path fill="#5353F9" d="M39.48,304.071c-1.714,0.429,1.286,0,9-0.857c3,0.429,6.429,0.429,9.429-0.428
								c-0.857-0.429-1.714-0.857-3.429-1.715c-1.715-0.858-3.429-1.714-5.143-2.571c-3.857-1.714-6.857-2.571-9.428-2.571
								C41.195,298.929,40.766,301.5,39.48,304.071z"/>
							
								<rect x="397.446" y="428.172" transform="matrix(-0.7649 0.6441 -0.6441 -0.7649 985.6863 500.4547)" fill="#5353F9" width="8.143" height="3.857"/>
							
								<rect x="433.382" y="448.303" transform="matrix(-0.7649 0.6441 -0.6441 -0.7649 1062.0767 512.8372)" fill="#5353F9" width="8.143" height="3.858"/>
							<path fill="#5353F9" d="M432.909,421.5c-1.285-1.286-3-2.143-5.143-2.143c-1.715,0-3,0-4.287,0.855
								c1.287,1.286,1.715,2.572,2.145,3.429c0,0.43,1.285,1.716,3.43,3c-0.43-0.855-0.43-1.284,0.855-2.143L432.909,421.5z"/>
							
								<rect x="498.051" y="388" transform="matrix(0.1516 0.9884 -0.9884 0.1516 810.0602 -165.2018)" fill="#5353F9" width="6.429" height="2.573"/>
							<path fill="#5353F9" d="M487.337,245.786c-1.713,0.429-3.43,1.286-4.713,3.429c-1.287,1.286-1.717,3-1.287,4.286
								c1.715-0.429,3-0.429,3.857,0c0.43,0.429,2.143,0,4.285-1.286c-0.855,0-1.285-0.429-1.715-1.714L487.337,245.786z"/>
							
								<rect x="406.196" y="368.827" transform="matrix(-0.3099 0.9508 -0.9508 -0.3099 886.3564 95.9944)" fill="#5353F9" width="4.286" height="1.713"/>
							<path fill="#5353F9" d="M407.194,355.929c-1.715-0.429-3.428-0.429-5.57,0.857c-1.717,0.855-2.572,1.714-3,3
								c1.713,0.428,2.57,1.285,3.428,1.714c0.428,0.429,1.715,0.857,4.285,0.857c-0.857-0.43-0.857-0.857-0.43-2.145
								L407.194,355.929z"/>
							<polygon fill="#5353F9" points="512.194,155.357 513.909,143.786 511.337,142.929 510.479,154.929 							"/>
							
								<rect x="394.535" y="414.416" transform="matrix(-0.765 0.644 -0.644 -0.765 967.5866 477.4843)" fill="#5353F9" width="4.287" height="1.714"/>
							
								<rect x="407.935" y="406.871" transform="matrix(-0.7649 0.6441 -0.6441 -0.7649 988.5515 455.5137)" fill="#5353F9" width="6.43" height="2.571"/>
							
								<rect x="447.481" y="367.237" transform="matrix(-0.3099 0.9508 -0.9508 -0.3099 938.9224 54.6581)" fill="#5353F9" width="4.286" height="1.713"/>
							<path fill="#5353F9" d="M342.909,457.071c1.715,0-1.285,0-9,0.429c-3-0.429-6-0.429-9.43,0
								c0.857,0.429,1.715,0.857,3.43,1.714c1.715,0.857,3.43,1.715,5.145,2.572c3.855,2.143,6.855,3,9.428,2.571
								C341.194,462.214,341.194,459.643,342.909,457.071z"/>
							
								<rect x="416.878" y="405.53" transform="matrix(-0.7649 0.6441 -0.6441 -0.7649 1005.3964 447.976)" fill="#5353F9" width="8.143" height="3.857"/>
							
								<rect x="452.874" y="425.638" transform="matrix(-0.765 0.6441 -0.6441 -0.765 1081.8762 460.3372)" fill="#5353F9" width="8.142" height="3.857"/>
							<path fill="#5353F9" d="M332.194,440.357c-1.285-0.43,1.285,0.429,8.145,3.429c2.57,1.714,5.57,3,8.57,3.855
								c-0.43-0.855-1.285-1.714-2.143-3c-0.857-1.284-2.143-3-3.43-4.714c-2.57-3.428-5.143-5.57-7.285-6.428
								C335.624,436.071,334.337,438.643,332.194,440.357z"/>
							
								<rect x="422.246" y="375.845" transform="matrix(-0.3097 0.9508 -0.9508 -0.3097 917.5492 89.4179)" fill="#5353F9" width="8.142" height="3.858"/>
							
								<rect x="463.517" y="374.271" transform="matrix(-0.3097 0.9508 -0.9508 -0.3097 970.0942 48.0959)" fill="#5353F9" width="8.142" height="3.858"/>
							<polygon fill="#5353F9" points="413.624,316.929 415.337,307.071 413.194,306.643 412.337,316.071 							"/>
							
								<rect x="368.612" y="373.835" transform="matrix(-0.765 0.644 -0.644 -0.765 895.6953 422.5536)" fill="#5353F9" width="4.287" height="1.715"/>
							
								<rect x="378.101" y="389.071" transform="matrix(-0.765 0.6441 -0.6441 -0.765 926.3516 443.9562)" fill="#5353F9" width="8.142" height="3.857"/>
							<path fill="#5353F9" d="M342.479,376.929c-1.713-0.429-3.428-0.429-5.57,0.857c-1.715,0.855-2.57,1.714-3,3
								c1.715,0.428,2.57,1.285,3.43,1.714c0.428,0.429,1.715,0.857,4.285,0.857c-0.857-0.429-0.857-0.857-0.43-2.144
								L342.479,376.929z"/>
							
								<rect x="469.084" y="402.145" transform="matrix(-0.3099 0.9508 -0.9508 -0.3099 1000.1469 80.0768)" fill="#5353F9" width="3.857" height="1.713"/>
							<polygon fill="#5353F9" points="501.479,366.643 501.909,361.5 501.052,361.071 500.624,366.214 							"/>
							
								<rect x="517.635" y="322.162" transform="matrix(-0.3088 0.9511 -0.9511 -0.3088 985.7247 -71.1303)" fill="#5353F9" width="2.144" height="0.859"/>
							<path fill="#5353F9" d="M521.624,339.643c0-0.855,0,0.43,0.855,3.857c0,1.286,0,3,0.857,4.286
								c0-0.429,0.428-0.857,0.428-1.715c0.43-0.857,0.43-1.714,0.857-2.571c0.43-1.714,0.855-3.429,0.43-4.286
								C524.194,340.071,522.909,340.071,521.624,339.643z"/>
							
								<rect x="514.51" y="331.522" transform="matrix(-0.3099 0.9508 -0.9508 -0.3099 992.5045 -55.6233)" fill="#5353F9" width="3.857" height="1.713"/>
							<path fill="#5353F9" d="M513.479,334.071c0-0.857,0,0.429,0.857,3.856c0,1.285,0,3,0.857,4.285
								c0-0.428,0.43-0.855,0.43-1.714c0.428-0.857,0.428-1.714,0.855-2.571c0.428-1.715,0.857-3.429,0.428-4.286
								C515.624,334.5,514.767,334.5,513.479,334.071z"/>
							
								<rect x="506.093" y="325.868" transform="matrix(-0.3098 0.9508 -0.9508 -0.3098 976.074 -55.0627)" fill="#5353F9" width="3.858" height="1.715"/>
							
								<rect x="524.865" y="325.322" transform="matrix(-0.3099 0.9508 -0.9508 -0.3099 1000.1743 -73.5906)" fill="#5353F9" width="3.857" height="1.713"/>
							<path fill="#5353F9" d="M435.909,262.5c-0.855,0-1.285,0.43-2.143,1.285c-0.43,0.857-0.857,1.285-0.43,1.715
								c0.857,0,1.287,0,1.715,0s0.855,0,2.143-0.43c-0.428,0-0.428,0-0.855-0.855L435.909,262.5z"/>
							<path fill="#5353F9" d="M498.909,348.214c0-0.855,0,0.429,0.857,3.857c0,1.286,0,3,0.857,4.286
								c0-0.43,0.428-0.857,0.428-1.716c0.428-0.855,0.428-1.714,0.855-2.57c0.43-1.714,0.857-3.43,0.43-4.285
								C501.479,348.643,500.194,348.643,498.909,348.214z"/>
							<path fill="#5353F9" d="M501.052,334.929c0-0.856,0,0.43,0.855,3.857c0,1.285,0,3,0.857,4.285c0-0.43,0.43-0.857,0.43-1.714
								c0.43-0.857,0.43-1.716,0.857-2.571c0.428-1.715,0.855-3.429,0.428-4.286C503.194,335.357,502.337,335.357,501.052,334.929z"
								/>
							<path fill="#5353F9" d="M511.337,328.5c0-0.857,0,0.429,0.857,3.857c0,1.284,0,3,0.855,4.284c0-0.429,0.43-0.855,0.43-1.714
								c0.428-0.856,0.428-1.715,0.857-2.57c0.428-1.716,0.855-3.43,0.428-4.286C513.909,328.929,512.624,328.929,511.337,328.5z"/>
							
								<rect x="504.107" y="320.057" transform="matrix(-0.3098 0.9508 -0.9508 -0.3098 967.9484 -60.7866)" fill="#5353F9" width="3.858" height="1.713"/>
							<path fill="#5353F9" d="M448.337,354.214c-1.713-0.428-3.43-0.428-5.57,0.857c-1.715,0.856-2.572,1.715-3,3
								c1.713,0.429,2.57,1.286,3.428,1.715c0.43,0.428,1.715,0.855,4.285,0.855c-0.855-0.429-0.855-0.855-0.428-2.143
								L448.337,354.214z"/>
							<path fill="#5353F9" d="M498.052,390.214c0,0.857,0.428,1.286,0.855,1.715c0.857,0,1.287,0,1.717-0.856L498.052,390.214z"/>
							<path fill="#5353F9" d="M480.909,318.214c0.43,0.857,0.857,1.286,1.715,0.857c0.855-0.43,1.285-0.857,0.855-1.285
								L480.909,318.214z"/>
							
								<rect x="506.113" y="299.018" transform="matrix(0.1514 0.9885 -0.9885 0.1514 727.3233 -247.8957)" fill="#5353F9" width="3.857" height="1.284"/>
							<polygon fill="#5353F9" points="489.479,301.929 487.337,295.5 486.052,295.5 488.194,301.929 							"/>
							<polygon fill="#5353F9" points="495.909,316.071 498.052,313.929 497.194,312.214 495.052,314.357 							"/>
							
								<rect x="522.072" y="260.832" transform="matrix(0.9651 0.2619 -0.2619 0.9651 86.7773 -128.1165)" fill="#5353F9" width="3.855" height="1.285"/>
							
								<rect x="507.64" y="263.254" transform="matrix(0.1524 0.9883 -0.9883 0.1524 691.0308 -278.8187)" fill="#5353F9" width="0.859" height="0.429"/>
							<polygon fill="#5353F9" points="491.624,287.357 492.909,286.071 492.479,284.786 490.767,286.5 							"/>
							<polygon fill="#5353F9" points="506.194,257.786 504.909,253.5 503.624,253.93 505.337,257.786 							"/>
							<polygon fill="#5353F9" points="505.337,279.643 506.624,278.357 506.194,277.071 504.479,278.786 							"/>
							<path fill="#5353F9" d="M496.767,277.929c-1.287-0.429-1.715,0-0.857,1.285h0.857c0.857,0,1.713-0.428,2.143-0.855
								C498.052,278.357,497.194,278.357,496.767,277.929z"/>
							<path fill="#5353F9" d="M498.052,254.357c-0.428,0.429-0.428,0.856-0.428,1.285c0.428,0,0.855,0,1.283,0
								c0.43,0.428,0.857,0,1.287-0.429c-0.43-0.429-0.857-0.856-1.287-1.286c0-0.429-0.428-0.857-0.428-0.857
								C498.052,253.5,498.052,253.93,498.052,254.357z"/>
							<path fill="#5353F9" d="M488.194,267.215c-0.428-0.43,0.43,0.428,2.145,2.571c0.428,0.855,1.285,2.143,2.143,3
								c0-0.429,0-0.857-0.428-1.286c0-0.429,0-1.286-0.43-2.143c-0.43-1.715-0.857-2.572-1.285-3.43
								C489.909,266.785,489.479,267.215,488.194,267.215z"/>
							<polygon fill="#5353F9" points="486.909,281.357 485.624,277.071 484.767,277.5 486.479,281.357 							"/>
							<polygon fill="#5353F9" points="500.624,273.643 499.337,269.786 498.479,269.786 500.194,274.071 							"/>
							<polygon fill="#5353F9" points="502.767,254.357 501.052,250.07 500.194,250.5 501.909,254.357 							"/>
							<polygon fill="#5353F9" points="407.194,347.786 412.337,343.071 411.479,341.786 406.767,346.929 							"/>
							
								<rect x="449.488" y="349.034" transform="matrix(-0.8431 0.5378 -0.5378 -0.8431 1017.0527 401.7511)" fill="#5353F9" width="0.857" height="0.429"/>
							<path fill="#5353F9" d="M474.479,324.643c0,0,0.43,0.43,1.287,0.43c0.428,0,0.857,0,1.285,0.429
								c-0.428-1.286-0.428-1.714-0.857-2.143L474.479,324.643z"/>
							<polygon fill="#5353F9" points="421.337,343.929 423.052,344.786 423.909,343.5 422.194,342.643 							"/>
							<polygon fill="#5353F9" points="454.337,345.214 457.767,342.214 456.909,341.357 453.909,344.786 							"/>
							
								<rect x="477.935" y="308.401" transform="matrix(-0.8436 0.537 -0.537 -0.8436 1049.8352 312.2889)" fill="#5353F9" width="3.001" height="1.285"/>
							<path fill="#5353F9" d="M432.052,344.786c-0.428-1.286-0.857-1.286-1.715,0l0.43,0.428c0.428,0.857,1.285,1.286,1.713,1.286
								C432.479,346.071,432.052,345.214,432.052,344.786z"/>
							<path fill="#5353F9" d="M454.337,336.643c-0.43,0-0.857,0-1.285,0.43c0.428,0.429,0.428,0.856,0.428,1.286
								c0,0.429,0.43,0.855,0.857,1.284c0-0.429,0-1.284,0.43-1.714c0.428-0.429,0.857-0.856,0.428-0.856
								C455.194,336.214,454.767,336.214,454.337,336.643z"/>
							
								<rect x="474.489" y="312.21" transform="matrix(-0.8439 0.5366 -0.5366 -0.8439 1048.2378 321.951)" fill="#5353F9" width="5.571" height="2.573"/>
							<path fill="#5353F9" d="M438.479,332.786c0.43-0.429-0.428,0.428-1.713,3c-0.857,0.855-1.287,1.714-1.715,3
								c0.428,0,0.855-0.429,1.285-0.857c0.43-0.428,1.287-0.856,1.715-1.286c1.285-0.855,2.143-1.714,2.572-2.57
								C439.767,334.071,438.909,333.643,438.479,332.786z"/>
							<polygon fill="#5353F9" points="425.194,337.071 428.194,334.5 427.767,333.643 424.767,336.643 							"/>
							<polygon fill="#5353F9" points="437.624,346.5 440.624,343.929 440.194,343.071 437.194,346.071 							"/>
							<path fill="#5353F9" d="M464.624,340.071c0.428-0.43-0.43,0.429-1.717,3c-0.855,0.856-1.283,1.715-1.713,3
								c0.43,0,0.855-0.43,1.285-0.857c0.428-0.428,1.285-0.855,1.715-1.285c1.285-0.856,2.143-1.715,2.57-2.57
								C465.909,341.786,465.479,341.357,464.624,340.071z"/>
							
								<rect x="469.902" y="340.545" transform="matrix(-0.8437 0.5368 -0.5368 -0.8437 1052.2775 376.0233)" fill="#5353F9" width="3" height="1.286"/>
							<path fill="#5353F9" d="M468.909,326.357c-0.43-0.857-1.715-1.716-3.43-2.145c-1.285-0.428-2.143,0-3,0.429
								c0.43,0.857,0.857,1.716,0.857,2.145c0,0.428,0.43,1.285,2.143,2.143c-0.428-0.429,0-0.856,0.43-1.286L468.909,326.357z"/>
							<polygon fill="#5353F9" points="456.052,340.5 459.479,337.5 458.624,336.643 455.624,340.071 							"/>
							
								<rect x="467.502" y="309.219" transform="matrix(-0.8438 0.5367 -0.5367 -0.8438 1033.7527 320.1018)" fill="#5353F9" width="5.572" height="2.573"/>
							
								<rect x="469.664" y="319.462" transform="matrix(-0.8437 0.5369 -0.5369 -0.8437 1040.1293 337.3236)" fill="#5353F9" width="2.572" height="1.285"/>
							<path fill="#5353F9" d="M333.052,394.5c0-0.857-0.428-1.286-1.285-1.714c-0.857,0-1.287,0.428-1.715,0.855L333.052,394.5z"/>
							<path fill="#5353F9" d="M290.624,411.214c-0.43-0.855-1.287-1.285-2.145-0.855c-0.855,0.429-1.285,1.284-0.855,1.714
								L290.624,411.214z"/>
							
								<rect x="260.057" y="438.887" transform="matrix(-0.3358 -0.9419 0.9419 -0.3358 -63.6903 834.5779)" fill="#5353F9" width="4.713" height="1.715"/>
							<polygon fill="#5353F9" points="307.337,439.071 311.624,446.357 313.337,445.5 308.624,438.643 							"/>
							<polygon fill="#5353F9" points="273.052,417.214 270.909,420.643 272.624,422.357 274.767,418.929 							"/>
							
								<rect x="270.464" y="483.017" transform="matrix(-0.337 -0.9415 0.9415 -0.337 -92.7877 901.1215)" fill="#5353F9" width="0.858" height="0.429"/>
							<polygon fill="#5353F9" points="285.052,450.643 283.337,452.786 284.624,454.071 285.909,451.929 							"/>
							<polygon fill="#5353F9" points="274.337,489.643 276.909,494.357 278.194,493.929 275.194,489.214 							"/>
							<polygon fill="#5353F9" points="270.479,463.071 268.767,465.214 270.052,466.5 271.337,464.357 							"/>
							<path fill="#5353F9" d="M281.194,463.5c1.715,0,1.715-0.429,0.43-1.714l-0.857,0.428c-1.287,0.429-1.715,0.857-2.143,1.715
								C279.479,463.071,280.337,463.071,281.194,463.5z"/>
							<path fill="#5353F9" d="M350.194,470.357c0.43,0.429-0.428-0.43-3-2.571c-0.855-1.286-1.715-2.145-3.428-3
								c0,0.428,0.428,0.855,0.428,1.714c0.43,0.857,0.43,1.714,0.857,2.571c0.855,1.715,1.285,3,2.143,3.856
								C348.052,471.643,348.909,471.214,350.194,470.357z"/>
							<polygon fill="#5353F9" points="291.479,457.071 294.479,461.786 295.337,461.357 292.337,456.643 							"/>
							<polygon fill="#5353F9" points="276.909,469.5 279.909,474.214 280.767,473.786 277.767,469.071 							"/>
							<g>
								<path fill="#5353F9" d="M237.48,400.929c-0.857-0.429-1.714,0-2.143,0.857c-0.428,0.855,0,1.285,0.429,1.714L237.48,400.929
									z"/>
								<path fill="#5353F9" d="M203.623,409.5c-0.856-0.429-1.713,0-2.143,0.857c-0.429,0.855,0,1.714,0.43,2.143L203.623,409.5z"
									/>
								
									<rect x="199.413" y="448.722" transform="matrix(-0.8831 -0.4691 0.4691 -0.8831 169.058 941.2738)" fill="#5353F9" width="4.715" height="1.714"/>
								<polygon fill="#5353F9" points="213.48,430.071 221.195,432.643 222.052,431.357 213.91,429.214 								"/>
								<polygon fill="#5353F9" points="194.623,426.214 195.052,430.071 197.623,430.071 197.195,426.214 								"/>
								
									<rect x="237.004" y="476.202" transform="matrix(-0.8835 -0.4685 0.4685 -0.8835 223.9839 1008.5498)" fill="#5353F9" width="0.857" height="0.429"/>
								<polygon fill="#5353F9" points="225.91,442.929 226.337,445.5 227.623,445.5 227.623,442.929 								"/>
								<polygon fill="#5353F9" points="244.337,478.929 249.48,480.643 249.91,479.357 244.766,478.071 								"/>
								<polygon fill="#5353F9" points="223.337,461.786 223.766,464.357 225.48,464.357 225.052,461.786 								"/>
								<path fill="#5353F9" d="M231.48,454.5c1.286-1.286,0.857-1.714-0.857-1.714l-0.428,0.855
									c-0.429,0.858-0.857,2.145-0.429,2.572C230.195,455.786,230.623,455.357,231.48,454.5z"/>
								<path fill="#5353F9" d="M248.195,454.071c0.857,0-0.857,0-4.285,0c-1.287-0.43-3-0.43-4.287,0
									c0.43,0,0.857,0.429,1.715,0.856c0.856,0.43,1.285,0.857,2.143,1.285c1.714,0.857,3,1.286,4.286,1.286
									C247.337,456.643,247.337,455.357,248.195,454.071z"/>
								<polygon fill="#5353F9" points="234.91,442.929 240.052,444.643 240.91,443.357 235.337,442.071 								"/>
								<polygon fill="#5353F9" points="232.766,461.786 237.91,463.5 238.337,462.643 233.195,460.929 								"/>
							</g>
						</g>
						<g>
							<path fill="#5353F9" d="M378.052,309.643c-0.857,0-1.285,0-1.715,0.857c0,0.857,0,1.286,0.43,1.286L378.052,309.643z"/>
							<path fill="#5353F9" d="M351.479,316.5c-0.855,0-1.285,0-1.713,0.857c0,0.855,0,1.284,0.428,1.714L351.479,316.5z"/>
							
								<rect x="348.368" y="348.051" transform="matrix(-0.8832 -0.4689 0.4689 -0.8832 495.7663 820.8408)" fill="#5353F9" width="3.43" height="1.286"/>
							<polygon fill="#5353F9" points="359.194,332.786 365.194,334.929 366.052,333.643 359.624,331.929 							"/>
							<polygon fill="#5353F9" points="344.194,329.786 344.624,332.786 346.337,332.786 345.909,329.786 							"/>
							
								<rect x="377.63" y="369.4" transform="matrix(-0.8837 -0.468 0.468 -0.8837 539.1545 873.1934)" fill="#5353F9" width="0.858" height="0.429"/>
							<polygon fill="#5353F9" points="369.052,343.071 369.052,345.214 370.337,345.214 370.337,343.071 							"/>
							<polygon fill="#5353F9" points="383.624,371.786 387.479,373.071 388.337,372.214 384.052,370.929 							"/>
							<polygon fill="#5353F9" points="366.909,358.071 367.337,360.214 368.624,360.214 368.194,358.071 							"/>
							<path fill="#5353F9" d="M373.337,352.5c0.857-0.857,0.857-1.286-0.43-1.286l-0.428,0.429
								c-0.428,0.857-0.428,1.716-0.428,2.145C372.479,353.357,372.909,352.929,373.337,352.5z"/>
							<path fill="#5353F9" d="M386.624,352.071c0.428,0-0.43,0-3.43,0c-1.287-0.43-2.143-0.43-3.43,0
								c0.43,0,0.857,0.429,1.287,0.856c0.428,0.43,1.285,0.43,1.713,0.857c1.287,0.855,2.572,1.285,3.43,0.855
								C386.194,353.786,386.194,352.929,386.624,352.071z"/>
							<polygon fill="#5353F9" points="376.337,343.071 380.194,344.357 380.624,343.5 376.767,342.643 							"/>
							<polygon fill="#5353F9" points="374.194,358.071 378.479,359.357 378.909,358.5 374.624,357.643 							"/>
						</g>
						<g>
							<path fill="#5353F9" d="M448.767,448.929c0-0.856-0.43-1.286-1.287-1.715c-0.855,0-1.285,0.429-1.713,1.286L448.767,448.929z
								"/>
							<path fill="#5353F9" d="M429.479,418.929c0-0.856-0.428-1.715-1.713-1.715c-0.857,0-1.715,0.429-1.715,1.286L429.479,418.929
								z"/>
							
								<rect x="387.742" y="428.576" transform="matrix(0.1752 -0.9845 0.9845 0.1752 -101.049 738.243)" fill="#5353F9" width="4.715" height="1.714"/>
							<polygon fill="#5353F9" points="412.767,434.786 412.767,442.929 414.479,443.357 414.052,434.786 							"/>
							<polygon fill="#5353F9" points="410.624,415.071 407.194,416.786 407.624,419.357 411.479,417.643 							"/>
							
								<rect x="374.64" y="472.275" transform="matrix(0.1755 -0.9845 0.9845 0.1755 -155.9044 758.8275)" fill="#5353F9" width="0.857" height="0.429"/>
							<polygon fill="#5353F9" points="404.194,450.643 402.052,451.929 402.052,453.643 404.624,452.357 							"/>
							<polygon fill="#5353F9" points="375.052,479.786 375.052,485.357 376.337,485.786 375.909,480.214 							"/>
							<polygon fill="#5353F9" points="384.909,454.5 382.767,455.357 383.194,457.071 385.337,455.786 							"/>
							<path fill="#5353F9" d="M394.767,460.071c1.285,0.856,2.143,0.429,1.285-1.285h-0.857c-1.285,0-2.143,0-3,0.428
								C393.052,459.214,393.909,459.643,394.767,460.071z"/>
							<path fill="#5353F9" d="M400.337,475.929c0.43,0.857,0-0.856-1.285-3.856c0-1.285-0.428-3-1.285-4.285
								c0,0.428,0,0.855-0.43,1.714c0,0.857-0.43,1.714-0.43,2.571c-0.428,2.143-0.428,3.429,0,4.715
								C397.767,475.929,399.052,475.5,400.337,475.929z"/>
							<polygon fill="#5353F9" points="407.194,459.643 407.194,465.214 408.479,465.643 408.052,460.071 							"/>
							<polygon fill="#5353F9" points="387.909,463.5 387.909,468.643 389.194,469.071 388.767,463.5 							"/>
						</g>
						<g>
							<path fill="#5353F9" d="M489.479,424.5c0-0.857,0-1.714-0.855-1.714c-0.857,0-1.715,0-1.715,0.855L489.479,424.5z"/>
							<path fill="#5353F9" d="M477.052,391.071c0-0.857-0.428-1.714-1.285-2.144c-0.857,0-1.715,0-2.143,0.857L477.052,391.071z"/>
							
								<rect x="434.016" y="392.191" transform="matrix(0.3819 -0.9242 0.9242 0.3819 -93.5443 646.2191)" fill="#5353F9" width="4.715" height="1.714"/>
							<polygon fill="#5353F9" points="457.337,403.071 455.624,411.214 457.337,411.643 458.624,403.5 							"/>
							<polygon fill="#5353F9" points="459.909,383.357 455.624,384.214 455.624,386.786 459.479,385.929 							"/>
							
								<rect x="412.383" y="431.558" transform="matrix(0.3808 -0.9247 0.9247 0.3808 -143.6309 649.0587)" fill="#5353F9" width="0.857" height="0.429"/>
							<polygon fill="#5353F9" points="445.767,416.786 443.194,417.643 443.194,419.357 445.767,418.5 							"/>
							<polygon fill="#5353F9" points="411.052,439.071 409.767,444.643 410.624,445.071 411.909,439.5 							"/>
							<polygon fill="#5353F9" points="426.052,416.357 423.479,416.786 423.479,418.5 426.052,418.071 							"/>
							<path fill="#5353F9" d="M434.194,423.643c1.285,1.286,1.715,0.857,1.715-0.855l-0.855-0.429c-1.287-0.43-2.145-0.43-3,0
								C432.909,422.786,433.767,423.214,434.194,423.643z"/>
							<path fill="#5353F9" d="M436.337,440.786c0,0.855,0-0.857-0.43-4.286c0-1.286,0-3-0.428-4.286
								c0,0.429-0.428,0.857-0.855,1.715c-0.43,0.858-0.857,1.714-0.857,2.571c-0.857,1.714-0.857,3.429-0.857,4.714
								C433.767,440.357,435.052,439.929,436.337,440.786z"/>
							<polygon fill="#5353F9" points="446.624,426.214 445.337,431.786 446.624,432.214 447.479,426.643 							"/>
							<polygon fill="#5353F9" points="426.909,425.786 426.052,430.929 426.909,431.357 427.767,426.214 							"/>
						</g>
						<g>
							<path fill="#5353F9" d="M428.624,163.929c-0.857,0-1.287,0-1.717,0.857c0,0.857,0,1.286,0.43,1.714L428.624,163.929z"/>
							<polygon fill="#5353F9" points="417.052,188.786 423.909,190.929 424.767,189.643 417.909,187.929 							"/>
							
								<rect x="427.827" y="231.577" transform="matrix(-0.8832 -0.4689 0.4689 -0.8832 697.8113 637.34)" fill="#5353F9" width="0.858" height="0.429"/>
							<polygon fill="#5353F9" points="418.337,201.643 418.337,203.786 420.052,204.214 419.624,201.643 							"/>
							<polygon fill="#5353F9" points="434.624,233.786 439.337,235.07 439.767,234.214 435.052,232.93 							"/>
							<polygon fill="#5353F9" points="415.767,218.357 416.194,220.929 417.479,220.929 417.479,218.786 							"/>
							<path fill="#5353F9" d="M423.052,212.357c1.285-0.857,0.855-1.714-0.857-1.714l-0.428,0.857
								c-0.43,0.857-0.43,1.714-0.43,2.571C422.194,213.214,422.624,212.786,423.052,212.357z"/>
							<path fill="#5353F9" d="M438.052,211.929c0.428,0-0.428,0-3.857,0c-1.285-0.429-2.57-0.429-3.855,0
								c0.428,0,0.855,0.428,1.285,0.857c0.43,0.429,1.285,0.857,2.143,1.286c1.715,0.857,3,1.286,3.857,1.286
								C437.194,214.071,437.194,212.786,438.052,211.929z"/>
							<polygon fill="#5353F9" points="426.479,201.643 430.767,203.357 431.624,202.071 426.909,200.786 							"/>
							<polygon fill="#5353F9" points="424.337,218.357 428.624,220.071 429.052,219.214 424.337,217.929 							"/>
						</g>
						<path fill="#5353F9" d="M463.767,122.357c-0.857-0.428-1.715,0-2.143,0.857c-0.43,0.857,0,1.714,0.428,2.143L463.767,122.357z
							"/>
						<polygon fill="#5353F9" points="474.052,143.786 482.194,146.786 483.052,145.071 474.479,142.5 						"/>
						<polygon fill="#5353F9" points="454.337,139.5 454.767,143.786 457.337,143.786 456.909,139.929 						"/>
						<path fill="#5353F9" d="M456.909,356.786c-0.855-0.429-1.715,0-2.143,0.855c-0.43,0.857,0,1.716,0.428,2.145L456.909,356.786z
							"/>
						<polygon fill="#5353F9" points="467.194,378.643 475.337,381.214 476.194,379.5 467.624,377.357 						"/>
						<polygon fill="#5353F9" points="447.479,373.929 447.909,378.214 450.479,378.643 450.052,374.357 						"/>
						<polygon fill="#5353F9" points="92.195,112.071 94.766,111.214 94.766,109.5 92.195,110.357 						"/>
						<path fill="#5353F9" d="M97.337,295.929c0.429,0.857,0.857,1.285,1.714,0.857c0.857-0.429,1.286-0.857,0.857-1.286
							L97.337,295.929z"/>
						<path fill="#5353F9" d="M188.623,206.357c0.43,0.857,0.857,1.286,1.715,0.857c0.856-0.429,1.285-0.857,0.856-1.286
							L188.623,206.357z"/>
						<path fill="#5353F9" d="M210.052,184.071c0.429,0.429,0.857,0.857,1.714,0.429c0.856-0.429,1.286-0.429,1.286-0.857
							L210.052,184.071z"/>
						<path fill="#5353F9" d="M172.337,195.643c0.429,0.428,0.857,0.857,1.714,0.428c0.856-0.428,1.286-0.428,1.286-0.857
							L172.337,195.643z"/>
						<path fill="#5353F9" d="M224.623,143.357c0.43,0.429,0.857,0.857,1.715,0.429c0.856-0.429,1.285-0.429,1.285-0.857
							L224.623,143.357z"/>
						<path fill="#5353F9" d="M63.909,196.071c0.428,0.857,0.857,1.286,1.714,0.857c0.857-0.429,1.286-0.857,0.857-1.286
							L63.909,196.071z"/>
						<path fill="#5353F9" d="M87.052,122.357c-0.429,0.429-0.857,0.857-0.857,1.286c0.857,0.428,1.286,0.428,1.286,0.857
							c0.429,0.429,0.857,0.429,1.714,0.429c-0.429-0.429-0.857-1.286-0.857-2.143c0.429-0.857,0-1.286,0-1.286
							C87.909,121.5,87.48,121.929,87.052,122.357z"/>
						<path fill="#5353F9" d="M98.195,115.5c-0.429,0.429-0.857,0.857-0.857,1.286c0.857,0.429,1.286,0.429,1.286,0.857
							c0.429,0.428,0.857,0.428,1.714,0.428c-0.428-0.428-0.857-1.286-0.857-2.143c0.429-0.857,0-1.286,0-1.286
							C98.623,114.643,98.623,115.071,98.195,115.5z"/>
						<path fill="#5353F9" d="M57.909,215.357c0.857,0.429,2.571,0,4.714-1.286c1.714-1.714,3.857-2.143,6-1.714
							c-3.857-3-6.428-4.714-8.143-5.143L57.909,215.357z"/>
						
							<rect x="2.373" y="194.257" transform="matrix(-0.3098 0.9508 -0.9508 -0.3098 193.523 250.5996)" fill="#5353F9" width="6.857" height="2.571"/>
						
							<rect x="60.741" y="162.844" transform="matrix(-0.3098 0.9508 -0.9508 -0.3098 238.4977 154.7002)" fill="#5353F9" width="4.714" height="2.143"/>
						
							<rect x="77.656" y="207.576" transform="matrix(-0.3098 0.9508 -0.9508 -0.3098 307.0093 196.5862)" fill="#5353F9" width="9" height="4.286"/>
						
							<rect x="33.987" y="172.321" transform="matrix(-0.3097 0.9508 -0.9508 -0.3097 216.2928 191.8998)" fill="#5353F9" width="9" height="4.286"/>
						<path fill="#5353F9" d="M61.766,148.929c-1.714-0.429-3.857-0.429-6,0.857c-1.714,0.857-2.571,2.143-3,3.429
							c1.714,0.429,3,1.286,3.857,1.714c0.429,0.428,1.714,0.857,4.714,0.857c-0.857-0.429-1.286-0.857-0.857-2.571L61.766,148.929z
							"/>
						
							<rect x="-0.069" y="205.418" transform="matrix(-0.3097 0.9508 -0.9508 -0.3097 203.1603 267.6283)" fill="#5353F9" width="9" height="4.286"/>
						
							<rect x="65.856" y="173.271" transform="matrix(0.1516 0.9884 -0.9884 0.1516 231.3188 79.6081)" fill="#5353F9" width="6.857" height="2.571"/>
						
							<rect x="4.753" y="174.273" transform="matrix(-0.3098 0.9508 -0.9508 -0.3098 179.8578 222.2682)" fill="#5353F9" width="9" height="4.286"/>
						<path fill="#5353F9" d="M27.909,130.5c-0.429-1.714,0.428,1.714,2.143,9.429c0,3.428,0.429,6.428,1.714,9.857
							c0.429-0.857,0.857-2.143,1.286-3.857c0.429-1.714,1.286-3.857,1.714-6c1.286-4.286,1.714-7.714,1.286-10.286
							C33.48,130.929,30.909,131.357,27.909,130.5z"/>
						<path fill="#5353F9" d="M306.909,116.786c1.285,0.857-1.285-0.429-8.57-3.429c-3.43-0.428-6.43-1.714-9.43-3.428
							c0.857,0,2.145-0.429,3.857-0.429c1.713-0.429,3.857-0.429,6-0.857c4.285-0.429,8.143-0.429,10.285,0.428
							C307.337,110.786,306.479,113.357,306.909,116.786z"/>
						
							<rect x="35.388" y="188.38" transform="matrix(-0.3096 0.9509 -0.9509 -0.3096 228.808 212.3532)" fill="#5353F9" width="3.857" height="1.715"/>
						<polygon fill="#5353F9" points="69.48,150.643 70.337,145.5 69.052,145.071 68.623,150.643 						"/>
						
							<rect x="86.801" y="103.531" transform="matrix(-0.3092 0.951 -0.951 -0.3092 213.9065 52.5341)" fill="#5353F9" width="2.143" height="0.857"/>
						<path fill="#5353F9" d="M90.909,122.357c0-0.857,0,0.857,0.857,4.286c0,1.286,0,3,0.857,4.286
							c0-0.429,0.429-0.857,0.429-1.714c0.429-0.857,0.429-1.714,0.857-2.571c0.428-2.143,0.857-3.429,0.428-4.714
							C93.48,122.786,92.195,122.786,90.909,122.357z"/>
						
							<rect x="83.559" y="114.087" transform="matrix(-0.3099 0.9508 -0.9508 -0.3099 221.2661 69.2892)" fill="#5353F9" width="3.857" height="1.714"/>
						<path fill="#5353F9" d="M82.337,116.357c0-0.857,0,0.857,0.857,4.286c0,1.286,0,3,0.857,4.286
							c0-0.429,0.429-0.857,0.429-1.714c0.429-0.857,0.429-1.714,0.857-2.571c0.429-2.143,0.857-3.429,0.429-4.714
							C84.909,116.786,83.623,116.786,82.337,116.357z"/>
						
							<rect x="74.89" y="107.766" transform="matrix(-0.3099 0.9508 -0.9508 -0.3099 203.9005 69.2509)" fill="#5353F9" width="3.857" height="1.714"/>
						
							<rect x="94.717" y="106.862" transform="matrix(-0.3095 0.9509 -0.9509 -0.3095 228.9873 49.1585)" fill="#5353F9" width="3.857" height="1.714"/>
						<path fill="#5353F9" d="M53.195,131.357c0-0.857,0,0.857,0.857,4.286c0,1.286,0,3,0.857,4.286
							c0-0.429,0.428-0.857,0.428-1.714c0.429-0.857,0.429-1.714,0.857-2.571c0.428-2.143,0.857-3.429,0.428-4.714
							C55.766,131.786,54.48,131.786,53.195,131.357z"/>
						<path fill="#5353F9" d="M69.052,117.214c0-0.857,0,0.857,0.857,4.286c0,1.286,0,3,0.857,4.286
							c0-0.429,0.429-0.857,0.429-1.714c0.428-0.857,0.428-1.714,0.857-2.571c0.429-2.143,0.857-3.429,0.429-4.714
							C71.623,117.643,70.337,118.071,69.052,117.214z"/>
						<path fill="#5353F9" d="M80.195,110.357c0-0.857,0,0.857,0.857,4.286c0,1.286,0,3,0.857,4.286
							c0-0.429,0.428-0.857,0.428-1.714c0.429-0.857,0.429-1.714,0.857-2.571c0.428-2.143,0.857-3.429,0.428-4.714
							C82.766,110.786,81.48,110.786,80.195,110.357z"/>
						
							<rect x="72.845" y="101.766" transform="matrix(-0.3099 0.9508 -0.9508 -0.3099 195.5156 63.3315)" fill="#5353F9" width="3.857" height="1.714"/>
						
							<rect x="187.468" y="172.263" transform="matrix(-0.3099 0.9508 -0.9508 -0.3099 415.0598 45.8311)" fill="#5353F9" width="6.857" height="2.57"/>
						
							<rect x="196.194" y="165.5" transform="matrix(-0.3099 0.9508 -0.9508 -0.3099 418.455 29.4182)" fill="#5353F9" width="4.714" height="2.142"/>
						
							<rect x="176.142" y="161.107" transform="matrix(-0.3098 0.9508 -0.9508 -0.3098 389.6013 41.959)" fill="#5353F9" width="6.857" height="2.571"/>
						
							<rect x="183.045" y="345.771" transform="matrix(-0.3097 0.9508 -0.9508 -0.3097 576.4358 277.3425)" fill="#5353F9" width="8.999" height="4.285"/>
						
							<rect x="21.564" y="236.384" transform="matrix(-0.8836 -0.4683 0.4683 -0.8836 -69.3697 455.9501)" fill="#5353F9" width="0.857" height="0.429"/>
						<polygon fill="#5353F9" points="29.195,238.93 34.337,240.643 35.195,239.786 29.623,238.07 						"/>
						<path fill="#5353F9" d="M33.052,213.643c0.857,0-0.857,0-4.286,0c-1.286-0.429-3-0.429-4.286,0
							c0.429,0,0.857,0.428,1.714,0.857c0.857,0.429,1.714,0.857,2.571,1.286c1.714,0.857,3.429,1.286,4.286,1.286
							C32.195,216.214,32.195,214.929,33.052,213.643z"/>
						<polygon fill="#5353F9" points="17.195,221.786 22.337,223.5 23.195,222.214 17.623,220.929 						"/>
						<path fill="#5353F9" d="M20.623,265.93c-0.428,0.855-0.428,1.285-0.428,1.713c0.857,0,1.286,0,1.714,0
							c0.428,0.43,0.857,0,1.714-0.428c-0.857-0.43-1.286-0.857-1.714-1.715c0-0.857-0.429-1.285-0.857-1.285
							C20.623,264.643,20.195,265.5,20.623,265.93z"/>
						<polygon fill="#5353F9" points="54.48,177.214 57.052,176.357 57.052,174.643 54.48,175.5 						"/>
						<path fill="#5353F9" d="M69.052,213.643c0.429,0.857,0.857,1.286,1.714,0.857s1.286-0.857,1.286-1.714L69.052,213.643z"/>
						<path fill="#5353F9" d="M33.052,270.643c0.429,0,1.286-0.855,2.571-2.143c0.429-1.715,1.714-2.57,3-2.57
							c-3-0.43-5.143-0.857-6.428-0.43L33.052,270.643z"/>
						
							<rect x="25.408" y="209.907" transform="matrix(0.1517 0.9884 -0.9884 0.1517 230.9401 152.0153)" fill="#5353F9" width="3" height="1.286"/>
						<path fill="#5353F9" d="M19.766,239.786c-1.286,0.429-3,1.286-4.286,3c-0.857,1.286-1.286,2.571-1.286,3.429
							c1.286-0.429,2.571,0,3.428,0c0.429,0.428,1.714,0,3.857-1.285c-0.857,0-1.286-0.43-1.286-1.715L19.766,239.786z"/>
						<path fill="#5353F9" d="M47.195,263.785c0.428,0,1.286-0.855,2.571-2.143c0.429-1.713,1.714-2.572,3-2.572
							c-3-0.856-5.143-1.285-6.429-0.856L47.195,263.785z"/>
						<path fill="#5353F9" d="M57.052,244.93c0.429,0,1.286-0.857,2.571-2.144c0.429-1.714,1.714-2.571,3-2.571
							c-3-0.429-5.143-0.857-6.428-0.429L57.052,244.93z"/>
						<path fill="#5353F9" d="M42.48,245.786c-1.714-0.429-2.143,0-0.857,1.714h0.857c1.286,0,2.143-0.43,2.571-1.286
							C44.195,246.214,43.337,245.786,42.48,245.786z"/>
						<path fill="#5353F9" d="M37.766,256.5c-0.429,0.857-0.429,1.286-0.429,1.714c0.857,0,1.286,0,1.714,0
							c0.429,0.429,0.857,0,1.714-0.429c-0.857-0.43-1.286-0.857-1.714-1.715c0-0.856-0.429-1.285-0.857-1.285
							C37.766,255.214,37.766,255.643,37.766,256.5z"/>
						<polygon fill="#5353F9" points="53.623,185.786 55.766,173.786 53.195,172.929 51.909,185.357 						"/>
					</g>
				</g>
			</g>
		</g>
		<g>
			<path fill="#5353F9" d="M262.766,153.643c35.571,0,39.858,0,53.571,0.857c12.857,0.429,20.143,2.571,24.857,4.714
				c6,2.571,10.713,5.143,15.43,9.857c4.713,4.714,7.713,9,9.855,15.429c1.715,4.714,3.857,11.571,4.715,24.857
				c0.43,14.143,0.857,18,0.857,53.573c0,35.57,0,39.856-0.857,53.57c-0.43,12.857-2.57,20.143-4.715,24.857
				c-2.572,6-5.143,10.714-9.855,15.429c-4.717,4.714-9,7.714-15.43,9.855c-4.715,1.716-11.57,3.857-24.857,4.716
				c-14.143,0.429-18,0.855-53.571,0.855c-35.571,0-39.856,0-53.571-0.855c-12.856-0.43-20.143-2.571-24.856-4.716
				c-6-2.57-10.714-5.143-15.429-9.855c-4.713-4.715-7.713-9-9.856-15.429c-1.714-4.716-3.856-11.571-4.714-24.857
				c-0.428-14.143-0.857-18-0.857-53.57c0-35.572,0-39.857,0.857-53.573c0.427-12.857,2.57-20.143,4.713-24.857
				c2.57-6,5.143-10.714,9.857-15.429c4.713-4.714,9-7.714,15.428-9.857c4.714-1.714,11.572-3.857,24.857-4.714
				C222.91,153.643,227.195,153.643,262.766,153.643 M262.766,129.643c-36,0-40.714,0-54.856,0.857c-14.144,0.857-23.572,3-32.144,6
				c-8.571,3.429-16.286,8.143-23.571,15.429c-7.285,7.286-12,14.571-15.429,23.571c-3.429,8.571-5.571,18-6,32.143
				c-0.856,14.143-0.856,18.857-0.856,54.857s0,40.714,0.856,54.857c0.856,14.143,3,23.57,6,32.143
				c3.429,8.571,8.144,16.286,15.429,23.571c7.286,7.286,14.571,12,23.571,15.429c8.571,3.429,18,5.571,32.144,6
				c14.143,0.857,18.856,0.857,54.856,0.857c36,0,40.713,0,54.858-0.857c14.143-0.857,23.57-3,32.143-6
				c8.57-3.429,16.285-8.143,23.57-15.429c7.287-7.285,12-14.571,15.43-23.571c3.428-8.571,5.57-18,6-32.143
				c0.857-14.145,0.857-18.857,0.857-54.857s0-40.714-0.857-54.857s-3-23.572-6-32.143c-3.43-8.571-8.143-16.286-15.43-23.571
				c-7.285-7.286-14.57-12-23.57-15.429c-8.572-3.429-18-5.571-32.143-6C303.479,130.071,298.767,129.643,262.766,129.643"/>
			<path fill="#5353F9" d="M262.766,194.357c-37.714,0-68.144,30.429-68.144,68.143s30.43,68.143,68.144,68.143
				c37.713,0,68.143-30.429,68.143-68.143S300.479,194.357,262.766,194.357 M262.766,306.643c-24.429,0-44.144-19.714-44.144-44.143
				c0-24.43,19.715-44.143,44.144-44.143c24.428,0,44.143,19.713,44.143,44.143C306.909,286.929,287.194,306.643,262.766,306.643"/>
			<path fill="#5353F9" d="M349.767,191.786c0,9-7.287,15.857-15.857,15.857c-9,0-15.855-7.286-15.855-15.857
				c0-9,7.285-15.857,15.855-15.857C342.479,175.5,349.767,182.786,349.767,191.786"/>
		</g>
	</g>
</g>
</svg>
