<?xml version="1.0" encoding="utf-8"?>
<!-- Generator: Adobe Illustrator 16.0.0, SVG Export Plug-In . SVG Version: 6.00 Build 0)  -->
<!DOCTYPE svg PUBLIC "-//W3C//DTD SVG 1.1//EN" "http://www.w3.org/Graphics/SVG/1.1/DTD/svg11.dtd">
<svg version="1.1" id="Layer_1" xmlns="http://www.w3.org/2000/svg" xmlns:xlink="http://www.w3.org/1999/xlink" x="0px" y="0px"
	 width="52.597px" height="52.858px" viewBox="0 0 52.597 52.858" enable-background="new 0 0 52.597 52.858" xml:space="preserve">
<g id="Capa_1">
</g>
<g id="Layer_2">
	<g>
		<g>
			<g>
				<g>
					<g>
						<g>
							<defs>
								<ellipse id="SVGID_1_" cx="26.298" cy="26.429" rx="26.299" ry="26.429"/>
							</defs>
							<clipPath id="SVGID_2_">
								<use xlink:href="#SVGID_1_"  overflow="visible"/>
							</clipPath>
							<path clip-path="url(#SVGID_2_)" fill="#5353F9" d="M26.517,1.223c-13.848,0-25.075,11.271-25.075,25.163
								s11.228,25.119,25.075,25.119s25.075-11.271,25.075-25.119C51.548,12.494,40.322,1.223,26.517,1.223z"/>
						</g>
					</g>
				</g>
			</g>
			<g>
				<g>
					<g>
						<g>
							<defs>
								<ellipse id="SVGID_3_" cx="26.298" cy="26.429" rx="26.299" ry="26.429"/>
							</defs>
							<clipPath id="SVGID_4_">
								<use xlink:href="#SVGID_3_"  overflow="visible"/>
							</clipPath>
							<g clip-path="url(#SVGID_4_)">
								<path fill="#FFFFFF" d="M26.298-0.087c-14.634,0-26.473,11.838-26.473,26.473s11.883,26.473,26.473,26.473
									c14.635,0,26.474-11.882,26.474-26.473C52.816,11.752,40.933-0.087,26.298-0.087z M18.392,36.302v-19.79L38.4,26.429
									L18.392,36.302z"/>
								<g>
									<path fill="#5353F9" d="M51.461,32.895c-0.043,0.087-0.043,0.131-0.043,0.174c0.087,0,0.13,0,0.174,0
										c0.044,0.044,0.088,0,0.175-0.043c-0.087-0.044-0.131-0.087-0.175-0.175c0-0.087-0.043-0.131-0.087-0.131
										C51.461,32.764,51.461,32.851,51.461,32.895z"/>
									<path fill="#5353F9" d="M47.66,31.715c-0.087,0-0.175,0.044-0.219,0.175c-0.043,0.087-0.087,0.131-0.043,0.175
										c0.087,0,0.131,0,0.175,0c0.043,0,0.087,0,0.218-0.043c-0.043,0-0.043,0-0.087-0.087L47.66,31.715z"/>
									<path fill="#5353F9" d="M56.747,18.741c-0.176-0.044-0.219,0.043-0.088,0.175h0.088c0.131,0,0.218-0.087,0.262-0.131
										C56.921,18.784,56.834,18.784,56.747,18.741z"/>
									<polygon fill="#5353F9" points="54.868,24.071 55.087,23.984 55.087,23.809 54.868,23.896 									"/>
									<path fill="#5353F9" d="M44.908,26.299c-0.044-0.044,0.044,0.043,0.262,0.35c0.044,0.13,0.131,0.262,0.262,0.349
										c0-0.043,0-0.087-0.043-0.174c0-0.088-0.044-0.175-0.044-0.262c-0.043-0.218-0.087-0.35-0.175-0.437
										C45.17,26.211,45.083,26.255,44.908,26.299z"/>
									
										<rect x="43.877" y="25.791" transform="matrix(0.1515 0.9885 -0.9885 0.1515 62.976 -21.6071)" fill="#5353F9" width="0.393" height="0.175"/>
									<path fill="#5353F9" d="M44.515,27.478c-0.043,0.087-0.043,0.131-0.043,0.174c0.087,0,0.13,0,0.175,0
										c0.043,0.043,0.087,0,0.174-0.043c-0.087-0.044-0.131-0.088-0.174-0.175c0-0.087-0.044-0.131-0.088-0.131
										C44.515,27.39,44.515,27.434,44.515,27.478z"/>
									<path fill="#5353F9" d="M40.714,26.299c-0.087,0-0.174,0.043-0.218,0.175c-0.044,0.087-0.088,0.13-0.044,0.175
										c0.088,0,0.131,0,0.175,0s0.088,0,0.219-0.044c-0.044,0-0.044,0-0.087-0.087L40.714,26.299z"/>
									
										<rect x="47.675" y="45.363" transform="matrix(-0.3088 0.9511 -0.9511 -0.3088 105.7287 13.981)" fill="#5353F9" width="0.218" height="0.087"/>
									<path fill="#5353F9" d="M39.142,28.308c-0.044,0.087-0.044,0.13-0.044,0.174c0.088,0,0.131,0,0.175,0
										c0.044,0.043,0.088,0,0.175-0.043c-0.087-0.043-0.131-0.087-0.175-0.175c0-0.087-0.043-0.131-0.087-0.131
										C39.142,28.177,39.142,28.264,39.142,28.308z"/>
									<path fill="#5353F9" d="M45.476,27.085c0.044,0,0.131-0.087,0.263-0.218c0.043-0.175,0.175-0.262,0.306-0.262
										c-0.306-0.043-0.524-0.087-0.612-0.043L45.476,27.085z"/>
									<path fill="#5353F9" d="M45.825,33.026c0.044,0,0.132-0.087,0.263-0.219c0.043-0.174,0.175-0.262,0.306-0.262
										c-0.306-0.043-0.524-0.087-0.612-0.043L45.825,33.026z"/>
									<path fill="#5353F9" d="M45.869,29.444c0.044,0,0.131-0.087,0.262-0.218c0.044-0.175,0.175-0.262,0.306-0.262
										c-0.306-0.044-0.524-0.088-0.611-0.044L45.869,29.444z"/>
									<path fill="#5353F9" d="M45.17,32.24c0.044,0,0.131-0.087,0.263-0.218c0.043-0.175,0.175-0.262,0.306-0.262
										c-0.306-0.044-0.524-0.087-0.611-0.044L45.17,32.24z"/>
									<path fill="#5353F9" d="M47.573,24.944c-0.175-0.043-0.219,0-0.088,0.175h0.088c0.131,0,0.218-0.043,0.262-0.131
										C47.748,24.988,47.66,24.988,47.573,24.944z"/>
									<path fill="#5353F9" d="M40.889,25.119c-0.043,0.087-0.043,0.131-0.043,0.175c0.087,0,0.131,0,0.175,0
										c0.043,0.043,0.088,0,0.175-0.043c-0.087-0.043-0.131-0.087-0.175-0.175c0-0.087-0.044-0.131-0.088-0.131
										C40.889,24.988,40.846,25.031,40.889,25.119z"/>
									<path fill="#5353F9" d="M56.31,27.696c0.044,0.087,0.088,0.131,0.175,0.087s0.131-0.087,0.131-0.131L56.31,27.696z"/>
									<path fill="#5353F9" d="M45.607,38.312c-0.175-0.044-0.218,0-0.087,0.175h0.087c0.131,0,0.219-0.043,0.263-0.131
										C45.739,38.355,45.695,38.355,45.607,38.312z"/>
									<path fill="#5353F9" d="M49.976,33.375c0.262,0.35,0.48,0.481,0.699,0.481c0.175-0.044,0.262-0.087,0.262-0.175
										c0-0.13,0.043-0.174,0.218-0.218c0-0.13,0-0.262-0.13-0.393c-0.131-0.218-0.307-0.35-0.48-0.48
										C50.456,32.851,50.238,33.114,49.976,33.375z"/>
									<polygon fill="#5353F9" points="51.112,42.199 51.33,42.113 51.33,41.938 51.068,42.025 									"/>
									<path fill="#5353F9" d="M20.139,45.869c-0.087,0.218-0.262,0.174-0.48-0.13c-0.043,0.393,0.044,0.742,0.262,1.048
										c0.044,0,0.175-0.175,0.394-0.48c0.262,0,0.394,0.131,0.394,0.394c0,0.349,0.043,0.567,0.043,0.611
										c0.044,0,0.087-0.044,0.175-0.131c0.088-0.087,0.131-0.175,0.175-0.219c-0.131-0.306-0.393-0.786-0.699-1.485
										C20.27,45.563,20.183,45.695,20.139,45.869z"/>
									
										<rect x="46.245" y="32.178" transform="matrix(0.1533 0.9882 -0.9882 0.1533 71.1503 -18.5478)" fill="#5353F9" width="0.306" height="0.131"/>
									<polygon fill="#5353F9" points="44.865,32.458 44.69,31.89 44.559,31.934 44.777,32.458 									"/>
									
										<rect x="47.926" y="29.786" transform="matrix(0.1517 0.9884 -0.9884 0.1517 70.2314 -22.1757)" fill="#5353F9" width="0.219" height="0.087"/>
									<path fill="#5353F9" d="M46.612,51.985c0.044,0.087,0.087,0.131,0.175,0.087c0.088-0.044,0.131-0.087,0.088-0.131
										L46.612,51.985z"/>
									<path fill="#5353F9" d="M3.757,13.717c-0.043,0.044-0.087,0.088-0.087,0.131c0.087,0.043,0.131,0.043,0.131,0.087
										c0.044,0.043,0.087,0.043,0.175,0.043c-0.044-0.043-0.088-0.131-0.088-0.218c0.044-0.087,0-0.131,0-0.131
										C3.844,13.63,3.801,13.674,3.757,13.717z"/>
									<path fill="#5353F9" d="M52.728,33.375c0.044,0,0.131-0.087,0.262-0.218c0.044-0.175,0.175-0.262,0.307-0.262
										c-0.307-0.043-0.524-0.087-0.612-0.043L52.728,33.375z"/>
									<path fill="#5353F9" d="M48.84,32.371c-0.131-0.043-0.175,0-0.087,0.131h0.087c0.087,0,0.175-0.044,0.175-0.088
										C48.971,32.371,48.927,32.371,48.84,32.371z"/>
									<path fill="#5353F9" d="M44.821,33.2c0.132,0.175,0.263,0.262,0.394,0.262c0.087,0,0.131-0.043,0.131-0.087
										c0-0.043,0.044-0.087,0.087-0.087c0-0.043,0-0.131-0.043-0.219c-0.088-0.131-0.175-0.218-0.263-0.262
										C45.039,32.895,44.952,33.026,44.821,33.2z"/>
									<polygon fill="#5353F9" points="48.753,31.279 48.927,31.104 48.84,30.972 48.665,31.148 									"/>
									
										<rect x="51.954" y="27.309" transform="matrix(0.153 0.9882 -0.9882 0.153 71.1864 -28.3076)" fill="#5353F9" width="0.306" height="0.131"/>
									<polygon fill="#5353F9" points="50.587,27.565 50.412,26.997 50.281,27.041 50.5,27.565 									"/>
									<path fill="#5353F9" d="M3.626,20.489c0.044,0.087,0.087,0.131,0.175,0.087c0.087-0.044,0.131-0.087,0.087-0.131
										L3.626,20.489z"/>
									<path fill="#5353F9" d="M5.942,13.193c-0.044,0.043-0.087,0.087-0.087,0.131c0.087,0.043,0.131,0.043,0.131,0.087
										c0.043,0.044,0.087,0.044,0.175,0.044c-0.044-0.044-0.087-0.131-0.087-0.218c0.043-0.087,0-0.131,0-0.131
										C5.986,13.062,5.942,13.106,5.942,13.193z"/>
									<path fill="#5353F9" d="M51.417,30.274c-0.131,0.044-0.306,0.131-0.393,0.306c-0.088,0.131-0.131,0.263-0.131,0.35
										c0.131-0.043,0.262,0,0.35,0c0.043,0.044,0.175,0,0.393-0.131c-0.088,0-0.131-0.043-0.131-0.131L51.417,30.274z"/>
									<path fill="#5353F9" d="M54.126,32.677c0.043,0,0.13-0.087,0.262-0.218c0.043-0.175,0.175-0.262,0.306-0.262
										c-0.306-0.044-0.524-0.087-0.612-0.044L54.126,32.677z"/>
									<polygon fill="#5353F9" points="49.801,27.609 50.281,27.129 50.063,26.735 49.539,27.216 									"/>
									<path fill="#5353F9" d="M4.325,19.396c0.043,0.087,0.087,0.131,0.174,0.087c0.088-0.043,0.131-0.087,0.088-0.131
										L4.325,19.396z"/>
									<path fill="#5353F9" d="M51.68,42.549c-0.044,0.044-0.088,0.087-0.088,0.131c0.088,0.043,0.131,0.043,0.131,0.087
										c0.044,0.043,0.088,0.043,0.175,0.043c-0.043-0.043-0.087-0.131-0.087-0.218c0.043-0.087,0-0.131,0-0.131
										C51.767,42.418,51.723,42.462,51.68,42.549z"/>
									<path fill="#5353F9" d="M39.928,35.035c-0.087,0-0.175,0.043-0.218,0.175c-0.044,0.087-0.088,0.131-0.044,0.175
										c0.087,0,0.131,0,0.175,0s0.088,0,0.219-0.043c-0.044,0-0.044,0-0.088-0.087L39.928,35.035z"/>
									<path fill="#5353F9" d="M55.087,30.798c0.043,0,0.131-0.088,0.262-0.219c0.044-0.175,0.175-0.262,0.306-0.262
										c-0.306-0.044-0.524-0.087-0.611-0.044L55.087,30.798z"/>
									<path fill="#5353F9" d="M53.646,30.885c-0.176-0.043-0.219,0-0.088,0.175h0.088c0.131,0,0.218-0.043,0.262-0.131
										C53.82,30.929,53.733,30.885,53.646,30.885z"/>
									<path fill="#5353F9" d="M47.18,30.623c0.131,0.175,0.262,0.262,0.394,0.262c0.087,0,0.131-0.043,0.131-0.087
										s0.043-0.087,0.087-0.087c0-0.043,0-0.131-0.044-0.218c-0.087-0.131-0.174-0.219-0.262-0.262
										C47.399,30.361,47.311,30.492,47.18,30.623z"/>
									<polygon fill="#5353F9" points="51.112,28.745 51.286,28.526 51.199,28.396 51.025,28.57 									"/>
									<path fill="#5353F9" d="M53.164,31.934c-0.044,0.087-0.044,0.131-0.044,0.175c0.088,0,0.132,0,0.176,0
										c0.043,0.043,0.087,0,0.174-0.044c-0.087-0.043-0.131-0.087-0.174-0.175c0-0.087-0.044-0.131-0.088-0.131
										C53.208,31.802,53.164,31.89,53.164,31.934z"/>
									<path fill="#5353F9" d="M49.407,30.754c-0.087,0-0.174,0.044-0.218,0.175c-0.044,0.088-0.087,0.131-0.044,0.175
										c0.088,0,0.131,0,0.175,0s0.087,0,0.219-0.044c-0.044,0-0.044,0-0.088-0.087L49.407,30.754z"/>
									<path fill="#5353F9" d="M46.656,25.337c-0.044-0.043,0.043,0.044,0.263,0.35c0.043,0.131,0.131,0.262,0.262,0.35
										c0-0.043,0-0.087-0.044-0.174c0-0.087-0.043-0.175-0.043-0.263c-0.044-0.218-0.088-0.349-0.175-0.437
										C46.874,25.25,46.786,25.294,46.656,25.337z"/>
									
										<rect x="45.59" y="24.806" transform="matrix(0.1515 0.9885 -0.9885 0.1515 63.4558 -24.1359)" fill="#5353F9" width="0.393" height="0.175"/>
									<path fill="#5353F9" d="M46.219,26.516c-0.044,0.088-0.044,0.132-0.044,0.175c0.087,0,0.131,0,0.175,0
										c0.044,0.044,0.087,0,0.175-0.043c-0.087-0.044-0.131-0.087-0.175-0.175c0-0.087-0.043-0.131-0.087-0.131
										C46.219,26.429,46.219,26.473,46.219,26.516z"/>
									<path fill="#5353F9" d="M42.462,25.337c-0.087,0-0.175,0.044-0.219,0.175c-0.043,0.087-0.087,0.131-0.043,0.175
										c0.087,0,0.131,0,0.174,0c0.044,0,0.088,0,0.219-0.043c-0.043,0-0.043,0-0.087-0.087L42.462,25.337z"/>
									<path fill="#5353F9" d="M40.846,27.347c-0.044,0.087-0.044,0.131-0.044,0.174c0.087,0,0.131,0,0.175,0
										c0.044,0.044,0.087,0,0.175-0.043c-0.088-0.044-0.131-0.088-0.175-0.175c0-0.087-0.044-0.131-0.088-0.131
										C40.846,27.216,40.846,27.303,40.846,27.347z"/>
									<path fill="#5353F9" d="M47.18,26.124c0.044,0,0.131-0.087,0.262-0.219c0.044-0.174,0.175-0.262,0.306-0.262
										c-0.306-0.043-0.523-0.087-0.611-0.043L47.18,26.124z"/>
									<path fill="#5353F9" d="M47.573,32.065c0.043,0,0.131-0.087,0.262-0.218c0.043-0.175,0.175-0.262,0.306-0.262
										c-0.306-0.043-0.524-0.087-0.612-0.043L47.573,32.065z"/>
									<path fill="#5353F9" d="M48.36,29.269c0.044,0,0.131-0.087,0.263-0.219c0.043-0.175,0.174-0.262,0.305-0.262
										c-0.305-0.043-0.523-0.087-0.611-0.043L48.36,29.269z"/>
									<path fill="#5353F9" d="M46.131,30.972c0.044,0,0.131-0.087,0.263-0.218c0.043-0.175,0.175-0.262,0.305-0.262
										c-0.305-0.044-0.523-0.087-0.611-0.044L46.131,30.972z"/>
									<path fill="#5353F9" d="M42.812,23.721c0.131,0.175,0.262,0.262,0.393,0.262c0.087,0,0.131-0.043,0.131-0.087
										c0-0.043,0.044-0.087,0.088-0.087c0-0.043,0-0.131-0.044-0.219c-0.088-0.131-0.175-0.218-0.262-0.262
										C43.073,23.459,42.943,23.59,42.812,23.721z"/>
									<path fill="#5353F9" d="M42.593,24.157c-0.044,0.087-0.044,0.131-0.044,0.175c0.088,0,0.131,0,0.175,0
										c0.044,0.044,0.088,0,0.175-0.043c-0.087-0.043-0.131-0.087-0.175-0.174c0-0.088-0.043-0.131-0.087-0.131
										C42.593,24.027,42.593,24.071,42.593,24.157z"/>
									<path fill="#5353F9" d="M33.332,50.893c-0.044,0-0.044,0.044-0.044,0.044c0.044,0,0.044,0,0.044,0.043
										c0,0,0.043,0.043,0.087,0c0-0.043-0.043-0.043-0.043-0.087c0-0.043,0-0.044,0-0.044L33.332,50.893z"/>
									<path fill="#5353F9" d="M32.24,49.801c-0.043,0-0.087,0-0.087,0c-0.044,0-0.044,0.043-0.044,0.043
										c0.044,0,0.044,0,0.044,0.044c0,0,0.044,0,0.087,0c0,0,0,0,0-0.044V49.801z"/>
									<path fill="#5353F9" d="M34.643,47.966c0.087,0.044,0.13,0.087,0.175,0.044c0.043,0,0.043-0.044,0.043-0.044
										c0-0.043,0-0.043,0.044-0.043c0-0.044,0-0.044-0.044-0.088c-0.043-0.043-0.087-0.043-0.131-0.087
										C34.73,47.835,34.686,47.923,34.643,47.966z"/>
									<path fill="#5353F9" d="M36.87,43.772c0-0.043,0,0.044,0.043,0.262c0,0.087,0,0.175,0.044,0.262
										c0-0.043,0-0.043,0.044-0.087c0-0.043,0.043-0.087,0.043-0.175c0.044-0.131,0.044-0.218,0.044-0.262
										C37.045,43.816,36.957,43.816,36.87,43.772z"/>
									
										<rect x="36.418" y="43.237" transform="matrix(-0.3082 0.9513 -0.9513 -0.3082 88.9786 21.8977)" fill="#5353F9" width="0.219" height="0.131"/>
									<path fill="#5353F9" d="M36.346,44.341c-0.043,0.043-0.043,0.043-0.043,0.087c0.043,0,0.087,0.043,0.087,0.043
										c0,0.044,0.043,0.044,0.131,0c-0.044-0.043-0.044-0.087-0.044-0.13c0-0.044,0-0.087,0-0.087
										C36.39,44.253,36.346,44.297,36.346,44.341z"/>
									<path fill="#5353F9" d="M34.643,42.68c-0.044,0-0.088,0-0.175,0.044c-0.044,0.044-0.088,0.044-0.088,0.087
										c0.044,0,0.088,0.043,0.088,0.043s0.043,0.043,0.13,0.043c-0.043,0-0.043-0.043,0-0.043L34.643,42.68z"/>
									<path fill="#5353F9" d="M43.86,44.471c0.044,0,0.088,0,0.175-0.043c0.088-0.087,0.131-0.087,0.219-0.043
										c-0.131-0.131-0.263-0.175-0.306-0.219L43.86,44.471z"/>
									<path fill="#5353F9" d="M43.073,44.122c-0.087-0.043-0.131-0.043-0.087,0.044h0.043c0.088,0.043,0.131,0.043,0.176,0
										C43.161,44.209,43.117,44.166,43.073,44.122z"/>
									<path fill="#5353F9" d="M47.53,44.166c0,0.131,0.044,0.218,0.131,0.218c0.044,0,0.087,0,0.087,0
										c0-0.043,0.044-0.043,0.088-0.043c0.043-0.044,0.043-0.087,0.043-0.131c0-0.087-0.043-0.131-0.043-0.218
										C47.748,44.078,47.66,44.122,47.53,44.166z"/>
									<polygon fill="#5353F9" points="42.287,42.287 42.462,42.243 42.462,42.156 42.287,42.199 									"/>
									<path fill="#5353F9" d="M43.467,41.676c-0.088,0.087-0.175,0-0.219-0.175c-0.131,0.218-0.175,0.393-0.131,0.612
										c0.044,0,0.131-0.043,0.35-0.175c0.131,0.087,0.175,0.175,0.131,0.306c-0.087,0.218-0.131,0.305-0.131,0.35
										c0.044,0,0.044,0,0.131-0.044c0.044-0.043,0.131-0.043,0.175-0.043c0-0.219,0-0.524,0.044-1.005
										C43.597,41.544,43.554,41.632,43.467,41.676z"/>
									<polygon fill="#5353F9" points="44.297,40.802 44.34,40.452 44.253,40.452 44.253,40.802 									"/>
									<path fill="#5353F9" d="M40.452,42.506c0.044,0,0.088,0,0.175-0.044c0.087-0.087,0.131-0.087,0.219-0.043
										c-0.132-0.131-0.263-0.175-0.306-0.218L40.452,42.506z"/>
									<path fill="#5353F9" d="M47.53,44.078c-0.088-0.044-0.131-0.044-0.088,0.043h0.044c0.088,0.044,0.131,0.044,0.175,0
										C47.573,44.122,47.53,44.078,47.53,44.078z"/>
									<polygon fill="#5353F9" points="38.88,40.322 39.011,40.278 39.011,40.191 38.88,40.234 									"/>
									<path fill="#5353F9" d="M40.016,39.709c-0.088,0.088-0.175,0-0.219-0.174c-0.131,0.218-0.175,0.393-0.131,0.612
										c0.044,0,0.131-0.044,0.35-0.175c0.131,0.087,0.175,0.175,0.131,0.306c-0.087,0.218-0.131,0.306-0.131,0.349
										c0.044,0,0.044,0,0.131-0.043c0.044-0.044,0.131-0.044,0.175-0.044c0-0.218,0-0.524,0.044-1.004
										C40.191,39.578,40.103,39.622,40.016,39.709z"/>
									
										<rect x="41.614" y="39.098" transform="matrix(-0.307 0.9517 -0.9517 -0.307 91.7564 11.4708)" fill="#5353F9" width="0.175" height="0.088"/>
									<polygon fill="#5353F9" points="40.846,38.836 40.889,38.487 40.846,38.487 40.802,38.792 									"/>
									
										<rect x="43.167" y="38.276" transform="matrix(-0.3129 0.9498 -0.9498 -0.3129 93.1334 9.2171)" fill="#5353F9" width="0.131" height="0.043"/>
									<path fill="#5353F9" d="M33.244,43.292c-0.043,0.043-0.043,0.043-0.043,0.087c0.043,0,0.087,0.044,0.087,0.044
										c0,0.043,0.044,0.043,0.131,0c-0.043-0.044-0.043-0.087-0.043-0.131c0-0.044,0-0.088,0-0.088
										C33.288,43.248,33.288,43.292,33.244,43.292z"/>
									<path fill="#5353F9" d="M40.802,43.467c0.044,0,0.087,0,0.175-0.043c0.087-0.087,0.131-0.087,0.219-0.044
										c-0.132-0.13-0.263-0.175-0.307-0.218L40.802,43.467z"/>
									<path fill="#5353F9" d="M40.016,43.117c-0.088-0.043-0.131-0.043-0.088,0.044h0.044c0.088,0.043,0.131,0.043,0.175,0
										C40.059,43.204,40.016,43.161,40.016,43.117z"/>
									<path fill="#5353F9" d="M36.609,41.239c0,0.131,0.043,0.218,0.131,0.218c0.044,0,0.087,0,0.087,0
										c0-0.043,0.044-0.043,0.087-0.043c0.044-0.043,0.044-0.087,0.044-0.131c0-0.087-0.044-0.131-0.044-0.218
										C36.782,41.152,36.696,41.195,36.609,41.239z"/>
									<polygon fill="#5353F9" points="39.23,41.282 39.361,41.239 39.361,41.152 39.186,41.195 									"/>
									<path fill="#5353F9" d="M40.365,40.671c-0.087,0.087-0.174,0-0.218-0.174c-0.131,0.218-0.175,0.393-0.131,0.611
										c0.044,0,0.131-0.043,0.35-0.175c0.131,0.087,0.175,0.175,0.131,0.306c-0.088,0.218-0.131,0.306-0.131,0.35
										c0.043,0,0.043,0,0.131-0.044c0.044-0.043,0.131-0.043,0.175-0.043c0-0.218,0-0.524,0.043-1.004
										C40.54,40.539,40.452,40.627,40.365,40.671z"/>
									
										<rect x="41.968" y="40.085" transform="matrix(-0.3137 0.9495 -0.9495 -0.3137 93.351 12.7841)" fill="#5353F9" width="0.174" height="0.087"/>
									<polygon fill="#5353F9" points="41.196,39.797 41.239,39.448 41.196,39.448 41.152,39.797 									"/>
									
										<rect x="43.537" y="39.228" transform="matrix(-0.3072 0.9516 -0.9516 -0.3072 94.3495 9.816)" fill="#5353F9" width="0.13" height="0.044"/>
									<path fill="#5353F9" d="M39.448,44.122c0.044,0,0.087,0,0.175-0.043c0.088-0.087,0.131-0.087,0.219-0.043
										c-0.131-0.131-0.262-0.175-0.306-0.219L39.448,44.122z"/>
									<path fill="#5353F9" d="M36.957,44.341c0.044,0,0.088,0,0.175-0.044c0.087-0.087,0.131-0.087,0.219-0.043
										c-0.132-0.131-0.263-0.175-0.306-0.219L36.957,44.341z"/>
									<path fill="#5353F9" d="M36.74,46.35c0.044,0,0.087,0,0.175-0.043c0.087-0.088,0.131-0.088,0.218-0.044
										c-0.131-0.131-0.262-0.175-0.306-0.218L36.74,46.35z"/>
									<path fill="#5353F9" d="M38.661,43.772c-0.088-0.043-0.131-0.043-0.088,0.044h0.044c0.087,0.043,0.132,0.043,0.175,0
										C38.749,43.86,38.705,43.816,38.661,43.772z"/>
									<path fill="#5353F9" d="M35.254,41.894c0,0.131,0.044,0.218,0.131,0.218c0.044,0,0.087,0,0.087,0
										c0-0.043,0.044-0.043,0.088-0.043c0.043-0.044,0.043-0.087,0.043-0.131c0-0.087-0.043-0.131-0.043-0.219
										C35.472,41.806,35.385,41.894,35.254,41.894z"/>
									<polygon fill="#5353F9" points="45.739,43.86 45.869,43.816 45.869,43.728 45.739,43.772 									"/>
									<path fill="#5353F9" d="M46.918,43.248c-0.088,0.087-0.175,0-0.219-0.175c-0.131,0.218-0.175,0.393-0.131,0.612
										c0.043,0,0.131-0.044,0.35-0.175c0.131,0.087,0.175,0.175,0.131,0.306c-0.087,0.218-0.131,0.306-0.131,0.35
										c0.044,0,0.044,0,0.131-0.044c0.043-0.043,0.131-0.043,0.175-0.043c0-0.218,0-0.524,0.043-1.005
										C47.049,43.117,46.961,43.161,46.918,43.248z"/>
									
										<rect x="40.615" y="40.706" transform="matrix(-0.3086 0.9512 -0.9512 -0.3086 92.0247 14.611)" fill="#5353F9" width="0.174" height="0.087"/>
									<polygon fill="#5353F9" points="39.884,40.452 39.928,40.147 39.841,40.103 39.841,40.452 									"/>
									
										<rect x="42.205" y="39.904" transform="matrix(-0.3061 0.952 -0.952 -0.3061 93.2205 11.9076)" fill="#5353F9" width="0.131" height="0.044"/>
									<path fill="#5353F9" d="M35.035,42.069c-0.044,0.043-0.044,0.043-0.044,0.087c0.044,0,0.088,0.043,0.088,0.043
										c0,0.044,0.044,0.044,0.131,0c-0.044-0.043-0.044-0.087-0.044-0.131c0-0.044,0-0.087,0-0.087
										C35.079,42.025,35.035,42.025,35.035,42.069z"/>
									<path fill="#5353F9" d="M42.549,42.243c0.044,0,0.088,0,0.175-0.044c0.088-0.087,0.132-0.087,0.219-0.043
										c-0.131-0.131-0.262-0.175-0.306-0.219L42.549,42.243z"/>
									<path fill="#5353F9" d="M41.763,41.894c-0.087-0.043-0.131-0.043-0.087,0.043h0.044c0.087,0.043,0.131,0.043,0.174,0
										C41.851,41.938,41.807,41.938,41.763,41.894z"/>
									<path fill="#5353F9" d="M38.4,40.016c0,0.131,0.043,0.218,0.131,0.218c0.043,0,0.087,0,0.087,0
										c0-0.043,0.044-0.043,0.087-0.043c0.044-0.044,0.044-0.088,0.044-0.131c0-0.087-0.044-0.131-0.044-0.219
										C38.573,39.928,38.487,39.972,38.4,40.016z"/>
									<polygon fill="#5353F9" points="40.977,40.059 41.152,40.016 41.152,39.928 40.977,39.972 									"/>
									<path fill="#5353F9" d="M42.156,39.448c-0.088,0.087-0.175,0-0.218-0.175c-0.132,0.218-0.176,0.393-0.132,0.612
										c0.044,0,0.132-0.044,0.35-0.175c0.131,0.087,0.175,0.175,0.131,0.306c-0.087,0.219-0.131,0.306-0.131,0.35
										c0.044,0,0.044,0,0.131-0.043c0.044-0.044,0.131-0.044,0.175-0.044c0-0.218,0-0.524,0.044-1.005
										C42.331,39.317,42.243,39.36,42.156,39.448z"/>
									
										<rect x="43.75" y="38.798" transform="matrix(-0.312 0.9501 -0.9501 -0.312 94.4188 9.3129)" fill="#5353F9" width="0.175" height="0.087"/>
									<polygon fill="#5353F9" points="42.987,38.574 43.03,38.224 42.943,38.181 42.943,38.53 									"/>
									<path fill="#5353F9" d="M35.429,48.84c0,0.043,0.044,0.043,0.087,0c0.044,0,0.044-0.044,0.044-0.044L35.429,48.84z"/>
									<path fill="#5353F9" d="M42.681,40.365c-0.044,0.044-0.044,0.044-0.044,0.087c0.044,0,0.087,0.044,0.087,0.044
										c0,0.043,0.044,0.043,0.131,0c-0.043-0.044-0.043-0.087-0.043-0.131c0-0.043,0-0.087,0-0.087
										C42.724,40.278,42.681,40.322,42.681,40.365z"/>
									<path fill="#5353F9" d="M40.977,38.705c-0.044,0-0.088,0-0.175,0.043c-0.043,0.044-0.088,0.044-0.088,0.087
										c0.044,0,0.088,0.043,0.088,0.043s0.044,0.044,0.131,0.044c-0.044,0-0.044-0.044,0-0.044L40.977,38.705z"/>
									<path fill="#5353F9" d="M42.593,36.739c-0.044,0.131-0.044,0.306,0.087,0.437c-0.175,0.218-0.306,0.393-0.35,0.612
										l-0.087,0.262c0.044,0.043,0.088,0.087,0.219,0.131c0.043,0,0.087,0.044,0.131,0.044s0.087,0.043,0.175,0.043
										c0.087-0.087,0.131-0.175,0.175-0.306c0.043-0.044,0.087-0.131,0.131-0.219l0.087-0.262l-0.175-0.044
										c-0.043,0-0.131,0.087-0.218,0.263l-0.132-0.044v-0.306c0.044-0.043,0.088-0.087,0.176-0.131
										c0.043,0,0.043-0.044,0.087-0.044s0.087-0.043,0.131-0.087c0,0,0-0.043,0-0.087c0-0.131-0.044-0.175-0.044-0.131
										L42.593,36.739z"/>
									
										<rect x="31.472" y="50.453" transform="matrix(-0.31 0.9507 -0.9507 -0.31 89.4581 36.1118)" fill="#5353F9" width="0.306" height="0.132"/>
									
										<rect x="32.32" y="52.814" transform="matrix(-0.31 0.9507 -0.9507 -0.31 92.8135 38.3978)" fill="#5353F9" width="0.306" height="0.13"/>
									<polygon fill="#5353F9" points="30.973,51.156 31.104,50.368 30.929,50.325 30.842,51.156 									"/>
									
										<rect x="43.612" y="47.395" transform="matrix(-0.3089 0.9511 -0.9511 -0.3089 102.579 20.4703)" fill="#5353F9" width="0.481" height="0.219"/>
									<path fill="#5353F9" d="M43.729,46.044c-0.175-0.043-0.35-0.043-0.611,0.088c-0.175,0.087-0.262,0.175-0.306,0.306
										c0.175,0.043,0.306,0.131,0.35,0.174c0.044,0.044,0.175,0.088,0.48,0.088c-0.087-0.044-0.087-0.088-0.087-0.219
										L43.729,46.044z"/>
									<polygon fill="#5353F9" points="54.781,24.944 54.956,23.721 54.694,23.634 54.607,24.857 									"/>
									
										<rect x="30.538" y="52.392" transform="matrix(-0.3105 0.9506 -0.9506 -0.3105 90.1927 39.5399)" fill="#5353F9" width="0.437" height="0.175"/>
									<polygon fill="#5353F9" points="28.657,51.723 28.788,50.893 28.614,50.849 28.527,51.679 									"/>
									
										<rect x="34.31" y="49.246" transform="matrix(0.4053 0.9142 -0.9142 0.4053 65.5769 -2.1784)" fill="#5353F9" width="0.306" height="0.13"/>
									
										<rect x="31.339" y="54.76" transform="matrix(-0.3109 0.9505 -0.9505 -0.3109 93.497 41.9028)" fill="#5353F9" width="0.437" height="0.175"/>
									<polygon fill="#5353F9" points="29.488,54.082 29.618,53.296 29.444,53.208 29.357,54.038 									"/>
									
										<rect x="36.493" y="50.443" transform="matrix(0.4053 0.9142 -0.9142 0.4053 67.9705 -3.4617)" fill="#5353F9" width="0.306" height="0.131"/>
									
										<rect x="31.955" y="54.317" transform="matrix(-0.31 0.9507 -0.9507 -0.31 93.7639 40.7139)" fill="#5353F9" width="0.306" height="0.13"/>
									<path fill="#5353F9" d="M3.015,22.41c0.087,0.043,0.262,0,0.48-0.131c0.175-0.175,0.393-0.219,0.611-0.131
										c-0.35-0.262-0.655-0.437-0.83-0.524L3.015,22.41z"/>
									
										<rect x="36.254" y="49.334" transform="matrix(0.4066 0.9136 -0.9136 0.4066 66.7975 -3.9937)" fill="#5353F9" width="0.437" height="0.175"/>
									<polygon fill="#5353F9" points="34.38,50.238 33.944,49.539 33.769,49.626 34.293,50.281 									"/>
									
										<rect x="3.309" y="17.198" transform="matrix(-0.3089 0.9511 -0.9511 -0.3089 21.1067 19.2774)" fill="#5353F9" width="0.481" height="0.219"/>
									<path fill="#5353F9" d="M48.883,23.24c-0.13,0.087-0.218,0.175-0.218,0.262c0.175,0.044,0.262,0.131,0.306,0.175
										c0.044,0.131,0.175,0.131,0.393,0.044c-0.087-0.131-0.175-0.306-0.175-0.481c0.044-0.174,0.044-0.262-0.044-0.305
										C48.971,23.022,48.927,23.11,48.883,23.24z"/>
									
										<rect x="36.312" y="48.629" transform="matrix(0.4044 0.9146 -0.9146 0.4044 66.3922 -4.4282)" fill="#5353F9" width="0.568" height="0.262"/>
									
										<rect x="45.314" y="48.15" transform="matrix(-0.3097 0.9508 -0.9508 -0.3097 105.8897 19.8169)" fill="#5353F9" width="0.874" height="0.393"/>
									<path fill="#5353F9" d="M48.097,45.869c-0.174-0.043-0.35-0.043-0.611,0.087c-0.175,0.087-0.262,0.175-0.306,0.306
										c0.175,0.043,0.306,0.131,0.35,0.175c0.044,0.043,0.175,0.087,0.48,0.087c-0.087-0.044-0.087-0.087-0.087-0.219
										L48.097,45.869z"/>
									<path fill="#5353F9" d="M46.874,38.749c-0.176,0.043-0.35,0.131-0.48,0.35c-0.131,0.174-0.175,0.306-0.131,0.437
										c0.175-0.044,0.306-0.044,0.393,0c0.043,0.043,0.219,0,0.437-0.131c-0.087,0-0.13-0.044-0.174-0.175L46.874,38.749z"/>
									<path fill="#5353F9" d="M49.845,36.914c-0.175,0.044-0.35,0.131-0.48,0.35c-0.131,0.175-0.175,0.306-0.131,0.437
										c0.174-0.043,0.306-0.043,0.393,0c0.044,0.043,0.219,0,0.437-0.131c-0.087,0-0.13-0.043-0.175-0.175L49.845,36.914z"/>
									
										<rect x="31.545" y="52.114" transform="matrix(-0.31 0.9507 -0.9507 -0.31 91.1336 38.2186)" fill="#5353F9" width="0.306" height="0.131"/>
									
										<rect x="30.622" y="54.015" transform="matrix(-0.3085 0.9512 -0.9512 -0.3085 91.8182 41.4579)" fill="#5353F9" width="0.437" height="0.175"/>
									
										<rect x="35.46" y="50.419" transform="matrix(0.4053 0.9142 -0.9142 0.4053 67.3343 -2.5312)" fill="#5353F9" width="0.306" height="0.131"/>
									
										<rect x="31.08" y="53.6" transform="matrix(-0.3095 0.9509 -0.9509 -0.3095 92.1646 40.5382)" fill="#5353F9" width="0.568" height="0.262"/>
									<path fill="#5353F9" d="M51.199,24.507c0.13-0.087-0.132,0.088-0.787,0.524c-0.306,0.131-0.567,0.306-0.83,0.524
										c0.088,0,0.219,0,0.393-0.044c0.175,0,0.394-0.043,0.612-0.043c0.437-0.044,0.786-0.131,1.005-0.262
										C51.33,25.075,51.199,24.857,51.199,24.507z"/>
									
										<rect x="32.699" y="52.577" transform="matrix(-0.3098 0.9508 -0.9508 -0.3098 93.3152 37.6738)" fill="#5353F9" width="0.567" height="0.262"/>
									
										<rect x="36.633" y="49.933" transform="matrix(0.4041 0.9147 -0.9147 0.4041 67.7954 -3.9344)" fill="#5353F9" width="0.568" height="0.262"/>
									<path fill="#5353F9" d="M34.905,49.801c-0.087,0.043-0.175,0.131-0.262,0.305c-0.044,0.131-0.044,0.219,0,0.306
										c0.087-0.044,0.175-0.087,0.262-0.087c0.044,0,0.131-0.043,0.263-0.175c-0.044,0.044-0.088,0-0.132-0.087L34.905,49.801z"
										/>
									
										<rect x="3.813" y="18.228" transform="matrix(0.1521 0.9884 -0.9884 0.1521 21.6567 11.4755)" fill="#5353F9" width="0.655" height="0.262"/>
									<path fill="#5353F9" d="M47.399,33.332c-0.175,0.043-0.351,0.131-0.48,0.349c-0.132,0.175-0.175,0.306-0.132,0.438
										c0.175-0.044,0.306-0.044,0.394,0c0.044,0.043,0.219,0,0.437-0.131c-0.087,0-0.131-0.043-0.175-0.175L47.399,33.332z"/>
									
										<rect x="38.79" y="46.281" transform="matrix(-0.3092 0.951 -0.951 -0.3092 95.2155 23.6172)" fill="#5353F9" width="0.48" height="0.219"/>
									<path fill="#5353F9" d="M38.923,44.908c-0.174-0.044-0.35-0.044-0.611,0.087c-0.175,0.087-0.262,0.175-0.306,0.306
										c0.175,0.044,0.306,0.131,0.35,0.175s0.175,0.087,0.48,0.087c-0.087-0.043-0.087-0.087-0.087-0.218L38.923,44.908z"/>
									<polygon fill="#5353F9" points="49.976,23.809 50.151,22.585 49.888,22.498 49.757,23.721 									"/>
									
										<rect x="31.988" y="51.941" transform="matrix(-0.3095 0.9509 -0.9509 -0.3095 91.5429 37.5413)" fill="#5353F9" width="0.306" height="0.132"/>
									
										<rect x="32.55" y="51.007" transform="matrix(-0.3105 0.9506 -0.9506 -0.3105 91.5126 35.8125)" fill="#5353F9" width="0.437" height="0.174"/>
									
										<rect x="43.141" y="46.103" transform="matrix(-0.3092 0.951 -0.951 -0.3092 100.7418 19.2465)" fill="#5353F9" width="0.48" height="0.219"/>
									<path fill="#5353F9" d="M35.648,50.368c0-0.087-0.044,0.088-0.132,0.612c-0.087,0.175-0.175,0.393-0.175,0.611
										c0.044-0.043,0.088-0.087,0.175-0.175c0.088-0.087,0.175-0.175,0.263-0.306c0.218-0.218,0.306-0.393,0.35-0.568
										C35.952,50.587,35.778,50.543,35.648,50.368z"/>
									
										<rect x="33.024" y="50.555" transform="matrix(-0.3095 0.9509 -0.9509 -0.3095 91.8146 34.701)" fill="#5353F9" width="0.568" height="0.262"/>
									
										<rect x="35.515" y="48.204" transform="matrix(0.4044 0.9146 -0.9146 0.4044 65.5295 -3.9521)" fill="#5353F9" width="0.568" height="0.262"/>
									<path fill="#5353F9" d="M35.604,48.84c-0.088-0.044,0.087,0.043,0.48,0.35c0.131,0.175,0.306,0.306,0.524,0.393
										c-0.044-0.043-0.044-0.13-0.088-0.262c-0.043-0.087-0.087-0.218-0.175-0.35c-0.131-0.262-0.262-0.437-0.393-0.568
										C35.909,48.621,35.822,48.752,35.604,48.84z"/>
									
										<rect x="33.967" y="48.397" transform="matrix(0.4041 0.9147 -0.9147 0.4041 64.8012 -2.4113)" fill="#5353F9" width="0.568" height="0.261"/>
									
										<rect x="44.848" y="46.855" transform="matrix(-0.3097 0.9508 -0.9508 -0.3097 104.0466 18.5642)" fill="#5353F9" width="0.874" height="0.393"/>
									<polygon fill="#5353F9" points="39.622,40.802 39.753,39.797 39.535,39.709 39.448,40.758 									"/>
									
										<rect x="28.995" y="50.519" transform="matrix(-0.3095 0.9509 -0.9509 -0.3095 86.2705 38.5245)" fill="#5353F9" width="0.306" height="0.131"/>
									
										<rect x="30.136" y="51.046" transform="matrix(-0.3095 0.9509 -0.9509 -0.3095 88.4989 38.0911)" fill="#5353F9" width="0.568" height="0.262"/>
									<path fill="#5353F9" d="M44.865,35.865c-0.175-0.044-0.35-0.044-0.611,0.087c-0.175,0.087-0.263,0.175-0.306,0.306
										c0.175,0.043,0.306,0.131,0.35,0.175c0.043,0.043,0.175,0.087,0.48,0.087c-0.088-0.043-0.088-0.087-0.088-0.218
										L44.865,35.865z"/>
									
										<rect x="45.459" y="49.758" transform="matrix(-0.3103 0.9507 -0.9507 -0.3103 107.2068 21.9075)" fill="#5353F9" width="0.393" height="0.175"/>
									<polygon fill="#5353F9" points="4.194,15.989 4.281,15.465 4.151,15.421 4.107,15.989 									"/>
									
										<rect x="50.557" y="41.338" transform="matrix(-0.3082 0.9513 -0.9513 -0.3082 105.6484 5.9348)" fill="#5353F9" width="0.219" height="0.087"/>
									<path fill="#5353F9" d="M6.335,13.193c0-0.087,0,0.087,0.087,0.393c0,0.131,0,0.306,0.087,0.437
										c0-0.043,0.044-0.087,0.044-0.175c0.044-0.087,0.044-0.175,0.087-0.262c0.044-0.175,0.088-0.35,0.044-0.48
										C6.553,13.237,6.466,13.237,6.335,13.193z"/>
									
										<rect x="50.207" y="42.382" transform="matrix(-0.3103 0.9507 -0.9507 -0.3103 106.416 7.7293)" fill="#5353F9" width="0.393" height="0.175"/>
									<path fill="#5353F9" d="M5.461,12.581c0-0.087,0,0.087,0.087,0.393c0,0.131,0,0.306,0.087,0.437
										c0-0.043,0.044-0.087,0.044-0.175c0.044-0.087,0.044-0.175,0.088-0.262c0.043-0.175,0.087-0.35,0.043-0.481
										C5.723,12.625,5.592,12.625,5.461,12.581z"/>
									
										<rect x="49.347" y="41.78" transform="matrix(-0.3106 0.9505 -0.9505 -0.3106 104.7298 7.7799)" fill="#5353F9" width="0.393" height="0.175"/>
									
										<rect x="51.333" y="41.686" transform="matrix(-0.3103 0.9507 -0.9507 -0.3103 107.2294 5.7466)" fill="#5353F9" width="0.393" height="0.175"/>
									<path fill="#5353F9" d="M41.938,35.123c-0.087,0-0.175,0.043-0.219,0.175c-0.043,0.087-0.087,0.131-0.043,0.175
										c0.087,0,0.131,0,0.175,0c0.043,0,0.087,0,0.218-0.043c-0.043,0-0.043,0-0.087-0.087L41.938,35.123z"/>
									<path fill="#5353F9" d="M3.932,14.067c0-0.087,0,0.087,0.087,0.393c0,0.131,0,0.306,0.088,0.437
										c0-0.043,0.044-0.087,0.044-0.175c0.043-0.087,0.043-0.175,0.087-0.262c0.044-0.175,0.088-0.349,0.044-0.48
										C4.194,14.111,4.063,14.111,3.932,14.067z"/>
									<path fill="#5353F9" d="M4.151,12.669c0-0.087,0,0.088,0.087,0.393c0,0.131,0,0.306,0.088,0.437
										c0-0.043,0.043-0.087,0.043-0.175c0.044-0.087,0.044-0.174,0.087-0.262c0.044-0.175,0.088-0.35,0.044-0.48
										C4.412,12.713,4.281,12.713,4.151,12.669z"/>
									<path fill="#5353F9" d="M5.242,12.013c0-0.087,0,0.087,0.088,0.393c0,0.131,0,0.306,0.087,0.437
										c0-0.043,0.044-0.087,0.044-0.175c0.043-0.087,0.043-0.174,0.087-0.262c0.044-0.175,0.087-0.35,0.044-0.48
										C5.505,12.013,5.373,12.057,5.242,12.013z"/>
									
										<rect x="49.165" y="41.18" transform="matrix(-0.308 0.9514 -0.9514 -0.308 103.8269 7.0182)" fill="#5353F9" width="0.393" height="0.176"/>
									<path fill="#5353F9" d="M43.248,44.733c-0.175-0.043-0.35-0.043-0.612,0.088c-0.174,0.087-0.262,0.174-0.305,0.305
										c0.174,0.044,0.305,0.131,0.35,0.175c0.043,0.044,0.175,0.087,0.479,0.087c-0.087-0.043-0.087-0.087-0.087-0.218
										L43.248,44.733z"/>
									<path fill="#5353F9" d="M3.844,18.523c0,0.087,0.044,0.131,0.132,0.175c0.087,0,0.131,0,0.175-0.087L3.844,18.523z"/>
									
										<rect x="1.753" y="21.259" transform="matrix(-0.3088 0.9511 -0.9511 -0.3088 22.6989 26.1099)" fill="#5353F9" width="0.218" height="0.087"/>
									<path fill="#5353F9" d="M2.49,19.658c-0.044,0.043-0.087,0.087-0.087,0.131c0.087,0.044,0.131,0.044,0.131,0.087
										c0.044,0.043,0.087,0.043,0.175,0.043c-0.044-0.043-0.087-0.131-0.087-0.218c0.043-0.087,0-0.131,0-0.131
										C2.533,19.571,2.49,19.615,2.49,19.658z"/>
									<path fill="#5353F9" d="M2.359,26.429c0.044,0.087,0.088,0.131,0.175,0.087c0.088-0.043,0.132-0.087,0.088-0.13
										L2.359,26.429z"/>
									<path fill="#5353F9" d="M4.631,19.134c-0.044,0.043-0.088,0.088-0.088,0.131c0.088,0.044,0.132,0.044,0.132,0.087
										c0.043,0.044,0.087,0.044,0.174,0.044c-0.043-0.044-0.087-0.131-0.087-0.219c0.044-0.087,0-0.131,0-0.131
										C4.718,19.003,4.675,19.047,4.631,19.134z"/>
									<path fill="#5353F9" d="M3.015,25.337c0.044,0.087,0.087,0.131,0.174,0.087c0.088-0.043,0.132-0.087,0.088-0.131
										L3.015,25.337z"/>
									<path fill="#5353F9" d="M5.767,18.435c-0.044,0.043-0.088,0.087-0.088,0.131c0.088,0.043,0.132,0.043,0.132,0.087
										c0.043,0.043,0.087,0.043,0.175,0.043c-0.044-0.043-0.088-0.131-0.088-0.218c0.044-0.087,0-0.131,0-0.131
										C5.811,18.348,5.767,18.392,5.767,18.435z"/>
									<path fill="#5353F9" d="M1.616,20.052c0,0.131,0.044,0.218,0.131,0.218c0.044,0,0.088,0,0.088,0
										c0-0.043,0.044-0.043,0.087-0.043c0.044-0.043,0.044-0.087,0.044-0.131c0-0.087-0.044-0.131-0.044-0.219
										C1.791,19.964,1.704,20.008,1.616,20.052z"/>
									<path fill="#5353F9" d="M1.573,19.964c-0.088-0.043-0.132-0.043-0.088,0.043H1.53c0.087,0.043,0.131,0.043,0.175,0
										C1.66,20.008,1.616,20.008,1.573,19.964z"/>
									<path fill="#5353F9" d="M3.801,32.502c0.087,0.043,0.262,0,0.48-0.131c0.175-0.175,0.394-0.219,0.611-0.131
										c-0.35-0.262-0.655-0.437-0.83-0.525L3.801,32.502z"/>
									
										<rect x="2.03" y="23.116" transform="matrix(-0.3089 0.9511 -0.9511 -0.3089 25.0608 28.2402)" fill="#5353F9" width="0.481" height="0.219"/>
									<path fill="#5353F9" d="M1.573,25.381c-0.175-0.044-0.35-0.044-0.568,0.043c-0.175,0.087-0.262,0.175-0.306,0.262
										c0.175,0.044,0.306,0.131,0.35,0.175c0.043,0.043,0.175,0.087,0.479,0.087c-0.087-0.044-0.131-0.087-0.087-0.219
										L1.573,25.381z"/>
									
										<rect x="2.526" y="24.195" transform="matrix(0.1506 0.9886 -0.9886 0.1506 26.4722 17.841)" fill="#5353F9" width="0.655" height="0.262"/>
									<polygon fill="#5353F9" points="2.884,21.93 2.971,21.406 2.84,21.363 2.796,21.93 									"/>
									<path fill="#5353F9" d="M5.025,19.134c0-0.087,0,0.088,0.087,0.393c0,0.131,0,0.306,0.087,0.437
										c0-0.043,0.044-0.087,0.044-0.175c0.044-0.087,0.044-0.174,0.087-0.262c0.044-0.174,0.088-0.35,0.044-0.48
										C5.286,19.178,5.156,19.178,5.025,19.134z"/>
									
										<rect x="4.283" y="18.276" transform="matrix(-0.3106 0.9505 -0.9505 -0.3106 23.3255 19.8098)" fill="#5353F9" width="0.393" height="0.174"/>
									<path fill="#5353F9" d="M4.151,18.523c0-0.087,0,0.087,0.087,0.393c0,0.131,0,0.306,0.088,0.437
										c0-0.043,0.043-0.087,0.043-0.175c0.044-0.087,0.044-0.175,0.087-0.262c0.044-0.175,0.088-0.349,0.044-0.48
										C4.412,18.567,4.281,18.567,4.151,18.523z"/>
									<path fill="#5353F9" d="M2.621,20.008c0-0.087,0,0.087,0.087,0.393c0,0.131,0,0.306,0.088,0.437
										c0-0.044,0.043-0.087,0.043-0.175c0.044-0.087,0.044-0.175,0.088-0.262c0.043-0.175,0.087-0.35,0.043-0.48
										C2.884,20.052,2.752,20.052,2.621,20.008z"/>
									<path fill="#5353F9" d="M2.84,18.61c0-0.087,0,0.087,0.087,0.393c0,0.131,0,0.306,0.087,0.437
										c0-0.043,0.044-0.087,0.044-0.175c0.044-0.087,0.044-0.175,0.088-0.262c0.043-0.174,0.087-0.349,0.043-0.48
										C3.102,18.654,2.971,18.654,2.84,18.61z"/>
									<path fill="#5353F9" d="M3.932,17.954c0-0.087,0,0.087,0.087,0.393c0,0.131,0,0.306,0.088,0.437
										c0-0.043,0.044-0.087,0.044-0.175c0.043-0.087,0.043-0.174,0.087-0.262c0.044-0.175,0.088-0.349,0.044-0.48
										C4.194,17.954,4.107,17.999,3.932,17.954z"/>
									<path fill="#5353F9" d="M2.577,24.464c0,0.087,0.044,0.131,0.132,0.175c0.087,0,0.131,0,0.174-0.087L2.577,24.464z"/>
									
										<rect x="4.05" y="26.958" transform="matrix(0.564 -0.8258 0.8258 0.564 -20.4848 15.2088)" fill="#5353F9" width="0.218" height="0.087"/>
									<path fill="#5353F9" d="M3.102,28.439c0.088-0.043,0.132-0.043,0.132-0.087c-0.088-0.043-0.088-0.087-0.088-0.131
										c0-0.043-0.087-0.087-0.174-0.087c0.043,0.087,0.043,0.131,0.043,0.218c-0.043,0.087-0.043,0.131,0,0.131
										C3.015,28.526,3.059,28.483,3.102,28.439z"/>
									<path fill="#5353F9" d="M5.112,21.973c0-0.087-0.044-0.13-0.131-0.13c-0.088,0-0.132,0.043-0.132,0.087L5.112,21.973z"/>
									<path fill="#5353F9" d="M0.874,28.352c0.087-0.043,0.131-0.043,0.131-0.087c-0.087-0.043-0.087-0.087-0.087-0.131
										s-0.088-0.087-0.175-0.087c0.044,0.087,0.044,0.13,0.044,0.218c-0.044,0.087-0.044,0.131,0,0.131
										C0.786,28.439,0.83,28.396,0.874,28.352z"/>
									<path fill="#5353F9" d="M4.194,22.847c0-0.087-0.043-0.131-0.131-0.131c-0.087,0-0.131,0.043-0.131,0.087L4.194,22.847z"/>
									<path fill="#5353F9" d="M-0.392,28.701c0.087-0.043,0.131-0.043,0.131-0.087c-0.088-0.043-0.088-0.087-0.088-0.131
										s-0.087-0.087-0.174-0.087c0.043,0.087,0.043,0.13,0.043,0.218c-0.043,0.087-0.043,0.131,0,0.131
										C-0.436,28.788-0.392,28.745-0.392,28.701z"/>
									<path fill="#5353F9" d="M4.063,28.308c0-0.131,0-0.219-0.043-0.263c-0.044-0.043-0.088-0.043-0.088,0
										c0,0.044-0.043,0.044-0.087,0c-0.044,0.044-0.044,0.044-0.044,0.131c0,0.087,0,0.175,0,0.219
										C3.844,28.308,3.932,28.308,4.063,28.308z"/>
									<path fill="#5353F9" d="M4.063,28.396c0.044,0.087,0.088,0.087,0.131-0.044l-0.043-0.043
										c-0.044-0.044-0.132-0.044-0.175-0.044C4.02,28.308,4.063,28.352,4.063,28.396z"/>
									<path fill="#5353F9" d="M6.247,20.314c-0.087-0.043-0.262-0.043-0.524,0c-0.218,0.131-0.437,0.087-0.611,0
										c0.262,0.393,0.48,0.612,0.655,0.699L6.247,20.314z"/>
									
										<rect x="4.12" y="24.959" transform="matrix(0.5636 -0.8261 0.8261 0.5636 -18.8057 14.5416)" fill="#5353F9" width="0.48" height="0.219"/>
									<path fill="#5353F9" d="M-0.349,24.332c0.132,0.131,0.307,0.218,0.568,0.218c0.175,0,0.35,0,0.437-0.087
										c-0.131-0.131-0.174-0.262-0.218-0.35c0-0.044-0.131-0.175-0.35-0.306c0.044,0.087,0.044,0.131-0.087,0.218L-0.349,24.332z
										"/>
									
										<rect x="3.722" y="23.724" transform="matrix(0.1311 -0.9914 0.9914 0.1311 -20.1302 24.7431)" fill="#5353F9" width="0.656" height="0.262"/>
									<polygon fill="#5353F9" points="3.364,26.124 3.102,26.648 3.233,26.691 3.451,26.168 									"/>
									<path fill="#5353F9" d="M0.525,28.22c0,0.088,0-0.087,0.043-0.437c0.044-0.131,0.044-0.305,0.044-0.437
										c-0.044,0.043-0.044,0.087-0.087,0.131c-0.044,0.087-0.088,0.13-0.175,0.218c-0.131,0.175-0.175,0.306-0.175,0.437
										C0.262,28.133,0.394,28.133,0.525,28.22z"/>
									
										<rect x="0.633" y="29.065" transform="matrix(0.5644 -0.8255 0.8255 0.5644 -23.7033 13.3832)" fill="#5353F9" width="0.393" height="0.175"/>
									<path fill="#5353F9" d="M1.18,29.051c0,0.087,0-0.087,0.043-0.437c0.044-0.131,0.044-0.305,0.044-0.437
										c-0.044,0.044-0.044,0.087-0.087,0.131c-0.044,0.087-0.088,0.131-0.175,0.218c-0.131,0.175-0.175,0.306-0.175,0.437
										C0.962,28.964,1.049,28.964,1.18,29.051z"/>
									<path fill="#5353F9" d="M3.059,28.046c0,0.087,0-0.087,0.043-0.437c0.044-0.131,0.044-0.306,0.044-0.437
										c-0.044,0.043-0.044,0.087-0.088,0.131c-0.044,0.087-0.087,0.131-0.175,0.218c-0.131,0.175-0.174,0.306-0.174,0.437
										C2.84,27.959,2.927,27.959,3.059,28.046z"/>
									<path fill="#5353F9" d="M2.228,34.293c0,0.087,0-0.087,0.044-0.437c0.044-0.131,0.044-0.306,0.044-0.437
										c-0.044,0.043-0.044,0.087-0.088,0.131c-0.043,0.087-0.087,0.131-0.175,0.218c-0.131,0.175-0.174,0.306-0.174,0.437
										C2.01,34.161,2.097,34.205,2.228,34.293z"/>
									<path fill="#5353F9" d="M1.224,29.662c0,0.087,0-0.087,0.043-0.437c0.044-0.131,0.044-0.306,0.044-0.437
										c-0.044,0.044-0.044,0.087-0.087,0.131c-0.044,0.087-0.088,0.131-0.175,0.219c-0.132,0.175-0.175,0.306-0.175,0.437
										C0.962,29.575,1.092,29.575,1.224,29.662z"/>
									<path fill="#5353F9" d="M4.368,23.809c0.044-0.088,0-0.131-0.043-0.175c-0.088-0.044-0.132,0-0.175,0.044L4.368,23.809z"/>
									<path fill="#5353F9" d="M46.656,40.977c0.043,0.087,0.088,0.13,0.175,0.087c0.088-0.043,0.131-0.087,0.088-0.131
										L46.656,40.977z"/>
									
										<rect x="49.321" y="38.926" transform="matrix(0.1515 0.9885 -0.9885 0.1515 80.5791 -15.8433)" fill="#5353F9" width="0.393" height="0.175"/>
									<polygon fill="#5353F9" points="47.573,39.229 47.355,38.574 47.224,38.574 47.486,39.273 									"/>
									<polygon fill="#5353F9" points="48.273,40.758 48.49,40.496 48.404,40.322 48.141,40.583 									"/>
									
										<rect x="51.019" y="34.91" transform="matrix(0.9654 0.2606 -0.2606 0.9654 10.8898 -12.1375)" fill="#5353F9" width="0.393" height="0.175"/>
									
										<rect x="49.512" y="35.174" transform="matrix(0.1453 0.9894 -0.9894 0.1453 77.1755 -18.9486)" fill="#5353F9" width="0.087" height="0.044"/>
									<polygon fill="#5353F9" points="47.835,37.7 47.966,37.569 47.878,37.438 47.748,37.613 									"/>
									<polygon fill="#5353F9" points="49.365,34.598 49.19,34.161 49.103,34.161 49.277,34.598 									"/>
									<polygon fill="#5353F9" points="49.234,36.914 49.407,36.783 49.321,36.652 49.19,36.783 									"/>
									<path fill="#5353F9" d="M48.316,36.739c-0.131-0.043-0.175,0-0.087,0.131h0.087c0.088,0,0.175-0.043,0.218-0.131
										C48.49,36.739,48.404,36.739,48.316,36.739z"/>
									<path fill="#5353F9" d="M48.49,34.249c-0.044,0.044-0.044,0.087-0.044,0.131c0.088,0,0.131,0,0.131,0
										c0.044,0.043,0.088,0,0.131-0.043c-0.043-0.043-0.087-0.087-0.131-0.131c0-0.087-0.043-0.087-0.087-0.087
										C48.49,34.118,48.49,34.161,48.49,34.249z"/>
									<path fill="#5353F9" d="M47.442,35.603c-0.043-0.043,0.044,0.043,0.219,0.262c0.044,0.131,0.131,0.218,0.218,0.305
										c0-0.043,0-0.087-0.043-0.13c0-0.087-0.044-0.131-0.044-0.219c-0.043-0.174-0.087-0.305-0.13-0.349
										C47.66,35.516,47.573,35.603,47.442,35.603z"/>
									<polygon fill="#5353F9" points="47.355,37.089 47.18,36.652 47.092,36.652 47.267,37.089 									"/>
									<polygon fill="#5353F9" points="48.753,36.259 48.622,35.822 48.534,35.865 48.708,36.302 									"/>
									<polygon fill="#5353F9" points="48.971,34.249 48.84,33.769 48.708,33.812 48.883,34.249 									"/>
									<polygon fill="#5353F9" points="38.923,44.078 39.448,43.598 39.361,43.467 38.88,43.947 									"/>
									
										<rect x="43.347" y="44.228" transform="matrix(-0.8423 0.5391 -0.5391 -0.8423 103.79 58.1308)" fill="#5353F9" width="0.087" height="0.043"/>
									<path fill="#5353F9" d="M46.044,41.632c0,0,0.043,0.044,0.131,0.044c0.043,0,0.131,0,0.131,0.087
										c-0.044-0.131-0.044-0.175-0.088-0.218L46.044,41.632z"/>
									<polygon fill="#5353F9" points="40.408,43.641 40.627,43.728 40.714,43.641 40.496,43.554 									"/>
									<polygon fill="#5353F9" points="43.904,43.816 44.209,43.51 44.166,43.423 43.86,43.728 									"/>
									
										<rect x="46.374" y="39.971" transform="matrix(-0.8439 0.5366 -0.5366 -0.8439 107.2723 48.8558)" fill="#5353F9" width="0.307" height="0.13"/>
									<path fill="#5353F9" d="M41.545,43.728c-0.044-0.13-0.088-0.13-0.175,0l0.043,0.044c0.044,0.087,0.131,0.131,0.175,0.131
										C41.545,43.86,41.545,43.816,41.545,43.728z"/>
									<path fill="#5353F9" d="M43.86,42.899c-0.043,0-0.087,0-0.131,0.043c0.044,0.044,0.044,0.087,0.044,0.131
										c0,0.043,0.043,0.087,0.087,0.13c0-0.043,0-0.13,0.044-0.174c0.043-0.044,0.087-0.087,0.043-0.087
										C43.948,42.855,43.904,42.855,43.86,42.899z"/>
									
										<rect x="46.036" y="40.32" transform="matrix(-0.8435 0.5371 -0.5371 -0.8435 107.1171 49.6935)" fill="#5353F9" width="0.567" height="0.262"/>
									<path fill="#5353F9" d="M42.2,42.462c0.043-0.044-0.044,0.043-0.175,0.306c-0.088,0.087-0.132,0.218-0.176,0.35
										c0.044,0,0.088-0.044,0.132-0.087c0.043-0.043,0.131-0.087,0.174-0.13c0.132-0.088,0.219-0.175,0.263-0.263
										C42.331,42.636,42.243,42.549,42.2,42.462z"/>
									<polygon fill="#5353F9" points="40.802,42.942 41.152,42.636 41.108,42.549 40.758,42.899 									"/>
									<polygon fill="#5353F9" points="42.113,43.947 42.462,43.641 42.418,43.554 42.069,43.903 									"/>
									<path fill="#5353F9" d="M44.995,43.292c0.044-0.044-0.043,0.043-0.175,0.306c-0.087,0.087-0.131,0.218-0.174,0.35
										c0.043,0,0.087-0.044,0.13-0.087c0.044-0.044,0.131-0.087,0.176-0.131c0.131-0.087,0.218-0.175,0.262-0.262
										C45.127,43.423,45.039,43.379,44.995,43.292z"/>
									
										<rect x="45.53" y="43.32" transform="matrix(-0.8437 0.5369 -0.5369 -0.8437 107.5162 55.4617)" fill="#5353F9" width="0.306" height="0.131"/>
									<path fill="#5353F9" d="M45.432,41.806c-0.043-0.087-0.175-0.175-0.349-0.218c-0.131-0.044-0.219,0-0.307,0.043
										c0.044,0.087,0.088,0.175,0.088,0.262c0,0.044,0.043,0.131,0.219,0.219c-0.044-0.043,0-0.087,0.043-0.131L45.432,41.806z"
										/>
									<polygon fill="#5353F9" points="44.078,43.292 44.427,42.986 44.34,42.899 44.034,43.248 									"/>
									
										<rect x="45.312" y="39.986" transform="matrix(-0.8436 0.5369 -0.5369 -0.8436 105.602 49.4792)" fill="#5353F9" width="0.568" height="0.263"/>
									
										<rect x="45.502" y="41.077" transform="matrix(-0.8444 0.5357 -0.5357 -0.8444 106.2068 51.4403)" fill="#5353F9" width="0.263" height="0.131"/>
									<path fill="#5353F9" d="M29.924,52.466c-0.044-0.087-0.131-0.087-0.218-0.087c-0.088,0.043-0.088,0.131-0.088,0.175
										L29.924,52.466z"/>
									<path fill="#5353F9" d="M26.649,50.762c-0.044-0.087-0.132-0.131-0.219-0.087c-0.088,0.044-0.132,0.131-0.088,0.218
										L26.649,50.762z"/>
									
										<rect x="23.427" y="53.662" transform="matrix(-0.3354 -0.9421 0.9421 -0.3354 -19.0319 94.0718)" fill="#5353F9" width="0.48" height="0.175"/>
									<polygon fill="#5353F9" points="25.949,53.034 26.386,53.82 26.561,53.733 26.08,52.99 									"/>
									<polygon fill="#5353F9" points="24.814,51.373 24.551,51.723 24.726,51.898 24.988,51.592 									"/>
									
										<rect x="36.655" y="47.813" transform="matrix(-0.8783 -0.4781 0.4781 -0.8783 46.0629 107.3939)" fill="#5353F9" width="0.088" height="0.044"/>
									<polygon fill="#5353F9" points="38.661,47.398 38.531,47.617 38.617,47.748 38.792,47.53 									"/>
									<polygon fill="#5353F9" points="37.482,48.097 38.006,48.272 38.05,48.141 37.526,48.01 									"/>
									<polygon fill="#5353F9" points="37.132,48.709 37.001,48.927 37.089,49.058 37.264,48.84 									"/>
									<path fill="#5353F9" d="M38.268,48.709c0.175,0,0.219-0.044,0.044-0.175l-0.088,0.043
										c-0.131,0.044-0.174,0.087-0.218,0.175C38.093,48.709,38.181,48.709,38.268,48.709z"/>
									<path fill="#5353F9" d="M37.875,45.52c0.087,0-0.088,0-0.438,0c-0.131-0.043-0.306-0.043-0.48,0
										c0.044,0,0.088,0.043,0.175,0.087c0.087,0.043,0.175,0.087,0.263,0.131c0.175,0.087,0.35,0.131,0.437,0.131
										C37.831,45.738,37.831,45.607,37.875,45.52z"/>
									<polygon fill="#5353F9" points="39.404,48.054 39.666,48.578 39.797,48.534 39.491,48.054 									"/>
									<polygon fill="#5353F9" points="36.259,46.306 36.782,46.481 36.87,46.35 36.302,46.219 									"/>
									<g>
										<path fill="#5353F9" d="M48.01,14.722c-0.087-0.044-0.175,0-0.219,0.087c-0.043,0.087,0,0.175,0.044,0.175L48.01,14.722z"
											/>
										<path fill="#5353F9" d="M44.427,15.683c-0.087-0.043-0.174,0-0.218,0.087c-0.044,0.088,0,0.175,0.044,0.219L44.427,15.683
											z"/>
										
											<rect x="44.015" y="19.806" transform="matrix(-0.8836 -0.4682 0.4682 -0.8836 74.0463 58.192)" fill="#5353F9" width="0.481" height="0.175"/>
										<polygon fill="#5353F9" points="45.432,17.823 46.263,18.086 46.35,17.954 45.52,17.693 										"/>
										<polygon fill="#5353F9" points="43.467,17.387 43.51,17.78 43.773,17.823 43.729,17.43 										"/>
										
											<rect x="47.929" y="22.67" transform="matrix(-0.883 -0.4694 0.4694 -0.883 79.6794 65.248)" fill="#5353F9" width="0.087" height="0.044"/>
										<polygon fill="#5353F9" points="46.786,19.178 46.786,19.44 46.961,19.44 46.918,19.178 										"/>
										<polygon fill="#5353F9" points="48.708,22.935 49.234,23.11 49.321,23.022 48.753,22.847 										"/>
										<polygon fill="#5353F9" points="46.525,21.144 46.525,21.406 46.698,21.449 46.656,21.187 										"/>
										<path fill="#5353F9" d="M47.355,20.401c0.131-0.131,0.087-0.175-0.087-0.175l-0.044,0.088
											c-0.044,0.131-0.087,0.218-0.044,0.306C47.224,20.532,47.311,20.445,47.355,20.401z"/>
										<path fill="#5353F9" d="M49.103,20.357c0.087,0-0.088,0-0.438,0c-0.131-0.043-0.306-0.043-0.48,0
											c0.044,0,0.087,0.044,0.175,0.088c0.087,0.043,0.175,0.087,0.263,0.131c0.174,0.087,0.349,0.131,0.436,0.131
											C49.015,20.619,49.058,20.489,49.103,20.357z"/>
										<polygon fill="#5353F9" points="47.748,19.178 48.273,19.352 48.36,19.222 47.791,19.091 										"/>
										<polygon fill="#5353F9" points="47.486,21.144 48.01,21.318 48.097,21.231 47.53,21.056 										"/>
									</g>
									<g>
										<path fill="#5353F9" d="M54.912,13.892c-0.087-0.043-0.175,0-0.219,0.088c-0.043,0.087,0,0.174,0.044,0.174L54.912,13.892
											z"/>
										<path fill="#5353F9" d="M51.33,14.853c-0.088-0.044-0.176,0-0.219,0.087c-0.044,0.087,0,0.175,0.043,0.218L51.33,14.853z"
											/>
										
											<rect x="50.891" y="18.994" transform="matrix(-0.8832 -0.469 0.469 -0.8832 87.3415 59.9149)" fill="#5353F9" width="0.481" height="0.175"/>
										<polygon fill="#5353F9" points="52.334,16.993 53.164,17.3 53.252,17.125 52.422,16.863 										"/>
										<polygon fill="#5353F9" points="50.369,16.557 50.412,16.993 50.675,16.993 50.631,16.6 										"/>
										
											<rect x="54.793" y="21.859" transform="matrix(-0.883 -0.4694 0.4694 -0.883 92.9854 66.9426)" fill="#5353F9" width="0.087" height="0.044"/>
										<polygon fill="#5353F9" points="53.646,18.348 53.689,18.61 53.864,18.61 53.82,18.348 										"/>
										<polygon fill="#5353F9" points="55.611,22.105 56.135,22.323 56.179,22.193 55.655,22.061 										"/>
										<polygon fill="#5353F9" points="53.383,20.357 53.426,20.619 53.602,20.619 53.558,20.357 										"/>
										<path fill="#5353F9" d="M54.256,19.571c0.131-0.131,0.088-0.175-0.087-0.175l-0.043,0.087
											c-0.044,0.131-0.088,0.218-0.044,0.306C54.126,19.702,54.169,19.658,54.256,19.571z"/>
										<path fill="#5353F9" d="M56.004,19.527c0.087,0-0.087,0-0.437,0c-0.131-0.043-0.306-0.043-0.48,0
											c0.043,0,0.087,0.044,0.175,0.088c0.087,0.043,0.175,0.087,0.262,0.131c0.175,0.087,0.35,0.131,0.438,0.131
											C55.917,19.789,55.917,19.658,56.004,19.527z"/>
										<polygon fill="#5353F9" points="54.65,18.348 55.174,18.523 55.218,18.435 54.694,18.26 										"/>
										<polygon fill="#5353F9" points="54.388,20.357 54.912,20.532 54.956,20.401 54.431,20.27 										"/>
									</g>
								</g>
								<path fill="#5353F9" d="M46.786,37.613c-0.088-0.044-0.175,0-0.218,0.087c-0.044,0.087,0,0.175,0.043,0.218L46.786,37.613z"
									/>
								<polygon fill="#5353F9" points="47.835,39.797 48.665,40.103 48.753,39.928 47.878,39.666 								"/>
								<polygon fill="#5353F9" points="45.825,39.36 45.869,39.753 46.131,39.797 46.088,39.404 								"/>
								<path fill="#5353F9" d="M45.869,41.413c0.044,0,0.087,0,0.175-0.043c0.087-0.087,0.175-0.087,0.218-0.043
									c-0.131-0.131-0.262-0.175-0.305-0.219L45.869,41.413z"/>
								<path fill="#5353F9" d="M50.238,43.379c-0.175-0.043-0.393-0.043-0.611,0.087c-0.175,0.087-0.262,0.219-0.306,0.35
									c0.175,0.044,0.306,0.131,0.393,0.175c0.044,0.043,0.175,0.087,0.48,0.087c-0.087-0.043-0.131-0.087-0.087-0.262
									L50.238,43.379z"/>
								
									<rect x="46.517" y="45.582" transform="matrix(-0.3092 0.951 -0.951 -0.3092 104.6663 15.3528)" fill="#5353F9" width="0.48" height="0.218"/>
								<polygon fill="#5353F9" points="45.739,46.743 45.957,45.476 45.695,45.388 45.564,46.656 								"/>
								
									<rect x="45.208" y="43.634" transform="matrix(-0.3089 0.9511 -0.9511 -0.3089 101.0906 14.0299)" fill="#5353F9" width="0.481" height="0.219"/>
								<path fill="#5353F9" d="M45.301,42.243c-0.174-0.044-0.393-0.044-0.611,0.087c-0.175,0.087-0.262,0.218-0.306,0.349
									c0.175,0.044,0.306,0.131,0.393,0.175c0.044,0.044,0.176,0.087,0.48,0.087c-0.087-0.043-0.13-0.087-0.087-0.262
									L45.301,42.243z"/>
								
									<rect x="46.929" y="44.407" transform="matrix(-0.3097 0.9508 -0.9508 -0.3097 104.4944 13.3861)" fill="#5353F9" width="0.918" height="0.437"/>
								<path fill="#5353F9" d="M49.801,42.025c-0.175-0.043-0.394-0.043-0.611,0.088c-0.175,0.087-0.263,0.218-0.307,0.35
									c0.175,0.043,0.307,0.131,0.394,0.175c0.044,0.043,0.175,0.087,0.48,0.087c-0.087-0.043-0.131-0.087-0.087-0.262
									L49.801,42.025z"/>
								<polygon fill="#5353F9" points="45.345,41.326 45.869,40.846 45.781,40.714 45.258,41.239 								"/>
								<path fill="#5353F9" d="M47.486,41.064c0.044,0,0.088,0,0.175-0.043c0.087-0.087,0.175-0.087,0.218-0.043
									c-0.13-0.131-0.262-0.175-0.305-0.218L47.486,41.064z"/>
								<path fill="#5353F9" d="M51.855,43.03c-0.175-0.043-0.394-0.043-0.612,0.087c-0.175,0.087-0.262,0.219-0.306,0.35
									c0.175,0.044,0.306,0.131,0.393,0.175c0.044,0.044,0.176,0.087,0.481,0.087c-0.088-0.043-0.131-0.087-0.088-0.262
									L51.855,43.03z"/>
								
									<rect x="48.125" y="45.222" transform="matrix(-0.3089 0.9511 -0.9511 -0.3089 106.4191 13.3343)" fill="#5353F9" width="0.481" height="0.219"/>
								<polygon fill="#5353F9" points="47.355,46.35 47.573,45.127 47.311,45.039 47.18,46.306 								"/>
								
									<rect x="46.815" y="43.268" transform="matrix(-0.3107 0.9505 -0.9505 -0.3107 102.907 12.1299)" fill="#5353F9" width="0.481" height="0.218"/>
								<path fill="#5353F9" d="M46.918,41.85c-0.175-0.043-0.394-0.043-0.612,0.087c-0.175,0.087-0.262,0.218-0.306,0.35
									c0.175,0.043,0.306,0.131,0.394,0.175c0.043,0.043,0.175,0.087,0.48,0.087c-0.088-0.043-0.131-0.087-0.088-0.262
									L46.918,41.85z"/>
								
									<rect x="48.535" y="44.031" transform="matrix(-0.3098 0.9508 -0.9508 -0.3098 106.2456 11.3762)" fill="#5353F9" width="0.917" height="0.436"/>
								<path fill="#5353F9" d="M51.417,41.676c-0.175-0.044-0.393-0.044-0.611,0.087c-0.175,0.087-0.263,0.218-0.306,0.35
									c0.175,0.043,0.306,0.131,0.393,0.175c0.044,0.043,0.175,0.087,0.48,0.087c-0.087-0.043-0.131-0.087-0.087-0.262
									L51.417,41.676z"/>
								<polygon fill="#5353F9" points="46.961,40.977 47.486,40.496 47.399,40.365 46.874,40.889 								"/>
								<path fill="#5353F9" d="M10.048,29.225c-0.132-0.131-0.175-0.087-0.175,0.087l0.087,0.043
									c0.131,0.043,0.219,0.087,0.306,0.043C10.179,29.357,10.135,29.269,10.048,29.225z"/>
								<polygon fill="#5353F9" points="5.636,32.458 5.898,32.502 5.986,32.371 5.723,32.283 								"/>
								<path fill="#5353F9" d="M4.806,36.128c0,0.087,0,0.131,0.087,0.175c0.087,0,0.131,0,0.175-0.044L4.806,36.128z"/>
								<path fill="#5353F9" d="M2.185,37.962c0.043,0.044,0.174,0,0.306-0.043c0.131-0.087,0.262-0.087,0.393-0.043
									c-0.218-0.218-0.35-0.35-0.48-0.393L2.185,37.962z"/>
								<polygon fill="#5353F9" points="5.112,33.069 5.942,32.196 5.767,32.021 5.025,32.939 								"/>
								<g>
									<path fill="#5353F9" d="M11.227,24.332c-0.043-0.087-0.131-0.087-0.218-0.043c-0.088,0.043-0.088,0.131-0.044,0.175
										L11.227,24.332z"/>
									<path fill="#5353F9" d="M7.82,23.153c-0.087-0.087-0.131-0.087-0.218-0.043c-0.088,0.087-0.088,0.131-0.044,0.218
										L7.82,23.153z"/>
									
										<rect x="5.135" y="26.333" transform="matrix(-0.4654 -0.8851 0.8851 -0.4654 -15.5076 43.4744)" fill="#5353F9" width="0.481" height="0.176"/>
									<polygon fill="#5353F9" points="7.471,25.425 7.994,26.08 8.169,25.993 7.602,25.337 									"/>
									<polygon fill="#5353F9" points="6.16,23.984 5.942,24.332 6.16,24.507 6.335,24.157 									"/>
									
										<rect x="6.811" y="30.679" transform="matrix(-0.4671 -0.8842 0.8842 -0.4671 -17.0881 51.1033)" fill="#5353F9" width="0.088" height="0.043"/>
									<polygon fill="#5353F9" points="7.82,27.216 7.689,27.434 7.82,27.565 7.95,27.303 									"/>
									<polygon fill="#5353F9" points="7.296,31.279 7.645,31.715 7.733,31.672 7.383,31.235 									"/>
									<polygon fill="#5353F9" points="6.509,28.657 6.378,28.876 6.509,29.007 6.641,28.745 									"/>
									<path fill="#5353F9" d="M7.602,28.526c0.174,0,0.174-0.087,0.043-0.175l-0.087,0.044c-0.088,0.043-0.175,0.13-0.219,0.218
										C7.427,28.526,7.514,28.526,7.602,28.526z"/>
									<path fill="#5353F9" d="M9.043,29.444c0.043,0.044-0.044-0.043-0.35-0.218c-0.087-0.087-0.219-0.175-0.35-0.262
										c0,0.043,0.044,0.087,0.088,0.175c0.043,0.087,0.087,0.131,0.131,0.218c0.087,0.175,0.175,0.306,0.306,0.35
										C8.824,29.575,8.912,29.488,9.043,29.444z"/>
									<polygon fill="#5353F9" points="8.607,27.74 8.912,28.177 9.043,28.133 8.65,27.696 									"/>
									<polygon fill="#5353F9" points="7.296,29.182 7.645,29.618 7.733,29.575 7.383,29.138 									"/>
								</g>
								<g>
									<path fill="#5353F9" d="M14.198,4.194c-0.044-0.087-0.131-0.087-0.218-0.043c-0.088,0.043-0.088,0.131-0.044,0.175
										L14.198,4.194z"/>
									<path fill="#5353F9" d="M10.834,3.015c-0.088-0.088-0.131-0.088-0.219-0.044c-0.087,0.087-0.087,0.131-0.043,0.218
										L10.834,3.015z"/>
									
										<rect x="8.131" y="6.183" transform="matrix(-0.4654 -0.8851 0.8851 -0.4654 6.7177 16.5979)" fill="#5353F9" width="0.481" height="0.175"/>
									<polygon fill="#5353F9" points="10.485,5.286 10.965,5.941 11.14,5.854 10.615,5.198 									"/>
									<polygon fill="#5353F9" points="9.13,3.844 8.955,4.194 9.13,4.369 9.349,4.019 									"/>
									
										<rect x="9.805" y="10.528" transform="matrix(-0.4584 -0.8888 0.8888 -0.4584 4.9875 24.1377)" fill="#5353F9" width="0.087" height="0.043"/>
									<polygon fill="#5353F9" points="10.79,7.077 10.703,7.296 10.834,7.427 10.921,7.165 									"/>
									<polygon fill="#5353F9" points="10.31,11.14 10.615,11.576 10.747,11.533 10.397,11.096 									"/>
									<polygon fill="#5353F9" points="9.524,8.519 9.393,8.737 9.524,8.868 9.655,8.606 									"/>
									<path fill="#5353F9" d="M10.615,8.388c0.175,0,0.175-0.088,0.044-0.175l-0.088,0.044c-0.087,0.043-0.175,0.131-0.218,0.218
										C10.442,8.388,10.529,8.388,10.615,8.388z"/>
									<path fill="#5353F9" d="M12.013,9.305c0.044,0.044-0.043-0.043-0.349-0.218c-0.088-0.087-0.219-0.175-0.35-0.262
										c0,0.043,0.044,0.087,0.087,0.175c0.044,0.087,0.088,0.131,0.132,0.218c0.087,0.175,0.175,0.306,0.306,0.35
										C11.839,9.436,11.926,9.349,12.013,9.305z"/>
									<polygon fill="#5353F9" points="11.576,7.602 11.926,8.038 12.013,7.994 11.664,7.558 									"/>
									<polygon fill="#5353F9" points="10.31,9.043 10.615,9.48 10.747,9.436 10.354,8.999 									"/>
								</g>
								<g>
									<path fill="#5353F9" d="M12.32,8.3c-0.044-0.087-0.131-0.087-0.219-0.043c-0.087,0.043-0.087,0.131-0.044,0.175L12.32,8.3z
										"/>
									<path fill="#5353F9" d="M8.955,7.077C8.868,6.99,8.824,6.99,8.738,7.033C8.65,7.121,8.65,7.165,8.694,7.252L8.955,7.077z"
										/>
									
										<rect x="6.266" y="10.265" transform="matrix(-0.4654 -0.8851 0.8851 -0.4654 0.3719 20.9297)" fill="#5353F9" width="0.481" height="0.174"/>
									<polygon fill="#5353F9" points="8.607,9.349 9.086,10.048 9.262,9.961 8.738,9.305 									"/>
									<polygon fill="#5353F9" points="7.252,7.95 7.077,8.3 7.252,8.475 7.427,8.125 									"/>
									
										<rect x="7.935" y="14.611" transform="matrix(-0.4718 -0.8817 0.8817 -0.4718 -1.1601 28.5721)" fill="#5353F9" width="0.087" height="0.044"/>
									<polygon fill="#5353F9" points="8.912,11.14 8.824,11.402 8.955,11.49 9.043,11.271 									"/>
									<polygon fill="#5353F9" points="8.432,15.246 8.738,15.683 8.868,15.639 8.519,15.202 									"/>
									<polygon fill="#5353F9" points="7.645,12.625 7.514,12.844 7.645,12.931 7.777,12.713 									"/>
									<path fill="#5353F9" d="M8.738,12.494c0.174,0,0.174-0.087,0.043-0.174l-0.087,0.043c-0.087,0.043-0.175,0.131-0.219,0.218
										C8.563,12.494,8.65,12.494,8.738,12.494z"/>
									<path fill="#5353F9" d="M10.135,13.368c0.044,0.043-0.044-0.043-0.35-0.218c-0.087-0.088-0.218-0.175-0.35-0.262
										c0,0.043,0.044,0.087,0.088,0.174c0.043,0.088,0.087,0.131,0.131,0.219c0.087,0.175,0.174,0.306,0.306,0.35
										C9.96,13.542,10.048,13.455,10.135,13.368z"/>
									<polygon fill="#5353F9" points="9.698,11.708 10.048,12.145 10.135,12.057 9.785,11.664 									"/>
									<polygon fill="#5353F9" points="8.432,13.15 8.738,13.586 8.868,13.499 8.475,13.106 									"/>
								</g>
								<path fill="#5353F9" d="M47.486,11.752c0,0,0.044,0,0.088-0.044c0.043-0.043,0.087-0.043,0.131-0.043
									c-0.088-0.044-0.131-0.088-0.176-0.088L47.486,11.752z"/>
								
									<rect x="46.811" y="13.529" transform="matrix(-0.3095 0.9509 -0.9509 -0.3095 74.3983 -26.8347)" fill="#5353F9" width="0.262" height="0.131"/>
								<polygon fill="#5353F9" points="46.394,14.111 46.525,13.455 46.35,13.411 46.306,14.067 								"/>
								
									<rect x="46.118" y="12.44" transform="matrix(-0.309 0.9511 -0.9511 -0.309 72.4318 -27.6164)" fill="#5353F9" width="0.262" height="0.132"/>
								
									<rect x="47.016" y="12.895" transform="matrix(-0.3092 0.951 -0.951 -0.3092 74.234 -27.9149)" fill="#5353F9" width="0.48" height="0.219"/>
								<polygon fill="#5353F9" points="47.224,11.708 47.486,11.446 47.442,11.402 47.18,11.664 								"/>
								
									<rect x="47.739" y="16.557" transform="matrix(-0.3129 0.9498 -0.9498 -0.3129 78.6353 -23.6429)" fill="#5353F9" width="0.262" height="0.131"/>
								
									<rect x="48.7" y="16.974" transform="matrix(-0.311 0.9504 -0.9504 -0.311 80.3977 -24.1168)" fill="#5353F9" width="0.48" height="0.218"/>
							</g>
						</g>
					</g>
				</g>
			</g>
		</g>
	</g>
</g>
</svg>
