<?xml version="1.0" encoding="utf-8"?>
<!-- Generator: Adobe Illustrator 15.0.2, SVG Export Plug-In . SVG Version: 6.00 Build 0)  -->
<!DOCTYPE svg PUBLIC "-//W3C//DTD SVG 1.1//EN" "http://www.w3.org/Graphics/SVG/1.1/DTD/svg11.dtd">
<svg version="1.1" id="Layer_2" xmlns="http://www.w3.org/2000/svg" xmlns:xlink="http://www.w3.org/1999/xlink" x="0px" y="0px"
	 width="245.5px" height="173.468px" viewBox="0 0 245.5 173.468" enable-background="new 0 0 245.5 173.468" xml:space="preserve">
<g id="XMLID_5_">
	<g id="XMLID_92_">
		<path id="XMLID_110_" fill="#FFFFFF" d="M121.051,50.265V20.24h12.684c10.441,0,14.564,4.57,14.564,14.564
			s-3.676,15.461-14.117,15.461H121.051z M133.287,28.708h-1.838v13.086h1.838c4.256,0,4.525-2.599,4.525-6.99
			C137.813,30.636,137.32,28.708,133.287,28.708z"/>
		<path id="XMLID_107_" fill="#FFFFFF" d="M150.232,35.253c0-10.936,4.303-15.597,14.297-15.597c9.992,0,14.295,4.661,14.295,15.597
			c0,10.934-4.303,15.596-14.295,15.596C154.67,50.847,150.232,46.187,150.232,35.253z M168.338,35.253
			c0-4.617-0.357-7.17-3.809-7.17c-3.316,0-3.811,2.555-3.811,7.17s0.492,7.17,3.811,7.17
			C167.934,42.423,168.338,39.824,168.338,35.253z"/>
		<path id="XMLID_104_" fill="#FFFFFF" d="M181.598,20.239h10.217l6.902,11.383h0.627V20.239h10.396v30.026h-10.262l-6.813-12.235
			h-0.672v12.235H181.6L181.598,20.239L181.598,20.239z M203.826,15.757c0,0-2.375,2.601-4.795,2.601
			c-2.33,0-5.197-1.524-6.678-1.524c-1.256,0-3.586,1.12-3.586,1.12l-1.299-4.75c0,0,2.42-2.644,4.795-2.644
			c2.734,0,5.334,1.434,6.588,1.434c1.166,0,3.676-1.031,3.676-1.031L203.826,15.757z"/>
		<path id="XMLID_101_" fill="#FFFFFF" d="M218.184,20.239h15.729l6.768,30.026h-10.484l-0.854-3.451h-6.855l-0.717,3.451h-10.217
			L218.184,20.239z M223.83,38.882h4.438l-1.613-10.485h-1.121L223.83,38.882z"/>
		<path id="XMLID_99_" fill="#FFFFFF" d="M161.137,55.292h13.74l9.281,15.307h0.844V55.292h13.98v40.379h-13.801l-9.16-16.453
			h-0.904v16.453h-13.98V55.292z"/>
		<path id="XMLID_96_" fill="#FFFFFF" d="M210.131,55.292h21.154l9.1,40.379h-14.104l-1.145-4.641h-9.223l-0.963,4.641h-13.742
			L210.131,55.292z M217.725,80.364h5.967l-2.17-14.103h-1.508L217.725,80.364z"/>
		<path id="XMLID_93_" fill="#FFFFFF" d="M129.061,55.292h21.154l9.1,40.379h-14.104l-1.146-4.641h-9.221l-0.963,4.641h-13.742
			L129.061,55.292z M136.654,80.364h5.967l-2.17-14.103h-1.506L136.654,80.364z"/>
	</g>
	<g id="XMLID_91_">
		<path id="XMLID_119_" fill="#FFFFFF" d="M117.106,110.857l2.049-9.825h1.915l2.043,9.825h-1.707l-0.408-2.283h-1.746l-0.412,2.283
			H117.106z M119.448,107.407h1.351l-0.674-4.032L119.448,107.407z"/>
		<path id="XMLID_122_" fill="#FFFFFF" d="M124.025,110.857v-7.018h1.703v1.08c0.24-0.416,0.482-0.714,0.729-0.896
			c0.244-0.182,0.508-0.271,0.787-0.271c0.084,0,0.17,0.01,0.254,0.028v1.642c-0.189-0.07-0.387-0.104-0.59-0.104
			c-0.242,0.006-0.457,0.064-0.643,0.176c-0.184,0.111-0.363,0.293-0.537,0.551v4.813L124.025,110.857L124.025,110.857z"/>
		<path id="XMLID_124_" fill="#FFFFFF" d="M128.344,110.857v-7.018h1.703v1.08c0.24-0.416,0.48-0.714,0.727-0.896
			c0.246-0.182,0.51-0.271,0.787-0.271c0.086,0,0.17,0.01,0.256,0.028v1.642c-0.189-0.07-0.387-0.104-0.59-0.104
			c-0.242,0.006-0.457,0.064-0.641,0.176c-0.186,0.111-0.363,0.293-0.539,0.551v4.813L128.344,110.857L128.344,110.857z"/>
		<path id="XMLID_126_" fill="#FFFFFF" d="M134.006,110.968c-0.455-0.004-0.826-0.176-1.117-0.519
			c-0.289-0.342-0.434-0.729-0.434-1.157c0-0.406,0.066-0.763,0.207-1.066c0.139-0.305,0.363-0.566,0.678-0.781
			c0.314-0.219,0.574-0.377,0.781-0.475c0.207-0.101,0.525-0.229,0.955-0.392c0.121-0.047,0.213-0.084,0.273-0.106v-0.586
			c0-0.316-0.039-0.549-0.113-0.693s-0.229-0.221-0.459-0.221c-0.377,0-0.57,0.258-0.578,0.771l-0.023,0.438l-1.629-0.06
			c0-0.022,0-0.065,0.002-0.131c0.002-0.063,0.004-0.104,0.004-0.125c0.051-0.733,0.275-1.272,0.672-1.616
			c0.396-0.345,0.959-0.517,1.691-0.517c0.709,0,1.236,0.188,1.578,0.563c0.344,0.373,0.516,0.904,0.516,1.592v3.205
			c0,0.539,0.043,1.125,0.133,1.763h-1.539c-0.094-0.46-0.15-0.804-0.176-1.031c-0.104,0.322-0.271,0.597-0.51,0.813
			C134.684,110.859,134.379,110.968,134.006,110.968z M134.656,109.681c0.129,0,0.258-0.047,0.387-0.142
			c0.127-0.096,0.229-0.19,0.309-0.288v-1.935c-0.844,0.455-1.266,0.971-1.266,1.547c0,0.252,0.051,0.453,0.146,0.601
			C134.334,109.611,134.475,109.681,134.656,109.681z"/>
		<path id="XMLID_129_" fill="#FFFFFF" d="M138.256,110.857v-7.018h1.701v0.688c0.58-0.529,1.166-0.793,1.76-0.793
			c0.408,0,0.707,0.146,0.896,0.438c0.188,0.291,0.281,0.649,0.281,1.078v5.604h-1.703v-5.238c0-0.221-0.031-0.387-0.098-0.491
			c-0.064-0.107-0.189-0.158-0.375-0.156c-0.211,0.006-0.467,0.113-0.762,0.322v5.563L138.256,110.857L138.256,110.857z"/>
		<path id="XMLID_131_" fill="#FFFFFF" d="M147.061,113.166v-2.802c-0.395,0.397-0.814,0.601-1.264,0.604
			c-0.594,0-1.033-0.203-1.322-0.609c-0.291-0.406-0.436-1.053-0.436-1.938v-2.037c0-0.301,0.018-0.578,0.053-0.828
			c0.033-0.252,0.092-0.49,0.176-0.721c0.084-0.229,0.189-0.423,0.318-0.584c0.131-0.158,0.295-0.285,0.496-0.38
			c0.199-0.092,0.432-0.139,0.689-0.139c0.457,0,0.889,0.187,1.289,0.558v-0.451h1.703v9.325L147.061,113.166L147.061,113.166z
			 M146.398,109.782c0.197,0,0.42-0.063,0.662-0.194v-4.468c-0.23-0.146-0.455-0.219-0.668-0.219c-0.23,0-0.396,0.101-0.498,0.303
			c-0.104,0.201-0.152,0.459-0.152,0.771v2.572c0,0.248,0.016,0.457,0.047,0.625c0.029,0.166,0.096,0.313,0.197,0.434
			C146.086,109.722,146.225,109.782,146.398,109.782z"/>
		<path id="XMLID_134_" fill="#FFFFFF" d="M151.189,110.962c-0.408,0-0.707-0.146-0.896-0.438c-0.188-0.293-0.281-0.652-0.281-1.078
			v-5.605h1.697v5.269c0,0.217,0.033,0.379,0.104,0.483c0.068,0.107,0.195,0.16,0.383,0.156c0.197,0,0.441-0.1,0.73-0.299v-5.609
			h1.695v7.017h-1.695v-0.656C152.352,110.706,151.773,110.962,151.189,110.962z"/>
		<path id="XMLID_136_" fill="#FFFFFF" d="M158.117,110.968c-0.824,0-1.416-0.222-1.775-0.664c-0.361-0.441-0.541-1.096-0.541-1.961
			v-1.982c0-0.867,0.182-1.521,0.547-1.963c0.363-0.441,0.953-0.662,1.764-0.662c0.43,0,0.793,0.061,1.086,0.184
			c0.295,0.123,0.521,0.309,0.688,0.557c0.164,0.25,0.279,0.535,0.35,0.863c0.068,0.324,0.104,0.717,0.104,1.174v0.918h-2.846v1.056
			c0,0.146,0,0.26,0.004,0.34c0,0.082,0.008,0.181,0.02,0.293c0.014,0.115,0.031,0.205,0.059,0.269
			c0.027,0.064,0.063,0.127,0.105,0.192c0.045,0.063,0.105,0.113,0.176,0.14c0.074,0.026,0.16,0.041,0.258,0.041
			c0.227,0,0.385-0.078,0.473-0.232c0.092-0.156,0.135-0.383,0.135-0.678v-0.402h1.611v0.275c0,0.729-0.186,1.283-0.557,1.668
			S158.85,110.968,158.117,110.968z M157.49,106.601h1.229v-0.668c0-0.354-0.045-0.609-0.137-0.764s-0.252-0.23-0.482-0.23
			c-0.234,0-0.396,0.086-0.48,0.262c-0.084,0.172-0.127,0.488-0.127,0.947v0.453H157.49z"/>
		<path id="XMLID_139_" fill="#FFFFFF" d="M166.697,110.968c-0.814,0-1.4-0.224-1.758-0.67c-0.357-0.445-0.535-1.093-0.535-1.938
			v-2.031c0-0.846,0.178-1.49,0.535-1.932c0.355-0.443,0.943-0.664,1.758-0.664c0.766,0,1.322,0.176,1.668,0.525
			c0.348,0.354,0.521,0.897,0.521,1.635v0.568h-1.588v-0.599c0-0.354-0.045-0.603-0.131-0.742c-0.088-0.14-0.238-0.211-0.453-0.211
			c-0.24,0-0.4,0.082-0.484,0.248c-0.082,0.166-0.125,0.476-0.125,0.925v2.559c0,0.447,0.047,0.75,0.139,0.904
			c0.09,0.155,0.248,0.233,0.473,0.233c0.227,0,0.379-0.074,0.461-0.228c0.082-0.151,0.123-0.383,0.123-0.69v-0.75h1.586v0.664
			c0,0.728-0.18,1.271-0.533,1.641C167.998,110.784,167.447,110.968,166.697,110.968z"/>
		<path id="XMLID_141_" fill="#FFFFFF" d="M172.17,110.968c-0.773,0-1.352-0.213-1.73-0.637c-0.377-0.425-0.566-1.031-0.566-1.822
			v-2.314c0-0.791,0.189-1.396,0.566-1.824c0.381-0.424,0.957-0.635,1.73-0.635c0.777,0,1.359,0.211,1.742,0.635
			c0.383,0.426,0.576,1.033,0.576,1.824v2.314c0,0.791-0.193,1.397-0.576,1.822C173.529,110.755,172.947,110.968,172.17,110.968z
			 M172.176,109.802c0.137,0,0.25-0.029,0.336-0.09c0.088-0.06,0.15-0.152,0.189-0.273c0.039-0.125,0.063-0.246,0.076-0.363
			c0.012-0.115,0.018-0.268,0.018-0.453v-2.541c0-0.146-0.002-0.268-0.008-0.363c-0.006-0.097-0.021-0.205-0.043-0.317
			c-0.021-0.115-0.057-0.203-0.102-0.271c-0.045-0.063-0.104-0.119-0.184-0.166c-0.076-0.045-0.172-0.065-0.285-0.065
			c-0.139,0-0.25,0.028-0.338,0.09c-0.088,0.063-0.148,0.155-0.189,0.278c-0.037,0.125-0.063,0.244-0.074,0.361
			c-0.014,0.117-0.02,0.269-0.02,0.455v2.539c0,0.146,0.002,0.27,0.01,0.367c0.006,0.096,0.021,0.201,0.041,0.313
			c0.021,0.115,0.057,0.203,0.102,0.269c0.045,0.063,0.105,0.121,0.184,0.166C171.967,109.779,172.063,109.802,172.176,109.802z"/>
		<path id="XMLID_144_" fill="#FFFFFF" d="M175.654,110.857v-7.018h1.701v0.688c0.58-0.529,1.166-0.793,1.76-0.793
			c0.408,0,0.709,0.146,0.896,0.438c0.188,0.291,0.281,0.649,0.281,1.078v5.604h-1.701v-5.238c0-0.221-0.033-0.387-0.1-0.491
			c-0.064-0.107-0.189-0.158-0.375-0.156c-0.213,0.006-0.467,0.113-0.762,0.322v5.563L175.654,110.857L175.654,110.857z"/>
		<path id="XMLID_146_" fill="#FFFFFF" d="M186.459,110.968c-0.596,0-1.084-0.162-1.465-0.484c-0.381-0.324-0.645-0.791-0.785-1.396
			l1.289-0.457c0.09,0.387,0.215,0.68,0.377,0.879c0.162,0.201,0.365,0.295,0.607,0.289c0.18-0.006,0.326-0.068,0.441-0.188
			c0.115-0.121,0.17-0.269,0.16-0.44c-0.016-0.252-0.252-0.572-0.711-0.953l-0.967-0.808c-0.697-0.584-1.039-1.194-1.021-1.83
			c0.012-0.562,0.207-1.008,0.586-1.342s0.863-0.5,1.449-0.5c0.564,0,1.021,0.166,1.375,0.496c0.354,0.332,0.582,0.776,0.688,1.334
			l-1.117,0.457c-0.156-0.728-0.441-1.093-0.863-1.099c-0.18-0.002-0.322,0.051-0.43,0.162c-0.107,0.109-0.162,0.24-0.162,0.396
			c-0.004,0.213,0.195,0.49,0.604,0.834l0.984,0.873c0.166,0.143,0.305,0.27,0.414,0.381c0.107,0.111,0.225,0.25,0.344,0.41
			c0.119,0.164,0.209,0.338,0.268,0.521c0.061,0.188,0.09,0.385,0.09,0.598c0,0.594-0.203,1.053-0.605,1.379
			C187.602,110.804,187.088,110.968,186.459,110.968z"/>
		<path id="XMLID_148_" fill="#FFFFFF" d="M190.916,110.968c-0.455-0.004-0.824-0.176-1.115-0.519
			c-0.289-0.342-0.436-0.729-0.436-1.157c0-0.406,0.068-0.763,0.207-1.066c0.139-0.305,0.363-0.566,0.678-0.781
			c0.314-0.219,0.576-0.377,0.781-0.475c0.209-0.101,0.525-0.229,0.955-0.392c0.121-0.047,0.213-0.084,0.273-0.106v-0.586
			c0-0.316-0.037-0.549-0.111-0.693c-0.074-0.146-0.229-0.221-0.459-0.221c-0.377,0-0.57,0.258-0.576,0.771l-0.025,0.438
			l-1.629-0.06c0-0.022,0-0.065,0.002-0.131c0-0.063,0.004-0.104,0.004-0.125c0.053-0.733,0.275-1.272,0.672-1.616
			c0.396-0.345,0.959-0.517,1.693-0.517c0.709,0,1.234,0.188,1.576,0.563c0.344,0.373,0.514,0.904,0.514,1.592v3.205
			c0,0.539,0.047,1.125,0.135,1.763h-1.539c-0.094-0.46-0.15-0.804-0.176-1.031c-0.104,0.322-0.271,0.597-0.51,0.813
			C191.594,110.859,191.289,110.968,190.916,110.968z M191.566,109.681c0.131,0,0.26-0.047,0.387-0.142
			c0.129-0.096,0.23-0.19,0.309-0.288v-1.935c-0.846,0.455-1.266,0.971-1.266,1.547c0,0.252,0.049,0.453,0.148,0.601
			C191.244,109.611,191.385,109.681,191.566,109.681z"/>
		<path id="XMLID_151_" fill="#FFFFFF" d="M198.232,110.968c-0.449,0-0.898-0.209-1.344-0.627v0.516h-1.703v-9.824h1.703v3.342
			c0.441-0.431,0.926-0.644,1.453-0.64c0.256,0.002,0.48,0.062,0.678,0.17c0.197,0.112,0.352,0.25,0.463,0.414
			s0.203,0.356,0.273,0.58c0.07,0.226,0.119,0.43,0.143,0.623c0.025,0.19,0.037,0.385,0.037,0.584v2.299
			c0,0.354-0.029,0.683-0.092,0.979c-0.061,0.297-0.156,0.568-0.285,0.813c-0.131,0.242-0.309,0.432-0.533,0.568
			C198.801,110.9,198.537,110.968,198.232,110.968z M197.641,109.779c0.125,0,0.23-0.035,0.314-0.102
			c0.082-0.066,0.145-0.17,0.182-0.303c0.039-0.134,0.064-0.271,0.078-0.408c0.012-0.14,0.018-0.308,0.018-0.511v-2.418
			c0-0.165-0.008-0.312-0.023-0.437c-0.018-0.127-0.047-0.25-0.092-0.366c-0.043-0.117-0.109-0.205-0.197-0.267
			c-0.086-0.061-0.193-0.09-0.318-0.086c-0.23,0.004-0.469,0.096-0.711,0.273v4.4C197.119,109.704,197.371,109.779,197.641,109.779z
			"/>
		<path id="XMLID_154_" fill="#FFFFFF" d="M203.279,110.968c-0.771,0-1.352-0.213-1.729-0.637c-0.379-0.425-0.568-1.031-0.568-1.822
			v-2.314c0-0.791,0.189-1.396,0.568-1.824c0.379-0.424,0.957-0.635,1.729-0.635c0.779,0,1.359,0.211,1.742,0.635
			c0.383,0.426,0.574,1.033,0.574,1.824v2.314c0,0.791-0.191,1.397-0.574,1.822C204.639,110.755,204.057,110.968,203.279,110.968z
			 M203.287,109.802c0.137,0,0.248-0.029,0.336-0.09c0.086-0.06,0.15-0.152,0.188-0.273c0.039-0.125,0.064-0.246,0.076-0.363
			c0.012-0.115,0.02-0.268,0.02-0.453v-2.541c0-0.146-0.002-0.268-0.01-0.363c-0.006-0.097-0.02-0.205-0.043-0.317
			c-0.02-0.115-0.055-0.203-0.1-0.271c-0.045-0.063-0.105-0.119-0.184-0.166c-0.078-0.045-0.172-0.065-0.285-0.065
			c-0.139,0-0.25,0.028-0.338,0.09c-0.086,0.063-0.148,0.155-0.188,0.278c-0.039,0.125-0.063,0.244-0.076,0.361
			s-0.02,0.269-0.02,0.455v2.539c0,0.146,0.002,0.27,0.01,0.367c0.006,0.096,0.021,0.201,0.043,0.313
			c0.021,0.115,0.055,0.203,0.1,0.269c0.045,0.063,0.104,0.121,0.184,0.166C203.078,109.779,203.172,109.802,203.287,109.802z"/>
		<path id="XMLID_157_" fill="#FFFFFF" d="M206.787,110.857v-7.018h1.703v1.08c0.238-0.416,0.48-0.714,0.729-0.896
			c0.244-0.182,0.508-0.271,0.785-0.271c0.086,0,0.172,0.01,0.258,0.028v1.642c-0.189-0.07-0.389-0.104-0.592-0.104
			c-0.242,0.006-0.455,0.064-0.641,0.176c-0.186,0.109-0.365,0.293-0.539,0.551v4.813L206.787,110.857L206.787,110.857z"/>
		<path id="XMLID_159_" fill="#FFFFFF" d="M216.281,110.968c-0.814,0-1.402-0.224-1.758-0.67c-0.357-0.445-0.535-1.093-0.535-1.938
			v-2.031c0-0.846,0.178-1.49,0.535-1.932c0.355-0.443,0.943-0.664,1.758-0.664c0.768,0,1.322,0.176,1.668,0.525
			c0.348,0.354,0.521,0.897,0.521,1.635v0.568h-1.588v-0.599c0-0.354-0.043-0.603-0.131-0.742c-0.088-0.141-0.236-0.211-0.453-0.211
			c-0.24,0-0.4,0.082-0.482,0.248c-0.084,0.166-0.125,0.476-0.125,0.925v2.559c0,0.447,0.047,0.75,0.139,0.904
			c0.09,0.155,0.248,0.233,0.471,0.233c0.229,0,0.381-0.074,0.463-0.228c0.082-0.151,0.121-0.383,0.121-0.69v-0.75h1.588v0.664
			c0,0.728-0.18,1.271-0.533,1.641C217.582,110.784,217.029,110.968,216.281,110.968z"/>
		<path id="XMLID_161_" fill="#FFFFFF" d="M219.619,110.857v-9.825h1.695v3.489c0.568-0.523,1.166-0.787,1.795-0.787
			c0.17,0,0.322,0.027,0.457,0.086c0.137,0.059,0.248,0.135,0.334,0.23c0.09,0.096,0.16,0.211,0.221,0.342
			c0.061,0.133,0.102,0.271,0.125,0.41c0.023,0.143,0.037,0.291,0.037,0.447v5.604h-1.697v-5.237c0-0.222-0.033-0.385-0.1-0.489
			c-0.068-0.109-0.195-0.16-0.381-0.156c-0.223,0.004-0.486,0.119-0.791,0.346v5.539h-1.695V110.857L219.619,110.857z"/>
		<path id="XMLID_163_" fill="#FFFFFF" d="M226.934,110.968c-0.455-0.004-0.826-0.176-1.115-0.519
			c-0.289-0.342-0.436-0.729-0.436-1.157c0-0.406,0.068-0.763,0.207-1.066c0.139-0.305,0.363-0.566,0.678-0.781
			c0.314-0.219,0.576-0.377,0.781-0.475c0.209-0.101,0.525-0.229,0.955-0.392c0.121-0.047,0.213-0.084,0.273-0.106v-0.586
			c0-0.316-0.037-0.549-0.113-0.693c-0.074-0.145-0.229-0.221-0.459-0.221c-0.375,0-0.568,0.258-0.576,0.771l-0.025,0.438
			l-1.629-0.06c0-0.022,0-0.065,0.002-0.131c0.002-0.063,0.004-0.104,0.004-0.125c0.053-0.733,0.277-1.272,0.672-1.616
			c0.396-0.345,0.961-0.517,1.693-0.517c0.709,0,1.234,0.188,1.578,0.563c0.342,0.373,0.514,0.904,0.514,1.592v3.205
			c0,0.539,0.045,1.125,0.135,1.763h-1.539c-0.094-0.46-0.15-0.804-0.178-1.031c-0.102,0.322-0.27,0.597-0.508,0.813
			C227.613,110.859,227.307,110.968,226.934,110.968z M227.586,109.681c0.129,0,0.258-0.047,0.387-0.142
			c0.127-0.096,0.229-0.19,0.309-0.288v-1.935c-0.846,0.455-1.266,0.971-1.266,1.547c0,0.252,0.049,0.453,0.146,0.601
			C227.262,109.611,227.402,109.681,227.586,109.681z"/>
		<path id="XMLID_166_" fill="#FFFFFF" d="M231.184,113.166v-9.326h1.703v0.539c0.445-0.433,0.932-0.646,1.455-0.646
			c0.254,0.004,0.48,0.062,0.678,0.172s0.352,0.248,0.461,0.412c0.111,0.164,0.203,0.356,0.273,0.582
			c0.07,0.223,0.119,0.43,0.143,0.62c0.025,0.191,0.037,0.388,0.037,0.585v2.299c0,0.354-0.029,0.683-0.09,0.979
			c-0.063,0.299-0.156,0.568-0.287,0.813c-0.129,0.242-0.307,0.433-0.531,0.569c-0.225,0.136-0.49,0.203-0.795,0.203
			c-0.445,0-0.895-0.211-1.344-0.633v2.832h-1.703V113.166L231.184,113.166z M233.635,109.779c0.127,0,0.23-0.035,0.316-0.104
			c0.084-0.07,0.146-0.172,0.188-0.304c0.037-0.133,0.063-0.269,0.078-0.407c0.014-0.142,0.021-0.312,0.021-0.509v-2.418
			c0-0.159-0.01-0.307-0.027-0.437c-0.018-0.127-0.049-0.25-0.094-0.366c-0.045-0.117-0.111-0.205-0.201-0.267
			c-0.09-0.061-0.195-0.09-0.32-0.086c-0.225,0.004-0.459,0.099-0.707,0.277v4.396C233.131,109.704,233.379,109.779,233.635,109.779
			z"/>
		<path id="XMLID_169_" fill="#FFFFFF" d="M237.582,103.011l0.742-2.424h1.721l-1.496,2.424H237.582z M237.217,110.857v-7.018h1.695
			v7.018H237.217z"/>
		<path id="XMLID_172_" fill="#FFFFFF" d="M240.264,110.857v-7.018h1.701v0.688c0.58-0.529,1.166-0.793,1.758-0.793
			c0.41,0,0.709,0.146,0.896,0.438c0.188,0.291,0.281,0.649,0.281,1.078v5.604h-1.701v-5.238c0-0.221-0.031-0.387-0.098-0.491
			c-0.064-0.107-0.189-0.158-0.377-0.156c-0.211,0.006-0.463,0.113-0.76,0.322v5.563L240.264,110.857L240.264,110.857z"/>
	</g>
	<g id="XMLID_33_">
		<path id="XMLID_89_" fill="#FFFFFF" d="M58.773,52.511c0,0-0.189,0.844,1.066,0.313c1.255-0.531,2.258-0.932,2.258-0.932
			l-0.231-1.096C61.866,50.796,59.251,51.427,58.773,52.511z"/>
		<path id="XMLID_88_" fill="#FFFFFF" d="M71.685,53.556l0.8-2.604c0,0,1.303,1.452,1.11,2.048
			C73.402,53.597,71.685,53.556,71.685,53.556z"/>
		<path id="XMLID_87_" fill="#FFFFFF" d="M76.03,61.091c0.393,0.047,0.512,0.797,0.164,1.059c-0.335,0.251-0.696,0.582-0.983,0.99
			c-0.35,0.5-1.109,2.17-1.874,4.132c0,0-1.744,0.68-2.026,2.364c-0.53,3.166-3.667,12.483-3.75,14.615
			c-0.083,2.133-2.401,6.305-2.815,6.329c-2.646,0.151,1.11-4.905,1.11-8.577c0-3.67,5.382-16.021,5.382-16.021
			S72.383,60.661,76.03,61.091z"/>
		<path id="XMLID_86_" fill="#FFFFFF" d="M76.194,62.15c0,0-1.775,5.513,0.178,6.331c0,0,1.658,0.403,0.889,1.173
			c-0.771,0.77-2.926,0.293-3.92-1.393c-0.684-1.158-0.028-4.558,1.042-5.979C74.87,61.634,76.194,62.15,76.194,62.15z"/>
		<path id="XMLID_85_" fill="#FFFFFF" d="M60.43,52.253c0,0,2.083,2.461,6.542,2.422s7.341-0.315,7.695-0.908
			c0.355-0.592-2.183-2.816-2.183-2.816s0.384,1.658-0.275,1.862c-0.658,0.204-3.146,1.047-5.435,0.743
			c-2.289-0.303-5.272-1.658-5.272-1.658S60.281,51.294,60.43,52.253z"/>
		<path id="XMLID_84_" fill="#FFFFFF" d="M63.309,49.413c0,0,5.823-2.312,9.341-1.797c3.518,0.513,3.164,1.485,3.047,3.101
			c-0.115,1.586-0.995,3.174-0.995,3.174c-1.011,0.457-2.101-0.625-2.015-0.848s1.164-1.298,1.243-2.246
			c0.079-0.947-0.795-1.642-1.676-1.761c-0.88-0.118-2.243-0.715-5.321,0.626C63.855,51.003,63.309,49.413,63.309,49.413z"/>
		<path id="XMLID_83_" fill="#FFFFFF" d="M61.006,77.9c0,0-1.75,2.424-2.033,3.869c-0.282,1.447-0.166,2.686-0.268,3.363
			c-0.101,0.676-1.918,0.43-1.281-2.177C58.061,80.349,60.215,76.164,61.006,77.9z"/>
		<path id="XMLID_82_" fill="#FFFFFF" d="M91.386,57.125c0,0,2.473,5.741,3.357,6.346c0.884,0.604,0.944,3.639,0.944,3.639
			l-2.723-0.786l-2.31-6.707C90.656,59.616,88.353,56.865,91.386,57.125z"/>
		<path id="XMLID_78_" fill="#FFFFFF" d="M67.532,48.808c-4.921-0.045-9.843,2.693-8.612,3.924c0,0,0.73-1.449,2.056-0.781
			l-0.12,0.214c0.159,0.091,3.146,1.731,7.784,1.731c1.357,0,2.857-0.141,4.471-0.504l-0.086-0.381
			c0.62-0.144,0.701-0.795-0.256-1.795C71.583,49.978,70.596,48.835,67.532,48.808z M64.979,52.45
			c-1.106-0.229-1.992-0.521-2.608-0.76c0.639-0.481,1.425-1.093,1.958-0.994C64.894,50.802,64.644,51.743,64.979,52.45z
			 M68.065,52.818c1.069-0.783,1.041-2.381,1.708-2.363c0.64,0.018,1.442,1.346,2.152,2.092
			C70.535,52.787,69.24,52.858,68.065,52.818z"/>
		<path id="XMLID_77_" fill="#FFFFFF" d="M53.704,47.706c5.167-2.53,10.484-5.704,15.938-5.401c9.491,0.527,7.206-1.405,5.097-2.461
			c-2.109-1.054-8.443-0.393-13.465,1.338c-2.18,0.752-6.083,3.631-7.917,5.06C53.048,46.48,53.355,47.878,53.704,47.706z"/>
		<path id="XMLID_76_" fill="#FFFFFF" d="M83.034,68.078c0.772-0.513,0.645-0.904-1.547-1.531c-2.191-0.629-3.686,0.879-3.686,0.879
			C77.44,68.897,82.261,68.591,83.034,68.078z"/>
		<path id="XMLID_75_" fill="#FFFFFF" d="M90.381,69.523c0.967-0.088,0.264-1.582-0.527-1.747s-1.934,1.308-1.934,1.308
			C88.184,69.875,89.414,69.611,90.381,69.523z"/>
		<path id="XMLID_74_" fill="#FFFFFF" d="M31.216,70.041c0,0,2.308-4.613-1.077-3.867c-3.386,0.744-2.155,5.592-2.155,5.592
			s0,0,1.385,0c1.385,0,3.848,3.203,4.309,1.818C34.138,72.198,31.216,70.041,31.216,70.041z"/>
		<path id="XMLID_73_" fill="#FFFFFF" d="M68.528,78.281c0,0,0.485,0.046,1.325,0.084c0.84,0.041,2.04,0.032,3.462-0.007
			c0.712-0.027,1.482-0.078,2.292-0.147c0.811-0.076,1.661-0.15,2.538-0.261c0.876-0.116,1.778-0.229,2.688-0.386
			c0.456-0.065,0.911-0.18,1.377-0.201c0.116-0.014,0.233-0.01,0.351-0.014l0.176-0.002l0.122-0.01l0.011,0.002h0.022l0.045,0.002
			l0.135,0.008c0.393,0.025,0.583,0.1,0.764,0.166c0.187,0.07,0.335,0.146,0.469,0.219c0.521,0.294,0.876,0.563,1.17,0.679
			c0.303,0.115,0.323,0.111,0.667,0.009c0.324-0.099,0.706-0.32,1.34-0.496c0.167-0.043,0.349-0.078,0.566-0.09
			c0.115-0.002,0.218-0.009,0.35,0.008c0.129,0.01,0.265,0.035,0.292,0.047c0.212,0.051,0.462,0.156,0.675,0.252
			c0.86,0.406,1.691,0.617,2.463,0.896c0.775,0.253,1.508,0.472,2.188,0.618c0.68,0.148,1.311,0.229,1.854,0.188
			c0.543-0.033,0.986-0.229,1.23-0.527c0.249-0.299,0.315-0.633,0.354-0.848c0.02-0.225,0.028-0.344,0.028-0.344
			s0.013,0.12,0.038,0.346c0.001,0.226,0.009,0.582-0.213,0.99c-0.215,0.413-0.729,0.754-1.331,0.93
			c-0.607,0.182-1.311,0.242-2.061,0.246c-0.751,0.002-1.556-0.056-2.395-0.139c-0.416-0.045-0.844-0.091-1.281-0.139
			c-0.434-0.049-0.87-0.115-1.323-0.079c-0.227,0.003-0.422,0.021-0.659-0.009c-0.086-0.01-0.063,0.002-0.048,0.004
			c0.019-0.002,0.007,0.006,0.007,0.006l-0.114,0.029c-0.262,0.066-0.726,0.265-1.313,0.421c-0.148,0.038-0.308,0.073-0.484,0.096
			c-0.115,0.028-0.5,0.047-0.568,0.038c-0.386-0.001-0.776-0.1-1.076-0.193c-0.608-0.207-1.076-0.447-1.429-0.547
			c-0.085-0.025-0.159-0.042-0.202-0.042c-0.047-0.009-0.092,0.017,0.063,0.024c0.055-0.004-0.032,0.005-0.046,0.007l-0.044,0.005
			l-0.022,0.003l-0.011,0.001c0.218-0.018,0.054-0.003,0.1-0.007l-0.181,0.036c-0.121,0.021-0.241,0.049-0.363,0.061
			c-0.485,0.071-0.975,0.084-1.461,0.08c-0.971,0.006-1.926-0.009-2.847-0.056c-0.923-0.062-1.812-0.128-2.649-0.233
			c-0.839-0.115-1.626-0.24-2.35-0.373c-1.447-0.259-2.625-0.611-3.438-0.873C68.969,78.494,68.528,78.281,68.528,78.281z"/>
		<path id="XMLID_72_" fill="#FFFFFF" d="M68.528,78.281c0,0,0.522,0.167,1.399,0.475c0.864,0.299,2.101,0.728,3.583,1.24
			c2.925,0.992,6.747,2.336,10.525,2.916c0.955,0.143,1.854,0.234,2.821,0.256c0.92,0.028,1.792-0.013,2.657-0.115
			c0.852-0.111,1.66-0.285,2.404-0.531c0.745-0.246,1.423-0.568,2.027-0.928c1.223-0.709,2.109-1.611,2.688-2.297
			c0.573-0.693,0.848-1.17,0.848-1.17s0.044,0.551-0.191,1.497c-0.234,0.935-0.774,2.292-1.957,3.606
			c-1.161,1.318-3.004,2.484-5.134,3.063c-1.048,0.303-2.197,0.465-3.33,0.524c-1.087,0.062-2.274-0.002-3.385-0.163
			c-4.51-0.663-8.427-2.779-11.017-4.693c-1.301-0.967-2.295-1.881-2.954-2.561C68.854,78.722,68.528,78.281,68.528,78.281z"/>
		<path id="XMLID_71_" fill="#FFFFFF" d="M33.601,80.897c1.531,0.237,2.794,1.312,3.188,2.809c0.852,3.236,2.061,8.479,2.229,12.691
			c0.264,6.59,2.373,12.391-1.582,18.454c-3.955,6.064-10.81,6.328-13.446,0c-1.918-4.604-0.019-8.23,1.158-9.865
			c0.444-0.617,1.054-1.078,1.764-1.35c0.357-0.137,0.788-0.289,1.255-0.433c2.141-0.651,3.3-2.976,2.483-5.06
			C29.426,95.023,31.503,80.571,33.601,80.897z"/>
		<g id="XMLID_34_">
			<path id="XMLID_70_" fill="#FFFFFF" d="M61.986,153.048c-1.075,0.664-0.823,2.051-0.309,2.93
				c0.514,0.881,1.636,1.629,2.711,0.965c1.076-0.66,0.823-2.049,0.309-2.93C64.183,153.134,63.061,152.386,61.986,153.048z"/>
			<path id="XMLID_38_" fill="#FFFFFF" d="M139.77,120.616c-4.67-1.594-40.513-4.078-44.146-4.326
				c-1.606-0.194-3.22-0.364-4.837-0.51l0.018-5.623c6.3-4.515,11.113-10.829,11.793-12.819c1.055-3.095,3.646-15.902,3.646-15.902
				c5.933-13.149,0.644-19.731,0.644-19.731l0.011-0.479c0.106-0.141,0.18-0.336,0.162-0.604c1.969-3.24,3.714-9.561,3.212-12.943
				c-0.695-4.676-3.476-4.82-6.718-15.478c-2.307-7.575-12.88-13.464-18.805-16.237c0.056-1.777-0.319-4.082-1.555-7.031
				c-3.868-9.235-17.05-8.762-22.26-6.789c-5.209,1.974-3.947,5.92-3.868,7.736c0.048,1.119,0.711,1.18,1.212,1.062
				c0.19,0.138,0.506,0.082,0.563-0.216l0,0l0,0c0.606-3.252,2.725-7.577,9.918-5.153c7.661,2.582,10.562,5.593,11.193,7.651
				c-1.514-1.621-4.221-2.817-6.566-2.817c-3.657,0-17.104-1.056-31.34,7.382C28.295,25.935,23.778,42.693,25.68,54.279
				c-5.252,5.488-2.962,13.086-2.657,14.004c0.251,1.835,1.523,10.027,4.366,11.574c0.612,0.334,1.15,0.701,1.669,1.057
				c1.557,1.063,3.036,2.075,5.658,1.493c1.01,3.923,5.417,21.761,3.514,26.946c-0.019,0.068-1.606,5.842-5.245,10.4
				c-2.049,0.555-12.708,3.526-22.601,7.95c-3.372,1.507-6.735,3.408-9.785,5.4c15.331,24.808,42.768,41.335,74.068,41.335
				c22.806,0,43.558-8.773,59.073-23.131c5.201-5.608,9.676-11.901,13.268-18.735C143.531,126.029,140.586,120.894,139.77,120.616z
				 M100.139,74.671c-0.4,0.391-1.834,0.489-1.866-0.022c-0.228-3.687-1.241-8.537-3.563-11.216
				c-0.694-0.045-1.495-0.275-2.264-0.735c-0.426-0.696-0.956-1.479-1.505-2.298c0.337-0.792,0.695-1.944,0.516-2.998
				c0.91,0.525,3.001,1.572,5.128,1.52c1.926-0.047,3.568-0.289,4.437-0.44c0.535,1.092,0.976,2.25,0.976,3.067
				c0.902,0.822,1.946,2.223,1.882,4.271C103.802,68.272,102.183,72.681,100.139,74.671z M96.77,54.083
				c-0.036-0.007-0.075-0.01-0.112-0.017c-0.119-0.015-0.326-0.04-0.601-0.07c-0.107-0.006-0.212-0.015-0.322-0.014l-0.048-0.007
				c0.017-0.002,0.042-0.004,0.042-0.004s-0.031-0.008-0.068-0.018c-1.459-0.146-3.884-0.314-4.319,0.127
				c-0.633,0.639-0.37-2.033,0.498-1.828c0.867,0.207,4.848,0.952,4.938,1.828l-0.008-0.001
				C96.768,54.082,96.769,54.083,96.77,54.083z M97.414,55.437c0.042,0.029,0.52,0.365,0.979,0.508
				c0.661,0.438,1.146,0.941,1.537,1.311c-1.451,0.26-2.782,0.277-3.952,0.16C96.87,56.698,96.458,55.149,97.414,55.437z
				 M95.542,53.989c-0.018,0.001-0.034,0.001-0.053,0.002c0.015-0.001,0.023-0.002,0.037-0.003
				C95.532,53.988,95.537,53.989,95.542,53.989z M92.617,55.435c0,0,0.115,0.758,0.553,1.41c-1.275-0.401-2.079-0.855-2.255-0.961
				C91.334,55.581,91.877,55.278,92.617,55.435z M103.65,52.203v0.003v-0.001c0.24,0.835,0.517,1.612,0.829,2.235
				c0.41,0.821,0.569,2.092,0.606,3.39c-0.191-0.176-0.391-0.355-0.618-0.549c0,0-2.749-0.24-5.417-2.842
				c-0.751-2.424-5.479-4.098-7.245-4.008c0.12-1.35,1.724-2.567,3.151-3.393c1.48,0.29,3.463,0.518,5.239,0.641
				c1.695,0.117,2.579,1.578,3.027,2.81C103.348,51.07,103.491,51.649,103.65,52.203z M24.571,134.454l-0.006-0.016l0.016,0.034
				L24.571,134.454z M48.078,152.157c-0.567,0.731-1.979,0.724-3.388,0.479l0.688,0.19c1.129,0.279,2.568,5.224,2.568,5.224
				c-2.696,1.086-7.206-1.707-7.206-1.707l-0.002-0.016c-0.791,1.938-2.586,3.41-2.586,3.41c-2.137-2.105-2.183-4.225-1.742-5.773
				l-0.01,0.02c-2.321,0.229-8.472-7.506-8.472-7.506c1.766-1.162,8.457,0.557,8.457,0.557c-0.432-1.271-0.479-3.127,1.475-5.064
				c0,0,9.587,1.896,4.881,7.287c4.192-5.512,6.471-1.889,6.471-1.889S49.378,150.478,48.078,152.157z M67.442,155.06L67.442,155.06
				c1.204,0.598,2.55,1.873,2.54,4.625c0,0-6.867,3.861-7.995-1.813v0.002c0.931,6.857-3.851,6.02-3.851,6.02
				s-2.316-2.082-2.583-4.188c-0.117-0.918,0.888-1.908,2.057-2.734l-0.623,0.354c-0.994,0.6-5.508-1.877-5.508-1.877
				c1.138-2.677,6.302-3.889,6.302-3.889l0.011,0.009c-0.81-1.931-0.583-4.24-0.583-4.24c3-0.021,4.53,1.443,5.314,2.853
				l-0.006-0.021c1.48-1.801,11.298-0.684,11.298-0.684C73.389,151.542,67.442,155.06,67.442,155.06z M74.537,142.683l-4.791,0.35
				c-3.18,0.211-6.418,0.41-9.454,0.525l-1.204,0.012l-0.301,0.006h-0.029l-0.042-0.002l-0.131-0.004l-0.535-0.035
				c-0.731-0.061-1.492-0.154-2.258-0.271c-1.532-0.233-3.083-0.535-4.63-0.86c-3.097-0.658-6.191-1.423-9.269-2.246
				c-3.077-0.823-6.142-1.711-9.166-2.679c-1.511-0.485-3.015-0.989-4.482-1.536c-0.731-0.272-1.46-0.558-2.151-0.858
				c-0.348-0.15-0.687-0.308-0.996-0.468c-0.21-0.104-0.442-0.239-0.579-0.33c-0.035-0.112-0.07-0.228-0.101-0.348
				c-0.082-0.324-0.146-0.664-0.194-1.007c-0.086-0.621-0.104-1.252-0.067-1.868l1.645-3.546l1.894-1.973
				c0.042-0.021,0.086-0.043,0.125-0.063l1.039-0.531l2.16-1.127l1.085-0.597l0.558-0.325l0.308-0.195l0.192-0.135
				c0.022-0.015,0.104-0.078,0.163-0.133c0,0,0.107-0.095,0.202-0.224c-0.094,0.24,0.285-0.287,0.234-0.896
				c4.172-4.873,5.915-11.242,5.979-11.488c2.281-6.206-3.448-27.688-3.693-28.6l-0.214-0.8l-0.788,0.25
				c-2.406,0.763-3.474,0.031-5.091-1.073c-0.525-0.36-1.122-0.769-1.806-1.14c-1.692-0.922-3.085-6.912-3.566-10.474l-0.037-0.155
				c-0.026-0.076-2.568-7.578,2.397-12.601c1.357-0.099,3.588,0.612,3.771,6.287c0,0,3.955,7.563,6.063,4.454
				c2.109-3.11,4.482-9.088,4.482-12.559c0-3.47-2.109-7.16,5.271-11.643c7.382-4.482,16.181-11.864,17.055-15.818
				c0.874-3.953,9.804-5.502,9.804-5.502s0.097-0.02,0.247-0.051c2.413,0.801,6.821,1.973,8.906,0.719l0.002,0.008
				c0,0,0.047-0.033,0.109-0.084c0.073-0.049,0.15-0.092,0.215-0.147c4.717,3.205,11.736,8.399,12.348,11.3
				c0.927,4.4,7.412,11.814,7.412,13.667c0,0.08,0.008,0.185,0.011,0.272c-0.536-0.125-1.171-0.295-1.78-0.523
				c-1.421-0.533-5.624-2.189-7.578-2.25c-1.225-0.037-2.257,0.536-2.857,0.969c-0.165,0.112-0.325,0.243-0.48,0.391
				c-0.049,0.046-0.08,0.076-0.08,0.076h0.001c-2.407,2.39-3.451,8.619-3.451,8.619c0.232,3.383,5.823,10.931,5.976,15.08
				c0.15,4.15,3.242,5.799,3.344,11.299c0.036,1.959,0.11,3.356,0.19,4.356l-0.313,5.685c0,0.017-0.056,0.975-0.034,1.783
				c-0.063,0.152-0.103,0.242-0.103,0.242s0.045,0.045,0.116,0.082c0.015,0.232,0.036,0.441,0.074,0.581
				c0.605,2.245,0.74,2.083,0.232,3.388c-0.714,1.668-1.669,3.758-2.896,6.166c-1.066,2.094-1.912,3.719-2.852,5.049
				c-3.876,2.684-8.883,5.371-13.267,5.235c0,0-13.215,0.453-25.693-15.065c0,0-2.184,0.662-1.421,1.775
				c0.989,1.447,3.556,4.553,7.569,7.667c-0.502-0.372-0.778-0.604-0.778-0.604s12.405,12.873,22.233,12.99
				c4.964,0.062,7.849-0.49,9.49-1.049l1.16,0.086c3.157,0.234,6.347,0.557,9.48,1.027c1.563,0.232,3.143,0.51,4.64,0.84
				c0.37,0.074,0.771,0.184,1.159,0.273l0.292,0.072l0.172,0.063c0.116,0.027,0.273,0.119,0.417,0.182
				c0.596,0.297,1.216,0.723,1.81,1.17c1.647,1.297,3.14,2.854,4.419,4.555l2.23,3.558l0.368,0.763
				c0.304,0.692,0.57,1.391,0.779,2.092c0.399,1.391,0.542,2.83,0.125,3.938c-0.209,0.55-0.535,1.022-0.998,1.388
				c-0.229,0.184-0.483,0.344-0.761,0.473c-0.138,0.064-0.28,0.121-0.423,0.172l-0.211,0.064l-0.101,0.024
				c-0.004,0.002-0.02,0.004-0.032,0.006l-4.746,0.526l-9.573,1.033c-6.383,0.674-12.771,1.287-19.159,1.871L74.537,142.683z
				 M115.578,152.804c-0.613,0.692-2.021,0.594-3.412,0.262l0.675,0.234c1.106,0.352,2.226,5.377,2.226,5.377
				c-2.761,0.91-7.08-2.17-7.08-2.17l-0.001-0.014c-0.915,1.881-2.801,3.234-2.801,3.234c-1.997-2.238-1.906-4.354-1.366-5.872
				l-0.011,0.019c-2.332,0.075-7.972-8.037-7.972-8.037c1.838-1.045,8.404,1.102,8.404,1.102c-0.348-1.299-0.275-3.152,1.798-4.961
				c0,0,9.034,2.9,3.991,7.975c4.539-5.229,6.99-1.854,6.99-1.854S116.985,151.212,115.578,152.804z M127.635,146.734
				c0,0-2.049,1.34-3.701,1.115c-0.723-0.098-1.271-1.06-1.662-2.111l0.141,0.543c0.256,0.875-2.537,3.803-2.537,3.803
				c-1.801-1.402-1.68-5.568-1.68-5.568l0.009-0.008c-1.628,0.228-3.337-0.412-3.337-0.412c0.59-2.282,2.01-3.147,3.237-3.461
				l-0.018,0.002c-1.068-1.487,1.762-8.717,1.762-8.717c1.486,0.74,2.957,5.965,2.957,5.965c0.693-0.793,1.938-1.559,4.023-0.994
				c0,0,2.438,6.254-2.271,5.787C128.631,143.681,127.635,146.734,127.635,146.734z"/>
			<circle id="XMLID_37_" fill="#FFFFFF" cx="107.002" cy="150.177" r="1.727"/>
			<path id="XMLID_36_" fill="#FFFFFF" d="M122.77,140.353c-0.133-0.162-0.307-0.313-0.521-0.414
				c-0.107-0.051-0.227-0.08-0.35-0.098c-0.127-0.013-0.215-0.013-0.377,0.018c-0.508,0.094-0.949,0.541-1.049,1.064
				c-0.025,0.125-0.039,0.271-0.027,0.383c-0.006,0.053,0.016,0.141,0.027,0.213c0.008,0.045,0.025,0.121,0.041,0.18
				c0.078,0.242,0.197,0.469,0.355,0.65c0.318,0.371,0.771,0.512,1.066,0.494c0.295-0.008,0.463-0.08,0.463-0.08
				c-0.006-0.008,0.172-0.045,0.395-0.238c0.107-0.1,0.227-0.232,0.303-0.416c0.078-0.182,0.119-0.395,0.111-0.605
				c-0.008-0.205-0.074-0.447-0.125-0.586C122.996,140.669,122.912,140.525,122.77,140.353z"/>
			<path id="XMLID_35_" fill="#FFFFFF" d="M39.876,147.863c-1.229-0.291-1.985,0.82-2.205,1.805c-0.22,0.984-0.079,2.357,1.15,2.648
				c1.23,0.291,1.986-0.82,2.206-1.805C41.247,149.526,41.106,148.156,39.876,147.863z"/>
		</g>
	</g>
</g>
</svg>
