<?xml version="1.0" encoding="utf-8"?>
<!-- Generator: Adobe Illustrator 15.0.2, SVG Export Plug-In . SVG Version: 6.00 Build 0)  -->
<!DOCTYPE svg PUBLIC "-//W3C//DTD SVG 1.1//EN" "http://www.w3.org/Graphics/SVG/1.1/DTD/svg11.dtd">
<svg version="1.1" id="Layer_2" xmlns="http://www.w3.org/2000/svg" xmlns:xlink="http://www.w3.org/1999/xlink" x="0px" y="0px"
	 width="616.239px" height="734.5px" viewBox="0 0 616.239 734.5" enable-background="new 0 0 616.239 734.5" xml:space="preserve">
<g>
	<g>
		<path fill="#FFFFFF" d="M500.756,464.16c-32.168,11.094-19.09,48.695-19.09,48.695C510.454,501.924,500.756,464.16,500.756,464.16
			"/>
		<path fill="#FFFFFF" d="M542.288,506.451c0,0-37.588-10.385-49.037,18.203C493.25,524.654,530.61,538.414,542.288,506.451"/>
		<path fill="#FFFFFF" d="M500.756,464.16c-32.168,11.094-19.09,48.695-19.09,48.695C510.454,501.924,500.756,464.16,500.756,464.16
			"/>
		<path fill="#FFFFFF" d="M542.288,506.451c0,0-37.588-10.385-49.037,18.203C493.25,524.654,530.61,538.414,542.288,506.451"/>
		<path fill="#FFFFFF" d="M529.815,417.852c-29.162,17.531-8.551,51.602-8.551,51.602
			C547.155,452.775,529.815,417.852,529.815,417.852"/>
		<path fill="#FFFFFF" d="M579.231,450.584c0,0-38.926-2.344-44.184,27.994C535.051,478.578,574.454,484.273,579.231,450.584"/>
		<path fill="#FFFFFF" d="M529.815,417.852c-29.162,17.531-8.551,51.602-8.551,51.602
			C547.155,452.775,529.815,417.852,529.815,417.852"/>
		<path fill="#FFFFFF" d="M579.231,450.584c0,0-38.926-2.344-44.184,27.994C535.051,478.578,574.454,484.273,579.231,450.584"/>
		<path fill="#FFFFFF" d="M548.61,366.511c-24.875,23.221,2.367,52.256,2.367,52.256C572.831,397.066,548.61,366.511,548.61,366.511
			"/>
		<path fill="#FFFFFF" d="M603.747,388.256c0,0-38.559,5.801-37.393,36.572C566.354,424.828,606.075,422.201,603.747,388.256"/>
		<path fill="#FFFFFF" d="M548.61,366.511c-24.875,23.221,2.367,52.256,2.367,52.256C572.831,397.066,548.61,366.511,548.61,366.511
			"/>
		<path fill="#FFFFFF" d="M603.747,388.256c0,0-38.559,5.801-37.393,36.572C566.354,424.828,606.075,422.201,603.747,388.256"/>
		<path fill="#FFFFFF" d="M556.315,312.386c-19.496,27.885,13.182,50.616,13.182,50.616
			C586.362,337.238,556.315,312.386,556.315,312.386"/>
		<path fill="#FFFFFF" d="M614.772,322.191c0,0-36.51,13.688-28.979,43.547C585.797,365.739,624.112,354.911,614.772,322.191"/>
		<path fill="#FFFFFF" d="M556.315,312.386c-19.496,27.885,13.182,50.616,13.182,50.616
			C586.362,337.238,556.315,312.386,556.315,312.386"/>
		<path fill="#FFFFFF" d="M614.772,322.191c0,0-36.51,13.688-28.979,43.547C585.797,365.739,624.112,354.911,614.772,322.191"/>
		<path fill="#FFFFFF" d="M552.604,257.841c-13.281,31.33,23.41,46.77,23.41,46.77C587.163,275.905,552.604,257.841,552.604,257.841
			"/>
		<path fill="#FFFFFF" d="M611.821,255.279c0,0-32.867,20.981-19.283,48.623C592.538,303.901,627.758,285.343,611.821,255.279"/>
		<path fill="#FFFFFF" d="M552.604,257.841c-13.281,31.33,23.41,46.77,23.41,46.77C587.163,275.905,552.604,257.841,552.604,257.841
			"/>
		<path fill="#FFFFFF" d="M611.821,255.279c0,0-32.867,20.981-19.283,48.623C592.538,303.901,627.758,285.343,611.821,255.279"/>
		<path fill="#FFFFFF" d="M537.633,205.259c-6.473,33.407,32.625,40.884,32.625,40.884
			C575.186,215.741,537.633,205.259,537.633,205.259"/>
		<path fill="#FFFFFF" d="M595.022,190.44c0,0-27.785,27.353-8.758,51.567C586.266,242.007,616.858,216.534,595.022,190.44"/>
		<path fill="#FFFFFF" d="M537.633,205.259c-6.473,33.407,32.625,40.884,32.625,40.884
			C575.186,215.741,537.633,205.259,537.633,205.259"/>
		<path fill="#FFFFFF" d="M595.022,190.44c0,0-27.785,27.353-8.758,51.567C586.266,242.007,616.858,216.534,595.022,190.44"/>
		<path fill="#FFFFFF" d="M512.053,156.941c0.613,34.02,40.414,33.202,40.414,33.202
			C550.973,159.383,512.053,156.941,512.053,156.941"/>
		<path fill="#FFFFFF" d="M565.11,130.512c0,0-21.492,32.532,2.16,52.261C567.27,182.774,591.897,151.498,565.11,130.512"/>
		<path fill="#FFFFFF" d="M512.053,156.941c0.613,34.02,40.414,33.202,40.414,33.202
			C550.973,159.383,512.053,156.941,512.053,156.941"/>
		<path fill="#FFFFFF" d="M565.11,130.512c0,0-21.492,32.532,2.16,52.261C567.27,182.774,591.897,151.498,565.11,130.512"/>
		<path fill="#FFFFFF" d="M476.989,114.995c7.672,33.149,46.439,24.077,46.439,24.077
			C515.561,109.293,476.989,114.995,476.989,114.995"/>
		<path fill="#FFFFFF" d="M523.391,78.115c0,0-14.26,36.291,12.977,50.669C536.368,128.783,553.952,93.065,523.391,78.115"/>
		<path fill="#FFFFFF" d="M476.989,114.995c7.672,33.149,46.439,24.077,46.439,24.077
			C515.561,109.293,476.989,114.995,476.989,114.995"/>
		<path fill="#FFFFFF" d="M523.391,78.115c0,0-14.26,36.291,12.977,50.669C536.368,128.783,553.952,93.065,523.391,78.115"/>
		<path fill="#FFFFFF" d="M433.969,81.256c14.396,30.831,50.426,13.896,50.426,13.896C470.516,67.661,433.969,81.256,433.969,81.256
			"/>
		<path fill="#FFFFFF" d="M471.692,35.533c0,0-6.402,38.462,23.223,46.867C494.915,82.4,504.698,43.808,471.692,35.533"/>
		<path fill="#FFFFFF" d="M433.969,81.256c14.396,30.831,50.426,13.896,50.426,13.896C470.516,67.661,433.969,81.256,433.969,81.256
			"/>
		<path fill="#FFFFFF" d="M471.692,35.533c0,0-6.402,38.462,23.223,46.867C494.915,82.4,504.698,43.808,471.692,35.533"/>
		<path fill="#FFFFFF" d="M384.879,57.197c20.488,27.166,52.209,3.109,52.209,3.109C417.795,36.303,384.879,57.197,384.879,57.197"
			/>
		<path fill="#FFFFFF" d="M412.266,4.633c0,0,1.734,38.954,32.461,41.015C444.727,45.648,446.268,5.862,412.266,4.633"/>
		<path fill="#FFFFFF" d="M117.543,464.16c32.166,11.094,19.094,48.695,19.094,48.695
			C107.844,501.924,117.543,464.16,117.543,464.16"/>
		<path fill="#FFFFFF" d="M76.016,506.451c0,0,37.582-10.385,49.039,18.203C125.055,524.654,87.696,538.414,76.016,506.451"/>
		<path fill="#FFFFFF" d="M117.543,464.16c32.166,11.094,19.094,48.695,19.094,48.695
			C107.844,501.924,117.543,464.16,117.543,464.16"/>
		<path fill="#FFFFFF" d="M76.016,506.451c0,0,37.582-10.385,49.039,18.203C125.055,524.654,87.696,538.414,76.016,506.451"/>
		<path fill="#FFFFFF" d="M88.487,417.852c29.162,17.531,8.545,51.602,8.545,51.602C71.151,452.775,88.487,417.852,88.487,417.852"
			/>
		<path fill="#FFFFFF" d="M39.07,450.584c0,0,38.921-2.344,44.185,27.994C83.254,478.578,43.85,484.273,39.07,450.584"/>
		<path fill="#FFFFFF" d="M88.487,417.852c29.162,17.531,8.545,51.602,8.545,51.602C71.151,452.775,88.487,417.852,88.487,417.852"
			/>
		<path fill="#FFFFFF" d="M39.07,450.584c0,0,38.921-2.344,44.185,27.994C83.254,478.578,43.85,484.273,39.07,450.584"/>
		<path fill="#FFFFFF" d="M69.696,366.511c24.873,23.221-2.369,52.256-2.369,52.256C45.471,397.066,69.696,366.511,69.696,366.511"
			/>
		<path fill="#FFFFFF" d="M14.555,388.256c0,0,38.559,5.801,37.391,36.572C51.945,424.828,12.223,422.201,14.555,388.256"/>
		<path fill="#FFFFFF" d="M69.696,366.511c24.873,23.221-2.369,52.256-2.369,52.256C45.471,397.066,69.696,366.511,69.696,366.511"
			/>
		<path fill="#FFFFFF" d="M14.555,388.256c0,0,38.559,5.801,37.391,36.572C51.945,424.828,12.223,422.201,14.555,388.256"/>
		<path fill="#FFFFFF" d="M61.985,312.386c19.5,27.885-13.177,50.616-13.177,50.616C31.941,337.238,61.985,312.386,61.985,312.386"
			/>
		<path fill="#FFFFFF" d="M3.532,322.191c0,0,36.508,13.688,28.971,43.547C32.502,365.739-5.809,354.911,3.532,322.191"/>
		<path fill="#FFFFFF" d="M61.985,312.386c19.5,27.885-13.177,50.616-13.177,50.616C31.941,337.238,61.985,312.386,61.985,312.386"
			/>
		<path fill="#FFFFFF" d="M3.532,322.191c0,0,36.508,13.688,28.971,43.547C32.502,365.739-5.809,354.911,3.532,322.191"/>
		<path fill="#FFFFFF" d="M65.698,257.841c13.283,31.33-23.416,46.77-23.416,46.77C31.138,275.905,65.698,257.841,65.698,257.841"/>
		<path fill="#FFFFFF" d="M6.48,255.279c0,0,32.867,20.981,19.29,48.623C25.77,303.901-9.457,285.343,6.48,255.279"/>
		<path fill="#FFFFFF" d="M65.698,257.841c13.283,31.33-23.416,46.77-23.416,46.77C31.138,275.905,65.698,257.841,65.698,257.841"/>
		<path fill="#FFFFFF" d="M6.48,255.279c0,0,32.867,20.981,19.29,48.623C25.77,303.901-9.457,285.343,6.48,255.279"/>
		<path fill="#FFFFFF" d="M80.672,205.259c6.477,33.407-32.627,40.884-32.627,40.884C43.116,215.741,80.672,205.259,80.672,205.259"
			/>
		<path fill="#FFFFFF" d="M23.28,190.44c0,0,27.784,27.353,8.756,51.567C32.036,242.007,1.443,216.534,23.28,190.44"/>
		<path fill="#FFFFFF" d="M80.672,205.259c6.477,33.407-32.627,40.884-32.627,40.884C43.116,215.741,80.672,205.259,80.672,205.259"
			/>
		<path fill="#FFFFFF" d="M23.28,190.44c0,0,27.784,27.353,8.756,51.567C32.036,242.007,1.443,216.534,23.28,190.44"/>
		<path fill="#FFFFFF" d="M106.243,156.941c-0.604,34.02-40.412,33.202-40.412,33.202
			C67.331,159.383,106.243,156.941,106.243,156.941"/>
		<path fill="#FFFFFF" d="M53.191,130.512c0,0,21.491,32.532-2.153,52.261C51.038,182.774,26.405,151.498,53.191,130.512"/>
		<path fill="#FFFFFF" d="M106.243,156.941c-0.604,34.02-40.412,33.202-40.412,33.202
			C67.331,159.383,106.243,156.941,106.243,156.941"/>
		<path fill="#FFFFFF" d="M53.191,130.512c0,0,21.491,32.532-2.153,52.261C51.038,182.774,26.405,151.498,53.191,130.512"/>
		<path fill="#FFFFFF" d="M141.311,114.995c-7.67,33.149-46.436,24.077-46.436,24.077
			C102.745,109.293,141.311,114.995,141.311,114.995"/>
		<path fill="#FFFFFF" d="M94.909,78.115c0,0,14.262,36.291-12.975,50.669C81.936,128.783,64.344,93.065,94.909,78.115"/>
		<path fill="#FFFFFF" d="M141.311,114.995c-7.67,33.149-46.436,24.077-46.436,24.077
			C102.745,109.293,141.311,114.995,141.311,114.995"/>
		<path fill="#FFFFFF" d="M94.909,78.115c0,0,14.262,36.291-12.975,50.669C81.936,128.783,64.344,93.065,94.909,78.115"/>
		<path fill="#FFFFFF" d="M184.331,81.256c-14.398,30.831-50.428,13.896-50.428,13.896
			C147.784,67.661,184.331,81.256,184.331,81.256"/>
		<path fill="#FFFFFF" d="M146.612,35.533c0,0,6.4,38.462-23.227,46.867C123.385,82.4,113.604,43.808,146.612,35.533"/>
		<path fill="#FFFFFF" d="M184.331,81.256c-14.398,30.831-50.428,13.896-50.428,13.896
			C147.784,67.661,184.331,81.256,184.331,81.256"/>
		<path fill="#FFFFFF" d="M146.612,35.533c0,0,6.4,38.462-23.227,46.867C123.385,82.4,113.604,43.808,146.612,35.533"/>
		<path fill="#FFFFFF" d="M233.426,57.197c-20.488,27.166-52.217,3.109-52.217,3.109C200.506,36.303,233.426,57.197,233.426,57.197"
			/>
		<path fill="#FFFFFF" d="M206.036,4.633c0,0-1.732,38.954-32.463,41.015C173.573,45.648,172.032,5.862,206.036,4.633"/>
		<path fill="#FFFFFF" d="M194.424,323.75l3.908,62.991c0,0,0.686,21.146-20.688,19.992c-21.385-1.146-22.529-22.066-22.529-22.066
			l-2.527-39.996c0,0-3.219-21.38,13.789-24.14C183.389,317.774,194.424,323.75,194.424,323.75"/>
		<path fill="#FFFFFF" d="M175.278,321.419c-2.84,0-5.748,0.235-8.641,0.707c-15.223,2.469-12.574,21.49-12.459,22.306l2.547,40.128
			c0.047,0.813,1.363,19.51,20.998,20.563c6.111,0.354,10.742-1.203,13.975-4.535c5.203-5.355,5.021-13.719,5.021-13.803
			l-3.842-61.989C190.743,323.849,184.391,321.419,175.278,321.419 M179.297,408.396c-0.564,0-1.145-0.023-1.74-0.051
			c-22.561-1.217-24.039-23.367-24.051-23.592l-2.535-39.982c-1.172-7.808,0.445-23.447,15.148-25.836
			c3.064-0.492,6.146-0.746,9.16-0.746c12.133,0,19.598,3.973,19.912,4.144c0.484,0.269,0.811,0.76,0.84,1.313l3.908,62.986
			c0.02,0.449,0.254,9.822-5.9,16.178C190.452,406.52,185.497,408.396,179.297,408.396"/>
		<path fill="#FFFFFF" d="M148.217,303.518l19.311-44.137c0,0,5.516-17.929,27.816-14.71l19.35,6.791
			c0,0,24.791,4.476,11.996,27.731l-13.412,26.627c0,0-8.512,19.627-22.076,17.788l-33.33-1.467
			C157.872,322.141,138.563,322.372,148.217,303.518"/>
		<path fill="#FFFFFF" d="M190.168,245.895c-16.615,0-21.059,13.825-21.096,13.959l-19.377,44.311
			c-2.758,5.392-3.297,9.464-1.635,12.186c2.529,4.134,9.482,4.181,9.781,4.181l33.424,1.467c0.684,0.084,1.205,0.121,1.723,0.121
			c11.311,0,18.732-16.767,18.809-16.941l13.451-26.708c3.65-6.64,4.441-12.184,2.365-16.533
			c-3.354-7.031-13.109-8.867-13.211-8.884l-19.592-6.861C193.411,246.022,191.749,245.895,190.168,245.895 M192.989,325.343
			c-0.656,0-1.322-0.043-2.002-0.141l-33.188-1.453h-0.014c-0.945,0-9.088-0.181-12.473-5.719
			c-2.287-3.745-1.795-8.878,1.469-15.249l19.268-44.047c0,0,5.154-16.067,24.119-16.067c1.732,0,3.559,0.144,5.406,0.406
			l19.65,6.867c0.217,0.02,11.248,2.097,15.303,10.603c2.543,5.34,1.725,11.873-2.428,19.427l-13.391,26.576
			C214.424,307.23,206.413,325.34,192.989,325.343"/>
		<path fill="#FFFFFF" d="M447.061,216.625c0,0,8.738-15.862,2.525-35.862c-6.201-20.003-61.604-62.301-144.357-59.306
			c-82.764,2.992-159.311,82.579-125.172,124.732l45.447,10.432c0,0,8.234,2.989,23.629-6.894l42.994-26.124
			c0,0,16.086-9.969,17.697-16.402c0,0-11.494-43.219,51.49-37.473C424.303,175.473,443.151,191.567,447.061,216.625"/>
		<path fill="#FFFFFF" d="M180.967,244.744l44.898,10.308c0.182,0.05,1.182,0.382,3.092,0.382c3.785,0,10.211-1.229,19.314-7.065
			l43.018-26.141c4.207-2.609,15.232-10.281,16.859-15.071c-0.592-2.607-2.957-15.494,5.131-26.01
			c8.27-10.761,24.545-15.176,48.188-13.025c53.859,4.914,79.428,17.524,86.113,43.058c2.037-5.99,4.449-17.136,0.473-29.939
			c-6.145-19.796-59.188-58.325-134.512-58.325c-2.723,0-5.467,0.054-8.25,0.154c-57.52,2.074-110.482,41.514-126.566,76.861
			C173.192,212.098,169.124,229.692,180.967,244.744 M228.958,258.66c-2.496,0-3.857-0.469-4.006-0.522l-45.254-10.376
			c-0.354-0.083-0.67-0.278-0.896-0.559c-10.375-12.817-11.445-30.077-3.012-48.606c16.48-36.224,70.637-76.632,129.381-78.756
			c82.6-2.998,139.17,38.549,145.963,60.441c6.336,20.426-2.287,36.449-2.658,37.122c-0.336,0.603-1.006,0.935-1.689,0.808
			c-0.686-0.121-1.205-0.66-1.313-1.34c-3.113-19.943-15.48-39.26-84.301-45.537c-22.385-2.044-37.758,1.953-45.316,11.755
			c-7.889,10.231-4.512,23.567-4.477,23.695c0.074,0.268,0.074,0.539,0.008,0.807c-1.715,6.868-16.701,16.328-18.41,17.383
			l-43,26.134C240.254,257.344,233.176,258.66,228.958,258.66"/>
		<path fill="#FFFFFF" d="M429.086,206.673c0,0-9.809,8.747-28.918,13.169c-26.451,6.127-66.982,6.576-90.34-12.643
			c0,0-3.443-23.574,9.34-29.698C319.168,177.5,353.909,220.693,429.086,206.673"/>
		<path fill="#FFFFFF" d="M311.346,206.36c16.08,12.908,38.863,15.634,55.219,15.634c14.205,0,25.92-2.026,33.242-3.722
			c10.242-2.371,17.781-6.036,22.477-8.84c-7.611,1.095-15.104,1.655-22.332,1.655h-0.006c-49.58,0-76.072-26.037-81.135-31.561
			C309.473,185.271,310.948,202.855,311.346,206.36 M366.565,225.217c-17.055,0-40.91-2.908-57.764-16.773
			c-0.316-0.252-0.52-0.614-0.57-1.012c-0.148-1.009-3.453-24.824,10.244-31.387c0.68-0.318,1.484-0.134,1.957,0.442
			c0.248,0.312,25.943,31.37,79.514,31.374h0.006c9.27,0,18.975-0.932,28.838-2.778c0.73-0.12,1.422,0.231,1.744,0.878
			c0.316,0.653,0.164,1.434-0.377,1.916c-0.414,0.366-10.332,9.069-29.619,13.541C389.801,223.904,378.051,225.217,366.565,225.217"
			/>
		<path fill="#FFFFFF" d="M405.917,352.255c0,0-19.771-11.035-22.529-13.104c-2.758-2.067-6.664-18.388,12.184-15.424
			C414.418,326.699,405.917,352.255,405.917,352.255 M415.315,310.909c-13.139-33.721-36.586-84.655-116.584-63.624
			c-80,21.035-55.725,96.706-56.385,111.868c-2.064,47.63-23.781,90.263-23.781,90.263s93.207-36.896,195.17,23.334
			C413.735,472.75,431.708,352.979,415.315,310.909"/>
		<path fill="#FFFFFF" d="M352.665,575.607c5.908,0,10.047-2.623,12.412-7.883l-4.285-2.021c-1.639,3.457-4.273,5.188-7.92,5.188
			c-2.617,0-4.611-0.951-5.996-2.854c-1.383-1.902-2.074-4.1-2.074-6.596c0-2.67,0.725-4.83,2.182-6.479
			c1.461-1.645,3.35-2.471,5.682-2.471c1.746,0,3.273,0.506,4.6,1.527c1.314,1.021,2.098,2.48,2.336,4.395h4.637v-9.988h-4.639
			v1.859c-2.023-1.729-4.496-2.598-7.43-2.598c-3.42,0-6.438,1.297-9.057,3.893c-2.623,2.59-3.932,5.879-3.932,9.859
			c0,3.732,1.197,7.023,3.605,9.883C345.188,574.18,348.477,575.607,352.665,575.607"/>
		<path fill="#FFFFFF" d="M404.079,574.846v-4.607h-4.504v-13.348c0-2.291-0.201-4.033-0.613-5.227
			c-0.408-1.188-1.172-2.15-2.309-2.875c-1.129-0.729-2.564-1.092-4.307-1.092c-2.807,0-5.766,1.252-8.867,3.766v-14.576h-9.967
			v4.613h4.773v28.736h-4.773v4.607h14.543v-4.607h-4.576v-14.463c3.088-2.277,5.639-3.412,7.633-3.412
			c0.785,0,1.463,0.217,2.029,0.646c0.578,0.439,0.934,0.996,1.059,1.674c0.127,0.67,0.191,2.006,0.191,4.01v16.154H404.079
			L404.079,574.846z"/>
		<path fill="#FFFFFF" d="M421.09,553.93c1.471-1.357,3.24-2.033,5.316-2.033c2.27,0,4.191,0.746,5.76,2.252
			c1.563,1.5,2.523,3.178,2.891,5.037h-16.674C418.711,557.035,419.612,555.283,421.09,553.93 M416.762,571.828
			c2.861,2.523,6.318,3.779,10.352,3.779c2.604,0,5.096-0.561,7.48-1.678c2.385-1.113,4.314-2.83,5.816-5.145l-4.584-2.02
			c-2.117,2.906-4.984,4.367-8.605,4.367c-2.486,0-4.533-0.758-6.131-2.27c-1.604-1.508-2.568-3.479-2.898-5.92h22.219
			c-0.113-5.057-1.607-8.863-4.496-11.424c-2.885-2.553-6.098-3.832-9.641-3.832c-3.625,0-6.834,1.313-9.619,3.93
			c-2.797,2.623-4.193,5.959-4.193,10.02C412.459,565.912,413.893,569.311,416.762,571.828"/>
		<path fill="#FFFFFF" d="M455.45,573.357c1.781,1.285,4.084,1.922,6.9,1.922c3.004,0,5.443-0.719,7.33-2.168
			c1.885-1.447,2.824-3.396,2.824-5.855c0-1.652-0.438-3.105-1.297-4.352c-0.871-1.25-1.949-2.137-3.26-2.68
			c-1.313-0.535-3.248-1.002-5.814-1.4c-2.678-0.416-4.42-0.813-5.227-1.188c-0.813-0.369-1.215-1.059-1.215-2.061
			c0-0.982,0.439-1.768,1.328-2.359c0.877-0.59,2-0.887,3.365-0.887c2.676,0,4.707,1.086,6.111,3.246v1.611h4.613v-8.764h-4.611
			v1.131c-1.799-1.021-3.941-1.535-6.438-1.535c-2.77,0-4.996,0.74-6.689,2.227c-1.693,1.484-2.539,3.326-2.539,5.527
			c0,2.184,0.779,3.967,2.334,5.34c1.561,1.375,4.152,2.369,7.793,2.979c2.451,0.402,4.1,0.834,4.918,1.313
			c0.83,0.471,1.25,1.209,1.25,2.211c0,1.035-0.504,1.846-1.506,2.428c-0.998,0.586-2.334,0.871-4.01,0.871
			c-1.602,0-2.988-0.4-4.16-1.199c-1.172-0.797-1.842-1.816-2.006-3.055v-0.875h-4.645v9.059h4.645v-1.486H455.45L455.45,573.357z"
			/>
		<path fill="#FFFFFF" d="M421.403,606.498l30.096-0.004l0.178-0.006c0.018,0.002,1.793,0.086,2.951,1.191
			c1.236,1.186,1.916,4.316,1.916,7.656h15.967v-12.93c0-1.59-2.834-5.857-5.135-8.063c-6.547-6.246-14.574-6.352-16.018-6.295
			h-29.955c-15.99,0-22.291,17.037-22.291,25.846l0.002,70.061c-0.07,2.115-0.037,13.045,7.213,20.637
			c4.264,4.463,7.594,6.82,14.379,6.82h30.424l0.395,0.004c2.137,0,9.6-0.449,15.695-6.23c5.154-4.889,5.291-11.879,5.291-20.787
			v-2.543h-15.967v2.543c0,3.492-0.699,6.104-1.963,7.355c-1.104,1.09-2.777,1.213-2.988,1.225l-30.887-0.008
			c-2.463,0-3.209-0.771-3.527-1.1c-1.629-1.678-2.131-2.9-2.131-7.406v-22.357h49.621v-16.01h-49.621l0.002-30.393
			C415.049,609.783,418.184,606.498,421.403,606.498"/>
		<path fill="#FFFFFF" d="M363.774,684.4c0,3.492-0.699,6.104-1.963,7.355c-1.105,1.088-2.777,1.209-2.988,1.225l-30.885-0.008
			c-2.471,0-3.209-0.771-3.529-1.104c-1.625-1.678-2.131-2.9-2.131-7.404l0.006-68.76c0-5.922,3.129-9.209,6.35-9.209l30.1-0.002
			l0.174-0.008c0.018,0.004,1.793,0.088,2.953,1.191c1.236,1.184,1.916,4.314,1.916,7.658h15.969v-12.932
			c0-1.592-2.838-5.859-5.139-8.061c-6.543-6.254-14.572-6.354-16.018-6.297h-29.955c-15.992,0-22.291,17.039-22.291,25.848
			l0.002,70.061c-0.068,2.113-0.035,13.041,7.215,20.637c4.264,4.461,7.594,6.816,14.381,6.816h30.422l0.391,0.004
			c2.143,0,9.605-0.445,15.699-6.229c5.156-4.891,5.293-11.879,5.293-20.787v-2.545h-15.969v2.547h-0.002V684.4z"/>
		<path fill="#FFFFFF" d="M270.961,640.77c-0.697,2.164-4.66,5.541-15.611,5.541h-29.771v-41.484l29.928-0.311l5.035-0.025
			c4.104-0.281,7.314-0.059,9.422,2.697c0.936,1.223,0.998,3.947,0.998,5.396V640.77L270.961,640.77z M279.807,594.621
			c-9.275-7.551-21.938-7.092-24.748-6.934l-40.463,0.422h-4.902v0.051v16.83v103.818l0.012,2.771h15.873v-48.438h21.463
			l21.434,48.438h17.932l-21.99-49.094c18.316-2.805,21.967-13.984,22.527-20.281l0.031-32.633
			C286.973,603.607,284.495,598.434,279.807,594.621"/>
		<path fill="#FFFFFF" d="M174.254,631.947h-29.945l29.945-66.094V631.947z M174.229,526.523c0,0-64.195,150.186-79.125,174.813
			c-14.93,24.625-37.311,16.098-45.33,5.811c-8.02-10.291-3.756-21.348-3.756-21.348l7.511,13.74v-53.348
			c-23.737,21.82-25.832,36.592-25.832,51.457S45.65,734.5,69.518,734.5c23.869,0,34.201-16.016,39.494-24.555
			s27.674-61.164,27.674-61.164h37.59v62.582h16.053v-184.84H174.229z"/>
		<path fill="#FFFFFF" d="M322.643,542.926c0.928,0,1.729-0.336,2.398-0.994c0.67-0.662,1.008-1.461,1.008-2.414
			c0-0.949-0.338-1.75-1.008-2.398c-0.67-0.646-1.473-0.977-2.398-0.977c-0.988,0-1.807,0.336-2.445,1.002
			c-0.646,0.678-0.959,1.465-0.959,2.373c0,0.928,0.324,1.729,0.988,2.396C320.891,542.588,321.692,542.926,322.643,542.926"/>
		<path fill="#FFFFFF" d="M222.711,575.607c5.914,0,10.051-2.623,12.416-7.883l-4.285-2.021c-1.635,3.457-4.273,5.188-7.912,5.188
			c-2.619,0-4.623-0.951-6-2.854c-1.385-1.902-2.074-4.1-2.074-6.596c0-2.67,0.725-4.83,2.182-6.479
			c1.457-1.646,3.346-2.471,5.674-2.471c1.75,0,3.277,0.506,4.6,1.527c1.32,1.021,2.096,2.48,2.334,4.395h4.641v-9.988h-4.641v1.859
			c-2.021-1.729-4.492-2.598-7.42-2.598c-3.424,0-6.441,1.297-9.064,3.893c-2.619,2.59-3.93,5.879-3.93,9.859
			c0,3.732,1.203,7.023,3.602,9.883C215.231,574.18,218.524,575.607,222.711,575.607"/>
		<path fill="#FFFFFF" d="M253.065,553.93c1.473-1.357,3.244-2.033,5.313-2.033c2.275,0,4.195,0.746,5.77,2.252
			c1.561,1.5,2.523,3.178,2.889,5.037H250.36C250.692,557.035,251.59,555.283,253.065,553.93 M248.739,571.828
			c2.865,2.523,6.322,3.779,10.354,3.779c2.605,0,5.096-0.561,7.48-1.678c2.385-1.113,4.322-2.83,5.813-5.145l-4.584-2.02
			c-2.113,2.906-4.975,4.367-8.594,4.367c-2.496,0-4.543-0.758-6.143-2.27c-1.605-1.508-2.566-3.479-2.896-5.92h22.217
			c-0.111-5.057-1.605-8.863-4.488-11.424c-2.883-2.553-6.096-3.832-9.65-3.832c-3.619,0-6.824,1.313-9.619,3.93
			c-2.793,2.623-4.186,5.959-4.186,10.02C244.442,565.912,245.875,569.311,248.739,571.828"/>
		<polygon fill="#FFFFFF" points="308.903,553.041 308.903,548.428 295.995,548.428 295.995,553.041 299.659,553.041 
			293.961,568.025 288.278,553.041 291.713,553.041 291.713,548.428 278.42,548.428 278.42,553.041 283.081,553.041 
			291.721,575.281 296.417,575.281 304.846,553.041 		"/>
		<polygon fill="#FFFFFF" points="330.055,570.232 325.965,570.232 325.965,548.428 316.688,548.428 316.688,553.041 
			320.778,553.041 320.778,570.232 316.688,570.232 316.688,574.846 330.055,574.846 		"/>
	</g>
</g>
</svg>
