<?xml version="1.0" encoding="utf-8"?>
<!-- Generator: Adobe Illustrator 15.0.2, SVG Export Plug-In . SVG Version: 6.00 Build 0)  -->
<!DOCTYPE svg PUBLIC "-//W3C//DTD SVG 1.1//EN" "http://www.w3.org/Graphics/SVG/1.1/DTD/svg11.dtd">
<svg version="1.1" id="Layer_3" xmlns="http://www.w3.org/2000/svg" xmlns:xlink="http://www.w3.org/1999/xlink" x="0px" y="0px"
	 width="1967.075px" height="1066.303px" viewBox="0 0 1967.075 1066.303" enable-background="new 0 0 1967.075 1066.303"
	 xml:space="preserve">
<g>
	<path fill="#FFFFFF" d="M598.557,369.495c-0.813,2.438-1.422,7.192,3.705,11.626c2.9,2.498,6.545,4.553,10.828,6.109
		c4.158,1.513,8.471,2.469,12.816,2.844c4.781,0.415,8.535-0.044,11.49-1.4l0.34-0.176c1.561-0.899,3.166-2.185,4.916-3.934
		c1.58-1.585,3.133-3.323,4.625-5.185c1.502-1.891,2.869-3.824,4.071-5.761c0.648-1.052,1.257-2.034,1.82-2.942
		c7.623-0.137,15.76,0.651,24.334,2.347c9.494,1.854,18.854,4.354,27.818,7.429c8.959,3.077,17.239,6.484,24.612,10.128
		c7.326,3.621,13.048,6.96,17.039,9.952c2.216,1.626,4.111,2.383,5.966,2.383c2.25,0,4.188-1.159,5.313-3.181
		c1.375-2.475,1.646-5.657,0.83-9.739c-0.684-3.403-2.031-7.138-4.016-11.104c-2.134-4.268-4.996-7.686-8.479-10.14
		c-2.771-1.984-6.484-3.786-11.361-5.511c-4.59-1.616-9.646-3.105-15.026-4.427c-5.394-1.323-11.201-2.53-17.271-3.591
		c-6.041-1.052-12.004-1.938-17.719-2.641c-5.625-0.696-10.996-1.273-15.961-1.716c-2.168-0.193-4.199-0.362-6.08-0.506
		c5.096-9.436,11.563-19.718,19.285-30.657c9.268-13.139,19.506-26.657,30.428-40.179c10.894-13.488,22.148-26.719,33.459-39.319
		c11.326-12.625,21.973-24.017,31.644-33.858l0.112-0.118c3.74-4.125,2.885-8.104,0.83-10.459c-1.83-2.082-4.52-3.495-8.244-4.325
		c-3.278-0.711-6.951-0.771-10.899-0.179c-4.127,0.621-7.816,2.104-10.974,4.409l-0.146,0.111
		c-2.769,2.217-6.619,5.406-11.451,9.479c-5.074,4.28-10.084,8.671-14.893,13.048c-4.976,4.529-9.332,8.847-12.949,12.821
		c-4.625,5.063-6.392,8.187-6.181,10.979c0.035,1.223,0.354,2.771,1.375,4.401c-4.952,6.411-10.065,13.265-15.231,20.412
		c-6.029,8.338-12.133,17.136-18.135,26.146c-6.093,9.135-12.234,18.771-18.259,28.637c-5.6,9.166-11.122,18.647-16.438,28.213
		c-10.459,1.195-18.676,3.515-25.061,7.065C604.143,361.056,599.92,365.168,598.557,369.495z"/>
	<path fill="#FFFFFF" d="M774.323,270.116c-6.267,6.353-12.101,12.723-17.34,18.932c-5.265,6.229-9.875,12.181-13.709,17.696
		c-4.031,5.819-6.482,10.399-7.492,14c-1.056,3.419-1.174,7.324-0.357,11.607c0.771,4.04,2.088,7.892,3.914,11.444
		c1.896,3.688,4.334,6.829,7.244,9.334c3.283,2.838,6.875,4.277,10.674,4.277c3.265,0,6.89-1.276,11.074-3.897
		c3.623-2.26,7.475-5.1,11.453-8.439c3.938-3.314,7.92-7.07,11.828-11.161c0.774-0.813,1.545-1.621,2.303-2.425
		c-0.107,0.598-0.188,1.178-0.236,1.744c-0.403,3.116-0.186,6.23,0.648,9.25c0.85,3.103,2.276,5.84,4.248,8.131
		c2.004,2.34,4.436,4.09,7.223,5.199c3.039,1.218,6.428,1.261,9.926,0.115c1.992-0.571,4.914-2.168,11.261-9.146
		c4.373-4.808,9.293-10.479,14.625-16.862c5.313-6.355,10.674-12.763,16.08-19.218c5.274-6.299,9.854-11.399,13.612-15.158
		l0.092-0.095c3.494-3.727,4.986-6.199,5.154-8.532c0.123-1.674-0.385-3.215-1.432-4.34c-0.818-0.881-2.414-1.943-5.021-1.781
		c-2.143,0.127-4.655,1.03-7.684,2.759c-2.746,1.567-5.416,3.64-7.935,6.153c-2.784,2.785-6.395,6.48-11.034,11.298
		c-4.511,4.683-9.123,9.252-13.724,13.59c-4.299,4.065-8.254,7.592-11.762,10.485c0.742-1.438,1.65-3.059,2.719-4.853
		c2.369-3.979,5.504-8.941,9.316-14.748c3.78-5.759,7.977-12.226,12.795-19.718c1.551-2.327,2.856-6.221,0.278-11.541
		c-1.202-2.479-2.756-4.559-4.639-6.205c0.689-2.775,0.885-5.625,0.584-8.509c-0.396-3.726-1.25-7.122-2.539-10.097
		c-1.309-3.013-2.912-5.588-4.772-7.655c-2.107-2.343-4.103-3.764-6.095-4.344l-0.266-0.068c-4.178-0.92-9.172,0.23-15.275,3.544
		c-5.366,2.908-11.186,6.979-17.291,12.098C786.743,258.046,780.534,263.812,774.323,270.116z M758.795,330.037
		c0.242-0.787,0.701-1.941,1.57-3.561c2.326-4.315,5.678-9.315,9.961-14.86c4.313-5.583,9.453-11.498,15.271-17.578
		c5.812-6.068,11.537-11.624,17.021-16.51c5.362-4.776,10.254-8.49,14.535-11.038c1.729-1.03,3.014-1.611,3.94-1.938
		c-0.043,0.136-0.092,0.274-0.143,0.424c-1.037,2.941-2.609,6.465-4.678,10.474c-6.47,7.979-13.212,15.658-20.046,22.827
		c-6.952,7.296-13.51,13.679-19.487,18.972c-5.861,5.195-10.945,9.028-15.121,11.397
		C760.391,329.348,759.467,329.776,758.795,330.037z"/>
	<path fill="#FFFFFF" d="M280.444,785.339c19.189-11.425,37.642-24.39,55.498-37.849c16.994-12.813,33.57-26.982,48.127-42.24
		c12.337-12.934,24.983-27.229,32.938-43.029c6.493-12.897,11.361-26.492,9.224-41.599c-0.711-5.019-3.127-10.541-7.363-16.805
		c-4.104-6.065-9.719-11.687-16.658-16.676c-6.995-5.03-15.347-8.872-24.759-11.413c-4.019-1.085-8.252-1.728-12.659-1.896
		c4.227-2.715,8.967-5.878,14.142-9.416c7.896-5.397,15.739-11.046,23.43-16.696c8.152-5.987,16.256-12.617,23.765-19.346
		c6.979-6.251,13.944-13.334,19.909-20.623c5.931-7.247,10.014-14.521,12.039-21.458c1.796-6.146,1.431-13.743-0.966-23.004
		c-2.754-10.633-9.979-19.153-17.322-26.253c-10.159-9.821-24.512-15.18-38.08-19.335c-19.815-6.068-42.229-5.073-62.564-2.634
		c-18.854,2.262-38.097,6.887-56.265,12.949c-18.067,6.027-36.106,13.646-53.452,22.029c-16.188,7.823-32.223,16.867-47.25,26.638
		c-12.854,8.354-25.788,17.235-37.474,27.152c-8.638,7.328-17.331,14.979-24.89,23.577c-7.057,8.032-9.896,13.706-9.567,17.83
		c0.4,5.072,2.438,10.966,6.575,17.614c3.879,6.229,8.429,12.177,13.485,17.7c5.075,5.543,10.248,10.307,15.36,14.121
		c5.984,4.468,10.661,6.365,14.601,6.045c5.452-0.447,12.056-2.127,19.188-5.259c0.164-0.069,0.333-0.145,0.504-0.222
		c-9.116,10.788-17.771,21.981-25.97,33.464c-7.9,11.063-15.461,22.418-22.44,34.088c-6.689,11.188-10.382,19.313-11.187,24.682
		c-1.227,8.174,2.525,12.865,5.762,15.25c4.125,3.042,9.006,4.792,14.513,5.191c5.354,0.396,10.628-0.499,15.668-2.672
		c5.56-2.395,9.235-6.301,10.667-11.395c3.741-13.313,10.916-25.246,18.181-36.65c9.944-15.62,21.482-30.927,33.179-45.378
		c11.762-14.533,24.327-28.953,37.542-42.366c9.741-9.885,19.651-20.154,30.366-28.621c8.438-6.667,13.739-12.465,15.188-17.896
		c2.002-7.504-1.104-11.83-4.089-14.127c-3.655-2.814-8.824-4.502-15.338-4.97c-4.141-0.297-8.172-0.076-11.959,0.617
		c-1.905,0.353-3.875,0.798-5.908,1.548c-3.48,1.282-8.586,3.955-15.37,7.777c-6.526,3.677-13.861,8.035-21.76,12.936
		c-8.156,5.057-16.347,10.096-24.512,15.122c-8.371,5.151-16.191,9.683-23.256,13.406c-6.881,3.629-12.912,6.274-17.893,7.856
		c-0.77,0.245-1.499,0.455-2.177,0.602c-2.152,0.473-2.904,0.217-2.862,0.345c-2.071-2.941,0.951-8.099,3.868-11.881
		c6.846-8.878,15.957-15.901,24.712-22.43c12.73-9.487,26.985-17.817,40.949-25.684c16.062-9.051,33.023-17.224,49.907-24.479
		c16.851-7.244,34.439-14.043,52.048-19.394c15.236-4.633,30.752-8.66,46.676-10.787c11.045-1.479,22.707-1.903,33.508,0.854
		c7.677,1.961,12.062,6.187,13.098,12.459c0.312,1.884-0.563,6.45-9.021,14.886c-8.794,8.771-18.504,16.709-28.444,24.122
		c-12.793,9.539-25.913,18.785-39.131,27.694c-13.459,9.072-27.103,18.104-40.71,27.025c-11.228,7.36-22.489,14.74-33.739,22.081
		c-9.817,6.407-16.215,10.919-18.822,13.157c-5.46,4.131-8.339,9.831-8.579,16.92c-0.214,6.34,0.877,12.439,3.253,18.115
		c2.427,5.794,5.646,10.3,9.549,13.396c3.785,3.006,7.391,3.091,9.757,2.636c2.342-0.451,4.634-1.748,6.612-3.396
		c2.126-1.774,6.087-4.477,11.465-8.009c5.462-3.59,11.818-7.261,18.86-10.892c6.986-3.604,14.757-7.295,22.724-10.175
		c13.436-4.858,27.892-9.133,42.466-6.548c5.191,0.92,9.212,3.479,11.908,7.476c3.299,4.895,3.62,11.183,1.12,19.008
		c-3.31,10.363-9.602,19.512-15.857,27.949c-8.607,11.619-19.324,22.524-29.846,32.548c-12.37,11.787-25.959,22.885-39.715,33.329
		c-14.67,11.142-30.42,21.156-46.257,30.613c-15.764,9.411-32.517,17.989-49.283,24.981c-15.844,6.609-32.521,12.27-49.065,15.574
		c-14.692,2.939-30.23,4.299-45.608,2.617c-8.049-0.879-15.579-3.406-22.267-7.394c-6.872-4.1-12.88-8.99-17.837-14.521
		c-4.96-5.531-8.804-11.271-11.385-17.068c-2.519-5.656-3.83-10.572-3.883-14.604c-0.076-5.743-2.557-10.816-7.416-15.005
		c-4.387-3.782-9.36-6.504-14.73-8.07c-5.839-1.701-11.188-1.564-15.604,0.322c-3.284,1.405-8.582,5.491-5.805,14.768
		c4.854,16.219,12.176,31.092,21.918,44.888c9.546,13.516,22.761,25.875,37.189,34.922c14.916,9.351,32.02,16.628,49.127,19.556
		c19.967,3.417,38.771,2.113,58.925-1.782c17.689-4.257,34.7-10.858,50.961-18.328C243.116,806.691,262.099,796.262,280.444,785.339
		z"/>
	<path fill="#FFFFFF" d="M1163.598,469.331c1.422,0.22,2.879,0.38,4.371,0.472c4.861,0.298,10.113-0.108,15.59-1.181
		c6.949-1.357,13.945-3.543,20.74-6.455c6.937-2.972,12.979-6.642,17.891-10.924c5.185-4.52,8.502-9.622,9.837-15.145
		c1.424-5.884-0.158-12.173-4.933-18.206c-4.44-5.617-10.512-9.191-17.453-10.518c-6.479-1.237-13.293-1.011-20.123,0.645
		c-6.567,1.594-13.08,4.256-19.307,7.904c-6.229,3.653-11.512,7.919-15.721,12.646c-4.363,4.9-7.248,10.204-8.619,15.677
		c-1.521,6.06-0.482,11.641,2.869,16.232C1151.564,465.272,1156.559,468.244,1163.598,469.331z"/>
	<path fill="#FFFFFF" d="M1470.504,500.715c1.402,0.339,2.844,0.62,4.324,0.836c4.834,0.705,10.113,0.736,15.67,0.13
		c7.063-0.771,14.236-2.352,21.268-4.69c7.201-2.397,13.525-5.537,18.771-9.387c5.549-4.072,9.297-8.861,11.096-14.266
		c1.914-5.739,0.85-12.144-3.41-18.558c-3.961-5.963-9.729-10.042-16.559-11.944c-6.379-1.776-13.201-2.116-20.152-1.045
		c-6.707,1.033-13.432,3.141-19.953,6.258c-6.547,3.132-12.188,6.957-16.752,11.286c-4.748,4.506-8.104,9.542-9.932,14.898
		c-2.023,5.922-1.436,11.563,1.525,16.419C1458.823,495.662,1463.561,499.042,1470.504,500.715z"/>
	<path fill="#FFFFFF" d="M1581.788,514.881c2.242,0.396,4.926,0.018,8.082-0.971c11.908-3.719,24.244-6.863,36.451-9.34
		c12.633-2.563,25.764-4.644,38.578-6.072c10.911-1.219,22.188-2.104,33.319-2.337c9.226-0.192,15.601,0.165,19.521,1.319
		c4.09,1.201,7.287,0.986,9.78-0.497c1.445-0.862,3.277-2.576,3.8-5.921c0.639-4.094-0.193-8.961-2.408-14.354
		c-2.123-5.165-5.199-10.243-9.146-15.037c-4.393-5.331-9.407-8.627-14.866-9.753c-4.648-0.957-12.056-0.415-23.209,1.737
		c-11.025,2.127-22.039,4.897-32.729,7.933c-10.61,3.011-21.367,6.375-31.879,10.122c-10.045,3.58-16.736,6.263-20.424,8.229
		c-4.746,2.528-9.027,5.877-12.685,9.76c-3.717,3.947-6.25,7.509-7.741,10.886c-1.816,4.106-1.854,7.701-0.063,10.64
		C1577.334,513.149,1579.333,514.45,1581.788,514.881z"/>
	<path fill="#FFFFFF" d="M1964.678,712.157c-5.326-16.618-17.146-28.368-28.979-35.622c-11.984-7.352-24.431-10.671-35.301-11.283
		c-10.923-0.771-20.246,1.402-27.289,4.014c-1.381,0.522-2.648,1.074-3.861,1.638c-4.799,1.167-9.885,3.148-15.15,5.915
		c-32.006,16.796-64.278,33.916-97.526,47.698c-12.886,5.345-27.318,12.775-41.613,13.499c0.07-0.469,0.35-1.484,1.412-3.211
		c2.771-4.492,7.479-9.957,13.949-16.222c7.663-7.418,15.844-14.438,24.021-21.121c9.016-7.371,18.441-14.56,27.885-21.509
		c8.486-6.246,17.236-12.324,26.021-18.188c7.943-5.306,14.139-9.428,18.033-11.646c4.879-2.782,8.682-7.649,10.678-14.643
		c1.836-6.434,2.357-13.095,1.508-19.79c-0.867-6.825-3.238-13.161-7.047-18.809c-3.627-5.376-8.75-8.932-15.201-10.51
		c-1.049-0.257-2.146-0.44-3.125-0.585c-5.063-0.751-11.951,0.436-20.844,3.802c-9.166,3.468-18.355,7.634-27.014,12.173
		c-10.396,5.448-20.662,11.209-30.683,17.254c-4.371,2.641-8.66,5.343-12.781,7.982c4-3.289,7.935-6.469,11.785-9.479
		c8.865-6.929,17.826-13.836,26.97-20.433c7.743-5.59,14.12-9.817,18.688-12.704c4.562-2.88,5.801-7.462,3.283-12.203
		c-1.756-3.306-4.603-6.589-8.41-9.697c-3.746-3.059-8.088-5.466-12.795-7.131c-5.431-1.924-10.252-2.147-14.455-0.525
		c-4.342,1.675-11.467,6.72-22.111,15.579c-3.688,3.068-7.33,6.206-10.951,9.366c-1.739-0.05-3.479-0.104-5.204-0.165
		c-17.771-0.647-35.914-3.677-53.736-6.334c-0.768-7.195-3.666-13.796-8.678-19.635c-5.563-6.481-13.688-9.563-23.939-8.954
		c-2.131-4.231-4.539-7.563-7.272-10.104c-3.394-3.152-7.404-5.388-11.906-6.627c-4.262-1.173-8.836-1.61-13.563-1.259
		c-4.188,0.311-8.78,0.707-13.598,1.344c-12.914,1.709-24.893,7.99-35.801,14.429c-14.135,8.346-28.06,18.661-40.59,29.429
		c-8.979,7.715-17.787,16.183-25.938,25.021c-2.789,1.201-5.559,2.722-8.272,4.569c-2.363,1.608-7.396,4.737-15.31,9.574
		c-8.854,5.411-17.918,10.587-26.987,15.586c-10.699,5.896-21.433,11.908-32.13,17.798c-10.159,5.592-20.43,11.128-30.848,16.27
		c-9.342,4.611-17.475,8.225-24.141,10.654c-4.605,1.68-6.925,2.007-7.996,2.031c-0.156-1.112,0.338-3.945,3.789-9.33
		c5.729-8.938,12.694-17.084,19.618-24.939c9.271-10.513,19.595-20.549,29.88-30.104c10.653-9.901,21.737-19.729,32.934-29.159
		c9.262-7.809,18.615-15.595,28.098-23.155c9.875-7.878,13.705-10.709,15.396-11.859c4.516-3.531,5.721-8.359,3.334-13.608
		c-1.881-4.137-5.144-8.069-9.662-11.656c-4.451-3.53-9.547-6.201-15.092-7.908c-6.207-1.912-11.652-1.874-16.896,0.443
		c-1.465,0.777-4.563,2.716-14.291,10.333c-8.483,6.644-16.59,13.831-24.553,21.025c-9.885,8.936-19.521,18.317-28.938,27.825
		c-4.48,4.526-8.927,9.15-13.257,13.857c-13.604,10.017-27.875,19.216-42.248,28.075c-15.159,9.346-30.901,18.248-46.821,25.83
		c-12.785,6.093-26.017,11.841-39.869,15.438c-9.771,2.539-16.334,1.778-19.365-2.365c-3.008-4.109-3.949-10.429-2.947-18.506
		c1.176-9.459,5.445-20.141,10.172-28.245c3.271-5.599,8.619-13.566,16.125-22.793c7.894-9.696,16.336-19.239,25.183-27.843
		c8.838-8.597,18.475-16.479,28.639-23.625c9.076-6.383,17.998-9.912,25.229-10.299c0.399-0.021,0.797-0.01,1.147,0.024
		c1.125,0.106,1.818,0.178,1.76,2.773c-0.086,3.908-2.485,8.363-6.969,12.594c-1.858,1.758-4.313,3.696-7.063,5.772
		c-3.654,2.759-5.479,4.141-9.119,6.909c-3.234,2.439-6.392,5.014-9.383,7.634c-3.132,2.736-5.562,5.3-7.423,7.793
		c-2.235,2.999-3.334,6.973-3.293,11.759c0.037,4.389,0.812,8.732,2.31,12.886c1.469,4.078,3.336,7.714,5.529,10.772
		c2.561,3.567,5.709,5.552,9.385,5.891c0.531,0.049,1.065,0.068,1.563,0.051c2.986-0.104,7.076-1.596,16.875-11.135
		c7.438-7.237,14.636-15.299,20.933-23.474c7.073-9.188,13.44-18.693,19.66-28.491c4.688-7.396,9.375-17.496,10.35-26.429
		c0.65-5.958-0.475-11.428-3.375-16.247c-2.791-4.643-6.533-8.46-11.105-11.316c-4.362-2.728-9.135-4.787-14.145-6.063
		c-5.072-1.292-9.846-1.666-13.703-1.322c-10.002,0.891-19.938,4.365-28.795,8.238c-11.035,4.82-21.818,11.157-32.188,17.851
		c-11.061,7.143-21.911,15.495-31.782,24.244c-9.908,8.783-19.568,18.08-28.187,27.904c-3.02,3.442-5.916,7.001-8.725,10.646
		c-0.045,0.035-0.088,0.066-0.131,0.104c-2.273,1.848-7.146,5.473-14.433,10.819c-8.346,6.131-16.926,12.045-25.522,17.785
		c-10.15,6.776-20.324,13.655-30.478,20.417c-9.637,6.421-19.387,12.797-29.317,18.788c-8.923,5.38-16.703,9.664-23.142,12.646
		c-4.438,2.059-6.717,2.563-7.779,2.676c-0.258-1.096,0.005-3.957,2.992-9.612c4.957-9.377,11.213-18.082,17.447-26.487
		c8.348-11.25,17.777-22.106,27.215-32.492c9.773-10.758,19.975-21.475,30.318-31.808c8.563-8.553,17.221-17.096,26.022-25.421
		c9.22-8.718,12.851-11.831,14.313-13.104c4.192-3.649,4.994-8.824,2.188-13.845c-2.223-3.963-5.779-7.604-10.582-10.808
		c-4.727-3.151-10.01-5.384-15.658-6.619c-6.309-1.379-11.75-0.878-16.745,1.838c-1.507,0.986-4.4,3.168-13.367,11.505
		c-7.887,7.334-15.363,15.17-22.681,23.003c-9.082,9.726-17.883,19.891-26.463,30.145c-4.084,4.883-8.116,9.859-12.03,14.912
		c-6.24,5.453-9.373,8.208-15.589,13.708c-6.725,5.943-13.817,12.099-21.063,18.296c-7.504,6.42-15.029,12.839-22.557,19.235
		c-7.423,6.313-14.324,11.925-20.494,16.658c-5.101,3.915-9.449,7.023-12.974,9.28c1.531-3.439,4.488-9.105,10.228-18.266
		c11.625-18.56,24.701-36.312,37.908-53.7c18.809-24.771,38.973-48.842,59.479-72.171c24.387-27.739,50.654-54.542,76.547-80.572
		c3.646-3.664,5.426-8.553,5.238-14.271c-0.172-5.227-1.494-10.143-3.939-14.561c-2.586-4.672-6.09-8.129-10.401-10.265
		c-5.438-2.695-11.373-1.366-16.008,3.162c-16.688,16.298-33.66,33.349-49.796,50.597c-18.102,19.35-36.143,38.908-54.114,58.453
		c-2.131-5.535-5.146-10.524-9.021-14.885c-5.983-6.732-11.463-10.631-16.541-11.468c-11.981-1.972-24.899,1.563-35.918,6.997
		c-13.389,6.605-25.889,15.024-37.236,24.191c-12.75,10.298-25.018,22.233-36.131,34.438c-10.317,11.33-20.381,23.563-29.575,35.94
		c-25.519,24.908-51.271,50.154-78.853,72.523c-10.777,8.737-22.459,19.935-35.904,24.646c-0.063-0.47-0.071-1.521,0.466-3.495
		c1.375-5.048,4.338-11.628,8.766-19.479c5.219-9.259,11.049-18.305,16.969-27.012c6.529-9.604,13.517-19.147,20.574-28.479
		c6.342-8.38,12.973-16.676,19.703-24.768c6.078-7.307,10.82-13.016,13.918-16.257c3.854-4.029,6.113-9.77,6.072-17.043
		c-0.039-6.661-1.414-13.216-4.097-19.416c-2.729-6.307-6.76-11.726-11.979-16.074c-4.963-4.137-10.836-6.104-17.408-5.807
		c-1.072,0.05-2.178,0.186-3.146,0.318c-5.044,0.704-11.281,3.793-18.793,9.506c-7.769,5.908-15.324,12.555-22.355,19.273
		c-8.422,8.048-16.576,16.589-24.416,25.172c-3.422,3.744-6.746,7.549-9.979,11.258c2.903-4.28,5.772-8.446,8.594-12.408
		c6.512-9.141,13.143-18.29,20.016-27.187c5.879-7.607,10.762-13.466,14.246-17.442c3.551-4.053,3.459-8.786-0.281-12.634
		c-2.604-2.682-6.229-5.037-10.729-6.945c-4.435-1.88-9.234-2.965-14.193-3.249c-5.74-0.328-10.397,0.818-13.949,3.557
		c-3.688,2.846-9.073,9.695-16.721,21.153c-8.473,12.697-16.445,25.774-24.24,38.881c-8.512,14.315-16.682,28.976-24.545,43.634
		c-6.627,7.101-13.817,13.771-20.977,20.158c-9.637,8.604-19.781,17.023-29.892,25.228c-10.706,8.687-21.817,17.174-33.043,25.091
		c-10.265,7.242-20.769,14.075-31.604,20.541c-7.964,4.753-17.018,9.146-25.868,12.02c-2.16,0.701-4.146,1.188-5.896,1.416
		c-0.003,0.002-0.004,0.002-0.005,0.002c-3.242,0.424-5.586-0.058-7.305-1.365c-3.539-2.694-4.332-8.642-1.884-17.742
		c3.014-11.205,8.227-21.514,13.451-31.82c6.411,3.767,14.147,6.001,22.651,7.011c12.218,1.451,23.104-3.744,32.939-9.667
		c7.682-4.623,15.259-11.258,21.914-17.556c8.604-8.146,17.094-16.572,24.684-25.365c7.654-8.867,14.256-18.343,20.662-28.462
		c4.922-7.771,9.084-18.675,9.553-27.966c0.443-8.736-1.157-16.081-4.928-21.672c-3.604-5.345-7.973-9.616-12.977-12.646
		c-4.888-2.956-9.937-4.979-14.937-6.041c-5.057-1.071-8.926-1.47-11.758-1.179c-9.983,1.026-19.078,6.783-27.082,11.922
		c-11.296,7.255-22.105,16.666-31.871,26.229c-11.321,11.086-22.29,22.909-32.313,35.055c-9.993,12.108-19.475,25.084-28.151,38.286
		c-7.434,11.307-14.534,23.655-19.283,36.022c-3.396,8.841-6.887,18.99-5.623,28.878c1.132,8.853,4.531,19.604,9.554,27.151
		c4.771,7.173,10.25,13.063,16.337,17.25c6.104,4.202,12.713,7.104,19.611,8.63c6.837,1.516,13.104,1.938,18.654,1.228
		c13.968-2.022,26.08-8.874,37.432-16.28c14.831-9.677,28.975-21.758,42.242-33.795c7.324-6.646,14.574-13.508,21.736-20.488
		c-3.15,7.366-6.188,14.793-9.004,22.285c-6.141,16.328-5.504,19.986-4.545,22.118c1.789,3.979,4.289,7.204,7.498,9.297
		c3.146,2.054,6.612,3.264,10.285,3.56c3.469,0.279,6.848-0.058,10.01-0.977c3.483-1.013,6.373-2.811,8.565-5.332
		c0.42-0.481,1.693-1.969,8.748-12.286c5.688-8.315,11.563-16.538,17.445-24.706c7.602-10.557,15.494-20.961,23.504-31.231
		c8.484-10.888,17.24-21.732,26.326-31.959c8.256-9.294,16.953-18.871,26.045-26.624c0.111-0.1,0.234-0.204,0.354-0.31
		c-6.154,8.861-12.166,18.055-17.511,27.323c-8.09,14.037-15.617,28.529-21.08,43.947c-3.896,10.991-6.264,23.228-5.707,34.634
		c0.412,8.474,7.621,18.514,15.752,21.226c4.572,1.524,9.63,2.438,14.759,2.098c3.637-0.241,7.43-1.036,11.254-2.291
		c9.401-3.088,19.326-8.593,27.184-14.559c9.994-7.589,19.453-15.514,28.582-24.002c6.717-6.245,13.342-12.759,19.877-19.357
		c0.31,2.885,0.957,5.857,1.979,8.922c2.418,7.223,6.121,13.948,10.95,19.973c4.796,5.979,10.396,11.125,16.646,15.305
		c6.662,4.455,13.42,6.631,20.115,6.45c6.299-0.169,12.987-2.764,19.932-7.718c6.406-4.573,13.033-10.266,19.711-16.779
		c7.021-6.846,13.781-14.39,19.93-22.001c1.652-2.046,3.326-4.096,4.97-6.133c-0.974,2.883-1.699,5.589-2.072,8.069
		c-0.848,5.622-0.197,11.463,1.664,17.004c1.848,5.497,4.639,10.313,8.291,14.328c3.721,4.09,8.229,7.144,13.352,9.094
		c5.438,2.069,11.729,1.939,17.742,0.143c2.992-0.895,8.195-3.563,21.269-16.755c8.897-8.979,17.518-18.228,26.053-27.547
		c0.221,6.175,1.621,12.004,4.139,17.323c2.81,5.932,6.438,11.252,10.803,15.771c4.408,4.563,9.371,8.268,14.746,11.003
		c5.562,2.83,11.259,4.354,16.949,4.525c5.625,0.17,12.877-2.554,22.238-8.27c9.834-6.004,19.191-12.868,28.301-19.782
		c10.814-8.211,21.412-17.046,31.771-25.977c4.528-3.902,9.061-7.816,13.584-11.734c-0.347,7.248,0.057,14.499,1.819,21.639
		c2.265,9.147,6.949,19.974,12.459,27.681c5.021,7.021,12.961,14.495,20.59,18.772c6.023,3.377,12.371,5.484,18.804,5.956
		c2.342,0.172,4.762,0.161,7.104-0.095c12.228-1.336,23.457-7.594,33.832-13.563c14.596-8.396,29.158-18.165,43.256-27.858
		c5.025-3.456,10.021-6.981,15.011-10.533c-1.173,3.461-1.896,6.688-2.191,9.646c-0.711,7.098,0.166,13.905,2.514,20.169
		c2.291,6.107,5.463,11.719,9.463,16.618c4.023,4.931,8.674,9.025,13.81,12.195c5.311,3.281,10.873,5.281,16.541,5.929
		c5.598,0.639,13.065-1.472,22.889-6.383c10.32-5.16,20.236-11.22,29.908-17.349c11.481-7.279,22.799-15.215,33.891-23.232
		c5.625-4.067,11.25-8.146,16.865-12.237c-1.604,6.2-2.461,12.705-2.432,19.366c0.036,9.289,1.547,18.092,4.42,26.147
		c2.967,8.31,7.729,15.563,14.108,21.575c6.57,6.188,14.855,10.106,24.681,11.646c7.823,1.229,17.018,0.079,27.285-3.188
		c11.008-3.5,21.459-8.77,31.362-14.319c11.42-6.402,22.447-14.354,32.845-22.657c10.948-8.741,21.491-18.016,31.524-27.791
		c9.754-9.504,19.197-19.718,27.181-30.49c6.504-8.772,12.793-18.026,17.409-28.188c7.257,1.263,14.955,2.095,22.923,2.509
		c4.329,0.226,8.629,0.359,12.877,0.417c-10.869,10.288-21.552,20.853-31.972,31.479c-12.623,12.877-25.116,26.193-36.885,39.881
		c-9.182,10.675-18.258,21.573-26.77,32.864c-10.525,13.969-10.938,17.624-10.613,19.941c0.602,4.319,2.109,8.113,4.611,11.036
		c2.436,2.842,5.434,4.988,8.896,6.313c3.254,1.241,6.613,1.873,9.902,1.881c3.643,0.011,6.934-0.907,9.737-2.688
		c0.979-0.619,3.213-2.259,11.904-9.343c7.83-6.38,15.807-12.601,23.777-18.778c10.305-7.991,20.832-15.751,31.455-23.342
		c11.262-8.047,22.766-15.979,34.416-23.229c10.59-6.59,21.635-13.234,32.619-18.189c0.146-0.066,0.293-0.127,0.448-0.197
		c-8.442,6.761-16.84,13.889-24.612,21.275c-11.757,11.172-23.099,22.973-32.716,36.216c-6.854,9.435-12.594,20.503-15.271,31.619
		c-1.99,8.271,2.17,19.938,9.229,24.813c3.976,2.747,8.604,5.059,13.646,6.178c3.569,0.794,7.457,1.104,11.51,0.98
		c9.945-0.302,21.074-2.776,30.353-6.281c11.791-4.454,23.188-9.381,34.396-14.938c12.441-6.169,24.873-13.003,37.104-19.867
		c12.676-7.113,25.285-14.37,37.805-21.754c11.768-6.941,23.965-13.445,36.039-19.536c6.846-3.452,10.285-6.751,10.943-10.385
		c0.323-1.787,0.057-3.477-0.713-4.955c2.487,0.089,5.079,0.35,7.766,0.845c9.18,1.469,19.344,5.649,28.521,12.629
		c9.162,6.813,17.134,17.32,19.302,28.854c0.532,2.877,0.709,5.771,0.51,8.653c-0.09,1.396-0.348,2.998-0.572,4.225
		c-0.402,1.2-0.354,1.758-1.191,4.288c-2.098,6.229-5.805,12.927-10.235,19.213c-8.938,12.702-22.293,24.564-38.039,34.864
		c-15.988,10.51-34.463,19.438-54.109,27.395c-19.696,7.882-41.069,14.071-63.188,17.947c-5.535,0.862-11.104,1.772-16.699,2.321
		l-4.207,0.468l-3.916,0.272c-2.688,0.161-4.906,0.401-8.383,0.5c-11.685,0.563-23.437-0.018-35.478-0.38
		c-24.08-1.266-49.098-4.907-74.838-10.09c-25.789-5.328-52.271-12.162-79.729-19.714c-27.855-7.317-56.179-14.758-84.845-22.292
		c-28.61-7.479-57.575-15.038-86.771-22.671c-14.799-3.771-29.654-7.552-44.553-11.34c-15.105-3.498-30.063-7.271-45.418-10.56
		c-15.31-3.354-30.479-6.802-46.484-9.81l-23.725-4.644l-22.752-3.676c-31.759-5.188-63.619-8.688-95.306-11.468
		c-15.852-1.104-31.651-1.821-47.407-2.66c-15.732-0.362-31.435-0.982-47.021-1.087c-62.396-0.193-123.412,3.304-181.938,9.563
		c-7.312,0.774-14.597,1.532-21.847,2.29c-7.235,0.83-14.426,1.861-21.573,2.779c-7.154,0.968-14.271,1.919-21.347,2.859
		c-7.061,1.059-14.078,2.104-21.065,3.138c-13.963,2.056-27.756,4.148-41.306,6.712c-13.578,2.37-26.93,4.989-40.094,7.576
		c-52.627,10.43-102.072,21.172-147.066,33.688c-22.543,6.037-44.053,12.073-64.438,18.014c-10.229,2.839-20.084,6.036-29.659,9.133
		c-9.565,3.109-18.854,6.134-27.857,9.065c-17.976,5.934-34.729,11.64-50.173,17.055c-15.385,5.656-29.444,11.009-42.114,15.898
		c-25.39,9.623-44.985,18.215-58.345,24.002c-6.686,2.868-11.746,5.263-15.168,6.857c-3.413,1.611-5.17,2.439-5.17,2.439
		l-0.347,0.161c-1.252,0.58-1.905,2.022-1.486,3.386c0.459,1.489,2.038,2.313,3.53,1.854c0,0,29.287-9.1,81.272-22.671
		c25.991-6.777,57.648-14.668,94.116-23.02c36.481-8.274,77.721-17.271,122.917-26.021c90.369-17.439,196.648-34.18,311.32-43.005
		c57.32-4.375,116.724-6.729,177.015-5.777c15.079,0.208,30.194,0.919,45.36,1.361c15.142,0.927,30.344,1.717,45.537,2.886
		c30.369,2.489,60.83,5.567,91.031,10.323c60.637,9.203,120.396,22.56,179.303,36.412c29.463,6.904,58.688,13.766,87.566,20.535
		c28.901,6.606,57.463,13.145,85.553,19.565c28.119,6.423,55.973,12.298,83.535,16.685c27.569,4.236,54.875,6.964,81.584,7.102
		c13.348-0.13,26.557-0.518,39.459-1.942c12.948-1.427,25.668-3.748,37.887-6.646c24.469-5.974,47.43-14.297,68.479-24.35
		c21.101-9.978,40.218-21.854,57.062-34.961c16.756-13.228,31.107-28.197,40.771-45.043c4.845-8.392,8.462-17.156,10.412-26.187
		C1967.934,729.774,1967.209,720.394,1964.678,712.157z M1466.938,668.463c3.636-8.438,9.439-17.066,15.455-23.943
		c8.107-9.272,16.5-18.162,25.447-26.306c9.678-8.806,20.254-17.252,30.957-24.812c10.275-7.26,21.271-14.036,32.346-20.271
		c6.404-3.604,12.623-6.536,18.318-8.887c-0.229,2.85,0.219,5.869,1.324,9.03c2.256,6.441,8.145,11.884,17.91,16.57
		c-5.808,7.775-12.654,15.238-19.547,21.984c-9.709,9.506-19.896,18.727-30.439,27.406c-10.617,8.741-21.613,17.232-32.906,24.88
		c-9.598,6.499-19.49,12.919-29.963,18.136c-8.68,4.322-16.197,6.86-22.316,7.514c-1.268,0.137-2.418,0.133-3.395-0.019
		c-1.777-0.271-3.758-1.005-5.041-4.35C1463.381,680.955,1464.018,675.245,1466.938,668.463z M970.805,499.392
		c2.949,0.912,4.525,2.438,5.084,4.882c0.699,3.056,0.291,7.016-1.186,11.753c-15.853,17.438-31.644,35.006-47.4,52.449
		c-13.494,14.938-27.256,29.979-41.621,43.919c-10.006,9.709-20.364,19.453-31.918,27.428c-6.532,4.507-10.067,5.254-11.573,5.297
		c-1.093,0.03-1.574-0.278-1.923-0.584c-1.344-1.19-1.553-5.325,1.933-13.335c4.727-10.867,11.363-20.852,18.016-30.396
		c8.783-12.603,19.033-24.8,29.273-36.265c10.559-11.821,21.992-23.292,33.774-34.021c9.566-8.71,19.882-16.979,30.771-24.094
		c9.467-6.184,14.227-7.054,16.18-7.039C970.577,499.389,970.889,499.415,970.805,499.392z M505.716,603.345
		c5.831-8.927,12.256-17.756,19.036-25.913c7.688-9.251,15.647-18.271,24.063-26.771c7.404-7.479,14.603-13.27,20.886-17.207
		c4.985-3.127,7.674-3.78,9.076-3.833c-0.007,0.665-0.148,1.934-0.867,4.085c-1.478,4.42-4.351,9.897-8.527,16.224
		c-4.264,6.451-9.502,13.203-15.522,20.075c-5.997,6.845-12.389,13.063-18.979,18.46c-6.489,5.315-13.057,9.482-19.522,12.355
		C511.942,602.336,508.681,603.188,505.716,603.345z"/>
	<path fill="#FFFFFF" d="M492.332,867.499c-9.819,0-17.783,7.963-17.783,17.78c0,9.822,7.964,17.786,17.783,17.786
		s17.783-7.964,17.783-17.786C510.114,875.462,502.149,867.499,492.332,867.499z"/>
	<path fill="#FFFFFF" d="M1423.086,867.499c-9.818,0-17.783,7.963-17.783,17.78c0,9.822,7.965,17.786,17.783,17.786
		c9.82,0,17.783-7.964,17.783-17.786C1440.87,875.462,1432.907,867.499,1423.086,867.499z"/>
	<path fill="#FFFFFF" d="M425.469,351.574H549.07c1.114,0,2.028-0.89,2.062-2.006c0.146-5.15,0.413-9.736,0.826-14.021
		c0.056-0.579-0.136-1.152-0.526-1.585c-0.391-0.43-0.943-0.676-1.524-0.676H425.469c-5.04,0-9.139,4.102-9.139,9.143
		S420.43,351.574,425.469,351.574z"/>
	<path fill="#FFFFFF" d="M470.711,247.063l92.172,33.927c0.234,0.086,0.478,0.127,0.711,0.127c0.82,0,1.594-0.493,1.916-1.297
		c1.738-4.343,3.4-8.174,5.08-11.71c0.248-0.523,0.267-1.128,0.047-1.665c-0.219-0.537-0.653-0.957-1.198-1.157l-92.85-34.177
		c-0.944-0.352-1.933-0.527-2.937-0.527c-3.549,0-6.758,2.236-7.985,5.567C464.05,240.554,466.313,245.449,470.711,247.063z"/>
	<path fill="#FFFFFF" d="M609.112,210.06c0.399,0.4,0.93,0.604,1.459,0.604c0.52,0,1.043-0.196,1.44-0.59
		c3.217-3.154,6.701-6.337,10.357-9.461c0.438-0.374,0.699-0.913,0.723-1.487c0.021-0.575-0.195-1.133-0.604-1.54l-94.207-94.207
		c-1.726-1.728-4.021-2.679-6.465-2.679c-2.446,0-4.743,0.951-6.467,2.677c-3.563,3.564-3.563,9.363,0,12.928L609.112,210.06z"/>
	<path fill="#FFFFFF" d="M957.383,333.964c-0.391,0.434-0.582,1.006-0.526,1.585c0.411,4.274,0.684,8.859,0.825,14.021
		c0.031,1.116,0.945,2.006,2.063,2.006h123.6c5.039,0,9.142-4.104,9.142-9.145c0-5.041-4.103-9.144-9.142-9.144H958.913
		C958.329,333.288,957.774,333.534,957.383,333.964z"/>
	<path fill="#FFFFFF" d="M747.334,152.052c0.021,0,0.045,0,0.068-0.001l1.166-0.041c3.83-0.135,7.854-0.135,11.682,0l1.168,0.041
		c0.566,0.018,1.102-0.188,1.504-0.579c0.402-0.389,0.629-0.924,0.629-1.481V13.495c0-5.042-4.1-9.143-9.139-9.143
		s-9.141,4.102-9.141,9.143V149.99c0,0.559,0.229,1.095,0.629,1.481C746.286,151.845,746.799,152.052,747.334,152.052z"/>
	<path fill="#FFFFFF" d="M676.875,164.974c0.199,0.516,0.594,0.929,1.098,1.147c0.267,0.115,0.545,0.173,0.828,0.173
		c0.258,0,0.517-0.048,0.76-0.145c4.064-1.61,8.101-3.066,11.986-4.33c0.539-0.175,0.982-0.563,1.226-1.075
		c0.243-0.511,0.268-1.101,0.063-1.629l-38.125-98.883c-1.25-3.257-4.44-5.446-7.943-5.446c-1.043,0-2.065,0.192-3.043,0.569
		c-2.118,0.818-3.795,2.412-4.715,4.486c-0.92,2.076-0.977,4.387-0.158,6.506L676.875,164.974z"/>
	<path fill="#FFFFFF" d="M896.801,210.077c0.402,0.394,0.924,0.59,1.445,0.59c0.527,0,1.057-0.202,1.459-0.604l93.76-93.76
		c3.563-3.563,3.563-9.363,0.002-12.925c-1.723-1.728-4.02-2.68-6.465-2.68c-2.447,0-4.744,0.952-6.465,2.677l-94.211,94.212
		c-0.406,0.407-0.625,0.965-0.604,1.54c0.021,0.575,0.283,1.114,0.722,1.488C890.108,203.746,893.592,206.93,896.801,210.077z"/>
	<path fill="#FFFFFF" d="M814.477,160.898c3.757,1.16,7.697,2.524,12.054,4.177c0.233,0.09,0.481,0.134,0.729,0.134
		c0.291,0,0.584-0.062,0.855-0.186c0.502-0.229,0.891-0.647,1.08-1.165l36.53-99.25c1.615-4.402-0.646-9.297-5.045-10.912
		c-0.942-0.348-1.932-0.524-2.934-0.524c-3.547,0-6.754,2.235-7.982,5.564l-36.614,99.479c-0.195,0.531-0.164,1.12,0.088,1.627
		C813.489,160.349,813.936,160.731,814.477,160.898z"/>
	<path fill="#FFFFFF" d="M936.811,263.712c-0.209,0.54-0.184,1.146,0.072,1.663c1.982,4.018,3.719,7.815,5.305,11.616
		c0.33,0.79,1.099,1.269,1.904,1.269c0.248,0,0.498-0.044,0.742-0.139l91.775-35.385c2.116-0.818,3.793-2.412,4.713-4.487
		c0.922-2.076,0.979-4.386,0.16-6.502c-1.25-3.256-4.441-5.444-7.941-5.444c-1.043,0-2.066,0.191-3.043,0.567l-92.506,35.667
		C937.452,262.746,937.021,263.172,936.811,263.712z"/>
	<polygon fill="#FFFFFF" points="572.239,921.758 575.374,917.026 559.446,906.486 531.574,948.595 547.501,959.136 
		550.633,954.405 540.119,947.445 549.765,932.87 555.854,936.899 558.983,932.165 552.896,928.136 561.725,914.798 	"/>
	<path fill="#FFFFFF" d="M602.946,932.051c-3.201-1.729-6.095-2.222-8.683-1.471c-2.586,0.751-4.614,2.488-6.09,5.21
		c-1.227,2.271-1.873,4.365-1.934,6.286c-0.064,1.922,0.125,4.029,0.563,6.318c0.287,1.428,0.605,2.884,0.949,4.361
		c0.344,1.481,0.662,2.963,0.951,4.438c0.291,1.478,0.516,2.941,0.678,4.398s0.188,2.911,0.07,4.363
		c-0.064,0.944-0.234,1.829-0.517,2.655c-0.278,0.828-0.686,1.73-1.217,2.715c-0.656,1.21-1.57,2.022-2.746,2.438
		s-2.518,0.213-4.03-0.605c-1.125-0.608-1.937-1.511-2.435-2.71c-0.498-1.198-0.469-2.308,0.084-3.329l0.705-1.304l-5.123-4.166
		l-1.289,2.381c-0.654,1.211-1.037,2.458-1.145,3.744c-0.109,1.286,0.057,2.55,0.504,3.793c0.442,1.243,1.139,2.414,2.082,3.51
		c0.942,1.1,2.172,2.058,3.684,2.875c1.859,1.006,3.604,1.582,5.229,1.729c1.627,0.146,3.123-0.033,4.483-0.542
		c1.365-0.51,2.574-1.296,3.627-2.363c1.054-1.068,1.949-2.282,2.688-3.645c0.756-1.397,1.256-2.863,1.498-4.396
		c0.24-1.531,0.328-3.086,0.26-4.663s-0.25-3.178-0.543-4.805c-0.295-1.626-0.609-3.213-0.943-4.766
		c-0.262-1.168-0.559-2.431-0.889-3.779c-0.33-1.354-0.586-2.688-0.766-4.01c-0.183-1.316-0.236-2.584-0.168-3.793
		c0.065-1.212,0.348-2.271,0.838-3.179c0.326-0.604,0.703-1.171,1.131-1.696c0.424-0.527,0.926-0.939,1.508-1.236
		c0.58-0.297,1.221-0.45,1.926-0.461c0.705-0.012,1.488,0.219,2.354,0.688c1.125,0.607,1.901,1.494,2.336,2.657
		c0.432,1.163,0.383,2.236-0.15,3.219l-0.735,1.362l5.125,4.166l1.317-2.438c1.558-2.873,1.791-5.531,0.711-7.977
		C607.764,935.589,605.797,933.595,602.946,932.051z"/>
	<polygon fill="#FFFFFF" points="648.428,954.921 630.374,946.888 628.065,952.075 634.061,954.743 615.842,995.695 
		621.771,998.333 639.991,957.379 646.122,960.107 	"/>
	<path fill="#FFFFFF" d="M645.426,1008.239l6.5,2.408l3.002-5.563l7.677,2.844l-1.273,6.199l6.152,2.279l9.383-50.378l-5.604-2.074
		L645.426,1008.239z M663.75,1002.714l-6.293-2.331l10.865-19.563L663.75,1002.714z"/>
	<polygon fill="#FFFFFF" points="710.456,1016.162 712.331,977.849 704.747,975.67 690.807,1024.207 696.62,1025.876 
		704.469,998.539 703.848,1027.953 709.163,1029.479 724.313,1004.24 716.461,1031.577 722.204,1033.226 736.143,984.688 
		729.907,982.896 	"/>
	<path fill="#FFFFFF" d="M775.551,995.532c-0.809-1.033-1.826-1.912-3.053-2.638c-1.229-0.729-2.609-1.256-4.146-1.588
		c-1.487-0.317-2.94-0.399-4.356-0.244c-1.418,0.153-2.721,0.535-3.904,1.139c-1.186,0.603-2.192,1.431-3.022,2.479
		c-0.83,1.057-1.408,2.339-1.732,3.852l-6.873,31.9c-0.307,1.433-0.299,2.796,0.025,4.099c0.32,1.301,0.896,2.479,1.727,3.539
		c0.826,1.058,1.854,1.959,3.074,2.707c1.22,0.746,2.578,1.278,4.066,1.601c1.536,0.331,3.018,0.408,4.438,0.229
		c1.42-0.18,2.713-0.578,3.881-1.209c1.166-0.63,2.164-1.471,2.994-2.521s1.4-2.293,1.707-3.723l6.871-31.902
		c0.326-1.512,0.328-2.92,0.004-4.221C776.926,997.731,776.36,996.563,775.551,995.532z M770.901,1001.885l-6.869,31.902
		c-0.281,1.304-0.953,2.203-2.019,2.701c-1.063,0.497-2.217,0.607-3.467,0.341c-1.297-0.279-2.315-0.862-3.057-1.747
		c-0.74-0.884-0.972-1.979-0.688-3.282l6.871-31.898c0.271-1.264,0.928-2.153,1.971-2.68c1.044-0.521,2.216-0.646,3.513-0.361
		c1.25,0.268,2.254,0.855,3.014,1.77C770.928,999.538,771.172,1000.624,770.901,1001.885z"/>
	<path fill="#FFFFFF" d="M811.561,999.369c-3.594-0.568-6.481-0.068-8.674,1.499c-2.188,1.569-3.522,3.882-4.01,6.938
		c-0.404,2.549-0.316,4.738,0.266,6.571c0.58,1.833,1.459,3.757,2.631,5.771c0.748,1.251,1.531,2.518,2.351,3.801
		c0.813,1.283,1.606,2.572,2.375,3.869c0.764,1.296,1.465,2.604,2.102,3.924c0.64,1.319,1.146,2.687,1.521,4.095
		c0.252,0.91,0.385,1.803,0.395,2.676c0.013,0.873-0.067,1.858-0.244,2.965c-0.215,1.358-0.809,2.431-1.776,3.213
		c-0.974,0.781-2.308,1.037-4.004,0.77c-1.265-0.198-2.328-0.78-3.195-1.746c-0.867-0.965-1.211-2.021-1.029-3.166l0.232-1.467
		l-6.217-2.225l-0.427,2.675c-0.215,1.36-0.157,2.663,0.164,3.911c0.326,1.25,0.904,2.386,1.738,3.41
		c0.832,1.021,1.877,1.896,3.131,2.619c1.254,0.72,2.732,1.215,4.435,1.481c2.086,0.33,3.922,0.294,5.504-0.104
		c1.582-0.403,2.932-1.071,4.051-2.004c1.117-0.936,1.996-2.077,2.633-3.438c0.64-1.354,1.078-2.8,1.32-4.329
		c0.25-1.566,0.231-3.119-0.047-4.644c-0.281-1.525-0.72-3.021-1.31-4.484c-0.588-1.464-1.293-2.914-2.108-4.35
		c-0.818-1.438-1.644-2.828-2.476-4.18c-0.637-1.018-1.334-2.104-2.096-3.271c-0.76-1.166-1.447-2.34-2.055-3.524
		c-0.609-1.185-1.082-2.356-1.42-3.521c-0.341-1.163-0.429-2.255-0.267-3.274c0.107-0.679,0.273-1.338,0.498-1.978
		c0.228-0.641,0.564-1.194,1.013-1.668c0.447-0.475,1.002-0.831,1.663-1.075c0.66-0.243,1.478-0.289,2.447-0.135
		c1.263,0.198,2.291,0.773,3.086,1.729c0.793,0.953,1.105,1.981,0.933,3.085l-0.242,1.529l6.217,2.226l0.436-2.736
		c0.511-3.229-0.149-5.813-1.981-7.76C817.286,1001.104,814.766,999.875,811.561,999.369z"/>
	<path fill="#FFFFFF" d="M887.381,1008.869l-11.547-0.843l-3.676,50.364l6.473,0.474l1.521-20.841l5.073,0.371
		c1.863,0.135,3.488-0.019,4.875-0.453c1.392-0.438,2.562-1.096,3.511-1.978c0.95-0.879,1.692-1.925,2.227-3.137
		c0.531-1.211,0.848-2.502,0.947-3.875l0.672-9.197c0.225-3.089-0.519-5.607-2.223-7.564
		C893.526,1010.234,890.911,1009.126,887.381,1008.869z M890.913,1020.248l-0.531,7.271c-0.149,2.058-0.744,3.446-1.783,4.17
		c-1.039,0.722-2.438,1.018-4.205,0.889l-3.823-0.276l1.321-18.142l3.826,0.279c2.06,0.148,3.476,0.65,4.252,1.507
		C890.745,1016.8,891.059,1018.234,890.913,1020.248z"/>
	<path fill="#FFFFFF" d="M923.012,1010.774l-10.473,50.188l6.928,0.228l1.086-6.229l8.183,0.268l0.756,6.281l6.561,0.212
		l-7.067-50.754L923.012,1010.774z M921.459,1049.699l4.104-22.001l2.605,22.218L921.459,1049.699z"/>
	<path fill="#FFFFFF" d="M980.008,1037.737c-1.096-1.278-2.408-2.123-3.936-2.537c1.565-0.49,2.811-1.31,3.731-2.459
		c0.922-1.149,1.373-2.627,1.355-4.433l-0.076-6.968c-0.037-3.354-0.984-5.866-2.846-7.548c-1.861-1.679-4.564-2.499-8.104-2.461
		l-11.207,0.121l0.545,50.496l6.488-0.07l-0.252-23.345l3.834-0.042c1.033-0.01,1.906,0.056,2.621,0.198
		c0.713,0.143,1.295,0.402,1.742,0.788c0.444,0.381,0.77,0.937,0.975,1.666c0.203,0.729,0.313,1.673,0.326,2.834l0.19,17.799
		l6.488-0.069l-0.199-18.51C981.665,1040.837,981.102,1039.017,980.008,1037.737z M973.346,1032.004
		c-0.899,0.826-2.336,1.25-4.301,1.272l-3.391,0.036l-0.179-16.252l3.396-0.036c2.357-0.026,3.898,0.409,4.623,1.304
		c0.721,0.896,1.092,2.246,1.111,4.052l0.059,5.354C974.686,1029.754,974.247,1031.178,973.346,1032.004z"/>
	<path fill="#FFFFFF" d="M1011.448,1010.049l-6.062,50.909l6.92-0.382l0.541-6.295l8.174-0.45l1.304,6.195l6.553-0.362
		l-11.465-49.944L1011.448,1010.049z M1013.295,1048.96l2.17-22.271l4.531,21.902L1013.295,1048.96z"/>
	<path fill="#FFFFFF" d="M1104.922,1035.859c-0.711-1.377-1.561-2.685-2.551-3.912c-0.988-1.23-2.082-2.414-3.281-3.551
		c-1.199-1.139-2.395-2.229-3.58-3.281c-0.901-0.785-1.889-1.627-2.955-2.521c-1.063-0.894-2.063-1.816-2.985-2.774
		c-0.931-0.956-1.724-1.942-2.384-2.958c-0.659-1.019-1.063-2.034-1.202-3.06c-0.097-0.68-0.127-1.357-0.099-2.037
		c0.029-0.677,0.191-1.306,0.484-1.89c0.291-0.582,0.717-1.086,1.279-1.513c0.561-0.425,1.328-0.704,2.303-0.839
		c1.266-0.176,2.418,0.078,3.453,0.76c1.039,0.682,1.635,1.575,1.787,2.683l0.211,1.534l6.596,0.324l-0.379-2.747
		c-0.447-3.236-1.83-5.52-4.148-6.85c-2.315-1.329-5.082-1.771-8.297-1.327c-3.604,0.498-6.227,1.813-7.863,3.952
		c-1.643,2.138-2.25,4.737-1.823,7.806c0.354,2.556,1.071,4.626,2.162,6.213c1.086,1.586,2.481,3.172,4.19,4.759
		c1.078,0.979,2.193,1.966,3.351,2.955c1.151,0.99,2.284,1.995,3.395,3.016c1.109,1.02,2.158,2.066,3.152,3.146
		c0.991,1.079,1.873,2.238,2.639,3.479c0.508,0.799,0.896,1.613,1.156,2.443c0.266,0.833,0.473,1.803,0.625,2.908
		c0.188,1.362-0.066,2.562-0.771,3.591c-0.701,1.028-1.901,1.662-3.606,1.896c-1.269,0.175-2.455-0.073-3.564-0.745
		c-1.106-0.67-1.741-1.581-1.899-2.729l-0.203-1.471l-6.599-0.324l0.371,2.685c0.188,1.363,0.619,2.596,1.293,3.694
		c0.674,1.101,1.558,2.021,2.648,2.76c1.096,0.738,2.35,1.271,3.758,1.598c1.408,0.325,2.969,0.37,4.674,0.136
		c2.094-0.288,3.838-0.854,5.234-1.698c1.396-0.847,2.496-1.875,3.295-3.095c0.799-1.218,1.309-2.565,1.522-4.052
		c0.218-1.482,0.22-2.993,0.009-4.525C1106.098,1038.714,1105.635,1037.237,1104.922,1035.859z"/>
	<polygon fill="#FFFFFF" points="1137.151,1040.366 1133.877,1023.197 1141.049,1021.829 1139.985,1016.255 1132.814,1017.621 
		1129.817,1001.911 1142.204,999.549 1141.141,993.974 1122.381,997.551 1131.84,1047.156 1150.6,1043.578 1149.538,1038.004 	"/>
	<path fill="#FFFFFF" d="M1188.577,1010.146c-1.363-0.989-2.834-1.511-4.416-1.561c1.412-0.84,2.434-1.925,3.063-3.256
		c0.632-1.33,0.73-2.874,0.293-4.626l-1.684-6.759c-0.812-3.255-2.313-5.481-4.512-6.688c-2.199-1.203-5.019-1.376-8.451-0.521
		l-10.877,2.707l12.197,49.004l6.297-1.566l-5.642-22.655l3.724-0.927c1.002-0.249,1.864-0.388,2.596-0.412
		c0.728-0.024,1.354,0.097,1.875,0.363c0.521,0.269,0.969,0.732,1.336,1.396c0.367,0.661,0.691,1.557,0.971,2.684l4.302,17.272
		l6.299-1.566l-4.474-17.962C1190.903,1012.781,1189.936,1011.138,1188.577,1010.146z M1180.77,1006.108
		c-0.686,1.013-1.979,1.757-3.891,2.229l-3.291,0.818l-3.926-15.771l3.293-0.818c2.289-0.57,3.889-0.504,4.797,0.2
		c0.91,0.704,1.584,1.933,2.02,3.686l1.293,5.193C1181.553,1003.61,1181.456,1005.097,1180.77,1006.108z"/>
	<polygon fill="#FFFFFF" points="1218.325,973.81 1224.471,1007.306 1210.307,976.336 1203.204,978.575 1226.116,1024.301 
		1231.883,1022.485 1224.655,971.815 	"/>
	
		<rect x="1230.553" y="984.214" transform="matrix(0.3525 0.9358 -0.9358 0.3525 1737.209 -535.8136)" fill="#FFFFFF" width="50.496" height="6.489"/>
	<path fill="#FFFFFF" d="M1300.309,970.123c-1.518-0.73-3.059-0.979-4.623-0.748c1.24-1.077,2.056-2.326,2.438-3.749
		c0.385-1.422,0.205-2.957-0.535-4.603l-2.859-6.354c-1.377-3.058-3.254-4.979-5.633-5.773c-2.377-0.791-5.18-0.462-8.408,0.989
		l-10.221,4.604l20.73,46.048l5.916-2.664l-9.584-21.289l3.495-1.573c0.941-0.424,1.771-0.713,2.48-0.868
		c0.711-0.151,1.348-0.146,1.91,0.022c0.563,0.172,1.084,0.551,1.563,1.136c0.479,0.587,0.957,1.408,1.437,2.467l7.309,16.231
		l5.916-2.664l-7.598-16.878C1303.067,972.3,1301.823,970.857,1300.309,970.123z M1291.909,967.539
		c-0.496,1.119-1.644,2.081-3.435,2.889l-3.094,1.396l-6.67-14.82l3.092-1.392c2.152-0.971,3.738-1.188,4.761-0.658
		c1.021,0.532,1.899,1.62,2.645,3.268l2.197,4.881C1292.233,964.943,1292.401,966.422,1291.909,967.539z"/>
	<polygon fill="#FFFFFF" points="1327.961,932.33 1325.243,927.351 1307.895,936.816 1310.614,941.799 1316.375,938.654 
		1337.848,977.999 1343.543,974.892 1322.071,935.545 	"/>
	<polygon fill="#FFFFFF" points="1372.311,951.002 1362.696,936.407 1368.793,932.39 1365.67,927.652 1359.575,931.666 
		1350.776,918.31 1361.307,911.372 1358.184,906.633 1342.235,917.14 1370.014,959.313 1385.963,948.806 1382.84,944.067 	"/>
</g>
</svg>
