<?xml version="1.0" encoding="utf-8"?>
<!-- Generator: Adobe Illustrator 15.0.2, SVG Export Plug-In . SVG Version: 6.00 Build 0)  -->
<!DOCTYPE svg PUBLIC "-//W3C//DTD SVG 1.1//EN" "http://www.w3.org/Graphics/SVG/1.1/DTD/svg11.dtd">
<svg version="1.1" id="Layer_2" xmlns="http://www.w3.org/2000/svg" xmlns:xlink="http://www.w3.org/1999/xlink" x="0px" y="0px"
	 width="698.434px" height="498.434px" viewBox="0 0 698.434 498.434" enable-background="new 0 0 698.434 498.434"
	 xml:space="preserve">
<g>
	<path fill="#FFFFFF" stroke="#FFFFFF" stroke-miterlimit="10" d="M281.343,243.497c-2.992,2.994-6.968,4.488-10.9,4.488
		c-10.088,0-15.346-7.053-15.388-15.133c-0.083-7.992,5.129-15.47,15.388-15.47c3.932,0,7.908,1.491,10.9,4.488l-1.585,1.362
		c-2.562-2.563-5.938-3.801-9.315-3.801c-8.721,0-13.208,6.157-13.163,13.332c0.083,7.014,4.529,13.084,13.163,13.084
		c3.377,0,6.797-1.283,9.359-3.81L281.343,243.497z"/>
	<path fill="#FFFFFF" stroke="#FFFFFF" stroke-miterlimit="10" d="M281.343,243.497c-2.992,2.994-6.968,4.488-10.9,4.488
		c-10.088,0-15.346-7.053-15.388-15.133c-0.083-7.992,5.129-15.47,15.388-15.47c3.932,0,7.908,1.491,10.9,4.488l-1.585,1.362
		c-2.562-2.563-5.938-3.801-9.315-3.801c-8.721,0-13.208,6.157-13.163,13.332c0.083,7.014,4.529,13.084,13.163,13.084
		c3.377,0,6.797-1.283,9.359-3.81L281.343,243.497z"/>
	<path fill="#FFFFFF" stroke="#FFFFFF" stroke-miterlimit="10" d="M331.421,247.636l-3.293-7.349h-17.866l-3.248,7.349h-2.48
		l13.425-29.916h2.518l13.422,29.916H331.421z M327.23,238.151l-8.036-18.211l-8.036,18.211H327.23z"/>
	<path fill="#FFFFFF" stroke="#FFFFFF" stroke-miterlimit="10" d="M331.421,247.636l-3.293-7.349h-17.866l-3.248,7.349h-2.48
		l13.425-29.916h2.518l13.422,29.916H331.421z M327.23,238.151l-8.036-18.211l-8.036,18.211H327.23z"/>
	<polygon fill="#FFFFFF" stroke="#FFFFFF" stroke-miterlimit="10" points="361.793,231.955 379.019,231.955 379.019,234.134 
		361.793,234.134 361.793,247.684 359.484,247.684 359.484,217.723 379.615,217.723 379.615,220.028 361.793,220.028 	"/>
	<polygon fill="#FFFFFF" stroke="#FFFFFF" stroke-miterlimit="10" points="361.793,231.955 379.019,231.955 379.019,234.134 
		361.793,234.134 361.793,247.684 359.484,247.684 359.484,217.723 379.615,217.723 379.615,220.028 361.793,220.028 	"/>
	<polygon fill="#FFFFFF" stroke="#FFFFFF" stroke-miterlimit="10" points="409.175,231.528 426.702,231.528 426.702,233.622 
		409.175,233.622 409.175,245.42 428.069,245.42 428.069,247.641 406.913,247.641 406.913,217.718 427.557,217.718 427.557,219.899 
		409.175,219.899 	"/>
	<polygon fill="#FFFFFF" stroke="#FFFFFF" stroke-miterlimit="10" points="409.175,231.528 426.702,231.528 426.702,233.622 
		409.175,233.622 409.175,245.42 428.069,245.42 428.069,247.641 406.913,247.641 406.913,217.718 427.557,217.718 427.557,219.899 
		409.175,219.899 	"/>
	<polygon fill="#FFFFFF" stroke="#FFFFFF" stroke-miterlimit="10" points="465.623,219.817 454.81,219.817 454.81,217.766 
		478.744,217.766 478.744,219.817 467.932,219.817 467.932,247.643 465.623,247.643 	"/>
	<polygon fill="#FFFFFF" stroke="#FFFFFF" stroke-miterlimit="10" points="465.623,219.817 454.81,219.817 454.81,217.766 
		478.744,217.766 478.744,219.817 467.932,219.817 467.932,247.643 465.623,247.643 	"/>
	<polygon fill="#FFFFFF" stroke="#FFFFFF" stroke-miterlimit="10" points="507.583,231.528 525.105,231.528 525.105,233.622 
		507.583,233.622 507.583,245.42 526.473,245.42 526.473,247.641 505.315,247.641 505.315,217.718 525.96,217.718 525.96,219.899 
		507.583,219.899 	"/>
	<polygon fill="#FFFFFF" stroke="#FFFFFF" stroke-miterlimit="10" points="507.583,231.528 525.105,231.528 525.105,233.622 
		507.583,233.622 507.583,245.42 526.473,245.42 526.473,247.641 505.315,247.641 505.315,217.718 525.96,217.718 525.96,219.899 
		507.583,219.899 	"/>
	<path fill="#FFFFFF" stroke="#FFFFFF" stroke-miterlimit="10" d="M577.665,247.645h-3.036l-10.343-11.33h-8.165v11.33h-2.31V217.72
		h13.165c6.497,0,9.79,4.661,9.831,9.319c0.04,4.875-3.163,9.146-9.699,9.146L577.665,247.645z M556.121,234.134h10.602
		c5.212,0,7.521-2.95,7.563-7.142c0.047-3.504-2.353-7.137-7.309-7.137h-10.855L556.121,234.134L556.121,234.134z"/>
	<path fill="#FFFFFF" stroke="#FFFFFF" stroke-miterlimit="10" d="M577.665,247.645h-3.036l-10.343-11.33h-8.165v11.33h-2.31V217.72
		h13.165c6.497,0,9.79,4.661,9.831,9.319c0.04,4.875-3.163,9.146-9.699,9.146L577.665,247.645z M556.121,234.134h10.602
		c5.212,0,7.521-2.95,7.563-7.142c0.047-3.504-2.353-7.137-7.309-7.137h-10.855L556.121,234.134L556.121,234.134z"/>
	<path fill="#FFFFFF" stroke="#FFFFFF" stroke-miterlimit="10" d="M603.679,214.432v-0.17l3.203-5.13h2.78v0.042l-3.934,5.258
		H603.679L603.679,214.432z M606.032,217.72h-2.269v29.925h2.269V217.72z"/>
	<path fill="#FFFFFF" stroke="#FFFFFF" stroke-miterlimit="10" d="M603.679,214.432v-0.17l3.203-5.13h2.78v0.042l-3.934,5.258
		H603.679L603.679,214.432z M606.032,217.72h-2.269v29.925h2.269V217.72z"/>
	<path fill="#FFFFFF" stroke="#FFFFFF" stroke-miterlimit="10" d="M658.631,247.636l-3.291-7.349h-17.862l-3.248,7.349h-2.479
		l13.422-29.916h2.521l13.425,29.916H658.631z M654.445,238.151l-8.041-18.211l-8.028,18.211H654.445z"/>
	<path fill="#FFFFFF" stroke="#FFFFFF" stroke-miterlimit="10" d="M658.631,247.636l-3.291-7.349h-17.862l-3.248,7.349h-2.479
		l13.422-29.916h2.521l13.425,29.916H658.631z M654.445,238.151l-8.041-18.211l-8.028,18.211H654.445z"/>
	<path fill="#FFFFFF" stroke="#FFFFFF" stroke-miterlimit="10" d="M43.378,263.083c-8.072,0-15.225-8.073-15.225-16.381
		c0-3.229,1.152-6.692,3.688-9.692c13.842-16.381,29.075-22.147,48.919-22.147c21.918,0,36.917,9.687,48.915,20.994
		c13.153-17.998,30.46-23.994,47.762-23.994c19.613,0,38.535,15.685,38.535,41.3c0,26.075-20.766,48.226-43.842,48.226
		c-10.846,0.689-19.841-4.85-27.225-10.387l-23.537,69.223c11.308,11.307,20.536,22.152,36.458,22.152
		c16.61,0,31.378-7.607,41.532-33.922c2.767-7.385,8.766-10.611,14.534-10.611c7.154,0,14.077,4.85,14.077,12.229
		c0,1.156-0.231,2.539-0.696,3.92c-13.841,41.535-41.531,61.15-72.909,61.15c-21.688,0-36.687-9.232-48.685-20.537
		c-13.152,18.002-32.763,26.771-53.763,26.771c-27.915,0-51.914-16.393-51.914-42.922c0-3.455,0.231-7.148,1.149-11.074
		c6.232-26.994,31.844-38.535,54.458-38.535c13.383,0,25.379,4.615,34.609,10.387l25.382-72.457
		c-11.075-11.066-22.378-20.299-38.072-20.299c-8.305,0-15.92,4.15-23.073,11.311C50.993,261.465,47.074,263.083,43.378,263.083
		 M80.067,368.071c-6.694-6.23-13.614-10.15-21.919-10.15c-10.618,0-18.689,6.684-21.231,15.225
		c-0.456,1.623-0.456,3.229-0.456,4.846c0,7.621,5.303,14.078,14.532,14.078C61.608,392.067,72.686,384.45,80.067,368.071
		 M158.057,259.164c2.768,3.684,7.384,8.306,14.073,8.306c6.461,0,12-4.154,12-11.313c0-7.147-3.922-10.381-9.928-10.381
		C168.209,245.774,162.207,249.932,158.057,259.164"/>
	<path fill="#FFFFFF" stroke="#FFFFFF" stroke-miterlimit="10" d="M323.719,339.456c6.925,0,13.389,3.924,13.389,11.078
		c0,1.381-0.231,2.992-0.926,4.85c-15.23,44.068-51.686,59.758-83.758,59.758c-33.686,0-59.529-17.076-59.529-44.535
		c0-5.299,1.149-10.842,2.998-16.383l13.614-39.453c8.073-23.076,28.152-35.074,48.688-35.074c26.073,0,43.375,16.846,43.375,38.77
		c0,3.924-0.689,8.307-1.846,12.688c-6.227,20.764-24.686,33.92-45.684,33.92c-9.228,0-17.541-2.771-24.227-6.926l-1.846,4.385
		c-0.924,2.313-1.152,4.383-1.152,6.459c0,10.615,10.614,18.693,27.456,18.693c19.614,0,43.842-10.85,53.991-37.611
		C310.339,342.915,317.258,339.456,323.719,339.456 M243.887,318.229l-4.844,13.844c3.229,1.854,7.613,2.771,11.995,2.771
		c6.926,0,13.847-2.771,16.154-10.381c0.693-1.848,0.921-3.693,0.921-5.539c0-6.689-4.153-12.002-10.614-12.002
		C252.196,306.922,246.425,311.077,243.887,318.229"/>
	<path fill="#FFFFFF" stroke="#FFFFFF" stroke-miterlimit="10" d="M458.244,349.151c0,4.15-2.542,9.918-5.773,18.92
		c-14.766,37.371-40.377,47.068-59.525,47.068c-6.926,0-23.307-1.848-30.691-12.453c-8.533,7.605-19.613,12.453-30.456,12.453
		c-20.301,0-35.764-15.689-35.764-34.844c0-4.152,0.926-8.307,2.308-12.463l21.69-62.068c6.227-17.76,22.843-26.064,38.07-26.064
		c11.768,0,20.768,3.459,25.613,6.457c3.69-5.77,10.38-8.766,16.844-8.766c8.535,0,16.843,5.305,16.843,15.453
		c0,2.309-0.462,4.85-1.383,7.619l-25.846,74.764c-0.692,2.523-1.148,4.84-1.148,6.684c0,3.693,2.306,5.773,6.229,5.773
		c10.383,0,24.923-9.467,33.92-37.838c2.768-8.771,9.924-12.695,16.376-12.695C452.241,337.151,458.244,341.305,458.244,349.151
		 M372.175,321.227c0-7.842-4.843-12.227-9.228-12.227c-3.691,0-10.152,1.848-14.535,15.922l-14.771,46.373
		c-0.693,2.076-1.383,4.848-1.383,7.85c0,5.303,2.536,8.539,7.616,8.539c4.844,0,13.612-3.465,18.457-18.463l11.077-34.373
		C371.254,329.071,372.175,324.69,372.175,321.227"/>
	<path fill="#FFFFFF" stroke="#FFFFFF" stroke-miterlimit="10" d="M563.917,336.92c7.15,0,14.306,4.613,14.306,12.23
		c0,1.152,0,2.305-0.462,3.688c-7.153,23.768-23.996,38.764-46.377,38.764c-12.229,0-22.379-4.393-28.843-11.998l-8.535,10.383
		c-15.23,17.541-22.849,25.148-39.227,25.148c-18,0-31.152-12.453-31.152-32.988c0-3.695,0.462-7.852,1.386-12.006l16.846-75.213
		c2.31-9.93,10.612-15.23,18.918-15.23c8.076,0,15.691,5.303,15.691,16.381c0,2.08-0.229,4.383-0.921,6.922l-17.541,74.068
		c-0.688,2.535-0.921,4.615-0.921,6.691c0,1.383,0.465,2.078,1.155,2.078c3.229,0,11.074-9.467,14.532-14.537l12.694-19.152
		c-1.851-4.613-2.769-9.697-2.769-15.229c0-24.461,16.61-57.223,39.919-57.223c12.685,0,19.143,7.84,19.143,19.15
		c0,12.691-8.068,24.92-20.53,47.535c-0.69,2.07-1.152,4.379-1.152,6.227c0,6.234,3.922,11.074,11.538,11.074
		c8.534,0,14.303-6.232,18.229-17.078C552.154,339.92,557.918,336.92,563.917,336.92"/>
	<path fill="#FFFFFF" stroke="#FFFFFF" stroke-miterlimit="10" d="M572.455,381.221c0,4.152,2.536,6.688,6.688,6.688
		c6.229,0,14.309-4.605,21.688-17.07l26.536-77.988c3.229-9.23,10.148-13.158,16.606-13.158c8.537,0,16.849,6.467,16.849,15.926
		c0,1.617-0.229,3.463-0.923,5.539l-32.532,93.91c17.995-9.23,33.455-23.076,41.995-46.609c3.229-8.998,9.921-12.92,16.148-12.92
		c6.92,0,12.922,4.611,12.922,12.457c0,1.613-0.229,3.461-0.924,5.309c-15.921,48.457-49.838,66.455-82.837,76.838
		c-3.457,9.459-7.15,19.607-10.383,29.305c-9.691,26.766-31.146,38.992-53.991,38.992c-22.61,0-43.379-14.768-43.379-37.15
		c0-28.381,27.921-39.916,56.065-46.146c-14.991-2.996-26.068-14.307-26.068-29.992c0-4.156,0.689-8.537,2.308-12.922l27.918-79.373
		c3.232-9.23,10.153-13.158,16.614-13.158c8.538,0,16.844,6.467,16.844,15.926c0,2.313-0.462,4.615-1.38,7.154l-25.612,72.682
		C572.917,377.53,572.455,379.6,572.455,381.221 M542.92,457.131c-0.691,1.617-0.925,3.463-0.925,4.844
		c0,4.156,2.308,7.389,7.616,7.389c6.924,0,14.072-4.391,17.304-12.92l5.54-15.693C557.456,444.672,546.147,449.057,542.92,457.131"
		/>
	<path fill="#FFFFFF" stroke="#FFFFFF" stroke-miterlimit="10" d="M322.681,150.486c0,5.933-3.122,10.741-6.981,10.741h-49.68
		c-3.858,0-6.981-4.809-6.981-10.741v-1.308c0-5.932,3.124-10.744,6.981-10.744h49.68c3.859,0,6.981,4.809,6.981,10.744V150.486z"/>
	<path fill="#FFFFFF" stroke="#FFFFFF" stroke-miterlimit="10" d="M322.737,179.808c0,5.932-3.126,10.747-6.984,10.747h-49.68
		c-3.856,0-6.981-4.814-6.981-10.747V178.5c0-5.927,3.125-10.739,6.981-10.739h49.68c3.858,0,6.984,4.806,6.984,10.739V179.808z"/>
	<path fill="#FFFFFF" stroke="#FFFFFF" stroke-miterlimit="10" d="M371.017,5.05c4.192,4.197,5.384,9.804,2.66,12.533
		L254.288,136.971c-2.727,2.731-8.338,1.539-12.534-2.664l-0.927-0.922c-4.192-4.193-5.389-9.806-2.659-12.535L357.555,1.464
		c2.729-2.723,8.336-1.539,12.532,2.662L371.017,5.05z"/>
	<path fill="#FFFFFF" stroke="#FFFFFF" stroke-miterlimit="10" d="M441.922,91.329c0,5.933-3.126,10.741-6.983,10.741H266.101
		c-3.857,0-6.984-4.809-6.984-10.741v-1.31c0-5.928,3.126-10.739,6.984-10.739h168.838c3.857,0,6.983,4.806,6.983,10.739V91.329z"/>
	<path fill="#FFFFFF" stroke="#FFFFFF" stroke-miterlimit="10" d="M328.346,4.126c4.193-4.2,9.807-5.387,12.531-2.662
		l119.385,119.386c2.729,2.729,1.534,8.339-2.657,12.535l-0.923,0.925c-4.196,4.197-9.808,5.389-12.536,2.661L324.761,17.586
		c-2.728-2.731-1.537-8.339,2.657-12.531L328.346,4.126z"/>
	<path fill="#FFFFFF" stroke="#FFFFFF" stroke-miterlimit="10" d="M441.784,150.486c0,5.933-3.125,10.741-6.981,10.741h-49.68
		c-3.858,0-6.981-4.809-6.981-10.741v-1.308c0-5.932,3.123-10.744,6.981-10.744h49.68c3.856,0,6.981,4.809,6.981,10.744V150.486z"/>
	<path fill="#FFFFFF" stroke="#FFFFFF" stroke-miterlimit="10" d="M441.84,179.808c0,5.932-3.127,10.747-6.984,10.747h-49.679
		c-3.854,0-6.981-4.814-6.981-10.747V178.5c0-5.927,3.128-10.739,6.981-10.739h49.679c3.857,0,6.984,4.806,6.984,10.739V179.808z"/>
	<path fill="#FFFFFF" stroke="#FFFFFF" stroke-miterlimit="10" d="M434.858,108.657H266.02c-3.858,0-6.981,4.812-6.981,10.744v1.308
		c0,5.936,3.124,10.748,6.981,10.748h55.374v-0.654c0-5.938,3.123-10.748,6.978-10.748h42.787c3.858,0,6.983,4.81,6.983,10.748
		v0.654h56.717c3.854,0,6.981-4.812,6.981-10.748v-1.308C441.84,113.469,438.713,108.657,434.858,108.657"/>
	<path fill="#FFFFFF" stroke="#FFFFFF" stroke-miterlimit="10" d="M33.16,475.286c-2.575,0-4.553-0.848-6.486-2.568l0.782-0.902
		c1.77,1.635,3.404,2.393,5.774,2.393c2.416,0,4.07-1.357,4.07-3.193v-0.047c0-1.703-0.895-2.693-4.553-3.428
		c-3.865-0.779-5.429-2.094-5.429-4.531v-0.041c0-2.396,2.186-4.236,5.176-4.236c2.347,0,3.888,0.639,5.522,1.951l-0.759,0.941
		c-1.518-1.309-3.037-1.818-4.806-1.818c-2.373,0-3.937,1.363-3.937,3.045v0.041c0,1.705,0.875,2.734,4.696,3.52
		c3.725,0.758,5.289,2.094,5.289,4.445v0.041C38.497,473.493,36.266,475.286,33.16,475.286"/>
	<path fill="#FFFFFF" stroke="#FFFFFF" stroke-miterlimit="10" d="M33.16,475.286c-2.575,0-4.553-0.848-6.486-2.568l0.782-0.902
		c1.77,1.635,3.404,2.393,5.774,2.393c2.416,0,4.07-1.357,4.07-3.193v-0.047c0-1.703-0.895-2.693-4.553-3.428
		c-3.865-0.779-5.429-2.094-5.429-4.531v-0.041c0-2.396,2.186-4.236,5.176-4.236c2.347,0,3.888,0.639,5.522,1.951l-0.759,0.941
		c-1.518-1.309-3.037-1.818-4.806-1.818c-2.373,0-3.937,1.363-3.937,3.045v0.041c0,1.705,0.875,2.734,4.696,3.52
		c3.725,0.758,5.289,2.094,5.289,4.445v0.041C38.497,473.493,36.266,475.286,33.16,475.286"/>
	<path fill="#FFFFFF" stroke="#FFFFFF" stroke-miterlimit="10" d="M61.652,475.059l-2.046-4.508h-9.498l-2.049,4.508h-1.242
		l7.497-16.217h1.152l7.497,16.217H61.652z M54.865,460.153l-4.255,9.316h8.487L54.865,460.153z"/>
	<path fill="#FFFFFF" stroke="#FFFFFF" stroke-miterlimit="10" d="M61.652,475.059l-2.046-4.508h-9.498l-2.049,4.508h-1.242
		l7.497-16.217h1.152l7.497,16.217H61.652z M54.865,460.153l-4.255,9.316h8.487L54.865,460.153z"/>
	<polygon fill="#FFFFFF" stroke="#FFFFFF" stroke-miterlimit="10" points="84.602,475.055 73.262,460.75 73.262,475.055 
		72.112,475.055 72.112,458.956 73.24,458.956 84.347,472.963 84.347,458.956 85.499,458.956 85.499,475.055 	"/>
	<polygon fill="#FFFFFF" stroke="#FFFFFF" stroke-miterlimit="10" points="84.602,475.055 73.262,460.75 73.262,475.055 
		72.112,475.055 72.112,458.956 73.24,458.956 84.347,472.963 84.347,458.956 85.499,458.956 85.499,475.055 	"/>
	<polygon fill="#FFFFFF" stroke="#FFFFFF" stroke-miterlimit="10" points="108.711,475.055 108.711,458.956 109.906,458.956 
		109.906,473.952 119.359,473.952 119.359,475.055 	"/>
	<polygon fill="#FFFFFF" stroke="#FFFFFF" stroke-miterlimit="10" points="108.711,475.055 108.711,458.956 109.906,458.956 
		109.906,473.952 119.359,473.952 119.359,475.055 	"/>
	<path fill="#FFFFFF" stroke="#FFFFFF" stroke-miterlimit="10" d="M135.061,475.311c-3.862,0-6.601-2.439-6.601-6.949v-9.406h1.195
		v9.299c0,3.791,2.047,5.979,5.453,5.979c3.266,0,5.36-1.979,5.36-5.869v-9.406h1.195v9.275
		C141.663,472.85,138.97,475.311,135.061,475.311"/>
	<path fill="#FFFFFF" stroke="#FFFFFF" stroke-miterlimit="10" d="M135.061,475.311c-3.862,0-6.601-2.439-6.601-6.949v-9.406h1.195
		v9.299c0,3.791,2.047,5.979,5.453,5.979c3.266,0,5.36-1.979,5.36-5.869v-9.406h1.195v9.275
		C141.663,472.85,138.97,475.311,135.061,475.311"/>
	<path fill="#FFFFFF" stroke="#FFFFFF" stroke-miterlimit="10" d="M159.252,475.334c-4.601,0-8.002-3.658-8.002-8.279v-0.045
		c0-4.555,3.401-8.328,8.051-8.328c2.873,0,4.599,1.059,6.255,2.58l-0.851,0.869c-1.401-1.354-3.017-2.369-5.427-2.369
		c-3.868,0-6.787,3.146-6.787,7.195v0.053c0,4.068,2.967,7.242,6.81,7.242c2.321,0,3.906-0.893,5.542-2.504l0.806,0.779
		C163.946,474.206,162.104,475.334,159.252,475.334"/>
	<path fill="#FFFFFF" stroke="#FFFFFF" stroke-miterlimit="10" d="M159.252,475.334c-4.601,0-8.002-3.658-8.002-8.279v-0.045
		c0-4.555,3.401-8.328,8.051-8.328c2.873,0,4.599,1.059,6.255,2.58l-0.851,0.869c-1.401-1.354-3.017-2.369-5.427-2.369
		c-3.868,0-6.787,3.146-6.787,7.195v0.053c0,4.068,2.967,7.242,6.81,7.242c2.321,0,3.906-0.893,5.542-2.504l0.806,0.779
		C163.946,474.206,162.104,475.334,159.252,475.334"/>
	<path fill="#FFFFFF" stroke="#FFFFFF" stroke-miterlimit="10" d="M188.137,475.059l-2.047-4.508h-9.497l-2.049,4.508h-1.239
		l7.495-16.217h1.154l7.494,16.217H188.137z M181.351,460.153l-4.255,9.316h8.487L181.351,460.153z"/>
	<path fill="#FFFFFF" stroke="#FFFFFF" stroke-miterlimit="10" d="M188.137,475.059l-2.047-4.508h-9.497l-2.049,4.508h-1.239
		l7.495-16.217h1.154l7.494,16.217H188.137z M181.351,460.153l-4.255,9.316h8.487L181.351,460.153z"/>
	<path fill="#FFFFFF" stroke="#FFFFFF" stroke-miterlimit="10" d="M204.07,475.286c-2.573,0-4.552-0.848-6.487-2.568l0.783-0.902
		c1.77,1.635,3.406,2.393,5.772,2.393c2.417,0,4.071-1.357,4.071-3.193v-0.047c0-1.703-0.895-2.693-4.556-3.428
		c-3.862-0.779-5.426-2.094-5.426-4.531v-0.041c0-2.396,2.184-4.236,5.175-4.236c2.347,0,3.891,0.639,5.523,1.951l-0.76,0.941
		c-1.518-1.309-3.037-1.818-4.806-1.818c-2.374,0-3.938,1.363-3.938,3.045v0.041c0,1.705,0.874,2.734,4.696,3.52
		c3.724,0.758,5.289,2.094,5.289,4.445v0.041C209.407,473.493,207.176,475.286,204.07,475.286"/>
	<path fill="#FFFFFF" stroke="#FFFFFF" stroke-miterlimit="10" d="M204.07,475.286c-2.573,0-4.552-0.848-6.487-2.568l0.783-0.902
		c1.77,1.635,3.406,2.393,5.772,2.393c2.417,0,4.071-1.357,4.071-3.193v-0.047c0-1.703-0.895-2.693-4.556-3.428
		c-3.862-0.779-5.426-2.094-5.426-4.531v-0.041c0-2.396,2.184-4.236,5.175-4.236c2.347,0,3.891,0.639,5.523,1.951l-0.76,0.941
		c-1.518-1.309-3.037-1.818-4.806-1.818c-2.374,0-3.938,1.363-3.938,3.045v0.041c0,1.705,0.874,2.734,4.696,3.52
		c3.724,0.758,5.289,2.094,5.289,4.445v0.041C209.407,473.493,207.176,475.286,204.07,475.286"/>
	<path fill="#FFFFFF" stroke="#FFFFFF" stroke-miterlimit="10" d="M237.217,475.286c-2.575,0-4.552-0.848-6.487-2.568l0.783-0.902
		c1.772,1.635,3.403,2.393,5.774,2.393c2.415,0,4.07-1.357,4.07-3.193v-0.047c0-1.703-0.896-2.693-4.554-3.428
		c-3.865-0.779-5.432-2.094-5.432-4.531v-0.041c0-2.396,2.186-4.236,5.178-4.236c2.346,0,3.889,0.639,5.522,1.951l-0.76,0.941
		c-1.521-1.309-3.037-1.818-4.809-1.818c-2.369,0-3.938,1.363-3.938,3.045v0.041c0,1.705,0.875,2.734,4.699,3.52
		c3.724,0.758,5.289,2.094,5.289,4.445v0.041C242.554,473.493,240.323,475.286,237.217,475.286"/>
	<path fill="#FFFFFF" stroke="#FFFFFF" stroke-miterlimit="10" d="M237.217,475.286c-2.575,0-4.552-0.848-6.487-2.568l0.783-0.902
		c1.772,1.635,3.403,2.393,5.774,2.393c2.415,0,4.07-1.357,4.07-3.193v-0.047c0-1.703-0.896-2.693-4.554-3.428
		c-3.865-0.779-5.432-2.094-5.432-4.531v-0.041c0-2.396,2.186-4.236,5.178-4.236c2.346,0,3.889,0.639,5.522,1.951l-0.76,0.941
		c-1.521-1.309-3.037-1.818-4.809-1.818c-2.369,0-3.938,1.363-3.938,3.045v0.041c0,1.705,0.875,2.734,4.699,3.52
		c3.724,0.758,5.289,2.094,5.289,4.445v0.041C242.554,473.493,240.323,475.286,237.217,475.286"/>
	<path fill="#FFFFFF" stroke="#FFFFFF" stroke-miterlimit="10" d="M265.709,475.059l-2.047-4.508h-9.502l-2.044,4.508h-1.244
		l7.5-16.217h1.149l7.499,16.217H265.709z M258.923,460.153l-4.255,9.316h8.489L258.923,460.153z"/>
	<path fill="#FFFFFF" stroke="#FFFFFF" stroke-miterlimit="10" d="M265.709,475.059l-2.047-4.508h-9.502l-2.044,4.508h-1.244
		l7.5-16.217h1.149l7.499,16.217H265.709z M258.923,460.153l-4.255,9.316h8.489L258.923,460.153z"/>
	<path fill="#FFFFFF" stroke="#FFFFFF" stroke-miterlimit="10" d="M282.309,475.334c-4.602,0-8.005-3.658-8.005-8.279v-0.045
		c0-4.555,3.403-8.328,8.053-8.328c2.873,0,4.598,1.059,6.256,2.58l-0.853,0.869c-1.403-1.354-3.014-2.369-5.427-2.369
		c-3.868,0-6.786,3.146-6.786,7.195v0.053c0,4.068,2.968,7.242,6.81,7.242c2.321,0,3.908-0.893,5.542-2.504l0.806,0.779
		C287.002,474.206,285.163,475.334,282.309,475.334"/>
	<path fill="#FFFFFF" stroke="#FFFFFF" stroke-miterlimit="10" d="M282.309,475.334c-4.602,0-8.005-3.658-8.005-8.279v-0.045
		c0-4.555,3.403-8.328,8.053-8.328c2.873,0,4.598,1.059,6.256,2.58l-0.853,0.869c-1.403-1.354-3.014-2.369-5.427-2.369
		c-3.868,0-6.786,3.146-6.786,7.195v0.053c0,4.068,2.968,7.242,6.81,7.242c2.321,0,3.908-0.893,5.542-2.504l0.806,0.779
		C287.002,474.206,285.163,475.334,282.309,475.334"/>
	<path fill="#FFFFFF" stroke="#FFFFFF" stroke-miterlimit="10" d="M311.216,475.059l-2.047-4.508h-9.502l-2.044,4.508h-1.245
		l7.5-16.217h1.149l7.499,16.217H311.216z M304.429,460.153l-4.254,9.316h8.49L304.429,460.153z"/>
	<path fill="#FFFFFF" stroke="#FFFFFF" stroke-miterlimit="10" d="M311.216,475.059l-2.047-4.508h-9.502l-2.044,4.508h-1.245
		l7.5-16.217h1.149l7.499,16.217H311.216z M304.429,460.153l-4.254,9.316h8.49L304.429,460.153z"/>
	<polygon fill="#FFFFFF" stroke="#FFFFFF" stroke-miterlimit="10" points="324.801,460.063 324.801,475.055 323.603,475.055 
		323.603,460.063 317.995,460.063 317.995,458.958 330.412,458.958 330.412,460.063 	"/>
	<polygon fill="#FFFFFF" stroke="#FFFFFF" stroke-miterlimit="10" points="324.801,460.063 324.801,475.055 323.603,475.055 
		323.603,460.063 317.995,460.063 317.995,458.958 330.412,458.958 330.412,460.063 	"/>
	<polygon fill="#FFFFFF" stroke="#FFFFFF" stroke-miterlimit="10" points="339.813,475.055 339.813,458.956 351.267,458.956 
		351.267,460.063 341.009,460.063 341.009,466.385 350.23,466.385 350.23,467.487 341.009,467.487 341.009,473.952 351.383,473.952 
		351.383,475.055 	"/>
	<polygon fill="#FFFFFF" stroke="#FFFFFF" stroke-miterlimit="10" points="339.813,475.055 339.813,458.956 351.267,458.956 
		351.267,460.063 341.009,460.063 341.009,466.385 350.23,466.385 350.23,467.487 341.009,467.487 341.009,473.952 351.383,473.952 
		351.383,475.055 	"/>
	<path fill="#FFFFFF" stroke="#FFFFFF" stroke-miterlimit="10" d="M366.529,469.053h-4.345v6.002h-1.194v-16.1h5.845
		c3.541,0,5.978,1.818,5.978,4.926v0.041C372.813,467.303,369.893,469.053,366.529,469.053 M371.615,463.95
		c0-2.557-1.979-3.887-4.875-3.887h-4.557v7.883h4.417c2.988,0,5.015-1.557,5.015-3.951V463.95z"/>
	<path fill="#FFFFFF" stroke="#FFFFFF" stroke-miterlimit="10" d="M366.529,469.053h-4.345v6.002h-1.194v-16.1h5.845
		c3.541,0,5.978,1.818,5.978,4.926v0.041C372.813,467.303,369.893,469.053,366.529,469.053 M371.615,463.95
		c0-2.557-1.979-3.887-4.875-3.887h-4.557v7.883h4.417c2.988,0,5.015-1.557,5.015-3.951V463.95z"/>
	<polygon fill="#FFFFFF" stroke="#FFFFFF" stroke-miterlimit="10" points="382.121,475.055 382.121,458.956 393.575,458.956 
		393.575,460.063 383.316,460.063 383.316,466.385 392.54,466.385 392.54,467.487 383.316,467.487 383.316,473.952 393.69,473.952 
		393.69,475.055 	"/>
	<polygon fill="#FFFFFF" stroke="#FFFFFF" stroke-miterlimit="10" points="382.121,475.055 382.121,458.956 393.575,458.956 
		393.575,460.063 383.316,460.063 383.316,466.385 392.54,466.385 392.54,467.487 383.316,467.487 383.316,473.952 393.69,473.952 
		393.69,475.055 	"/>
	<path fill="#FFFFFF" stroke="#FFFFFF" stroke-miterlimit="10" d="M418.11,475.543l-2.254-2.049c-1.355,1.148-3.13,1.84-5.197,1.84
		c-4.876,0-8.073-3.891-8.073-8.275v-0.049c0-4.396,3.244-8.328,8.117-8.328c4.879,0,8.074,3.889,8.074,8.275
		c0.021,0.025,0.021,0.025,0,0.053c0,2.135-0.759,4.166-2.113,5.682l2.301,1.926L418.11,475.543z M417.535,467.008
		c0-3.982-2.899-7.248-6.878-7.248c-3.979,0-6.83,3.221-6.83,7.195v0.053c0,3.98,2.896,7.244,6.874,7.244
		c1.683,0,3.153-0.576,4.28-1.52l-3.13-2.668l0.854-0.943l3.079,2.807c1.104-1.287,1.749-3.012,1.749-4.871L417.535,467.008
		L417.535,467.008z"/>
	<path fill="#FFFFFF" stroke="#FFFFFF" stroke-miterlimit="10" d="M418.11,475.543l-2.254-2.049c-1.355,1.148-3.13,1.84-5.197,1.84
		c-4.876,0-8.073-3.891-8.073-8.275v-0.049c0-4.396,3.244-8.328,8.117-8.328c4.879,0,8.074,3.889,8.074,8.275
		c0.021,0.025,0.021,0.025,0,0.053c0,2.135-0.759,4.166-2.113,5.682l2.301,1.926L418.11,475.543z M417.535,467.008
		c0-3.982-2.899-7.248-6.878-7.248c-3.979,0-6.83,3.221-6.83,7.195v0.053c0,3.98,2.896,7.244,6.874,7.244
		c1.683,0,3.153-0.576,4.28-1.52l-3.13-2.668l0.854-0.943l3.079,2.807c1.104-1.287,1.749-3.012,1.749-4.871L417.535,467.008
		L417.535,467.008z"/>
	<path fill="#FFFFFF" stroke="#FFFFFF" stroke-miterlimit="10" d="M434.967,475.311c-3.863,0-6.603-2.439-6.603-6.949v-9.406h1.196
		v9.299c0,3.791,2.044,5.979,5.45,5.979c3.265,0,5.36-1.979,5.36-5.869v-9.406h1.193v9.275
		C441.568,472.85,438.877,475.311,434.967,475.311"/>
	<path fill="#FFFFFF" stroke="#FFFFFF" stroke-miterlimit="10" d="M434.967,475.311c-3.863,0-6.603-2.439-6.603-6.949v-9.406h1.196
		v9.299c0,3.791,2.044,5.979,5.45,5.979c3.265,0,5.36-1.979,5.36-5.869v-9.406h1.193v9.275
		C441.568,472.85,438.877,475.311,434.967,475.311"/>
	<polygon fill="#FFFFFF" stroke="#FFFFFF" stroke-miterlimit="10" points="451.866,475.055 451.866,458.956 463.32,458.956 
		463.32,460.063 453.061,460.063 453.061,466.385 462.287,466.385 462.287,467.487 453.061,467.487 453.061,473.952 
		463.438,473.952 463.438,475.055 	"/>
	<polygon fill="#FFFFFF" stroke="#FFFFFF" stroke-miterlimit="10" points="451.866,475.055 451.866,458.956 463.32,458.956 
		463.32,460.063 453.061,460.063 453.061,466.385 462.287,466.385 462.287,467.487 453.061,467.487 453.061,473.952 
		463.438,473.952 463.438,475.055 	"/>
	<polygon fill="#FFFFFF" stroke="#FFFFFF" stroke-miterlimit="10" points="472.215,475.055 472.215,474.391 483.233,460.034 
		472.6,460.034 472.6,458.956 484.936,458.956 484.936,459.622 473.913,473.979 484.936,473.979 484.936,475.055 	"/>
	<polygon fill="#FFFFFF" stroke="#FFFFFF" stroke-miterlimit="10" points="472.215,475.055 472.215,474.391 483.233,460.034 
		472.6,460.034 472.6,458.956 484.936,458.956 484.936,459.622 473.913,473.979 484.936,473.979 484.936,475.055 	"/>
</g>
</svg>
