<?xml version="1.0" encoding="utf-8"?>
<!-- Generator: Adobe Illustrator 15.0.2, SVG Export Plug-In . SVG Version: 6.00 Build 0)  -->
<!DOCTYPE svg PUBLIC "-//W3C//DTD SVG 1.1//EN" "http://www.w3.org/Graphics/SVG/1.1/DTD/svg11.dtd">
<svg version="1.1" id="Layer_2" xmlns="http://www.w3.org/2000/svg" xmlns:xlink="http://www.w3.org/1999/xlink" x="0px" y="0px"
	 width="599.43px" height="595.333px" viewBox="0 0 599.43 595.333" enable-background="new 0 0 599.43 595.333"
	 xml:space="preserve">
<g>
	<g>
		<path fill="#FFFFFF" d="M459.15,351.299h-49.438l52.359-24.41C462.072,326.887,463.836,338.086,459.15,351.299"/>
		<path fill="#FFFFFF" d="M416.318,297.532c1.229,5.635,1.875,11.488,1.875,17.498c0,44.469-35.461,80.518-79.207,80.518
			c-43.744,0-79.205-36.049-79.205-80.518c0-4.527,0.387-8.961,1.095-13.285c-0.255-0.041-0.512-0.072-0.768-0.135
			c-3.171-0.758-5.488-2.982-6.955-6.684c-0.7-1.762-1.113-3.57-1.256-5.424l-40.33,12.299l13.678-57.072l30,31.926
			c0.907-1.389,1.943-2.668,3.191-3.766c2.981-2.629,6.058-3.564,9.227-2.809c1.608,0.387,2.998,1.145,4.174,2.26
			c2.356-3.82,5.009-7.436,7.945-10.791c-10.482-27.125-30.221-92.595-1.687-144.809c-16.794,0.754-32.996,3.791-48.296,8.819
			c-11.282,15.826-26.447,51.085,3.418,105.875c0,0-48.944-34.715-33.026-93.111c-45.917,24.903-79.839,69.098-90.914,121.708
			c4.961,17.908,19.671,40.553,60.934,50.939c0,0-39.3,9.406-64.776-17.43c-0.027,1.313-0.049,2.627-0.049,3.947
			c0,59.523,28.743,112.328,73.102,145.307c9.555-4.881,17.593-15.063,19.071-35.094c0,0,13.769,30.031-2.649,45.961
			c26.832,15.742,58.071,24.775,91.426,24.775c22.896,0,44.798-4.256,64.96-12.018c5.604-13.354,6.053-31.775-10.371-54.906
			c0,0,32.443,15.756,31.93,44.902c40.885-22.307,72.23-59.896,86.295-105.121L416.318,297.532z"/>
		<path fill="#FFFFFF" d="M275.904,282.002c-0.135-1.877-0.546-3.67-1.252-5.377c-0.735-1.771-1.674-3.199-2.816-4.283
			c-2.629,4.268-4.888,8.793-6.705,13.547L275.904,282.002z"/>
		<path fill="#FFFFFF" d="M260.876,301.745c2.894,0.451,5.708-0.467,8.428-2.799c1.553-1.33,2.828-2.93,3.854-4.764l-8.179-7.875
			C263.126,291.237,261.748,296.405,260.876,301.745"/>
		<path fill="#FFFFFF" d="M255.245,276.653c-1.258,1.93-2.228,4.105-2.823,6.594c-0.513,2.143-0.683,4.227-0.525,6.256l11.989-3.656
			L255.245,276.653z"/>
		<path fill="#FFFFFF" d="M275.315,288.586c-0.499,2.078-1.227,3.934-2.157,5.598l30.949,29.797l13.678-57.074l-41.88,15.096
			C276.057,284.092,275.866,286.286,275.315,288.586"/>
		<path fill="#FFFFFF" d="M264.703,286.042l0.276,0.266c0.054-0.141,0.098-0.279,0.152-0.418L264.703,286.042z"/>
		<path fill="#FFFFFF" d="M402.451,245.403c8.016,23.213,38.596,29.668,59.984,31c26.332,1.637,57.057-3.797,77.717-21.287
			c9.207-7.795,15.139-18.48,16.094-30.559c1.244-15.742-5.109-30.433-16.527-40.99c-12.381-11.448-31.164-20.421-36.314-37.672
			c-5.604-18.789,11.992-32.509,26.439-40.216c16.326-8.709,34.33-13.201,51.783-18.972c3.945-1.305,0.178-1.77-1.938-1.071
			c-15.959,5.276-32.121,9.665-47.451,16.699c-13.727,6.297-31.598,16.227-34.934,32.444c-3.736,18.172,11.514,30.332,24.23,40.283
			c7.213,5.643,14.658,11.237,20.273,18.559c4.793,6.249,6.992,14.278,8.191,21.959c4.525,29.018-19.197,47.922-44.607,54.885
			c-25.623,7.023-57.963,6.189-81.15-7.965c-7.17-4.377-13.225-10.609-15.998-18.65C407.83,242.647,402.104,244.401,402.451,245.403
			"/>
		<path fill="#FFFFFF" d="M477.756,235.557c-29.301-73.644-93.525-127.538-170.41-137.852l0.021-0.14
			c-68.646,63.723-12.836,173.464-12.836,173.464h191.383h80.23L477.756,235.557z M353.018,221.961
			c-12.389,0-22.43-10.04-22.43-22.427c0-12.387,10.041-22.428,22.43-22.428c12.387,0,22.428,10.041,22.428,22.428
			C375.445,211.921,365.404,221.961,353.018,221.961"/>
		<path fill="#FFFFFF" d="M584.066,281.465c8.482,0,15.363,6.881,15.363,15.363c0,8.486-6.881,15.365-15.363,15.365
			c-8.48,0-15.361-6.879-15.361-15.365C568.703,288.346,575.584,281.465,584.066,281.465"/>
		<path fill="#FFFFFF" d="M16.952,287.288c8.485,0,15.364,6.877,15.364,15.363c0,8.482-6.879,15.363-15.364,15.363
			S1.59,311.135,1.59,302.651C1.59,294.165,8.468,287.288,16.952,287.288"/>
		<path fill="#FFFFFF" d="M368.863,257.485c11.533,22.441,43.906,24.164,65.746,22.182c26.6-2.414,57.174-12.262,74.355-33.916
			c7.902-9.961,11.021-22.467,8.813-34.963c-1.299-7.345-4.35-15.157-8.602-21.289c-4.709-6.791-12.002-11.525-18.945-15.736
			c-13.883-8.416-33.348-16.149-36.963-33.901c-3.908-19.187,15.295-33.942,29.346-42.913c13.313-8.498,27.811-14.631,41.904-21.638
			c3.414-1.696-2.031-1.166-3.281-0.545c-15.559,7.734-31.484,14.541-46.037,24.158c-13.348,8.821-28.982,21.818-28.105,39.458
			c0.881,17.674,19.639,26.853,32.961,34.528c7.709,4.441,15.611,9.099,21.537,15.86c5.018,5.72,8.057,13.79,9.867,21.093
			c7.229,29.193-17.139,50.57-41.834,60.162c-24.641,9.568-58.189,13.188-81.973-0.734c-5.473-3.203-10.086-7.699-12.996-13.357
			C373.99,254.631,368.486,256.752,368.863,257.485"/>
		<path fill="#FFFFFF" d="M0,352.163l61.018-18.248l3.864,12.922c2.645,8.85,3.946,15.525,3.909,20.039
			c-0.039,4.518-0.983,8.689-2.833,12.518c-1.846,3.826-4.513,7.143-7.994,9.945c-3.481,2.807-7.872,5-13.168,6.584
			c-5.299,1.586-10.659,1.818-16.085,0.701c-5.425-1.119-9.971-3.475-13.64-7.066c-3.667-3.602-6.711-9.439-9.134-17.533L0,352.163z
			 M7.569,356.418l2.152,7.195c2.248,7.516,4.246,12.857,5.995,16.018c1.743,3.164,4.09,5.688,7.031,7.578
			c2.943,1.893,6.171,3.039,9.684,3.438c3.515,0.396,7.283-0.004,11.305-1.207c4.022-1.205,7.504-3.08,10.446-5.629
			c2.943-2.547,5.091-5.572,6.455-9.063c1.361-3.494,1.849-7.275,1.465-11.35c-0.384-4.076-1.691-9.84-3.921-17.301l-1.321-4.42
			L7.569,356.418z"/>
		<path fill="none" stroke="#FFFFFF" stroke-width="2" stroke-miterlimit="10" d="M0,352.163l61.018-18.248l3.864,12.922
			c2.645,8.85,3.946,15.525,3.909,20.039c-0.039,4.518-0.983,8.689-2.833,12.518c-1.846,3.826-4.513,7.143-7.994,9.945
			c-3.481,2.807-7.872,5-13.168,6.584c-5.299,1.586-10.659,1.818-16.085,0.701c-5.425-1.119-9.971-3.475-13.64-7.066
			c-3.667-3.602-6.711-9.439-9.134-17.533L0,352.163z M7.569,356.418l2.152,7.195c2.248,7.516,4.246,12.857,5.995,16.018
			c1.743,3.164,4.09,5.688,7.031,7.578c2.943,1.893,6.171,3.039,9.684,3.438c3.515,0.396,7.283-0.004,11.305-1.207
			c4.022-1.205,7.504-3.08,10.446-5.629c2.943-2.547,5.091-5.572,6.455-9.063c1.361-3.494,1.849-7.275,1.465-11.35
			c-0.384-4.076-1.691-9.84-3.921-17.301l-1.321-4.42L7.569,356.418z"/>
		<path fill="#FFFFFF" d="M50.327,407.858c5.283-3.15,10.927-4.768,16.942-4.842c6.015-0.078,11.639,1.383,16.868,4.375
			c5.23,2.99,9.428,7.145,12.598,12.457c3.17,5.311,4.867,11.008,5.089,17.096c0.221,6.084-1.107,11.76-3.987,17.031
			c-2.884,5.266-6.925,9.453-12.13,12.561c-5.205,3.105-10.804,4.691-16.79,4.75c-5.993,0.064-11.609-1.418-16.851-4.436
			c-5.248-3.02-9.453-7.186-12.623-12.496c-3.17-5.313-4.857-10.998-5.065-17.057c-0.208-6.063,1.117-11.715,3.973-16.971
			C41.208,415.077,45.199,410.918,50.327,407.858 M82.191,460.729c6.552-3.91,10.7-9.531,12.455-16.865
			c1.749-7.334,0.679-14.268-3.218-20.797c-3.989-6.68-9.594-10.91-16.815-12.684c-7.218-1.766-14.091-0.701-20.615,3.189
			c-6.527,3.893-10.673,9.492-12.439,16.805c-1.767,7.309-0.703,14.229,3.194,20.754c3.896,6.529,9.422,10.768,16.578,12.719
			C68.484,465.799,75.439,464.762,82.191,460.729"/>
		<path fill="none" stroke="#FFFFFF" stroke-width="2" stroke-miterlimit="10" d="M50.327,407.858
			c5.283-3.15,10.927-4.768,16.942-4.842c6.015-0.078,11.639,1.383,16.868,4.375c5.23,2.99,9.428,7.145,12.598,12.457
			c3.17,5.311,4.867,11.008,5.089,17.096c0.221,6.084-1.107,11.76-3.987,17.031c-2.884,5.266-6.925,9.453-12.13,12.561
			c-5.205,3.105-10.804,4.691-16.79,4.75c-5.993,0.064-11.609-1.418-16.851-4.436c-5.248-3.02-9.453-7.186-12.623-12.496
			c-3.17-5.313-4.857-10.998-5.065-17.057c-0.208-6.063,1.117-11.715,3.973-16.971C41.208,415.077,45.199,410.918,50.327,407.858z
			 M82.191,460.729c6.552-3.91,10.7-9.531,12.455-16.865c1.749-7.334,0.679-14.268-3.218-20.797
			c-3.989-6.68-9.594-10.91-16.815-12.684c-7.218-1.766-14.091-0.701-20.615,3.189c-6.527,3.893-10.673,9.492-12.439,16.805
			c-1.767,7.309-0.703,14.229,3.194,20.754c3.896,6.529,9.422,10.768,16.578,12.719C68.484,465.799,75.439,464.762,82.191,460.729z"
			/>
		<polygon fill="#FFFFFF" points="75.696,502.397 118.094,454.874 119.173,455.834 118.913,520.985 151.39,484.581 156.187,488.858 
			113.789,536.379 112.71,535.417 112.758,470.915 80.695,506.856 		"/>
		<polygon fill="none" stroke="#FFFFFF" stroke-width="2" stroke-miterlimit="10" points="75.696,502.397 118.094,454.874 
			119.173,455.834 118.913,520.985 151.39,484.581 156.187,488.858 113.789,536.379 112.71,535.417 112.758,470.915 80.695,506.856 
					"/>
		<path fill="#FFFFFF" d="M260.696,538.084l-5.787,2.596c-4.26-8.486-11.01-13.781-20.246-15.883
			c-7.533-1.711-14.61-0.592-21.232,3.363c-6.623,3.953-10.789,9.693-12.498,17.215c-1.713,7.525-0.479,14.416,3.7,20.674
			c4.179,6.256,10.267,10.291,18.272,12.109c8.943,2.033,17.16,0.326,24.65-5.129l4.097,4.842c-4.036,3.33-8.677,5.502-13.921,6.523
			c-5.245,1.021-10.752,0.877-16.515-0.434c-10.061-2.289-17.594-7.273-22.589-14.961c-4.999-7.686-6.419-16.285-4.256-25.797
			c1.337-5.885,4.056-10.979,8.165-15.295c4.102-4.311,9.109-7.281,15.02-8.91c5.906-1.629,11.89-1.756,17.951-0.377
			c6.063,1.377,11.251,3.738,15.562,7.084C255.383,529.055,258.592,533.178,260.696,538.084"/>
		<path fill="none" stroke="#FFFFFF" stroke-width="2" stroke-miterlimit="10" d="M260.696,538.084l-5.787,2.596
			c-4.26-8.486-11.01-13.781-20.246-15.883c-7.533-1.711-14.61-0.592-21.232,3.363c-6.623,3.953-10.789,9.693-12.498,17.215
			c-1.713,7.525-0.479,14.416,3.7,20.674c4.179,6.256,10.267,10.291,18.272,12.109c8.943,2.033,17.16,0.326,24.65-5.129l4.097,4.842
			c-4.036,3.33-8.677,5.502-13.921,6.523c-5.245,1.021-10.752,0.877-16.515-0.434c-10.061-2.289-17.594-7.273-22.589-14.961
			c-4.999-7.686-6.419-16.285-4.256-25.797c1.337-5.885,4.056-10.979,8.165-15.295c4.102-4.311,9.109-7.281,15.02-8.91
			c5.906-1.629,11.89-1.756,17.951-0.377c6.063,1.377,11.251,3.738,15.562,7.084C255.383,529.055,258.592,533.178,260.696,538.084z"
			/>
		<polygon fill="#FFFFFF" points="273.451,526.147 310.719,527.465 310.496,533.764 279.743,532.674 279.039,552.528 
			309.523,553.608 309.303,559.813 278.822,558.735 277.933,583.733 308.42,584.811 308.195,591.104 271.201,589.795 		"/>
		<polygon fill="none" stroke="#FFFFFF" stroke-width="2" stroke-miterlimit="10" points="273.451,526.147 310.719,527.465 
			310.496,533.764 279.743,532.674 279.039,552.528 309.523,553.608 309.303,559.813 278.822,558.735 277.933,583.733 
			308.42,584.811 308.195,591.104 271.201,589.795 		"/>
		<polygon fill="#FFFFFF" points="313.395,528.77 320.35,527.549 350.361,573.877 363.141,520.032 370.094,518.809 353.486,588.012 
			352.15,588.247 		"/>
		<polygon fill="none" stroke="#FFFFFF" stroke-width="2" stroke-miterlimit="10" points="313.395,528.77 320.35,527.549 
			350.361,573.877 363.141,520.032 370.094,518.809 353.486,588.012 352.15,588.247 		"/>
		
			<rect x="387.345" y="512.406" transform="matrix(-0.9501 0.312 -0.312 -0.9501 931.5145 939.4656)" fill="#FFFFFF" width="6.517" height="63.689"/>
		
			<rect x="387.345" y="512.406" transform="matrix(-0.9501 0.312 -0.312 -0.9501 931.5145 939.4656)" fill="none" stroke="#FFFFFF" stroke-width="2" stroke-miterlimit="10" width="6.517" height="63.689"/>
		<path fill="#FFFFFF" d="M454.879,492.303l-2.689,5.748c-8.77-3.641-17.336-3.236-25.699,1.211
			c-6.82,3.627-11.441,9.102-13.875,16.422c-2.426,7.318-1.826,14.385,1.791,21.197c3.625,6.813,9.064,11.223,16.314,13.227
			c7.25,2.006,14.498,1.08,21.746-2.771c8.098-4.307,13.197-10.973,15.303-19.998l6.268,0.992
			c-0.883,5.154-2.973,9.834-6.271,14.033c-3.303,4.203-7.564,7.689-12.787,10.467c-9.105,4.846-18.066,5.992-26.871,3.441
			c-8.807-2.549-15.502-8.133-20.082-16.746c-2.834-5.326-4.104-10.961-3.814-16.91c0.287-5.947,2.137-11.467,5.543-16.561
			c3.408-5.096,7.855-9.104,13.344-12.021c5.488-2.916,10.955-4.52,16.41-4.807C444.953,488.938,450.076,489.965,454.879,492.303"/>
		<path fill="none" stroke="#FFFFFF" stroke-width="2" stroke-miterlimit="10" d="M454.879,492.303l-2.689,5.748
			c-8.77-3.641-17.336-3.236-25.699,1.211c-6.82,3.627-11.441,9.102-13.875,16.422c-2.426,7.318-1.826,14.385,1.791,21.197
			c3.625,6.813,9.064,11.223,16.314,13.227c7.25,2.006,14.498,1.08,21.746-2.771c8.098-4.307,13.197-10.973,15.303-19.998
			l6.268,0.992c-0.883,5.154-2.973,9.834-6.271,14.033c-3.303,4.203-7.564,7.689-12.787,10.467
			c-9.105,4.846-18.066,5.992-26.871,3.441c-8.807-2.549-15.502-8.133-20.082-16.746c-2.834-5.326-4.104-10.961-3.814-16.91
			c0.287-5.947,2.137-11.467,5.543-16.561c3.408-5.096,7.855-9.104,13.344-12.021c5.488-2.916,10.955-4.52,16.41-4.807
			C444.953,488.938,450.076,489.965,454.879,492.303z"/>
		<polygon fill="#FFFFFF" points="454.57,476.893 459.295,472.274 477.959,491.368 501.582,468.276 482.922,449.178 487.58,444.627 
			532.098,490.172 527.439,494.725 505.924,472.715 482.299,495.809 503.813,517.819 499.088,522.436 		"/>
		<polygon fill="none" stroke="#FFFFFF" stroke-width="2" stroke-miterlimit="10" points="454.57,476.893 459.295,472.274 
			477.959,491.368 501.582,468.276 482.922,449.178 487.58,444.627 532.098,490.172 527.439,494.725 505.924,472.715 
			482.299,495.809 503.813,517.819 499.088,522.436 		"/>
		<path fill="#FFFFFF" d="M521.168,455.36c-5.445-2.861-9.77-6.838-12.977-11.93c-3.197-5.092-4.887-10.646-5.063-16.672
			c-0.176-6.02,1.176-11.77,4.053-17.244c2.875-5.475,6.854-9.896,11.928-13.264c5.074-3.363,10.611-5.193,16.609-5.482
			c6-0.289,11.678,0.975,17.047,3.793c5.365,2.82,9.637,6.768,12.813,11.846c3.176,5.08,4.848,10.641,5.008,16.691
			c0.162,6.049-1.197,11.809-4.072,17.283c-2.879,5.479-6.848,9.885-11.906,13.223c-5.063,3.34-10.578,5.162-16.551,5.469
			C532.084,459.375,526.455,458.137,521.168,455.36 M549.646,400.59c-6.752-3.549-13.715-4.152-20.887-1.82
			c-7.174,2.332-12.523,6.861-16.063,13.596c-3.617,6.889-4.303,13.877-2.045,20.957c2.256,7.082,6.75,12.393,13.479,15.928
			c6.727,3.533,13.666,4.15,20.826,1.844c7.152-2.309,12.502-6.824,16.037-13.559c3.533-6.727,4.271-13.654,2.199-20.773
			C561.125,409.637,556.607,404.25,549.646,400.59"/>
		<path fill="none" stroke="#FFFFFF" stroke-width="2" stroke-miterlimit="10" d="M521.168,455.36
			c-5.445-2.861-9.77-6.838-12.977-11.93c-3.197-5.092-4.887-10.646-5.063-16.672c-0.176-6.02,1.176-11.77,4.053-17.244
			c2.875-5.475,6.854-9.896,11.928-13.264c5.074-3.363,10.611-5.193,16.609-5.482c6-0.289,11.678,0.975,17.047,3.793
			c5.365,2.82,9.637,6.768,12.813,11.846c3.176,5.08,4.848,10.641,5.008,16.691c0.162,6.049-1.197,11.809-4.072,17.283
			c-2.879,5.479-6.848,9.885-11.906,13.223c-5.063,3.34-10.578,5.162-16.551,5.469C532.084,459.375,526.455,458.137,521.168,455.36z
			 M549.646,400.59c-6.752-3.549-13.715-4.152-20.887-1.82c-7.174,2.332-12.523,6.861-16.063,13.596
			c-3.617,6.889-4.303,13.877-2.045,20.957c2.256,7.082,6.75,12.393,13.479,15.928c6.727,3.533,13.666,4.15,20.826,1.844
			c7.152-2.309,12.502-6.824,16.037-13.559c3.533-6.727,4.271-13.654,2.199-20.773C561.125,409.637,556.607,404.25,549.646,400.59z"
			/>
		<polygon fill="#FFFFFF" points="587.928,385.485 525.701,371.909 526.014,370.493 582.881,338.713 535.217,328.311 
			536.59,322.034 598.811,335.61 598.504,337.026 542.301,368.674 589.355,378.944 		"/>
		<polygon fill="none" stroke="#FFFFFF" stroke-width="2" stroke-miterlimit="10" points="587.928,385.485 525.701,371.909 
			526.014,370.493 582.881,338.713 535.217,328.311 536.59,322.034 598.811,335.61 598.504,337.026 542.301,368.674 
			589.355,378.944 		"/>
		<path fill="#FFFFFF" d="M381.498,100.882l15.803-96.654L246.56,6.897c0,0,26.811,68.363,30.994,92.031l-29.423-0.552
			l-0.403,21.429l172.741,3.247l0.402-21.429L381.498,100.882z"/>
		<polygon fill="#FFFFFF" points="495.1,388.823 499.35,380.323 505.447,397.952 502.719,403.407 		"/>
		<polygon fill="none" stroke="#FFFFFF" stroke-width="2" stroke-miterlimit="10" points="495.1,388.823 499.35,380.323 
			505.447,397.952 502.719,403.407 		"/>
	</g>
</g>
</svg>
