<?xml version="1.0" encoding="utf-8"?>
<!-- Generator: Adobe Illustrator 15.0.2, SVG Export Plug-In . SVG Version: 6.00 Build 0)  -->
<!DOCTYPE svg PUBLIC "-//W3C//DTD SVG 1.1//EN" "http://www.w3.org/Graphics/SVG/1.1/DTD/svg11.dtd">
<svg version="1.1" id="Layer_2" xmlns="http://www.w3.org/2000/svg" xmlns:xlink="http://www.w3.org/1999/xlink" x="0px" y="0px"
	 width="712.301px" height="290.275px" viewBox="0 0 712.301 290.275" enable-background="new 0 0 712.301 290.275"
	 xml:space="preserve">
<g>
	<polygon fill="#FFFFFF" points="53.866,105.224 81.865,81.84 105.247,61.533 139.087,89.226 113.861,110.455 84.632,86.148 
		84.632,167.068 111.399,189.523 128.938,174.447 133.858,179.065 116.324,193.836 91.708,215.368 53.866,183.99 	"/>
	<polygon fill="#FFFFFF" points="254.466,69.84 269.233,82.454 293.849,61.537 317.539,80.917 292.308,102.144 273.235,85.837 
		268.927,89.838 268.927,191.676 238.159,216.91 238.159,107.992 223.702,95.995 	"/>
	<path fill="#FFFFFF" d="M430.754,60.611L449.219,76.3v101.227l16.92,14.148l-28.305,23.692l-18.461-15.689l-0.918-99.07
		l-17.852-14.771L430.754,60.611z M431.374,0l27.074,22.151l-27.383,23.691L403.678,23.38L431.374,0z"/>
	<polygon fill="#FFFFFF" points="614.879,120.746 605.52,128.913 587.981,114.144 588.284,90.15 625.135,120.419 658.434,91.376 
		653.208,87.383 644.59,94.761 603.667,61.537 559.674,98.456 559.674,128.298 588.827,152.493 597.206,145.22 618.129,162.14 
		618.129,188.912 575.672,155.241 546.135,180.914 551.059,185.526 556.901,180.295 599.975,215.368 624.592,194.755 
		646.747,176.601 646.747,146.759 	"/>
	<g>
		<polygon fill="#FFFFFF" points="490.231,265.249 496.821,265.249 493.553,257.434 		"/>
		<polygon fill="#FFFFFF" points="205.637,265.249 212.226,265.249 208.961,257.434 		"/>
		<path fill="#FFFFFF" d="M379.348,256.384h-4.213v11.576h4.213c3.512,0,5.941-2.31,5.941-5.817
			C385.29,258.388,382.918,256.384,379.348,256.384z"/>
		<path fill="#FFFFFF" d="M294.312,256.045c-3.42,0-6.188,2.744-6.188,6.129c0,3.414,2.769,6.158,6.188,6.158
			c3.351,0,6.123-2.744,6.123-6.158C300.435,258.789,297.663,256.045,294.312,256.045z"/>
		<path fill="#FFFFFF" d="M176.193,256.384h-4.371v6.373h4.338c1.726,0,3.114-1.449,3.114-3.198
			C179.274,257.833,177.887,256.384,176.193,256.384z"/>
		<path fill="#FFFFFF" d="M113.032,256.384h-4.004v6.869h4.004c2.03,0,3.414-1.199,3.414-3.482
			C116.445,257.525,115.062,256.417,113.032,256.384z"/>
		<polygon fill="#FFFFFF" points="138.442,265.249 145.033,265.249 141.767,257.434 		"/>
		<path fill="#FFFFFF" d="M0,233.358v56.917h712.302v-56.917H0z M298.647,242.535l1.604,4.027l-9.823,3.047l-1.508-3.047
			L298.647,242.535z M54.418,272.639l-3.139-5.203h-3.693v5.203h-5.05v-20.931h10.13c4.249,0,7.446,3.289,7.446,7.85
			c0,3.018-1.476,5.57-3.72,6.772l4.309,6.309H54.418z M90.173,256.384H79.183v3.603h9.176v4.373h-9.176v3.603h10.991v4.677H74.137
			v-20.93h16.037V256.384z M113.583,267.9h-4.555v4.739h-5.079v-20.931h9.668c5.355,0,7.941,4,7.941,8.062
			C121.558,263.895,118.938,267.9,113.583,267.9z M148.139,272.639l-1.354-3.262H136.69l-1.388,3.262h-5.355l8.959-20.931h5.631
			l8.99,20.931H148.139z M178.655,272.639l-3.139-5.203h-3.693v5.203h-5.05v-20.931h10.13c4.249,0,7.446,3.289,7.446,7.85
			c0,3.018-1.476,5.57-3.72,6.772l4.309,6.309H178.655z M215.333,272.639l-1.354-3.262h-10.096l-1.387,3.262h-5.354l8.959-20.931
			h5.629l8.992,20.931H215.333z M242.283,268.267c2.584,0,4.496-1.326,5.51-3.17l4.28,2.464c-1.877,3.141-5.356,5.45-9.79,5.45
			c-6.559,0-11.326-4.809-11.326-10.994c0-5.814,4.768-10.682,11.326-10.682c4.462,0,7.969,2.094,9.851,5.23l-4.282,2.495
			c-0.979-1.903-2.922-3.17-5.569-3.17c-3.664,0-6.218,2.678-6.218,6.124C236.064,265.344,238.62,268.267,242.283,268.267z
			 M270.34,272.639h-5.052v-20.931h5.052V272.639z M294.312,273.011c-6.004,0-10.808-4.867-10.808-10.838
			c0-5.941,4.803-10.838,10.808-10.838c5.94,0,10.802,4.896,10.802,10.838C305.112,268.144,300.251,273.011,294.312,273.011z
			 M338.71,272.639h-5.08l-10.591-12.805v12.805h-5.078v-20.931h5.078l10.591,12.771v-12.771h5.08V272.639z M379.348,272.639h-9.268
			v-20.903l9.268-0.025c6.896-0.029,11.055,4.398,11.055,10.434C390.401,268.24,385.877,272.639,379.348,272.639z M419.809,256.384
			h-10.992v3.603h9.176v4.373h-9.176v3.603h10.992v4.677h-16.037v-20.93h16.037V256.384L419.809,256.384z M461.192,268.267
			c2.584,0,4.49-1.326,5.506-3.17l4.281,2.464c-1.875,3.141-5.355,5.45-9.787,5.45c-6.563,0-11.33-4.809-11.33-10.994
			c0-5.814,4.768-10.682,11.33-10.682c4.461,0,7.971,2.094,9.848,5.23l-4.281,2.495c-0.98-1.903-2.922-3.17-5.564-3.17
			c-3.666,0-6.223,2.678-6.223,6.124C454.971,265.344,457.526,268.267,461.192,268.267z M499.928,272.639l-1.354-3.262h-10.098
			l-1.387,3.262h-5.357l8.961-20.931h5.631l8.994,20.931H499.928z M534.598,272.639h-16.039v-20.931h5.055v16.251h10.984V272.639
			L534.598,272.639z M567.987,272.639h-20.842v-4.521l13.545-11.732h-12.748v-4.681h19.828v4.465l-13.176,11.792h13.393V272.639
			L567.987,272.639z M599.458,272.639l-1.354-3.262h-10.098l-1.387,3.262h-5.359l8.963-20.931h5.631l8.992,20.931H599.458z
			 M627.364,272.639h-9.268v-20.903l9.268-0.025c6.891-0.029,11.049,4.398,11.049,10.434
			C638.413,268.24,633.883,272.639,627.364,272.639z M661.235,273.009c-6.006,0-10.809-4.86-10.809-10.835
			c0-5.941,4.803-10.838,10.809-10.838c5.939,0,10.805,4.896,10.805,10.838C672.04,268.148,667.176,273.009,661.235,273.009z"/>
		<path fill="#FFFFFF" d="M51.958,256.384h-4.372v6.373h4.338c1.726,0,3.113-1.449,3.113-3.198
			C55.039,257.833,53.65,256.384,51.958,256.384z"/>
		<path fill="#FFFFFF" d="M661.235,256.048c-3.418,0-6.191,2.741-6.191,6.126c0,3.419,2.773,6.158,6.191,6.158
			c3.354,0,6.125-2.739,6.125-6.158C667.36,258.789,664.588,256.048,661.235,256.048z"/>
		<path fill="#FFFFFF" d="M627.364,256.384h-4.223v11.576h4.223c3.506,0,5.939-2.31,5.939-5.817
			C633.305,258.388,630.932,256.384,627.364,256.384z"/>
		<polygon fill="#FFFFFF" points="589.76,265.249 596.35,265.249 593.084,257.434 		"/>
	</g>
</g>
</svg>
