<?xml version="1.0" encoding="utf-8"?>
<!-- Generator: Adobe Illustrator 15.0.2, SVG Export Plug-In . SVG Version: 6.00 Build 0)  -->
<!DOCTYPE svg PUBLIC "-//W3C//DTD SVG 1.1//EN" "http://www.w3.org/Graphics/SVG/1.1/DTD/svg11.dtd">
<svg version="1.1" id="Layer_2" xmlns="http://www.w3.org/2000/svg" xmlns:xlink="http://www.w3.org/1999/xlink" x="0px" y="0px"
	 width="217.982px" height="171.919px" viewBox="0 0 217.982 171.919" enable-background="new 0 0 217.982 171.919"
	 xml:space="preserve">
<g>
	<path fill="#FFFFFF" d="M54.789,158.656c-1.553-0.279-3.336-0.004-4.708,0.877c-0.68,0.436-1.32,1.027-1.687,1.744
		c-0.396,0.775-0.259,1.775-0.908,2.434c-0.76,0.768-2.158,0.381-2.943-0.139c-1.195-0.791-1.324-2.393-2.429-3.275
		c-1.785-1.43-4.319-1.41-6.363-0.553c-1.028,0.432-1.983,1.08-2.702,1.92c-0.749,0.873-0.681,1.936-1.31,2.803
		c-0.519,0.713-1.598,0.76-2.405,0.635c-2.259-0.348-1.772-3.533-2.856-4.963c-2.295-3.027-6.466-3.199-9.188-0.643
		c-1.161,1.092-0.691,3.037-2.394,3.627c-1.202,0.418-2.263-0.211-3.321-0.783c-0.52-0.279-1.038-0.547-1.572-0.67
		c-2.416-0.561-1.618,1.178-0.501,2.084c0.915,0.74,2.371,1.686,3.575,1.887c2.353,0.391,4.172-0.355,5.632-1.604
		c1.306-1.117,1.037-4.012,3.318-4.014c1.9-0.002,2.063,2.119,2.126,3.496c0.236,4.971,8.91,5.35,11.152,1.652
		c0.464-0.766,0.281-1.852,0.922-2.516c0.288-0.299,0.712-0.436,1.125-0.51c1.587-0.291,2.43,0.42,2.735,1.854
		c0.427,2.016,3.123,2.42,4.87,2.66c1.151,0.156,2.247,0.01,3.254-0.385c1.014-0.396,2.098-0.98,2.737-1.875
		c0.572-0.801,0.408-1.818,0.959-2.59c0.324-0.451,0.911-0.662,1.473-0.676c1.139-0.021,2.043,0.561,3.034,1.002
		c0.722,0.324,2.407,1.125,2.999,0.191C60.394,160.775,55.858,158.849,54.789,158.656"/>
	<path fill="#FFFFFF" d="M164.071,158.656c1.554-0.279,3.337-0.004,4.71,0.877c0.679,0.436,1.318,1.027,1.684,1.744
		c0.397,0.775,0.26,1.775,0.909,2.434c0.76,0.768,2.158,0.381,2.942-0.139c1.197-0.791,1.326-2.393,2.43-3.275
		c1.784-1.43,4.318-1.41,6.364-0.553c1.027,0.432,1.984,1.08,2.7,1.92c0.749,0.873,0.684,1.936,1.312,2.803
		c0.519,0.713,1.598,0.76,2.403,0.635c2.261-0.348,1.772-3.533,2.857-4.963c2.295-3.027,6.466-3.199,9.188-0.643
		c1.162,1.092,0.691,3.037,2.395,3.627c1.202,0.418,2.266-0.211,3.321-0.783c0.521-0.279,1.039-0.547,1.573-0.67
		c2.417-0.561,1.617,1.178,0.502,2.084c-0.916,0.74-2.371,1.686-3.577,1.887c-2.352,0.391-4.17-0.355-5.631-1.604
		c-1.306-1.117-1.039-4.012-3.318-4.014c-1.902-0.002-2.063,2.119-2.128,3.496c-0.232,4.971-8.909,5.35-11.15,1.652
		c-0.463-0.766-0.28-1.852-0.922-2.516c-0.289-0.299-0.713-0.436-1.128-0.51c-1.585-0.291-2.429,0.42-2.732,1.854
		c-0.428,2.016-3.123,2.42-4.87,2.66c-1.149,0.156-2.246,0.01-3.254-0.385c-1.015-0.396-2.101-0.98-2.738-1.875
		c-0.572-0.801-0.408-1.818-0.961-2.59c-0.323-0.451-0.91-0.662-1.474-0.676c-1.14-0.021-2.043,0.561-3.034,1.002
		c-0.722,0.324-2.407,1.125-2.999,0.191C158.468,160.775,163.002,158.849,164.071,158.656"/>
	<path fill="#FFFFFF" d="M75.242,169.784l-0.098-0.063c-0.042-0.016-0.428-0.232-0.428-2.295v-12.648l-0.011,0.004
		c-0.011-0.848-0.902-1.229-0.925-1.238c-0.166-0.047-0.358-0.076-0.584-0.076h-0.464c-1.167,0-2.359,0.107-2.359,0.883v0.162
		c0,0.207,0.124,0.426,0.814,0.98c0.349,0.174,0.527,0.682,0.527,1.508v0.711c0,0.174-0.028,0.365-0.058,0.5
		c-0.049,0.098-0.206,0.396-0.876,0.398l-1.361-0.088c-1.31,0-2.455,0.313-3.422,0.941c-1.629,1.264-2.455,3.117-2.455,5.512v0.895
		c0,1.184,0.189,2.262,0.56,3.207c0.683,1.861,2.001,2.805,3.92,2.805h0.242c0.663,0,1.305-0.129,1.94-0.395
		c0.649-0.344,0.974-0.416,1.13-0.416c0.088,0,0.176,0.018,0.269,0.053c0.532,0.469,1.093,0.709,1.667,0.709h0.167
		c0.383,0,0.693-0.008,0.934-0.027c0.403-0.025,1.63-0.107,1.63-0.93C76.001,170.593,75.776,170.267,75.242,169.784 M71.714,165.845
		c0,0.967-0.103,1.66-0.279,2.023c-0.689,1.027-1.45,1.549-2.259,1.549c-0.242,0-0.52-0.063-0.799-0.174
		c-1.066-0.541-1.606-1.949-1.606-4.184c0-1.158,0.185-2.152,0.541-2.939c0.551-1.076,1.273-1.6,2.237-1.6
		c0.481,0,0.874,0.133,1.2,0.412l0.078,0.049c0.404,0.184,0.887,0.895,0.887,3.232V165.845z M75.343,170.876L75.343,170.876
		L75.343,170.876z"/>
	<path fill="#FFFFFF" d="M88.175,162.818c-0.631-2.842-2.499-4.279-5.552-4.279c-1.376,0-2.57,0.332-3.572,1
		c-1.578,1.229-2.379,3.068-2.379,5.461v0.82c0,1.051,0.189,2.094,0.565,3.109c0.822,2.008,2.532,3.025,5.089,3.025
		c1.475,0,2.695-0.318,3.643-0.953c1.58-1.213,2.383-3.014,2.383-5.354v-1.152C88.35,164.005,88.292,163.445,88.175,162.818
		 M82.62,169.945c-0.442,0-0.842-0.131-1.203-0.389c-0.995-0.828-1.499-2.313-1.5-4.414c0.048-0.99,0.137-1.758,0.264-2.266
		c0.49-1.561,1.246-2.32,2.31-2.32c0.198,0,0.387,0.033,0.546,0.086c1.371,0.557,2.065,2.158,2.065,4.764
		c0,1.104-0.173,2.096-0.506,2.922C84.067,169.415,83.423,169.945,82.62,169.945"/>
	<path fill="#FFFFFF" d="M100.622,161.616c-0.694-2.012-2.065-3.033-4.073-3.033h-0.204c-0.606,0-1.177,0.098-1.728,0.305
		c-0.877,0.436-1.179,0.482-1.268,0.482H93.2c-0.106,0-0.304,0-0.304-0.59v-4.074c0-0.088-0.014-0.211-0.067-0.443
		c-0.167-0.363-0.555-0.795-1.455-0.795H90.91c-1.167,0-2.358,0.107-2.358,0.883v0.111c0,0.252,0.2,0.531,0.69,0.957l0.083,0.055
		c0.363,0.162,0.549,0.668,0.549,1.502v13.594c0,0.383,0.162,1.039,1.32,1.15c0.969-0.121,1.139-0.135,1.168-0.135l0.112-0.004
		c1.297,0.227,2.236,0.338,2.866,0.338c1.202,0,2.219-0.215,3.031-0.645c1.812-1.039,2.733-3.031,2.733-5.918v-0.539
		C101.104,163.747,100.942,162.677,100.622,161.616 M95.415,169.845c-0.591,0-1.114-0.219-1.643-0.707
		c-0.256-0.168-0.688-0.838-0.688-3.416v-1.424c0-0.918,0.12-1.574,0.341-1.922c0.724-0.947,1.431-1.428,2.103-1.428h0.259
		c0.037,0,0.159,0.01,0.46,0.088c1.206,0.467,1.817,1.924,1.817,4.33c0,1.096-0.174,2.084-0.504,2.91
		C97.03,169.331,96.329,169.845,95.415,169.845"/>
	<path fill="#FFFFFF" d="M107.072,169.993l-0.096-0.072c-0.376-0.195-0.585-0.932-0.585-2.076v-13.139
		c0-0.16-0.031-0.328-0.117-0.541c-0.261-0.461-0.732-0.697-1.404-0.697h-0.464c-0.322,0-0.618,0.014-0.88,0.039
		c-1.007,0.074-1.515,0.383-1.515,0.93c0,0.24,0.16,0.52,1.003,1.207c0.039,0.025,0.373,0.307,0.373,2.828v8.736
		c0,2.125-0.292,2.395-0.372,2.455c-0.74,0.758-0.8,0.961-0.8,1.129v0.156l0.038,0.16c0.224,0.406,0.715,0.613,1.463,0.613h2.197
		c0.376,0,0.713-0.041,1.002-0.123l0.078-0.033c0.077-0.045,0.152-0.098,0.224-0.154v-1.24
		C107.172,170.113,107.128,170.058,107.072,169.993"/>
	<path fill="#FFFFFF" d="M119.035,169.948l-0.083-0.055c-0.168-0.082-0.56-0.488-0.56-2.441v-4.881c0-0.963-0.162-1.783-0.487-2.453
		c-0.583-1.059-1.737-1.596-3.435-1.596c-1.191,0-2.438,0.27-3.67,0.789c-1.23,0.375-1.854,1.029-1.854,2.008
		c0,0.217,0.05,0.398,0.134,0.514c0.243,0.447,0.657,0.688,1.201,0.688c0.513,0,0.971-0.209,1.393-0.668
		c0.68-1.068,1.471-1.443,2.443-1.049c0.816,0.338,1.211,1.141,1.211,2.455v0.107c0,0.199-0.069,0.488-0.636,0.684
		c-1.278,0.219-2.204,0.395-2.77,0.521c-2.383,0.656-3.592,1.959-3.592,3.875v0.16c0,0.553,0.11,1.076,0.335,1.572
		c0.578,1.129,1.624,1.701,3.103,1.701h0.278c0.539,0,1.09-0.088,1.688-0.277c0.979-0.463,1.347-0.531,1.462-0.531
		c0.125,0.004,0.236,0.037,0.301,0.066c0.503,0.387,1.146,0.584,1.912,0.584h0.54c0.377,0,0.713-0.041,1.001-0.125l0.078-0.031
		c0.249-0.148,0.534-0.357,0.534-0.664v-0.111C119.565,170.552,119.405,170.302,119.035,169.948 M115.555,166.691v0.111
		c0,0.506-0.113,0.969-0.311,1.344c-0.752,1.057-1.557,1.473-2.485,1.32c-1.025-0.307-1.144-0.855-1.144-1.24
		c0-0.529,0.268-0.99,0.786-1.385c0.831-0.48,1.567-0.734,2.187-0.752c0.069,0.025,0.143,0.033,0.232,0.033
		C115.555,166.212,115.555,166.534,115.555,166.691"/>
	<path fill="#FFFFFF" d="M131.856,169.784l-0.097-0.063c-0.042-0.016-0.427-0.232-0.427-2.295v-12.723
		c0-0.045-0.006-0.109-0.018-0.182c0-0.006-0.004-0.01-0.004-0.016c-0.018-0.496-0.657-0.846-0.823-0.93
		c-0.187-0.066-0.405-0.109-0.675-0.109h-0.466c-1.168,0-2.359,0.105-2.359,0.883v0.16c0,0.207,0.125,0.426,0.815,0.98
		c0.35,0.176,0.525,0.684,0.525,1.508v0.713c0,0.174-0.026,0.365-0.056,0.498c-0.051,0.1-0.208,0.396-0.878,0.398l-1.36-0.088
		c-1.312,0-2.455,0.313-3.423,0.943c-1.629,1.262-2.453,3.115-2.453,5.51v0.896c0,1.182,0.19,2.262,0.559,3.205
		c0.683,1.861,2.001,2.805,3.92,2.805h0.243c0.661,0,1.305-0.129,1.94-0.396c0.65-0.342,0.972-0.414,1.128-0.414
		c0.09,0,0.178,0.018,0.27,0.053c0.533,0.469,1.092,0.709,1.669,0.709h0.167c0.381,0,0.691-0.008,0.932-0.027
		c0.405-0.025,1.631-0.107,1.631-0.928C132.617,170.593,132.389,170.267,131.856,169.784 M128.328,164.214v1.631
		c0,0.967-0.102,1.66-0.28,2.023c-0.688,1.027-1.446,1.549-2.256,1.549c-0.243,0-0.521-0.063-0.8-0.174
		c-1.067-0.541-1.606-1.949-1.606-4.184c0-1.158,0.185-2.152,0.54-2.939c0.555-1.076,1.271-1.6,2.239-1.6
		c0.48,0,0.875,0.133,1.202,0.412l0.074,0.049C127.844,161.165,128.328,161.872,128.328,164.214 M131.958,170.876L131.958,170.876
		L131.958,170.876z"/>
	<path fill="#FFFFFF" d="M144.499,169.948l-0.08-0.055c-0.168-0.082-0.562-0.488-0.562-2.441v-4.881
		c0-0.963-0.161-1.783-0.487-2.453c-0.582-1.059-1.735-1.596-3.434-1.596c-1.193,0-2.438,0.27-3.672,0.789
		c-1.229,0.375-1.852,1.029-1.852,2.008c0,0.217,0.051,0.398,0.132,0.514c0.244,0.447,0.66,0.688,1.204,0.688
		c0.513,0,0.97-0.209,1.393-0.668c0.68-1.068,1.471-1.443,2.442-1.049c0.817,0.338,1.212,1.141,1.212,2.455v0.107
		c0,0.199-0.07,0.488-0.638,0.684c-1.276,0.219-2.202,0.395-2.767,0.521c-2.386,0.656-3.594,1.959-3.594,3.875v0.16
		c0,0.553,0.11,1.076,0.335,1.572c0.578,1.129,1.624,1.701,3.103,1.701h0.279c0.538,0,1.09-0.088,1.685-0.277
		c0.979-0.463,1.349-0.531,1.463-0.531c0.125,0.004,0.236,0.037,0.3,0.066c0.504,0.387,1.146,0.584,1.913,0.584h0.538
		c0.379,0,0.715-0.041,1.004-0.125l0.075-0.031c0.249-0.148,0.535-0.357,0.535-0.664v-0.111
		C145.029,170.552,144.872,170.302,144.499,169.948 M141.02,166.691v0.111c0,0.506-0.112,0.969-0.311,1.344
		c-0.749,1.057-1.553,1.473-2.482,1.32c-1.026-0.307-1.144-0.855-1.144-1.24c0-0.529,0.268-0.99,0.786-1.385
		c0.831-0.48,1.566-0.734,2.187-0.752c0.069,0.025,0.149,0.033,0.233,0.033C141.02,166.212,141.02,166.534,141.02,166.691"/>
	<path fill="#FFFFFF" d="M155.112,166.47c-0.416-0.922-1.322-1.711-2.707-2.352c-2.332-0.955-2.927-1.746-2.989-2.264
		c0.038-0.096,0.048-0.197,0.049-0.275c0.292-0.715,0.778-1.047,1.532-1.047h0.13c0.491,0,0.95,0.197,1.352,0.547
		c0.541,0.77,1.073,1.145,1.684,1.145c0.355,0,0.977-0.137,1.11-1.113v-0.934c0-0.385-0.129-0.721-0.438-1.041
		c-0.582-0.404-1.671-0.598-3.334-0.598c-0.819,0-1.546,0.078-2.166,0.229c-1.979,0.506-2.984,1.707-2.984,3.57
		c0,1.131,0.428,2.053,1.29,2.758c0.735,0.533,1.626,1.027,2.646,1.455c1.354,0.619,2.04,1.293,2.04,2.008
		c0,0.039-0.008,0.139-0.057,0.381c-0.378,0.719-0.945,1.068-1.735,1.068c-0.678,0-1.262-0.277-1.741-0.789
		c-0.443-0.783-0.971-1.184-1.608-1.184h-0.007c-0.927,0.133-1.065,0.76-1.065,1.125v1.006c0,0.299,0.05,0.531,0.154,0.715
		c0.422,0.734,1.7,1.074,4.028,1.074h0.092c0.701,0,1.371-0.061,2.009-0.18c1.999-0.455,3.013-1.723,3.013-3.77v-0.084
		C155.403,167.39,155.306,166.906,155.112,166.47"/>
	<path fill="#FFFFFF" d="M216.991,133.55c-0.124-0.406-0.268-0.896-0.431-1.459c-16.743-57.425-52.432-76.57-81.032-82.206v-0.008
		c-0.068-0.01-0.136-0.021-0.204-0.032c-1.39-0.27-2.767-0.521-4.119-0.731l-0.018,0.112c-11.004-1.55-20.637-2.06-33.729-0.596
		c-30.73,3.433-57.605,17.81-75.675,40.485l-1.368,1.713c-10.069,12.578-23.861,29.802-18.969,47.253
		c0.972,3.467,4.039,7.227,8.025,7.709c0.162,0.021,0.322,0.023,0.483,0.031v0.014c0.089,0,0.176,0,0.264,0
		c0.021,0,0.038,0.004,0.057,0.004c0.012,0,0.025-0.004,0.037-0.004c61.524,0.486,93.639,0.713,118.094,0.713
		c24.578,0,41.425-0.229,72.597-0.65l12.832-0.174c0.979,0.242,2.137,0.129,3.106-0.635
		C218.997,143.47,219.01,140.234,216.991,133.55 M10.282,140.185c-0.028,0-0.055,0-0.084,0c-0.015-0.002-0.035-0.004-0.047-0.006
		c-1.075-0.129-2.732-1.74-3.261-3.619c-4.108-14.659,8.635-30.575,17.939-42.198l1.376-1.719
		c5.035-6.321,10.799-11.961,17.168-16.857C32.68,86.159,24.596,98.924,20.332,112.745c-0.822,2.665-1.534,5.369-2.223,7.986
		c-1.705,6.48-3.316,12.604-6.495,18.227C11.004,140.036,10.531,140.177,10.282,140.185 M200.927,140.245
		c-60.934,0.828-67.06,0.91-183.601-0.006c3.012-5.836,4.665-12.044,6.252-18.072c0.672-2.558,1.369-5.205,2.156-7.756
		c6.818-22.082,24.084-41.31,46.189-51.433c19.221-8.804,39.077-11.203,62.473-7.553c27.021,5.327,60.778,23.52,76.737,78.247
		c0.17,0.586,0.319,1.092,0.445,1.514c0.724,2.396,1.042,3.941,1.177,4.9L200.927,140.245z"/>
	<path fill="#FFFFFF" d="M186.8,26.241c-0.37-0.097-0.67,0.084-0.892,0.547c-0.074,0.167-0.258,0.565-0.548,1.195
		c-0.29,0.629-0.632,1.366-1.023,2.209c-0.392,0.844-0.827,1.737-1.307,2.679c-0.477,0.941-0.934,1.823-1.37,2.646
		c-0.436,0.821-0.842,1.505-1.225,2.048c-0.383,0.544-0.703,0.841-0.964,0.896c-0.613,0.124-0.998-0.108-1.154-0.703
		c-0.157-0.592-0.169-1.374-0.023-2.342c0.143-0.967,0.399-2.044,0.775-3.235c0.374-1.188,0.758-2.316,1.149-3.385
		c0.391-1.069,0.759-1.975,1.097-2.717c0.339-0.744,0.549-1.18,0.625-1.309c0.121-0.176,0.075-0.394-0.137-0.647
		c-0.21-0.256-0.517-0.512-0.924-0.77c-0.408-0.257-0.896-0.47-1.464-0.638c-0.569-0.166-1.179-0.263-1.824-0.292
		c0.036-0.632-0.322-1.206-1.089-1.718c-0.765-0.509-1.673-0.931-2.721-1.255c-1.047-0.325-2.13-0.529-3.243-0.607
		c-1.115-0.077-1.991-0.037-2.622,0.116c-0.683,0.165-1.469,0.734-2.339,1.705c-0.871,0.974-1.739,2.184-2.591,3.625
		c-0.852,1.443-1.649,3.049-2.392,4.819c-0.738,1.769-1.328,3.537-1.773,5.295c-0.444,1.759-0.72,3.432-0.837,5.016
		c-0.119,1.583-0.003,2.904,0.326,3.963c0.465,1.497,1.158,2.639,2.069,3.431c0.908,0.791,1.854,1.366,2.84,1.723
		c0.988,0.355,1.901,0.543,2.753,0.552c0.852,0.011,1.461-0.033,1.834-0.139c0.247-0.068,0.502-0.368,0.766-0.897
		c0.265-0.53,0.539-1.12,0.824-1.772c0.284-0.65,0.527-1.268,0.723-1.854c0.196-0.587,0.342-0.969,0.436-1.152
		c0.545,0.967,1.24,1.666,2.077,2.112c0.838,0.441,1.665,0.734,2.488,0.874c0.821,0.14,1.587,0.183,2.296,0.123
		c0.707-0.06,1.23-0.123,1.567-0.195c0.192-0.039,0.444-0.361,0.764-0.953c1.468-2.009,4.764-7.402,7.304-18.048
		c0.028-0.082,0.043-0.134,0.029-0.12C187.262,26.618,187.167,26.34,186.8,26.241 M173.759,26.689
		c-0.077,0.15-0.151,0.318-0.228,0.474c-0.264,0.592-0.49,1.056-0.589,1.252c-0.171,0.389-0.343,0.779-0.512,1.196
		c-0.427,1.062-0.832,2.13-1.212,3.207c-0.382,1.075-0.699,2.13-0.955,3.161c-0.256,1.032-0.321,2.204-0.564,2.837
		c-0.22,0.578-0.831,1.224-1.161,1.668c-0.33,0.444-0.601,0.694-0.816,0.751c-0.346,0.095-0.612,0.048-0.8-0.138
		c-0.187-0.188-0.366-0.434-0.54-0.744c-0.903-6.738,0.868-12.651,5.714-17.473c0.344-0.271,0.629-0.463,0.856-0.571
		c0.229-0.11,0.461-0.199,0.698-0.271c0.05-0.015,0.093-0.013,0.14-0.021c0.014-0.003,0.027-0.012,0.042-0.016
		c0.053-0.012,0.087-0.003,0.135-0.009c0.005,0,0.008,0,0.012-0.002c1.591-0.198,0.604,2.721-0.255,4.73
		C173.735,26.708,173.746,26.702,173.759,26.689"/>
	<path fill="#FFFFFF" d="M70.766,2.996c-0.676-0.592-1.539-0.922-2.578-0.941c-1.041-0.018-2.07,0.081-3.063,0.307
		c-1.15,0.263-2.596,0.646-3.561,1.29c-0.544,0.365-1.261,1.503-2.056,3c-0.794,1.499-1.627,3.273-2.471,5.322
		c-0.845,2.05-1.691,4.29-2.521,6.716c-0.829,2.429-1.571,4.814-2.229,7.153c-0.659,2.341-1.221,4.543-1.703,6.613
		c-0.482,2.068-0.853,3.781-1.147,5.132c-1.532-1.452-2.803-2.987-3.79-4.621c-0.985-1.636-1.798-3.289-2.421-4.965
		c-0.624-1.677-1.107-3.333-1.442-4.972c-0.334-1.636-0.649-3.137-0.948-4.495c-0.3-1.358-0.643-2.548-1.035-3.569
		c-0.396-1.02-0.949-1.801-1.649-2.253c-0.646-0.416-1.48-0.584-2.411-0.514c-0.931,0.071-1.847,0.256-2.737,0.551
		c-3.249,0.951-6.054,1.579-8.44,1.831c-2.388,0.249-4.406,0.325-6.017,0.222c-1.864-0.116-3.487-0.426-4.825-0.988
		c-0.621,1.285-1.128,2.561-1.462,3.786c-0.285,1.038-0.435,2.138-0.487,3.247c-0.054,1.108,0.25,2.013,0.787,2.694
		c0.509,0.648,1.369,0.984,2.592,0.926c1.221-0.059,2.626-0.344,4.222-0.841c1.6-0.494,3.301-1.132,5.124-1.903
		c1.822-0.768,3.63-1.568,5.435-2.398c0.038,1.66,0.035,3.634,0.016,5.92c-0.02,2.286-0.024,4.693-0.002,7.219
		c0.02,2.527,0.061,5.055,0.121,7.586c0.062,2.53,0.19,4.879,0.371,7.052c0.18,2.173,0.404,4.07,0.656,5.697
		c0.248,1.628,0.533,2.781,0.811,3.46c0.53,1.294,1.235,2.21,2.107,2.733c0.873,0.521,1.799,0.788,2.776,0.804
		c0.977,0.017,1.982-0.155,3.021-0.515c1.036-0.359,2.011-0.793,2.924-1.303c-1.028-1.229-1.874-2.86-2.5-4.905
		c-0.628-2.044-1.112-4.326-1.421-6.842c-0.31-2.519-0.468-5.173-0.454-7.969c0.014-2.797,0.094-5.533,0.228-8.208
		c0.087,0.384,0.417,0.99,0.99,1.82c0.57,0.833,1.283,1.721,2.13,2.672c0.847,0.953,1.758,1.908,2.726,2.868
		c0.971,0.959,1.885,1.755,2.749,2.386c0.867,0.631,1.617,1.052,2.261,1.26c0.645,0.209,1.073,0.013,1.296-0.594
		c0.06-0.194,0.217-0.75,0.482-1.667c0.264-0.916,0.611-2.055,1.056-3.416c0.444-1.361,0.975-2.887,1.605-4.576
		c0.63-1.688,1.313-3.407,2.056-5.156c0.741-1.748,1.513-3.462,2.311-5.142c0.797-1.68,1.587-3.179,2.351-4.498
		c-0.426,2.54-0.854,5.209-1.264,8.013c-0.412,2.805-0.736,5.457-0.984,7.96c-0.25,2.503-0.383,4.716-0.43,6.637
		c-0.047,1.923,0.072,3.304,0.269,4.118c0.326,1.338,0.854,2.374,1.623,3.028c0.771,0.656,1.629,1.067,2.579,1.241
		c0.948,0.176,1.957,0.169,3.023-0.019c1.068-0.186,2.086-0.455,3.059-0.811c-1-1.63-1.645-3.743-1.874-6.345
		c-0.229-2.604-0.213-5.407,0.089-8.405c0.302-2.995,0.767-6.057,1.411-9.175c0.646-3.119,1.284-6.004,1.887-8.655
		c0.604-2.652,1.065-4.939,1.339-6.863C71.607,4.814,71.416,3.566,70.766,2.996"/>
	<path fill="#FFFFFF" d="M167.996,1.469c-0.396-0.309-0.951-0.594-1.671-0.849c-0.718-0.255-1.556-0.44-2.508-0.551
		s-1.86-0.091-2.718,0.065c-0.535,0.096-1.216,0.68-2.018,1.747c-0.801,1.07-1.66,2.467-2.55,4.192
		c-0.889,1.726-1.775,3.686-2.641,5.878c-0.716,1.814-1.383,3.692-2.021,5.608l-0.007-0.021c-0.052,0.18-0.112,0.358-0.168,0.537
		c-0.076,0.232-0.156,0.456-0.233,0.687c-0.015,0.047-0.025,0.093-0.041,0.139c-1.341,3.807-3.475,7.112-4.341,8.375
		c-0.238,0.333-0.47,0.649-0.682,0.931c-0.688,0.888-1.416,1.727-2.183,2.514c-0.769,0.79-1.57,1.454-2.406,1.992
		c-0.839,0.54-1.7,0.855-2.592,0.952c-0.625,0.069-1.004-0.292-1.129-1.085c-0.128-0.791-0.184-1.746-0.159-2.864
		c1.479-0.858,2.857-1.889,4.144-3.099c1.283-1.208,2.432-2.4,3.432-3.583c0.999-1.183,1.846-2.286,2.524-3.322
		c0.68-1.034,1.137-1.804,1.363-2.313c0.457-0.863,0.432-1.657-0.089-2.376c-0.522-0.719-1.272-1.334-2.245-1.828
		c-0.973-0.495-2.025-0.856-3.146-1.077c-1.122-0.22-2.039-0.296-2.74-0.233c-0.704,0.062-1.528,0.502-2.458,1.325
		c-0.932,0.825-1.878,1.879-2.833,3.163c-0.767,1.033-1.493,2.203-2.193,3.451l-0.014-0.021c-0.114,0.188-0.257,0.457-0.42,0.78
		c-0.025,0.047-0.054,0.089-0.079,0.137c-0.044,0.085-0.087,0.191-0.131,0.286c-1.17,2.367-3.076,6.703-3.127,6.823
		c-0.281,0.535-0.558,1.054-0.822,1.545c-0.44,0.813-0.85,1.487-1.235,2.023c-0.386,0.536-0.707,0.829-0.971,0.879
		c-0.881,0.166-1.423-0.164-1.629-0.999c-0.205-0.833-0.22-1.921-0.028-3.262c0.193-1.338,0.553-2.835,1.095-4.489
		c0.54-1.65,1.111-3.196,1.704-4.634c0.594-1.437,1.151-2.67,1.663-3.699c0.511-1.029,0.814-1.606,0.896-1.735
		c0.166-0.219,0.065-0.484-0.305-0.794c-0.372-0.308-0.893-0.595-1.561-0.852c-0.671-0.259-1.447-0.451-2.329-0.569
		c-0.882-0.119-1.722-0.104-2.508,0.042c-0.691,0.128-1.372,0.667-2.03,1.611c-0.655,0.945-1.281,2.134-1.867,3.562
		c-0.573,1.406-1.066,2.946-1.481,4.607c-0.897,1.995-2.514,5.517-3.585,7.432c-0.183,0.305-0.365,0.608-0.541,0.898l-1.336,1.949
		c-0.411,0.515-0.749,0.788-1.016,0.824c-0.888,0.116-1.411-0.242-1.574-1.086c-0.161-0.845-0.121-1.929,0.142-3.256
		c0.259-1.324,0.693-2.799,1.318-4.416c0.625-1.618,1.274-3.129,1.938-4.528c0.666-1.401,1.286-2.6,1.849-3.6
		c0.564-0.996,0.895-1.555,0.983-1.679c0.27-0.295,0.127-0.627-0.43-0.995c-0.559-0.366-1.252-0.688-2.083-0.961
		c-0.832-0.273-1.67-0.476-2.519-0.605c-0.848-0.128-1.447-0.042-1.696,0.039c-1.629,0.521-3.827,0.216-5.235-0.187
		c-0.847-0.242-1.574-0.543-2.208-0.896c-0.422-0.234-0.809-0.487-1.135-0.77c-0.816-0.714-1.383-1.497-1.69-2.353
		c-0.306-0.856-0.436-1.579-0.38-2.171c-1.167,0.28-2.174,0.863-3.007,1.74C95.473,7.32,94.94,8.271,94.703,9.29
		c-0.238,1.021-0.125,1.992,0.318,2.915c0.447,0.922,1.349,1.594,2.704,2.037c-0.056,1.292-0.317,2.957-0.751,4.985
		c-0.333,1.556-0.843,3.351-1.473,5.346c-0.153,0.396-0.316,0.818-0.492,1.279c-0.33,0.856-0.701,1.763-1.109,2.721
		c-0.411,0.958-0.803,1.857-1.179,2.694c-0.378,0.839-0.734,1.537-1.078,2.096c-0.343,0.558-0.643,0.871-0.902,0.94
		c-0.607,0.158-1.013-0.05-1.215-0.628c-0.203-0.577-0.275-1.349-0.202-2.314c0.07-0.966,0.245-2.046,0.534-3.242
		c0.287-1.197,0.588-2.333,0.9-3.411c0.313-1.079,0.613-1.995,0.898-2.749c0.284-0.754,0.463-1.198,0.531-1.331
		c0.104-0.182,0.042-0.392-0.188-0.633c-0.232-0.24-0.562-0.476-0.99-0.708c-0.43-0.231-0.939-0.416-1.523-0.546
		c-0.584-0.131-1.206-0.193-1.859-0.185c-0.012-0.626-0.416-1.175-1.226-1.635c-0.812-0.461-1.754-0.828-2.834-1.088
		c-1.079-0.261-2.185-0.402-3.313-0.416c-1.127-0.016-2.006,0.075-2.631,0.264c-0.675,0.201-1.422,0.807-2.225,1.818
		c-0.804,1.013-1.585,2.256-2.332,3.731c-0.749,1.473-1.431,3.108-2.042,4.901c-0.609,1.792-1.068,3.572-1.383,5.336
		c-0.313,1.765-0.463,3.434-0.46,5.008c0.001,1.574,0.218,2.872,0.629,3.902c0.582,1.455,1.367,2.542,2.345,3.274
		c0.976,0.732,1.972,1.247,2.992,1.542c1.021,0.298,1.956,0.429,2.813,0.39c0.858-0.038,1.469-0.115,1.837-0.24
		c0.245-0.084,0.477-0.393,0.704-0.932c0.226-0.54,0.456-1.136,0.694-1.797c0.238-0.658,0.434-1.284,0.587-1.875
		c0.154-0.591,0.272-0.978,0.351-1.164c0.625,0.925,1.378,1.578,2.254,1.969c0.876,0.391,1.732,0.631,2.572,0.723
		c0.841,0.094,1.614,0.091,2.322-0.009c0.708-0.099,1.23-0.19,1.563-0.279c0.098-0.025,0.208-0.146,0.329-0.319
		c2.317-2.88,8.644-22.75,9.952-26.908c0.681-0.025,1.377-0.084,2.098-0.189c0.223-0.032,0.439-0.049,0.666-0.089
		c1.171-0.207,2.28-0.462,3.34-0.767c-0.821,1.273-1.579,2.845-2.264,4.71c-0.287,0.786-0.542,1.57-0.784,2.356
		c-0.34,1.085-0.647,2.171-0.903,3.258c-0.442,1.878-0.74,3.646-0.903,5.304c-0.165,1.657-0.161,2.9-0.005,3.723
		c0.287,1.539,0.844,2.755,1.653,3.656c0.81,0.902,1.682,1.593,2.62,2.074c0.113,0.059,0.222,0.104,0.333,0.158
		c0.815,0.385,1.593,0.642,2.337,0.75c0.845,0.121,1.459,0.16,1.84,0.106c0.423-0.06,0.907-0.543,1.467-1.444
		c0.555-0.901,1.137-2.015,1.755-3.34c0.618-1.323,1.252-2.748,1.903-4.278c0.354-0.831,0.694-1.625,1.026-2.398
		c0.005-0.051,0.016-0.108,0.021-0.16c0.35-0.542,0.704-1.106,1.051-1.676c-0.219,0.824-0.471,1.763-0.758,2.815
		c-0.175,0.643-0.357,1.314-0.545,1.998c0.008,1.009,0.077,1.813,0.216,2.386c0.363,1.523,0.98,2.708,1.836,3.563
		c0.855,0.854,1.762,1.498,2.722,1.928c0.962,0.43,1.86,0.682,2.712,0.757c0.851,0.075,1.464,0.078,1.842,0.003
		c0.423-0.084,0.88-0.593,1.39-1.526c0.512-0.932,1.048-2.069,1.622-3.414c0.056-0.127,0.11-0.271,0.164-0.4
		c0.256,1.413,0.746,2.558,1.479,3.421c0.781,0.922,1.632,1.633,2.555,2.138c0.922,0.504,1.8,0.828,2.642,0.969
		c0.842,0.142,1.452,0.192,1.838,0.147c0.938-0.111,1.888-0.651,2.866-1.612c0.979-0.963,1.944-2.137,2.908-3.522
		c0.09-0.13,0.178-0.276,0.269-0.408l0.005,0.008l2.677-3.62l2.701-3.271c-0.734,2.206-2.947,9.318-1.741,11.674l0.014-0.007
		c0.408,1.286,0.959,2.32,1.657,3.08c0.782,0.848,1.599,1.48,2.45,1.9c0.853,0.421,1.661,0.657,2.434,0.712
		c0.77,0.055,1.345,0.037,1.721-0.059c0.335-0.085,0.534-0.223,0.602-0.417c0.064-0.192,0.052-0.396-0.043-0.61
		c-0.653-1.848-1.015-4.024-1.037-6.538c-0.024-2.513,0.19-5.152,0.673-7.914c0.485-2.762,1.173-5.573,2.086-8.427
		c0.913-2.855,1.956-5.562,3.117-8.119c1.16-2.558,2.357-4.871,3.565-6.935c1.204-2.065,2.317-3.709,3.295-4.94
		C168.49,2.043,168.39,1.777,167.996,1.469 M140.561,22.068c1.119-1.796,2.643-3.6,4.603-5.387c0.236-0.168,0.57-0.356,1.004-0.556
		c0.433-0.201,0.751-0.231,0.956-0.091c0.254,0.178,0.376,0.401,0.364,0.667c-0.014,0.27-0.063,0.482-0.154,0.641
		c-0.524,1.296-1.203,2.489-2.027,3.582c-0.825,1.093-1.679,2.089-2.559,2.989c-0.883,0.902-1.723,1.688-2.53,2.363
		c-0.812,0.677-1.471,1.197-1.995,1.563C138.67,25.791,139.442,23.863,140.561,22.068 M84.058,23.02
		c0.013-0.013,0.021-0.021,0.035-0.034c-0.068,0.153-0.13,0.323-0.195,0.479c-0.221,0.602-0.412,1.073-0.496,1.273
		c-0.144,0.393-0.286,0.791-0.423,1.213c-0.35,1.073-0.676,2.154-0.979,3.238c-0.301,1.087-0.54,2.145-0.72,3.18
		c-0.179,1.035-0.156,2.198-0.351,2.838c-0.177,0.583-0.744,1.256-1.042,1.715c-0.298,0.459-0.553,0.72-0.766,0.792
		c-0.341,0.112-0.613,0.082-0.816-0.093c-0.203-0.174-0.402-0.41-0.599-0.704c-1.424-6.612-0.091-12.561,4.421-17.603
		c0.325-0.29,0.598-0.496,0.819-0.616c0.221-0.12,0.448-0.222,0.681-0.305c0.049-0.02,0.093-0.02,0.137-0.03
		c0.016-0.004,0.028-0.015,0.042-0.019c0.052-0.014,0.088-0.007,0.135-0.018c0.004-0.001,0.008,0,0.013-0.003
		C85.543,18.041,84.77,20.983,84.058,23.02"/>
</g>
</svg>
