<?xml version="1.0" encoding="utf-8"?>
<!-- Generator: Adobe Illustrator 15.0.2, SVG Export Plug-In . SVG Version: 6.00 Build 0)  -->
<!DOCTYPE svg PUBLIC "-//W3C//DTD SVG 1.1//EN" "http://www.w3.org/Graphics/SVG/1.1/DTD/svg11.dtd">
<svg version="1.1" id="Layer_2" xmlns="http://www.w3.org/2000/svg" xmlns:xlink="http://www.w3.org/1999/xlink" x="0px" y="0px"
	 width="710.5px" height="486.5px" viewBox="0 0 710.5 486.5" enable-background="new 0 0 710.5 486.5" xml:space="preserve">
<g>
	<rect x="150.363" y="435.188" fill="#FFFFFF" width="408.545" height="3.035"/>
	<path fill="#FFFFFF" d="M353.413,18.715c-2.885,5.311-0.858,12.554,3.23,17.132l2.047,1.374
		c-2.908-4.015-2.971-10.953-0.415-15.147c4.539-7.478,4.134-13.156,1.022-19.515C358.967,10.3,356.598,12.833,353.413,18.715"/>
	<g>
		<g>
			<path id="SVGID_1_" fill="#FFFFFF" d="M353.413,18.714c-2.885,5.312-0.858,12.557,3.229,17.133l2.048,1.375
				c-2.906-4.017-2.97-10.955-0.412-15.148c4.538-7.477,4.131-13.154,1.022-19.515C358.965,10.3,356.6,12.832,353.413,18.714"/>
		</g>
		<g>
			<g>
				<defs>
					<path id="SVGID_2_" d="M353.413,18.714c-2.885,5.312-0.858,12.557,3.229,17.133l2.048,1.375
						c-2.906-4.017-2.97-10.955-0.412-15.148c4.538-7.477,4.131-13.154,1.022-19.515C358.965,10.3,356.6,12.832,353.413,18.714"/>
				</defs>
				<clipPath id="SVGID_4_">
					<use xlink:href="#SVGID_2_"  overflow="visible"/>
				</clipPath>
				<polygon clip-path="url(#SVGID_4_)" fill="#FFFFFF" points="350.528,37.297 350.307,2.564 362.815,2.484 363.042,37.221 				"/>
			</g>
		</g>
	</g>
	<path fill="#FFFFFF" d="M328.848,56.812c1.316,5.202,5.531,9.262,7.654,14.209c2.368,5.493,1.937,12.033-1.141,17.197l0.322-0.141
		c4.905-7.623,6.292-10.705,7.041-15.482c0.749-4.764-0.252-10.141-2.847-14.258c-1.832-2.906-4.591-5.169-6.586-7.962
		c-1.532-2.157-2.588-4.614-3.09-7.168C328.893,47.637,327.716,52.329,328.848,56.812"/>
	<g>
		<g>
			<path id="SVGID_3_" fill="#FFFFFF" d="M328.846,56.813c1.317,5.199,5.534,9.261,7.655,14.209
				c2.369,5.493,1.936,12.031-1.142,17.198l0.324-0.142c4.904-7.622,6.29-10.707,7.038-15.483c0.752-4.766-0.251-10.14-2.845-14.258
				c-1.833-2.907-4.592-5.17-6.587-7.961c-1.532-2.157-2.59-4.616-3.091-7.169C328.896,47.639,327.717,52.329,328.846,56.813"/>
		</g>
		<g>
			<g>
				<defs>
					<path id="SVGID_6_" d="M328.846,56.813c1.317,5.199,5.534,9.261,7.655,14.209c2.369,5.493,1.936,12.031-1.142,17.198
						l0.324-0.142c4.904-7.622,6.29-10.707,7.038-15.483c0.752-4.766-0.251-10.14-2.845-14.258c-1.833-2.907-4.592-5.17-6.587-7.961
						c-1.532-2.157-2.59-4.616-3.091-7.169C328.896,47.639,327.717,52.329,328.846,56.813"/>
				</defs>
				<clipPath id="SVGID_7_">
					<use xlink:href="#SVGID_6_"  overflow="visible"/>
				</clipPath>
				<polygon clip-path="url(#SVGID_7_)" fill="#FFFFFF" points="327.715,88.316 327.429,43.206 343.472,43.098 343.75,88.214 				
					"/>
			</g>
		</g>
	</g>
	<path fill="#FFFFFF" d="M357.501,75.356c-5.903,8.961-16.928,14.572-21.917,23.881c-3.88,7.247-3.647,15.921,3.337,23.992
		c-13.342-6.965-19.748-21.38-14.894-33.5c-8.546,11.382-13.592,25.068-10.012,38.034c3.575,12.965,17.341,24.687,33.944,25.276
		c1.169,0.044,3.5,0.175,4.664,0.13c15.494-0.539,27.354-4.572,36.528-14.554c9.177-9.984,9.798-26.621,2.021-37.338
		c-4.313-5.945-11.716-11.774-9.667-18.456c-6.203,4.796-11.379,11.363-14.112,21.334c-1.188,4.334,1.524,12.622,6.991,16.692
		c-9.191-1.51-17.467-6.319-18.004-14.644c-0.479-7.485,3.73-14.63,8.102-21.261c3.458-5.233,7.289-10.642,7.381-16.56
		c0.109-7.246-5.369-13.7-10.623-19.6C365.812,57.307,362.913,67.146,357.501,75.356"/>
	<g>
		<g>
			<path id="SVGID_5_" fill="#FFFFFF" d="M357.499,75.358c-5.903,8.957-16.926,14.571-21.912,23.879
				c-3.881,7.246-3.651,15.919,3.335,23.992c-13.342-6.967-19.746-21.38-14.894-33.499c-8.547,11.377-13.59,25.066-10.012,38.032
				c3.574,12.963,17.343,24.686,33.944,25.276c1.169,0.044,3.5,0.173,4.664,0.129c15.492-0.54,27.354-4.571,36.53-14.554
				c9.175-9.984,9.8-26.621,2.021-37.338c-4.313-5.947-11.713-11.774-9.668-18.456c-6.203,4.795-11.377,11.361-14.111,21.334
				c-1.188,4.337,1.527,12.621,6.992,16.692c-9.19-1.509-17.467-6.319-18.004-14.643c-0.483-7.488,3.729-14.63,8.101-21.262
				c3.459-5.236,7.289-10.642,7.381-16.56c0.108-7.246-5.369-13.7-10.623-19.6C365.813,57.307,362.913,67.147,357.499,75.358"/>
		</g>
		<g>
			<g>
				<defs>
					<path id="SVGID_8_" d="M357.499,75.358c-5.903,8.957-16.926,14.571-21.912,23.879c-3.881,7.246-3.651,15.919,3.335,23.992
						c-13.342-6.967-19.746-21.38-14.894-33.499c-8.547,11.377-13.59,25.066-10.012,38.032
						c3.574,12.963,17.343,24.686,33.944,25.276c1.169,0.044,3.5,0.173,4.664,0.129c15.492-0.54,27.354-4.571,36.53-14.554
						c9.175-9.984,9.8-26.621,2.021-37.338c-4.313-5.947-11.713-11.774-9.668-18.456c-6.203,4.795-11.377,11.361-14.111,21.334
						c-1.188,4.337,1.527,12.621,6.992,16.692c-9.19-1.509-17.467-6.319-18.004-14.643c-0.483-7.488,3.729-14.63,8.101-21.262
						c3.459-5.236,7.289-10.642,7.381-16.56c0.108-7.246-5.369-13.7-10.623-19.6C365.813,57.307,362.913,67.147,357.499,75.358"/>
				</defs>
				<clipPath id="SVGID_9_">
					<use xlink:href="#SVGID_8_"  overflow="visible"/>
				</clipPath>
				<polygon clip-path="url(#SVGID_9_)" fill="#FFFFFF" points="310.437,153.675 309.639,48.781 398.943,48.311 399.75,153.212 				
					"/>
			</g>
		</g>
	</g>
	<path fill="#FFFFFF" d="M257.3,155.713v11.579h3.995c3.612,24.114,18.754,45.921,40.355,59.817l-24.539,43.674l5.314,2.988
		l24.453-43.524c10.588,5.914,22.507,10.005,35.244,11.672c-0.053-0.011-0.096-0.021-0.145-0.032
		c4.44,0.613,9.048,0.941,13.772,0.941c8.738,0,17.068-1.108,24.68-3.104c-0.27,0.109-0.525,0.21-0.801,0.313
		c8.484-2.003,16.505-5.099,23.896-9.066l25.401,45.199l5.313-2.987l-25.427-45.258c22.127-13.732,37.665-35.768,41.328-60.631
		h4.057v-11.579L257.3,155.713L257.3,155.713z"/>
	<path fill="#FFFFFF" d="M188.255,343.801c1.396,2.545,2.543,5.24,3.433,8.094c0.89,2.871,1.454,5.761,1.714,8.678
		c0,0.644,0.028,1.338,0.098,2.098c0.058,0.765,0.027,1.524-0.098,2.291v2.668c-0.127,0.38-0.22,0.794-0.286,1.235
		c-0.063,0.444-0.226,0.854-0.479,1.236c-0.89,2.932-2.351,5.786-4.382,8.577c-1.902,2.417-3.903,4.547-6.004,6.383
		c-2.091,1.846-4.352,3.534-6.763,5.052c-4.706,2.93-9.503,5.465-14.388,7.624c-4.896,2.161-9.817,4.136-14.771,5.913
		c-4.959,1.903-9.973,3.527-15.057,4.861c-5.089,1.328-10.291,2.569-15.627,3.712c-20.711,4.828-41.423,7.619-62.129,8.388
		c-5.338,0.253-10.609,0.253-15.822,0c-2.668-0.261-5.272-0.479-7.81-0.668c-2.542-0.194-5.209-0.666-8.008-1.433
		c-0.631-0.253-1.266-0.439-1.908-0.565c-0.631-0.129-1.266-0.319-1.903-0.574c-0.636-0.383-1.266-0.767-1.908-1.146
		c-0.632-0.379-1.262-1.069-1.904-2.098c-0.382-0.76-0.506-1.581-0.382-2.477c0.13-0.885,0.448-1.585,0.955-2.099
		c0.51-0.63,1.018-1.142,1.525-1.524c0.512-0.376,1.018-0.753,1.526-1.141c2.16-1.782,4.416-3.202,6.765-4.294
		c2.35-1.078,4.734-2.123,7.149-3.137c-2.164,1.137-4.385,2.381-6.675,3.716c-2.286,1.331-4.382,2.89-6.287,4.671
		c-0.888,0.756-1.687,1.651-2.382,2.665c-0.695,1.02-0.732,1.845-0.096,2.474c0.636,0.771,1.558,1.332,2.766,1.722
		c1.207,0.376,2.318,0.7,3.332,0.955c4.958,0.889,10.004,1.232,15.153,1.045c5.149-0.188,10.318-0.599,15.532-1.24
		c10.29-1.02,20.517-2.479,30.684-4.38c10.161-1.912,20.265-4.124,30.302-6.675c4.825-1.395,9.687-2.795,14.576-4.19
		c4.89-1.396,9.751-3.05,14.583-4.953c4.825-1.778,9.499-3.716,14.011-5.811c4.507-2.104,8.792-4.607,12.863-7.534
		c2.03-1.267,3.936-2.698,5.714-4.284c1.779-1.598,3.304-3.274,4.577-5.053c1.266-1.395,2.098-3.172,2.476-5.339
		c0.257-0.498,0.383-0.951,0.383-1.327v-1.337c0.123-0.386,0.161-0.856,0.096-1.429c-0.064-0.579-0.096-1.177-0.096-1.813
		c-0.383-4.448-1.747-8.707-4.098-12.771c-2.354-4.065-5.182-7.813-8.479-11.245c-3.428-3.429-7.216-6.545-11.344-9.339
		c-4.129-2.791-8.419-5.336-12.863-7.622c-4.454-2.155-9.057-4.162-13.817-6.005c-4.764-1.833-9.561-3.648-14.393-5.429
		c-9.656-3.052-19.499-5.592-29.538-7.628c-10.038-2.027-20.199-3.556-30.496-4.573c-4.947-0.632-10.005-1.014-15.146-1.141
		c-5.149-0.126-10.195,0-15.155,0.38c-2.54,0.254-5.051,0.573-7.524,0.952c-2.48,0.381-4.793,1.021-6.956,1.899
		c-0.89,0.388-1.778,0.896-2.668,1.528c-0.127,0-0.317,0.131-0.577,0.386H10.06l-0.19,0.385l-0.382,0.376
		c-0.246,0.507-0.119,1.206,0.382,2.097c0.507,0.893,1.214,1.84,2.098,2.856c1.398,1.783,3.116,3.437,5.142,4.954
		c2.034,1.532,4.136,3.053,6.292,4.577c2.164,1.396,4.32,2.796,6.483,4.188c2.16,1.401,4.381,2.736,6.667,4.006
		c4.452,2.669,8.895,5.279,13.341,7.813c4.448,2.543,8.959,4.958,13.531,7.241c-4.83-1.775-9.595-3.681-14.289-5.713
		c-4.701-2.031-9.468-4.26-14.297-6.674c-2.288-1.143-4.605-2.316-6.956-3.525c-2.352-1.206-4.604-2.572-6.765-4.097
		c-2.158-1.396-4.356-2.825-6.578-4.286c-2.22-1.461-4.292-3.143-6.193-5.05c-0.767-0.638-1.398-1.208-1.902-1.715
		c-0.508-0.507-0.956-1.078-1.338-1.722c-0.254-0.761-0.573-1.615-0.956-2.572c-0.375-0.952-0.44-2.059-0.188-3.333
		c0.512-1.271,1.02-2.162,1.525-2.669c0-0.249,0.26-0.627,0.765-1.146c0.125-0.376,0.508-0.632,1.143-0.761
		c1.398-1.018,2.664-1.836,3.807-2.479c2.545-1.271,5.18-2.194,7.914-2.762c2.732-0.569,5.5-1.115,8.29-1.615
		c5.34-0.644,10.609-0.954,15.818-0.954c5.208,0,10.479,0.123,15.815,0.376c10.675,0.638,21.155,1.942,31.445,3.903
		c10.293,1.979,20.589,4.419,30.875,7.346c5.084,1.646,10.107,3.427,15.057,5.332c4.954,1.902,9.847,4.132,14.672,6.677
		c4.83,2.287,9.531,4.921,14.103,7.901c4.577,2.986,8.829,6.447,12.776,10.389C181.905,333.895,185.331,338.463,188.255,343.801
		 M56.564,377.154c-0.512,1.143-1.018,2.161-1.524,3.049c-0.514,0.892-0.896,1.839-1.144,2.863c-0.26,0.885-0.356,1.844-0.286,2.857
		c0.06,1.016,0.534,2.091,1.43,3.232c-1.404,0-2.74-0.629-4.006-1.896c-0.506-0.638-0.921-1.273-1.235-1.917
		c-0.322-0.627-0.609-1.265-0.856-1.897c-0.512-2.923-0.575-5.848-0.188-8.769c0.63-2.666,1.422-5.175,2.371-7.521
		c0.961-2.357,2.006-4.605,3.148-6.772c1.396-2.157,2.89-4.215,4.48-6.194c1.59-1.967,3.147-3.907,4.667-5.806
		c1.904-1.778,3.844-3.438,5.818-4.962c1.966-1.523,4.216-2.919,6.759-4.194c-0.76,2.549-1.654,4.957-2.663,7.247
		c-1.019,2.285-2.03,4.509-3.051,6.665c-2.166,4.321-4.577,8.389-7.245,12.203c-1.019,2.156-2.091,4.194-3.234,6.104
		C58.657,373.343,57.578,375.249,56.564,377.154"/>
	<path fill="#FFFFFF" d="M45.557,423.852c-2.672,0-5.368-0.067-8.012-0.198c-2.783-0.264-5.368-0.486-7.891-0.67
		c-2.729-0.203-5.608-0.725-8.577-1.531l-0.334-0.109c-0.464-0.184-0.922-0.319-1.37-0.415c-0.807-0.154-1.633-0.4-2.44-0.728
		l-0.439-0.214l-1.896-1.145c-1.074-0.646-2.027-1.648-2.928-3.097l-0.146-0.258c-0.658-1.315-0.884-2.751-0.669-4.257
		c0.211-1.49,0.776-2.737,1.682-3.694c0.636-0.782,1.306-1.435,1.98-1.943l1.525-1.146c2.252-1.855,4.748-3.435,7.32-4.626
		c2.377-1.079,4.808-2.157,7.233-3.181l2.617,5.51c-2.125,1.123-4.33,2.352-6.562,3.654c-2.079,1.209-4.01,2.642-5.742,4.262
		c-0.555,0.479-1.035,0.974-1.453,1.502c0.198,0.092,0.397,0.166,0.574,0.221c1.124,0.356,2.152,0.652,3.059,0.88
		c4.685,0.834,9.521,1.162,14.399,0.98c5.052-0.18,10.199-0.598,15.272-1.213c10.216-1.011,20.447-2.468,30.496-4.356
		c10.08-1.886,20.215-4.117,30.114-6.631c4.733-1.37,9.588-2.771,14.489-4.161c4.767-1.371,9.576-3.003,14.303-4.868
		c4.78-1.758,9.412-3.681,13.838-5.742c4.324-2.004,8.479-4.438,12.372-7.231l0.162-0.115c1.875-1.168,3.66-2.505,5.304-3.97
		c1.601-1.436,2.985-2.967,4.117-4.548l0.228-0.284c0.884-0.977,1.45-2.219,1.729-3.813l0.083-0.433l0.199-0.401
		c0.023-0.043,0.042-0.084,0.055-0.128v-1.666l0.133-0.408c-0.004,0-0.004-0.082-0.022-0.199c-0.07-0.614-0.107-1.282-0.111-2.006
		c-0.356-3.926-1.591-7.754-3.684-11.376c-2.219-3.838-4.926-7.428-8.042-10.662c-3.229-3.227-6.896-6.243-10.852-8.93
		c-4.021-2.715-8.243-5.218-12.55-7.433c-4.296-2.084-8.869-4.071-13.52-5.871c-4.706-1.821-9.531-3.639-14.346-5.412
		c-9.365-2.955-19.197-5.493-29.09-7.496c-9.89-2.001-20.046-3.523-30.181-4.537c-4.918-0.625-9.915-1.002-14.934-1.119
		c-5.031-0.132-10.027,0-14.84,0.372c-2.443,0.247-4.928,0.562-7.301,0.921c-2.213,0.346-4.324,0.927-6.262,1.716
		c-0.557,0.248-1.159,0.583-1.781,0.987c0.367,0.569,0.836,1.166,1.396,1.804l0.104,0.129c1.226,1.56,2.766,3.043,4.579,4.397
		c2,1.498,4.091,3.021,6.219,4.523l6.379,4.121c2.1,1.374,4.29,2.678,6.49,3.895c4.55,2.729,9.019,5.351,13.375,7.833
		c4.339,2.487,8.845,4.897,13.379,7.165l-2.413,5.586c-4.862-1.789-9.728-3.729-14.453-5.777c-4.713-2.037-9.571-4.303-14.442-6.738
		c-2.305-1.146-4.628-2.328-6.992-3.547c-2.454-1.257-4.853-2.709-7.128-4.313c-2.065-1.327-4.263-2.771-6.496-4.228
		c-2.346-1.547-4.555-3.344-6.577-5.35c-0.776-0.646-1.45-1.263-2-1.813c-0.689-0.688-1.288-1.464-1.793-2.309l-0.282-0.604
		c-0.237-0.712-0.534-1.513-0.89-2.404c-0.598-1.503-0.717-3.201-0.35-5.063l0.162-0.541c0.523-1.301,1.057-2.289,1.65-3.063
		c0.246-0.537,0.602-1.001,0.964-1.398c0.397-0.648,1.096-1.36,2.308-1.764c1.32-0.938,2.55-1.729,3.67-2.352
		c2.89-1.445,5.794-2.464,8.765-3.077c2.712-0.571,5.527-1.123,8.368-1.641l0.184-0.032c5.442-0.646,10.882-0.973,16.184-0.973
		c5.208,0,10.579,0.132,15.961,0.388c10.798,0.64,21.509,1.976,31.869,3.96c10.347,1.974,20.821,4.464,31.139,7.396
		c5.245,1.703,10.367,3.517,15.32,5.426c5.024,1.936,10.071,4.228,14.997,6.813c4.804,2.283,9.678,5.005,14.346,8.055
		c4.727,3.09,9.186,6.72,13.261,10.787c4.102,3.975,7.752,8.834,10.815,14.409c1.482,2.713,2.717,5.629,3.658,8.662
		c0.956,3.045,1.57,6.185,1.846,9.311l0.015,0.267c0,0.556,0.027,1.169,0.081,1.838c0.076,0.922,0.049,1.854-0.081,2.779v2.938
		l-0.16,0.473c-0.066,0.199-0.12,0.433-0.162,0.691c-0.103,0.742-0.341,1.436-0.69,2.068c-0.994,3.104-2.584,6.173-4.718,9.116
		c-2.086,2.646-4.236,4.934-6.459,6.886c-2.191,1.93-4.603,3.724-7.146,5.335c-4.815,2.992-9.781,5.624-14.788,7.838
		c-4.928,2.168-9.966,4.185-14.974,5.986c-4.965,1.905-10.142,3.577-15.311,4.937c-5.105,1.339-10.408,2.601-15.763,3.749
		c-20.738,4.835-41.839,7.682-62.653,8.452C50.959,423.782,48.225,423.852,45.557,423.852 M171.849,384.453
		c-4.17,2.991-8.642,5.601-13.283,7.757c-4.572,2.13-9.365,4.12-14.231,5.908c-4.842,1.913-9.843,3.612-14.798,5.026
		c-4.89,1.396-9.748,2.795-14.572,4.189c-10.119,2.568-20.383,4.82-30.588,6.74c-4.965,0.926-9.978,1.756-15.008,2.482
		c15.214-1.342,30.474-3.783,45.581-7.304c5.313-1.144,10.532-2.385,15.547-3.705c4.954-1.301,9.914-2.896,14.737-4.75
		c4.934-1.771,9.834-3.732,14.632-5.854c4.744-2.097,9.46-4.593,14.01-7.421c2.258-1.432,4.403-3.035,6.36-4.75
		c1.946-1.712,3.839-3.728,5.624-5.984c1.751-2.415,3.073-4.991,3.861-7.579l0.129-0.424l0.246-0.371
		c0.06-0.424,0.145-0.844,0.254-1.24l0.039-2.714c0.085-0.51,0.107-1.041,0.069-1.546c-0.069-0.788-0.104-1.522-0.104-2.202
		c-0.242-2.65-0.776-5.313-1.578-7.913c-0.826-2.641-1.903-5.175-3.192-7.535c-2.765-5.045-6.044-9.415-9.741-12.99
		c-3.812-3.813-7.946-7.177-12.319-10.027c-4.443-2.9-9.068-5.487-13.736-7.71c-4.836-2.53-9.66-4.731-14.47-6.575
		c-4.851-1.865-9.87-3.644-14.899-5.283c-10.039-2.847-20.345-5.293-30.508-7.245c-10.107-1.929-20.555-3.229-31.057-3.854
		c-5.244-0.247-10.515-0.378-15.631-0.378c-5.03,0-10.202,0.31-15.366,0.922c-2.76,0.507-5.494,1.035-8.123,1.586
		c-1.246,0.267-2.48,0.606-3.692,1.035c1.276-0.352,2.598-0.624,3.94-0.841c2.486-0.378,5.066-0.71,7.687-0.974
		c5.115-0.394,10.284-0.521,15.531-0.394c5.231,0.126,10.426,0.522,15.46,1.171c10.265,1.014,20.623,2.563,30.711,4.604
		c10.11,2.05,20.153,4.639,29.855,7.703c4.977,1.842,9.832,3.673,14.572,5.494c4.809,1.864,9.536,3.914,14.048,6.106
		c4.59,2.355,9.021,4.984,13.241,7.837c4.278,2.907,8.247,6.176,11.789,9.716c3.494,3.627,6.496,7.605,8.961,11.868
		c2.571,4.45,4.079,9.161,4.502,14.041l0.009,0.258c0,0.546,0.026,1.018,0.076,1.464c0.087,0.785,0.06,1.497-0.076,2.152v0.962
		c0,0.722-0.173,1.479-0.505,2.263c-0.504,2.481-1.518,4.604-3.02,6.318c-1.38,1.896-3.035,3.721-4.927,5.413
		C176.023,381.578,173.99,383.112,171.849,384.453 M61.277,392.21h-6.235c-2.232,0-4.309-0.937-6.163-2.798l-0.221-0.254
		c-0.647-0.804-1.182-1.629-1.591-2.457c-0.355-0.701-0.68-1.427-0.959-2.134l-0.172-0.601c-0.557-3.209-0.63-6.465-0.217-9.688
		l0.065-0.311c0.664-2.797,1.509-5.471,2.519-7.965c0.991-2.433,2.091-4.806,3.276-7.047l0.136-0.231
		c1.449-2.235,3.022-4.41,4.668-6.449c1.586-1.969,3.136-3.906,4.657-5.805l0.302-0.32c1.983-1.853,4.01-3.578,6.028-5.144
		c2.113-1.636,4.561-3.152,7.271-4.51l6.308-3.153l-2.027,6.758c-0.787,2.64-1.736,5.199-2.798,7.604
		c-1.029,2.313-2.054,4.556-3.078,6.73c-2.217,4.423-4.679,8.587-7.354,12.435c-1.029,2.16-2.134,4.228-3.272,6.137
		c-1.105,1.83-2.156,3.684-3.116,5.486c-0.531,1.191-1.082,2.272-1.617,3.224c-0.368,0.645-0.646,1.346-0.834,2.08
		c-0.186,0.654-0.244,1.268-0.201,1.926c0.011,0.188,0.107,0.688,0.798,1.564L61.277,392.21z M51.758,375.229
		c-0.209,1.669-0.26,3.354-0.134,5.021c0.215-0.526,0.479-1.054,0.766-1.563c0.455-0.798,0.92-1.724,1.39-2.775l0.092-0.194
		c1.03-1.925,2.145-3.896,3.32-5.85c1.077-1.799,2.12-3.761,3.094-5.834l0.26-0.44c2.563-3.666,4.924-7.643,7.011-11.815
		c0.745-1.579,1.502-3.232,2.271-4.938c-1.396,1.132-2.787,2.34-4.162,3.622c-1.483,1.844-2.998,3.73-4.539,5.642
		c-1.482,1.843-2.905,3.805-4.22,5.821c-1.069,2.027-2.056,4.172-2.951,6.365C53.084,370.452,52.34,372.79,51.758,375.229"/>
	<path fill="#FFFFFF" d="M235.139,405.745c-2.164,2.538-4.604,4.827-7.337,6.854c-2.734,2.035-5.688,3.622-8.863,4.771
		c-3.176,1.143-6.576,1.905-10.2,2.281c-3.617,0.389-7.331-0.187-11.143-1.711c-1.024-0.261-1.941-0.668-2.764-1.239
		c-0.825-0.575-1.689-1.176-2.577-1.813c-0.89-1.143-1.586-2.095-2.099-2.859l-0.377-0.572l-0.376-0.948
		c-0.26-0.131-0.416-0.284-0.48-0.477c-0.066-0.191-0.162-0.354-0.287-0.479c-1.908-4.066-2.352-8.063-1.335-12
		c0.386-1.912,0.952-3.65,1.72-5.243c0.758-1.593,1.647-3.147,2.666-4.67c2.286-2.669,4.697-5.084,7.241-7.242
		c2.539-1.778,5.338-3.429,8.381-4.961c3.054-1.521,6.357-2.284,9.916-2.284c2.156,0.258,3.935,0.712,5.337,1.337
		c0.89,0.382,1.682,0.947,2.377,1.715c0.7,0.767,1.174,1.582,1.433,2.478c0.636,1.78,0.826,3.464,0.573,5.055
		c-0.26,1.591-0.698,3.075-1.337,4.479c0.252-1.533,0.219-3.019-0.092-4.479c-0.324-1.461-0.858-2.702-1.624-3.722
		c-1.396-1.646-3.558-2.282-6.479-1.902c-2.033,0.509-4.382,1.585-7.05,3.246c-2.033,1.52-4.189,3.231-6.479,5.142
		c-1.78,2.035-3.306,4.131-4.578,6.288c-1.267,2.16-2.034,4.322-2.281,6.479c-0.383,1.779-0.128,3.751,0.76,5.907l0.385,0.383
		c-0.13,0-0.13,0.156,0,0.475c0.124,0.317,0.253,0.54,0.376,0.67c0,0.133,0.065,0.189,0.194,0.189
		c0.124,0.13,0.222,0.192,0.28,0.192c0.068,0,0.164,0.063,0.287,0.19c0.637,0.639,1.402,1.141,2.291,1.521
		c1.78,0.637,3.936,0.885,6.479,0.759c2.54-0.122,5.079-0.563,7.624-1.329c2.543-0.768,4.955-1.812,7.239-3.146
		c2.292-1.333,4.39-2.827,6.292-4.481c2.032-1.899,3.714-3.929,5.052-6.096c1.338-2.157,2.125-4.637,2.382-7.428
		c0.382-1.403,0.508-2.733,0.382-4.002c-0.129-1.272-0.577-2.228-1.337-2.863c-1.018-0.888-2.284-1.33-3.809-1.33
		c-1.528,0-2.923,0.189-4.196,0.571c1.15-0.769,2.508-1.437,4.098-2.007c1.59-0.567,3.337-0.473,5.244,0.287
		c0.883,0.254,1.645,0.825,2.287,1.72c0.63,0.885,1.078,1.716,1.33,2.476c0.384,1.019,0.638,1.902,0.768,2.666
		c0.123,0.763,0.252,1.594,0.375,2.482c0.259,3.557-0.253,6.922-1.519,10.096C238.885,400.592,237.171,403.456,235.139,405.745"/>
	<path fill="#FFFFFF" d="M206.56,421.293c-3.078,0-6.254-0.637-9.438-1.902c-1.148-0.298-2.215-0.774-3.161-1.438
		c-0.834-0.572-1.698-1.18-2.597-1.828l-0.313-0.3c-0.925-1.188-1.64-2.158-2.161-2.944l-0.527-0.852l-0.207-0.521
		c-0.393-0.332-0.587-0.711-0.684-1.007l-0.217-0.305c-2.053-4.368-2.532-8.758-1.427-13.035c0.384-1.933,0.996-3.818,1.816-5.512
		c0.798-1.661,1.731-3.295,2.777-4.863l0.107-0.14c2.33-2.719,4.82-5.215,7.412-7.417c2.702-1.898,5.591-3.603,8.686-5.152
		c3.257-1.633,6.819-2.45,10.599-2.45l0.177,0.012c2.307,0.271,4.253,0.767,5.79,1.463c1.056,0.444,2.027,1.146,2.875,2.069
		c0.707,0.775,1.234,1.616,1.579,2.512c1.073-0.631,2.294-1.19,3.644-1.678c1.925-0.7,4.07-0.594,6.326,0.311
		c1.071,0.299,2.115,1.07,2.958,2.233c0.728,1.024,1.233,1.976,1.535,2.885c0.405,1.068,0.68,2.032,0.826,2.9
		c0.13,0.784,0.254,1.614,0.382,2.511c0.282,3.882-0.262,7.514-1.61,10.885c-1.467,3.586-3.29,6.62-5.424,9.024
		c-2.209,2.601-4.759,4.987-7.572,7.073c-2.832,2.11-5.948,3.785-9.252,4.971c-3.278,1.186-6.831,1.983-10.562,2.37
		C208.131,421.256,207.336,421.293,206.56,421.293 M193.326,413.778c0.815,0.582,1.603,1.136,2.374,1.667
		c0.674,0.468,1.428,0.807,2.264,1.012l0.199,0.064c3.558,1.425,7.064,1.975,10.421,1.618c3.482-0.366,6.792-1.11,9.839-2.211
		c3.024-1.091,5.872-2.618,8.475-4.552c2.615-1.95,5.003-4.184,7.083-6.619c1.924-2.178,3.567-4.916,4.889-8.175
		c1.177-2.931,1.655-6.101,1.418-9.409c-0.114-0.771-0.237-1.586-0.363-2.343c-0.111-0.654-0.344-1.458-0.684-2.381
		c-0.227-0.668-0.604-1.364-1.148-2.129c-0.318-0.437-0.664-0.761-1.047-0.96c0.848,0.868,1.365,2.055,1.517,3.54
		c0.134,1.424,0.009,2.913-0.393,4.432c-0.287,2.968-1.166,5.652-2.588,7.965c-1.396,2.252-3.183,4.411-5.306,6.409
		c-2.011,1.741-4.205,3.311-6.564,4.679c-2.384,1.396-4.93,2.493-7.571,3.289c-2.656,0.802-5.348,1.271-7.989,1.4
		c-2.732,0.137-5.11-0.151-7.065-0.853c-1.101-0.476-1.996-1.052-2.74-1.769c-0.141-0.063-0.26-0.139-0.36-0.209
		c-0.367-0.173-0.66-0.468-0.82-0.848c-0.151-0.219-0.292-0.485-0.42-0.821c-0.036-0.084-0.096-0.24-0.139-0.438l-0.114-0.107
		l-0.118-0.282c-1.002-2.438-1.289-4.731-0.841-6.814c0.252-2.207,1.094-4.594,2.464-6.92c1.31-2.237,2.906-4.434,4.738-6.527
		l0.173-0.17c2.307-1.917,4.507-3.664,6.54-5.193c2.947-1.824,5.396-2.942,7.6-3.496l0.172-0.037c3.272-0.421,5.81,0.3,7.549,2.113
		c-0.222-0.544-0.534-1.021-0.948-1.477c-0.546-0.602-1.169-1.044-1.861-1.344c-1.255-0.569-2.868-0.972-4.825-1.209
		c-3.268,0.014-6.341,0.725-9.139,2.124c-2.968,1.488-5.72,3.117-8.193,4.843c-2.329,1.992-4.695,4.347-6.9,6.911
		c-0.943,1.427-1.785,2.909-2.512,4.407c-0.703,1.471-1.234,3.117-1.59,4.88c-0.943,3.646-0.565,7.177,1.136,10.889
		c0.114,0.146,0.217,0.314,0.302,0.493l0.333,0.173l0.567,1.347l0.292,0.444C191.881,411.865,192.518,412.739,193.326,413.778
		 M201.563,407.078c0.199,0.104,0.41,0.214,0.631,0.31c1.471,0.521,3.481,0.756,5.806,0.64c2.395-0.118,4.84-0.542,7.263-1.269
		c2.413-0.725,4.737-1.732,6.909-3.001c2.2-1.284,4.238-2.73,6.059-4.313c1.888-1.77,3.5-3.723,4.757-5.748
		c1.197-1.938,1.924-4.227,2.157-6.77l0.046-0.271c0.329-1.196,0.442-2.36,0.335-3.451c-0.087-0.858-0.347-1.462-0.792-1.832
		c-0.768-0.669-1.688-0.983-2.836-0.983c-1.242,0-2.395,0.145-3.43,0.417c0.147,1.079,0.139,2.136-0.021,3.158
		c-0.276,1.722-0.765,3.36-1.45,4.869l-4.793,10.545l1.897-11.419c0.221-1.327,0.195-2.643-0.076-3.914
		c-0.143-0.624-0.329-1.212-0.555-1.731l-5.116,1.526l4.334-2.888c0-0.014-0.011-0.02-0.015-0.025
		c-0.978-1.139-2.67-1.604-4.977-1.321c-1.849,0.479-4.049,1.496-6.533,3.041c-1.857,1.396-3.982,3.085-6.21,4.938
		c-1.676,1.929-3.139,3.938-4.335,5.969c-1.152,1.967-1.858,3.954-2.081,5.881c-0.325,1.533-0.13,3.134,0.546,4.882l2.757,2.765
		h-0.277V407.078L201.563,407.078z"/>
	<path fill="#FFFFFF" d="M281.251,373.343c2.928,1.524,5.024,3.686,6.296,6.48c1.266,2.415,2.064,4.827,2.382,7.242
		c0.313,2.417,0.405,4.699,0.282,6.856c-0.378,8.646-2.539,17.024-6.479,25.158c0.257-4.315,0.348-8.544,0.284-12.672
		c-0.063-4.13-0.474-8.1-1.234-11.914c-0.26-2.028-0.635-3.904-1.143-5.617c-0.512-1.722-1.271-3.146-2.29-4.29
		c-0.252-0.638-0.632-1.081-1.144-1.339c-0.512-0.246-1.02-0.509-1.524-0.76c-1.144-0.632-2.351-0.954-3.623-0.954
		c-2.161,0.258-4.505,1.655-7.05,4.195c-1.139,1.269-2.282,2.642-3.43,4.095c-1.143,1.469-2.162,3.019-3.046,4.67
		c-0.253,0.508-0.448,0.896-0.577,1.143c-0.125,0.26-0.318,0.639-0.566,1.145l-0.573,1.147l-0.575,0.947
		c-0.254,0.766-0.474,1.625-0.664,2.577c-0.193,0.949-0.415,1.937-0.667,2.947l-2.48,12.199v0.384
		c-0.26,1.146-0.857,2.064-1.808,2.761c-0.952,0.699-2,0.929-3.147,0.669c-1.02-0.254-1.845-0.787-2.476-1.617
		c-0.634-0.825-0.888-1.747-0.757-2.768v-0.57c0.123-2.031,0.214-4.097,0.279-6.193c0.064-2.09,0.222-4.216,0.479-6.383
		c0.125-0.506,0.19-0.981,0.19-1.429c0-0.45,0.066-0.86,0.188-1.24l0.188-3.242c0.26-3.18,0.481-6.318,0.671-9.431
		c0.192-3.11,0.414-6.317,0.667-9.628c0.507,1.777,0.955,3.563,1.333,5.336c0.387,1.784,0.765,3.558,1.147,5.341
		c1.014-1.913,2.157-3.775,3.43-5.62c1.265-1.846,2.798-3.594,4.576-5.247c1.521-1.646,3.551-3.236,6.097-4.764
		c2.794-1.269,5.65-1.904,8.572-1.904c1.532,0,2.988,0.229,4.388,0.668C278.836,372.165,280.114,372.705,281.251,373.343"/>
	<path fill="#FFFFFF" d="M281.765,426.651l0.447-7.661c0.246-4.254,0.345-8.483,0.284-12.562c-0.064-4.024-0.468-7.944-1.212-11.633
		c-0.256-2.053-0.626-3.858-1.112-5.491c-0.436-1.492-1.098-2.734-1.961-3.704l-0.176-0.198l-0.1-0.243
		c-0.165-0.422-0.355-0.521-0.414-0.551l-1.531-0.753c-0.937-0.528-1.854-0.778-2.836-0.793c-1.783,0.241-3.822,1.505-6.063,3.743
		c-1.056,1.178-2.189,2.521-3.31,3.958c-1.09,1.396-2.07,2.891-2.911,4.452l-1.692,3.398l-0.542,0.896
		c-0.204,0.652-0.398,1.401-0.564,2.238c-0.195,0.974-0.422,1.981-0.685,3.026l-2.471,12.541c-0.333,1.511-1.141,2.739-2.397,3.662
		c-1.299,0.95-2.798,1.274-4.377,0.92c-1.391-0.35-2.508-1.073-3.353-2.181c-0.863-1.12-1.225-2.389-1.078-3.776v-0.485
		c0.127-2.109,0.226-4.162,0.29-6.237c0.066-2.141,0.226-4.334,0.486-6.521l0.031-0.186c0.098-0.393,0.147-0.749,0.147-1.062
		c0-0.535,0.067-1.04,0.204-1.516l0.18-3.051c0.252-3.202,0.478-6.342,0.666-9.443c0.195-3.118,0.41-6.329,0.668-9.652l0.658-8.484
		l2.33,8.189c0.522,1.84,0.98,3.666,1.359,5.433l0.316,1.477c0.48-0.773,0.987-1.542,1.515-2.311
		c1.322-1.92,2.939-3.767,4.787-5.486c1.537-1.674,3.706-3.368,6.356-4.955l0.146-0.085c2.988-1.349,6.086-2.032,9.208-2.032
		c1.677,0,3.3,0.248,4.847,0.731c1.499,0.476,2.867,1.065,4.09,1.74c3.181,1.654,5.531,4.079,6.938,7.176
		c1.312,2.49,2.167,5.1,2.507,7.679c0.329,2.502,0.425,4.904,0.296,7.146c-0.388,8.786-2.621,17.454-6.63,25.736L281.765,426.651z
		 M247.499,403.152c-0.244,2.063-0.394,4.136-0.453,6.158c-0.064,2.115-0.167,4.196-0.286,6.239v0.571l-0.011,0.096
		c-0.081,0.615,0.07,1.146,0.452,1.642c0.427,0.562,0.967,0.903,1.644,1.08c0.581,0.129,1.28,0.021,1.876-0.422
		c0.604-0.441,0.994-1.004,1.182-1.717l0.032-0.499l2.479-12.202c0.259-1.055,0.48-2.017,0.664-2.94
		c0.205-1.043,0.446-1.952,0.715-2.76l0.142-0.302l0.571-0.953l1.661-3.334c0.943-1.752,2.01-3.392,3.208-4.922
		c1.169-1.487,2.346-2.896,3.502-4.179c2.866-2.875,5.47-4.388,8.007-4.685l0.173-0.018c1.53,0,2.997,0.384,4.365,1.146l1.468,0.729
		c0.771,0.396,1.362,1.025,1.763,1.874c1.084,1.273,1.896,2.848,2.446,4.675c0.531,1.789,0.928,3.766,1.193,5.871
		c0.76,3.766,1.185,7.865,1.25,12.081c0.022,1.392,0.026,2.801,0.011,4.215c1.838-5.478,2.89-11.082,3.138-16.742
		c0.119-2.082,0.027-4.291-0.275-6.599c-0.29-2.213-1.04-4.484-2.22-6.727c-1.175-2.577-3.009-4.464-5.646-5.847
		c-1.079-0.595-2.271-1.101-3.568-1.512c-1.246-0.396-2.567-0.597-3.925-0.597c-2.657,0-5.305,0.574-7.864,1.731
		c-2.369,1.423-4.277,2.922-5.688,4.45c-1.773,1.646-3.242,3.32-4.438,5.067c-1.235,1.788-2.36,3.626-3.341,5.474l-1.957,3.681
		l-1.041-4.842c-0.185,2.952-0.4,5.94-0.638,8.952l-0.268,3.604c-0.075,0.221-0.11,0.468-0.11,0.756
		C247.714,401.98,247.643,402.557,247.499,403.152"/>
	<path fill="#FFFFFF" d="M447.059,291.961c0.638,1.402,1.021,2.607,1.142,3.621c0.384,2.04,0.515,3.851,0.384,5.438
		c-0.13,1.587-0.251,3.271-0.384,5.051c-0.253,1.524-0.504,3.077-0.76,4.67c-0.253,1.59-0.507,3.078-0.766,4.478
		c-1.27,6.092-2.694,12.007-4.28,17.723c-1.596,5.72-3.276,11.376-5.058,16.967c-1.648,5.714-3.335,11.433-5.053,17.155
		c-1.715,5.711-3.4,11.426-5.05,17.148c-1.521,5.716-3.054,11.43-4.576,17.15c-1.521,5.719-2.477,11.376-2.854,16.959v0.189
		c0.256,1.141-0.257,1.84-1.521,2.101c-1.278,0.129-2.044-0.447-2.298-1.716v-0.19c-0.124-1.021-0.188-1.971-0.188-2.859v-2.666
		c-0.127-1.397-0.256-2.833-0.382-4.29c-0.129-1.459-0.313-2.889-0.57-4.29c-0.13-1.271-0.313-2.473-0.571-3.622
		c-0.254-1.143-0.512-2.282-0.761-3.429c-0.508-1.012-1.05-2.024-1.62-3.05c-0.568-1.015-0.552-1.432-1.563-2.319
		c1.144,0.638,1.277,0.89,2.045,1.846c0.758,0.945,1.459,2.001,2.094,3.141c0.511,0.77,0.919,1.56,1.241,2.385
		c0.313,0.831,0.6,1.749,0.857,2.769c0-0.376,0.025-0.768,0.093-1.144c0.063-0.38,0.096-0.702,0.096-0.956
		c0.506-2.927,1.015-5.875,1.531-8.861c0.493-2.979,1.071-5.935,1.706-8.861c0.638-2.538,1.208-5.074,1.713-7.621
		c0.509-2.54,1.081-5.085,1.719-7.628c-2.545,1.271-5.053,2.451-7.523,3.526c-2.478,1.078-5.055,2.063-7.722,2.957
		c-3.688,1.018-7.402,1.968-11.148,2.854c-3.75,0.89-7.465,1.527-11.153,1.903c-3.807,0.513-7.613,0.856-11.434,1.047
		c-3.812,0.189-7.685,0.096-11.623-0.28c-0.254,0-0.545-0.032-0.855-0.096c-0.319-0.063-0.605-0.092-0.861-0.092
		c-4.061,4.695-8.162,9.34-12.285,13.913c-4.136,4.567-8.292,9.214-12.489,13.904c3.177-4.822,6.39-9.63,9.625-14.382
		c3.246-4.766,6.515-9.497,9.815-14.204c-5.337-0.762-10.478-2.283-15.439-4.57c3.688-0.504,7.208-0.924,10.577-1.234
		c3.369-0.325,6.701-0.734,10.015-1.247c2.92-3.81,5.774-7.59,8.573-11.333c2.787-3.742,5.65-7.463,8.572-11.151
		c3.687-4.7,7.4-9.37,11.151-14.01c3.74-4.637,7.65-9.174,11.716-13.629c3.939-4.696,7.916-9.268,11.915-13.717
		c4.003-4.443,8.42-8.705,13.25-12.771c2.154-1.78,4.884-3.75,8.189-5.904c0.765-0.133,1.845-0.509,3.243-1.148
		c0.629-0.253,1.489-0.345,2.57-0.28c1.071,0.06,1.937,0.28,2.571,0.662c0.889,0.26,1.497,0.54,1.811,0.863
		c0.319,0.313,0.668,0.657,1.052,1.049c0.249,0.251,0.441,0.438,0.568,0.567c0.127,0.131,0.316,0.317,0.57,0.565L447.059,291.961z
		 M437.911,304.922c0.129-1.271,0.222-2.409,0.29-3.43c0.06-1.014,0.026-1.968-0.097-2.856c-0.892,0.507-1.78,1.109-2.669,1.813
		c-0.89,0.702-1.784,1.369-2.669,1.994c-2.166,1.907-4.292,3.882-6.39,5.908c-2.098,2.036-4.221,4.076-6.386,6.104
		c-2.028,2.162-4.06,4.292-6.096,6.384c-2.036,2.103-4.004,4.229-5.906,6.387c-4.071,4.32-8.104,8.67-12.106,13.053
		c-3.999,4.389-7.976,8.801-11.907,13.252c-2.546,2.791-4.989,5.521-7.339,8.191c-2.353,2.665-4.797,5.4-7.338,8.194l15.252-1.906
		c3.553-0.509,7.206-0.981,10.954-1.429c3.746-0.438,7.462-0.793,11.143-1.053c2.929-0.249,5.851-0.507,8.771-0.763
		c2.924-0.252,5.852-0.445,8.766-0.57c0.638-2.922,1.311-5.721,2.008-8.381c0.693-2.678,1.362-5.401,1.998-8.199l4.578-17.343
		c0.629-2.922,1.267-5.779,1.903-8.571c0.637-2.793,1.206-5.597,1.714-8.391c0.26-1.396,0.507-2.792,0.765-4.192
		C437.401,307.72,437.65,306.322,437.911,304.922"/>
	<path fill="#FFFFFF" d="M417.942,422.911c-2.178,0-3.752-1.334-4.188-3.575l-0.056-0.496c-0.117-1.04-0.181-2.061-0.181-2.997
		v-2.563c-0.132-1.363-0.25-2.768-0.372-4.194c-0.127-1.378-0.305-2.754-0.546-4.076l-0.021-0.181
		c-0.125-1.179-0.305-2.305-0.533-3.354l-0.7-3.146c-0.454-0.905-0.938-1.801-1.439-2.707c-0.188-0.325-0.317-0.602-0.437-0.848
		c-0.229-0.465-0.261-0.535-0.646-0.871l-16.059-14.084c-2.229,0.404-4.449,0.724-6.643,0.946
		c-3.781,0.511-7.693,0.871-11.566,1.054c-3.869,0.195-7.857,0.103-11.855-0.278c-0.218-0.006-0.438-0.021-0.666-0.054
		c-3.783,4.367-7.66,8.742-11.52,13.021c-4.13,4.571-8.292,9.208-12.476,13.899l-3.622-2.772c3.126-4.754,6.378-9.609,9.651-14.418
		c2.577-3.802,5.179-7.583,7.772-11.287c-4.278-0.894-8.454-2.271-12.463-4.129l-7.106-3.275l7.749-1.065
		c3.724-0.505,7.313-0.927,10.672-1.252c2.99-0.276,6.007-0.643,8.974-1.081c2.715-3.555,5.383-7.079,7.992-10.585
		c2.797-3.747,5.69-7.517,8.621-11.203c3.668-4.678,7.424-9.399,11.162-14.025c3.748-4.641,7.722-9.264,11.812-13.726
		c3.84-4.594,7.866-9.229,11.898-13.714c4.055-4.509,8.586-8.875,13.474-12.988c2.23-1.837,5.057-3.875,8.412-6.075l0.404-0.259
		l0.475-0.085c0.32-0.046,1.078-0.236,2.671-0.963c1.08-0.438,2.199-0.567,3.653-0.494c1.333,0.087,2.426,0.358,3.332,0.837
		c1.147,0.362,1.961,0.793,2.526,1.354l2.528,2.523l0.557,1.396c0.695,1.533,1.131,2.929,1.288,4.185
		c0.397,2.081,0.534,4.115,0.397,5.904c-0.14,1.579-0.258,3.255-0.389,5.023l-0.021,0.221c-0.253,1.516-0.515,3.069-0.759,4.652
		c-0.256,1.605-0.52,3.112-0.771,4.523c-1.285,6.171-2.746,12.188-4.33,17.922c-1.607,5.758-3.31,11.496-5.083,17.046
		c-1.637,5.669-3.322,11.393-5.038,17.121c-1.713,5.704-3.401,11.418-5.046,17.134l-4.562,17.1
		c-1.465,5.5-2.403,11.009-2.772,16.378c0.197,1.284-0.174,2.211-0.534,2.773c-0.594,0.9-1.556,1.497-2.844,1.757l-0.21,0.028
		C418.313,422.9,418.126,422.911,417.942,422.911 M419.037,400.438c-0.013,0.318-0.052,0.685-0.118,1.097
		c-0.052,0.271-0.065,0.522-0.065,0.778v5.508c0.437-2.351,0.97-4.7,1.603-7.053l4.575-17.148c1.662-5.775,3.349-11.495,5.065-17.22
		c1.716-5.718,3.395-11.426,5.05-17.136c1.768-5.563,3.46-11.242,5.039-16.938c1.569-5.638,2.999-11.559,4.259-17.576
		c0.236-1.328,0.492-2.801,0.738-4.373c0.247-1.554,0.495-3.085,0.749-4.583c0.125-1.747,0.246-3.396,0.376-4.96
		c0.103-1.381-0.01-3.008-0.348-4.831c-0.125-0.916-0.443-1.907-0.982-3.094l-0.24-0.613l-1.86-1.854
		c0.025,0.043-0.207-0.103-0.836-0.28l-0.54-0.235c-0.172-0.107-0.608-0.293-1.535-0.347c-0.161-0.012-0.322-0.016-0.479-0.016
		c-0.673,0-0.998,0.096-1.104,0.144c-1.266,0.574-2.318,0.961-3.202,1.171c-3.059,2.012-5.619,3.87-7.627,5.521
		c-4.7,3.962-9.089,8.183-13.003,12.531c-3.995,4.438-7.979,9.036-11.855,13.66c-4.091,4.476-8.005,9.025-11.691,13.597
		c-3.729,4.608-7.469,9.315-11.133,13.985c-2.904,3.652-5.771,7.384-8.543,11.099c-2.797,3.759-5.666,7.548-8.588,11.364
		l-0.563,0.733l-0.908,0.134c-3.354,0.52-6.766,0.943-10.135,1.26c-0.303,0.027-0.604,0.057-0.912,0.085
		c1.938,0.513,3.896,0.902,5.877,1.189l3.691,0.526l-1.967,2.795c0.521-0.603,1.041-1.198,1.559-1.795l0.691-0.793h1.033
		c0.407,0,0.827,0.045,1.303,0.138c0.217,0.046,0.344,0.055,0.418,0.055l0.221,0.011c3.814,0.367,7.6,0.466,11.293,0.275
		c3.736-0.188,7.525-0.534,11.246-1.028c3.64-0.379,7.293-1.005,10.921-1.863c3.704-0.876,7.425-1.835,11.066-2.84
		c2.469-0.819,5.003-1.795,7.413-2.847c1.374-0.596,2.776-1.228,4.194-1.906c-1.188,0.09-2.378,0.182-3.56,0.279l-8.767,0.765
		c-3.688,0.249-7.399,0.605-11.078,1.038c-3.72,0.438-7.389,0.928-10.901,1.423l-21.43,2.678l4.164-4.577
		c2.533-2.779,4.969-5.51,7.314-8.165c2.355-2.674,4.811-5.417,7.357-8.222c3.872-4.372,7.888-8.835,11.912-13.249
		c4.027-4.412,8.109-8.811,12.131-13.079c1.889-2.146,3.903-4.318,5.936-6.404c2.02-2.093,4.044-4.216,6.07-6.36
		c2.254-2.123,4.367-4.15,6.461-6.179c2.155-2.086,4.326-4.099,6.463-5.979l0.182-0.146c0.858-0.616,1.722-1.263,2.591-1.941
		c0.969-0.767,1.967-1.436,2.942-1.999l2.934-1.679l0.463,3.35c0.149,1.042,0.188,2.162,0.113,3.313
		c-0.066,1.047-0.163,2.215-0.292,3.519l-0.028,0.188l-1.52,8.37c-0.512,2.832-1.102,5.684-1.738,8.497
		c-0.634,2.796-1.265,5.64-1.899,8.551l-4.599,17.443c-0.621,2.724-1.3,5.5-2.001,8.188c-0.551,2.109-1.088,4.328-1.606,6.615
		l0.062-0.032l-1.208,4.831c-0.627,2.499-1.195,5.023-1.688,7.517c-0.519,2.559-1.099,5.162-1.747,7.729
		c-0.608,2.813-1.179,5.757-1.675,8.69C420.032,394.669,419.537,397.568,419.037,400.438 M392.827,379.801l18.619,10.382
		c1.374,0.767,1.782,1.239,2.518,2.169l0.193,0.241c0.447,0.556,0.874,1.147,1.288,1.773c0.188-1.128,0.388-2.263,0.577-3.397
		c0.515-3.008,1.1-6.021,1.735-8.964c0.644-2.563,1.213-5.096,1.708-7.585c0.206-1.007,0.415-2.017,0.637-3.028
		c-1.109,0.514-2.21,1.01-3.292,1.477c-2.533,1.107-5.202,2.125-7.916,3.025c-3.805,1.063-7.583,2.024-11.342,2.918
		C395.978,379.186,394.398,379.514,392.827,379.801 M434.188,304.235c-2.054,1.815-4.145,3.749-6.218,5.763
		c-2.104,2.038-4.244,4.082-6.411,6.113c-1.937,2.082-3.984,4.216-6.021,6.316c-1.979,2.036-3.938,4.163-5.832,6.311
		c-4.061,4.308-8.121,8.688-12.132,13.076c-4.012,4.398-8.012,8.849-11.887,13.227c-2.557,2.809-4.985,5.524-7.332,8.188
		c-1.065,1.204-2.146,2.43-3.245,3.65l9.155-1.14c3.509-0.504,7.213-0.985,10.97-1.435c3.752-0.443,7.537-0.8,11.258-1.055
		l8.731-0.767c2.354-0.206,4.739-0.367,7.104-0.489c0.528-2.336,1.078-4.611,1.646-6.77c0.693-2.643,1.361-5.376,1.986-8.125
		l4.587-17.417c0.616-2.831,1.255-5.694,1.895-8.506c0.62-2.736,1.189-5.526,1.693-8.282l1.509-8.296
		c0.055-0.53,0.104-1.051,0.146-1.542C435.257,303.465,434.724,303.86,434.188,304.235"/>
	<path fill="#FFFFFF" d="M471.452,373.343c2.923,1.524,5.021,3.686,6.285,6.48c1.271,2.415,2.069,4.827,2.389,7.242
		c0.313,2.417,0.403,4.699,0.281,6.856c-0.378,8.646-2.538,17.024-6.477,25.158c0.249-4.315,0.346-8.544,0.278-12.672
		c-0.063-4.13-0.475-8.1-1.233-11.914c-0.259-2.028-0.641-3.904-1.144-5.617c-0.514-1.722-1.276-3.146-2.291-4.29
		c-0.251-0.638-0.639-1.081-1.136-1.339c-0.514-0.246-1.023-0.509-1.526-0.76c-1.147-0.632-2.356-0.954-3.621-0.954
		c-2.167,0.258-4.517,1.655-7.053,4.195c-1.144,1.269-2.289,2.642-3.436,4.095c-1.139,1.469-2.158,3.019-3.045,4.67
		c-0.261,0.508-0.447,0.896-0.578,1.143c-0.125,0.26-0.316,0.639-0.564,1.145l-0.572,1.147l-0.576,0.947
		c-0.253,0.766-0.473,1.625-0.662,2.577c-0.188,0.949-0.415,1.937-0.666,2.947l-2.48,12.199v0.384
		c-0.253,1.146-0.856,2.064-1.807,2.761c-0.951,0.699-2.001,0.929-3.147,0.669c-1.021-0.254-1.845-0.787-2.478-1.617
		c-0.634-0.825-0.895-1.747-0.758-2.768v-0.57c0.124-2.031,0.222-4.097,0.279-6.193c0.064-2.09,0.221-4.216,0.479-6.383
		c0.12-0.506,0.189-0.981,0.189-1.429c0-0.45,0.06-0.86,0.188-1.24l0.188-3.242c0.253-3.18,0.48-6.318,0.677-9.431
		c0.188-3.11,0.401-6.317,0.662-9.628c0.505,1.777,0.954,3.563,1.33,5.336c0.389,1.784,0.767,3.558,1.146,5.341
		c1.015-1.913,2.158-3.775,3.431-5.62c1.268-1.846,2.791-3.594,4.576-5.247c1.521-1.646,3.559-3.236,6.099-4.764
		c2.794-1.269,5.654-1.904,8.577-1.904c1.521,0,2.979,0.229,4.383,0.668C469.038,372.165,470.307,372.705,471.452,373.343"/>
	<path fill="#FFFFFF" d="M471.958,426.651l0.451-7.661c0.245-4.254,0.342-8.483,0.279-12.562c-0.062-4.024-0.475-7.944-1.207-11.633
		c-0.264-2.053-0.632-3.858-1.114-5.491c-0.437-1.492-1.104-2.734-1.964-3.704l-0.177-0.198l-0.1-0.243
		c-0.166-0.422-0.354-0.521-0.413-0.551l-1.525-0.753c-0.948-0.528-1.859-0.778-2.839-0.793c-1.785,0.241-3.829,1.505-6.066,3.743
		c-1.055,1.178-2.189,2.521-3.312,3.958c-1.088,1.396-2.067,2.891-2.908,4.452l-1.692,3.398l-0.542,0.896
		c-0.203,0.652-0.396,1.401-0.563,2.238c-0.194,0.974-0.419,1.981-0.685,3.026l-2.471,12.541c-0.335,1.511-1.148,2.739-2.392,3.662
		c-1.313,0.95-2.808,1.274-4.385,0.92c-1.393-0.35-2.509-1.073-3.354-2.181c-0.866-1.12-1.227-2.389-1.08-3.776v-0.485
		c0.127-2.109,0.222-4.162,0.291-6.237c0.065-2.141,0.228-4.334,0.484-6.521l0.032-0.186c0.1-0.393,0.146-0.749,0.146-1.062
		c0-0.535,0.071-1.04,0.205-1.516l0.177-3.051c0.256-3.202,0.48-6.342,0.671-9.443c0.194-3.118,0.414-6.329,0.668-9.652l0.658-8.484
		l2.33,8.189c0.521,1.84,0.974,3.666,1.354,5.433l0.318,1.477c0.479-0.773,0.985-1.542,1.51-2.311
		c1.325-1.92,2.944-3.767,4.79-5.486c1.545-1.674,3.712-3.368,6.358-4.955l0.149-0.085c2.98-1.349,6.077-2.032,9.209-2.032
		c1.671,0,3.291,0.248,4.841,0.731c1.499,0.476,2.871,1.065,4.098,1.74c3.178,1.654,5.521,4.079,6.934,7.176
		c1.31,2.49,2.167,5.1,2.506,7.679c0.324,2.502,0.427,4.904,0.298,7.146c-0.39,8.786-2.621,17.454-6.632,25.736L471.958,426.651z
		 M437.694,403.152c-0.244,2.063-0.396,4.136-0.452,6.158c-0.071,2.115-0.163,4.196-0.29,6.239l0.005,0.571l-0.012,0.096
		c-0.076,0.615,0.067,1.146,0.452,1.642c0.426,0.562,0.965,0.903,1.646,1.08c0.577,0.129,1.272,0.021,1.869-0.422
		c0.611-0.441,0.999-1.004,1.188-1.717l0.032-0.499l2.479-12.202c0.266-1.055,0.479-2.017,0.662-2.94
		c0.21-1.043,0.447-1.952,0.717-2.76l0.143-0.302l0.57-0.953l1.658-3.334c0.944-1.752,2.014-3.392,3.21-4.922
		c1.168-1.487,2.347-2.896,3.496-4.179c2.875-2.875,5.475-4.388,8.013-4.685l0.181-0.018c1.521,0,2.989,0.384,4.36,1.146
		l1.456,0.729c0.78,0.396,1.372,1.025,1.771,1.874c1.085,1.273,1.903,2.848,2.447,4.675c0.527,1.789,0.929,3.766,1.199,5.871
		c0.754,3.766,1.177,7.865,1.248,12.081c0.017,1.392,0.021,2.801,0.005,4.215c1.833-5.478,2.892-11.082,3.145-16.742
		c0.113-2.082,0.021-4.291-0.279-6.599c-0.29-2.213-1.04-4.484-2.222-6.727c-1.176-2.577-3.008-4.464-5.646-5.847
		c-1.075-0.595-2.271-1.101-3.566-1.512c-1.24-0.396-2.564-0.597-3.918-0.597c-2.665,0-5.307,0.574-7.865,1.731
		c-2.368,1.423-4.286,2.922-5.694,4.45c-1.772,1.646-3.23,3.32-4.439,5.067c-1.229,1.788-2.356,3.626-3.338,5.474l-1.957,3.681
		l-1.039-4.842c-0.189,2.952-0.399,5.94-0.639,8.952l-0.27,3.604c-0.072,0.221-0.106,0.468-0.106,0.756
		C437.911,401.98,437.839,402.557,437.694,403.152"/>
	<path fill="#FFFFFF" d="M508.61,374.291c0.381,0,0.768-0.025,1.146-0.088c0.38-0.063,0.824-0.033,1.329,0.088
		c1.527,0.259,3.082,0.576,4.674,0.958c1.584,0.38,3.075,1.146,4.475,2.286c-1.397,0.891-2.695,1.716-3.91,2.476
		c-1.204,0.767-2.506,1.402-3.902,1.906c-1.899,0.896-3.686,1.591-5.336,2.102c-0.254,1.018-0.476,2.062-0.668,3.141
		c-0.185,1.084-0.411,2.132-0.662,3.146c-0.643,2.676-1.37,5.305-2.195,7.911c-0.825,2.608-1.747,5.179-2.759,7.716
		c-1.021,2.543-2.13,5.018-3.338,7.437c-1.207,2.415-2.571,4.893-4.099,7.433c-0.635-2.929-0.891-5.771-0.76-8.573
		c0.125-2.794,0.313-5.527,0.565-8.195c0.382-2.667,0.793-5.362,1.237-8.098c0.45-2.738,0.989-5.368,1.622-7.912
		c0.125-0.51,0.256-0.951,0.384-1.339c0.126-0.377,0.247-0.82,0.387-1.334c-0.261,0-0.515,0.041-0.771,0.104
		c-0.258,0.063-0.506,0.091-0.764,0.091c-1.396-0.122-2.853-0.253-4.378-0.385c-1.53-0.122-3.052-0.504-4.577-1.14
		c1.013-1.397,2.162-2.576,3.431-3.525c1.271-0.96,2.604-1.747,4.005-2.383c1.015-0.636,1.993-1.179,2.946-1.623
		c0.955-0.45,2.006-0.793,3.147-1.052c0.255-0.494,0.443-1.012,0.572-1.521c0.125-0.509,0.313-0.955,0.572-1.335
		c1.143-2.667,2.284-5.237,3.432-7.717c1.141-2.48,2.605-4.86,4.385-7.149c0.254,2.799,0.346,5.591,0.287,8.386
		C509.027,368.899,508.865,371.627,508.61,374.291"/>
	<path fill="#FFFFFF" d="M492.69,424.879l-0.813-3.756c-0.667-3.029-0.926-6.055-0.8-8.979c0.125-2.803,0.322-5.587,0.577-8.267
		c0.388-2.74,0.804-5.459,1.25-8.198c0.452-2.771,1.008-5.466,1.646-8.031c0.053-0.227,0.112-0.431,0.166-0.637
		c-1.33-0.107-2.617-0.224-3.955-0.335c-1.671-0.141-3.369-0.561-5.038-1.262l-1.776-0.736l1.135-1.56
		c1.098-1.515,2.364-2.813,3.75-3.854c1.314-0.983,2.729-1.826,4.195-2.506c1.021-0.638,2.038-1.191,3.027-1.653
		c0.828-0.386,1.731-0.714,2.693-0.968c0.077-0.205,0.144-0.398,0.186-0.594c0.156-0.625,0.396-1.188,0.699-1.687
		c1.136-2.625,2.273-5.196,3.396-7.64c1.191-2.578,2.729-5.079,4.57-7.438l2.369-3.053l0.347,3.85
		c0.262,2.836,0.357,5.715,0.292,8.563c-0.052,2.197-0.16,4.388-0.321,6.506c0.361,0.018,0.753,0.07,1.166,0.168
		c1.459,0.241,3.065,0.568,4.662,0.946c1.806,0.441,3.513,1.309,5.089,2.589l1.634,1.336l-5.69,3.613
		c-1.309,0.823-2.719,1.509-4.198,2.054c-1.552,0.729-3.108,1.357-4.571,1.852c-0.171,0.709-0.32,1.457-0.45,2.221
		c-0.198,1.104-0.432,2.188-0.693,3.25c-0.644,2.7-1.388,5.396-2.215,8.004c-0.842,2.641-1.782,5.274-2.808,7.818
		c-1.032,2.583-2.171,5.12-3.384,7.545c-1.229,2.46-2.633,5-4.154,7.537L492.69,424.879z M496.799,383.822h1.95l-0.474,1.896
		c-0.14,0.55-0.282,1.031-0.416,1.438c-0.116,0.356-0.23,0.763-0.351,1.224c-0.627,2.485-1.156,5.105-1.596,7.788
		c-0.441,2.731-0.851,5.409-1.233,8.071c-0.243,2.563-0.434,5.29-0.556,8.045c-0.06,1.313-0.032,2.643,0.087,3.983
		c0.666-1.2,1.293-2.402,1.887-3.586c1.175-2.354,2.283-4.813,3.282-7.319c0.991-2.479,1.91-5.04,2.729-7.612
		c0.805-2.533,1.53-5.158,2.163-7.804c0.247-1.006,0.469-2.023,0.644-3.057c0.209-1.131,0.435-2.229,0.696-3.25l0.205-0.834
		l0.819-0.255c1.58-0.476,3.305-1.156,5.138-2.015c1.407-0.517,2.626-1.105,3.741-1.817l1.931-1.218
		c-0.668-0.35-1.35-0.606-2.042-0.776c-1.525-0.364-3.063-0.679-4.566-0.929c-0.336-0.08-0.529-0.104-0.684-0.104
		c-0.595,0.088-1.063,0.129-1.544,0.129h-1.676l0.161-1.669c0.242-2.611,0.402-5.33,0.47-8.086c0.024-1.275,0.021-2.559-0.02-3.854
		c-0.644,1.079-1.234,2.175-1.743,3.284c-1.133,2.454-2.28,5.042-3.413,7.684l-0.135,0.251c-0.156,0.228-0.274,0.515-0.355,0.849
		c-0.157,0.624-0.39,1.238-0.688,1.84l-0.323,0.647l-0.704,0.158c-1.036,0.231-1.993,0.546-2.834,0.942
		c-0.902,0.422-1.843,0.938-2.796,1.529l-0.176,0.101c-1.297,0.593-2.549,1.338-3.72,2.211c-0.611,0.464-1.199,0.985-1.762,1.573
		c0.711,0.183,1.419,0.301,2.116,0.354c1.528,0.129,2.992,0.254,4.396,0.383c-0.007-0.007,0.12-0.024,0.249-0.053
		C496.039,383.867,496.426,383.822,496.799,383.822"/>
	<path fill="#FFFFFF" d="M565.214,405.745c-2.159,2.538-4.605,4.827-7.337,6.854c-2.731,2.035-5.69,3.622-8.863,4.771
		c-3.174,1.143-6.574,1.905-10.193,2.281c-3.62,0.389-7.341-0.187-11.152-1.711c-1.015-0.261-1.929-0.668-2.759-1.239
		c-0.828-0.575-1.683-1.176-2.576-1.813c-0.887-1.143-1.587-2.095-2.098-2.859l-0.381-0.572l-0.375-0.948
		c-0.263-0.131-0.415-0.284-0.48-0.477c-0.061-0.191-0.159-0.354-0.283-0.479c-1.901-4.066-2.355-8.063-1.332-12
		c0.378-1.912,0.954-3.65,1.707-5.243c0.766-1.593,1.655-3.147,2.677-4.67c2.284-2.669,4.693-5.084,7.241-7.242
		c2.535-1.778,5.335-3.429,8.383-4.961c3.049-1.521,6.354-2.284,9.913-2.284c2.154,0.258,3.936,0.712,5.335,1.337
		c0.891,0.382,1.683,0.947,2.379,1.715c0.698,0.767,1.18,1.582,1.428,2.478c0.638,1.78,0.831,3.464,0.577,5.055
		c-0.261,1.591-0.7,3.075-1.337,4.479c0.262-1.533,0.222-3.019-0.1-4.479c-0.311-1.461-0.854-2.702-1.614-3.722
		c-1.396-1.646-3.561-2.282-6.479-1.902c-2.032,0.509-4.383,1.585-7.053,3.246c-2.03,1.52-4.194,3.231-6.479,5.142
		c-1.779,2.035-3.309,4.131-4.571,6.288c-1.278,2.16-2.038,4.322-2.29,6.479c-0.379,1.779-0.129,3.751,0.765,5.907l0.378,0.383
		c-0.131,0-0.131,0.156,0,0.475c0.129,0.317,0.258,0.54,0.382,0.67c0,0.133,0.063,0.189,0.197,0.189
		c0.114,0.13,0.214,0.192,0.283,0.192c0.063,0,0.146,0.063,0.285,0.19c0.632,0.639,1.396,1.141,2.284,1.521
		c1.778,0.637,3.938,0.885,6.481,0.759c2.536-0.122,5.074-0.563,7.622-1.329c2.537-0.768,4.953-1.812,7.237-3.146
		c2.292-1.333,4.39-2.827,6.292-4.481c2.026-1.899,3.714-3.929,5.052-6.096c1.335-2.157,2.124-4.637,2.383-7.428
		c0.379-1.403,0.508-2.733,0.379-4.002c-0.128-1.272-0.572-2.228-1.333-2.863c-1.021-0.888-2.292-1.33-3.813-1.33
		s-2.92,0.189-4.197,0.571c1.146-0.769,2.514-1.437,4.1-2.007c1.592-0.567,3.339-0.473,5.243,0.287
		c0.89,0.254,1.651,0.825,2.289,1.72c0.631,0.885,1.077,1.716,1.331,2.476c0.386,1.019,0.637,1.902,0.763,2.666
		c0.122,0.763,0.251,1.594,0.388,2.482c0.254,3.557-0.266,6.922-1.525,10.096C568.962,400.592,567.248,403.456,565.214,405.745"/>
	<path fill="#FFFFFF" d="M536.637,421.293c-3.077,0-6.252-0.637-9.438-1.902c-1.147-0.298-2.214-0.774-3.16-1.438
		c-0.834-0.572-1.698-1.18-2.596-1.828l-0.311-0.3c-0.935-1.188-1.641-2.158-2.168-2.944l-0.528-0.852l-0.204-0.521
		c-0.387-0.332-0.59-0.711-0.686-1.007l-0.215-0.305c-2.056-4.368-2.533-8.758-1.43-13.035c0.383-1.933,0.998-3.818,1.811-5.512
		c0.8-1.661,1.735-3.295,2.775-4.863l0.113-0.14c2.325-2.719,4.821-5.215,7.414-7.417c2.698-1.898,5.589-3.603,8.688-5.152
		c3.246-1.633,6.814-2.45,10.596-2.45l0.179,0.012c2.304,0.271,4.25,0.767,5.783,1.463c1.057,0.444,2.032,1.146,2.88,2.069
		c0.705,0.775,1.232,1.616,1.579,2.512c1.063-0.631,2.288-1.19,3.639-1.678c1.931-0.7,4.08-0.594,6.322,0.311
		c1.077,0.299,2.124,1.07,2.961,2.233c0.731,1.024,1.233,1.976,1.543,2.885c0.402,1.068,0.679,2.032,0.825,2.9
		c0.124,0.784,0.251,1.614,0.382,2.511c0.278,3.882-0.265,7.514-1.619,10.885c-1.459,3.586-3.283,6.62-5.422,9.024
		c-2.207,2.601-4.761,4.987-7.565,7.073c-2.842,2.11-5.955,3.785-9.259,4.971c-3.275,1.186-6.828,1.983-10.548,2.37
		C538.206,421.256,537.415,421.293,536.637,421.293 M523.397,413.778c0.821,0.582,1.614,1.136,2.371,1.667
		c0.68,0.468,1.438,0.807,2.266,1.012l0.205,0.064c3.559,1.425,7.063,1.975,10.414,1.618c3.488-0.366,6.801-1.11,9.852-2.211
		c3.02-1.091,5.862-2.618,8.462-4.552c2.628-1.95,5.01-4.184,7.084-6.619c1.932-2.178,3.567-4.916,4.9-8.175
		c1.171-2.931,1.648-6.101,1.411-9.409c-0.111-0.771-0.24-1.586-0.367-2.343c-0.105-0.654-0.337-1.458-0.68-2.381
		c-0.23-0.668-0.609-1.364-1.149-2.129c-0.314-0.437-0.658-0.761-1.046-0.96c0.857,0.868,1.367,2.055,1.521,3.54
		c0.137,1.424,0.007,2.913-0.393,4.432c-0.294,2.968-1.161,5.652-2.596,7.965c-1.393,2.252-3.169,4.411-5.307,6.409
		c-2.005,1.741-4.197,3.311-6.563,4.679c-2.382,1.396-4.927,2.493-7.571,3.289c-2.66,0.802-5.342,1.271-7.984,1.4
		c-2.737,0.137-5.107-0.151-7.072-0.853c-1.095-0.476-1.989-1.052-2.738-1.769c-0.135-0.063-0.254-0.139-0.359-0.209
		c-0.367-0.173-0.652-0.468-0.814-0.848c-0.15-0.219-0.291-0.485-0.42-0.821c-0.031-0.084-0.1-0.24-0.146-0.438l-0.106-0.107
		l-0.112-0.282c-1.003-2.438-1.296-4.731-0.846-6.814c0.254-2.207,1.087-4.594,2.462-6.92c1.309-2.237,2.907-4.434,4.743-6.527
		l0.169-0.17c2.308-1.917,4.505-3.664,6.543-5.193c2.944-1.824,5.389-2.942,7.599-3.496l0.172-0.037
		c3.267-0.421,5.808,0.3,7.548,2.113c-0.229-0.544-0.533-1.021-0.95-1.477c-0.55-0.602-1.177-1.044-1.861-1.344
		c-1.26-0.569-2.864-0.972-4.821-1.209c-3.266,0.014-6.338,0.725-9.137,2.124c-2.971,1.488-5.727,3.117-8.195,4.843
		c-2.333,1.992-4.69,4.347-6.894,6.911c-0.95,1.427-1.791,2.909-2.521,4.407c-0.7,1.471-1.239,3.117-1.594,4.88
		c-0.934,3.646-0.557,7.177,1.144,10.889c0.11,0.146,0.214,0.314,0.302,0.493l0.333,0.173l0.565,1.347l0.29,0.444
		C521.96,411.865,522.594,412.739,523.397,413.778 M531.635,407.078c0.198,0.104,0.408,0.214,0.634,0.31
		c1.479,0.521,3.482,0.756,5.805,0.64c2.402-0.118,4.843-0.542,7.267-1.269c2.416-0.725,4.737-1.732,6.912-3.001
		c2.196-1.284,4.234-2.73,6.06-4.313c1.882-1.77,3.496-3.723,4.748-5.748c1.203-1.938,1.925-4.227,2.163-6.77l0.045-0.271
		c0.332-1.196,0.442-2.36,0.336-3.451c-0.085-0.858-0.352-1.462-0.8-1.832c-0.76-0.669-1.679-0.983-2.827-0.983
		c-1.238,0-2.396,0.145-3.43,0.417c0.151,1.079,0.143,2.136-0.021,3.158c-0.281,1.722-0.768,3.36-1.459,4.869l-4.778,10.545
		l1.893-11.419c0.223-1.327,0.195-2.643-0.073-3.914c-0.144-0.624-0.331-1.212-0.561-1.731l-5.11,1.526l4.331-2.888
		c-0.006-0.014-0.017-0.02-0.017-0.025c-0.975-1.139-2.666-1.604-4.974-1.321c-1.852,0.479-4.053,1.496-6.535,3.041
		c-1.854,1.396-3.983,3.085-6.217,4.938c-1.677,1.929-3.132,3.938-4.321,5.969c-1.16,1.967-1.857,3.954-2.094,5.881
		c-0.316,1.533-0.129,3.134,0.551,4.882l2.766,2.765h-0.291L531.635,407.078L531.635,407.078z"/>
	<path fill="#FFFFFF" d="M612.86,373.343c2.916,1.524,5.021,3.686,6.284,6.48c1.271,2.415,2.063,4.827,2.385,7.242
		c0.312,2.417,0.413,4.699,0.284,6.856c-0.379,8.646-2.544,17.024-6.479,25.158c0.253-4.315,0.353-8.544,0.286-12.672
		c-0.063-4.13-0.475-8.1-1.233-11.914c-0.261-2.028-0.644-3.904-1.144-5.617c-0.515-1.722-1.28-3.146-2.291-4.29
		c-0.257-0.638-0.639-1.081-1.143-1.339c-0.517-0.246-1.021-0.509-1.525-0.76c-1.144-0.632-2.354-0.954-3.622-0.954
		c-2.159,0.258-4.51,1.655-7.055,4.195c-1.144,1.269-2.286,2.642-3.43,4.095c-1.144,1.469-2.159,3.019-3.052,4.67
		c-0.251,0.508-0.444,0.896-0.569,1.143c-0.13,0.26-0.313,0.639-0.571,1.145l-0.57,1.147l-0.57,0.947
		c-0.255,0.766-0.476,1.625-0.669,2.577c-0.188,0.949-0.41,1.937-0.663,2.947l-2.479,12.199v0.384
		c-0.262,1.146-0.854,2.064-1.812,2.761c-0.957,0.699-2.001,0.929-3.145,0.669c-1.023-0.254-1.844-0.787-2.476-1.617
		c-0.644-0.825-0.895-1.747-0.766-2.768v-0.57c0.122-2.031,0.22-4.097,0.284-6.193c0.063-2.09,0.224-4.216,0.479-6.383
		c0.124-0.506,0.188-0.981,0.188-1.429c0-0.45,0.064-0.86,0.189-1.24l0.188-3.242c0.259-3.18,0.479-6.318,0.67-9.431
		c0.188-3.11,0.409-6.317,0.668-9.628c0.505,1.777,0.952,3.563,1.33,5.336c0.384,1.784,0.761,3.558,1.146,5.341
		c1.014-1.913,2.155-3.775,3.432-5.62c1.271-1.846,2.792-3.594,4.569-5.247c1.526-1.646,3.558-3.236,6.1-4.764
		c2.798-1.269,5.65-1.904,8.577-1.904c1.527,0,2.984,0.229,4.389,0.668C610.444,372.165,611.711,372.705,612.86,373.343"/>
	<path fill="#FFFFFF" d="M613.359,426.651l0.456-7.661c0.247-4.254,0.343-8.483,0.278-12.562c-0.067-4.024-0.47-7.944-1.207-11.633
		c-0.267-2.053-0.632-3.858-1.112-5.491c-0.442-1.492-1.1-2.734-1.961-3.704l-0.181-0.198l-0.097-0.243
		c-0.168-0.422-0.354-0.521-0.419-0.551l-1.526-0.753c-0.942-0.528-1.86-0.778-2.842-0.793c-1.78,0.241-3.814,1.505-6.063,3.743
		c-1.054,1.178-2.186,2.521-3.312,3.958c-1.082,1.396-2.061,2.891-2.905,4.452l-1.689,3.398l-0.534,0.896
		c-0.217,0.652-0.408,1.401-0.573,2.238c-0.193,0.974-0.425,1.981-0.688,3.026l-2.468,12.541c-0.337,1.511-1.142,2.739-2.396,3.662
		c-1.301,0.95-2.804,1.274-4.373,0.92c-1.396-0.35-2.512-1.073-3.357-2.181c-0.867-1.12-1.229-2.389-1.077-3.776v-0.485
		c0.124-2.109,0.22-4.162,0.285-6.237c0.064-2.141,0.226-4.334,0.492-6.521l0.031-0.186c0.092-0.393,0.146-0.749,0.146-1.062
		c0-0.535,0.068-1.04,0.203-1.516l0.178-3.051c0.254-3.202,0.48-6.342,0.669-9.443c0.192-3.118,0.41-6.329,0.671-9.652l0.657-8.484
		l2.328,8.189c0.521,1.84,0.977,3.666,1.354,5.433l0.314,1.477c0.484-0.773,0.991-1.542,1.516-2.311
		c1.326-1.92,2.938-3.767,4.786-5.486c1.546-1.674,3.713-3.368,6.354-4.955l0.159-0.085c2.979-1.349,6.078-2.032,9.202-2.032
		c1.67,0,3.298,0.248,4.845,0.731c1.494,0.476,2.874,1.065,4.095,1.74c3.181,1.654,5.523,4.079,6.937,7.176
		c1.306,2.49,2.16,5.1,2.502,7.679c0.336,2.502,0.429,4.904,0.304,7.146c-0.389,8.786-2.62,17.454-6.639,25.736L613.359,426.651z
		 M579.103,403.152c-0.244,2.063-0.396,4.136-0.454,6.158c-0.069,2.115-0.162,4.196-0.291,6.239l0.007,0.571l-0.019,0.096
		c-0.074,0.615,0.07,1.146,0.458,1.642c0.428,0.562,0.961,0.903,1.64,1.08c0.582,0.129,1.278,0.021,1.875-0.422
		c0.611-0.441,0.993-1.004,1.188-1.717l0.03-0.499l2.481-12.202c0.26-1.055,0.479-2.017,0.668-2.94
		c0.206-1.043,0.438-1.952,0.712-2.76l0.134-0.302l0.576-0.953l1.662-3.334c0.938-1.752,2.01-3.392,3.211-4.922
		c1.167-1.487,2.342-2.896,3.494-4.179c2.868-2.875,5.474-4.388,8.006-4.685l0.181-0.018c1.527,0,2.995,0.384,4.365,1.146
		l1.459,0.729c0.778,0.396,1.369,1.025,1.771,1.874c1.077,1.273,1.901,2.848,2.44,4.675c0.528,1.789,0.934,3.766,1.196,5.871
		c0.753,3.766,1.187,7.865,1.249,12.081c0.021,1.392,0.021,2.801,0.014,4.215c1.833-5.478,2.889-11.082,3.139-16.742
		c0.118-2.082,0.025-4.291-0.275-6.599c-0.298-2.213-1.043-4.484-2.228-6.727c-1.171-2.577-3.006-4.464-5.64-5.847
		c-1.076-0.595-2.271-1.101-3.569-1.512c-1.241-0.396-2.564-0.597-3.922-0.597c-2.661,0-5.308,0.574-7.868,1.731
		c-2.359,1.423-4.275,2.922-5.686,4.45c-1.775,1.646-3.238,3.32-4.442,5.067c-1.235,1.788-2.355,3.626-3.337,5.474l-1.963,3.681
		l-1.035-4.842c-0.188,2.952-0.398,5.94-0.635,8.952l-0.271,3.604c-0.076,0.221-0.115,0.468-0.115,0.756
		C579.311,401.98,579.248,402.557,579.103,403.152"/>
	<path fill="#FFFFFF" d="M640.298,385.926c1.391,0.505,2.449,1.363,3.145,2.564c0.702,1.211,0.922,2.512,0.669,3.907
		c-0.512,2.423-1.083,4.767-1.716,7.058c-0.64,2.285-1.329,4.571-2.098,6.857l-2.86,6.862c-0.509,1.268-1.014,2.412-1.521,3.425
		c-0.508,1.021-1.081,2.164-1.713,3.438c-0.644-1.273-1.115-2.512-1.436-3.722c-0.313-1.206-0.6-2.442-0.854-3.72
		c-0.126-1.391-0.227-2.729-0.288-3.999c-0.065-1.273-0.095-2.54-0.095-3.813c0-0.631,0.027-1.168,0.095-1.618
		c0.063-0.445,0.162-0.922,0.288-1.428c-0.639-0.128-1.146-0.254-1.521-0.383c-0.39-0.122-0.761-0.251-1.144-0.385
		c0.505-0.629,0.916-1.267,1.233-1.895c0.313-0.646,0.598-1.149,0.861-1.529c0.247-0.509,0.466-0.981,0.663-1.434
		c0.188-0.447,0.41-0.919,0.663-1.431c0.259-0.765,0.446-1.524,0.576-2.291c0.124-0.758,0.313-1.462,0.569-2.095v-0.188v-0.38
		c0.257-1.397,1.052-2.475,2.38-3.24C637.54,385.729,638.896,385.541,640.298,385.926 M641.065,372.96
		c1.388,0,2.563,0.479,3.52,1.428c0.954,0.96,1.431,2.193,1.431,3.721c0,1.273-0.477,2.383-1.431,3.334
		c-0.955,0.955-2.133,1.432-3.52,1.432c-1.401,0-2.609-0.477-3.629-1.432c-1.014-0.951-1.521-2.061-1.521-3.334
		c0-1.525,0.509-2.761,1.521-3.721C638.455,373.436,639.663,372.96,641.065,372.96"/>
	<path fill="#FFFFFF" d="M634.202,423.442l-1.364-2.729c-0.68-1.354-1.204-2.703-1.54-4.011c-0.324-1.229-0.621-2.507-0.882-3.807
		l-0.021-0.155c-0.129-1.419-0.229-2.775-0.289-4.069c-0.073-1.29-0.104-2.588-0.104-3.888c0-0.729,0.042-1.326,0.11-1.836
		c0.008-0.025,0.015-0.058,0.015-0.07c-0.075-0.025-0.149-0.051-0.229-0.077l-3.202-1.07l1.354-1.703
		c0.443-0.552,0.803-1.105,1.065-1.641c0.329-0.659,0.626-1.186,0.899-1.605c0.221-0.446,0.417-0.863,0.58-1.264
		c0.198-0.439,0.413-0.916,0.657-1.409c0.218-0.66,0.377-1.315,0.488-1.957c0.122-0.752,0.308-1.469,0.547-2.135l0.022-0.559
		c0.332-1.828,1.411-3.313,3.126-4.29c1.314-0.755,2.695-1.068,4.098-0.935c-1.169-0.251-2.221-0.817-3.141-1.684
		c-1.335-1.245-2.008-2.744-2.008-4.443c0-1.957,0.673-3.58,2.008-4.831c1.295-1.222,2.87-1.832,4.668-1.832
		c1.807,0,3.354,0.624,4.598,1.867c1.245,1.246,1.877,2.854,1.877,4.796c0,1.682-0.632,3.17-1.877,4.406
		c-1.244,1.247-2.791,1.887-4.598,1.887c-0.249,0-0.492-0.021-0.725-0.04c0.111,0.029,0.234,0.054,0.355,0.092
		c1.854,0.667,3.182,1.761,4.063,3.282c0.881,1.52,1.175,3.179,0.849,4.937c-0.517,2.472-1.1,4.874-1.745,7.189
		c-0.653,2.345-1.364,4.674-2.121,6.937l-2.894,6.963c-0.515,1.274-1.04,2.474-1.569,3.522L634.202,423.442z M633.424,412.381
		c0.239,1.21,0.52,2.407,0.819,3.55c0.033,0.13,0.07,0.261,0.108,0.396l0.193-0.4c0.497-0.979,0.989-2.097,1.476-3.314l2.867-6.879
		c0.703-2.11,1.398-4.396,2.033-6.687c0.624-2.253,1.197-4.593,1.691-6.956c0.181-0.998,0.021-1.938-0.494-2.833
		c-0.52-0.889-1.284-1.52-2.345-1.906c-0.217-0.047-0.544-0.087-0.869-0.087c-0.646,0-1.286,0.174-1.949,0.55
		c-0.906,0.521-1.421,1.183-1.613,2.069v0.725l-0.105,0.27c-0.221,0.53-0.377,1.131-0.486,1.778
		c-0.145,0.835-0.354,1.688-0.631,2.512l-0.085,0.21c-0.235,0.482-0.448,0.928-0.625,1.342c-0.2,0.479-0.438,0.983-0.705,1.52
		l-0.1,0.166c-0.214,0.32-0.47,0.775-0.758,1.349c-0.063,0.127-0.128,0.254-0.194,0.376c0.17,0.044,0.349,0.081,0.556,0.118
		l1.569,0.313l-0.386,1.557c-0.118,0.449-0.199,0.87-0.259,1.271c-0.055,0.366-0.074,0.84-0.074,1.405
		c0,1.248,0.026,2.49,0.086,3.736C633.209,409.751,633.301,411.04,633.424,412.381 M641.065,374.485
		c-1.009,0-1.854,0.336-2.585,1.014c-0.712,0.668-1.044,1.497-1.044,2.609c0,0.85,0.332,1.553,1.044,2.221
		c0.729,0.688,1.576,1.023,2.585,1.023c0.996,0,1.772-0.319,2.44-0.992c0.675-0.666,0.984-1.387,0.984-2.252
		c0-1.116-0.321-1.981-0.984-2.646C642.839,374.8,642.062,374.485,641.065,374.485"/>
	<path fill="#FFFFFF" d="M700.143,405.745c-2.163,2.538-4.604,4.827-7.338,6.854c-2.738,2.035-5.688,3.622-8.86,4.771
		c-3.185,1.143-6.578,1.905-10.201,2.281c-3.615,0.389-7.337-0.187-11.146-1.711c-1.012-0.261-1.939-0.668-2.759-1.239
		c-0.833-0.575-1.688-1.176-2.572-1.813c-0.895-1.143-1.599-2.095-2.098-2.859l-0.384-0.572l-0.384-0.948
		c-0.258-0.131-0.416-0.284-0.479-0.477c-0.06-0.191-0.154-0.354-0.281-0.479c-1.906-4.066-2.354-8.063-1.336-12
		c0.381-1.912,0.946-3.65,1.714-5.243s1.647-3.147,2.669-4.67c2.288-2.669,4.698-5.084,7.245-7.242
		c2.539-1.778,5.331-3.429,8.383-4.961c3.05-1.521,6.355-2.284,9.912-2.284c2.158,0.258,3.934,0.712,5.331,1.337
		c0.892,0.382,1.683,0.947,2.391,1.715c0.689,0.767,1.169,1.582,1.423,2.478c0.638,1.78,0.825,3.464,0.571,5.055
		c-0.251,1.591-0.694,3.075-1.33,4.479c0.255-1.533,0.222-3.019-0.099-4.479c-0.317-1.461-0.856-2.702-1.616-3.722
		c-1.401-1.646-3.557-2.282-6.48-1.902c-2.031,0.509-4.388,1.585-7.053,3.246c-2.028,1.52-4.192,3.231-6.476,5.142
		c-1.78,2.035-3.313,4.131-4.574,6.288c-1.277,2.16-2.036,4.322-2.292,6.479c-0.375,1.779-0.122,3.751,0.771,5.907l0.375,0.383
		c-0.131,0-0.131,0.156,0,0.475c0.123,0.317,0.253,0.54,0.382,0.67c0,0.133,0.063,0.189,0.188,0.189
		c0.125,0.13,0.222,0.192,0.288,0.192c0.063,0,0.16,0.063,0.289,0.19c0.633,0.639,1.392,1.141,2.285,1.521
		c1.772,0.637,3.938,0.885,6.479,0.759c2.54-0.122,5.078-0.563,7.622-1.329c2.54-0.768,4.956-1.812,7.238-3.146
		c2.293-1.333,4.385-2.827,6.294-4.481c2.032-1.899,3.715-3.929,5.047-6.096c1.334-2.157,2.127-4.637,2.389-7.428
		c0.377-1.403,0.5-2.733,0.377-4.002c-0.126-1.272-0.571-2.228-1.335-2.863c-1.023-0.888-2.288-1.33-3.808-1.33
		c-1.526,0-2.928,0.189-4.188,0.571c1.137-0.769,2.499-1.437,4.092-2.007c1.59-0.567,3.336-0.473,5.238,0.287
		c0.889,0.254,1.655,0.825,2.29,1.72c0.631,0.885,1.073,1.716,1.328,2.476c0.388,1.019,0.64,1.902,0.765,2.666
		c0.132,0.763,0.254,1.594,0.379,2.482c0.258,3.557-0.247,6.922-1.522,10.096C703.885,400.592,702.169,403.456,700.143,405.745"/>
	<path fill="#FFFFFF" d="M671.568,421.293c-3.087,0-6.262-0.637-9.441-1.902c-1.152-0.298-2.216-0.774-3.158-1.438
		c-0.841-0.572-1.703-1.18-2.601-1.828l-0.313-0.3c-0.927-1.188-1.64-2.158-2.16-2.944l-0.53-0.852l-0.202-0.521
		c-0.395-0.332-0.59-0.711-0.686-1.007l-0.219-0.305c-2.053-4.368-2.533-8.758-1.435-13.035c0.39-1.933,1.007-3.818,1.817-5.512
		c0.797-1.661,1.729-3.295,2.774-4.863l0.106-0.14c2.329-2.719,4.819-5.215,7.418-7.417c2.702-1.898,5.585-3.603,8.69-5.152
		c3.246-1.633,6.813-2.45,10.594-2.45l0.18,0.012c2.304,0.271,4.25,0.767,5.783,1.463c1.057,0.444,2.032,1.146,2.877,2.069
		c0.705,0.775,1.236,1.616,1.582,2.512c1.064-0.631,2.284-1.19,3.638-1.678c1.924-0.7,4.08-0.594,6.324,0.311
		c1.076,0.299,2.123,1.07,2.957,2.233c0.732,1.024,1.237,1.976,1.544,2.885c0.396,1.068,0.671,2.032,0.826,2.9
		c0.123,0.784,0.249,1.614,0.381,2.511c0.281,3.882-0.27,7.514-1.617,10.885c-1.462,3.586-3.29,6.62-5.424,9.024
		c-2.204,2.601-4.759,4.987-7.563,7.073c-2.839,2.11-5.948,3.785-9.259,4.971c-3.279,1.186-6.826,1.983-10.553,2.37
		C673.135,421.256,672.344,421.293,671.568,421.293 M658.33,413.778c0.813,0.582,1.605,1.136,2.365,1.667
		c0.676,0.468,1.44,0.807,2.267,1.012l0.199,0.064c3.563,1.425,7.063,1.975,10.425,1.618c3.479-0.366,6.792-1.11,9.84-2.211
		c3.02-1.091,5.871-2.618,8.471-4.552c2.62-1.95,5.008-4.184,7.082-6.619c1.929-2.178,3.568-4.916,4.896-8.175
		c1.175-2.931,1.649-6.101,1.418-9.409c-0.118-0.771-0.243-1.586-0.368-2.343c-0.105-0.654-0.339-1.458-0.684-2.381
		c-0.227-0.668-0.604-1.364-1.146-2.129c-0.32-0.437-0.663-0.761-1.04-0.96c0.847,0.868,1.36,2.055,1.513,3.54
		c0.137,1.424,0.008,2.913-0.393,4.432c-0.289,2.968-1.16,5.652-2.595,7.965c-1.392,2.252-3.181,4.411-5.304,6.409
		c-2.013,1.741-4.207,3.311-6.563,4.679c-2.384,1.396-4.928,2.493-7.573,3.289c-2.656,0.802-5.345,1.271-7.98,1.4
		c-2.742,0.137-5.117-0.151-7.074-0.853c-1.099-0.476-1.989-1.052-2.739-1.769c-0.134-0.063-0.261-0.139-0.362-0.209
		c-0.366-0.173-0.65-0.468-0.813-0.848c-0.157-0.219-0.291-0.485-0.42-0.821c-0.04-0.084-0.104-0.24-0.146-0.438l-0.109-0.107
		l-0.117-0.282c-1.009-2.438-1.288-4.731-0.845-6.814c0.253-2.207,1.094-4.594,2.464-6.92c1.311-2.237,2.912-4.434,4.741-6.527
		l0.173-0.17c2.304-1.917,4.504-3.664,6.539-5.193c2.95-1.824,5.393-2.942,7.604-3.496l0.166-0.037
		c3.271-0.421,5.808,0.3,7.554,2.113c-0.228-0.544-0.539-1.021-0.946-1.477c-0.552-0.602-1.18-1.044-1.868-1.344
		c-1.257-0.569-2.865-0.972-4.817-1.209c-3.269,0.014-6.347,0.725-9.138,2.124c-2.973,1.488-5.727,3.117-8.194,4.843
		c-2.336,1.992-4.688,4.347-6.898,6.911c-0.947,1.427-1.79,2.909-2.516,4.407c-0.698,1.471-1.237,3.117-1.595,4.88
		c-0.938,3.646-0.557,7.177,1.139,10.889c0.117,0.146,0.222,0.314,0.307,0.493l0.333,0.173l0.569,1.347l0.288,0.444
		C656.889,411.865,657.523,412.739,658.33,413.778 M666.563,407.078c0.199,0.104,0.409,0.214,0.636,0.31
		c1.475,0.521,3.479,0.756,5.803,0.64c2.396-0.118,4.846-0.542,7.261-1.269c2.416-0.725,4.744-1.732,6.917-3.001
		c2.192-1.284,4.235-2.73,6.054-4.313c1.889-1.77,3.506-3.723,4.755-5.748c1.201-1.938,1.927-4.227,2.161-6.77l0.05-0.271
		c0.326-1.196,0.438-2.36,0.332-3.451c-0.085-0.858-0.342-1.462-0.796-1.832c-0.766-0.669-1.682-0.983-2.83-0.983
		c-1.24,0-2.388,0.145-3.431,0.417c0.146,1.079,0.141,2.136-0.021,3.158c-0.277,1.722-0.764,3.36-1.449,4.869l-4.786,10.545
		l1.896-11.419c0.22-1.327,0.19-2.643-0.081-3.914c-0.142-0.624-0.324-1.212-0.557-1.731l-5.117,1.526l4.342-2.888
		c-0.004-0.014-0.019-0.02-0.019-0.025c-0.97-1.139-2.668-1.604-4.977-1.321c-1.851,0.479-4.043,1.496-6.538,3.041
		c-1.85,1.396-3.983,3.085-6.211,4.938c-1.678,1.929-3.126,3.938-4.33,5.969c-1.153,1.967-1.856,3.954-2.086,5.881
		c-0.317,1.533-0.133,3.134,0.545,4.882l2.767,2.765h-0.286v-0.004H666.563z"/>
	<path fill="#FFFFFF" d="M158.582,478.947c-0.038,0.347-0.091,0.659-0.163,0.922c-0.068,0.265,0.033,0.486,0.308,0.669
		c0.269,0.179,0.481,0.325,0.638,0.425c0.166,0.104,0.457,0.195,0.899,0.287c0.43,0.082,0.772,0.137,1.014,0.157
		c0.252,0.016,0.593,0.053,1.036,0.102c0.134,0.188,0.203,0.525,0.203,0.999c0,0.477-0.068,0.791-0.203,0.947
		c-2.664-0.081-4.96-0.118-6.885-0.118c-0.545,0-2.147,0.037-4.804,0.118c-0.177-0.156-0.261-0.473-0.261-0.947
		c0-0.474,0.084-0.811,0.261-0.999c1.365-0.102,2.443-0.381,3.23-0.834c0.787-0.453,1.502-1.448,2.151-2.977l12.21-28.671
		c0.788,0,1.774-0.354,2.971-1.076l11.077,30.607c0.211,0.639,0.47,1.16,0.777,1.556c0.306,0.393,0.722,0.676,1.257,0.871
		c0.534,0.192,0.943,0.305,1.212,0.347c0.271,0.031,0.798,0.085,1.585,0.177c0.173,0.188,0.265,0.525,0.265,0.999
		c0,0.477-0.092,0.791-0.265,0.947c-2.663-0.081-4.712-0.118-6.142-0.118c-2.053,0-4.396,0.037-7.045,0.118
		c-0.134-0.156-0.203-0.473-0.203-0.947c0-0.474,0.069-0.811,0.203-0.999c0.214,0,0.489-0.015,0.836-0.042
		c0.337-0.025,0.604-0.044,0.788-0.06c0.182-0.021,0.42-0.044,0.704-0.075c0.287-0.042,0.508-0.071,0.643-0.106
		c0.141-0.031,0.302-0.083,0.5-0.157c0.19-0.07,0.329-0.148,0.405-0.256c0.081-0.105,0.146-0.229,0.199-0.377
		c0.053-0.139,0.068-0.307,0.053-0.479c-0.013-0.169-0.062-0.372-0.126-0.615l-3.133-8.965h-11.343
		c-0.642,0-1.089,0.063-1.319,0.191c-0.237,0.131-0.427,0.37-0.562,0.715L158.582,478.947z M164.405,468.118h9.503l-5.035-14.625
		h-0.345l-5.482,13.919c-0.055,0.099-0.072,0.201-0.055,0.286c0.017,0.092,0.055,0.155,0.103,0.21
		c0.054,0.048,0.141,0.096,0.266,0.129c0.123,0.04,0.268,0.066,0.429,0.07C163.956,468.114,164.167,468.118,164.405,468.118"/>
	<path fill="#FFFFFF" d="M241.606,475.833c0.177-0.173,0.459-0.26,0.841-0.26c0.382,0,0.669,0.075,0.841,0.212
		c0.615,2.494,1.311,4.123,2.098,4.879c0.792,0.841,2.058,1.265,3.805,1.265c1.165,0,2.209-0.314,3.154-0.954
		c0.943-0.643,1.417-1.546,1.417-2.734c0-1.18-0.361-2.108-1.101-2.814c-0.738-0.712-2.194-1.497-4.386-2.378
		c-2.159-0.878-3.677-1.827-4.567-2.853c-0.894-1.021-1.336-2.475-1.336-4.355c0-1.697,0.749-3.146,2.254-4.323
		c1.507-1.18,3.28-1.778,5.33-1.778c0.836,0,1.689,0.064,2.561,0.188c0.874,0.127,1.79,0.286,2.761,0.481
		c0.965,0.204,1.574,0.323,1.823,0.364c0,0.469-0.05,1.358-0.157,2.664c-0.107,1.3-0.156,2.315-0.156,3.028
		c-0.179,0.179-0.463,0.265-0.868,0.265c-0.404,0-0.688-0.066-0.868-0.198c-0.177-1.039-0.479-1.902-0.901-2.601
		c-0.415-0.697-0.914-1.195-1.48-1.494c-0.578-0.294-1.074-0.496-1.487-0.597c-0.423-0.103-0.833-0.15-1.227-0.15
		c-0.964,0-1.832,0.301-2.615,0.919c-0.776,0.613-1.163,1.431-1.163,2.465c0,0.563,0.096,1.07,0.292,1.517
		c0.195,0.453,0.404,0.822,0.641,1.108c0.23,0.271,0.631,0.568,1.19,0.871c0.557,0.302,1.035,0.527,1.424,0.688
		c0.375,0.146,0.998,0.392,1.839,0.724c4.301,1.563,6.452,3.905,6.452,7.022c0,1.275-0.301,2.393-0.905,3.344
		c-0.61,0.946-1.387,1.666-2.331,2.159c-0.942,0.486-1.874,0.834-2.792,1.05c-0.917,0.211-1.812,0.313-2.691,0.313
		c-1.751,0-3.373-0.188-4.877-0.576c-0.249-0.081-0.604-0.122-1.083-0.122c-0.351,0-0.794,0.057-1.337,0.182
		C241.985,481.449,241.854,478.947,241.606,475.833"/>
	<path fill="#FFFFFF" d="M327.16,480.782h-0.107l-1.074,0.834c-1.186,0.929-2.157,1.532-2.906,1.826
		c-0.749,0.282-1.724,0.422-2.932,0.422c-2.095,0-3.772-0.451-5.034-1.38c-1.262-0.922-1.892-2.381-1.892-4.391
		c0-1.788,0.834-3.359,2.512-4.727c1.669-1.367,3.833-2.383,6.485-3.046l4.636-1.154c0.204-0.077,0.311-0.28,0.311-0.626
		c0-4.568-1.454-6.854-4.345-6.854c-1.19,0-2.23,0.184-3.116,0.545c-0.895,0.373-1.342,0.923-1.342,1.653
		c0,0.489,0.038,0.832,0.107,1.021c0.104,0.202,0.164,0.521,0.164,0.946c0,0.384-0.217,0.78-0.653,1.156
		c-0.425,0.392-1.003,0.576-1.724,0.576c-1.274,0-1.899-0.628-1.884-1.88c0-1.479,0.933-2.835,2.806-4.093
		c1.865-1.244,3.896-1.883,6.085-1.883c5.44,0,8.15,3.063,8.15,9.2v7.943c0,1.021,0.027,1.8,0.081,2.34
		c0.056,0.539,0.248,1.033,0.588,1.498c0.344,0.452,0.841,0.677,1.482,0.677c0.443,0,0.821-0.126,1.133-0.406
		c0.319-0.28,0.489-0.42,0.523-0.42c0.107,0,0.248,0.103,0.44,0.313c0.179,0.206,0.271,0.405,0.271,0.583
		c0,0.104-0.188,0.339-0.565,0.718c-0.378,0.37-0.938,0.748-1.693,1.131c-0.749,0.373-1.521,0.557-2.307,0.557
		C329.177,483.886,327.781,482.861,327.16,480.782 M327.16,470.82l-4.258,1.094c-3.411,0.878-5.104,2.854-5.068,5.941
		c0,0.963,0.328,1.841,0.982,2.646c0.657,0.785,1.617,1.195,2.874,1.195c1.25,0,2.818-0.789,4.711-2.339
		c0.508-0.354,0.76-0.814,0.76-1.396L327.16,470.82L327.16,470.82z"/>
	<path fill="#FFFFFF" d="M403.799,480.64c-2.625,2.158-4.865,3.227-6.722,3.227c-2.834,0-5.065-1.051-6.693-3.147
		c-1.621-2.104-2.44-4.869-2.44-8.271c0-3.837,1.236-6.997,3.704-9.476c2.257-2.15,4.946-3.236,8.061-3.236
		c0.542,0,1.136,0.092,1.783,0.25c0.646,0.162,1.206,0.322,1.665,0.473c0.47,0.149,0.717,0.232,0.749,0.232
		c0.318,0,0.484-0.173,0.508-0.5v-6.902c0-1.15-0.033-2.021-0.1-2.586c-0.063-0.57-0.29-0.987-0.677-1.261
		c-0.4-0.277-0.701-0.421-0.911-0.434c-0.212-0.021-0.805-0.064-1.78-0.138c-0.404-0.403-0.513-0.938-0.321-1.599
		c3.2-0.247,5.72-0.739,7.563-1.473c0.474,0,0.709,0.187,0.709,0.546c-0.14,1.441-0.214,3.317-0.234,5.646v24.365
		c0,1.406,0.246,2.374,0.735,2.901c0.486,0.536,1.561,0.874,3.204,1.013c0.177,0.174,0.265,0.421,0.265,0.749
		c0,0.318-0.088,0.565-0.265,0.723c-3.013,0.349-5.192,1.053-6.528,2.119c-0.406,0.104-0.75,0.104-1.027,0
		c-0.406-1.25-0.603-2.301-0.584-3.147c0-0.087-0.021-0.149-0.063-0.193c-0.046-0.041-0.104-0.064-0.173-0.064
		c-0.071,0-0.141,0.023-0.209,0.056C403.938,480.544,403.871,480.588,403.799,480.64 M404.411,476.686v-10.178
		c0-0.819-0.063-1.406-0.18-1.747c-0.106-0.347-0.36-0.731-0.743-1.164c-1.101-1.295-2.556-1.931-4.36-1.907
		c-2.155,0-3.821,0.883-5.014,2.669c-1.037,1.463-1.554,3.843-1.554,7.118c0,3.147,0.592,5.575,1.772,7.296
		c1.188,1.72,2.562,2.584,4.133,2.584c1.402,0,3.097-0.859,5.068-2.569C404.12,478.275,404.411,477.58,404.411,476.686"/>
	<path fill="#FFFFFF" d="M468.184,472.303c0-3.55,0.999-6.485,2.971-8.809c2.138-2.496,4.943-3.76,8.428-3.76
		c2.574,0,4.755,0.638,6.527,1.902c1.778,1.268,3.021,2.788,3.713,4.54c0.701,1.765,1.055,3.649,1.055,5.652
		c0,3.755-1.167,6.767-3.494,9.04c-2.045,2.012-4.68,3.018-7.904,2.995c-3.582,0-6.365-1.155-8.333-3.494
		C469.172,478.043,468.184,475.349,468.184,472.303 M478.772,461.688c-3.976,0-5.963,3.125-5.963,9.391
		c0,1.144,0.134,2.307,0.409,3.481c0.271,1.169,0.668,2.328,1.206,3.469c0.529,1.136,1.302,2.073,2.311,2.806
		c1.007,0.729,2.176,1.098,3.508,1.098c1.577,0,2.974-0.645,4.187-1.938c1.219-1.283,1.825-3.438,1.825-6.468
		c0-3.806-0.661-6.729-1.999-8.778C482.926,462.712,481.097,461.688,478.772,461.688"/>
	<path fill="#FFFFFF" d="M542.493,475.833c0.174-0.173,0.457-0.26,0.84-0.26c0.393,0,0.671,0.075,0.844,0.212
		c0.613,2.494,1.313,4.123,2.1,4.879c0.791,0.841,2.061,1.265,3.808,1.265c1.155,0,2.211-0.314,3.153-0.954
		c0.943-0.643,1.417-1.546,1.417-2.734c0-1.18-0.37-2.108-1.104-2.814c-0.73-0.712-2.197-1.497-4.382-2.378
		c-2.155-0.878-3.678-1.827-4.571-2.853c-0.894-1.021-1.343-2.475-1.343-4.355c0-1.697,0.755-3.146,2.265-4.323
		c1.506-1.18,3.275-1.778,5.324-1.778c0.842,0,1.694,0.064,2.566,0.188c0.868,0.127,1.791,0.286,2.755,0.481
		c0.974,0.204,1.578,0.323,1.823,0.364c0,0.469-0.055,1.358-0.157,2.664c-0.105,1.3-0.154,2.315-0.154,3.028
		c-0.18,0.179-0.464,0.265-0.869,0.265c-0.402,0-0.693-0.066-0.862-0.198c-0.182-1.039-0.479-1.902-0.898-2.601
		c-0.42-0.697-0.921-1.195-1.494-1.494c-0.565-0.294-1.065-0.496-1.486-0.597c-0.416-0.103-0.823-0.15-1.22-0.15
		c-0.959,0-1.829,0.301-2.613,0.919c-0.775,0.613-1.162,1.431-1.162,2.465c0,0.563,0.097,1.07,0.288,1.517
		c0.188,0.453,0.406,0.822,0.646,1.108c0.229,0.271,0.632,0.568,1.195,0.871c0.562,0.302,1.029,0.527,1.411,0.688
		c0.388,0.146,1.002,0.392,1.847,0.724c4.294,1.563,6.457,3.905,6.457,7.022c0,1.275-0.31,2.393-0.914,3.344
		c-0.606,0.946-1.386,1.666-2.328,2.159c-0.94,0.486-1.868,0.834-2.791,1.05c-0.918,0.211-1.812,0.313-2.685,0.313
		c-1.753,0-3.383-0.188-4.886-0.576c-0.248-0.081-0.61-0.122-1.078-0.122c-0.351,0-0.798,0.057-1.341,0.182
		C542.876,481.449,542.74,478.947,542.493,475.833"/>
</g>
</svg>
