<?xml version="1.0" encoding="utf-8"?>
<!-- Generator: Adobe Illustrator 15.0.2, SVG Export Plug-In . SVG Version: 6.00 Build 0)  -->
<!DOCTYPE svg PUBLIC "-//W3C//DTD SVG 1.1//EN" "http://www.w3.org/Graphics/SVG/1.1/DTD/svg11.dtd">
<svg version="1.1" id="Layer_3" xmlns="http://www.w3.org/2000/svg" xmlns:xlink="http://www.w3.org/1999/xlink" x="0px" y="0px"
	 width="236.625px" height="96.264px" viewBox="0 0 236.625 96.264" enable-background="new 0 0 236.625 96.264"
	 xml:space="preserve">
<g>
	<path fill="#FFFFFF" d="M202.305,45.506c0,0,5.715-2.089,8.852-3.393c1.662-0.69,3.965-1.416,6.082-2.171
		c0.867-1.812,0.918-3.115,0.006-3.349c-2.404-0.611-0.273-5.196-4.535-3.077c-4.26,2.119-2.979-1.096-3.238-3.106
		c-0.26-2.012-2.031-3.114-3.357-1.17c-0.703,1.035-1.428,0.611-2.545,0.596c-0.016,0.098-0.029,0.195-0.045,0.295
		C202.264,38.75,202.305,45.506,202.305,45.506"/>
	<path fill="#FFFFFF" d="M218.818,31.929c-0.84-3.888-3.154-2.43-5.209-5.099c-2.057-2.672-4.789-2.144-6.092-0.97
		c-0.799,0.722-1.98,1.425-3.547,2.023c-0.15,0.564-0.287,1.21-0.404,1.952c1.119,0.016,1.844,0.438,2.547-0.596
		c1.326-1.944,3.098-0.842,3.355,1.17c0.262,2.011-1.021,5.226,3.238,3.106c4.264-2.119,2.131,2.466,4.537,3.078
		c0.912,0.232,0.859,1.537-0.006,3.349c1.082-0.386,2.115-0.779,2.988-1.182C221.824,35.774,219.49,35.039,218.818,31.929"/>
	<path fill="#FFFFFF" d="M222.695,36.957c0.756-1.86-0.41-2.734-1.896-5.369s0.707-2.3-3.934-4.373
		c-4.637-2.075-6.039-6.545-7.223-4.352c-1.064,1.976-4.148-0.689-5.672,5.021c1.564-0.599,2.748-1.302,3.545-2.023
		c1.305-1.174,4.035-1.701,6.092,0.97c2.057,2.669,4.369,1.211,5.211,5.1c0.67,3.109,3.006,3.844,1.41,6.832
		C221.508,38.176,222.443,37.573,222.695,36.957"/>
	<path fill="#FFFFFF" d="M198.209,37.079c1.535-3.47-0.254-7.047,0.604-10.224c0.859-3.175,2.191-5.042,3.861-5.07
		c1.152-0.02,3.162,0.16,5.141,0.101c0.035-0.608-0.143-0.994-0.746-1.068c-1.801-0.222-1.271,0.807-3.822,0.102
		c-2.549-0.708-3.707,0.795-5.072,4.435c-1.369,3.644-3.158,8.023-2.289,12.985c0.584,3.347,2.438,3.829,4.328,2.673
		C197.021,40.76,196.926,39.978,198.209,37.079"/>
	<path fill="#FFFFFF" d="M201.178,29.06c0.396,3.845,1.021,3.768,3.908,0.939c0.627-0.617,1.203-1.117,1.738-1.507
		c-0.279-2.654,0.912-5.216,0.988-6.606c-1.98,0.06-3.988-0.12-5.141-0.101c-1.383,0.022-2.533,1.308-3.375,3.549
		C200.227,26.031,201.01,27.434,201.178,29.06"/>
	<path fill="#FFFFFF" d="M198.209,37.079c-1.281,2.898-1.188,3.682,2.004,3.934c0.908-0.556,1.826-1.491,2.617-2.669
		c2.43-3.627,4.904-5.162,4.094-9.202c-0.043-0.217-0.074-0.433-0.098-0.647c-0.535,0.389-1.111,0.89-1.738,1.506
		c-2.885,2.827-3.512,2.905-3.908-0.939c-0.168-1.625-0.951-3.029-1.879-3.726c-0.178,0.467-0.338,0.975-0.486,1.521
		C197.955,30.031,199.744,33.61,198.209,37.079"/>
	<path fill="#FFFFFF" d="M207.672,46.153c2.625-1.974,8.158-2.019,8.158-2.019s-0.816-1.646-2.27-2.17
		c-1.457-0.524-5.986,2.992-10.395,4.215c-4.41,1.224-1.545-6.389-1.254-9.722c0.189-2.146-2.008-1.545-4.637-0.677
		c-1.41,1.658-3.16,3.914-4.521,5.682c-1.783,2.309,2.902,6.906,6.713,8.523c2.486,1.057,4.775-0.333,6.818-1.779
		C206.566,47.407,206.961,46.688,207.672,46.153"/>
	<path fill="#FFFFFF" d="M211.625,38.818c-1.777-1.632-3.469,1.739-4.619-1.537c-1.152-3.278-3.537,1.011-4.482-1.794
		c-0.518-1.54-1.666-2.005-2.986-1.97c-0.125,0.075-0.25,0.162-0.373,0.261c-0.449,0.372-1.117,1.099-1.889,2.001
		c2.629-0.869,4.826-1.47,4.639,0.677c-0.293,3.333-3.156,10.945,1.252,9.722c4.408-1.223,8.939-4.739,10.395-4.215
		s2.271,2.17,2.271,2.17s-5.535,0.045-8.158,2.019c-0.713,0.535-1.105,1.255-1.389,2.053c1.084-0.768,2.098-1.552,3.031-1.996
		c2.162-1.028,4.84-0.6,6.17-0.792C218.324,42.678,213.279,40.338,211.625,38.818"/>
	<path fill="#FFFFFF" d="M216.061,41.949c-1.381-1.568-2.555-2.312-4.463-3.967c-1.908-1.652-3.578-0.728-4.059-1.465
		c-0.479-0.739-0.85-1.966-2.281-1.802c-1.434,0.163-2.51,0.736-2.838-0.42c-0.301-1.046-1.68-1.483-2.885-0.778
		c1.32-0.036,2.469,0.43,2.986,1.97c0.945,2.806,3.33-1.483,4.48,1.794s2.844-0.096,4.619,1.537c1.654,1.52,6.701,3.86,3.863,6.599
		c0.332-0.049,0.582-0.137,0.717-0.294C216.869,44.323,217.441,43.52,216.061,41.949"/>
	<path fill="#FFFFFF" d="M195.678,40.04c2.371-2.186,2.475-6.48,1.898-8.299c-0.574-1.817-0.42-4.69-0.609-8.877
		c-0.104-2.272-1.494-3.159-3.158-3.03c-1.305,0.412-2.455,1.481-3.176,3.57c-2.002,5.802,1.703,10.469-0.02,13.634
		c-0.551,1.015-0.205,2.494,0.682,3.86C193.037,41.174,194.707,40.936,195.678,40.04"/>
	<path fill="#FFFFFF" d="M185.541,20.728c1.398-0.6,0.316,1.532-0.525,5.411c-0.846,3.877,0.779,5.632,1.297,7.757
		c0.518,2.126,2.418,2.714,3.799,2.135c1.379-0.58,2.299-1.133,3.982,0.604c1.682,1.735,2.176,4.075,0.893,7.885
		c-0.498,1.473-0.063,2.219,0.91,2.623c0.096,0.035,0.193,0.071,0.283,0.104c0.852,0.275,2.021,0.354,3.314,0.434
		c-0.068-2.151-1.402-8.05-3.662-10.026c-2.42-2.115-5.721-4.967-6.465-3c-0.748,1.969-0.396,1.787-1.666-0.631
		c-1.271-2.417-0.498-4.659-0.25-7.94c0.248-3.28-1.234-8.668-2.043-6.271c-0.805,2.4-3.957-1.823-5.85,0.086
		c-0.455,0.458-0.637,0.993-0.639,1.592c0.357-0.39,0.695-0.762,0.963-1.023C180.846,19.503,184.143,21.328,185.541,20.728"/>
	<path fill="#FFFFFF" d="M185.121,23.738c-0.688,3.812-2.586,7.994-1.461,9.634c1.121,1.642,2.861,0.698,3.459,3.292
		c0.506,2.193,7.684,7.306,7.041,9.732c0.615,0.296,1.199,0.542,1.736,0.744c-0.973-0.404-1.41-1.151-0.912-2.623
		c1.285-3.81,0.789-6.15-0.893-7.885c-1.684-1.735-2.604-1.184-3.982-0.604c-1.381,0.58-3.281-0.009-3.797-2.135
		c-0.521-2.125-2.146-3.88-1.299-7.757c0.846-3.878,1.926-6.01,0.527-5.411c-1.396,0.602-4.695-1.225-5.656-0.263
		c-0.268,0.262-0.605,0.634-0.963,1.023c-0.006,1.177,0.684,2.606,1.395,4.229C183.559,23.448,185.689,20.602,185.121,23.738"/>
	<path fill="#FFFFFF" d="M187.057,41.24c2.498,2.544,5.002,4.148,7.102,5.157c0.645-2.427-6.533-7.539-7.039-9.732
		c-0.598-2.594-2.338-1.651-3.461-3.292s0.775-5.822,1.463-9.634c0.566-3.136-1.563-0.289-4.807,1.979
		c0.436,1.001,0.881,2.072,1.18,3.202C182.52,32.827,180.865,34.926,187.057,41.24"/>
	<path fill="#FFFFFF" d="M203.342,52.054c4.76,2.914,12.076,4.276,17.598,4.471c2.475,0.087,5.334-0.022,7.777-0.252
		c1.186-2.148,3.346-2.714-0.838-4.722c-5.268-2.525-8.508-2.702-11.301-5.446c-1.408-1.387-4.783-1.887-8.063-1.409
		C204.387,47.581,201.018,50.629,203.342,52.054"/>
	<path fill="#FFFFFF" d="M231.227,54.943c1.699-1.2,4.396-2.537,1.688-3.701c-2.709-1.163,0.266-6.755-2.293-6.795
		c-2.557-0.041-4.867-1.57-6.053-3.256c-1.184-1.686-4.24-2.439-6.418-1.267c-1.182,0.639-4.004,2.104-6.363,2.596
		c-1.084,0.693-2.201,1.428-3.27,2.174c3.277-0.478,6.654,0.022,8.063,1.409c2.793,2.744,6.033,2.921,11.299,5.446
		c4.186,2.008,2.021,2.573,0.84,4.722c0.635-0.061,1.242-0.128,1.807-0.203C230.629,55.607,230.85,55.209,231.227,54.943"/>
	<path fill="#FFFFFF" d="M234.346,55.026c0.461-0.91,0.943-3.995,0.428-7.314c-0.52-3.32-0.611-4.992-5.344-6.849
		c-4.732-1.854-8.457-4.488-11.66-2.151c-1.049,0.764-3.42,2.171-5.984,3.811c2.359-0.492,5.182-1.958,6.363-2.597
		c2.178-1.173,5.234-0.418,6.418,1.267c1.184,1.687,3.496,3.215,6.053,3.256c2.559,0.04-0.416,5.632,2.295,6.795
		c2.709,1.164,0.012,2.5-1.688,3.701c-0.377,0.266-0.6,0.664-0.703,1.126C232.627,55.792,234.143,55.421,234.346,55.026"/>
	<path fill="#FFFFFF" d="M180.297,32.267c0.045,4.123,1.836,7.112,6.883,5.841c3.496-0.88,6.74,2.953,8.402,5.393
		c0.516-0.256,1.035-0.487,1.559-0.672c0,0-0.633-2.521-5.68-5.672c-4.33-2.701-8.777-5.787-11.75-6.79
		C180.07,30.897,180.287,31.526,180.297,32.267"/>
	<path fill="#FFFFFF" d="M173.422,29.042c-2.313,0.979-0.035,5.533,2.846,8.531c2.877,2.996,5.725,8.064,9.623,9.124
		c3.355,0.912,6.498-1.624,9.691-3.197c-1.662-2.439-4.906-6.271-8.402-5.393c-5.047,1.271-6.838-1.718-6.883-5.841
		c-0.012-0.741-0.229-1.37-0.59-1.899c-0.49-0.163-0.943-0.275-1.35-0.315C175.508,29.765,175.732,28.062,173.422,29.042"/>
	<path fill="#FFFFFF" d="M223.516,67.764c0.965-0.739,1.498-1.14,0.375-3.076c-1.127-1.935-3.125-1.809-2.955-3.981
		c0.17-2.175-0.271-2.991-1.697-3.878c-1.424-0.892-2.068-3.521-4.045-4.646c-1.975-1.125-2.385-3.858-6.955-4.83
		c-4.568-0.973-6.578,2.063-8.248,2c0,0,0.125,0.208,0.34,0.572c1.479-1.11,2.84-2.702,5.545-1.503
		c3.564,1.58,6.518,0.552,5.926,3.646c-0.59,3.096,1.633,3.655,4.875,5.263s2.857,4.575,3.063,6.241
		c0.166,1.353,3.354,0.426,2.854,2.569C223.285,66.331,222.738,68.358,223.516,67.764"/>
	<path fill="#FFFFFF" d="M219.74,63.571c-0.205-1.666,0.182-4.633-3.063-6.241c-3.242-1.606-5.467-2.167-4.875-5.263
		c0.59-3.095-2.361-2.066-5.924-3.646c-2.709-1.199-4.068,0.393-5.547,1.503c0.236,0.398,0.582,0.99,0.988,1.706
		c3.314-0.327,4.398-1.302,5.709,2.634c1.789,5.378,3.271,6.11,6.842,7.922c1.975,1,2.795,2.175,2.939,3.87
		c2.092,0.195,3.451,1.386,5.004,0.341c0.359-0.242,0.605-0.305,0.777-0.257C223.094,63.996,219.906,64.922,219.74,63.571"/>
	<path fill="#FFFFFF" d="M213.873,62.186c-3.57-1.812-5.055-2.543-6.844-7.922c-1.311-3.936-2.395-2.961-5.707-2.634
		c1.508,2.642,3.879,6.985,4.799,9.724c1.395,4.15,6.779,4.98,9.553,4.704c0.402-0.041,0.779-0.035,1.139-0.001
		C216.666,64.36,215.846,63.186,213.873,62.186"/>
	<path fill="#FFFFFF" d="M74.53,89.282h-0.273c-0.12,0-0.181-0.052-0.181-0.156v-0.393c0-0.109,0.058-0.208,0.172-0.298
		c0.152-0.108,0.248-0.232,0.29-0.372c0.042-0.139,0.063-0.365,0.063-0.678v-1.285c0-0.125,0.083-0.198,0.25-0.219l0.957-0.104
		c0.083-0.01,0.138-0.016,0.164-0.016c0.073,0,0.109,0.063,0.109,0.188v2.483h0.8c0.15,0,0.227,0.061,0.227,0.18v0.479
		c0,0.125-0.061,0.188-0.181,0.188h-0.845v4.765c0,0.517,0.159,0.775,0.479,0.775c0.073,0,0.15-0.01,0.235-0.03
		c0.057-0.017,0.102-0.024,0.133-0.024c0.094,0,0.153,0.037,0.181,0.11l0.118,0.376c0.015,0.032,0.022,0.055,0.022,0.07
		c0,0.115-0.172,0.255-0.517,0.42c-0.345,0.164-0.669,0.246-0.971,0.246c-0.821,0-1.23-0.509-1.23-1.527v-5.18H74.53z"/>
	<path fill="#FFFFFF" d="M82.985,91.116V90.02c0-0.647-0.251-0.972-0.752-0.972c-0.178,0-0.266,0.055-0.266,0.165
		c0,0.042,0.015,0.104,0.047,0.188c0.063,0.151,0.094,0.282,0.094,0.393c0,0.197-0.065,0.367-0.196,0.505
		c-0.13,0.139-0.311,0.208-0.54,0.208c-0.251,0-0.451-0.077-0.603-0.231c-0.152-0.152-0.229-0.355-0.229-0.606
		c0-0.412,0.185-0.748,0.553-1.007c0.368-0.26,0.795-0.388,1.28-0.388c0.685,0,1.217,0.185,1.595,0.552
		c0.379,0.368,0.567,0.891,0.567,1.563v3.902c0,0.214,0.021,0.377,0.066,0.488c0.044,0.113,0.142,0.185,0.294,0.217
		c0.125,0.025,0.188,0.094,0.188,0.203v0.337c0,0.276-0.213,0.416-0.641,0.416c-0.573,0-0.97-0.276-1.188-0.83
		c-0.502,0.58-0.987,0.869-1.452,0.869c-0.444,0-0.812-0.185-1.1-0.553c-0.287-0.368-0.431-0.84-0.431-1.414
		C80.273,92.551,81.177,91.582,82.985,91.116 M82.985,91.916c-0.737,0.271-1.104,0.87-1.104,1.794c0,0.727,0.19,1.089,0.571,1.089
		c0.167,0,0.298-0.082,0.393-0.247c0.093-0.165,0.141-0.347,0.141-0.544L82.985,91.916L82.985,91.916z"/>
	<path fill="#FFFFFF" d="M90.107,89.785v4.771c0,0.208,0.076,0.396,0.229,0.564c0.066,0.077,0.102,0.138,0.102,0.18v0.337
		c0,0.125-0.063,0.188-0.188,0.188h-1.833c-0.114,0-0.172-0.05-0.172-0.148V95.3c0-0.073,0.042-0.146,0.125-0.219
		c0.125-0.115,0.188-0.257,0.188-0.424v-4.921c0-0.239-0.083-0.434-0.251-0.58c-0.088-0.078-0.133-0.148-0.133-0.211v-0.337
		c0-0.115,0.081-0.172,0.242-0.172l1.692-0.039v0.611c0.491-0.449,0.982-0.674,1.473-0.674c0.486,0,0.854,0.261,1.105,0.783
		c0.59-0.521,1.112-0.783,1.567-0.783c0.418,0,0.737,0.149,0.96,0.449c0.222,0.302,0.333,0.699,0.333,1.196v4.678
		c0,0.188,0.068,0.348,0.206,0.479c0.071,0.068,0.106,0.123,0.106,0.165v0.337c0,0.125-0.058,0.188-0.172,0.188H93.86
		c-0.11,0-0.164-0.052-0.164-0.156v-0.369c0-0.067,0.033-0.136,0.102-0.204c0.131-0.121,0.195-0.3,0.195-0.54v-4.506
		c0-0.434-0.156-0.65-0.47-0.65c-0.173,0-0.402,0.128-0.69,0.384v4.772c0,0.25,0.084,0.451,0.252,0.603
		c0.063,0.059,0.094,0.104,0.094,0.142v0.313c0,0.142-0.064,0.211-0.195,0.211H91.15c-0.109,0-0.164-0.056-0.164-0.164v-0.36
		c0-0.067,0.034-0.136,0.103-0.204c0.131-0.125,0.195-0.305,0.195-0.54v-4.412c0-0.497-0.162-0.745-0.485-0.745
		C90.608,89.401,90.378,89.529,90.107,89.785"/>
	<path fill="#FFFFFF" d="M101.845,91.116V90.02c0-0.647-0.251-0.972-0.752-0.972c-0.179,0-0.268,0.055-0.268,0.165
		c0,0.042,0.017,0.104,0.047,0.188c0.063,0.151,0.095,0.282,0.095,0.393c0,0.197-0.065,0.367-0.196,0.505
		c-0.131,0.139-0.311,0.208-0.541,0.208c-0.251,0-0.452-0.077-0.604-0.231c-0.151-0.152-0.227-0.355-0.227-0.606
		c0-0.412,0.184-0.748,0.553-1.007c0.368-0.26,0.795-0.388,1.28-0.388c0.685,0,1.216,0.185,1.595,0.552
		c0.379,0.368,0.568,0.891,0.568,1.563v3.902c0,0.214,0.021,0.377,0.067,0.488c0.044,0.113,0.142,0.185,0.294,0.217
		c0.125,0.025,0.188,0.094,0.188,0.203v0.337c0,0.276-0.213,0.416-0.641,0.416c-0.573,0-0.971-0.276-1.189-0.83
		c-0.502,0.58-0.984,0.869-1.451,0.869c-0.444,0-0.811-0.185-1.099-0.553c-0.288-0.368-0.432-0.84-0.432-1.414
		C99.134,92.551,100.037,91.582,101.845,91.116 M101.845,91.916c-0.737,0.271-1.105,0.87-1.105,1.794
		c0,0.727,0.191,1.089,0.572,1.089c0.167,0,0.298-0.082,0.391-0.247c0.095-0.165,0.143-0.347,0.143-0.544L101.845,91.916
		L101.845,91.916z"/>
	<path fill="#FFFFFF" d="M108.929,83.642V94.58c0,0.271,0.11,0.465,0.336,0.58c0.095,0.053,0.142,0.128,0.142,0.228v0.29
		c0,0.099-0.058,0.149-0.172,0.149h-2.164c-0.115,0-0.172-0.051-0.172-0.149v-0.29c0-0.104,0.051-0.18,0.149-0.228
		c0.219-0.109,0.329-0.304,0.329-0.579v-9.64c0-0.28-0.112-0.479-0.338-0.594c-0.094-0.048-0.141-0.117-0.141-0.207v-0.293
		c0-0.095,0.057-0.143,0.172-0.143L108.929,83.642z"/>
	<path fill="#FFFFFF" d="M116.975,93.914c-0.12,1.385-0.745,2.076-1.873,2.076c-0.747,0-1.34-0.315-1.779-0.947
		c-0.438-0.632-0.658-1.578-0.658-2.837c0-1.223,0.209-2.184,0.623-2.884c0.416-0.699,0.975-1.05,1.675-1.05
		c0.62,0,1.124,0.271,1.505,0.814s0.57,1.261,0.57,2.154V91.9c0,0.125-0.063,0.188-0.194,0.188h-2.445v0.642
		c0,0.706,0.068,1.246,0.204,1.623c0.137,0.376,0.375,0.564,0.715,0.564c0.396,0,0.672-0.381,0.823-1.145L116.975,93.914z
		 M115.534,91.227v-1.081c0-0.752-0.193-1.129-0.58-1.129c-0.371,0-0.558,0.481-0.558,1.442v0.768H115.534L115.534,91.227z"/>
	<path fill="#FFFFFF" d="M122.633,88.273c0.512,0,0.934,0.127,1.264,0.384c0.334,0.257,0.498,0.58,0.498,0.973
		c0,0.225-0.076,0.417-0.23,0.58c-0.152,0.162-0.354,0.243-0.6,0.243c-0.199,0-0.375-0.06-0.529-0.177
		c-0.15-0.117-0.229-0.286-0.229-0.505c0-0.088,0.021-0.188,0.072-0.297c0.029-0.074,0.047-0.128,0.047-0.165
		c0-0.183-0.141-0.273-0.416-0.273c-0.199,0-0.375,0.07-0.531,0.215c-0.154,0.144-0.23,0.343-0.23,0.599
		c0,0.22,0.07,0.427,0.211,0.623c0.143,0.196,0.514,0.511,1.113,0.944c0.58,0.418,0.984,0.804,1.215,1.155
		c0.229,0.354,0.346,0.751,0.346,1.194c0,0.706-0.229,1.253-0.684,1.642c-0.455,0.391-0.996,0.584-1.623,0.584
		c-0.594,0-1.076-0.143-1.443-0.427s-0.553-0.646-0.553-1.085c0-0.24,0.072-0.448,0.221-0.623c0.145-0.174,0.355-0.262,0.635-0.262
		c0.5,0,0.752,0.238,0.752,0.713c0,0.079-0.018,0.181-0.049,0.306c-0.033,0.115-0.049,0.196-0.049,0.243
		c0,0.256,0.184,0.384,0.549,0.384c0.277,0,0.508-0.087,0.689-0.263c0.186-0.175,0.275-0.375,0.275-0.599
		c0-0.246-0.08-0.473-0.238-0.679c-0.16-0.205-0.471-0.486-0.936-0.843c-0.627-0.479-1.068-0.894-1.326-1.242
		c-0.254-0.347-0.383-0.764-0.383-1.25c0-0.621,0.219-1.125,0.658-1.512C121.566,88.466,122.068,88.273,122.633,88.273"/>
	<rect x="44.385" y="89.912" fill="#FFFFFF" width="25.727" height="1.169"/>
	<rect x="127.801" y="89.912" fill="#FFFFFF" width="25.727" height="1.169"/>
	<path fill="#FFFFFF" d="M53.156,57.942c0.247,0.963,1.792,4.74,2.207,5.854c-0.096-0.874,0.141-1.705,0.361-2.598
		c0.545-2.13,1.706-4.866,3.613-6.189c0.66-0.427,1.368-0.672,2.121-0.737c4.566-0.721,6.319,4.865,6.453,9.646
		c0.006,3.528,0.401,4.069,1.432,7.337c0.444,1.233,1.143,1.954,2.079,2.099c2.672,0.407,4.496-15.019,4.616-17.554
		c0.542-0.138,1.341-0.279,1.688-0.176c0.002,0.256-0.023,1.162-0.208,2.941c-0.411,4.407-1.375,9.662-2.649,13.712
		c-0.724,2.434-1.727,3.781-2.916,4.15l-0.121,0.031c-1.085,0.277-2.411,0.36-4.012,0.129c-2.853-0.36-3.572-2.166-4.287-5.707
		c-0.623-3.179-1.205-7.202-1.841-10.186c-0.804-3.389-1.662-2.977-3.067-0.946c-1.495,2.18-2.47,5.64-1.527,9.314
		c0.463,1.808,1.592,3.958,1.526,5.708c-0.133,0.483-0.58,1.24-1.403,2.286c-0.809,1.105-2.659,1.901-3.735,0.958
		c-1.122-0.868-1.812-2.81-2.171-4.965c-0.268-1.793-0.425-2.908-0.593-3.315c-0.979-2.316-1.777-4.68-2.41-7.149l-0.216-0.842
		c-0.867-3.631-1.665-5.993,0.625-6.58C50.587,54.685,52.529,56.498,53.156,57.942 M47.756,57.913
		c0.03,0.12,0.046,0.181,0.106,0.166l0.061-0.016c0,0,0.396-1.707-0.024-1.598C47.613,56.603,47.632,57.432,47.756,57.913
		 M52.776,75.245c0.121-0.03,0.165-0.105,0.271-0.197c-0.288-0.375-0.382-0.737-0.398-1.053l-0.076-0.046
		c-0.06,0.017-0.104,0.092-0.313,0.273c-0.016,0.196-0.028,0.392,0.018,0.573C52.337,75.037,52.535,75.307,52.776,75.245
		 M52.209,73.786c0.046-0.076-0.001-0.258-0.048-0.438c-0.138-0.285-0.092-0.361,0.104-0.347c-0.047-0.182-0.499-2.697-0.739-2.637
		c-0.15,0.167-0.071,0.726,0.146,1.825l0.17,0.663C51.996,73.455,52.134,73.74,52.209,73.786 M61.789,51.299
		c-1.385,0.354-2.323-0.303-3.111-0.872c-0.576-0.494-1.077-0.944-1.457-1.424c-0.396-0.541-0.653-0.795-0.955-0.718
		c-1.205,0.308-1.705,2.362-1.807,3.224c-0.074,0.21-0.781,0.457-2.03,0.841c-1.311,0.4-2.035,0.329-2.189-0.274
		c-0.633-2.469-0.417-6.634,1.341-7.79c0.451-0.244,0.917-0.429,1.399-0.552c1.988-0.51,4.015,0.385,5.196,1.236
		c0.408,0.345,0.911,1.051,1.521,2.179c0.915,1.563,1.626,2.086,2.269,0.831c0.118-0.287,0.117-0.543,0.07-0.724
		c0.042-0.588,2.211-1.146,2.681-0.816l0.062,0.241C65.35,48.911,63.898,50.759,61.789,51.299 M64.651,75.989
		c0.729,0.841,1.396,1.185,1.817,1.075c0.044-0.076,0.089-0.151,0.072-0.212c-0.349-0.359-0.923-0.598-1.393-0.927
		c-0.243-0.194-1.17-1.563-1.411-1.5c-0.045,0.075-0.029,0.135-0.014,0.195C63.8,74.923,64.104,75.359,64.651,75.989 M62.167,43.755
		c0.182-0.046,0.258-0.001,0.271,0.059c0.077,0.045,0.107,0.166,0.123,0.227c0.077,0.301-0.193,0.499-0.101,0.859l-0.182,0.046
		c-0.346,0.153-0.755-0.191-0.862-0.356L61.4,44.529C61.34,44.288,61.866,43.833,62.167,43.755 M66.434,58.648
		c-0.153-0.347-0.843-2.032-1.204-1.938c0.275,0.572,0.352,0.874,0.232,0.903c-0.105,0.093-0.15,0.167-0.104,0.349
		c0.093,0.36,0.17,0.662,0.171,0.918c0.047,0.182,0.122,0.226,0.243,0.194c0.136,0.029,0.256-0.001,0.332,0.043
		C66.345,59.055,66.48,58.828,66.434,58.648"/>
	<path fill="#FFFFFF" d="M92.973,70.456c0,1.927,0.311,2.923,1.057,3.109c0.686,0.249,2.426-4.416,2.861-5.597
		c1.058-2.489,2.799-7.215,3.421-9.516c0.56-0.373,1.181-0.436,1.803,0c-1.431,4.788-3.545,10.572-5.411,15.112
		c-0.87,2.3-1.43,3.607-1.74,3.98c-0.622,0.87-1.556,1.306-2.799,1.43h-0.187c-1.679,0-3.669-1.12-4.229-2.178
		c-1.43-2.486-2.177-4.912-2.301-7.338s-0.186-4.54-0.186-6.344c-2.177,3.856-3.856,6.344-5.162,7.339
		c-3.981,2.984-8.271-1.493-8.271-5.598c0-1.306,0.934-4.478,1.244-4.789c0.871-1.243,1.742-2.735,2.612-4.477
		c1.617-2.985,4.042-3.793,7.4-2.114c1.431,0.746,2.55,1.43,3.358,2.052c0.311-0.062,0.684-2.362,0.809-2.735
		c0.311-0.312,0.621-0.497,0.993-0.561h0.313c2.488,0,5.161,4.042,4.975,6.53c-0.062,0.435-0.062,1.182-0.062,2.301
		C93.346,63.988,93.035,67.221,92.973,70.456 M80.787,55.255c0-0.188-0.063-0.249-0.125-0.249c-0.248,0-1.057,1.368-1.057,1.742
		l0.062,0.062c0.063,0,0.125,0,0.188-0.062C80.227,56.748,81.036,55.567,80.787,55.255 M85.7,57.183
		c-1.369,0-2.675,2.426-3.297,3.607c-0.87,1.616-1.865,3.545-1.865,5.597c0,0.684,0,1.057,0.686,1.057
		c0.621,0,1.119-0.373,1.492-0.808c1.245-1.679,1.245-2.052,2.923-4.541c0.996-1.43,1.43-2.675,1.369-3.668
		C87.006,57.617,86.57,57.246,85.7,57.183 M91.235,75.031c-0.062-0.311-0.56-1.491-0.995-1.491v0.063
		c-0.125-0.063-0.187,0.063-0.187,0.249c0,0.436,0.809,2.736,0.995,2.736v-0.249h0.062C91.11,75.964,90.551,75.218,91.235,75.031
		 M96.77,62.157c0-0.372,0.311-2.984,0.374-3.047c0.062,0.063,0.062,0.125,0.125,0.125v0.249c0.062,0.497,0.062,0.871,0.062,1.183
		c0.063,0.747-0.125,1.679-0.56,1.679L96.77,62.157L96.77,62.157z"/>
	<path fill="#FFFFFF" d="M123.799,43.92l0.061-0.81c1.121-0.125,2.986-1.244,2.488-2.735c-0.373-1.058-2.051-3.11-3.73-2.363
		c-0.746,0.31-1.619,1.492-2.486,3.481c-0.871,1.99-1.492,4.604-1.93,7.898c-0.871,6.965-0.809,12.189,0.188,15.734
		s2.24,5.411,3.67,5.597c1.678,0.187,3.729-1.43,4.789-2.363c0.746-0.746,1.678-1.927,1.928-2.922
		c1.43-0.809,3.855-0.871,3.855,1.119c0,1.741-0.811,3.296-2.178,4.727c-1.865,2.114-4.043,3.607-6.777,4.789
		c-1.557,0.622-3.607,0.934-5.412,0.934h-0.313c-0.994,0-1.864-0.124-2.61-0.373c-2.675-0.686-3.669-2.549-4.789-4.664
		c-0.685-1.182-1.183-3.359-1.493-5.101c-0.313-1.554-0.622-3.108-0.809-4.539c-0.249-1.431-0.311-2.301-0.311-2.487
		c0-2.985,0.062-5.659,0.248-8.146c0.186-2.487,0.248-3.794,0.248-3.854c0.809-4.665,2.612-9.143,4.977-12.252
		c1.804-2.363,3.42-2.86,6.841-2.86c3.172,0,6.219,1.368,7.523,2.923c0.746,0.871,1.182,1.307,1.617,2.612
		c0.932,2.487,1.057,8.396-1.99,8.271C125.539,46.531,123.549,45.661,123.799,43.92 M108.872,61.084
		c0.125-0.063,0.125-0.437,0.063-1.058c-0.063-0.623,0-1.493,0.125-2.55c-0.063-0.311-0.125-0.746-0.188-1.368
		c0-0.622-0.062-0.871-0.187-0.871c-0.188,0.063-0.249,0.497-0.249,1.307C108.437,57.726,108.749,61.084,108.872,61.084
		 M110.178,47.838c0-0.188-0.124-0.249-0.313-0.249c-0.186,0-0.373,0.062-0.496,0c-0.188,0.062-0.25,0.497-0.25,1.306v0.249
		c0.063,0.934,0.125,1.43,0.188,1.493h0.063c0.063-0.063,0.063-0.125,0.063-0.312c0.063-0.248,0.063-0.436,0-0.684
		C109.432,49.392,110.178,48.211,110.178,47.838 M109.743,46.78h0.25c0.063,0,0.188-0.063,0.25-0.125
		c-0.25-0.374,0.125-0.56-0.25-0.932c-0.187,0-0.685,0.497-0.685,0.746C109.308,46.656,109.557,46.718,109.743,46.78
		 M119.383,69.293c-0.188,0.062-0.313,0.249-0.373,0.436v0.063c0.063,0.187,0.311,0.623,0.746,1.244
		c0.311,0.187,0.684,0.311,1.117,0.372h0.248c0.189,0,0.314,0,0.314-0.063C120.564,70.848,119.633,70.537,119.383,69.293
		 M125.602,30.3c0,0.311-0.373,0.497-0.373,0.809h-0.125c-0.373,0.063-0.746-0.312-0.809-0.56v-0.063
		c0-0.186,0.621-0.559,0.992-0.559C125.539,29.927,125.602,30.113,125.602,30.3"/>
	<path fill="#FFFFFF" d="M141.623,50.626c0,2.052-0.25,3.979-0.498,5.782c-0.186,1.183-0.25,1.99-0.186,2.427l-0.125,1.181
		c-0.063,0.747-0.063,1.617,0.064,2.612c0.434-1.058,1.057-1.929,1.68-2.612c1.242-1.43,3.295-2.923,5.285-3.047
		c4.291-0.124,4.416,2.799,4.416,6.903c-0.064,1.555-0.563,5.1,0.311,5.659c0.871,0.498,4.541-10.198,4.979-11.442
		c0.559-0.124,1.18-0.312,1.738,0.062c-0.809,2.612-2.236,7.152-3.48,10.075l-0.871,1.804c-1.305,2.736-3.17,5.1-6.902,3.048
		c-3.172-1.68-0.623-9.392-1.68-13.122c-1.99-1.307-3.793,4.104-4.229,5.782c-0.25,0.747-0.373,1.244-0.373,1.432
		c0,1.928,0.063,3.606,0.188,4.975c0.125,1.431-0.125,2.363-0.686,2.86c-0.994,0.872-0.869,1.742-2.176,2.177
		c-0.436,0.188-2.799,1.12-3.918,1.12c-1.555,0-2.486-0.746-2.486-2.363c-0.125-4.166,0.373-4.54,1.805-6.095
		c-0.563-0.561-1.555,0.312-1.742-0.497c-0.436-2.301-0.373-5.66-0.373-8.646c0-0.435,0-1.989-0.063-4.851v-0.56
		c0-3.607,0.373-6.903,0.623-10.759c0.186-2.053,0.684-4.478,1.555-5.971c0.498-0.933,1.057-1.182,2.176-1.182
		c0.871,0,1.43,0.249,1.803,0.809c0.498,0.809,1.184,1.492,1.99,1.927c0.313,1.307,0.438,2.675,0.438,4.229
		C140.814,46.522,141.498,48.448,141.623,50.626 M133.725,72.765h0.063c0.063-0.187-0.063-0.373-0.25-0.56h-0.125
		c-0.123,0-0.186,0.187-0.248,0.56v0.125c0.063,0.373,0.125,0.559,0.188,0.559C133.539,73.324,133.6,73.077,133.725,72.765
		 M140.566,39.619c0.125,0-0.125-1.556-0.746-1.556c-0.25-0.125-0.561,0-0.561,0.188C139.262,38.561,140.316,39.619,140.566,39.619
		 M140.256,48.947v0.436c0,0.996,0.061,1.493,0.248,1.493v0.062c0.248-0.25,0.248-0.684,0.186-1.928
		c-0.061-1.119-0.125-1.679-0.186-1.804v-0.063C140.381,47.144,140.316,47.703,140.256,48.947 M151.199,63.313
		c0,0.124,0.125,0.747,0.313,0.747c0.186-0.187,0.25-0.56,0.25-0.871v-0.062c0-0.312-0.064-0.623-0.25-0.81
		C151.324,62.318,151.199,63.188,151.199,63.313"/>
	<path fill="#FFFFFF" d="M169.926,70.81c-0.67-2.095-0.902-4.957-1.357-6.897c-0.668,2.762-1.396,5.534-3.162,7.41
		c-0.844,0.963-2.027,1.416-3.512,1.227c-1.033-0.142-1.902-0.436-2.6-0.823c-1.771-1.15-3.016-3.273-3.492-6.094l-1.463-8.646
		c-0.572-3.75-0.543-4.322,2.193-5.291c0.172-0.093,0.309-0.051,0.49-0.083c3.373-0.569,4.143,4.347,4.439,7.954
		c0.178,2.178,0.326,4.171,0.465,6.104c0.137,1.932,0.631,2.983,1.502,3.277c2.916,1.209,4.633-6.524,4.371-9.192
		c-0.363-2.146,0.133-4.06,0.129-5.95c-0.002-0.378,0.479-0.523,1.635-0.403c1.533,0.119,3.621,0.901,3.719,2.966
		c-0.014,2.525-0.219,6.534,0.434,9.262c0.588,1.981,1.328,3.75,2.334,5.219c0.678,1.021,1.26,1.489,1.904,1.57
		c0.316,0.009,0.713-0.626,1.293-2.049c1.424-3.521,2.779-8.165,3.824-12.063c0.605-2.373,0.859-3.867,0.877-4.5
		c0.297-0.112,0.592-0.227,0.91-0.217c0.369-0.063,0.686-0.054,0.889,0.039c-0.084,2.474-1.139,5.933-1.838,8.511
		c-0.688,2.639-1.396,5.157-2.127,7.55c-0.729,2.396-1.137,3.725-1.289,3.94c-0.836,1.402-2.039,2.49-3.609,3.26
		c-0.297,0.113-0.594,0.227-0.9,0.278C173.102,77.651,170.861,73.74,169.926,70.81 M154.701,55.031
		c0.072,0.431,0.166,0.604,0.236,0.654c0.051-0.072,0.082-0.266,0.082-0.644c-0.074-0.431-0.033-0.563,0.172-0.472
		c0.008-0.316-0.043-0.624-0.096-0.931c-0.051-0.307-0.133-0.419-0.268-0.458C154.605,53.345,154.393,54.327,154.701,55.031
		 M162.291,72.29c0.121-0.021,0.234-0.103,0.406-0.195c0.307-0.809-0.225-0.215-0.879-0.355c-0.031,0.194-0.08,0.267-0.07,0.328
		C161.789,72.312,162.107,72.321,162.291,72.29 M170.863,70.398c-0.193-0.408-0.34-0.888-0.422-1.379
		c-0.145-0.479-0.248-0.715-0.309-0.705c-0.123,0.021-0.154,0.215-0.08,0.646c0.217,1.288,1.193,3.708,1.775,3.799
		c0.053-0.072,0.104-0.144,0.07-0.327C171.787,71.755,171.092,70.99,170.863,70.398"/>
	<path fill="#FFFFFF" d="M207.221,59.171c-0.738,1.455-2.184,2.985-4.322,4.531c-2.086,1.615-3.697,2.615-4.84,3.062
		c-0.055,3.077-0.879,5.463-2.52,7.027c-2.826,2.693-3.947,3.395-7.668,3.803c-0.766,0.064-1.584,0.059-2.441-0.079
		c-2.457-0.396-3.717-1.167-3.873-3.333c-0.445-5.048,5.025-6.561,8.648-7.55c0.297-2.221-1.418-5.269-5.199-9.154
		c-1.902-1.881-2.75-3.655-2.492-5.251s1.682-3.005,4.16-4.307c1.039-0.588,2.02-0.809,2.939-0.659
		c1.902,0.307,3.406,2.313,3.34,3.5c-0.176,1.482-0.682,2.283-1.52,2.399c-0.777,0.127-1.238-0.137-1.344-0.657
		c-0.293-1.308-0.729-2.133-1.291-2.539c-1.428-0.923-2.732-0.251-2.068,1.493c0.332,1.062,1.666,2.158,3.82,3.262
		c1.58,0.759,3.213,2.344,4.914,4.698c1.637,2.342,2.441,3.983,2.52,5.066c2.146-0.789,6.342-3.387,7.455-5.601
		c0.318-0.014,0.502,0.018,0.809,0.065C206.557,59,206.861,59.049,207.221,59.171 M182.936,52.735
		c-0.031,0.185-0.008,0.44,0.146,0.654c0.176,0.091,0.287,0.172,0.35,0.182l0.02-0.123c-0.082-0.266-0.033-0.572,0.088-0.931
		c-0.111-0.082-0.176-0.091-0.234-0.101C183.117,52.387,182.965,52.551,182.936,52.735 M190.346,69.677
		c0.049-0.307,0.088-0.552,0.078-0.869c-1.369,0.284-2.92,0.915-4.541,1.978c-1.121,0.7-1.74,1.42-1.838,2.033
		c-0.172,1.043,1.102,1.752,1.775,1.862C188.033,75.037,190.02,71.704,190.346,69.677 M196.971,52.037
		c-0.092,0.174-0.111,0.297-0.295,0.268l-0.063-0.01c-0.42-0.131-0.564-0.407-0.484-0.897l0.027-0.185
		c0.162-0.604,0.385-0.82,0.744-0.699l0.063,0.01c0.02,0.255,0.07,0.326,0.256,0.356c0.063,0.01,0.111,0.082,0.094,0.205
		C197.264,51.391,197.029,51.669,196.971,52.037 M194.346,73.787l0.008-0.062l-0.063-0.01c-0.104-0.144-0.863,0.68-0.867,0.301
		c-0.346,0.196-0.766,0.444-0.834,0.874c-0.012,0.063-0.012,0.063,0.043,0.133l0.061,0.01
		C193.064,75.092,194.295,74.094,194.346,73.787 M197.236,69.529c0.021-0.124,0.029-0.185-0.021-0.256l-0.063-0.01
		c-0.184-0.029-0.973,1.733-1.135,1.958c-0.262,0.462-0.629,0.781-1.006,1.162c-0.234,0.276-0.396,0.502-0.426,0.687
		c-0.07,0.052-0.029,0.186,0.012,0.316C195.232,73.363,197.059,70.634,197.236,69.529"/>
	<path fill="#FFFFFF" d="M0.312,70.43c0.249,0.125,0.311,0.559,0.249,1.181c0,0.374-0.063,0.935-0.249,0.935
		c-0.063,0-0.063-0.125-0.063-0.437C0.312,71.736,0.187,71.611,0,71.673v-0.249C0.001,71.114,0.063,70.43,0.312,70.43 M0.25,38.588
		c-0.062,0.746-0.062,1.555,0,2.301v2.177c0,2.984,0.497,7.338,0.436,10.696c1.245-0.995,1.679-1.057,1.245-0.249
		c-0.872,1.803-0.81,0.933-0.81,3.482c-0.063,1.242-0.063,2.55-0.125,3.979v2.736c0,0.871,0,1.617,0.063,2.113
		c0,1.244,0.312,3.98,0.249,5.474c0,1.057-0.125,2.984-1.183,2.486c0.373,1.618,1.617,2.737,3.731,2.737
		c2.177,0,3.669-1.368,4.602-2.737c0-0.371,0.188-3.107,0.312-3.419c0.436,0.497,1.555,1.119,3.483,1.617
		c3.544,0.994,7.835,0.561,9.515-1.742c1.12-1.431,2.55-4.229,3.233-6.095c0.248-0.622,0.685-1.679,0.56-2.363
		c0-0.311,0.063-1.306,0.25-2.984c0.435-3.358,1.057-7.587,1.057-11.319V46.92c-0.125-2.923-0.871-5.599-2.177-8.147
		c-1.368-2.488-3.668-3.793-6.779-3.793c-0.746,0-1.43,0.187-2.113,0.56c-2.861,1.492-5.535,5.41-6.903,8.271v-4.166
		c0-2.053,0.063-4.852-1.243-4.976c-1.431-0.312-2.364-1.183-3.421-2.114c-0.435-0.313-0.871-0.498-1.368-0.561
		C0.312,31.997,0.25,35.79,0.25,38.588 M0.872,38.402c0-0.125,0.063-0.249,0.124-0.374c-0.124-1.305-0.063-1.989,0.187-1.989h0.125
		c-0.125,0.435-0.063,1.367,0.249,2.984v0.063H1.494C1.121,39.086,0.872,38.713,0.872,38.402 M8.957,65.019
		c-0.063-2.239-0.063-4.851-0.125-7.836v-9.079c1.058-2.612,3.109-6.033,4.976-7.96c0.809-0.809,1.929-1.742,3.233-1.742h0.063
		c1.865,0.063,2.922,1.119,3.233,3.296c0.373,2.302,0.745,5.908,0.745,9.267c0,0.623,0,1.307-0.062,2.115
		c-0.063,2.612,0.249,3.047-0.375,5.285c-0.559,2.115-1.305,4.728-2.362,6.345c-1.679,1.679-4.664,4.229-7.836,4.229
		C8.397,68.937,8.957,68.564,8.957,65.019 M25.375,42.506c0,0.249-0.063,0.373-0.249,0.436c-0.187,0-0.25-0.187-0.187-0.56
		c0.125-1.12-0.871-1.742-0.871-2.674v-0.124C24.317,39.708,25.375,41.573,25.375,42.506 M25.188,44.186
		c0-0.187,0.124-0.249,0.311-0.249c0.313,0.063,0.437,0.312,0.437,0.747v0.125c-0.063,0.498-0.124,0.746-0.437,0.746h-0.063
		c-0.063-0.187-0.188-0.311-0.311-0.311C25.062,45.181,25,45.12,25,45.058C25.002,44.808,25.188,44.496,25.188,44.186"/>
	<path fill="#FFFFFF" d="M51.385,56.676c-0.187,2.12-1.111,3.993-2.63,5.722c-1.521,1.729-2.685,2.634-3.47,2.839
		c0.131,2.821-0.182,5.278-1.43,7.464c-1.438,2.535-2.897,4.253-6.14,4.84c-2.203,0.397-4.071-0.148-6.135-1.418
		c-1.834-1.06-3.911-4.159-4.631-8.138c-0.563-3.122-0.483-6.17,0.608-8.515c0.88-2.119,1.839-3.81,2.853-5.193
		c1.164-1.601,1.787-2.346,3.256-2.61c0.856-0.155,1.514-0.021,1.869,0.547c0.439,0.678,0.405,1.189-0.111,1.473
		c-1.107,0.517-1.826,1.784-2.106,3.73c-0.688,4.232-1.207,5.211,0.575,10.513c0.915,2.615,1.987,4.002,3.361,4.259
		c3.398,0.271,5.743-3.883,6.047-6.401c-1.452,0.01-3.381-1.223-5.555-3.801c-2.816-3.345-2.279-6.665,1.003-8.081
		c0.824-0.338,1.809-0.137,2.921,0.421c1.317,0.646,2.29,2.177,2.805,4.675c0.515,2.498,0.708,3.917,0.653,4.306
		c0.783-0.205,1.674-0.872,2.638-2.184c1.036-1.262,1.671-2.642,1.895-4.198c0.295-0.116,0.54-0.161,0.725-0.194
		C50.566,56.698,50.946,56.693,51.385,56.676 M34.194,71.351c-0.134-0.039-0.406,0.201-0.373,0.383
		c0.057,0.307,1.134,1.375,1.439,1.32c-0.385-0.373-0.479-0.546-0.429-0.619c0.234-0.104-0.289-0.895-0.36-0.946
		c-0.021-0.122-0.096-0.172-0.155-0.16L34.194,71.351z M37.575,73.268l0.244-0.044c0.245-0.044,0.489-0.089,0.323-0.312
		c0.028-0.195-0.155-0.162-0.573-0.023c-0.712,0.255-1.424-0.185-1.818-0.619c-0.094-0.172-0.237-0.272-0.434-0.3
		c-0.027,0.194-0.005,0.316,0.017,0.438C35.5,73.327,36.461,73.405,37.575,73.268 M32.626,52.548
		c0.022,0.122,0.105,0.232,0.322,0.384c0.545-0.479,1.407-0.255,0.673-0.817c-0.133-0.039-0.256-0.016-0.377,0.007
		C32.999,52.165,32.582,52.304,32.626,52.548 M39.825,56.365l-0.367,0.066c-1.028,0.249-1.431,0.828-1.264,1.746
		c0.172,0.601,0.571,1.414,1.238,2.303c1.678,2.288,3,3.313,4.235,3.153c0.022-0.573-0.06-1.38-0.247-2.419
		C42.912,58.399,42.324,55.85,39.825,56.365 M44.007,76.338c0.14-0.279,0.646-1.317,1.008-1.067l0.021,0.122
		c0.057,0.306-0.135,0.657-0.484,1.162c-0.34,0.567-0.612,0.807-0.796,0.839l-0.072-0.05C43.673,77.283,44.324,76.344,44.007,76.338
		"/>
	<path fill="#FFFFFF" d="M140.768,8.429c0.291-0.735,0.928-0.819,1.529-0.582c0.6,0.237,0.914,0.742,0.676,1.342l-1.857,4.703
		c-0.344,0.871-0.943,2.333-1.229,3.05l-1.379,3.55c-0.287,0.781-0.887,0.882-1.506,0.637s-0.98-0.747-0.705-1.443
		c0.189-0.482,0.463-1.114,0.699-1.714l2.135-5.288C139.574,11.56,140.121,10.12,140.768,8.429"/>
	<path fill="#FFFFFF" d="M137.563,22.012c-0.271,0-0.553-0.058-0.842-0.173c-1.086-0.43-1.541-1.408-1.135-2.437
		c0.09-0.229,0.197-0.49,0.313-0.766c0.127-0.307,0.262-0.633,0.387-0.949l2.137-5.292c0.381-0.962,0.84-2.165,1.369-3.562
		l0.262-0.679c0.41-1.036,1.438-1.448,2.523-1.021c0.477,0.188,0.836,0.495,1.047,0.886c0.236,0.44,0.26,0.956,0.063,1.452
		l-1.857,4.702c-0.184,0.462-0.438,1.094-0.68,1.69c-0.213,0.525-0.416,1.023-0.547,1.358l-1.379,3.545
		C138.934,21.554,138.326,22.012,137.563,22.012 M141.727,8.495c-0.08,0-0.162,0-0.246,0.215l-0.256,0.671
		c-0.535,1.402-0.996,2.611-1.381,3.583l-2.137,5.292c-0.127,0.318-0.264,0.651-0.395,0.967c-0.111,0.268-0.215,0.521-0.305,0.743
		c-0.059,0.144-0.115,0.293,0.273,0.447c0.135,0.054,0.227,0.064,0.277,0.064c0.055,0,0.133,0,0.225-0.252l1.389-3.563
		c0.135-0.343,0.338-0.846,0.553-1.375c0.24-0.594,0.494-1.219,0.676-1.679l1.857-4.704c0.043-0.107,0.021-0.147,0.014-0.162
		c-0.027-0.051-0.109-0.125-0.26-0.186C141.881,8.506,141.783,8.495,141.727,8.495"/>
	<path fill="#FFFFFF" d="M165.098,18.76c0.365-0.702,1.008-0.718,1.58-0.421c0.568,0.298,0.832,0.833,0.535,1.405l-2.334,4.484
		c-0.434,0.831-1.182,2.225-1.535,2.906l-1.738,3.388c-0.365,0.749-0.973,0.785-1.564,0.479c-0.59-0.308-0.896-0.844-0.551-1.507
		c0.24-0.462,0.576-1.063,0.873-1.634l2.668-5.038C163.588,21.751,164.279,20.375,165.098,18.76"/>
	<path fill="#FFFFFF" d="M160.693,31.947c-0.326,0-0.664-0.09-1.006-0.268c-0.467-0.243-0.805-0.589-0.98-1.002
		c-0.143-0.339-0.238-0.881,0.104-1.539c0.113-0.218,0.248-0.466,0.389-0.727c0.158-0.294,0.326-0.604,0.482-0.905l2.672-5.044
		c0.461-0.886,1.018-1.988,1.664-3.265l0.395-0.784c0.514-0.981,1.588-1.289,2.617-0.757c0.99,0.517,1.342,1.52,0.863,2.44
		l-2.334,4.484c-0.229,0.438-0.543,1.033-0.844,1.599c-0.27,0.505-0.523,0.986-0.689,1.307l-1.738,3.386
		C161.83,31.805,161.094,31.947,160.693,31.947 M166.004,18.922c-0.051,0-0.127,0-0.229,0.19l-0.393,0.777
		c-0.648,1.282-1.207,2.389-1.672,3.284l-2.674,5.043c-0.156,0.305-0.33,0.623-0.49,0.923c-0.139,0.253-0.27,0.494-0.377,0.705
		c-0.057,0.104-0.07,0.183-0.051,0.236c0.014,0.028,0.066,0.129,0.275,0.236c0.115,0.062,0.225,0.096,0.297,0.096
		c0.031,0,0.109,0,0.221-0.229l1.746-3.401c0.172-0.327,0.432-0.813,0.699-1.321c0.299-0.562,0.613-1.152,0.838-1.587l2.334-4.485
		c0.041-0.077,0.109-0.207-0.209-0.372C166.205,18.957,166.092,18.922,166.004,18.922"/>
	<path fill="#FFFFFF" d="M28.793,20.496c-0.475-0.634-0.212-1.221,0.305-1.606c0.516-0.388,1.109-0.392,1.498,0.124l3.036,4.044
		c0.562,0.749,1.494,2.026,1.957,2.642l2.303,3.034c0.517,0.653,0.288,1.215-0.245,1.616c-0.533,0.399-1.149,0.445-1.598-0.154
		c-0.313-0.416-0.708-0.978-1.096-1.494l-3.39-4.585C30.838,23.151,29.896,21.931,28.793,20.496"/>
	<path fill="#FFFFFF" d="M36.861,31.414c-0.552,0-1.059-0.271-1.427-0.76c-0.15-0.199-0.318-0.434-0.497-0.679
		c-0.193-0.266-0.396-0.546-0.598-0.814l-3.394-4.59c-0.621-0.827-1.406-1.849-2.318-3.034l-0.441-0.574
		c-0.677-0.902-0.493-1.979,0.451-2.688c0.867-0.648,1.965-0.528,2.57,0.277l3.036,4.045c0.292,0.39,0.685,0.922,1.06,1.43
		c0.345,0.469,0.676,0.916,0.896,1.211l2.301,3.03c0.435,0.549,0.477,1.063,0.434,1.394c-0.064,0.489-0.351,0.938-0.829,1.299
		C37.711,31.257,37.281,31.414,36.861,31.414 M29.842,19.377c-0.075,0-0.182,0.047-0.286,0.125c-0.354,0.264-0.25,0.4-0.15,0.533
		l0.437,0.566c0.917,1.191,1.706,2.218,2.333,3.053l3.393,4.591c0.203,0.27,0.412,0.558,0.609,0.829
		c0.173,0.238,0.337,0.465,0.482,0.659c0.109,0.146,0.179,0.146,0.201,0.146c0.082,0,0.204-0.056,0.325-0.146
		c0.158-0.119,0.222-0.22,0.229-0.27c0.006-0.042-0.024-0.131-0.125-0.257l-2.312-3.045c-0.228-0.303-0.56-0.754-0.908-1.228
		c-0.372-0.504-0.762-1.032-1.052-1.419l-3.036-4.044C29.91,19.377,29.863,19.377,29.842,19.377"/>
	<path fill="#FFFFFF" d="M82.958,6.449l0.994,5.614c0.108,0.636,0.243,1.311,0.33,1.823c0.125,0.739-0.332,1.153-0.987,1.265
		c-0.656,0.112-1.222-0.108-1.341-0.934l-0.615-3.758c-0.13-0.76-0.414-2.315-0.57-3.238l-0.846-4.986
		c-0.108-0.635,0.305-1.063,0.94-1.172c0.636-0.106,1.242,0.106,1.374,0.886C82.519,3.738,82.756,5.26,82.958,6.449"/>
	<path fill="#FFFFFF" d="M82.991,15.945c-0.964,0-1.651-0.62-1.796-1.616l-0.614-3.744c-0.06-0.358-0.156-0.903-0.259-1.475
		c-0.11-0.624-0.228-1.277-0.309-1.76l-0.847-4.986c-0.173-1.023,0.472-1.869,1.569-2.056c1.145-0.192,2.072,0.42,2.258,1.513
		l0.135,0.85c0.224,1.424,0.418,2.653,0.587,3.65l0.992,5.609c0.058,0.333,0.119,0.67,0.18,0.99
		c0.056,0.303,0.109,0.589,0.151,0.839c0.125,0.73-0.135,1.217-0.375,1.495c-0.292,0.34-0.721,0.564-1.239,0.652
		C83.274,15.932,83.13,15.945,82.991,15.945 M81.16,1.805c-0.056,0-0.112,0.005-0.17,0.015c-0.352,0.061-0.328,0.203-0.313,0.289
		l0.845,4.986c0.082,0.479,0.197,1.127,0.308,1.747c0.103,0.576,0.2,1.125,0.263,1.491l0.616,3.763
		c0.047,0.317,0.131,0.317,0.282,0.317c0.057,0,0.114-0.007,0.174-0.017c0.232-0.039,0.315-0.119,0.335-0.142
		c0.037-0.042,0.047-0.124,0.026-0.24c-0.041-0.242-0.092-0.521-0.146-0.813c-0.062-0.327-0.125-0.673-0.184-1.009l-0.994-5.608
		c-0.17-1.008-0.364-2.243-0.59-3.675L81.48,2.071C81.447,1.877,81.394,1.805,81.16,1.805"/>
	<path fill="#FFFFFF" d="M58.591,12.039l2.133,5.288c0.238,0.6,0.51,1.23,0.701,1.714c0.274,0.696-0.086,1.197-0.706,1.442
		s-1.219,0.146-1.505-0.636l-1.381-3.549c-0.282-0.716-0.884-2.179-1.228-3.05l-1.858-4.703c-0.237-0.601,0.078-1.104,0.678-1.342
		c0.601-0.237,1.237-0.153,1.527,0.582C57.6,9.477,58.147,10.917,58.591,12.039"/>
	<path fill="#FFFFFF" d="M60.16,21.367c-0.765,0-1.372-0.457-1.665-1.257l-1.375-3.536c-0.13-0.33-0.333-0.829-0.546-1.354
		c-0.242-0.597-0.498-1.229-0.68-1.69l-1.858-4.702C53.654,7.861,54.109,6.9,55.144,6.49c1.084-0.429,2.117-0.013,2.522,1.014
		l0.275,0.721c0.527,1.382,0.982,2.574,1.361,3.533l2.132,5.283c0.125,0.314,0.257,0.635,0.383,0.938
		c0.117,0.281,0.228,0.548,0.319,0.782c0.407,1.029-0.049,2.007-1.135,2.437C60.713,21.311,60.429,21.367,60.16,21.367
		 M55.996,7.851c-0.057,0-0.152,0.011-0.289,0.065c-0.332,0.131-0.277,0.267-0.246,0.348l1.858,4.703
		c0.181,0.46,0.436,1.086,0.675,1.678c0.215,0.53,0.419,1.034,0.554,1.372l1.381,3.554c0.098,0.267,0.175,0.267,0.23,0.267
		c0.053,0,0.144-0.012,0.278-0.065c0.39-0.154,0.332-0.304,0.274-0.449c-0.09-0.226-0.197-0.484-0.312-0.758
		c-0.128-0.309-0.264-0.637-0.39-0.956l-2.131-5.283c-0.384-0.968-0.841-2.165-1.37-3.555l-0.272-0.712
		C56.156,7.851,56.075,7.851,55.996,7.851"/>
	<path fill="#FFFFFF" d="M115.433,2.132c0.134-0.78,0.738-0.993,1.375-0.886c0.635,0.107,1.049,0.536,0.94,1.172l-0.845,4.985
		c-0.156,0.924-0.44,2.479-0.57,3.238l-0.615,3.758c-0.118,0.824-0.684,1.045-1.339,0.935c-0.657-0.111-1.114-0.526-0.989-1.266
		c0.087-0.513,0.223-1.187,0.33-1.822l0.994-5.615C114.915,5.442,115.151,3.92,115.433,2.132"/>
	<path fill="#FFFFFF" d="M114.68,16.127c-0.141,0-0.284-0.014-0.432-0.039c-0.52-0.087-0.947-0.313-1.239-0.652
		c-0.24-0.278-0.5-0.764-0.376-1.496c0.042-0.249,0.096-0.536,0.15-0.838c0.061-0.32,0.123-0.658,0.18-0.985l0.994-5.619
		c0.169-0.991,0.361-2.222,0.587-3.646l0.133-0.84c0.187-1.104,1.117-1.714,2.259-1.521c1.097,0.186,1.742,1.031,1.568,2.057
		l-0.846,4.984c-0.082,0.483-0.197,1.137-0.311,1.761c-0.104,0.57-0.199,1.114-0.259,1.478l-0.616,3.754
		C116.333,15.507,115.644,16.127,114.68,16.127 M116.511,1.986c-0.233,0-0.288,0.071-0.322,0.274l-0.131,0.831
		c-0.226,1.431-0.419,2.667-0.589,3.668l-0.995,5.62c-0.058,0.33-0.121,0.676-0.183,1.004c-0.055,0.293-0.106,0.571-0.146,0.813
		c-0.021,0.116-0.011,0.196,0.026,0.239c0.021,0.023,0.104,0.104,0.335,0.143c0.059,0.01,0.117,0.016,0.174,0.016
		c0.15,0,0.234,0,0.277-0.303l0.619-3.773c0.063-0.37,0.16-0.919,0.264-1.495c0.109-0.619,0.227-1.268,0.309-1.747l0.844-4.984
		c0.017-0.086,0.041-0.229-0.313-0.29C116.622,1.991,116.567,1.986,116.511,1.986"/>
</g>
</svg>
