<?xml version="1.0" encoding="utf-8"?>
<!-- Generator: Adobe Illustrator 15.0.2, SVG Export Plug-In . SVG Version: 6.00 Build 0)  -->
<!DOCTYPE svg PUBLIC "-//W3C//DTD SVG 1.1//EN" "http://www.w3.org/Graphics/SVG/1.1/DTD/svg11.dtd">
<svg version="1.1" id="Layer_1" xmlns="http://www.w3.org/2000/svg" xmlns:xlink="http://www.w3.org/1999/xlink" x="0px" y="0px"
	 width="720px" height="208.667px" viewBox="0 0 720 208.667" enable-background="new 0 0 720 208.667" xml:space="preserve">
<g>
	<g>
		<g>
			<g>
				<path fill="#1E120D" stroke="#FFFFFF" stroke-width="3.6263" stroke-miterlimit="10" d="M211.702,204.666h-76.986
					c-0.303,0-0.545-0.241-0.545-0.552c0-0.31,0.243-0.552,0.545-0.552h76.023l-53.77-92.058h-42.077l6.356,10.445
					c0.161,0.26,0.076,0.594-0.192,0.754c-0.25,0.159-0.602,0.074-0.753-0.185l-6.875-11.283c-0.09-0.176-0.099-0.385,0-0.56
					c0.102-0.176,0.285-0.275,0.486-0.275h43.374c0.192,0,0.384,0.1,0.477,0.275l54.404,93.163c0.118,0.167,0.118,0.376,0,0.542
					C212.085,204.557,211.903,204.666,211.702,204.666z"/>
				<path fill="#1E120D" stroke="#FFFFFF" stroke-width="3.6263" stroke-miterlimit="10" d="M108.596,160.841H2.553
					c-0.2,0-0.385-0.109-0.485-0.275c-0.092-0.178-0.092-0.387,0.008-0.554l38.272-65.77c0.151-0.26,0.493-0.344,0.752-0.194
					c0.268,0.152,0.351,0.486,0.201,0.763L3.515,159.738h104.762l22.088-36.951h-9.601c-0.293,0-0.544-0.243-0.544-0.552
					s0.25-0.552,0.544-0.552h10.571c0.209,0,0.386,0.102,0.485,0.267c0.1,0.184,0.091,0.401-0.008,0.569l-22.75,38.063
					C108.971,160.74,108.787,160.841,108.596,160.841z"/>
				<path fill="#1E120D" stroke="#FFFFFF" stroke-width="3.6263" stroke-miterlimit="10" d="M113.212,134.544h-0.017
					c-0.201-0.006-0.385-0.133-0.468-0.3L92.293,94.786c-0.083-0.169-0.083-0.376,0.01-0.543l54.772-91.673
					c0.1-0.169,0.276-0.293,0.485-0.277c0.193,0.009,0.376,0.117,0.477,0.284l34.827,62.141c0.091,0.167,0.091,0.376-0.017,0.545
					c-0.092,0.167-0.276,0.275-0.468,0.275h-43.164l-24.666,45.389l6.699,11.022c0.109,0.176,0.102,0.411-0.007,0.577l-7.562,11.769
					C113.571,134.454,113.414,134.544,113.212,134.544z M93.423,94.543l19.848,38.34l6.849-10.657l-6.692-10.99
					c-0.09-0.167-0.099-0.385,0-0.56l24.974-45.958c0.1-0.165,0.285-0.275,0.486-0.275h42.538l-33.89-60.486L93.423,94.543z"/>
				<path fill="#1E120D" stroke="#FFFFFF" stroke-width="3.6263" stroke-miterlimit="10" d="M113.237,134.544h-0.025H60.421
					c-0.201,0-0.386-0.116-0.502-0.309L40.323,94.769c-0.083-0.167-0.076-0.368,0.033-0.535c0.092-0.167,0.277-0.259,0.46-0.259
					h51.971c0.21,0,0.401,0.107,0.494,0.3l20.365,39.343c0.084,0.101,0.142,0.234,0.142,0.369
					C113.789,134.295,113.547,134.544,113.237,134.544z M60.772,133.442h51.537L92.454,95.078H41.72L60.772,133.442z"/>
				<path fill="#1E120D" stroke="#FFFFFF" stroke-width="3.6263" stroke-miterlimit="10" d="M157.288,111.504h-43.374
					c-0.192,0-0.368-0.109-0.486-0.269c-0.09-0.176-0.099-0.385,0-0.56l24.974-45.958c0.1-0.165,0.285-0.275,0.486-0.275h43.491
					c0.192,0,0.376,0.091,0.468,0.258c0.108,0.167,0.108,0.37,0.017,0.544l-25.092,45.968
					C157.681,111.386,157.488,111.504,157.288,111.504z M114.843,110.401h42.119l24.479-44.863h-42.226L114.843,110.401z"/>
				<path fill="#1E120D" stroke="#FFFFFF" stroke-width="3.6263" stroke-miterlimit="10" d="M211.702,204.666
					c-0.193,0-0.376-0.1-0.486-0.267l-54.405-93.17c-0.1-0.169-0.1-0.378-0.007-0.553l25.092-45.958
					c0.091-0.165,0.266-0.275,0.466-0.275c0.192,0,0.395,0.091,0.486,0.267l54.347,93.222c0.092,0.157,0.092,0.369,0,0.535
					l-25.007,45.915c-0.102,0.167-0.284,0.284-0.478,0.284H211.702z M157.923,110.944l53.762,92.04l24.388-44.777l-53.694-92.091
					L157.923,110.944z"/>
				<path fill="#1E120D" stroke="#FFFFFF" stroke-width="3.6263" stroke-miterlimit="10" d="M134.74,204.666h-0.024H28.354
					c-0.208,0-0.384-0.1-0.484-0.267L2.077,160.574c-0.101-0.168-0.101-0.395-0.008-0.562c0.1-0.166,0.285-0.274,0.485-0.274
					h106.043c0.191,0,0.375,0.108,0.467,0.266l26.061,43.709c0.1,0.101,0.175,0.242,0.175,0.401
					C135.299,204.424,135.057,204.666,134.74,204.666z M28.672,203.562h105.072l-25.467-42.721H3.515L28.672,203.562z"/>
				<path fill="#1E120D" stroke="#FFFFFF" stroke-width="3.6263" stroke-miterlimit="10" d="M92.788,95.078H40.816
					c-0.192,0-0.376-0.109-0.468-0.275c-0.109-0.177-0.101-0.393,0-0.56L95.364,2.569c0.101-0.169,0.285-0.277,0.477-0.277h51.712
					c0.2,0,0.384,0.117,0.484,0.284c0.092,0.176,0.092,0.386-0.007,0.562L93.265,94.812C93.155,94.978,92.972,95.078,92.788,95.078z
					 M41.795,93.975h50.674l54.105-90.562H96.15L41.795,93.975z"/>
				<path fill="#1E120D" stroke="#FFFFFF" stroke-width="3.6263" stroke-miterlimit="10" d="M134.716,204.666L134.716,204.666
					c-0.185,0-0.37-0.1-0.478-0.267l-26.111-43.817c-0.118-0.184-0.118-0.402,0-0.578l22.749-38.054
					c0.093-0.165,0.268-0.267,0.46-0.267l0,0c0.193,0,0.386,0.102,0.477,0.267l26.094,43.801c0.101,0.176,0.101,0.394,0,0.584
					l-22.716,38.064C135.09,204.566,134.916,204.666,134.716,204.666z M109.239,160.297l25.477,42.746l22.078-37.001l-25.458-42.729
					L109.239,160.297z"/>
			</g>
		</g>
		<g>
			
				<rect x="299.201" y="2.854" fill="#1E120D" stroke="#FFFFFF" stroke-width="3.6263" stroke-miterlimit="10" width="3.313" height="201.26"/>
		</g>
	</g>
	<g>
		<g>
			<path fill="#FFFFFF" d="M376.363,63.705h-7.678V69h7.393v3.128h-7.393v10.471h-3.328V60.578h11.006V63.705z"/>
			<path fill="#FFFFFF" d="M408.414,77.256h-9.436l-2.459,5.343h-3.564l10.893-23.394l10.504,23.394h-3.631L408.414,77.256z
				 M407.051,74.135l-3.254-7.485l-3.43,7.485H407.051z"/>
			<path fill="#FFFFFF" d="M448.641,61.758v3.939c-1.924-1.613-3.904-2.417-5.955-2.417c-2.273,0-4.172,0.818-5.719,2.442
				c-1.566,1.622-2.344,3.588-2.344,5.931c0,2.315,0.777,4.256,2.344,5.846c1.555,1.596,3.463,2.392,5.729,2.392
				c1.17,0,2.174-0.203,2.986-0.585c0.451-0.176,0.926-0.444,1.412-0.761c0.494-0.319,1.004-0.712,1.547-1.172v4.015
				c-1.896,1.087-3.898,1.622-5.988,1.622c-3.145,0-5.836-1.104-8.061-3.288c-2.209-2.222-3.313-4.891-3.313-8.02
				c0-2.81,0.918-5.311,2.775-7.502c2.283-2.693,5.236-4.047,8.857-4.047C444.893,60.153,446.803,60.696,448.641,61.758z"/>
			<path fill="#FFFFFF" d="M471.424,60.578v13.257c0,1.896,0.309,3.279,0.928,4.157c0.92,1.262,2.217,1.899,3.898,1.899
				s2.984-0.637,3.904-1.899c0.621-0.846,0.928-2.233,0.928-4.157V60.578h3.322v14.185c0,2.317-0.719,4.231-2.166,5.738
				c-1.631,1.664-3.621,2.508-5.988,2.508s-4.365-0.844-5.98-2.508c-1.447-1.506-2.168-3.421-2.168-5.738V60.578H471.424z"/>
			<path fill="#FFFFFF" d="M508.258,60.578v18.911h6.49v3.11h-9.803V60.578H508.258z"/>
			<path fill="#FFFFFF" d="M539.236,63.705v18.894h-3.32V63.705h-5.061v-3.127h13.424v3.127H539.236z"/>
			<path fill="#FFFFFF" d="M575.441,77.256h-9.416l-2.451,5.343h-3.58l10.891-23.394l10.502,23.394h-3.629L575.441,77.256z
				 M574.096,74.135l-3.271-7.485l-3.42,7.485H574.096z"/>
			<path fill="#FFFFFF" d="M599.418,82.599V60.578h4.619c2.207,0,3.963,0.234,5.252,0.66c1.371,0.436,2.617,1.156,3.746,2.192
				c2.275,2.066,3.412,4.793,3.412,8.164c0,3.387-1.188,6.121-3.561,8.212c-1.18,1.046-2.436,1.79-3.732,2.192
				c-1.221,0.4-2.943,0.601-5.176,0.601H599.418z M602.73,79.489h1.508c1.48,0,2.727-0.161,3.721-0.478
				c0.979-0.334,1.881-0.861,2.676-1.588c1.641-1.489,2.461-3.421,2.461-5.83c0-2.408-0.813-4.375-2.426-5.872
				c-1.463-1.347-3.605-2.017-6.432-2.017h-1.508V79.489z"/>
			<path fill="#FFFFFF" d="M660.166,82.599V60.578h4.623c2.209,0,3.955,0.234,5.244,0.66c1.381,0.436,2.627,1.156,3.754,2.192
				c2.258,2.066,3.406,4.793,3.406,8.164c0,3.387-1.188,6.121-3.547,8.212c-1.195,1.046-2.434,1.79-3.738,2.192
				c-1.221,0.4-2.953,0.601-5.186,0.601H660.166z M663.486,79.489h1.496c1.496,0,2.734-0.161,3.723-0.478
				c1.002-0.334,1.889-0.861,2.676-1.588c1.639-1.489,2.459-3.421,2.459-5.83c0-2.408-0.811-4.375-2.426-5.872
				c-1.455-1.347-3.598-2.017-6.432-2.017h-1.496V79.489z"/>
			<path fill="#FFFFFF" d="M708.779,63.705h-8.828V69h8.572v3.128h-8.572v7.36h8.828v3.11h-12.143V60.578h12.143V63.705z"/>
			<path fill="#FFFFFF" d="M387.094,116.816h-14.762l-3.83,8.362h-5.604l17.053-36.623l16.451,36.623h-5.688L387.094,116.816z
				 M384.979,111.923l-5.119-11.709l-5.354,11.709H384.979z"/>
			<path fill="#FFFFFF" d="M412.377,110.492l10.656,14.687h-6.35l-9.844-14.101h-0.936v14.101h-5.203V90.72h6.105
				c4.533,0,7.828,0.854,9.859,2.567c2.227,1.9,3.348,4.417,3.348,7.545c0,2.44-0.705,4.54-2.092,6.289
				C416.516,108.878,414.668,110.007,412.377,110.492z M405.904,106.553h1.646c4.936,0,7.387-1.891,7.387-5.654
				c0-3.529-2.385-5.294-7.178-5.294h-1.855V106.553z"/>
			<path fill="#FFFFFF" d="M463.277,125.797h-6.541l-2.693-2.768c-2.877,1.848-6.07,2.768-9.6,2.768
				c-4.559,0-8.615-1.539-12.152-4.641c-3.855-3.404-5.787-7.754-5.787-13.048c0-5.193,1.822-9.527,5.469-12.998
				c3.539-3.345,7.719-5.042,12.545-5.042c4.373,0,8.289,1.48,11.75,4.423c4.166,3.546,6.266,8.164,6.266,13.858
				c0,4.459-1.664,8.432-4.943,11.887L463.277,125.797z M448.967,111.53l5.01,4.967c2.209-2.292,3.305-5.11,3.305-8.489
				c0-3.704-1.229-6.798-3.688-9.299c-2.453-2.501-5.504-3.749-9.15-3.749c-3.697,0-6.715,1.248-9.1,3.749
				c-2.393,2.484-3.596,5.619-3.596,9.426c0,3.729,1.236,6.757,3.705,9.125c2.574,2.44,5.518,3.653,8.814,3.653
				c2.25,0,4.283-0.511,6.096-1.547l-8.094-7.836H448.967z"/>
			<path fill="#FFFFFF" d="M474.266,90.72v20.742c0,2.952,0.479,5.118,1.439,6.489c1.455,1.975,3.48,2.961,6.09,2.961
				c2.625,0,4.684-0.986,6.121-2.961c0.971-1.328,1.457-3.479,1.457-6.489V90.72h5.201v22.188c0,3.63-1.129,6.616-3.396,8.965
				c-2.541,2.619-5.67,3.924-9.383,3.924c-3.695,0-6.816-1.305-9.342-3.924c-2.26-2.349-3.389-5.335-3.389-8.965V90.72H474.266z"/>
			<path fill="#FFFFFF" d="M508.031,90.72v34.458h-5.203V90.72H508.031z"/>
			<path fill="#FFFFFF" d="M525.805,95.604v29.574h-5.203V95.604h-7.912V90.72h21.02v4.884H525.805z"/>
			<path fill="#FFFFFF" d="M557.377,95.604h-13.816v8.28h13.406v4.884h-13.406v11.527h13.816v4.883h-19.021V90.72h19.021V95.604z"/>
			<path fill="#FFFFFF" d="M589.66,92.569v6.14c-3.002-2.51-6.115-3.764-9.326-3.764c-3.537,0-6.523,1.263-8.957,3.804
				c-2.449,2.543-3.664,5.63-3.664,9.292c0,3.613,1.215,6.666,3.664,9.142c2.449,2.491,5.438,3.729,8.973,3.729
				c1.842,0,3.389-0.293,4.668-0.885c0.721-0.294,1.455-0.702,2.225-1.214c0.762-0.502,1.574-1.112,2.418-1.823v6.28
				c-2.969,1.681-6.098,2.526-9.377,2.526c-4.918,0-9.113-1.714-12.611-5.144c-3.455-3.471-5.193-7.661-5.193-12.545
				c0-4.392,1.447-8.305,4.357-11.744c3.564-4.213,8.188-6.313,13.85-6.313C583.779,90.052,586.773,90.896,589.66,92.569z"/>
			<path fill="#FFFFFF" d="M605.727,95.604v29.574h-5.195V95.604h-7.918V90.72h21.025v4.884H605.727z"/>
			<path fill="#FFFFFF" d="M623.475,90.72v20.742c0,2.952,0.475,5.118,1.445,6.489c1.447,1.975,3.471,2.961,6.082,2.961
				c2.65,0,4.682-0.986,6.129-2.961c0.971-1.328,1.449-3.479,1.449-6.489V90.72h5.201v22.188c0,3.63-1.129,6.616-3.396,8.965
				c-2.541,2.619-5.67,3.924-9.383,3.924c-3.697,0-6.809-1.305-9.344-3.924c-2.258-2.349-3.389-5.335-3.389-8.965V90.72H623.475z"/>
			<path fill="#FFFFFF" d="M663.703,110.492l10.672,14.687h-6.355l-9.854-14.101h-0.928v14.101h-5.203V90.72h6.088
				c4.561,0,7.846,0.854,9.877,2.567c2.227,1.9,3.348,4.417,3.348,7.545c0,2.44-0.703,4.54-2.107,6.289
				C667.834,108.878,666.002,110.007,663.703,110.492z M657.238,106.553h1.646c4.928,0,7.393-1.891,7.393-5.654
				c0-3.529-2.406-5.294-7.193-5.294h-1.846V106.553z"/>
			<path fill="#FFFFFF" d="M699.783,116.816h-14.736l-3.84,8.362h-5.611l17.061-36.623l16.443,36.623h-5.686L699.783,116.816z
				 M697.676,111.923l-5.111-11.709l-5.354,11.709H697.676z"/>
		</g>
		<g>
			<g>
				<path fill="#FFFFFF" d="M365.75,134.471v6.882c0,0.988,0.158,1.706,0.492,2.159c0.471,0.659,1.141,0.979,2.008,0.979
					c0.879,0,1.559-0.319,2.041-0.979c0.326-0.444,0.484-1.164,0.484-2.159v-6.882h1.709v7.368c0,1.203-0.354,2.199-1.113,2.969
					c-0.836,0.868-1.883,1.313-3.121,1.313c-1.221,0-2.258-0.444-3.094-1.313c-0.762-0.77-1.121-1.766-1.121-2.969v-7.368H365.75z"
					/>
				<path fill="#FFFFFF" d="M375.15,145.912v-12.219l8.348,8.739v-7.961h1.73v12.135l-8.346-8.707v8.013H375.15z"/>
				<path fill="#FFFFFF" d="M389.604,134.471v11.44h-1.732v-11.44H389.604z"/>
				<path fill="#FFFFFF" d="M392.832,134.471L396,142.4l3.211-7.929h1.875l-5.127,12.295l-5.018-12.295H392.832z"/>
				<path fill="#FFFFFF" d="M408.746,136.094h-4.59v2.743h4.441v1.629h-4.441v3.815h4.59v1.63h-6.322v-11.44h6.322V136.094z"/>
				<path fill="#FFFFFF" d="M414.803,141.036l3.529,4.876h-2.107l-3.262-4.692h-0.318v4.692h-1.723v-11.44h2.016
					c1.514,0,2.609,0.283,3.277,0.852c0.746,0.637,1.113,1.474,1.113,2.501c0,0.803-0.227,1.507-0.693,2.092
					C416.166,140.509,415.547,140.869,414.803,141.036z M412.645,139.714h0.553c1.629,0,2.441-0.618,2.441-1.873
					c0-1.163-0.795-1.747-2.375-1.747h-0.619V139.714z"/>
				<path fill="#FFFFFF" d="M426.438,136.168l-1.406,0.827c-0.25-0.451-0.51-0.751-0.754-0.887c-0.24-0.167-0.559-0.233-0.953-0.233
					c-0.479,0-0.877,0.134-1.188,0.401c-0.318,0.268-0.477,0.603-0.477,1.003c0,0.562,0.418,1.014,1.238,1.347l1.154,0.478
					c0.928,0.369,1.604,0.828,2.031,1.371c0.436,0.535,0.645,1.204,0.645,1.99c0,1.055-0.344,1.924-1.045,2.619
					c-0.711,0.686-1.598,1.036-2.627,1.036c-0.994,0-1.83-0.3-2.475-0.895c-0.635-0.585-1.029-1.414-1.188-2.484l1.748-0.376
					c0.084,0.669,0.217,1.138,0.416,1.389c0.354,0.493,0.871,0.736,1.557,0.736c0.543,0,0.979-0.176,1.338-0.537
					c0.359-0.358,0.535-0.818,0.535-1.37c0-0.218-0.031-0.436-0.092-0.611c-0.066-0.184-0.16-0.359-0.293-0.51
					c-0.133-0.158-0.293-0.3-0.51-0.435c-0.201-0.135-0.451-0.268-0.736-0.394l-1.104-0.46c-1.563-0.661-2.35-1.631-2.35-2.901
					c0-0.862,0.326-1.573,0.986-2.157c0.654-0.571,1.482-0.871,2.459-0.871C424.662,134.245,425.693,134.88,426.438,136.168z"/>
				<path fill="#FFFFFF" d="M430.441,134.471v11.44h-1.721v-11.44H430.441z"/>
				<path fill="#FFFFFF" d="M433.104,145.912v-11.44h2.398c1.154,0,2.066,0.106,2.734,0.333c0.721,0.227,1.355,0.611,1.941,1.138
					c1.188,1.079,1.771,2.484,1.771,4.25c0,1.756-0.619,3.179-1.838,4.265c-0.619,0.552-1.271,0.92-1.959,1.138
					c-0.617,0.209-1.512,0.317-2.691,0.317H433.104z M434.826,144.282h0.785c0.777,0,1.422-0.076,1.932-0.243
					c0.51-0.176,0.979-0.443,1.396-0.819c0.846-0.769,1.271-1.791,1.271-3.027c0-1.264-0.418-2.274-1.254-3.062
					c-0.754-0.694-1.875-1.036-3.346-1.036h-0.785V144.282z"/>
				<path fill="#FFFFFF" d="M450.188,143.135h-4.893l-1.279,2.776h-1.848l5.654-12.161l5.469,12.161H451.4L450.188,143.135z
					 M449.494,141.504l-1.697-3.89l-1.781,3.89H449.494z"/>
				<path fill="#FFFFFF" d="M454.621,145.912v-11.44h2.4c1.154,0,2.057,0.106,2.734,0.333c0.711,0.227,1.355,0.611,1.941,1.138
					c1.188,1.079,1.771,2.484,1.771,4.25c0,1.756-0.611,3.179-1.84,4.265c-0.627,0.552-1.27,0.92-1.939,1.138
					c-0.645,0.209-1.531,0.317-2.701,0.317H454.621z M456.354,144.282h0.768c0.777,0,1.432-0.076,1.939-0.243
					c0.521-0.176,0.98-0.443,1.389-0.819c0.855-0.769,1.273-1.791,1.273-3.027c0-1.264-0.412-2.274-1.256-3.062
					c-0.752-0.694-1.863-1.036-3.346-1.036h-0.768V144.282z"/>
				<path fill="#FFFFFF" d="M470.137,145.912v-11.44h2.408c1.154,0,2.064,0.106,2.729,0.333c0.717,0.227,1.361,0.611,1.955,1.138
					c1.17,1.079,1.764,2.484,1.764,4.25c0,1.756-0.609,3.179-1.846,4.265c-0.621,0.552-1.273,0.92-1.943,1.138
					c-0.635,0.209-1.529,0.317-2.693,0.317H470.137z M471.875,144.282h0.777c0.77,0,1.414-0.076,1.934-0.243
					c0.512-0.176,0.969-0.443,1.389-0.819c0.859-0.769,1.277-1.791,1.277-3.027c0-1.264-0.418-2.274-1.262-3.062
					c-0.752-0.694-1.867-1.036-3.338-1.036h-0.777V144.282z"/>
				<path fill="#FFFFFF" d="M487.381,136.094h-4.574v2.743h4.441v1.629h-4.441v3.815h4.574v1.63h-6.307v-11.44h6.307V136.094z"/>
				<path fill="#FFFFFF" d="M500.621,136.168l-1.395,0.827c-0.262-0.451-0.512-0.751-0.756-0.887
					c-0.24-0.167-0.559-0.233-0.953-0.233c-0.477,0-0.869,0.134-1.188,0.401c-0.326,0.268-0.469,0.603-0.469,1.003
					c0,0.562,0.402,1.014,1.238,1.347l1.139,0.478c0.928,0.369,1.605,0.828,2.041,1.371c0.418,0.535,0.635,1.204,0.635,1.99
					c0,1.055-0.344,1.924-1.047,2.619c-0.709,0.686-1.58,1.036-2.633,1.036c-0.988,0-1.809-0.3-2.459-0.895
					c-0.627-0.585-1.035-1.414-1.197-2.484l1.758-0.376c0.074,0.669,0.209,1.138,0.418,1.389c0.359,0.493,0.879,0.736,1.557,0.736
					c0.525,0,0.977-0.176,1.336-0.537c0.359-0.358,0.527-0.818,0.527-1.37c0-0.218-0.023-0.436-0.092-0.611
					c-0.049-0.184-0.158-0.359-0.285-0.51c-0.133-0.158-0.291-0.3-0.51-0.435c-0.201-0.135-0.451-0.268-0.736-0.394l-1.104-0.46
					c-1.572-0.661-2.35-1.631-2.35-2.901c0-0.862,0.326-1.573,0.98-2.157c0.658-0.571,1.471-0.871,2.457-0.871
					C498.855,134.245,499.885,134.88,500.621,136.168z"/>
				<path fill="#FFFFFF" d="M509.512,143.135h-4.885l-1.287,2.776h-1.855l5.65-12.161l5.471,12.161h-1.891L509.512,143.135z
					 M508.809,141.504l-1.697-3.89l-1.781,3.89H508.809z"/>
				<path fill="#FFFFFF" d="M513.943,145.912v-12.219l8.34,8.739v-7.961h1.73v12.135l-8.338-8.707v8.013H513.943z"/>
				<path fill="#FFFFFF" d="M539.711,135.083v2.048c-0.994-0.837-2.031-1.255-3.102-1.255c-1.17,0-2.156,0.418-2.971,1.255
					c-0.811,0.854-1.211,1.874-1.211,3.087c0,1.204,0.4,2.215,1.211,3.043c0.814,0.82,1.809,1.23,2.988,1.23
					c0.602,0,1.121-0.102,1.545-0.291c0.236-0.104,0.479-0.227,0.746-0.412c0.25-0.151,0.51-0.36,0.793-0.593v2.081
					c-0.986,0.562-2.031,0.845-3.119,0.845c-1.637,0-3.02-0.577-4.172-1.715c-1.164-1.146-1.732-2.542-1.732-4.163
					c0-1.456,0.486-2.761,1.439-3.907c1.188-1.388,2.727-2.091,4.617-2.091C537.764,134.245,538.75,134.53,539.711,135.083z"/>
				<path fill="#FFFFFF" d="M548.805,143.135h-4.91l-1.264,2.776h-1.865l5.664-12.161l5.461,12.161h-1.9L548.805,143.135z
					 M548.084,141.504l-1.689-3.89l-1.781,3.89H548.084z"/>
				<path fill="#FFFFFF" d="M557.1,141.036l3.549,4.876h-2.109l-3.271-4.692h-0.316v4.692h-1.73v-11.44h2.023
					c1.514,0,2.607,0.283,3.287,0.852c0.729,0.637,1.104,1.474,1.104,2.501c0,0.803-0.227,1.507-0.695,2.092
					C558.473,140.509,557.861,140.869,557.1,141.036z M554.951,139.714h0.543c1.641,0,2.461-0.618,2.461-1.873
					c0-1.163-0.797-1.747-2.395-1.747h-0.609V139.714z"/>
				<path fill="#FFFFFF" d="M564.002,134.471v9.811h3.352v1.63h-5.086v-11.44H564.002z"/>
				<path fill="#FFFFFF" d="M567.873,140.133c0-1.605,0.586-2.986,1.766-4.148c1.178-1.154,2.584-1.731,4.238-1.731
					c1.631,0,3.037,0.577,4.199,1.756c1.18,1.155,1.756,2.56,1.756,4.198c0,1.632-0.592,3.036-1.773,4.182
					c-1.17,1.154-2.6,1.731-4.266,1.731c-1.479,0-2.809-0.518-3.979-1.539C568.516,143.444,567.873,141.972,567.873,140.133z
					 M569.604,140.158c0,1.264,0.426,2.299,1.281,3.11c0.844,0.82,1.822,1.223,2.926,1.223c1.195,0,2.209-0.41,3.045-1.238
					c0.818-0.845,1.238-1.866,1.238-3.078c0-1.204-0.41-2.232-1.223-3.044c-0.818-0.837-1.822-1.255-3.02-1.255
					c-1.178,0-2.189,0.418-3.01,1.255C570.023,137.942,569.604,138.953,569.604,140.158z"/>
				<path fill="#FFFFFF" d="M588.381,136.168l-1.408,0.827c-0.248-0.451-0.5-0.751-0.734-0.887c-0.25-0.167-0.568-0.233-0.963-0.233
					c-0.475,0-0.877,0.134-1.195,0.401c-0.316,0.268-0.467,0.603-0.467,1.003c0,0.562,0.41,1.014,1.236,1.347l1.139,0.478
					c0.92,0.369,1.613,0.828,2.041,1.371c0.434,0.535,0.652,1.204,0.652,1.99c0,1.055-0.354,1.924-1.055,2.619
					c-0.719,0.686-1.59,1.036-2.643,1.036c-0.986,0-1.807-0.3-2.451-0.895c-0.627-0.585-1.037-1.414-1.186-2.484l1.738-0.376
					c0.082,0.669,0.227,1.138,0.418,1.389c0.359,0.493,0.879,0.736,1.549,0.736c0.551,0,0.994-0.176,1.344-0.537
					c0.361-0.358,0.547-0.818,0.547-1.37c0-0.218-0.035-0.436-0.104-0.611c-0.066-0.184-0.148-0.359-0.281-0.51
					c-0.127-0.158-0.303-0.3-0.512-0.435s-0.453-0.268-0.744-0.394l-1.105-0.46c-1.555-0.661-2.35-1.631-2.35-2.901
					c0-0.862,0.336-1.573,0.994-2.157c0.654-0.571,1.473-0.871,2.453-0.871C586.617,134.245,587.635,134.88,588.381,136.168z"/>
				<path fill="#FFFFFF" d="M595.264,145.912v-11.44h2.398c1.146,0,2.064,0.106,2.727,0.333c0.721,0.227,1.355,0.611,1.959,1.138
					c1.172,1.079,1.754,2.484,1.754,4.25c0,1.756-0.607,3.179-1.838,4.265c-0.619,0.552-1.271,0.92-1.939,1.138
					c-0.637,0.209-1.523,0.317-2.693,0.317H595.264z M596.994,144.282h0.77c0.777,0,1.422-0.076,1.939-0.243
					c0.512-0.176,0.98-0.443,1.396-0.819c0.846-0.769,1.273-1.791,1.273-3.027c0-1.264-0.428-2.274-1.264-3.062
					c-0.762-0.694-1.865-1.036-3.346-1.036h-0.77V144.282z"/>
				<path fill="#FFFFFF" d="M612.51,136.094h-4.592v2.743h4.447v1.629h-4.447v3.815h4.592v1.63h-6.332v-11.44h6.332V136.094z"/>
				<path fill="#FFFFFF" d="M625.154,139.949h4.725v0.385c0,0.853-0.1,1.614-0.301,2.275c-0.199,0.619-0.518,1.179-1.002,1.724
					c-1.055,1.202-2.408,1.797-4.049,1.797c-1.607,0-2.977-0.586-4.115-1.74c-1.137-1.154-1.713-2.55-1.713-4.172
					c0-1.666,0.576-3.07,1.738-4.232c1.172-1.163,2.586-1.74,4.25-1.74c0.893,0,1.713,0.184,2.5,0.544
					c0.734,0.358,1.471,0.962,2.182,1.782l-1.229,1.178c-0.936-1.254-2.082-1.873-3.43-1.873c-1.203,0-2.225,0.418-3.053,1.255
					c-0.811,0.812-1.221,1.84-1.221,3.077c0,1.272,0.459,2.325,1.373,3.137c0.859,0.771,1.764,1.164,2.768,1.164
					c0.854,0,1.623-0.294,2.309-0.863c0.668-0.577,1.045-1.271,1.121-2.065h-2.854V139.949z"/>
				<path fill="#FFFFFF" d="M633.695,134.471v6.882c0,0.988,0.148,1.706,0.484,2.159c0.479,0.659,1.154,0.979,2.016,0.979
					c0.877,0,1.547-0.319,2.033-0.979c0.316-0.444,0.484-1.164,0.484-2.159v-6.882h1.723v7.368c0,1.203-0.377,2.199-1.121,2.969
					c-0.846,0.868-1.891,1.313-3.119,1.313c-1.238,0-2.268-0.444-3.105-1.313c-0.75-0.77-1.127-1.766-1.127-2.969v-7.368H633.695z"
					/>
				<path fill="#FFFFFF" d="M649.318,143.135h-4.902l-1.27,2.776h-1.859l5.662-12.161l5.453,12.161h-1.881L649.318,143.135z
					 M648.613,141.504l-1.688-3.89l-1.789,3.89H648.613z"/>
				<path fill="#FFFFFF" d="M656.275,136.094v9.817h-1.74v-9.817h-2.625v-1.623h6.975v1.623H656.275z"/>
				<path fill="#FFFFFF" d="M666.654,136.094h-4.592v2.743h4.457v1.629h-4.457v3.815h4.592v1.63h-6.314v-11.44h6.314V136.094z"/>
				<path fill="#FFFFFF" d="M668.428,145.912l2.402-12.303l3.93,8.89l4.064-8.89l2.174,12.303h-1.771l-1.105-6.907l-3.387,7.434
					l-3.287-7.442l-1.229,6.916H668.428z"/>
				<path fill="#FFFFFF" d="M690.047,143.135h-4.893l-1.279,2.776h-1.855l5.652-12.161l5.461,12.161h-1.881L690.047,143.135z
					 M689.346,141.504l-1.689-3.89l-1.789,3.89H689.346z"/>
				<path fill="#FFFFFF" d="M696.203,134.471v9.811h3.363v1.63h-5.088v-11.44H696.203z"/>
				<path fill="#FFFFFF" d="M708.48,143.135h-4.902l-1.277,2.776h-1.857l5.662-12.161l5.471,12.161h-1.9L708.48,143.135z
					 M707.77,141.504l-1.697-3.89l-1.773,3.89H707.77z"/>
			</g>
		</g>
	</g>
</g>
</svg>
