<?xml version="1.0" encoding="utf-8"?>
<!-- Generator: Adobe Illustrator 15.0.2, SVG Export Plug-In . SVG Version: 6.00 Build 0)  -->
<!DOCTYPE svg PUBLIC "-//W3C//DTD SVG 1.1//EN" "http://www.w3.org/Graphics/SVG/1.1/DTD/svg11.dtd">
<svg version="1.1" id="Layer_2" xmlns="http://www.w3.org/2000/svg" xmlns:xlink="http://www.w3.org/1999/xlink" x="0px" y="0px"
	 width="720px" height="720px" viewBox="0 0 720 720" enable-background="new 0 0 720 720" xml:space="preserve">
<g>
	<path fill="#FFFFFF" d="M359.325,1C160.572,1-0.554,161.774-0.554,360.092c0,198.317,161.126,359.09,359.879,359.09
		c198.754,0,359.881-160.773,359.881-359.09C719.206,161.775,558.079,1,359.325,1 M358.255,705.46
		c-190.776,0-345.437-154.319-345.437-344.681c0-190.359,154.661-344.68,345.437-344.68c190.776,0,345.437,154.322,345.437,344.68
		C703.691,551.139,549.032,705.46,358.255,705.46"/>
	<polygon fill="#FFFFFF" points="222.602,390.986 222.602,404.434 207.121,404.434 207.121,445.742 220.633,445.742 
		220.633,459.207 207.121,459.207 207.121,545.609 193.636,545.609 193.636,390.986 	"/>
	<polygon fill="#FFFFFF" points="248.215,390.681 248.215,532.127 274.746,532.127 274.746,545.591 234.72,545.591 234.72,390.681 	
		"/>
	<path fill="#FFFFFF" d="M297.333,527.285c0.306,3.227,2.282,4.841,5.921,4.841c0.611,0,1.33-0.09,2.201-0.305
		c0.854-0.197,1.637-0.539,2.336-1.04c0.521-0.607,0.8-1.238,0.844-1.899c0.044-0.664,0.072-1.096,0.072-1.292V408.377
		c-0.107-1.004-0.368-1.812-0.836-2.421c-0.449-0.593-0.979-1.021-1.581-1.291c-0.611-0.254-1.195-0.395-1.751-0.432
		c-0.557-0.071-0.989-0.088-1.285-0.088c-0.305,0-0.782,0.018-1.428,0.088c-0.666,0.036-1.294,0.178-1.904,0.432
		c-0.611,0.269-1.168,0.698-1.672,1.291c-0.503,0.608-0.808,1.417-0.917,2.421V527.285L297.333,527.285z M303.253,545.591
		c-3.441,0-6.388-0.627-8.877-1.81c-2.469-1.22-4.464-2.726-5.974-4.536c-1.527-1.812-2.641-3.765-3.333-5.828
		c-0.709-2.061-1.124-3.999-1.212-5.826V408.378c0-1.812,0.341-3.73,1.05-5.758c0.711-2.007,1.824-3.925,3.342-5.735
		c1.5-1.831,3.495-3.3,5.994-4.466c2.461-1.164,5.472-1.737,9.011-1.737c3.431,0,6.389,0.574,8.868,1.737
		c2.48,1.166,4.447,2.636,5.92,4.466c1.466,1.811,2.516,3.729,3.172,5.735c0.666,2.026,0.98,3.945,0.98,5.758v119.213
		c0,0.287-0.009,0.896-0.063,1.828c-0.046,0.897-0.234,1.918-0.53,3.016c-0.305,1.11-0.782,2.383-1.446,3.782
		c-0.647,1.417-1.599,2.724-2.804,3.925c-1.115,1.326-2.848,2.546-5.229,3.713C309.75,545.018,306.786,545.591,303.253,545.591"/>
	<path fill="#FFFFFF" d="M359.344,408.683c0-0.701-0.251-1.508-0.754-2.422c-0.818-1.417-2.48-2.113-4.996-2.113h-5.767v79.425
		h5.767c3.738,0,5.661-1.289,5.75-3.943V408.683z M353.593,390.681c6.371,0,11.312,2.116,14.843,6.348
		c2.84,3.335,4.26,7.206,4.26,11.654v70.804c0.107,4.751-1.473,8.784-4.717,12.102c-1.807,1.81-3.929,3.173-6.354,4.088
		c1.923,1.505,3.629,2.976,5.154,4.376c3.947,3.945,5.914,9.538,5.914,16.799v28.74h-13.352v-32.988
		c-0.089-3.514-0.754-5.898-1.958-7.102c-2.427-2.295-5.625-4.785-9.56-7.403v47.494h-13.496V390.681H353.593z"/>
	<polygon fill="#FFFFFF" points="398.462,404.307 398.462,445.742 411.957,445.742 411.957,459.064 398.462,459.064 
		398.462,532.126 413.934,532.126 413.934,545.609 384.969,545.609 384.969,390.681 413.934,390.681 413.934,404.307 	"/>
	<path fill="#FFFFFF" d="M464.406,527.732c0,4.86-1.651,8.983-4.994,12.409c-3.54,3.638-8.283,5.449-14.249,5.449
		c-6.165,0-11.017-2.079-14.556-6.2c-2.93-3.317-4.454-7.155-4.547-11.513v-12.695h13.494v12.265
		c0.207,3.119,2.066,4.679,5.607,4.679c2.228,0,3.736-0.396,4.537-1.219c0.826-0.789,1.23-1.795,1.23-3.03v-0.146v-49.914
		c0-4.017-3.899-9.771-11.689-17.249c-8.778-8.48-13.181-15.688-13.181-21.642v-30.388c0-4.341,1.419-8.229,4.24-11.655
		c3.541-4.125,8.5-6.204,14.861-6.204c6.369,0,11.317,2.079,14.858,6.204c2.931,3.426,4.387,7.314,4.387,11.655v12.55h-13.478
		v-12.407c-0.109-3.03-2.032-4.535-5.769-4.535c-2.518,0-4.188,0.695-5.017,2.113c-0.386,0.808-0.593,1.562-0.593,2.278v30.389
		c0,2.135,3.02,6.133,9.094,11.959c10.512,10.095,15.759,19.078,15.759,26.93v49.917H464.406z"/>
	<path fill="#FFFFFF" d="M212.665,366.727c0,2.367-0.809,4.376-2.444,6.06c-1.708,1.74-4.024,2.637-6.927,2.637
		c-3.01,0-5.373-1.005-7.106-3.03c-1.41-1.595-2.157-3.478-2.21-5.575v-6.204h6.577v5.953c0.089,1.544,1.007,2.313,2.74,2.313
		c1.086,0,1.824-0.215,2.21-0.608c0.386-0.396,0.584-0.88,0.584-1.452v-0.091v-24.312c0-1.971-1.887-4.769-5.679-8.409
		c-4.276-4.122-6.433-7.637-6.433-10.521v-14.812c0-2.115,0.684-3.998,2.065-5.683c1.726-1.991,4.151-3.031,7.251-3.031
		c3.091,0,5.499,1.04,7.232,3.031c1.429,1.685,2.139,3.568,2.139,5.683v6.115h-6.577v-6.042c-0.054-1.472-0.97-2.224-2.794-2.224
		c-1.231,0-2.058,0.36-2.444,1.04c-0.207,0.394-0.296,0.753-0.296,1.112v14.812c0,1.021,1.473,2.975,4.438,5.806
		c5.104,4.913,7.673,9.29,7.673,13.125L212.665,366.727L212.665,366.727z"/>
	<polygon fill="#FFFFFF" points="218.557,299.975 218.557,375.423 232.663,375.423 232.663,368.86 225.152,368.86 225.152,333.271 
		231.729,333.271 231.729,326.799 225.152,326.799 225.152,306.592 232.663,306.592 232.663,299.975 	"/>
	<polygon fill="#FFFFFF" points="245.223,299.975 245.223,317.6 253.21,330.922 253.21,299.975 259.788,299.975 259.788,375.423 
		253.21,375.423 253.21,340.514 245.223,327.246 245.223,375.423 238.593,375.423 238.593,299.975 	"/>
	<path fill="#FFFFFF" d="M272.268,366.514c0.135,1.558,1.095,2.364,2.875,2.364c0.288,0,0.656-0.056,1.069-0.161
		c0.422-0.091,0.8-0.253,1.14-0.502c0.252-0.308,0.378-0.594,0.416-0.934c0.017-0.305,0.026-0.52,0.026-0.627v-58.04
		c-0.045-0.518-0.189-0.913-0.405-1.183c-0.216-0.323-0.466-0.502-0.772-0.628c-0.297-0.124-0.575-0.213-0.844-0.25
		c-0.279-0.018-0.476-0.036-0.629-0.036c-0.143,0-0.387,0.018-0.701,0.036c-0.323,0.037-0.647,0.126-0.934,0.25
		c-0.288,0.125-0.557,0.306-0.809,0.628c-0.251,0.27-0.396,0.665-0.431,1.183L272.268,366.514L272.268,366.514z M275.143,375.423
		c-1.671,0-3.118-0.287-4.331-0.877c-1.204-0.593-2.174-1.329-2.912-2.209c-0.735-0.896-1.275-1.847-1.626-2.831
		c-0.35-1.022-0.538-1.955-0.592-2.851v-58.04c0-0.913,0.17-1.828,0.511-2.832c0.352-0.969,0.89-1.918,1.627-2.796
		c0.746-0.86,1.716-1.614,2.928-2.171c1.213-0.556,2.669-0.842,4.394-0.842c1.652,0,3.108,0.287,4.331,0.842
		c1.185,0.557,2.146,1.311,2.866,2.171c0.72,0.877,1.23,1.827,1.545,2.796c0.333,1.005,0.495,1.919,0.495,2.832v58.04
		c0,0.162-0.018,0.432-0.055,0.896c-0.017,0.43-0.107,0.913-0.251,1.47c-0.143,0.539-0.377,1.147-0.709,1.849
		c-0.305,0.681-0.764,1.307-1.357,1.917c-0.54,0.646-1.394,1.237-2.534,1.793C278.304,375.136,276.848,375.423,275.143,375.423"/>
	<path fill="#FFFFFF" d="M302.456,308.725c0-0.322-0.108-0.734-0.37-1.165c-0.386-0.7-1.195-1.023-2.434-1.023h-2.804v38.673h2.804
		c1.832,0,2.758-0.644,2.804-1.917V308.725z M299.652,299.975c3.1,0,5.516,1.04,7.242,3.103c1.383,1.595,2.056,3.514,2.056,5.647
		v34.495c0.072,2.315-0.708,4.288-2.273,5.901c-0.88,0.879-1.922,1.542-3.108,1.99c0.934,0.737,1.779,1.453,2.516,2.132
		c1.904,1.921,2.865,4.627,2.865,8.196v13.985h-6.494v-16.048c-0.045-1.72-0.37-2.884-0.953-3.478
		c-1.187-1.129-2.731-2.33-4.655-3.621v23.147h-6.577v-75.448L299.652,299.975L299.652,299.975z"/>
	<path fill="#FFFFFF" d="M327.422,345.587v-39.051h-3.1c-0.745,0-1.276,0.162-1.617,0.501c-0.754,0.807-1.096,1.955-1.042,3.46
		v35.089H327.422z M334,299.975v75.448h-6.577V352.15h-5.759v23.201h-6.577v-64.636c-0.09-3.389,0.826-6.096,2.813-8.157
		c1.671-1.722,3.818-2.583,6.424-2.583L334,299.975L334,299.975z"/>
	<path fill="#FFFFFF" d="M428.38,210.023c0,7.297-5.695,13.213-12.722,13.213c-7.044,0-12.748-5.917-12.748-13.213
		c0-7.315,5.704-13.25,12.748-13.25C422.685,196.773,428.38,202.708,428.38,210.023"/>
	<path fill="#FFFFFF" d="M421.443,316.704c0,0,3.057-26.284,41.32-12.515C462.765,304.188,439.808,339.87,421.443,316.704"/>
	<path fill="#FFFFFF" d="M420.545,231.036h-12.721v137.286h129.843v32.022h-31.77l-30.744,162.922H436.54l-14.789,16.963
		c-0.35-0.09,65.856-0.09,65.856-0.09l27.859-163.856h35.104v-62.145H421.291l-0.96-0.95V230.749"/>
	<path fill="#FFFFFF" d="M412.567,188.812c0.719-0.072,1.464-0.144,2.199-0.144c0.738,0,1.484,0.072,2.222,0.144l16.478-40.27
		c4.275-10.578,7.195-39.193-19.228-40.108c-26.45-0.933-21.967,30.499-18.166,40.108L412.567,188.812z"/>
	<path fill="#FFFFFF" d="M430.85,196.792l40.699-17.032c10.532-4.483,32.856-22.627,14.825-41.975
		c-18.04-19.292-37.15,6.078-41.266,15.582l-17.025,40.449C429.108,194.712,430.024,195.717,430.85,196.792"/>
	<path fill="#FFFFFF" d="M476.356,191.358l-41.148,16.782c0.045,0.626,0.09,1.253,0.09,1.883c0,0.627-0.045,1.254-0.09,1.864
		l41.148,16.781c10.619,4.285,39.279,7.172,40.225-19.185C517.506,183.075,486.006,187.558,476.356,191.358"/>
	<path fill="#FFFFFF" d="M471.541,240.289l-40.69-17.053c-0.835,1.095-1.771,2.08-2.775,2.995l17.017,40.45
		c4.484,10.487,22.688,32.774,42.038,14.772C506.481,263.471,481.036,244.412,471.541,240.289"/>
	<polygon fill="#FFFFFF" points="237.219,289.845 238.854,292.751 248.888,287.084 251.873,293.594 262.06,287.998 260.471,285.095 
		253.383,288.985 250.416,282.422 	"/>
</g>
</svg>
