<?xml version="1.0" encoding="utf-8"?>
<!-- Generator: Adobe Illustrator 15.0.2, SVG Export Plug-In . SVG Version: 6.00 Build 0)  -->
<!DOCTYPE svg PUBLIC "-//W3C//DTD SVG 1.1//EN" "http://www.w3.org/Graphics/SVG/1.1/DTD/svg11.dtd">
<svg version="1.1" id="Layer_2" xmlns="http://www.w3.org/2000/svg" xmlns:xlink="http://www.w3.org/1999/xlink" x="0px" y="0px"
	 width="392px" height="659px" viewBox="0 0 392 659" enable-background="new 0 0 392 659" xml:space="preserve">
<g>
	<path fill="#FFFFFF" d="M18.749,580.018h27.815c4.697,0,6.953,3.689,6.953,7.564c0,3.688-2.256,7.371-6.953,7.371H18.749v45.195
		c0,7.566,0.376,14.939-7.142,14.939c-5.263,0-7.33-2.139-7.33-14.939V526.869c0-4.658,3.383-7.371,7.33-7.371h44.54
		c4.701,0,6.955,3.684,6.955,7.561c0,3.689-2.254,7.375-6.955,7.375H18.749V580.018z"/>
	<path fill="#FFFFFF" d="M129.311,598.055c0,0-0.188,0.197-0.373,0.391c6.953-5.434,7.328-19.787,7.328-28.711
		c0-11.059,0.375-20.17-4.887-29.48c-6.39-6.6-19.545-5.438-29.318-5.238v65.566C104.504,600.58,124.989,602.518,129.311,598.055
		 M151.863,645.971c0.188,0.584,0.377,1.355,0.377,1.936c0,4.076-3.573,7.568-7.329,7.568c-3.196,0-5.825-2.328-6.953-5.625
		c-4.14-11.445-8.269-23.086-12.218-34.721c-7.33,0.771-14.657,0.58-23.68,0.383v32.979c0,4.85-3.57,7.373-7.33,7.373
		c-3.57,0-7.143-2.523-7.143-7.373v-120.85c0-6.979,6.956-7.949,15.034-7.949c6.581,0,13.532,0,20.112,0.391
		c26.498,1.74,28.002,27.932,28.002,46.359c0,13.963-0.188,33.166-11.84,42.869C143.219,621.531,147.542,633.75,151.863,645.971"/>
	<path fill="#FFFFFF" d="M250.646,589.326c0,32.01,3.189,68.088-37.213,68.088c-28.004,0-37.025-20.758-37.025-39.768
		c0-29.289,0.939-60.322,0.939-90.391c0-4.854,3.568-7.178,7.332-7.178c3.572,0,7.329,2.324,7.329,7.178v79.336
		c0,14.549-1.505,36.467,21.61,36.467c19.359,0,21.801-13.967,21.801-25.801c0-29.291,0.566-59.936,0.566-90.002
		c0-4.854,3.57-7.178,7.329-7.178c3.569,0,7.331,2.324,7.331,7.178V589.326z"/>
	<path fill="#FFFFFF" d="M295.244,640.346h43.413c4.696,0,6.954,3.686,6.954,7.563c0,3.686-2.257,7.373-6.954,7.373h-54.878
		c-4.512,0-6.951-3.496-6.951-7.564c0-1.162,0.187-2.525,0.753-3.686c2.818-6.209,35.895-79.34,49.611-109.6h-43.413
		c-4.7,0-7.144-3.688-7.144-7.371c0-3.877,2.441-7.563,7.144-7.563h54.878c4.318,0,6.954,3.688,6.954,7.563
		c0,1.164-0.189,2.523-0.752,3.688C328.322,567.021,311.786,603.877,295.244,640.346"/>
	<path fill="#FFFFFF" d="M380.397,519.498c3.761,0,7.325,2.322,7.325,7.174V648.1c0,4.852-3.564,7.375-7.325,7.375
		c-3.574,0-7.145-2.523-7.145-7.375V526.672C373.255,521.822,376.823,519.498,380.397,519.498"/>
	<path fill="#FFFFFF" d="M289.616,162.633c-3.191,0-6.073-2.259-6.822-5.604c-9.824-43.704-51.587-56.863-52.007-56.992
		c-3.719-1.126-5.839-5.15-4.746-8.981c1.092-3.834,4.992-6.02,8.701-4.898c2.041,0.618,50.06,15.762,61.709,67.604
		c0.872,3.893-1.479,7.781-5.247,8.685C290.671,162.571,290.138,162.633,289.616,162.633"/>
	<path fill="#FFFFFF" d="M298.195,28.548c0.646-2.402,0.351-4.921-0.836-7.091c-1.189-2.172-3.123-3.738-5.456-4.407
		c-0.795-0.228-1.615-0.346-2.433-0.346c-4.041,0-7.622,2.813-8.707,6.838l-14.181,52.58c5.536,3.362,10.786,7.176,15.709,11.395
		L298.195,28.548z"/>
	<path fill="#FFFFFF" d="M312.245,204.951v47.83c0,0.184-0.039,0.355-0.052,0.532c-0.027,0.39-0.063,0.771-0.15,1.139
		c-0.754,3.31-3.685,5.793-7.191,5.793c-4.075,0-7.395-3.35-7.395-7.463v-5.239v-32.67c0-11.577-9.201-20.99-20.499-20.99
		c-11.312,0-20.51,9.414-20.51,20.99v51.133c0,4.114-3.317,7.463-7.396,7.463s-7.39-3.35-7.39-7.463v-13.985
		c0-0.879-0.174-1.735-0.491-2.535c-1.938-9.667-10.256-16.756-20.016-16.756c0,0-16.351-2.501-19.958,14.028
		c-2.232,10.233,0,41.969,0,41.969c0,12.319-9.676,22.313-21.616,22.313c-11.935,0-21.615-9.991-21.615-22.313v-45.494v-22.309
		v-20.698c0-9.485-6.184-17.512-14.637-20.104c-1.86-0.57-3.827-0.886-5.866-0.886c-11.309,0-20.504,9.417-20.504,20.99v9.178v4.449
		c-0.098,0.263-0.18,0.527-0.245,0.804c-0.325,1.361-1.006,2.544-1.917,3.485c-1.349,1.39-3.201,2.239-5.236,2.239
		c-4.076,0-7.39-3.347-7.39-7.46l0.011-8.009l0.016-16.249l0.088-0.703c0.029-0.351,0.041-0.706,0.027-1.054
		c-0.096-1.859-0.142-3.729-0.142-5.615c0-3.912,0.211-7.771,0.609-11.576c5.614-54.258,50.222-96.662,104.259-96.662
		c15.068,0,29.421,3.363,42.419,9.362c4.646,2.138,9.107,4.619,13.366,7.407c5.52,3.611,10.691,7.731,15.463,12.309
		c4.268,4.096,8.214,8.544,11.775,13.313c11.496,15.384,19.087,34.011,21.2,54.271c0.351,3.378,0.569,6.802,0.608,10.262
		c0.003,0.26,0.018,0.523,0.054,0.785c0.188,1.529,0.315,2.825,0.315,3.725v20.464H312.245z M281.548,369.211l-0.072,1.061
		c0,27.779-21.897,50.383-48.813,50.383h-50.909c-26.919,0-48.816-22.604-48.816-50.383l-17.865-137.157
		c5.877-1.679,10.764-5.956,13.232-11.76c1.113-1.226,1.764-2.863,1.764-4.615v-16.513c0-4.114,3.32-7.46,7.396-7.46
		c4.074,0,7.396,3.347,7.396,7.46v52.555c0,0.331,0.029,0.651,0.047,0.977c-0.01,0.401-0.047,0.797-0.047,1.203v26.309
		c0,23.979,15.424,43.415,34.453,43.415c18.084,0,32.895-17.578,34.31-39.919c0.084-0.778,0.142-1.565,0.142-2.366v-1.129v-26.309
		v-1.237c0-4.118,3.316-7.464,7.396-7.464c3.712,0,6.842,2.838,7.276,6.604c0.023,0.231,0.069,0.468,0.117,0.696v12.446
		c0,11.577,9.195,20.993,20.501,20.993c11.312,0,20.503-9.417,20.503-20.993v-51.133c0-4.117,3.32-7.463,7.401-7.463
		c4.074,0,7.388,3.346,7.388,7.463v37.909c0,7.668,4.052,14.37,10.065,18.034L281.548,369.211z M280.664,23.702
		c1.084-4.025,4.665-6.835,8.704-6.835c0.815,0,1.633,0.117,2.436,0.345c2.328,0.668,4.266,2.234,5.45,4.407
		c1.192,2.168,1.485,4.69,0.836,7.092L282.19,87.677c-4.917-4.219-10.171-8.033-15.706-11.396L280.664,23.702z M324.977,179.427
		c-0.046-3.271-0.244-6.505-0.543-9.711c-2.479-26.79-13.463-51.112-30.11-70.05l18.031-66.857
		c1.711-6.334,0.926-12.977-2.205-18.701c-3.137-5.728-8.237-9.852-14.373-11.614c-2.097-0.601-4.247-0.908-6.406-0.908
		c-10.658,0-20.105,7.411-22.967,18.019l-13.389,49.64c-14.159-6.25-29.698-9.721-45.973-9.721
		c-61.272,0-111.765,48.462-117.428,110.193c-0.353,3.813-0.55,7.671-0.55,11.576c0,1.91,0.045,3.806,0.127,5.693
		c-0.072,0.58-0.127,1.163-0.127,1.771v24.166c0,7.776,4.166,14.568,10.324,18.194l18.197,139.703
		c0.287,36.271,28.962,65.688,64.169,65.688h50.909c35.207,0,63.878-29.416,64.163-65.688l12.769-97.636
		c9.021-2.2,15.761-10.5,15.761-20.401V184.49C325.354,183.188,325.23,181.531,324.977,179.427"/>
</g>
</svg>
