<?xml version="1.0" encoding="utf-8"?>
<!-- Generator: Adobe Illustrator 15.0.2, SVG Export Plug-In . SVG Version: 6.00 Build 0)  -->
<!DOCTYPE svg PUBLIC "-//W3C//DTD SVG 1.1//EN" "http://www.w3.org/Graphics/SVG/1.1/DTD/svg11.dtd">
<svg version="1.1" id="Layer_3" xmlns="http://www.w3.org/2000/svg" xmlns:xlink="http://www.w3.org/1999/xlink" x="0px" y="0px"
	 width="239.115px" height="162.667px" viewBox="0 0 239.115 162.667" enable-background="new 0 0 239.115 162.667"
	 xml:space="preserve">
<g>
	<g>
		<path fill="#FFFFFF" d="M235.237,66.053c0-1.095-0.414-2.077-1.196-2.839c-0.769-0.747-1.731-1.142-2.785-1.142
			c-1.045,0-1.996,0.401-2.758,1.161c-0.758,0.759-1.16,1.734-1.16,2.82v0.643c0,0.521,0.104,1.02,0.298,1.482
			c-0.746-0.697-1.688-1.067-2.734-1.067h-2.661v-0.77c0-1.104-0.421-2.086-1.22-2.843c-0.766-0.723-1.709-1.104-2.731-1.104
			c-1.054,0-2.011,0.389-2.769,1.125c-0.771,0.751-1.183,1.728-1.183,2.823v1.131c-0.575-0.32-1.217-0.492-1.892-0.492
			c-1.053,0-2.01,0.39-2.77,1.128c-0.771,0.751-1.18,1.728-1.18,2.823v8.186c0,0.012,0,0.021,0,0.023
			c-0.004,0.006-0.014,0.016-0.025,0.027c-0.031,0.03-0.05,0.039-0.05,0.039s-0.015,0.004-0.054,0.004
			c-0.087,0-0.096-0.008-0.135-0.046c-0.012-0.011-0.021-0.021-0.023-0.022c0-0.006,0-0.016,0-0.028V70.93
			c0-1.098-0.406-2.074-1.182-2.826c-0.758-0.735-1.703-1.125-2.736-1.125c-1.074,0-2.043,0.39-2.799,1.125
			c-0.021,0.021-0.04,0.045-0.061,0.066c-0.445-0.287-0.92-0.525-1.428-0.701c-0.652-0.221-1.464-0.377-2.48-0.479l-0.197-0.011
			c-0.689,0-1.337,0.064-1.924,0.191c-0.266,0.055-0.529,0.129-0.793,0.221c-0.465-0.188-0.965-0.281-1.485-0.281
			c-0.424,0-0.829,0.064-1.212,0.188c-0.038-0.105-0.075-0.211-0.123-0.311c-0.496-1.145-1.141-2.073-1.916-2.763
			c-0.714-0.632-1.445-1.119-2.172-1.447c-0.729-0.327-1.426-0.534-2.082-0.613c-0.566-0.066-0.895-0.092-1.13-0.092
			c-1.095,0-2.15,0.207-3.138,0.616c-0.983,0.407-1.854,0.979-2.59,1.702c-0.229,0.228-0.439,0.47-0.643,0.722
			c-0.168-0.716-0.533-1.361-1.084-1.896c-0.768-0.748-1.73-1.142-2.784-1.142c-1.045,0-1.998,0.401-2.757,1.161
			c-0.76,0.759-1.162,1.735-1.162,2.82v0.643c0,0.758,0.212,1.467,0.621,2.093c-0.214,0.327-0.371,0.681-0.477,1.058
			c-0.145-0.172-0.293-0.34-0.451-0.498c-0.719-0.717-1.563-1.293-2.516-1.713c-0.979-0.433-2.035-0.65-3.146-0.65
			c-1.104,0-2.168,0.217-3.153,0.646c-0.965,0.418-1.818,0.998-2.54,1.717c-0.509,0.511-0.942,1.088-1.306,1.723
			c-0.359-0.635-0.794-1.212-1.303-1.723c-0.717-0.717-1.563-1.295-2.515-1.713c-0.979-0.433-2.036-0.65-3.147-0.65
			c-1.104,0-2.166,0.217-3.151,0.646c-0.798,0.348-1.517,0.809-2.151,1.364c-0.127-0.142-0.262-0.278-0.414-0.403
			c-0.596-0.49-1.267-0.865-2.002-1.117c-0.651-0.221-1.465-0.379-2.481-0.479l-0.196-0.011c-0.691,0-1.339,0.063-1.926,0.189
			c-0.266,0.057-0.529,0.131-0.792,0.221c-0.465-0.186-0.965-0.28-1.487-0.28c-0.852,0-1.633,0.256-2.297,0.742
			c-0.041-0.181-0.089-0.353-0.152-0.513l-0.049-0.112c-0.394-0.839-0.902-1.632-1.515-2.362c-0.613-0.729-1.319-1.375-2.101-1.922
			c-0.789-0.551-1.649-0.993-2.559-1.307c-0.945-0.329-1.938-0.498-2.949-0.498c-1.363,0-2.664,0.267-3.865,0.793
			c-1.165,0.512-2.211,1.21-3.106,2.081c-0.91,0.882-1.637,1.939-2.158,3.139c-0.525,1.211-0.791,2.515-0.791,3.875v6.806
			c0,1.34,0.268,2.629,0.795,3.832c0.518,1.182,1.24,2.233,2.144,3.122c0.896,0.884,1.947,1.593,3.118,2.107
			c1.199,0.526,2.5,0.793,3.865,0.793c1.36,0,2.661-0.267,3.864-0.793c1.171-0.515,2.222-1.224,3.118-2.107
			c0.288-0.282,0.553-0.583,0.802-0.896c0.154,0.754,0.519,1.434,1.08,1.994c0.759,0.759,1.713,1.16,2.754,1.16
			c1.084,0,2.058-0.401,2.822-1.162c0.758-0.76,1.16-1.734,1.16-2.819v-8.048c0.01-0.051,0.024-0.073,0.047-0.098
			c0.021-0.002,0.052-0.002,0.11-0.002c0.636,0.383,1.348,0.574,2.119,0.574c0.098,0,0.191-0.006,0.287-0.013v3.638
			c0,1.082,0.219,2.133,0.648,3.122c0.424,0.974,1.01,1.833,1.744,2.552c0.727,0.713,1.572,1.286,2.517,1.701
			c0.979,0.432,2.039,0.65,3.147,0.65c0.664,0,1.305-0.071,1.906-0.215c0.256-0.062,0.51-0.135,0.76-0.221
			c0.471,0.204,0.953,0.309,1.441,0.309c1.014,0,1.953-0.396,2.721-1.139c0.025-0.025,0.045-0.053,0.07-0.076
			c0.055,0.061,0.106,0.123,0.164,0.182c0.758,0.761,1.734,1.163,2.822,1.163c1.044,0,1.998-0.401,2.758-1.162
			c0.758-0.759,1.159-1.733,1.159-2.819v-8.154c0-0.012,0-0.021,0-0.023c0.004-0.005,0.012-0.014,0.024-0.023
			c0.037-0.039,0.047-0.047,0.135-0.047c0.035,0,0.052,0.004,0.052,0.004s0.019,0.01,0.051,0.041
			c0.013,0.012,0.021,0.021,0.022,0.023c0,0.006,0.003,0.014,0.003,0.027v8.154c0,1.086,0.401,2.061,1.157,2.817
			c0.759,0.761,1.727,1.163,2.791,1.163c1.033,0,1.985-0.395,2.756-1.145c0.057-0.054,0.106-0.111,0.158-0.168
			c0.045,0.051,0.09,0.104,0.142,0.155c0.761,0.759,1.712,1.158,2.755,1.158c1.083,0,2.059-0.399,2.822-1.161
			c0.078-0.083,0.152-0.166,0.227-0.252c0.071,0.086,0.146,0.169,0.227,0.252c0.76,0.759,1.725,1.161,2.789,1.161
			c1.035,0,1.985-0.396,2.756-1.144c0.781-0.762,1.195-1.744,1.195-2.838v-2.148h0.223c1.053,0,2.01-0.389,2.77-1.125
			c0.771-0.752,1.18-1.729,1.18-2.825c0-1.054-0.395-2.017-1.145-2.788c-0.762-0.781-1.732-1.193-2.805-1.193h-0.223v-2.984
			c0-0.023,0-0.035,0-0.036c0.004-0.005,0.014-0.021,0.041-0.048c0.028-0.027,0.041-0.034,0.041-0.034
			c0.002,0,0.008-0.001,0.014-0.003c0.113,0.127,0.219,0.262,0.316,0.4c0.28,0.41,0.602,0.795,0.952,1.144
			c0.449,0.45,1.257,0.987,2.55,0.987c0.354,0,0.697-0.047,1.024-0.131v10.688c0,1.086,0.399,2.063,1.162,2.822
			c0.76,0.759,1.713,1.16,2.756,1.16c1.084,0,2.06-0.4,2.821-1.162c0.759-0.758,1.16-1.734,1.16-2.82v-8.047
			c0.01-0.051,0.023-0.072,0.047-0.098c0.02,0,0.053-0.004,0.111-0.002c0.633,0.383,1.346,0.574,2.117,0.574
			c0.32,0,0.63-0.037,0.93-0.105v3.729c0,1.083,0.217,2.134,0.646,3.124c0.418,0.965,0.998,1.817,1.716,2.538
			c0.72,0.72,1.574,1.3,2.542,1.718c0.986,0.43,2.047,0.648,3.152,0.648c1.109,0,2.168-0.219,3.146-0.65
			c0.952-0.419,1.801-0.996,2.518-1.713c0.527-0.529,0.977-1.132,1.347-1.793c0.379,0.669,0.843,1.275,1.384,1.807
			c0.727,0.711,1.571,1.283,2.52,1.699c0.979,0.432,2.027,0.65,3.113,0.65c0.137,0,0.354-0.01,1.017-0.074
			c0.646-0.063,1.325-0.246,2.073-0.559c0.759-0.313,1.521-0.797,2.264-1.432c0.018-0.014,0.031-0.029,0.049-0.043
			c0.182,0.344,0.419,0.661,0.706,0.949c0.759,0.758,1.713,1.158,2.754,1.158c1.084,0,2.06-0.4,2.822-1.161
			c0.759-0.761,1.159-1.735,1.159-2.819V70.938c0-0.787-0.215-1.514-0.623-2.137c0.408-0.625,0.623-1.338,0.623-2.1v-0.649H235.237z
			 M132.106,76.614c0,1.07-0.209,2.081-0.627,3.033c-0.416,0.953-0.988,1.787-1.717,2.505c-0.728,0.716-1.566,1.282-2.521,1.7
			c-0.953,0.418-1.974,0.625-3.063,0.625c-1.093,0-2.115-0.207-3.064-0.625c-0.954-0.418-1.792-0.983-2.521-1.7
			c-0.726-0.718-1.299-1.55-1.716-2.505c-0.417-0.952-0.627-1.963-0.627-3.033v-6.807c0-1.09,0.21-2.117,0.627-3.081
			c0.417-0.962,0.99-1.798,1.716-2.504c0.729-0.706,1.567-1.269,2.521-1.686c0.949-0.415,1.974-0.625,3.064-0.625
			c0.79,0,1.557,0.128,2.293,0.385c0.738,0.256,1.43,0.61,2.07,1.058c0.643,0.451,1.215,0.974,1.718,1.572
			c0.503,0.599,0.915,1.242,1.235,1.927c0.042,0.108,0.074,0.237,0.097,0.384c0.021,0.149,0.031,0.289,0.031,0.418
			c0,0.493-0.17,0.946-0.515,1.364c-0.344,0.416-0.834,0.625-1.478,0.625c-0.364,0-0.711-0.096-1.043-0.289
			c-0.331-0.191-0.584-0.491-0.756-0.898c-0.299-0.727-0.781-1.32-1.442-1.78c-0.664-0.461-1.402-0.691-2.216-0.691
			c-0.534,0-1.038,0.103-1.509,0.304c-0.471,0.204-0.877,0.477-1.219,0.82c-0.344,0.342-0.614,0.743-0.819,1.204
			c-0.203,0.46-0.306,0.957-0.306,1.492v6.805c0,0.535,0.103,1.033,0.306,1.492c0.205,0.461,0.481,0.861,0.835,1.205
			c0.354,0.342,0.76,0.615,1.221,0.818c0.459,0.204,0.957,0.303,1.491,0.303c0.535,0,1.038-0.1,1.509-0.303
			c0.473-0.203,0.879-0.477,1.221-0.818c0.343-0.344,0.615-0.744,0.818-1.205c0.203-0.459,0.303-0.957,0.303-1.492v-0.578h-1.346
			c-0.558,0-1.031-0.191-1.431-0.577c-0.396-0.384-0.595-0.866-0.595-1.444c0-0.535,0.197-1,0.595-1.397
			c0.397-0.396,0.872-0.595,1.431-0.595h3.369c0.557,0,1.037,0.193,1.443,0.578c0.406,0.386,0.609,0.858,0.609,1.414v2.604h0.006
			V76.614z M123.867,78.106c0.481,0.469,1.048,0.8,1.666,0.98c-0.011,0.012-0.021,0.022-0.031,0.033
			c-0.165,0.165-0.362,0.296-0.601,0.4c-0.437,0.188-0.992,0.189-1.409,0.006c-0.245-0.108-0.451-0.246-0.638-0.428
			c-0.168-0.164-0.299-0.354-0.396-0.574c-0.092-0.207-0.137-0.434-0.137-0.688V71.03c0-0.258,0.045-0.484,0.136-0.686
			c0.104-0.238,0.237-0.434,0.405-0.604c0.164-0.163,0.361-0.293,0.597-0.396c0.224-0.097,0.462-0.144,0.726-0.144
			c0.405,0,0.748,0.106,1.076,0.334c0.352,0.245,0.586,0.532,0.745,0.918c0.122,0.292,0.271,0.563,0.448,0.808
			c-0.991,0.053-1.887,0.455-2.604,1.168c-0.771,0.771-1.179,1.74-1.179,2.807C122.669,76.352,123.083,77.344,123.867,78.106z
			 M143.467,71.736c-0.384,0.362-0.854,0.545-1.411,0.545c-0.404,0-0.77-0.097-1.091-0.29s-0.673-0.29-1.058-0.29
			c-0.602,0-1.092,0.192-1.479,0.578c-0.386,0.385-0.599,0.856-0.642,1.411v8.154c0,0.557-0.192,1.025-0.577,1.412
			c-0.385,0.385-0.857,0.577-1.412,0.577c-0.515,0-0.964-0.192-1.349-0.577c-0.386-0.387-0.578-0.855-0.578-1.412V69.84
			c0-0.555,0.188-1.021,0.563-1.396c0.373-0.375,0.828-0.562,1.363-0.562c0.514,0,0.963,0.172,1.35,0.514
			c0.449-0.235,0.896-0.401,1.349-0.498c0.448-0.098,0.95-0.145,1.506-0.145c0.856,0.086,1.538,0.213,2.04,0.385
			s0.964,0.43,1.381,0.771s0.626,0.813,0.626,1.411C144.046,70.9,143.853,71.372,143.467,71.736z M156.437,81.815
			c0,0.556-0.199,1.027-0.596,1.41c-0.395,0.386-0.84,0.58-1.331,0.58c-0.235,0-0.478-0.06-0.722-0.178
			c-0.247-0.117-0.455-0.23-0.627-0.337c-0.428,0.216-0.867,0.375-1.314,0.481c-0.449,0.105-0.932,0.162-1.445,0.162
			c-0.834,0-1.615-0.162-2.342-0.481c-0.729-0.321-1.371-0.754-1.926-1.3c-0.558-0.545-0.996-1.188-1.316-1.926
			c-0.321-0.738-0.482-1.514-0.482-2.326v-4.109c0-0.813,0.161-1.588,0.482-2.326c0.32-0.738,0.755-1.382,1.301-1.927
			c0.544-0.546,1.188-0.979,1.927-1.3c0.738-0.32,1.522-0.48,2.356-0.48c0.836,0,1.615,0.16,2.345,0.48
			c0.728,0.32,1.362,0.754,1.907,1.3c0.547,0.545,0.979,1.188,1.302,1.927c0.321,0.738,0.481,1.514,0.481,2.326V81.815
			L156.437,81.815z M170.396,81.941c0,0.558-0.197,1.028-0.592,1.413c-0.398,0.384-0.85,0.578-1.365,0.578
			c-0.535,0-0.994-0.191-1.379-0.578c-0.386-0.387-0.578-0.856-0.578-1.413v-8.153c0-0.578-0.211-1.068-0.625-1.477
			c-0.418-0.407-0.914-0.61-1.492-0.61c-0.6,0-1.107,0.205-1.524,0.61c-0.418,0.406-0.628,0.898-0.628,1.477v8.153
			c0,0.558-0.189,1.028-0.576,1.413c-0.385,0.384-0.836,0.578-1.349,0.578c-0.556,0-1.027-0.191-1.41-0.578
			c-0.386-0.387-0.579-0.856-0.579-1.413v-8.153c0-0.813,0.161-1.589,0.48-2.328c0.322-0.736,0.757-1.38,1.302-1.926
			c0.545-0.545,1.188-0.979,1.927-1.3c0.736-0.321,1.523-0.481,2.357-0.481s1.613,0.162,2.343,0.481
			c0.728,0.321,1.362,0.754,1.911,1.3c0.545,0.546,0.979,1.189,1.301,1.926c0.318,0.739,0.479,1.516,0.479,2.328L170.396,81.941
			L170.396,81.941z M176.239,81.941c0,0.558-0.192,1.028-0.576,1.413c-0.389,0.384-0.857,0.578-1.413,0.578
			c-0.515,0-0.962-0.193-1.349-0.578c-0.385-0.385-0.578-0.856-0.578-1.413V69.713c0-0.558,0.193-1.023,0.578-1.396
			c0.385-0.374,0.834-0.563,1.349-0.563c0.535,0,1,0.188,1.396,0.563c0.396,0.375,0.595,0.839,0.595,1.396L176.239,81.941
			L176.239,81.941z M176.239,65.475c0,0.515-0.192,0.963-0.576,1.349c-0.389,0.385-0.857,0.578-1.413,0.578
			c-0.515,0-0.962-0.193-1.349-0.578c-0.385-0.385-0.578-0.834-0.578-1.349v-0.64c0-0.558,0.193-1.028,0.578-1.412
			c0.385-0.386,0.834-0.579,1.349-0.579c0.535,0,1,0.192,1.396,0.579c0.396,0.384,0.595,0.854,0.595,1.412L176.239,65.475
			L176.239,65.475z M189.574,68.734c-0.375,0.375-0.841,0.562-1.396,0.562c-0.492,0-0.875-0.135-1.14-0.402
			c-0.269-0.266-0.511-0.555-0.724-0.867c-0.215-0.309-0.455-0.598-0.723-0.866c-0.268-0.267-0.658-0.401-1.172-0.401
			c-0.6,0-1.107,0.209-1.523,0.626c-0.418,0.416-0.625,0.916-0.625,1.492v4.975h2.213c0.535,0,0.998,0.199,1.383,0.595
			c0.384,0.396,0.578,0.862,0.578,1.396c0,0.557-0.193,1.022-0.578,1.396c-0.385,0.375-0.848,0.563-1.383,0.563h-2.213v4.14
			c0,0.557-0.198,1.026-0.596,1.413c-0.396,0.385-0.851,0.578-1.363,0.578c-0.533,0-0.996-0.19-1.379-0.578
			c-0.387-0.387-0.58-0.855-0.58-1.413V68.879c0-0.857,0.16-1.648,0.481-2.376c0.322-0.727,0.758-1.364,1.313-1.91
			c0.56-0.544,1.211-0.973,1.959-1.284c0.75-0.31,1.541-0.465,2.375-0.465c0.148,0,0.451,0.026,0.898,0.08
			c0.45,0.054,0.946,0.204,1.494,0.45c0.544,0.245,1.102,0.62,1.668,1.123c0.566,0.504,1.043,1.205,1.43,2.104
			c0.063,0.129,0.106,0.263,0.127,0.402c0.022,0.139,0.033,0.25,0.033,0.336C190.138,67.895,189.948,68.361,189.574,68.734z
			 M200.794,71.736c-0.386,0.362-0.855,0.545-1.412,0.545c-0.406,0-0.771-0.097-1.092-0.29c-0.318-0.193-0.673-0.29-1.059-0.29
			c-0.6,0-1.092,0.192-1.479,0.578c-0.385,0.385-0.598,0.856-0.641,1.411v8.154c0,0.557-0.192,1.025-0.578,1.412
			c-0.385,0.385-0.857,0.577-1.412,0.577c-0.516,0-0.964-0.192-1.35-0.577c-0.385-0.387-0.578-0.855-0.578-1.412V69.84
			c0-0.555,0.188-1.021,0.563-1.396c0.374-0.375,0.827-0.562,1.363-0.562c0.512,0,0.963,0.172,1.349,0.514
			c0.449-0.235,0.897-0.401,1.348-0.498c0.449-0.098,0.951-0.145,1.508-0.145c0.857,0.086,1.535,0.213,2.04,0.385
			c0.501,0.172,0.963,0.43,1.38,0.771c0.416,0.342,0.625,0.813,0.625,1.411C201.371,70.9,201.179,71.372,200.794,71.736z
			 M214.403,77.899c0,0.813-0.161,1.588-0.482,2.326c-0.322,0.736-0.755,1.379-1.3,1.926c-0.545,0.546-1.183,0.979-1.911,1.3
			c-0.727,0.321-1.507,0.481-2.343,0.481c-0.834,0-1.621-0.162-2.357-0.481c-0.739-0.321-1.381-0.754-1.926-1.3
			c-0.547-0.547-0.979-1.189-1.301-1.926c-0.321-0.738-0.479-1.514-0.479-2.326v-8.184c0-0.559,0.191-1.023,0.576-1.397
			c0.385-0.375,0.855-0.562,1.412-0.562c0.514,0,0.963,0.188,1.35,0.562c0.385,0.375,0.576,0.839,0.576,1.397v8.184
			c0,0.576,0.209,1.068,0.625,1.476c0.42,0.406,0.926,0.61,1.524,0.61c0.577,0,1.075-0.205,1.491-0.61
			c0.418-0.407,0.627-0.899,0.627-1.476v-8.184c0-0.559,0.19-1.023,0.578-1.397c0.385-0.375,0.845-0.562,1.379-0.562
			c0.516,0,0.969,0.188,1.365,0.562c0.396,0.375,0.594,0.839,0.594,1.397L214.403,77.899L214.403,77.899z M227.949,80.208
			c-0.41,0.921-0.906,1.632-1.495,2.134c-0.588,0.504-1.166,0.873-1.732,1.107c-0.565,0.234-1.07,0.374-1.509,0.418
			c-0.438,0.043-0.711,0.063-0.817,0.063c-0.813,0-1.584-0.16-2.313-0.48c-0.726-0.32-1.369-0.754-1.925-1.301
			c-0.557-0.545-1.002-1.188-1.332-1.926c-0.331-0.738-0.497-1.514-0.497-2.326V65.122c0-0.556,0.192-1.022,0.578-1.396
			c0.385-0.374,0.845-0.561,1.38-0.561c0.515,0,0.968,0.188,1.363,0.561c0.396,0.375,0.595,0.84,0.595,1.396v2.762h4.653
			c0.558,0,1.027,0.187,1.412,0.562s0.578,0.84,0.578,1.396c0,0.514-0.193,0.969-0.578,1.364s-0.854,0.595-1.412,0.595h-4.653v6.098
			c0,0.578,0.209,1.068,0.626,1.477c0.417,0.406,0.926,0.61,1.523,0.61c0.492,0,0.871-0.128,1.14-0.386
			c0.269-0.256,0.515-0.545,0.739-0.867c0.225-0.32,0.469-0.609,0.736-0.865c0.268-0.257,0.648-0.385,1.141-0.385
			c0.556,0,1.021,0.197,1.396,0.593c0.374,0.396,0.562,0.851,0.562,1.364C228.108,79.74,228.056,79.995,227.949,80.208z
			 M227.336,74.172v2.711c-0.374-0.117-0.771-0.175-1.187-0.175c-1.271,0-2.072,0.513-2.517,0.938
			c-0.358,0.344-0.694,0.734-0.993,1.162c-0.101,0.143-0.207,0.277-0.315,0.398c-0.029-0.005-0.041-0.017-0.063-0.04
			c-0.013-0.011-0.021-0.021-0.023-0.022c0-0.004-0.002-0.016-0.002-0.027V75.01h2.662C225.812,75.01,226.646,74.719,227.336,74.172
			z M233.242,81.941c0,0.558-0.191,1.028-0.576,1.413c-0.385,0.384-0.856,0.578-1.412,0.578c-0.514,0-0.963-0.193-1.349-0.578
			c-0.385-0.385-0.577-0.856-0.577-1.413V69.713c0-0.558,0.192-1.023,0.577-1.396c0.386-0.375,0.835-0.563,1.349-0.563
			c0.533,0,0.999,0.188,1.396,0.563c0.396,0.375,0.596,0.839,0.596,1.396v12.229L233.242,81.941L233.242,81.941z M233.242,65.475
			c0,0.515-0.191,0.963-0.576,1.349c-0.385,0.385-0.856,0.578-1.412,0.578c-0.514,0-0.963-0.193-1.349-0.578
			c-0.385-0.385-0.577-0.834-0.577-1.349v-0.64c0-0.558,0.192-1.028,0.577-1.412c0.386-0.386,0.835-0.579,1.349-0.579
			c0.533,0,0.999,0.192,1.396,0.579c0.396,0.384,0.596,0.854,0.596,1.412v0.64H233.242z"/>
		<path fill="#FFFFFF" d="M150.399,71.702c-0.598,0-1.101,0.205-1.508,0.611c-0.406,0.408-0.61,0.898-0.61,1.477v4.141
			c0,0.578,0.211,1.063,0.627,1.461c0.416,0.396,0.913,0.594,1.489,0.594c0.56,0,1.051-0.197,1.479-0.594s0.64-0.873,0.64-1.428
			V73.79c0-0.578-0.207-1.068-0.625-1.477C151.476,71.907,150.979,71.702,150.399,71.702z M150.528,79.147L150.528,79.147
			c-0.072,0.066-0.09,0.066-0.127,0.066c-0.065,0-0.075-0.004-0.127-0.055c0-0.002,0-0.004,0-0.008v-4.143
			c0-0.021,0.002-0.033,0.002-0.037c0.002-0.006,0.016-0.021,0.045-0.049c0.01-0.004,0.133-0.002,0.133-0.002s0.018,0.01,0.05,0.041
			c0.015,0.012,0.021,0.02,0.024,0.022c0,0.007,0,0.014,0,0.026V79.147L150.528,79.147z"/>
	</g>
	
		<rect x="82.13" y="-1.987" transform="matrix(0.7517 0.6596 -0.6596 0.7517 30.5728 -51.6748)" fill="#FFFFFF" width="3.552" height="33.495"/>
	<path fill="#FFFFFF" d="M96.689,54.569H3.752c0,0-9.527-12.637,3.936-16.853c0,0,0-12.64,13.463-7.721
		c0,0,2.243-14.238,15.704-9.579c0,0,15.668-1.659,13.819,9.579c0,0,1.142-9.322,10.115-9.579c0,0,14.96-10.086,17.949,4.661
		c0,0,17.201-1.007,8.977,10.735c0,0,13.462-0.903,8.976,8.927C96.689,44.739,104.916,50.356,96.689,54.569"/>
	<path fill="#FFFFFF" d="M89.407,56.121h-7.726h-7.723H26.96h-7.723h-7.724H2.146l2.995,15.726h5.617l16.696,71.043
		c-0.165,0.223-0.326,0.443-0.494,0.668h0.65h45.697h0.651c-0.168-0.225-0.329-0.447-0.496-0.67L90.16,71.846h5.614l2.994-15.726
		H89.407z M53.781,140.383c-3.394,0-7.057-1.431-10.898-4.734l-0.715,3.572H29.305L41.453,82.41l13.221-1.788l-10.719,50.113
		c1.696,1.25,3.394,1.785,5.091,1.785c10.63,0,17.151-21.26,17.151-39.305c0-12.148-5.271-16.882-13.041-16.882
		c-13.31,0-23.404,8.13-23.404,21.704c0,4.557,1.161,5.271,1.25,6.075c-5.895,0-9.559-2.233-9.559-8.308
		c0-12.238,15.098-23.582,33.231-23.582c17.33,0,23.85,12.061,23.85,25.728C78.525,118.5,67.002,140.383,53.781,140.383z"/>
	<path fill="#FFFFFF" d="M124.351,94.559l-6.432,30.373c-0.268,1.16-0.358,2.054-0.358,2.857c0,2.502,1.163,3.84,3.663,3.84
		c3.483,0,5.896-3.929,7.235-8.396h3.752c-5.093,14.561-13.132,16.525-17.956,16.525c-5.001,0-8.217-2.856-8.752-8.218
		c-2.77,4.108-6.97,8.218-13.312,8.218c-6.073,0-11.88-3.75-11.88-14.381c0-12.06,7.416-31.264,22.958-31.264
		c5.093,0,7.235,1.965,7.235,4.555v0.627l0.982-4.736H124.351L124.351,94.559z M93.532,124.127c0,6.879,2.858,6.967,4.466,6.967
		c2.59,0,6.341-2.682,7.414-7.861l4.288-20.188c0-1.072-0.805-3.394-3.662-3.394C98.447,99.651,93.532,115.729,93.532,124.127"/>
	<path fill="#FFFFFF" d="M173.927,102.332c-3.217,0-5.628,3.751-6.97,8.216l-6.074,28.674h-12.864l6.521-30.815
		c0.18-0.714,0.27-1.431,0.27-2.233c0-1.966-0.715-3.929-2.681-3.929c-3.483,0-5.896,3.843-7.235,8.308l-6.072,28.674h-12.865
		l9.469-44.664h12.863l-0.982,4.646c3.754-4.286,7.773-5.092,10.898-5.092c4.734,0,8.219,2.146,9.201,7.683
		c4.287-6.609,9.111-7.593,12.414-7.593c5.719,0,9.918,2.947,9.918,10.093c0,7.234-4.287,18.043-4.287,23.047
		c0,2.232,0.894,3.75,3.572,3.75c3.931,0,5.539-3.215,7.504-7.858h3.752c-5.002,14.649-11.881,16.524-16.615,16.524
		c-7.771,0-10.539-5.002-10.539-10.093c0-6.075,4.02-17.063,4.02-22.78C177.142,103.938,176.069,102.332,173.927,102.332"/>
	<path fill="#FFFFFF" d="M216.358,94.559l-6.434,30.373c-0.179,0.715-0.268,1.52-0.268,2.232c0,2.057,0.625,3.93,2.678,3.93
		c3.486,0,5.809-3.394,7.146-7.861l6.074-28.674h12.953l-10.898,51.81c-2.68,12.774-10.361,15.187-16.256,15.187
		c-5.448,0-10.541-3.842-10.541-9.646c0-8.309,6.968-10.896,15.453-13.4l0.895-3.929c-3.842,4.376-7.862,5.181-10.898,5.181
		c-5.359,0-9.559-3.215-9.559-10.721c0-1.697,0.27-3.66,0.715-5.807l6.074-28.674h12.863l0,0H216.358z M209.299,153.604
		c1.788,0,4.108-1.697,5.271-6.969l1.072-5.27c-5.627,1.877-9.916,4.467-9.916,9.291
		C205.726,151.909,207.335,153.604,209.299,153.604"/>
	<polygon fill="#FFFFFF" points="196.459,123.877 200.306,113.219 200.998,127.428 	"/>
	<polygon fill="#FFFFFF" points="127.782,126.245 131.927,113.219 131.927,126.245 	"/>
</g>
</svg>
