<?xml version="1.0" encoding="utf-8"?>
<!-- Generator: Adobe Illustrator 15.0.2, SVG Export Plug-In . SVG Version: 6.00 Build 0)  -->
<!DOCTYPE svg PUBLIC "-//W3C//DTD SVG 1.1//EN" "http://www.w3.org/Graphics/SVG/1.1/DTD/svg11.dtd">
<svg version="1.1" id="Layer_2" xmlns="http://www.w3.org/2000/svg" xmlns:xlink="http://www.w3.org/1999/xlink" x="0px" y="0px"
	 width="603.5px" height="619.5px" viewBox="0 0 603.5 619.5" enable-background="new 0 0 603.5 619.5" xml:space="preserve">
<g>
	<g>
		<path fill="#FFFFFF" d="M333.873,534.543c0,0,14.654,9.521,21.531,7.315c0,0-52.043,66.815-77.668,73.93
			c0,0-44.954,25.851-44.954-82.086c0,0,15.079,5.402,22.901,0.841c0,0-0.562,63.326,21.963,63.326
			C277.648,597.869,299.951,587.95,333.873,534.543"/>
		<path fill="#FFFFFF" d="M484.188,158.608c4.383-30.251-31.229-61.616-41.797-70.186c2.386-6.628,5.323-10.836,5.323-10.836
			c23.284-65.163-68.114-73.58-68.114-73.58c4.511,74.4-42.061,81.032-42.061,81.032s-59.524,17.052-67.339,51.948
			c-18.582,5.031-58.519,19.514-64.461,52.2c0,0-6.916,33.816,25.699,64.146c0,0-26.625-90.764,42.963-90.516
			c3.854,5.231,10.427,9.567,21.528,10.701c0,0-55.67-26.362,33.833-71.223c-0.15,0.244-0.249,0.392-0.249,0.392
			c95.824-34.024,58.804-87.751,51.297-97.225l0.004,0.004c122.775,47.6,14.702,123.754,14.702,123.754
			c21.822-7.362,33.988-18.644,40.791-28.826c74.861,78.434,8.929,98.528,8.929,98.528c15.518-1.575,24.819-7.436,30.396-14.128
			c72.046,59.885-13.427,110.727-13.427,110.727c60.815,7.741,70.061-59.818,70.061-59.818
			C538.305,202.466,501.126,171.015,484.188,158.608"/>
		<path fill="#FFFFFF" d="M319.693,272.646l-70.76-13.928c0,0-15.214-1.556-16.149,7.316l5.058,70.273c0,0,15.916-6.828,20.222,0
			c0,0-5.516-54.89-5.815-59.986l230.914,36.176l-9.675,14.428l5.966,3.129l10.311-21.517L319.693,272.646z"/>
		<path fill="#FFFFFF" d="M306.918,186.266c-4.651,4.073-18.813,5.617-18.813,5.617
			C300.249,196.964,306.918,186.266,306.918,186.266"/>
		<path fill="#FFFFFF" d="M300.267,200.082c-0.548-2.439-1.058-4.93-1.503-7.538C298.764,192.544,299.109,195.453,300.267,200.082"
			/>
		<path fill="#FFFFFF" d="M441.251,212.008c0,0-14.092-7.861-23.018,4.111c0,0-4.537,11.489,2.205,15.721
			c0,0,8.227,12.339-9.894,29.135c-82.955,17.203-105.025-39.799-110.279-60.893c23.776,106.412,140.848,52.055,140.848,52.055
			c-6.154,2.239-12.039,4.125-17.68,5.7c8.837-2.596,18.984-5.82,20.608-7.367C444.044,250.47,460.024,219.662,441.251,212.008"/>
		<path fill="#FFFFFF" d="M425.998,162.065c-1.51,5.02-4.674,8.503-7.08,7.785c-2.389-0.721-3.104-5.377-1.594-10.397
			c1.515-5.015,4.676-8.502,7.07-7.781c0.261,0.082,0.489,0.225,0.711,0.391c-1.487-4.456-3.966-7.543-7.328-8.556
			c-8.969-2.703-20.817,10.351-26.478,29.131c-5.651,18.794-2.981,36.214,5.993,38.912c8.969,2.697,20.808-10.34,26.466-29.135
			c2.488-8.27,3.364-16.273,2.792-22.875C426.425,160.363,426.256,161.201,425.998,162.065"/>
		<path fill="#FFFFFF" d="M377.868,145.142c0.094,1.694-0.131,3.682-0.75,5.749c-1.518,5.019-4.685,8.506-7.067,7.785
			c-2.396-0.721-3.12-5.377-1.604-10.397c1.506-5.014,4.678-8.503,7.069-7.781c0.93,0.277,1.599,1.153,1.987,2.402
			c-1.239-6.306-4.034-10.788-8.214-12.046c-8.972-2.703-20.818,10.346-26.476,29.145c-5.666,18.779-2.985,36.206,5.98,38.903
			c8.963,2.698,20.816-10.347,26.476-29.139C377.993,160.742,378.771,152.055,377.868,145.142"/>
		<path fill="#FFFFFF" d="M98.567,346.599c10.893,0,17.958,3.75,21.18,11.239c4.968,6.977,7.455,27.068,7.455,60.276
			c0.695,16.127,1.435,24.189,2.221,24.189l-0.653,1.436v13.602c0,8.893-0.259,19.96-0.785,33.208l0.785,1.44
			c-2.701,26.146-8.759,39.222-18.175,39.222c0,0.963-3.005,1.963-9.023,3.009c-14.56-4.27-21.833-11.287-21.833-21.051v-6.802
			c0-9.147-0.263-20.695-0.785-34.643c-1.044-3.053-3.051-4.576-6.015-4.576H61.697c-3.578,0-5.362,3.787-5.362,11.374l0.786,1.438
			c0,0.521-0.265,1.265-0.786,2.224c0.521,6.101,0.786,10.636,0.786,13.597c0,19.088-5.541,31.382-16.609,36.876
			c-3.747,1.045-5.75,1.563-6.011,1.563c-13.512-3.658-20.268-7.929-20.268-12.813c-2.179,0-4.704-14.075-7.583-42.229
			c0-0.437,0.263-0.651,0.786-0.651l-1.571-34.783c0.522-6.969,0.785-13.726,0.785-20.266c-1.484-9.582-2.483-19.133-3.005-28.635
			l1.566-16.604c-0.522-2.701-0.785-5.445-0.785-8.237c5.057-10.719,8.544-16.258,10.461-16.603
			c4.185-3.051,8.979-4.577,14.383-4.577h0.786c17.084,0,25.625,14.075,25.625,42.229v19.614c0,5.49,4.75,8.237,14.252,8.237
			c4.531,0,6.8-3.484,6.8-10.458c0.519-3.143,0.782-9.679,0.782-19.614v-11.375C79.783,356.886,86.799,346.599,98.567,346.599"/>
		<path fill="#FFFFFF" d="M178.589,400.99c11.587,0,19.477,4.142,23.663,12.422c3.919,5.926,5.884,12.728,5.884,20.396
			c-4.013,13.596-7.935,20.396-11.768,20.396c-5.406,6.455-11.768,11.469-19.091,15.037c2.355,12.291,6.974,18.436,13.86,18.436
			h3.924c1.39,0,6.62-3.309,15.687-9.937c2.006-0.872,4.185-1.307,6.537-1.307c7.497,4.099,11.247,10.24,11.247,18.433
			c0,9.244-3.968,18.656-11.896,28.241c-7.414,7.414-17.479,11.115-30.206,11.115h-1.307c-8.286,0-18.088-5.708-29.418-17.127
			c-9.243-10.462-13.86-21.354-13.86-32.688c-2.18-5.667-3.709-13.553-4.581-23.668c2.18-23.098,5.448-38.002,9.807-44.713
			c8.195-10.024,16.954-15.037,26.287-15.037H178.589z M160.936,437.73v3.922c1.217,4.795,3.615,7.193,7.191,7.193
			c6.535,0,11.33-5.45,14.381-16.349c-2.529-6.102-4.926-9.152-7.192-9.152C167.993,423.346,163.199,428.142,160.936,437.73"/>
		<path fill="#FFFFFF" d="M250.887,348.56c7.756,0,13.249,4.577,16.473,13.729c2.271,16.391,3.404,26.81,3.404,31.247v18.832
			c0,5.223-0.961,17.385-2.878,36.479v12.023c-2.005,38.787-8.317,116.735-11.196,116.735c-3.142,6.452-7.777-26.992-12.309-26.992
			l-2.5-1c-8.372-4.268-9.096,2.216-9.096-15.913c0-1.395-0.865-46.374-0.203-64.335c0.21-5.624,1.352-12.023,1.698-19.346
			l-1.172-16.479c0.435-1.563,0.653-2.914,0.653-4.049c0-0.346-0.218-0.521-0.653-0.521l0.653-4.056v-9.021
			c0-4.188-0.218-7.627-0.653-10.329c0-25.802,3.614-43.668,10.851-53.611C246.402,349.694,248.709,348.56,250.887,348.56"/>
		<path fill="#FFFFFF" d="M310.246,399.16h2.354c6.451,0.087,14.865,3.528,25.234,10.329c12.729,12.027,20.967,22.356,24.717,30.986
			c1.127,0,3.613,7.497,7.449,22.487l3.529,26.41l-0.654,1.176v13.73c-3.922,19.96-9.458,29.938-16.604,29.938
			c-5.926,0-12.245-1.736-18.956-5.226h-0.651c-7.328,3.138-15.736,4.708-25.234,4.708c-14.647-4.882-23.669-10.854-27.067-17.916
			c-2.268-4.704-4.75-11.591-7.453-20.659c0.787-3.224,1.178-5.314,1.178-6.272l-0.654-2.353c0.872-10.461,5.883-21.75,15.037-33.87
			c8.891-9.235,16.563-13.854,23.012-13.854h3.399c5.925,2.352,9.584,3.531,10.979,3.531v-0.653c0-3.573-10.373-7.192-31.117-10.854
			c-5.752-4.966-8.627-9.416-8.627-13.338v-3.399c0.953,0,4.789-3.614,11.504-10.849C305.365,400.511,308.24,399.16,310.246,399.16
			 M307.367,483.622v1.7c4.272,11.505,9.244,17.26,14.91,17.26c0.346,0,1.524-0.172,3.533-0.524
			c8.799-2.788,13.201-8.363,13.201-16.733v-5.097c0-1.31-0.218-2.271-0.652-2.878c-3.836-7.672-7.627-11.512-11.377-11.512h-2.352
			C317.311,465.838,311.556,471.772,307.367,483.622"/>
		<path fill="#FFFFFF" d="M427.267,360.851c10.284,0,16.3,6.928,18.044,20.789c2.878,17.604,4.313,35.477,4.313,53.604l-0.521,3.792
			l2.223,21.313l-0.522,1.18v5.485c-1.135,29.898-3.704,46.637-7.714,50.21c0,5.053-4.534,9.98-13.6,14.771
			c-2.44,1.484-5.187,2.222-8.234,2.222h-10.461c-6.364,0-13.075-4.18-20.136-12.551c-9.503-17.171-14.252-35.387-14.252-54.652
			c0-26.324,7.847-42.183,23.534-47.594h1.567c4.009,0.438,7.845,1.875,11.509,4.317h0.52c0.789,0,1.181-0.349,1.181-1.049v-1.175
			c0-0.523-0.392-4.883-1.181-13.073v-4.973C416.329,375.057,420.902,360.851,427.267,360.851 M399.418,478.393v0.651
			c1.135,11.245,6.057,16.867,14.771,16.867c6.889-2.438,10.333-7.542,10.333-15.297c0-7.5-4.013-12.594-12.029-15.3
			C406.48,465.316,402.118,469.677,399.418,478.393"/>
		<path fill="#FFFFFF" d="M470.285,335.221c13.942,3.055,20.919,9.766,20.919,20.14c-3.313,10.022-15.654,26.017-24.109,26.017
			c-10.11,0-10.144-15.339-13.021-24.056l0.65-1.307v-2.615C454.727,341.28,459.912,335.221,470.285,335.221 M474.209,393.799
			c5.925,0,10.938,4.969,15.031,14.9c3.056,2.446,4.581,17.87,4.581,46.289v7.195c0,43.402-3.489,67.025-10.462,70.863l-6.535,0.652
			h-0.658c-8.978,0-14.379-18.655-16.209-55.963c-1.743-28.849-2.615-46.196-2.615-52.039c1.654-19.96,4.922-29.939,9.807-29.939
			C467.148,395.233,469.501,394.579,474.209,393.799"/>
		<path fill="#FFFFFF" d="M549.649,401.382c16.478,2.787,26.848,6.799,31.115,12.03c7.063,6.623,12.38,18.088,15.952,34.388
			c1.219,1.916,2.271,10.808,3.139,26.673c0,21.44-4.228,38.177-12.681,50.204c-2.706,2.965-7.583,4.448-14.647,4.448
			c-5.839,0-10.719-7.629-14.641-22.884c-0.872-25.888-3.184-38.828-6.934-38.828c0-1.225-1.086-1.834-3.267-1.834
			c-3.836,4.445-6.797,16.301-8.891,35.563c0,17.086-6.364,27.893-19.092,32.427c-2.27,0.436-4.187,0.651-5.748,0.651h-0.525
			c-8.979,0-13.469-3.833-13.469-11.508c-1.655-4.794-2.481-15.602-2.481-32.423c1.648-7.85,3.572-19.265,5.753-34.257
			c6.188-23.708,15.73-39.836,28.632-48.38C538.053,403.913,543.982,401.816,549.649,401.382"/>
	</g>
</g>
</svg>
