<?xml version="1.0" encoding="utf-8"?>
<!-- Generator: Adobe Illustrator 15.0.2, SVG Export Plug-In . SVG Version: 6.00 Build 0)  -->
<!DOCTYPE svg PUBLIC "-//W3C//DTD SVG 1.1//EN" "http://www.w3.org/Graphics/SVG/1.1/DTD/svg11.dtd">
<svg version="1.1" id="Layer_3" xmlns="http://www.w3.org/2000/svg" xmlns:xlink="http://www.w3.org/1999/xlink" x="0px" y="0px"
	 width="248.596px" height="224.008px" viewBox="0 0 248.596 224.008" enable-background="new 0 0 248.596 224.008"
	 xml:space="preserve">
<g>
	<path fill="#FFFFFF" d="M226.313,41.808c0.92,1.479,1.961,2.77,3.127,3.971c-0.605-0.911-1.223-1.815-1.809-2.738
		c-0.342-0.534-0.662-1.087-0.855-1.684c-0.041-0.119-0.117-0.271-0.01-0.357c0.113-0.095,0.246,0.016,0.363,0.08
		c0.777,0.425,1.555,0.852,2.332,1.279c0.117,0.064,0.229,0.147,0.379,0.157c-0.584-0.607-1.305-1.086-1.807-1.903
		c1.08,0.222,2.037,0.492,2.957,0.947c0.908,0.449,1.803,0.921,2.68,1.435c-0.922-0.719-1.84-1.442-2.887-1.971
		c-0.818-0.411-1.664-0.754-2.52-1.067c-0.092-0.033-0.236-0.03-0.232-0.162c0.004-0.111,0.137-0.122,0.229-0.147
		c0.93-0.275,1.879-0.49,2.873-0.553c0.109-0.007,0.221-0.002,0.318-0.055c-1.51-0.205-2.949-0.016-4.383,0.256
		c0.678-0.819,1.701-1.08,2.797-1.462c-1.234-0.082-2.348-0.158-3.447-0.579c1.328-0.222,2.627-0.49,3.826-1.021
		c-1.141,0.28-2.324,0.344-3.523,0.322c-0.117-0.001-0.285,0.076-0.348-0.084c-0.049-0.122,0.117-0.16,0.197-0.224
		c1.496-1.163,2.74-2.533,3.563-4.255c-1.199,1.401-2.328,2.88-4.104,3.671c-0.035-0.025-0.068-0.051-0.104-0.076
		c0.328-0.745,0.656-1.491,0.984-2.237c-0.014-0.012-0.027-0.022-0.039-0.034c-0.574,0.658-1.146,1.316-1.723,1.974
		c-0.113,0.128-0.199,0.367-0.396,0.304c-0.225-0.073-0.201-0.341-0.217-0.528c-0.092-0.973,0-1.923,0.127-2.865
		c0.086-0.641,0.172-1.28,0.219-1.936c-0.221,0.712-0.52,1.393-0.67,2.132c-0.166,0.833-0.334,1.666-0.398,2.522
		c-0.006,0.08-0.006,0.192-0.111,0.192c-0.113,0-0.172-0.112-0.227-0.196c-0.465-0.727-0.598-1.51-0.645-2.303
		c-0.102-1.707,0.203-3.316,0.813-4.847c0.445-1.126,1.236-1.865,2.584-1.896c0.717-0.019,5.383-0.932,7.541,0.552
		c2.154,1.479,2.895,8.154,2.043,9.119c-0.828,0.938-3.225,1.773-4.635,2.31c0.65,0.069,2.941-0.351,3.504-0.314
		c2.699,0.171,4.93,8.712,4.068,9.732c-0.949,1.125-4.973,2.653-6.174,2.147c-1.66-0.696-2.947-1.844-4.07-3.198
		c-0.912-1.099-1.711-2.257-2.15-3.586C226.221,42.237,226.231,42.192,226.313,41.808"/>
	<path fill="#FFFFFF" d="M222.733,35.418c-0.135-0.923-0.189-1.839-0.467-2.75c-0.17,0.306-0.051,0.655-0.072,0.979
		c-0.021,0.317-0.006,0.642-0.018,0.959c-0.002,0.089,0.051,0.225-0.092,0.234c-0.096,0.009-0.137-0.097-0.189-0.168
		c-0.266-0.359-0.541-0.711-0.793-1.077c-0.74-1.075-2.615-2.756-3.752-3.458c1.596,1.495,3.061,2.936,3.84,4.875
		c-0.705-0.41-1.408-0.816-2.211-1.283c0.227,0.411,0.502,0.654,0.746,0.912c0.432,0.459,0.879,0.9,1.322,1.349
		c0.086,0.087,0.201,0.188,0.17,0.294c-0.043,0.143-0.213,0.104-0.338,0.094c-0.969-0.075-1.91-0.354-2.844-0.662
		c-0.775-0.256-1.563-0.458-2.32-0.789c1.553,0.883,3.176,1.57,4.939,2.095c-0.33,0.25-0.652,0.266-0.953,0.299
		c-1.787,0.192-3.533-0.229-5.25-0.907c-0.781-0.31-1.51-0.727-2.184-1.252c-1.129-0.88-1.672-6.813-0.512-7.909
		c0.793-0.75,4.334-1.611,5.043-2.1c0.752-0.517,1.891-0.44,2.795,0.144c1.145,0.735,1.857,1.783,2.4,2.936
		c0.793,1.68,1.229,3.407,1.127,5.181C223.085,34.098,222.989,34.775,222.733,35.418"/>
	<path fill="#FFFFFF" d="M219.378,36.679c-0.932,0.017-1.846-0.052-2.787,0.105c0.281,0.208,0.643,0.136,0.963,0.198
		c0.313,0.063,0.635,0.089,0.949,0.142c0.084,0.014,0.229-0.021,0.221,0.122c-0.006,0.098-0.117,0.125-0.191,0.167
		c-0.391,0.215-0.777,0.442-1.174,0.646c-1.162,0.592-3.072,2.231-3.916,3.269c1.689-1.386,3.309-2.649,5.334-3.172
		c-0.498,0.646-0.994,1.289-1.563,2.024c0.439-0.171,0.715-0.412,1.002-0.62c0.512-0.367,1.008-0.757,1.512-1.136
		c0.096-0.073,0.211-0.175,0.313-0.131c0.133,0.061,0.074,0.225,0.047,0.348c-0.201,0.951-0.6,1.848-1.025,2.733
		c-0.355,0.734-0.66,1.49-1.088,2.196c1.078-1.424,1.973-2.94,2.723-4.623c0.205,0.36,0.178,0.682,0.172,0.982
		c-0.043,1.798-0.689,3.474-1.586,5.087c-0.408,0.734-0.916,1.404-1.525,2.003c-1.02,1.004-6.973,0.77-7.91-0.525
		c-0.641-0.883-1.031-4.507-1.424-5.274c-0.414-0.812-0.191-1.93,0.506-2.752c0.883-1.037,2.014-1.609,3.227-1.996
		c1.766-0.566,3.537-0.772,5.283-0.441C218.116,36.159,218.776,36.342,219.378,36.679"/>
	<path fill="#FFFFFF" d="M223.298,40.702c-0.58,0.729-1.211,1.395-1.684,2.221c0.336-0.084,0.512-0.41,0.762-0.617
		c0.246-0.202,0.473-0.435,0.711-0.646c0.066-0.059,0.129-0.188,0.236-0.094c0.072,0.066,0.021,0.168,0.006,0.255
		c-0.08,0.439-0.15,0.882-0.244,1.315c-0.277,1.275-0.223,3.792,0.043,5.103c0.002-2.186,0.049-4.238,0.932-6.136
		c0.182,0.794,0.365,1.586,0.574,2.491c0.146-0.448,0.135-0.813,0.156-1.169c0.041-0.627,0.055-1.257,0.08-1.887
		c0.006-0.122,0-0.275,0.098-0.324c0.133-0.066,0.223,0.085,0.301,0.182c0.607,0.76,1.049,1.637,1.461,2.528
		c0.344,0.74,0.732,1.454,1.01,2.232c-0.416-1.735-1.025-3.391-1.848-5.036c0.406,0.069,0.639,0.294,0.867,0.492
		c1.363,1.171,2.25,2.732,2.93,4.449c0.309,0.781,0.504,1.602,0.582,2.451c0.127,1.425-3.83,5.877-5.426,5.779
		c-1.088-0.064-4.139-2.061-4.979-2.245c-0.891-0.193-1.613-1.074-1.807-2.136c-0.244-1.338,0.029-2.575,0.5-3.76
		c0.684-1.726,1.645-3.226,3.008-4.364C222.094,41.349,222.655,40.955,223.298,40.702"/>
	<path fill="#FFFFFF" d="M126.854,66.263c4.789,2.232,9.545,3.712,14.457,4.714c-3.045-1.302-6.113-2.558-9.127-3.924
		c-1.756-0.795-3.488-1.67-4.992-2.909c-0.305-0.25-0.746-0.508-0.641-0.955c0.111-0.475,0.627-0.433,1.018-0.484
		c2.623-0.354,5.248-0.697,7.873-1.039c0.396-0.052,0.807-0.038,1.191-0.304c-2.469-0.522-5.047-0.424-7.676-1.671
		c3-1.487,5.789-2.607,8.814-3.152c2.977-0.536,5.965-0.988,8.982-1.292c-3.48-0.163-6.959-0.353-10.414,0.243
		c-2.699,0.466-5.344,1.176-7.963,1.979c-0.275,0.083-0.625,0.372-0.846,0.006c-0.182-0.306,0.123-0.588,0.297-0.84
		c1.777-2.546,3.709-4.964,6.02-7.059c0.25-0.228,0.523-0.43,0.672-0.757c-4.021,2.357-7.174,5.659-10.19,9.168
		c0.23-3.53,2.262-6.218,4.254-9.371c-3.135,2.157-5.965,4.113-9.36,5.096c2.841-3.167,5.521-6.41,7.512-10.169
		c-2.281,2.965-5.04,5.424-7.985,7.688c-0.293,0.226-0.563,0.761-0.993,0.448c-0.331-0.24,0.007-0.662,0.095-0.992
		c1.613-6.047,2.264-12.166,1.275-18.424c-0.481,6.12-0.662,12.311-3.602,17.894c-0.126-0.005-0.253-0.007-0.379-0.01
		c-0.496-2.656-0.992-5.313-1.487-7.969c-0.051-0.006-0.104-0.012-0.154-0.019c-0.254,2.895-0.504,5.789-0.766,8.682
		c-0.051,0.565,0.155,1.382-0.435,1.59c-0.673,0.237-1.074-0.536-1.439-1.008c-1.91-2.463-3.326-5.219-4.651-8.022
		c-0.898-1.901-1.797-3.806-2.817-5.67c0.699,2.358,1.146,4.778,2.066,7.076c1.037,2.584,2.068,5.165,3.396,7.617
		c0.123,0.227,0.32,0.524,0.061,0.73c-0.271,0.217-0.608,0.03-0.888-0.095c-2.381-1.068-4.06-2.939-5.542-4.994
		c-3.203-4.435-5.253-9.388-6.423-14.712c-0.861-3.916-0.222-7.448,2.987-10.146c1.709-1.437,11.451-12.938,19.245-13.092
		c7.794-0.155,21.136,16.509,20.74,20.772c-0.385,4.154-4.748,11.048-7.244,15.229c1.697-1.069,6.529-6.643,7.953-7.634
		c6.848-4.765,27.033,14.085,26.713,18.521c-0.354,4.885-7.471,16.813-11.256,17.767c-5.232,1.32-10.342,0.7-15.41-0.798
		c-4.111-1.216-8.057-2.81-11.424-5.562C127.372,67.598,127.319,67.464,126.854,66.263"/>
	<path fill="#FFFFFF" d="M115.189,54.948c4.721,0.022,8.737,4.091,8.716,8.827c-0.021,4.753-3.987,8.74-8.669,8.715
		c-4.877-0.028-8.906-4.019-8.87-8.778C106.403,59.024,110.53,54.926,115.189,54.948 M119.733,63.924
		c0.045-2.753-1.749-4.678-4.417-4.736c-2.674-0.058-4.664,1.829-4.718,4.474c-0.056,2.675,1.852,4.639,4.521,4.659
		C117.752,68.34,119.691,66.494,119.733,63.924"/>
	<path fill="#FFFFFF" d="M140.417,32.865c0,0,2.609-15.458,13.953-22.565c4.283-2.683,16.918-3.195,16.918-3.195
		s6.555,13.74,6.271,17.043c-0.568,6.656-4.918,11.874-8.619,17.34c-1.406,2.076-6.225,5.07-6.225,5.07s8.646-12.658,8.572-15.106
		c-0.029-0.937-6.334,8.876-8.572,11.177c-0.57,0.587,6.277-16.83,5.719-16.228c-1.902,2.049-6.768,14.057-6.975,14.325
		c0.078-2.973,2.711-8.963,2.535-11.916c-2.186,2.642-2.916,5.324-5.359,9.039c0.305-1.065,1.15-5.87,1.43-7.011
		c0.246-1.003-4.518,6.629-4.311,5.577c0.58-2.949,5.42-11.041,5.463-14.259c-1.482,5.119-5.816,9.371-9.613,12.869
		c0.561-1.394,1.576-3.276,2.641-5.327c0.342-0.659-4.279,4.355-3.941,3.674c1.77-3.57,8.268-13.01,7.627-15.389
		c-1.656,2.97-7.184,12.144-9.146,14.247c-0.244,0.263,3.166-11.785,2.916-11.534c-0.51,0.511-4.369,9.382-6.037,10.422
		c-0.518,0.321,1.922-4.174,2.613-6.239c0.162-0.477-6.266,7.088-6.084,6.571c0.166-0.479,7.17-12.656,6.338-12.148L140.417,32.865z
		"/>
	<path fill="#FFFFFF" d="M222.505,87.877c-3.125-3.535-7.895-7.332-13.105-9.57c-5.486-2.355-12.643-3.687-18.064-6.168
		c2.543-0.856,6.701-1.009,9.432-0.641c7.742-0.645,18.396-0.072,22.176,8.108C223.837,81.547,223.862,86.211,222.505,87.877"/>
	<path fill="#FFFFFF" d="M158.993,70.23c0,0,42.234-14.531,22.764-69.95c0,0,8.494-3.675,11.725,15.505
		c1.588,9.436-2.934,21.093-1.521,18.484c7.723-14.264,8.146-21.291,10.238-19.479c2.566,2.226,1.42,13.104-0.096,21.188
		c-2.225,11.854-5.516,16.562-5.516,16.562s0.689,0.581,4.203-2.34c2.004-1.666,3.355-4.308,4.484-2.873
		c0,0-1.779,13.802-14.795,18.931c-21.141,8.333-22.125,4.604-22.125,4.604L158.993,70.23z"/>
	<path fill="#FFFFFF" d="M217.966,51.552c0,0-2.928,5.854-6.367,7.441c-1.297,0.598-5.637,0.764-5.637,0.764s1.27-2.381,0.199-5.302
		c-0.76-2.071,1.715-4.013,3.008-5.397c0.494-0.526,1.953-1.193,1.953-1.193s-3.021,3.208-3.137,3.887
		c-0.045,0.259,3.23-2.68,3.959-3.241c0.186-0.143-3.658,4.877-3.475,4.729c0.623-0.502,4.248-4.66,4.318-4.729
		c-0.186,0.817-2.877,3.39-2.996,4.21c0.734-0.657,3.318-3.35,4.178-4.294c-0.139,0.284-2.873,3.557-3.01,3.864
		c-0.123,0.269,4.225-3.811,4.111-3.526c-0.32,0.795-4.713,4.997-4.902,5.884c0.684-1.363,4.961-5.212,6.174-6.053
		c-0.227,0.365-3.486,3.671-3.885,4.201c-0.127,0.17,4.178-3.459,4.049-3.282c-0.672,0.928-5.727,5.715-5.688,6.395
		c0.609-0.766,5.66-5.444,6.305-5.961c0.08-0.063-4.563,5.479-4.482,5.417c0.166-0.123,1.693-2.443,2.197-2.677
		c0.156-0.071-0.748,1.088-1.047,1.636c-0.068,0.128,3.807-4.006,3.73-3.868c-0.07,0.127-4.357,5.512-4.105,5.398L217.966,51.552z"
		/>
	<path fill="#FFFFFF" d="M86.662,119.305c-1.098,0.687-2.417,0.832-3.679,0.103c-0.645,2.182-1.785,5.479-2.799,6.936
		c-0.119,0.212-0.229,0.423-0.354,0.632c-1.05,1.772-2.273,3.269-3.674,4.479c-2.799,2.424-5.692,3.123-8.676,2.097
		c-2.8-0.979-4.502-3.218-5.108-6.716c-0.28-1.586-0.314-3.289-0.104-5.106c0.21-1.819,0.617-3.581,1.225-5.28
		c0.606-1.705,1.376-3.304,2.31-4.797c0.934-1.49,1.982-2.729,3.148-3.707c2.239-1.818,4.454-2.311,6.646-1.472
		c0.467,0.188,0.91,0.176,1.33-0.035c0.42-0.209,0.724-0.547,0.91-1.013c0.188-0.467,0.174-0.911-0.035-1.33
		c-0.21-0.419-0.524-0.725-0.944-0.91c-1.82-0.699-3.64-0.84-5.458-0.419c-1.586,0.419-3.125,1.235-4.618,2.446
		c-1.399,1.168-2.66,2.625-3.779,4.375c-1.12,1.748-2.041,3.639-2.764,5.668c-0.725,2.027-1.201,4.104-1.436,6.228
		c-0.232,2.125-0.186,4.117,0.141,5.981c0.42,2.238,1.189,4.129,2.309,5.668c1.354,1.773,3.031,3.01,5.038,3.709
		c1.26,0.467,2.543,0.699,3.848,0.699c0.841,0,1.773-0.115,2.8-0.352c1.913-0.561,3.754-1.607,5.527-3.146
		c1.492-1.353,2.856-2.986,4.094-4.897c1.234-1.912,2.273-4.034,3.113-6.364v-0.072c0.174,0.049,1.15-3.314,0.979-3.356
		C86.656,119.332,86.658,119.32,86.662,119.305"/>
	<path fill="#FFFFFF" d="M124.576,137.539c-0.233,0-0.453-0.013-0.664-0.035c-0.21-0.023-0.431-0.059-0.665-0.105
		c-1.634-0.372-2.894-1.234-3.779-2.589c-1.818-2.845-1.889-8.021-0.209-15.533v-0.069l0.84-2.938
		c0.372-1.353,0.699-2.601,0.979-3.742c0.28-1.144,0.49-2.155,0.63-3.044c0.14-0.934,0.186-1.621,0.14-2.063
		c-0.047-0.442-0.117-0.758-0.209-0.945c-0.048-0.044-0.117-0.104-0.211-0.174c-0.095-0.07-0.279-0.152-0.561-0.245
		c-0.093,0-0.245,0.013-0.454,0.034c-0.209,0.023-0.524,0.141-0.945,0.35c-0.42,0.211-0.944,0.573-1.573,1.086
		c-0.63,0.516-1.391,1.26-2.275,2.238c-2.286,2.521-4.898,6.041-7.837,10.564c-1.26,1.961-2.438,3.907-3.533,5.844
		c-1.097,1.937-2.063,3.664-2.904,5.178c-0.84,1.518-1.771,3.23-2.799,5.145c-0.186,0.375-0.489,0.643-0.91,0.805
		c-0.42,0.164-0.84,0.176-1.259,0.035c-0.42-0.187-0.723-0.479-0.91-0.875c-0.186-0.396-0.231-0.805-0.14-1.226l8.956-31.348
		c0.094-0.466,0.352-0.815,0.77-1.05c0.421-0.231,0.863-0.278,1.33-0.141c0.514,0.141,0.875,0.409,1.084,0.805
		c0.21,0.396,0.268,0.853,0.176,1.367l-4.898,17l2.099-3.357c1.54-2.379,2.985-4.5,4.339-6.367c1.353-1.863,2.635-3.45,3.849-4.76
		c1.54-1.633,2.915-2.842,4.128-3.637c1.68-1.025,3.171-1.399,4.479-1.119c1.4,0.373,2.402,1.051,3.009,2.027
		c0.746,1.26,0.943,2.869,0.595,4.828c-0.35,1.958-0.945,4.525-1.785,7.696c-0.14,0.468-0.269,0.946-0.385,1.435
		c-0.117,0.49-0.246,0.991-0.385,1.506c-0.469,2.008-0.782,3.73-0.944,5.178c-0.164,1.447-0.235,2.684-0.21,3.707
		c0.021,1.027,0.116,1.854,0.28,2.486c0.164,0.629,0.36,1.105,0.595,1.434c0.419,0.562,0.933,0.912,1.54,1.05
		c1.167,0.233,2.565-0.185,4.198-1.259c1.631-1.073,3.43-2.729,5.387-4.971c0.795-0.933,1.541-1.854,2.242-2.764
		c0.697-0.908,1.293-1.725,1.783-2.447c0.49-0.725,1.037-1.527,1.645-2.414c0.234-0.422,0.582-0.688,1.049-0.805
		s0.91-0.059,1.33,0.174c0.42,0.233,0.688,0.596,0.803,1.086c0.117,0.489,0.061,0.942-0.172,1.363
		c-0.049,0.047-0.223,0.305-0.523,0.77c-0.307,0.469-0.727,1.084-1.262,1.854s-1.166,1.633-1.889,2.589
		c-0.725,0.956-1.504,1.926-2.344,2.903C131.854,135.042,127.983,137.539,124.576,137.539"/>
	<path fill="#FFFFFF" d="M116.252,212.887c-0.328-0.328-0.747-0.49-1.259-0.49c-3.125,0-5.412-0.907-6.856-2.729
		c-1.26-1.494-2.054-3.522-2.38-6.088c-0.324-2.564-0.36-5.422-0.104-8.569c0.256-3.15,0.7-6.474,1.33-9.972
		s1.271-6.951,1.924-10.356c0.792-3.823,1.493-7.485,2.098-10.983c0.607-3.498,0.956-6.67,1.05-9.519
		c0.095-3.312-0.232-5.853-0.979-7.627c-0.98-2.425-2.612-3.94-4.897-4.55c-3.218-0.791-6.996,0.259-11.336,3.15
		c-3.593,2.426-7.371,5.946-11.335,10.563l-1.33,1.61c-0.234-2.754-0.653-5.18-1.259-7.279c-0.466-1.536-1.025-2.819-1.68-3.848
		c-0.653-1.025-1.329-1.854-2.029-2.482c-0.699-0.631-1.411-1.107-2.133-1.436c-0.725-0.326-1.412-0.535-2.064-0.629
		c-4.292-0.699-8.747,1.469-13.364,6.506c-1.633,1.773-3.289,3.932-4.97,6.474c-1.679,2.544-3.381,5.446-5.106,8.711l5.529-19.521
		c0.139-0.561,0.021-1.099-0.352-1.609c-0.466-0.42-1.004-0.606-1.608-0.561c-0.048,0-0.433,0.059-1.154,0.174
		c-0.725,0.119-1.679,0.293-2.869,0.524c-1.189,0.233-2.554,0.515-4.093,0.843c-1.539,0.324-3.149,0.723-4.828,1.188
		c-2.006,0.561-3.849,1.145-5.528,1.748c-1.679,0.605-3.194,1.236-4.547,1.89c-3.687,1.772-6.135,3.709-7.348,5.81
		c-1.213,1.912-1.446,3.918-0.699,6.018c0.185,0.467,0.489,0.809,0.909,1.018s0.862,0.241,1.33,0.104
		c0.466-0.188,0.804-0.489,1.015-0.909c0.21-0.421,0.245-0.862,0.105-1.33c-0.422-1.069-0.306-2.101,0.349-3.078
		c0.839-1.397,2.578-2.774,5.214-4.128c2.635-1.354,6.005-2.611,10.11-3.777c1.958-0.515,3.789-0.944,5.493-1.295
		c1.702-0.353,3.159-0.643,4.374-0.875l-12.105,42.543c-0.048,0.096-0.07,0.258-0.07,0.488v0.069c0,0.468,0.14,0.854,0.419,1.155
		c0.28,0.304,0.631,0.502,1.051,0.594c0.42,0.094,0.814,0.023,1.189-0.209c0.373-0.233,0.629-0.561,0.77-0.979
		c0.98-2.756,1.9-5.236,2.765-7.453c0.863-2.215,1.912-4.711,3.148-7.488c1.234-2.773,2.601-5.607,4.094-8.502
		c3.499-6.67,6.833-11.777,10.005-15.322c3.779-4.104,7.184-5.898,10.217-5.389c2.284,0.42,3.987,2.427,5.106,6.018
		c0.636,2.041,0.94,4.18,1.099,6.307c0.156,2.104-0.584,4.865-0.262,6.672c0.388,2.153,2.36,3.055,3.076,1.151
		c0.691-1.845,2.151-3.705,3.208-5.444c2.765-4.558,7.965-9.004,12.401-11.901c3.359-2.192,6.11-3.009,8.257-2.449
		c1.166,0.28,1.982,1.074,2.449,2.379c0.561,1.54,0.814,3.615,0.771,6.229c-0.095,2.75-0.434,5.818-1.015,9.201
		c-0.585,3.381-1.271,6.961-2.064,10.74c-0.748,3.776-1.446,7.532-2.101,11.264c-0.651,3.732-1.072,7.267-1.259,10.603
		c-0.186,3.334-0.059,6.392,0.385,9.166s1.411,5.073,2.903,6.894c2.146,2.658,5.342,3.987,9.587,3.987
		c0.513,0,0.932-0.161,1.259-0.489c0.326-0.326,0.49-0.746,0.49-1.26C116.742,213.63,116.578,213.212,116.252,212.887"/>
	<path fill="#FFFFFF" d="M198.608,173.56c-0.092-0.465-0.35-0.839-0.77-1.119c-0.42-0.23-0.861-0.291-1.328-0.173
		c-0.467,0.114-0.84,0.384-1.119,0.804c-0.516,0.795-1.051,1.608-1.609,2.449c-0.514,0.746-1.109,1.572-1.785,2.482
		c-0.676,0.908-1.412,1.832-2.203,2.764c-1.959,2.24-3.77,3.885-5.424,4.938c-1.654,1.049-3.043,1.457-4.162,1.224
		c-0.793-0.142-1.354-0.562-1.68-1.261c-0.188-0.325-0.352-0.758-0.49-1.295c-0.139-0.535-0.234-1.227-0.279-2.063
		c-0.047-0.842-0.023-1.843,0.07-3.01c0.092-1.165,0.303-2.563,0.629-4.198c0.84-4.478,2.494-10.19,4.969-17.144
		c0.326-0.793,0.139-1.471-0.561-2.029c-0.326-0.23-0.688-0.337-1.084-0.314c-0.398,0.023-0.736,0.152-1.014,0.387
		c-0.795,0.561-1.531,1.049-2.205,1.471c-0.678,0.419-1.459,0.875-2.344,1.363c-0.887,0.49-1.844,0.943-2.869,1.365
		c-2.182,0.895-4.84,1.713-7.205,1.356c0.615-2.233-2.297-3.797-4.217-3.106c-2.717,0.977,0.139,4.787-0.822,7.137
		c-0.42,1.027-0.854,1.982-1.293,2.869c-0.447,0.888-0.865,1.668-1.264,2.345c-0.396,0.677-0.85,1.411-1.361,2.202
		c-0.281,0.375-0.373,0.807-0.281,1.295c0.094,0.49,0.35,0.875,0.77,1.156c0.373,0.232,0.805,0.304,1.297,0.209
		c0.488-0.092,0.875-0.326,1.154-0.699c0-0.047,0.139-0.28,0.418-0.7s0.619-0.99,1.018-1.713c0.395-0.724,0.838-1.563,1.328-2.521
		c0.49-0.955,0.967-1.972,1.434-3.046l0.771-1.958c2.75,0.422,5.969-0.115,9.654-1.609c0.699-0.324,1.365-0.641,1.994-0.942
		c0.631-0.304,1.227-0.597,1.785-0.875c-0.84,2.474-1.539,4.782-2.1,6.929c-0.561,2.145-1.027,4.129-1.398,5.944
		c-1.168,6.021-1.027,10.333,0.418,12.946c0.934,1.586,2.264,2.563,3.99,2.938c0.232,0.047,0.467,0.081,0.701,0.104
		c0.232,0.023,0.465,0.035,0.699,0.035c3.402,0,7.275-2.496,11.613-7.486c0.84-0.979,1.619-1.947,2.344-2.904
		c0.723-0.955,1.354-1.818,1.891-2.588c0.535-0.771,0.955-1.389,1.258-1.854c0.303-0.467,0.455-0.727,0.455-0.771
		C198.632,174.47,198.702,174.029,198.608,173.56"/>
	<path fill="#FFFFFF" d="M67.415,90.454c-0.722,0-1.384-0.476-1.591-1.202c-0.252-0.879,0.258-1.795,1.137-2.046
		c5.454-1.556,17.986-7.152,21.911-14.528c1.2-2.257,1.442-4.403,0.738-6.563c-1.503-4.608-6.771-5.549-9.776-5.696
		c-11.742-0.576-15.385,20.258-15.421,20.469c-0.151,0.899-1,1.508-1.907,1.354c-0.901-0.152-1.508-1.008-1.354-1.907
		c0.165-0.979,4.253-23.959,18.848-23.221c6.562,0.325,11.21,3.232,12.759,7.976c0.983,3.017,0.659,6.093-0.964,9.144
		c-4.264,8.02-16.938,14.165-23.924,16.157C67.716,90.433,67.566,90.454,67.415,90.454"/>
	<path fill="#FFFFFF" d="M52.511,90.889c-0.936-1.77-0.174-3.947,1.735-4.957c1.908-1.008,4.136-0.41,5.072,1.362
		c0.936,1.771,0.174,3.948-1.733,4.956C55.675,93.26,53.448,92.661,52.511,90.889 M56.393,88.839
		c-0.325-0.615-0.885-0.788-1.053-0.754c-0.055,0.083-0.228,0.643,0.099,1.259c0.324,0.616,0.885,0.79,1.052,0.754
		C56.544,90.014,56.717,89.455,56.393,88.839"/>
	<path fill="#FFFFFF" d="M106.833,97.892c-14.059,0-28.907-2.878-29.936-3.081c-0.897-0.177-1.481-1.046-1.305-1.943
		c0.178-0.896,1.054-1.473,1.944-1.304c11.297,2.229,44.499,6.264,52.125-1.716c0.629-0.66,1.68-0.684,2.34-0.052
		c0.66,0.632,0.686,1.68,0.053,2.341C127.827,96.557,116.407,97.892,106.833,97.892"/>
	<path fill="#FFFFFF" d="M112.628,215.724c-0.914,0-1.654-0.74-1.654-1.652c0-0.914,0.74-1.656,1.654-1.656
		c7.921,0,15.568-3.896,22.65-8.107c6.623-3.939,12.768-7.282,20.912-8.273c9.229-1.121,19.16-0.149,28.723,2.813
		c0.873,0.271,1.361,1.197,1.092,2.07c-0.271,0.873-1.197,1.363-2.07,1.092c-8.99-2.788-18.701-3.742-27.344-2.689
		c-7.516,0.916-13.102,3.955-19.621,7.834C129.481,211.604,121.349,215.724,112.628,215.724"/>
	<path fill="#FFFFFF" d="M53.59,104.335c-0.064-0.276-0.135-0.549-0.208-0.816c-0.617-2.568-6.217-24.022-22.399-31.255
		c-9.602-4.289-19.066-2.334-24.726,0.928c-8.53,4.917-7.663,14.815-1.458,21.325c3.743,3.926,8.72,5.919,13.998,5.619
		c4.875-0.279,10.34-0.98,16.241-2.09c0.898-0.168,1.491-1.031,1.321-1.93c-0.168-0.899-1.04-1.489-1.933-1.322
		c-5.681,1.065-11.149,1.77-15.816,2.036c-6.948,0.396-16.416-6.824-15.678-14.158c1.118-11.14,19.353-10.671,26.699-7.387
		c11.969,5.348,17.756,19.994,19.745,26.272c-0.093,0.347,1.435,6.873,1.17,10.51c-0.188,2.191-0.538,4.177-1.05,5.947
		c-0.514,1.772-1.132,3.358-1.854,4.76c-0.725,1.397-1.506,2.612-2.346,3.64c-0.838,1.025-1.632,1.889-2.378,2.588
		c-1.772,1.634-3.708,2.904-5.808,3.813c-2.099,0.909-4.128,1.32-6.087,1.227c-0.42,0-0.922-0.061-1.504-0.176
		c-0.584-0.115-1.154-0.324-1.715-0.629c-0.56-0.305-2.145-1.482-2.54-2.068c-0.074-0.107-0.181-0.196-0.304-0.277l0.326-2.512
		c0-0.004,0.002-0.01,0.001-0.014l2.976-22.924c0.252-0.888-0.232-1.839-1.116-2.104c-0.011-0.004-0.022-0.008-0.034-0.012
		c-0.946-0.291-1.944,0.209-2.215,1.162l-3.783,29.18c-0.14,0.467-0.106,0.908,0.104,1.328s0.569,0.701,1.085,0.84
		c0.092,0,0.174,0.012,0.244,0.035c0.07,0.021,0.15,0.035,0.245,0.035c0.756,0,1.272-0.311,1.555-0.924
		c0.08,0.081,0.152,0.167,0.237,0.246c1.539,1.447,3.639,2.217,6.297,2.311h0.562c2.378,0,4.768-0.515,7.171-1.539
		c2.402-1.025,4.629-2.494,6.682-4.408c0.888-0.84,1.797-1.842,2.729-3.008c0.934-1.168,1.808-2.543,2.624-4.129
		c0.815-1.586,1.528-3.383,2.135-5.39c0.605-2.006,1.026-4.243,1.26-6.716C54.279,109.269,54.127,106.6,53.59,104.335"/>
	<path fill="#FFFFFF" d="M229.067,110.18c-8.904-8.283-17.596-11.651-25.854-10.013c-13.633,2.709-22.369,20.287-22.666,20.938
		c-0.014,0.024-0.016,0.054-0.027,0.078c-0.324,0.509-0.643,0.981-0.947,1.414c-0.514,0.726-1.109,1.541-1.785,2.448
		c-0.676,0.91-1.434,1.832-2.273,2.765c-1.959,2.239-3.756,3.886-5.389,4.935c-1.633,1.051-3.031,1.459-4.197,1.225
		c-0.652-0.139-1.189-0.514-1.609-1.118c-0.232-0.421-0.432-1.017-0.594-1.785c-0.164-0.771-0.234-1.782-0.209-3.042
		c0.021-1.262,0.195-2.822,0.523-4.688c0.326-1.866,0.838-4.104,1.539-6.719c0.092-0.42,0.035-0.826-0.176-1.226
		c-0.207-0.396-0.523-0.688-0.943-0.875c-0.42-0.14-0.838-0.112-1.26,0.069c-0.418,0.188-0.723,0.49-0.908,0.912
		c-1.959,4.336-3.896,7.72-5.809,10.145c-1.912,2.428-3.545,4.225-4.898,5.391c-1.494,1.213-2.938,2.074-4.338,2.588
		c-1.398,0.516-2.588,0.584-3.568,0.211c-1.354-0.516-2.191-1.682-2.518-3.5c-0.328-1.819-0.117-4.06,0.629-6.719
		c0.465-1.724,1.061-3.299,1.783-4.723c0.723-1.422,1.469-2.693,2.24-3.813c0.77-1.121,1.525-2.101,2.271-2.939
		c0.748-0.839,1.4-1.516,1.959-2.027c1.82-1.635,3.477-2.753,4.969-3.359c2.219-0.899,4.564-0.139,6.063,1.664
		c0.773,0.934,1.291,2.117,1.471,3.313c0.152,1.028-0.35,2.453,0.23,3.347c0.256,0.396,0.615,0.644,1.084,0.734
		c0.512,0.094,0.967,0.021,1.363-0.211c2.605-1.534,0.641-6.336-0.217-8.252c-1.902-4.264-6.936-5.7-11.113-3.952
		c-2.006,0.839-4.059,2.238-6.156,4.196c-2.24,2.008-4.154,4.305-5.738,6.893c-1.586,2.592-2.773,5.331-3.568,8.223
		c-0.514,1.773-0.816,3.43-0.91,4.971c-0.094,1.539,0.047,2.938,0.42,4.197c0.699,2.613,2.215,4.359,4.547,5.246
		c0.746,0.279,1.586,0.422,2.52,0.422c1.025,0,2.006-0.164,2.939-0.49c1.959-0.561,3.918-1.68,5.877-3.359
		c2.145-1.771,4.244-4.128,6.297-7.064c-0.281,3.547,0.141,6.229,1.258,8.047c0.84,1.447,2.125,2.355,3.85,2.729
		c0.232,0.049,0.455,0.082,0.666,0.105c0.209,0.023,0.43,0.033,0.664,0.033c3.451,0,7.322-2.494,11.613-7.486
		c0.84-0.979,1.633-1.947,2.381-2.902c0.744-0.955,1.375-1.818,1.891-2.59c0.512-0.771,11.652-19.203,21.416-21.145
		c7.152-1.428,14.873,1.67,22.953,9.188c16.662,15.498,20.16,33.385,17.832,45.619c-0.27,0.248-1.207,4.395-1.77,5.957
		c-0.037,0.081-0.066,0.167-0.096,0.252c-5.592,15.043-23.75,21.143-23.951,21.205c-0.047,0.018-0.094,0.031-0.139,0.055
		c-2,0.85-3.906,1.777-5.723,2.758c0.697-1.754,1.236-3.176,1.582-4.111l3.91-9.377c0.221-0.631,0.438-1.26,0.652-1.887
		c0.979-2.895,1.818-5.469,2.518-7.731s1.471-4.794,2.311-7.593c0.139-0.465,0.104-0.908-0.105-1.329
		c-0.209-0.419-0.549-0.7-1.018-0.839c-0.465-0.143-0.908-0.116-1.328,0.07c-0.42,0.188-0.699,0.512-0.838,0.979
		c-0.795,1.865-1.518,3.545-2.17,5.035c-0.654,1.494-1.436,3.186-2.344,5.074c-0.91,1.89-1.902,3.813-2.975,5.771
		c-1.82,3.357-3.463,6.007-4.934,7.941c-1.469,1.938-2.74,3.396-3.813,4.373c-1.076,0.979-1.973,1.586-2.695,1.817
		c-0.725,0.233-1.248,0.328-1.574,0.281c-0.699-0.048-1.213-0.351-1.537-0.911c-0.143-0.23-0.281-0.596-0.42-1.084
		c-0.143-0.488-0.246-1.152-0.318-1.994c-0.066-0.838-0.057-1.865,0.037-3.076c0.094-1.215,0.303-2.705,0.629-4.479
		c0.42-2.38,1.063-5.024,1.924-7.94c0.863-2.912,1.9-6.121,3.115-9.619c0.186-0.469,0.174-0.91-0.037-1.332
		c-0.207-0.418-0.547-0.723-1.014-0.908c-0.467-0.141-0.908-0.115-1.33,0.07c-0.42,0.188-0.723,0.512-0.91,0.979
		c-2.518,7.09-4.268,13.132-5.248,18.123c-1.166,6.202-0.957,10.563,0.629,13.084c0.885,1.493,2.24,2.356,4.059,2.588h0.631
		c3.824,0,8.045-3.593,12.664-10.772c-0.092,0.231-0.186,0.479-0.279,0.733c-0.094,0.257-0.188,0.501-0.281,0.733l-1.607,4.06
		c0,0-0.549,1.415-1.455,3.653c-0.4,0.771-0.791,1.566-1.135,2.384c-7.367,4.704-12.754,9.925-15.766,13.19
		c-5.246,5.688-10.373,13.195-9.029,17.203c0.27,0.801,1.125,2.396,3.67,2.396c0.574,0,1.234-0.081,1.992-0.271
		c5.391-1.35,11.4-8.675,17.865-21.771c1.449-2.939,2.768-5.855,3.895-8.487c2.826-1.745,5.848-3.345,9.037-4.706
		c0.746-0.25,6.414-2.229,12.479-6.529c6.578-4.666,11.164-10.367,13.506-16.721c0.623-1.474,1.152-3.08,1.574-4.797
		C250.716,147.574,247.569,127.392,229.067,110.18 M188.329,220.514c-1.297,0.323-1.686,0.096-1.688,0.096
		c-0.004-0.002-0.23-0.388,0.117-1.661c1.242-4.543,8.242-14.033,18.939-21.953C200.76,207.617,194.108,219.07,188.329,220.514"/>
	<path fill="#FFFFFF" d="M84.807,122.063c-0.154,0-0.312-0.021-0.468-0.065c-0.599-0.176-1.024-0.66-1.152-1.229
		c-0.611-0.161-1.187-0.36-1.713-0.608c-3.826-1.806-8.607-7.304-7.705-12.154c0.353-1.899,1.424-3.254,3.015-3.813
		c2.821-0.986,6.307,0.787,7.963,2.225c3.352,2.904,3.239,7.529,2.395,11.545c3.407,0.093,7.463-0.639,10.097-1.385
		c2.091-0.597,3.51-1.103,4.167-2.649c0.356-0.845,1.331-1.238,2.176-0.882c0.843,0.355,1.238,1.33,0.88,2.175
		c-1.326,3.131-4.328,3.983-6.314,4.548c-2.854,0.813-7.698,1.732-11.9,1.465C85.948,121.746,85.398,122.063,84.807,122.063
		 M78.539,107.226c-0.245,0-0.467,0.031-0.66,0.1c-0.194,0.067-0.65,0.229-0.848,1.287c-0.564,3.029,3.166,7.271,5.859,8.543
		c0.291,0.139,0.608,0.256,0.949,0.354c0.935-4.282,0.52-7.04-1.268-8.589C81.525,108.014,79.768,107.226,78.539,107.226"/>
	<path fill="#FFFFFF" d="M73.162,186.893c-0.234,0-0.472-0.037-0.708-0.117c-1.157-0.392-1.779-1.646-1.388-2.805l7.202-21.293
		c0.39-1.159,1.646-1.779,2.804-1.388c1.158,0.391,1.779,1.646,1.387,2.805l-7.201,21.294
		C74.948,186.311,74.086,186.893,73.162,186.893"/>
	<path fill="#FFFFFF" d="M158.952,169.984c-1.424,2.268-2.223,3.885-2.309,4.072c-0.014,0.025-0.018,0.053-0.027,0.08
		c-0.324,0.507-0.641,0.98-0.947,1.414c-0.514,0.723-1.107,1.539-1.783,2.447c-0.678,0.912-1.436,1.832-2.273,2.765
		c-1.959,2.239-3.756,3.884-5.389,4.935s-3.031,1.459-4.197,1.225c-0.654-0.139-1.189-0.514-1.609-1.119
		c-0.234-0.42-0.432-1.016-0.594-1.784c-0.166-0.771-0.236-1.783-0.211-3.044c0.021-1.26,0.199-2.82,0.523-4.688
		c0.326-1.865,0.84-4.105,1.539-6.72c0.09-0.396,0.037-0.78-0.145-1.155c2.287-1.666,0.406-6.254-0.426-8.115
		c-1.902-4.264-6.938-5.699-11.113-3.953c-2.006,0.842-4.059,2.24-6.157,4.197c-2.24,2.008-4.151,4.306-5.738,6.895
		s-2.773,5.331-3.567,8.223c-0.513,1.772-0.815,3.43-0.91,4.969c-0.092,1.541,0.048,2.938,0.42,4.197
		c0.7,2.611,2.215,4.36,4.549,5.248c0.746,0.278,1.585,0.42,2.52,0.42c1.023,0,2.005-0.162,2.938-0.488
		c1.959-0.563,3.918-1.68,5.877-3.36c2.145-1.771,4.244-4.128,6.297-7.065c-0.279,3.547,0.141,6.229,1.26,8.047
		c0.84,1.447,2.123,2.354,3.848,2.729c0.234,0.046,0.455,0.083,0.666,0.104c0.209,0.023,0.43,0.035,0.666,0.035
		c3.451,0,7.322-2.494,11.615-7.485c0.84-0.981,1.631-1.948,2.379-2.905c0.746-0.955,1.375-1.816,1.889-2.588
		c0.15-0.225,1.203-1.95,2.859-4.326C160.565,172.13,159.753,171.061,158.952,169.984 M138.385,168.449
		c-1.959,4.338-3.896,7.721-5.807,10.146c-1.914,2.426-3.547,4.222-4.898,5.388c-1.492,1.214-2.939,2.075-4.339,2.589
		c-1.398,0.516-2.588,0.584-3.567,0.213c-1.354-0.517-2.193-1.682-2.521-3.5c-0.326-1.82-0.117-4.062,0.631-6.72
		c0.466-1.724,1.061-3.299,1.784-4.723c0.724-1.423,1.47-2.693,2.24-3.813c0.768-1.119,1.526-2.1,2.271-2.939
		c0.747-0.838,1.401-1.516,1.961-2.026c1.818-1.635,3.473-2.755,4.967-3.358c2.217-0.901,4.563-0.142,6.061,1.664
		c0.775,0.932,1.293,2.117,1.473,3.313c0.146,0.975-0.295,2.302,0.146,3.197C138.622,168.035,138.487,168.224,138.385,168.449"/>
</g>
</svg>
