<?xml version="1.0" encoding="utf-8"?>
<!-- Generator: Adobe Illustrator 15.0.2, SVG Export Plug-In . SVG Version: 6.00 Build 0)  -->
<!DOCTYPE svg PUBLIC "-//W3C//DTD SVG 1.1//EN" "http://www.w3.org/Graphics/SVG/1.1/DTD/svg11.dtd">
<svg version="1.1" id="Layer_3" xmlns="http://www.w3.org/2000/svg" xmlns:xlink="http://www.w3.org/1999/xlink" x="0px" y="0px"
	 width="505.676px" height="362.827px" viewBox="0 0 505.676 362.827" enable-background="new 0 0 505.676 362.827"
	 xml:space="preserve">
<g>
	<polygon fill="#FFFFFF" points="129.605,149.312 119.3,146.021 99.625,162.738 99.625,267.887 147.271,227.899 129.605,222.181 	
		"/>
	<polygon fill="#FFFFFF" points="372.873,249.332 372.873,355.19 492.971,254.399 401.596,225.227 	"/>
	<path fill="#FFFFFF" d="M304.227,220.67c-0.901-0.316-1.774-0.478-2.589-0.478c-0.989,0-1.864,0.245-2.522,0.714
		c-1.024,0.725-1.564,1.966-1.564,3.59c0,3.993,3.203,8.136,7.457,9.633c2.035,0.71,3.896,0.625,5.115-0.238
		c1.024-0.725,1.564-1.967,1.564-3.591C311.688,226.306,308.482,222.167,304.227,220.67"/>
	<path fill="#FFFFFF" d="M402.085,163.272c-1.361-0.494-2.827-0.175-4.18,0.87l-1.993,1.54l3.4,1.223l2.612-2.018
		c0.681-0.528,0.889-0.93,0.862-1.113C402.762,163.645,402.569,163.446,402.085,163.272"/>
	<polygon fill="#FFFFFF" points="368.724,193.341 364.682,192.975 366.784,194.839 	"/>
	<path fill="#FFFFFF" d="M464.235,118.403l-0.061-0.024c-0.985-0.353-2.092-0.523-3.215-0.523c-2.077,0-4.188,0.58-5.564,1.645
		c-0.592,0.456-1.271,1.17-1.147,1.976c0.125,0.765,0.952,1.481,2.276,1.958c2.856,1.032,6.711,0.55,8.817-1.082
		c0.599-0.463,1.288-1.187,1.164-1.998C466.382,119.59,465.558,118.877,464.235,118.403"/>
	<path fill="#FFFFFF" d="M354.904,66.726L218.69,126.05l37.387-89.944L138.498,0L0.941,111.399v135.487l89.58,28.625V139.026
		l73.569-53.664l-25.382,68.152v0.371v61.55l106.487,35.46l-0.003-62.074l98.117-47.892l-70.882,54.196v138.514l91.347,29.188
		v-139.58l141.129-110.273L354.904,66.726z M302.236,252.196V241.19l4.591,1.616v11.005l4.544,1.602v-12.451l4.593,1.617v17.398
		l-1.678-0.598l-21.013-7.395v-17.25l4.59,1.621v12.304L302.236,252.196z M295.883,259.506l0.934-0.836l3.455,3.826l-0.966,0.844
		c-1.215,1.059-1.757,2.324-1.757,4.1c0,2.006,1.004,3.756,2.444,4.262c0.463,0.16,0.779,0.203,0.944,0.115
		c0.202-0.115,0.75-0.662,1.362-3.297c0.67-2.857,1.665-4.563,3.136-5.369c1.183-0.65,2.574-0.678,4.242-0.084
		c3.93,1.383,6.572,5.439,6.572,10.09c0,3.58-1.184,6.154-3.722,8.105L311.569,282l-3.29-3.945l1.057-0.795
		c1.691-1.277,2.348-2.656,2.348-4.91c0-2.154-1.048-3.973-2.616-4.523c-0.459-0.17-0.78-0.207-0.936-0.115
		c-0.199,0.109-0.72,0.631-1.278,3.092c-0.721,3.051-1.696,4.768-3.165,5.57c-1.182,0.646-2.597,0.664-4.33,0.051
		c-3.694-1.301-6.377-5.406-6.377-9.764C292.985,263.465,293.851,261.325,295.883,259.506 M315.961,314.391l-12.977-4.564
		l7.446,7.686v1.531l-8.14,2.686l13.67,4.813v4.885l-22.688-7.986v-4.117l9.933-3.137l-9.933-10.125v-4.605l1.678,0.6l21.01,7.395
		V314.391z M313.658,301.276c-1.013,0.715-2.26,1.076-3.713,1.076c-1.237,0-2.616-0.264-4.103-0.787l-12.567-4.424v-4.945
		l13.259,4.668c1.869,0.654,3.345,0.703,4.15,0.129c0.647-0.455,0.976-1.369,0.976-2.715c0-3.297-2.12-5.934-5.817-7.24
		l-12.567-4.42v-4.941l13.233,4.654c6.118,2.154,9.775,6.918,9.775,12.744C316.28,297.917,315.373,300.061,313.658,301.276
		 M313.073,238.205c-1.306,0.926-2.956,1.415-4.781,1.415c-1.313,0-2.679-0.247-4.065-0.737c-6.44-2.269-11.302-8.794-11.302-15.185
		c0-3.147,1.121-5.605,3.237-7.103c2.273-1.61,5.495-1.86,8.843-0.68c6.444,2.269,11.302,8.796,11.302,15.185
		C316.309,234.251,315.188,236.707,313.073,238.205 M348.572,289.745l-22.688-6.992v-7.926c0-3.406,1.191-6.162,3.348-7.756
		c2.13-1.574,5.053-1.902,8.226-0.92c6.442,1.984,11.114,8.344,11.114,15.119V289.745L348.572,289.745z M348.572,265.565
		l-22.688-6.994v-16.987l4.239,1.308v12.47l4.896,1.508v-11.158l4.242,1.309v11.158l5.07,1.564l0.002-12.624l4.241,1.31v17.136
		H348.572z M348.572,242.606l-22.688-6.994v-4.517l18.415,5.677v-11.509l4.275,1.317L348.572,242.606z M352.971,215.797
		l-20.991-7.565l5.461-4.221l14.894,5.367l7.602-5.875l6.1,2.2L352.971,215.797z M380.616,194.438l-4.655-0.383l-5.311,4.102
		l2.392,2.131l-5.539,4.28l-14.002-13.122l4.925-3.806l0.223,0.014l28.039,2.092L380.616,194.438z M393.625,184.385l-6.222,4.808
		l-20.99-7.565l6.908-5.336c5.538-4.279,13.051-5.625,19.146-3.431c3.066,1.105,4.828,2.745,5.145,4.755
		C397.847,179.119,397.35,181.513,393.625,184.385 M414.922,167.93l-9.115,0.298l-0.902,0.694l5.957,2.146l-5.464,4.223
		l-20.992-7.565l8.278-6.396c2.369-1.832,4.901-2.94,7.529-3.3c2.141-0.318,4.247-0.114,6.254,0.606
		c1.826,0.659,2.955,1.547,3.408,2.658c0.25,0.617,0.29,1.274,0.118,1.965l11.574-0.461L414.922,167.93z M423.785,161.082
		l-20.988-7.565l5.484-4.236l20.989,7.564L423.785,161.082z M432.284,154.519l-20.992-7.567l5.463-4.219l14.894,5.367l7.603-5.875
		l6.097,2.199L432.284,154.519z M447.885,142.462l-20.992-7.561l5.462-4.223l14.893,5.369l7.602-5.876l6.099,2.198L447.885,142.462z
		 M470.937,125.098c-3.327,2.569-8.135,3.982-12.745,3.982c-2.258,0-4.462-0.337-6.424-1.042l-0.058-0.022
		c-3.021-1.087-4.867-2.88-5.21-5.042c-0.335-2.112,0.839-4.32,3.298-6.22c4.958-3.827,13.199-5.089,19.172-2.938
		c3.075,1.109,4.928,2.9,5.266,5.064C474.567,120.991,473.397,123.196,470.937,125.098"/>
	<path fill="#FFFFFF" d="M387.741,177.474c-2.937-1.057-6.284-0.495-8.795,1.444l-0.919,0.707l8.684,3.129l1.514-1.168
		c1.143-0.885,1.716-1.741,1.609-2.424C389.73,178.525,388.99,177.924,387.741,177.474"/>
	<path fill="#FFFFFF" d="M336.227,271.311c-1.888-0.582-3.549-0.443-4.685,0.396c-1.14,0.84-1.738,2.318-1.738,4.285v3.713
		l13.279,4.092v-3.201C343.084,276.375,340.266,272.555,336.227,271.311"/>
</g>
</svg>
