<?xml version="1.0" encoding="utf-8"?>
<!-- Generator: Adobe Illustrator 16.0.0, SVG Export Plug-In . SVG Version: 6.00 Build 0)  -->
<!DOCTYPE svg PUBLIC "-//W3C//DTD SVG 1.1//EN" "http://www.w3.org/Graphics/SVG/1.1/DTD/svg11.dtd">
<svg version="1.1" xmlns="http://www.w3.org/2000/svg" xmlns:xlink="http://www.w3.org/1999/xlink" x="0px" y="0px"
	 width="312.227px" height="221.951px" viewBox="87.338 69.21 312.227 221.951"
	 enable-background="new 87.338 69.21 312.227 221.951" xml:space="preserve">
<g id="Capa_2">
</g>
<g id="Layer_3">
	<g>
		<polygon fill="#FFFFFF" points="169.986,160.548 163.682,158.535 151.646,168.761 151.646,233.084 180.792,208.622 
			169.986,205.124 		"/>
		<polygon fill="#FFFFFF" points="318.799,221.733 318.799,286.489 392.266,224.832 336.369,206.987 		"/>
		<path fill="#FFFFFF" d="M276.807,204.199c-0.552-0.193-1.086-0.292-1.584-0.292c-0.605,0-1.141,0.15-1.543,0.437
			c-0.627,0.443-0.957,1.203-0.957,2.196c0,2.443,1.959,4.977,4.562,5.893c1.245,0.434,2.384,0.382,3.129-0.146
			c0.627-0.443,0.957-1.203,0.957-2.196C281.37,207.647,279.409,205.115,276.807,204.199"/>
		<path fill="#FFFFFF" d="M336.669,169.088c-0.833-0.302-1.729-0.107-2.558,0.532l-1.219,0.942l2.08,0.748l1.598-1.234
			c0.416-0.323,0.544-0.569,0.527-0.681C337.083,169.316,336.965,169.194,336.669,169.088"/>
		<polygon fill="#FFFFFF" points="316.261,187.482 313.788,187.258 315.074,188.398 		"/>
		<path fill="#FFFFFF" d="M374.688,141.64l-0.037-0.015c-0.603-0.216-1.279-0.32-1.967-0.32c-1.271,0-2.562,0.355-3.404,1.006
			c-0.361,0.279-0.777,0.716-0.701,1.209c0.076,0.468,0.582,0.906,1.393,1.198c1.747,0.631,4.104,0.336,5.394-0.662
			c0.366-0.283,0.788-0.726,0.712-1.222C376.001,142.366,375.496,141.93,374.688,141.64"/>
		<path fill="#FFFFFF" d="M307.807,110.028l-83.326,36.29l22.871-55.021L175.426,69.21l-84.147,68.146v82.881l54.798,17.511v-83.492
			l45.004-32.828l-15.527,41.69v0.227v37.652l65.141,21.692l-0.002-37.972l60.021-29.297l-43.36,33.153v84.732l55.879,17.855
			v-85.385l86.332-67.457L307.807,110.028z M275.589,223.485v-6.733l2.808,0.988v6.733l2.78,0.979v-7.616l2.81,0.989v10.644
			l-1.026-0.367l-12.854-4.523v-10.552l2.809,0.991v7.527L275.589,223.485z M271.702,227.957l0.571-0.511l2.113,2.34l-0.591,0.516
			c-0.743,0.647-1.075,1.422-1.075,2.508c0,1.226,0.614,2.297,1.496,2.607c0.283,0.098,0.477,0.124,0.577,0.07
			c0.124-0.07,0.459-0.405,0.833-2.017c0.41-1.748,1.02-2.791,1.919-3.284c0.724-0.397,1.574-0.414,2.595-0.051
			c2.404,0.846,4.021,3.327,4.021,6.172c0,2.19-0.724,3.765-2.276,4.958l-0.587,0.452l-2.013-2.414l0.646-0.486
			c1.034-0.781,1.437-1.624,1.437-3.003c0-1.319-0.642-2.431-1.601-2.767c-0.281-0.104-0.478-0.127-0.572-0.072
			c-0.122,0.068-0.44,0.387-0.782,1.892c-0.44,1.867-1.037,2.916-1.937,3.408c-0.723,0.395-1.588,0.406-2.648,0.031
			c-2.26-0.796-3.9-3.307-3.9-5.973C269.93,230.378,270.459,229.069,271.702,227.957 M283.984,261.532l-7.938-2.793l4.555,4.701
			v0.938l-4.979,1.643l8.362,2.943v2.988l-13.879-4.886v-2.519l6.076-1.918l-6.076-6.194v-2.817l1.026,0.366l12.853,4.524V261.532z
			 M282.575,253.508c-0.619,0.437-1.382,0.658-2.271,0.658c-0.757,0-1.601-0.162-2.51-0.482l-7.688-2.706v-3.025l8.11,2.856
			c1.144,0.4,2.046,0.43,2.539,0.079c0.396-0.279,0.597-0.838,0.597-1.66c0-2.017-1.297-3.63-3.559-4.429l-7.688-2.705v-3.023
			l8.095,2.848c3.743,1.318,5.979,4.232,5.979,7.796C284.18,251.454,283.625,252.764,282.575,253.508 M282.218,214.926
			c-0.799,0.566-1.809,0.865-2.925,0.865c-0.803,0-1.639-0.151-2.486-0.451c-3.94-1.388-6.914-5.38-6.914-9.289
			c0-1.925,0.686-3.429,1.98-4.345c1.391-0.985,3.361-1.138,5.409-0.416c3.942,1.388,6.913,5.381,6.913,9.289
			C284.197,212.507,283.512,214.01,282.218,214.926 M303.934,246.454l-13.879-4.277v-4.849c0-2.083,0.729-3.77,2.049-4.744
			c1.303-0.963,3.09-1.163,5.031-0.563c3.94,1.214,6.799,5.104,6.799,9.249V246.454L303.934,246.454z M303.934,231.663
			l-13.879-4.279v-10.391l2.594,0.8v7.628l2.994,0.923v-6.826l2.596,0.801v6.825l3.102,0.957l0.001-7.722l2.595,0.801v10.483
			H303.934z M303.934,217.618l-13.879-4.278v-2.763l11.266,3.473v-7.041l2.615,0.806L303.934,217.618z M306.624,201.219
			l-12.841-4.628l3.341-2.582l9.11,3.283l4.65-3.594l3.731,1.346L306.624,201.219z M323.536,188.153l-2.849-0.234l-3.248,2.509
			l1.463,1.304l-3.389,2.618l-8.565-8.027l3.013-2.328l0.137,0.009l17.151,1.279L323.536,188.153z M331.493,182.003l-3.806,2.941
			l-12.84-4.628l4.226-3.264c3.388-2.618,7.983-3.441,11.711-2.099c1.877,0.676,2.954,1.679,3.147,2.909
			C334.076,178.781,333.771,180.246,331.493,182.003 M344.521,171.937l-5.576,0.182l-0.553,0.425l3.645,1.313l-3.342,2.583
			l-12.842-4.628l5.064-3.912c1.449-1.121,2.998-1.799,4.605-2.019c1.31-0.195,2.598-0.07,3.826,0.371
			c1.116,0.403,1.807,0.946,2.084,1.626c0.153,0.377,0.178,0.779,0.072,1.202l7.081-0.282L344.521,171.937z M349.943,167.748
			l-12.84-4.628l3.355-2.591l12.84,4.627L349.943,167.748z M355.143,163.733l-12.842-4.629l3.342-2.581l9.11,3.283l4.651-3.594
			l3.729,1.345L355.143,163.733z M364.686,156.358l-12.842-4.625l3.342-2.583l9.109,3.284l4.65-3.594l3.73,1.344L364.686,156.358z
			 M378.787,145.736c-2.036,1.571-4.977,2.436-7.797,2.436c-1.381,0-2.729-0.206-3.93-0.638l-0.035-0.013
			c-1.848-0.665-2.978-1.762-3.188-3.084c-0.204-1.292,0.514-2.643,2.018-3.805c3.033-2.341,8.074-3.113,11.729-1.797
			c1.881,0.678,3.014,1.774,3.221,3.098C381.008,143.223,380.292,144.572,378.787,145.736"/>
		<path fill="#FFFFFF" d="M327.895,177.775c-1.797-0.646-3.845-0.303-5.381,0.883l-0.562,0.433l5.312,1.914l0.926-0.715
			c0.699-0.541,1.05-1.065,0.985-1.483C329.111,178.418,328.658,178.051,327.895,177.775"/>
		<path fill="#FFFFFF" d="M296.382,235.178c-1.155-0.356-2.172-0.271-2.866,0.242c-0.697,0.514-1.063,1.419-1.063,2.621v2.272
			l8.123,2.503v-1.958C300.576,238.276,298.852,235.939,296.382,235.178"/>
	</g>
</g>
</svg>
