<?xml version="1.0" encoding="utf-8"?>
<!-- Generator: Adobe Illustrator 15.0.2, SVG Export Plug-In . SVG Version: 6.00 Build 0)  -->
<!DOCTYPE svg PUBLIC "-//W3C//DTD SVG 1.1//EN" "http://www.w3.org/Graphics/SVG/1.1/DTD/svg11.dtd">
<svg version="1.1" id="Layer_3" xmlns="http://www.w3.org/2000/svg" xmlns:xlink="http://www.w3.org/1999/xlink" x="0px" y="0px"
	 width="506.958px" height="343.778px" viewBox="0 0 506.958 343.778" enable-background="new 0 0 506.958 343.778"
	 xml:space="preserve">
<g>
	<path fill="#FFFFFF" d="M250.22,260.703c0,0-22.865-1.873-31.488,9.37c-8.621,11.244,0,14.992,3.751,14.992
		C226.232,285.065,239.721,280.942,250.22,260.703"/>
	<path fill="#FFFFFF" d="M256.708,260.893c0,0,22.861-1.874,31.485,9.371c8.62,11.244,0,14.993-3.749,14.993
		C280.697,285.257,267.202,281.135,256.708,260.893"/>
	<path fill="#FFFFFF" d="M252.229,261.471c0,0-6.621,11.027-12.072,16.959c-5.063,5.505-3.498,12.681,0.649,15.944
		c3.971,3.125,5.342,3.748,6.842,5.109c2.59,2.343,4.297,4.439,5.005,5.54c0.825,1.273,1.198,0.747,1.797-0.046
		c1.122-1.479,1.789-1.907,8.731-7.655c8.701-7.207,6.134-15.809,3.521-18.669c-3.811-4.172-9.805-13.461-12.068-17.273
		C254.351,260.9,253.317,259.933,252.229,261.471"/>
	<path fill="#FFFFFF" d="M21.715,311.581c-4.45-1.188-8.483-2.845-12.321-4.875c-3.55-1.878-7.903-4.284-8.635-7.982
		c-0.514-2.64,2.519-4.753,5.626-4.434c3.839,0.399,6.378,2.953,9.105,4.787c2.934,1.98,5.729,4.056,8.879,5.831
		c6.687,3.761,13.621,5.426,22.246,5.235c0.398-0.008,0.53,0.436,0.146,0.611C38.929,314.406,29.235,313.583,21.715,311.581"/>
	<path fill="#FFFFFF" d="M25.341,270.883c-2.281,3.101-1.409,6.889-0.735,9.989c0.729,3.354,2.025,6.424,3.688,9.457
		c2.79,5.076,8.159,10.288,15.299,11.307c0.358,0.051,0.601-0.335,0.363-0.52c-5.269-4.015-7.899-8.487-9.25-14.446
		c-0.624-2.756-0.838-5.672-0.974-8.52c-0.124-2.62,0.044-5.801-1.863-7.861C30.281,268.575,26.959,268.685,25.341,270.883"/>
	<path fill="#FFFFFF" d="M154.963,303.1c-0.168-3.035,2.687-6.039,4.989-8.503c2.49-2.666,5.296-4.983,8.389-7.2
		c5.182-3.71,12.598-7.032,19.144-6.501c0.324,0.026,0.316,0.396,0.009,0.506c-6.657,2.341-11.368,5.571-15.838,10.296
		c-2.067,2.186-3.884,4.586-5.592,6.944c-1.572,2.165-3.215,4.861-5.968,6.219C157.8,305.987,155.087,305.252,154.963,303.1"/>
	<path fill="#FFFFFF" d="M62.607,252.754c12.022-5.537,29.032-3.869,36.185,4.653c3.804,4.527,6.085,15.816,4.366,22.127
		c-1.04,3.802-2.933,7.803-5.932,10.328c-3.634,3.061-12.24,4.397-17.406,0.38c-4.775-3.712-6.278-9.251-2.867-14.631
		c2.485-3.918,6.14-3.974,8.597-6.104c1.202-1.043,2.862-2.081,2.866-3.527c0.014-6.146-6.81-7.522-13.158-7.298
		c-5.382,0.195-20.664,4.884-22.179,21.58c-0.802,8.834,3.384,17.553,9.816,24.613c11.761,12.908,31.366,17.958,43.705,12.529
		c9.561-4.209,18.168-11.286,25.245-18.362c11.86-11.859,17.324-16.72,25.154-22.855c0.853-0.672,19.781-16.507,40.511-4.741
		c0.923,0.521-0.078,1.89-1.161,1.543c-29.517-9.443-46.812,17.542-68.615,38.486c-16.305,15.661-52.789,23.811-76.22-7.08
		C41.061,290.619,38.725,263.766,62.607,252.754"/>
	<path fill="#FFFFFF" d="M51.325,245.678c0,3.306,2.683,5.986,5.988,5.986c3.306,0,5.987-2.682,5.987-5.986
		c0-3.307-2.68-5.985-5.987-5.985C54.006,239.694,51.325,242.372,51.325,245.678"/>
	<path fill="#FFFFFF" d="M40.813,256.084c-0.138,1.949,1.336,3.644,3.282,3.782c1.955,0.134,3.649-1.333,3.784-3.285
		c0.135-1.949-1.333-3.643-3.285-3.782C42.642,252.667,40.952,254.134,40.813,256.084"/>
	<path fill="#FFFFFF" d="M37.509,268.57c-0.112,1.602,1.097,2.994,2.699,3.107c1.602,0.114,2.995-1.094,3.109-2.696
		c0.112-1.604-1.099-2.997-2.701-3.109C39.015,265.757,37.622,266.967,37.509,268.57"/>
	<path fill="#FFFFFF" d="M73.741,331.845c-3.279,0.408-5.608,3.4-5.201,6.68c0.409,3.286,3.401,5.615,6.682,5.206
		c3.278-0.41,5.607-3.4,5.2-6.685C80.014,333.766,77.021,331.438,73.741,331.845"/>
	<path fill="#FFFFFF" d="M62.119,322.699c-1.956,0.107-3.451,1.776-3.35,3.727c0.106,1.955,1.777,3.453,3.726,3.347
		c1.953-0.105,3.452-1.773,3.35-3.729C65.739,324.094,64.071,322.592,62.119,322.699"/>
	<path fill="#FFFFFF" d="M49.321,320.965c-1.606,0.086-2.839,1.455-2.751,3.06c0.086,1.607,1.456,2.839,3.059,2.754
		c1.607-0.086,2.837-1.457,2.752-3.064C52.294,322.111,50.924,320.878,49.321,320.965"/>
	<path fill="#FFFFFF" d="M78.262,189.463c-2.542-7.125-10.875-60.664-10.875-60.664c-0.151-1.95,5.512-0.646,23.34-9.27
		c31.648-15.311,34.271-38.427,29.897-52.229c-0.926-2.927-6.772-26.196-43.934-22.164c-25.132,2.729-48.541,11.228-66.576,36.734
		c-6.826,9.656-11.62,21.708-8.577,32.102c2.786,9.509,10.621,9.754,15.219,9.314c6.733-0.647,9.315-5.535,9.963-8.302
		c0.729-3.128-1.168-7.416-1.472-8.413c-3.786-12.525,3.866-27.069,4.732-27.315c1.052-0.297,1.297,0.287,1.297,0.287
		c1.635,11.8,14.97,94.895,19.528,121.309c0.798,4.632,6.485,12.678,23.689,9.619c8.443-1.502,22.732-13.648,17.895-12.639
		C81.404,200.127,80.215,194.955,78.262,189.463 M98.172,85.585c-0.319,1.389,3.459,28.501-26.449,35.699
		c-2.708,0.653-4.978,1.41-5.253-0.707c-0.042-0.337-8.169-57.335-8.276-58.026c-0.233-1.522,6.256-6.984,16.919-7.796
		c7.652-0.582,14.029,1.796,17.461,7.748C98.111,72.095,97.744,77.384,98.172,85.585"/>
	<path fill="#FFFFFF" d="M304.969,131.742c-0.783-1.848-20.906,6.396-27.797-21.152c-4.642-18.577-3.933-74.282-4.518-81.309
		c-2.026-24.323-16.533-28.973-20.076-29.127c-9.34-0.414-21.275-1.968-34.363,27.905c-0.446,1.02-1.347,1-1.56-0.193
		c-1.534-6.077-1.957-13.322-11.363-19.042c-14.009-8.515-41.506-3.32-54.606,7.932c-3.296,2.835-12.789,11.436-12.174,24.966
		c0.187,4.141,3.165,11.517,12.174,8.608c7.996-2.583,4.675-8.364,4.182-13.774c-1.026-11.301,5.288-15.066,8.732-17.342
		c3.083-2.037,22.421-10.754,29.516,6.947c5.235,13.071,1.86,54.613,1.291,92.792c-0.368,24.721,21.083,20.979,27.392,17.119
		c4.154-2.546-6.638,3.313-6.36-26.125c0.146-15.393,1.165-53.932,1.475-56.91c2.961-28.392,15.049-38.192,25.457-36.648
		c19.923,2.952-4.05,69.633,8.115,105.15c6.543,19.091,30.869,24.38,45.38,18.229C302.311,137.034,305.751,133.59,304.969,131.742"
		/>
	<path fill="#FFFFFF" d="M457.563,163.833c-0.508-1.594-10.13,1.795-14.679-7.518c-0.312-0.63-1.272-2.082-1.998-5.346
		c-3.004-13.471,4.296-68.743,4.296-68.743c0.09-3.367,1.765-20.836-15.783-29.983c-7.432-3.878-19.073-7.056-33.38-2.592
		c-5.034,1.575-14.291,5.796-17.702,14.533c-2.256,5.785-2.144,9.417-1.969,12.37c0.179,2.959,1.277,5.987,2.899,8.08
		c1.696,2.191,4.724,4.444,7.383,5.188c6.658,1.859,10.507-0.677,12.466-3.244c0.628-0.834,2.887-4.447,0.11-8.339
		c-2.754-3.852-4.374-7.974-4.591-12.251c-0.066-1.289-0.022-2.25,0.264-3.409c1.517-6.136,5.869-7.866,10.604-8.317
		c2.7-0.258,11.475-0.509,15.402,4.338c1.111,1.383,2.354,3.506,2.649,6.727c0.278,3.227-0.098,6.312-0.36,8.352
		c-1.233,9.26-6.262,10.81-14.055,13.85c-2.268,0.943-25.777,8.259-30.749,10.329c-14.625,6.094-16.639,23.868-14.143,32.733
		c0.877,3.064,2.4,11.308,15.165,16.327c11.525,4.527,25.496-3.128,29.051-6.07c3.546-2.935,6.335-6.619,9.481-9.862
		c1.687-1.734,1.69,1.32,1.621,1.998c-0.067,0.684-0.132,1.451-0.218,2.297c-0.649,15.72-1.275,16.226,0.617,22.11
		c4.202,13.072,21.768,14.973,30.468,11.779C454.858,167.527,458.065,165.431,457.563,163.833 M408.689,131.872
		c-7.926,4.912-14.874,7.907-21.052,0.207c-7.501-9.341-2.592-26.241,5.014-31.326c7.092-4.743,13.844-6.791,19.05-8.7
		c6.527-2.392,9.187-4.276,12.097-6.74c0.329-0.216,0.779-0.546,1.235,0.166c0.319,0.492,0.063,1.39,0.029,1.712l-0.955,9.524
		l-3.087,21.35C420.359,119.713,414.209,128.449,408.689,131.872"/>
	<path fill="#FFFFFF" d="M164.89,161.262c-1.569-4.216-7.195-16.209-25.088-13.163c-4.784,0.813-18.871,5.426-21.64,21.659
		c-1.204,7.047,5.222,19.662,14.473,15.598c4.932-2.167,5.847-8.774,1.976-11.006c-3.711-2.136-3.634-8.786,0.149-12.6
		c3.319-3.348,6.954-3.763,11.316-3.319c8.208,0.831,12.229,7.261,10.329,18.324c-0.941,5.475-17.58,74.03-17.638,74.378
		c-0.368,2.197-1.305,1.144-1.305,1.144c-0.198-0.109-30.067-91.294-33.881-101.174c-3.901-10.107-18.071-10.13-24.471-3.649
		c-1.772,1.795-4.13,5.672-3.207,6.423c1.641,1.325,7.231-4.479,10.65,4.163c0.608,1.536,29.365,95.039,32.3,101.983
		c3.885,9.185,9.233,10.851,15.383,8.095c4.688-2.1,6.371-7.285,7.279-9.898c0.199-0.582,21.9-73.04,23.101-81.274
		C165.759,171.525,166.487,165.556,164.89,161.262"/>
	<path fill="#FFFFFF" d="M192.253,208.324c20.487-6.504,26.012-16.861,27.254-21.236c1.843-6.482,2.426-15.453-1.437-21.863
		c-1.97-3.271-6.894-8.706-21.071-4.071c-19.531,6.383-30.894,22.904-35.037,36.773c-5.274,17.66-1.86,37.185,6.851,43.599
		c3.035,2.244,7.237,5.351,13.442,5.809c19.484,1.438,30.222-9.966,32.75-12.895c7.103-8.246,6.624-18.591,1.046-22.999
		c-4.836-3.825-15.192-1.915-20.646,4.479c-2.475,2.905-3.709,7.138-2.918,9.705c0.778,2.511,2.667,3.75,4.763,3.068
		c1.938-0.632,4.469-2.901,3.932-5.209c-0.512-2.207,1.139-4.121,3.97-4.947c3.268-0.952,4.497,0.384,5.538,1.843
		c1.322,1.851,1.131,6.692-1.607,10.819c-4.837,7.275-12.48,8.922-15.614,7.939c-1.606-0.504-11.325-1.938-14.579-16.44
		c-0.866-3.854-1.323-9.735-1.052-12.057C177.839,210.639,184.034,210.936,192.253,208.324 M179.874,188.722
		c1.651-11.728,8.546-16.845,13-18.947c5.747-2.712,9.175-2.193,11.162-1.235c3.286,1.591,4.264,4.773,4.451,8.407
		c0.122,2.21-0.387,10.979-6.81,17.843c-6.367,6.806-13.819,10.786-23.592,11.697C178.037,205.53,178.346,199.536,179.874,188.722"
		/>
	<path fill="#FFFFFF" d="M296.329,154.646c-4.122-5.447-10.027-7.229-13.744-7.902c-21.126-3.803-36.518,17.077-36.518,17.077
		l0.014,0.008c-0.193,0.296-0.417,0.939-1.104,0.798c-0.126-0.024-0.742,0.096-1.194-1.91c-0.755-4.952-1.678-9.896-2.361-11.123
		c-3.722-9.631-16.139-12.602-23.313-9.677c-3.507,1.43-7.223,3.682-5.923,5.316c0.942,1.188,10.48-3.007,10.803,7.277
		c0.034,1.014-0.962,60.793-1.108,80.073c-0.035,4.782,2.788,13.399,17.021,15.052c9.276,1.074,20.395-4.727,16.379-5.17
		c-9.117-1.005-11.913-7.424-11.928-11.735c-0.034-11.051,1.117-44.567,1.611-47.187c1.768-9.347,11.422-23.55,20.678-29.372
		c6.285-3.955,17.363-2.514,19.647,8.896c0.507,2.539,0.516,6.593-0.739,8.732c-2.273,3.875-7.569,5.024-8.792,1.321
		c-0.518-1.561-0.616-5.319-4.429-6.672c-3.723-1.319-10.396,0.369-11.132,7.441c-0.693,6.682,3.844,11.221,10.764,13.712
		c5.869,2.113,14.271,0.557,19.924-3.506c5.901-4.244,8.146-8.629,9.063-16.604C300.596,163.872,299.187,158.43,296.329,154.646"/>
	<path fill="#FFFFFF" d="M423.389,176.419c-0.329-1.368-2.821-12.42-17.299-18.877c-7.213-3.219-22.147-8.754-40.092-2.992
		c-25.079,8.056-30.716,30.243-31.751,33.447c-7.882,24.459-1.334,43.127,7.207,53.168c3.599,4.228,8.852,10.182,22.641,15.164
		c15.206,5.492,27.392,1.498,31.754-2.823c1.128-1.122,3.663-3.821,4.241-6.871c0.578-3.043,0.702-11.145-6.668-15.694
		c-0.727-0.445-5.903-3.321-11.678-2.532c-3.049,0.416-10.137,2.523-10.235,9.42c-0.024,1.931,1.677,4.745,4.888,5.017
		c3.175,0.268,5.479-1.912,4.455-4.424c-0.807-1.979,0.701-4.237,4.223-3.945c6.207,0.518,5.976,6.805,6.091,8.32
		c-0.032,2.044-0.13,3.769-2.005,6.292c-1.911,2.566-6.179,5.08-11.439,5.202c-2.473,0.059-9.402-0.421-13.828-6.283
		c-3.461-4.586-5.183-9.2-5.821-11.694c-4.218-16.504,1.494-38.787,1.494-38.787s27.914,21.535,48.587,10.039
		c5.431-3.02,8.778-7.534,10.411-9.99C425.052,187.843,423.864,178.373,423.389,176.419 M408.75,176.21
		c-1.179,7.329-4.771,14.568-10.459,18.411c-0.016,0.008-0.025,0.019-0.035,0.028c-15.242,9.256-31.807,0.682-33.182-0.058
		c-1.007-0.381-2.318-1.166-3.924-2.366c-0.099-0.058-0.192-0.132-0.276-0.21c1.374-3.96,7.957-26.089,25.221-31.211
		C390.762,159.422,411.547,158.757,408.75,176.21"/>
	<path fill="#FFFFFF" d="M341.285,135.883c-6.789-2.925-15.038-1.389-21.68,7.063c-3.608,4.598-6.321,14.349-7.442,22.308
		c-2.097,13.573-4.164,33.516-4.73,36.521c-1.006-0.26-5.338-4.192-11.531-6.784c-3.114-1.305-14.51-4.579-26.736-1.698
		c-2.963,0.696-15.864,3.993-19.292,20.354c-3.366,16.061,6.975,23.274,9.358,25.056c20.042,14.988,40.588,0.469,40.588,0.469
		c0.345-0.199,1.174-0.85,1.951-0.544c0.608,0.239,0.68,1.162,0.744,1.427c0.204,0.876,0.304,1.601,0.56,2.528
		c4.171,15.033,21.909,12.172,24.076,11.323c0.563-0.22,0.677-1.027-0.8-1.348c-1.096-0.243-2.674-0.818-3.396-3.679
		c-0.706-2.795-0.408-6.08,0.122-10.758c0,0,5.03-44.469,7.105-59.583c3.498-25.547,3.922-28.856,6.733-32.993
		c3.779-5.563,8.496-3.037,9.344-3.917C347.006,140.848,344.105,137.099,341.285,135.883 M303.74,228.9
		c0,0-12.975,18.486-27.108,9.316c-7.316-4.75-8.41-14.302-5.371-24.852c2.672-9.262,6.447-12.715,8.928-14.167
		c3.499-2.051,6.95-2.299,8.485-2.399c14.203-0.922,18.056,12.68,18.077,14.388L303.74,228.9z"/>
	<path fill="#FFFFFF" d="M341.481,63.812c-2.634-1.012-22.723-9.526-24.866-10.971c-9.617-6.479-9.576-13.599-9.457-15.494
		c-0.794-17.814,26.438-27.036,38.511-14.66c6.752,7.416,5.747,14.356-4.12,21.511c-5.948,4.311-6.629,14.509,4.854,18.852
		c15.934,6.024,25.344-10.115,25.573-17.494c0.794-25.289-25.873-33.312-35.18-35.428c-19.063-4.333-32.911-3.035-45.673,8.881
		c-8.105,7.572-7.992,19.292-5.201,28.587c4.039,13.453,24.238,18.137,29.852,20.268c31.554,11.971,28.789,26.643,28.481,30.23
		c-0.9,10.595-9.514,24.048-27.407,21.412c-3.253-0.478-10.679-2.669-13.774-8.864c-0.864-1.727-4.31-11.572,3.166-16.185
		c1.426-0.882,4.894-0.581,6.36-0.562c7.529,0.087,12.066-4.43,11.952-9.677c-0.147-6.193-3.139-9.903-11.027-12.417
		c-6.534-2.083-26.065-0.357-30.094,17.802c-2.51,11.334,0.727,22.694,11.966,31.667c13.094,10.448,42.425,13.219,59.271-0.814
		c8.479-7.066,11.021-18.442,11.239-22.206C366.303,91.45,363.699,72.362,341.481,63.812"/>
	<path fill="#FFFFFF" d="M206.013,144.525c-0.514-1.285-11.699,2.925-16.304-8.048c-2.405-5.73,0.016-59.753,0.016-59.753
		c-0.03-2.939,3.069-20.424-15.337-24.495c-7.013-1.55-17.633-2.333-30.545,4.402c-4.545,2.371-12.896,9.457-15.723,17.73
		c-1.872,5.481-1.651,8.617-1.399,11.153c0.256,2.54,1.363,4.953,2.915,6.45c1.611,1.567,4.451,2.922,6.905,3.041
		c6.129,0.289,9.565-2.688,11.265-5.305c0.547-0.855,2.494-4.446-0.162-7.275c-2.644-2.804-4.254-6.065-4.591-9.744
		c-0.097-1.108-0.094-1.953,0.129-3.016c1.185-5.639,5.105-8.01,9.41-9.348c2.456-0.757,10.452-2.731,14.19,0.705
		c1.072,0.981,2.263,2.578,2.64,5.322c0.358,2.751,0.117,5.507-0.056,7.332c-0.832,8.303-5.363,10.653-12.383,14.853
		c-2.033,1.27-23.253,12.325-27.725,15.113c-13.146,8.216-14.408,24.076-11.843,31.289c0.895,2.495,2.553,9.36,14.367,11.175
		c10.663,1.641,23.161-7.799,26.315-11.068c3.135-3.262,5.565-7.021,8.333-10.467c1.483-1.844,1.581,0.814,1.541,1.413
		c-0.034,0.605-0.076,1.29-0.125,2.042c-0.077,13.801-0.631,15.843,1.287,20.585c4.253,10.53,21.199,8.685,28.984,4.054
		C204.269,149,206.519,145.813,206.013,144.525 M158.031,127.18c-7.075,5.852-17.539,9.989-22.3,3.463
		c-5.02-6.89-2.359-16.799,6.367-25.77c1.933-1.985,12.696-10.228,17.395-12.924c5.878-3.384,8.243-5.552,10.816-8.278
		c0.293-0.251,0.698-0.631,1.131-0.1c0.31,0.368,0.107,1.198,0.085,1.483l-0.563,8.473l-2.125,19.18
		C168.285,114.283,162.956,123.105,158.031,127.18"/>
	<path fill="#FFFFFF" d="M190.047,330.574l2.14,9.245c-1.676,1.563-4.694,2.905-7.101,3.461c-6.716,1.564-11.663-2.063-12.895-7.393
		c-1.293-5.567,2.007-10.848,8.053-12.249c3.631-0.848,6.06-0.436,7.95,0.724l-1.455,2.375c-1.971-1.112-3.965-1.178-5.949-0.716
		c-4.533,1.051-6.695,5.097-5.744,9.205c0.981,4.237,5.063,6.696,9.426,5.685c1.881-0.436,3.586-1.192,4.649-2.109l-1.21-5.219
		l-4.399,1.019l-0.546-2.383L190.047,330.574z"/>
	<path fill="#FFFFFF" d="M196.433,327.312l2.552-0.438l0.326,1.951l0.059-0.008c0.427-1.452,1.97-2.682,3.639-2.964
		c0.399-0.07,0.805-0.086,1.167-0.037l0.325,2.608c-0.444-0.032-0.887-0.034-1.279,0.029c-2.502,0.434-3.64,1.944-3.167,4.729
		l1.07,6.364l-2.554,0.438L196.433,327.312z"/>
	<path fill="#FFFFFF" d="M209.858,326.714c1.277-1.445,3.255-2.319,5.145-2.55c4.001-0.491,5.904,1.361,6.177,3.573l0.782,6.527
		c0.112,0.883,0.229,1.636,0.399,2.301l-2.288,0.284c-0.135-0.644-0.244-1.286-0.318-1.93l-0.058,0.006
		c-0.953,1.783-2.416,2.587-4.474,2.841c-2.518,0.311-4.857-0.774-5.145-3.258c-0.405-3.291,2.806-4.835,6.925-5.332l1.882-0.231
		l-0.067-0.541c-0.163-1.323-1.359-2.572-3.55-2.301c-1.97,0.239-2.826,1.136-3.683,1.925L209.858,326.714z M217.726,330.896
		c-2.43,0.297-5.352,1.063-5.109,3.117c0.179,1.454,1.405,1.937,3.167,1.714c2.864-0.346,3.622-2.467,3.409-4.19l-0.095-0.805
		L217.726,330.896z"/>
	<path fill="#FFFFFF" d="M227.07,323.205l2.578-0.167l0.132,1.975l0.06-0.002c0.567-1.399,2.229-2.459,4.326-2.595
		c2.64-0.175,5.033,1.164,5.256,4.58l0.537,8.262l-2.591,0.172l-0.489-7.59c-0.155-2.408-1.676-3.207-3.313-3.098
		c-2.145,0.139-3.705,1.547-3.512,4.526l0.435,6.611l-2.581,0.169L227.07,323.205z"/>
	<path fill="#FFFFFF" d="M246.632,315.795c1.032-0.024,1.926,0.766,1.949,1.745c0.021,0.968-0.811,1.807-1.847,1.833
		c-1.033,0.025-1.918-0.766-1.941-1.743C244.765,316.658,245.598,315.824,246.632,315.795 M245.517,322.222l2.583-0.063
		l0.342,12.845l-2.585,0.067L245.517,322.222z"/>
	<polygon fill="#FFFFFF" points="253.733,332.68 261.564,324.226 254.093,324.148 254.124,322.034 264.745,322.149 264.715,324.317 
		256.833,332.798 265.027,332.885 264.999,334.996 253.709,334.875 	"/>
	<path fill="#FFFFFF" d="M270.488,323.898c1.506-1.188,3.616-1.688,5.514-1.579c4.015,0.241,5.564,2.4,5.431,4.622l-0.384,6.557
		c-0.042,0.897-0.064,1.658-0.013,2.339l-2.302-0.132c-0.023-0.65-0.009-1.304,0.028-1.957l-0.06-0.003
		c-1.246,1.588-2.833,2.117-4.901,1.999c-2.524-0.154-4.636-1.641-4.48-4.131c0.185-3.309,3.615-4.25,7.75-4.005l1.896,0.11
		l0.037-0.543c0.072-1.328-0.878-2.771-3.093-2.898c-1.985-0.119-2.976,0.611-3.965,1.233L270.488,323.898z M277.485,329.426
		c-2.444-0.142-5.455,0.087-5.571,2.146c-0.082,1.464,1.024,2.158,2.806,2.263c2.869,0.169,4.001-1.778,4.104-3.512l0.043-0.816
		L277.485,329.426z"/>
	<path fill="#FFFFFF" d="M300.272,337.973l-2.567-0.31l0.22-1.835l-0.06-0.01c-1.16,1.259-3.135,1.817-4.958,1.598
		c-4.187-0.508-6.518-3.771-6.068-7.552c0.449-3.839,3.505-6.401,7.664-5.899c1.938,0.231,3.689,1.292,4.451,2.724l0.05,0.008
		l1.128-9.451l2.563,0.308L300.272,337.973z M298.471,331.266c0.302-2.595-1.188-4.666-3.928-4.993
		c-2.73-0.329-4.666,1.333-4.967,3.924c-0.31,2.595,1.172,4.661,3.912,4.99C296.227,335.514,298.154,333.856,298.471,331.266"/>
	<path fill="#FFFFFF" d="M308.068,327.701c1.631-1.004,3.778-1.263,5.646-0.929c3.965,0.707,5.247,3.035,4.859,5.231l-1.138,6.482
		c-0.163,0.884-0.258,1.637-0.294,2.323l-2.258-0.406c0.055-0.648,0.138-1.298,0.249-1.941l-0.052-0.01
		c-1.416,1.434-3.055,1.777-5.092,1.414c-2.495-0.445-4.408-2.169-3.972-4.628c0.575-3.272,4.08-3.804,8.149-3.08l1.866,0.336
		l0.099-0.539c0.227-1.313-0.548-2.861-2.724-3.246c-1.949-0.349-3.019,0.267-4.076,0.763L308.068,327.701z M314.37,334.018
		c-2.404-0.431-5.416-0.549-5.772,1.483c-0.259,1.448,0.761,2.261,2.52,2.578c2.827,0.504,4.17-1.3,4.465-3.016l0.149-0.807
		L314.37,334.018z"/>
	<path fill="#FFFFFF" d="M331.759,334.212c-0.434-0.829-1.171-1.585-2.442-1.882c-1.18-0.275-2.331-0.013-2.537,0.884
		c-0.347,1.511,1.88,2.251,2.943,2.75c2.075,1.014,3.58,2.199,3.035,4.557c-0.658,2.827-3.654,3.296-6.298,2.682
		c-2.185-0.511-3.69-1.421-4.621-3.419l2.25-1.036c0.636,0.956,1.418,1.893,2.887,2.229c1.293,0.306,2.807,0.131,3.057-0.953
		c0.332-1.43-1.72-2.187-2.753-2.675c-2.053-1.014-3.81-2.117-3.249-4.522c0.608-2.621,3.44-3.266,5.942-2.684
		c1.766,0.413,3.454,1.422,4.068,3.123L331.759,334.212z"/>
	<path fill="#FFFFFF" d="M487.125,313.151c4.451-1.188,8.483-2.845,12.318-4.872c3.554-1.876,7.908-4.286,8.636-7.982
		c0.516-2.64-2.517-4.75-5.622-4.434c-3.841,0.4-6.377,2.951-9.109,4.79c-2.931,1.978-5.727,4.051-8.875,5.827
		c-6.688,3.762-13.624,5.429-22.247,5.237c-0.397-0.01-0.527,0.434-0.145,0.61C469.913,315.975,479.605,315.155,487.125,313.151"/>
	<path fill="#FFFFFF" d="M483.497,272.454c2.285,3.103,1.411,6.892,0.738,9.991c-0.73,3.354-2.028,6.421-3.69,9.454
		c-2.789,5.079-8.159,10.291-15.301,11.31c-0.356,0.051-0.599-0.34-0.361-0.521c5.27-4.014,7.897-8.488,9.25-14.443
		c0.625-2.759,0.835-5.673,0.974-8.522c0.126-2.619-0.044-5.802,1.861-7.86C478.56,270.147,481.877,270.258,483.497,272.454"/>
	<path fill="#FFFFFF" d="M351.776,302.575c0.169-3.039-2.687-6.039-4.987-8.505c-2.489-2.668-5.297-4.984-8.391-7.198
		c-5.182-3.71-12.596-7.035-19.143-6.504c-0.325,0.027-0.315,0.397-0.009,0.509c6.657,2.337,11.366,5.575,15.838,10.296
		c2.072,2.188,3.885,4.583,5.594,6.941c1.573,2.168,3.214,4.865,5.968,6.22C348.937,305.46,351.651,304.726,351.776,302.575"/>
	<path fill="#FFFFFF" d="M446.233,252.157c-12.02-5.538-29.03-3.868-36.186,4.65c-3.802,4.53-6.082,15.818-4.365,22.129
		c1.038,3.798,2.937,7.801,5.931,10.326c3.635,3.063,12.241,4.398,17.407,0.381c4.777-3.715,6.277-9.248,2.867-14.631
		c-2.485-3.921-11.459-8.187-11.463-9.63c-0.014-6.149,6.809-7.523,13.157-7.297c5.387,0.192,20.664,4.884,22.177,21.578
		c0.801,8.834-3.382,17.556-9.813,24.614c-11.763,12.912-31.367,17.956-43.705,12.528c-9.563-4.21-18.169-11.284-25.246-18.363
		c-11.859-11.857-17.324-16.722-25.151-22.857c-0.854-0.667-19.783-16.504-40.518-4.741c-0.92,0.528,0.082,1.896,1.167,1.547
		c29.515-9.446,46.81,17.542,68.615,38.485c16.304,15.66,52.787,23.813,76.223-7.076
		C467.779,290.017,470.113,263.167,446.233,252.157"/>
	<path fill="#FFFFFF" d="M460.393,247.187c0,3.605-2.703,6.531-6.031,6.531c-3.33,0-6.036-2.926-6.036-6.531
		c0-3.607,2.706-6.527,6.036-6.527C457.69,240.661,460.393,243.581,460.393,247.187"/>
	<path fill="#FFFFFF" d="M470.991,258.537c0.136,2.128-1.348,3.976-3.313,4.126c-1.963,0.149-3.671-1.451-3.809-3.582
		c-0.139-2.127,1.344-3.974,3.311-4.125C469.144,254.806,470.851,256.409,470.991,258.537"/>
	<path fill="#FFFFFF" d="M474.319,272.158c0.113,1.748-1.106,3.269-2.72,3.393c-1.62,0.121-3.019-1.198-3.134-2.948
		c-0.109-1.748,1.105-3.263,2.72-3.387C472.806,269.092,474.205,270.409,474.319,272.158"/>
	<path fill="#FFFFFF" d="M444.545,331.667c3.279,0.407,5.607,3.396,5.201,6.679c-0.407,3.281-3.4,5.609-6.681,5.202
		c-3.281-0.408-5.607-3.402-5.2-6.681C438.274,333.587,441.264,331.259,444.545,331.667"/>
	<path fill="#FFFFFF" d="M456.17,322.52c1.953,0.104,3.451,1.773,3.344,3.728c-0.106,1.953-1.773,3.453-3.722,3.347
		c-1.955-0.104-3.457-1.774-3.35-3.728C452.549,323.914,454.216,322.416,456.17,322.52"/>
	<path fill="#FFFFFF" d="M468.967,320.786c1.605,0.086,2.837,1.455,2.747,3.063c-0.082,1.602-1.454,2.837-3.057,2.752
		c-1.608-0.088-2.838-1.46-2.754-3.064C465.993,321.929,467.363,320.697,468.967,320.786"/>
</g>
</svg>
