<?xml version="1.0" encoding="utf-8"?>
<!-- Generator: Adobe Illustrator 15.0.2, SVG Export Plug-In . SVG Version: 6.00 Build 0)  -->
<!DOCTYPE svg PUBLIC "-//W3C//DTD SVG 1.1//EN" "http://www.w3.org/Graphics/SVG/1.1/DTD/svg11.dtd">
<svg version="1.1" id="Layer_2" xmlns="http://www.w3.org/2000/svg" xmlns:xlink="http://www.w3.org/1999/xlink" x="0px" y="0px"
	 width="720px" height="335.393px" viewBox="0 0 720 335.393" enable-background="new 0 0 720 335.393" xml:space="preserve">
<g>
	<path fill="#FFFFFF" d="M131.633,92.085c44.694,0.5,57.566,22.57,61.691,40.1c4.125,17.528-8.243,66.855-42.464,76.701
		c0,0,2.708,10.986,29.618,53.035c33.06,51.657,49.098,58.21,55.801,63.368c6.701,5.153-0.724,13.935-13.098,8.265
		c-12.373-5.672-38.571-13.087-70.941-57.857c-16.679-23.066-27.98-54.478-27.98-54.478s2.877,65.404,1.512,77.777
		c-1.364,12.371-12.707,8.248-17.347,0.517c-4.641-7.734-15.2-50.677-12.396-86.44c2.625-33.467,4.663-60.489,1.055-63.067
		c-3.609-2.577-2.063-15.981,8.764-10.829c10.825,5.155,24.745,8.25,19.076,56.713c0,0,39.285-24.65,39.8-52.488
		c0.516-27.84-30.248-38.136-65.829-16.652c-38.27,23.107-43.647,31.266-55.237,41.519c-13.405,11.855-34.41,14.429-41.434,8.03
		c-8.462-7.71,6.668-4.938,20.542-21.305C42.869,131.278,86.265,91.576,131.633,92.085"/>
	<path fill="#FFFFFF" d="M209.984,151.033c3.177,11.436-18.044,69.6-12.373,91.769c5.67,22.168,25.776,28.87,37.635,7.216
		c11.858-21.652,18.56-37.635,18.56-37.635s-4.639,32.479,13.404,44.854c18.044,12.372,34.025-1.031,38.667-26.292
		c2.543-13.841,2.187-28.871-7.218-6.188c-6.357,15.34-18.559,25.777-14.435-2.063c4.125-27.84,8.249-53.616,0.517-74.753
		c-6.261-17.108-23.051-8.667-26.144-6.09c-3.093,2.578-0.355,5.002-4.48,19.437s-18.354,70.171-25.571,74.294
		c-7.218,4.124,5.155-45.882,5.672-61.864c0.516-15.981-2.578-31.447-19.602-34.795C196.01,135.262,207.407,141.753,209.984,151.033
		"/>
	<path fill="#FFFFFF" d="M381.613,98.964c1.433,22.219-21.604,77.332-21.604,113.418c0,36.087,3.607,79.395,11.599,90.734
		c7.99,11.343,13.662,10.313,14.178-7.73c0.516-18.043,8.248-99.832,10.825-90.646c2.579,9.192,14.437,38.576,42.791,72.085
		c28.354,33.512,65.988,53.104,77.333,54.648c11.34,1.547,20.104-4.642,5.671-15.467c-14.438-10.824-34.543-34.026-58.257-66.504
		c-23.717-32.479-41.242-68.568-38.151-70.63c3.093-2.063,25.263-41.244,38.666-59.804c13.406-18.56,23.199-34.026,32.994-48.46
		c9.797-14.436,3.609-22.682-8.248-10.311c-11.856,12.373-46.916,46.914-61.862,70.631c-14.951,23.714-23.202,33.51-21.139,24.743
		c2.063-8.764,9.279-45.894,1.545-60.323c-7.733-14.43-19.59-17.522-25.262-15.463C377.021,81.951,380.582,82.983,381.613,98.964"/>
	<path fill="#FFFFFF" d="M484.698,141.668c3.175,11.435-10.938,50.233-12.758,73.141c-1.813,22.812,24.522,38.252,36.381,16.598
		c11.854-21.652,27.737-60.253,27.737-60.253s-15.77,51.292,2.275,63.667c18.044,12.372,40.639-12.982,58.662-53.162
		c3.057-6.811,49.56-146.787,56.952-166.278c3.66-9.648-2.344-12.639-3.847-13.732c-2.023-1.479-56.63,149.631-60.154,158.138
		c-6.356,15.333-37.096,81.274-32.969,53.432c4.122-27.839,17.134-60.108,9.402-81.244c-6.261-17.111-23.052-8.669-26.145-6.091
		c-3.094,2.577-3.464,8.1-7.59,22.534c-4.121,14.436-20.462,58.437-28.194,63.438c-6.979,4.518,7.442-32.222,7.958-48.205
		c0.518-15.979,1.138-29.104-15.916-34.332C478.365,123.755,482.119,132.388,484.698,141.668"/>
	<path fill="#FFFFFF" d="M646.258,18.126c2.561-10.968-2.68-18.171,8.856-18.127c8.793,0.033,17.646,4.943,19.294,29.114
		c1.647,24.169-10.729,53.133-25.561,122.895c-14.832,69.764-21.267,95.185-14.676,119.902c6.593,24.72,14.415,26.368,20.941,32.41
		c6.526,6.041,7.623,15.93-11.604,8.238c-19.225-7.69-35.704-22.521-39.002-39.55c-3.294-17.028-8.866-57.572,12.634-135.521
		C638.647,59.538,642.411,34.606,646.258,18.126"/>
	<path fill="#FFFFFF" d="M509.088,71.157c-6.565,10.417-24.854,38.465-4.733,42.016c20.12,3.552,23.959-20.711,25.59-34.322
		c1.632-13.611-12.848-24.855-17.442-20.713C507.906,62.28,516.19,59.892,509.088,71.157"/>
	<path fill="#FFFFFF" d="M560.574,75.3c-6.406,14.713-12.427,31.957,2.907,35.223c19.984,4.253,20.907-17.094,22.538-30.705
		c1.633-13.612-17.528-37.064-28.403-29.964C552.434,53.236,565.89,63.089,560.574,75.3"/>
	<path fill="#FFFFFF" d="M693.748,42.436c-1.949,10.657-15.91,40.163-6.539,59.448c9.37,19.283,15.539,18.511,22.029,20.964
		c6.492,2.455,3.131-3.886,1.164-10.581c-1.969-6.695,7.155-40.824,9.539-53.079c2.38-12.257-10.859-29.005-23.984-30.707
		C682.836,26.78,695.369,33.57,693.748,42.436"/>
</g>
</svg>
