<?xml version="1.0" encoding="utf-8"?>
<!-- Generator: Adobe Illustrator 15.0.2, SVG Export Plug-In . SVG Version: 6.00 Build 0)  -->
<!DOCTYPE svg PUBLIC "-//W3C//DTD SVG 1.1//EN" "http://www.w3.org/Graphics/SVG/1.1/DTD/svg11.dtd">
<svg version="1.1" id="Layer_3" xmlns="http://www.w3.org/2000/svg" xmlns:xlink="http://www.w3.org/1999/xlink" x="0px" y="0px"
	 width="720px" height="618.363px" viewBox="0 0 720 618.363" enable-background="new 0 0 720 618.363" xml:space="preserve">
<g>
	<path fill="#FFFFFF" d="M452.268,365.898c0-3.16-1.194-6.033-3.144-8.219c1.512-2.506,2.155-5.553,1.568-8.656
		c-0.674-3.585-2.842-6.502-5.73-8.258c1.444-3.058,1.649-6.688,0.241-10.052c-1.206-2.877-3.377-5.047-5.976-6.313
		c0.401-2.869-0.184-5.883-1.896-8.49c-1.933-2.947-4.913-4.786-8.126-5.37c0.079-3.266-1.115-6.556-3.605-9.045
		c-2.233-2.235-5.109-3.421-8.034-3.589c-0.705-2.842-2.402-5.45-5.013-7.231c-3.012-2.056-6.607-2.585-9.895-1.788
		c-1.141-3.184-3.563-5.893-6.937-7.278c-2.889-1.184-5.958-1.184-8.692-0.242c-1.743-2.307-4.288-4.025-7.342-4.658
		c-3.449-0.717-6.854,0.092-9.542,1.95c-2.251-2.368-5.424-3.851-8.948-3.851c-3.16,0-6.03,1.196-8.216,3.144
		c-2.506-1.51-5.552-2.154-8.656-1.57c-3.586,0.678-6.502,2.845-8.263,5.733c-3.058-1.442-6.687-1.646-10.05-0.241
		c-2.877,1.206-5.05,3.375-6.32,5.975c-2.862-0.399-5.877,0.187-8.483,1.9c-2.948,1.934-4.785,4.911-5.37,8.125
		c-3.264-0.082-6.559,1.115-9.047,3.607c-2.235,2.233-3.422,5.107-3.59,8.031c-2.841,0.704-5.448,2.404-7.229,5.013
		c-2.058,3.012-2.587,6.608-1.79,9.892c-3.184,1.143-5.893,3.562-7.276,6.94c-1.184,2.885-1.184,5.959-0.242,8.692
		c-2.31,1.743-4.027,4.288-4.659,7.343c-0.717,3.452,0.089,6.855,1.948,9.541c-2.365,2.252-3.848,5.423-3.848,8.947
		c0,3.158,1.192,6.031,3.143,8.219c-1.512,2.506-2.156,5.551-1.569,8.654c0.674,3.586,2.84,6.508,5.728,8.264
		c-1.441,3.059-1.646,6.688-0.237,10.051c1.205,2.875,3.377,5.043,5.971,6.314c-0.399,2.863,0.188,5.879,1.901,8.486
		c1.93,2.943,4.913,4.771,8.125,5.357c-0.084,3.27,1.113,6.564,3.605,9.061c2.233,2.236,5.111,3.422,8.033,3.59
		c0.705,2.842,2.404,5.447,5.012,7.229c2.133,1.457,4.558,2.154,6.96,2.154c0.99,0,1.977-0.117,2.938-0.352
		c1.144,3.18,3.563,5.883,6.935,7.266c1.533,0.627,3.119,0.924,4.681,0.924c1.375,0.004,2.722-0.254,4.004-0.693
		c1.743,2.314,4.291,4.035,7.349,4.672c0.848,0.174,1.693,0.258,2.524,0.258c2.56,0.002,4.996-0.803,7.024-2.207
		c2.251,2.365,5.419,3.846,8.942,3.846c3.158,0,6.029-1.193,8.215-3.139c1.884,1.133,4.068,1.779,6.356,1.779
		c0.76,0,1.532-0.07,2.304-0.217c3.583-0.674,6.499-2.838,8.256-5.723c1.642,0.775,3.443,1.195,5.284,1.195
		c1.592,0,3.211-0.309,4.771-0.963c2.878-1.205,5.047-3.373,6.318-5.971c0.565,0.078,1.139,0.129,1.713,0.129
		c2.328,0,4.684-0.656,6.772-2.029c2.947-1.934,4.787-4.912,5.369-8.123c0.103,0,0.203,0.012,0.306,0.012
		c3.164,0,6.329-1.205,8.744-3.619c2.231-2.23,3.416-5.102,3.587-8.023c2.843-0.705,5.447-2.414,7.231-5.021
		c2.06-3.018,2.589-6.619,1.785-9.91c3.181-1.141,5.895-3.547,7.277-6.92c1.186-2.887,1.186-5.957,0.245-8.693
		c2.31-1.742,4.025-4.289,4.658-7.342c0.715-3.447-0.09-6.855-1.949-9.541C450.785,372.596,452.268,369.424,452.268,365.898
		 M361.178,437.439c-39.516-0.006-71.547-32.045-71.542-71.563c0.004-39.516,32.044-71.546,71.561-71.541
		c39.516,0.004,71.546,32.043,71.542,71.56C432.731,405.412,400.694,437.443,361.178,437.439"/>
	<path fill="#FFFFFF" d="M361.189,582.035c-5.424,0-9.821-4.396-9.821-9.818V447.166c0-5.42,4.398-9.816,9.821-9.816
		c5.42,0,9.816,4.396,9.816,9.816v125.051C371.008,577.639,366.609,582.035,361.189,582.035"/>
	<path fill="#FFFFFF" d="M403.079,537.676h-83.784c-5.421,0-9.819-4.396-9.819-9.822c0-5.42,4.397-9.816,9.819-9.816h83.784
		c5.421,0,9.816,4.396,9.816,9.816C412.896,533.279,408.5,537.676,403.079,537.676"/>
	<path fill="#FFFFFF" d="M233.432,490.496c-2.688,0-5.366-1.098-7.305-3.258c-29.993-33.357-46.51-76.455-46.51-121.354
		c0-100.116,81.456-181.569,181.574-181.569c100.117,0,181.567,81.454,181.567,181.569c0,44.871-16.5,87.949-46.463,121.301
		c-3.623,4.031-9.834,4.365-13.864,0.742c-4.034-3.625-4.368-9.832-0.742-13.865c26.717-29.742,41.431-68.16,41.431-108.178
		c0-89.287-72.641-161.931-161.929-161.931c-89.29,0-161.933,72.644-161.933,161.931c0,40.043,14.728,78.479,41.473,108.225
		c3.627,4.035,3.298,10.242-0.735,13.867C238.116,489.664,235.771,490.496,233.432,490.496"/>
	<path fill="#FFFFFF" d="M361.134,618.363L361.134,618.363c-2.608,0-5.105-1.037-6.945-2.877L226.53,487.719
		c-2.807-2.809-3.646-7.031-2.125-10.701c1.521-3.666,5.102-6.059,9.07-6.059h255.424c3.972,0,7.552,2.395,9.07,6.061
		c1.52,3.668,0.681,7.895-2.127,10.703L368.077,615.488C366.235,617.328,363.737,618.363,361.134,618.363 M257.166,490.596
		l103.971,104.061l104.056-104.061H257.166z"/>
	<path fill="#FFFFFF" d="M40.674,268.999c-11.78,2.744-20.61,11.362-23.173,23.411c-2.779,13.053,5.087,28.722,18.474,31.567
		c37.156,7.905,35.101-71.251,90.999-59.363c28.451,6.051,43.5,32.346,37.59,60.127c-5.483,25.772-25.698,43.514-52.157,44.534
		l-1.551-15.722c19.618-1.776,35.305-11.387,39.649-31.802c4.129-19.415-7.992-38.087-27.407-42.216
		c-19.079-4.058-28.236,9.389-36.867,23.646c-12.184,19.451-26.347,41.627-52.457,36.075c-23.43-4.984-34.962-28.078-30.191-50.505
		c3.349-15.731,17.354-30.597,33.172-34.228L40.674,268.999z"/>
	<path fill="#FFFFFF" d="M217.034,108.324c33.438,32.86,33.159,83.921,0.538,117.114c-31.904,32.462-84.174,32.436-116.146,1.015
		c-32.463-31.902-33.645-83.919-1.5-116.625C132.546,76.634,183.594,75.462,217.034,108.324 M112.22,215.47
		c25.626,25.185,68.235,27.233,94.38,0.628c27.103-27.582,27.217-69.689-0.118-96.551c-27.823-27.343-69.684-26.735-97.024,1.087
		C83.073,147.484,86.103,189.806,112.22,215.47"/>
	<path fill="#FFFFFF" d="M278.455,23.446h0.685c7.166-14.726,22.895-23.302,39.663-23.323c20.189-0.028,36.287,10.217,44.527,28.685
		C371.858,9.975,389.297,0.025,409.487,0c40.724-0.057,48.976,27.652,49.021,62.214l0.135,99.239l-15.397,0.023l-0.141-101.294
		c-0.032-24.296-3.826-45.853-33.939-45.81c-32.854,0.044-40.683,28.799-40.647,56.177l0.125,91.024l-15.4,0.023l-0.132-97.53
		c-0.032-24.638-4.514-49.613-35.314-49.571c-33.192,0.045-39.306,34.617-39.272,60.28l0.119,86.922l-15.402,0.021l-0.212-158.1
		l15.397-0.022L278.455,23.446z"/>
	<path fill="#FFFFFF" d="M620.589,225.086c-33.292,33.009-84.347,32.063-117.113-0.988c-32.045-32.321-31.339-84.586,0.499-116.151
		c32.323-32.045,84.354-32.548,116.637,0.021C653.379,141.018,653.885,192.079,620.589,225.086 M514.815,118.885
		c-25.514,25.298-28.119,67.876-1.855,94.366c27.224,27.459,69.326,28.126,96.545,1.141c27.704-27.468,27.643-69.33,0.177-97.034
		C583.179,90.625,540.82,93.104,514.815,118.885"/>
	<path fill="#FFFFFF" d="M693.279,323.048c9.62-7.327,14.147-18.803,11.551-30.847c-2.815-13.047-16.404-24.118-29.786-21.234
		c-37.132,8.01-2.834,79.378-58.698,91.428c-28.434,6.135-52.932-11.687-58.921-39.451c-5.558-25.76,5.619-50.223,29.339-61.99
		l7.859,13.708c-17.175,9.654-27.549,24.846-23.151,45.252c4.188,19.401,22.895,31.47,42.297,27.284
		c19.066-4.11,21.914-20.128,23.947-36.67c3.148-22.734,6.985-48.769,33.079-54.395c23.415-5.051,43.393,11.294,48.23,33.707
		c3.39,15.721-3.302,35.02-16.24,44.813L693.279,323.048z"/>
</g>
</svg>
