<?xml version="1.0" encoding="utf-8"?>
<!-- Generator: Adobe Illustrator 15.0.2, SVG Export Plug-In . SVG Version: 6.00 Build 0)  -->
<!DOCTYPE svg PUBLIC "-//W3C//DTD SVG 1.1//EN" "http://www.w3.org/Graphics/SVG/1.1/DTD/svg11.dtd">
<svg version="1.1" id="Layer_2" xmlns="http://www.w3.org/2000/svg" xmlns:xlink="http://www.w3.org/1999/xlink" x="0px" y="0px"
	 width="688.438px" height="375.75px" viewBox="0 0 688.438 375.75" enable-background="new 0 0 688.438 375.75"
	 xml:space="preserve">
<g>
	<g>
		<path fill="#FFFFFF" d="M356.98,216.5c0,0-25.112-5.057-36.727-32.189c-8.919-20.795,1.053-46.574,1.053-46.574
			c-48.41-2.623-96.013,47.402-67.372,86.146C287.108,268.737,356.98,216.5,356.98,216.5"/>
		<path fill="#FFFFFF" d="M322.665,245.122c0,0-35.009,15.576-60.997,2.18c-28.451-14.678-28.08-41.146-28.08-41.146
			c-32.949,28.154-20.802,74.865,7.84,84.104C284.588,304.172,322.665,245.122,322.665,245.122"/>
		<path fill="#FFFFFF" d="M284.556,334.862c47.659-20.961,28.433-61.74,28.433-61.74s-20.21,23.734-48.718,31.043
			c-26.06,6.684-43.094-13.424-43.094-13.424S235.111,356.59,284.556,334.862"/>
		<path fill="#FFFFFF" d="M314.764,335.465c-25.584,27.881-56.61,15.744-56.61,15.744c18.039,17.555,51.223,39.646,80.517,3.49
			c27.75-34.242-12.273-66.428-12.273-66.428S334.796,313.594,314.764,335.465"/>
		<path fill="#FFFFFF" d="M354.561,307.627c18.362,35.088-17.765,65.971-17.765,65.971c10.979,3.754,45.31-14.084,47.05-37.682
			C385.891,308.229,354.561,307.627,354.561,307.627"/>
		<path fill="#FFFFFF" d="M392.583,344.823c38.101-21.021,66.512-58.031,55.813-71.057c-10.712-13.037-26.063-12.688-27.035,3.592
			c-0.96,16.277-35.115,32.424-35.115,32.424C403.604,324.143,392.583,344.823,392.583,344.823"/>
		<path fill="#FFFFFF" d="M385.599,120.448c-9.485,0-18.032,1.52-26.2,3.547c-14.242,3.547-35.683,22.473-29.962,50.502
			c4.648,22.799,17.821,31.295,38.759,31.295c12.777,0,28.442-3.16,46.835-8.164c20.794-5.658,45.518-8.158,67.452-8.354
			c-2.279-5.906-4.313-11.801-6.043-17.68c-1.813-6.104-2.897-11.57-3.3-16.434c-5.188-2.553-10.504-5.537-15.891-9.031
			C426.827,126.405,404.376,120.448,385.599,120.448 M463.23,160.721c0.759,4.467-2.317,8.693-6.764,9.42
			c-0.456,0.082-0.909,0.117-1.354,0.117c-3.942,0-7.403-2.844-8.089-6.861c-0.729-4.49,2.294-8.693,6.779-9.449
			c0.447-0.068,0.896-0.104,1.335-0.104C459.074,153.842,462.561,156.68,463.23,160.721"/>
		<path fill="#FFFFFF" d="M545.165,168.817c-0.133-0.633-0.689-1.068-1.314-1.068c-0.07,0-0.146,0.006-0.219,0.018
			c-0.041,0.01-3.977,0.643-10.633,0.643c-14.546,0.002-43.632-3.039-75.021-23.404c-27.247-17.666-50.245-25.898-72.382-25.898
			c-8.359,0-16.539,1.105-26.521,3.587c-13.801,3.441-37.044,22.243-30.955,52.073c4.5,22.082,17.234,32.369,40.076,32.369
			c11.76,0,26.313-2.529,47.186-8.213c19.731-5.363,44.559-8.324,69.903-8.324c25.646,0,47.131,3.301,52.245,8.021
			c0.257,0.238,0.585,0.354,0.91,0.354c0.34,0,0.676-0.125,0.937-0.377c0.514-0.502,0.546-1.311,0.076-1.85
			c-9.479-10.875-26.539-15.588-39.17-17.627c19.7-2.531,42.677-8.41,43.9-8.725C544.881,170.215,545.314,169.518,545.165,168.817
			 M460.727,166.018c-1.071,1.51-2.661,2.502-4.479,2.805c-0.377,0.059-0.758,0.09-1.135,0.09c-3.354,0-6.195-2.41-6.763-5.73
			c-0.604-3.732,1.939-7.281,5.669-7.904c0.371-0.061,0.746-0.088,1.118-0.088c3.368,0,6.216,2.416,6.771,5.758
			C462.208,162.731,461.791,164.532,460.727,166.018"/>
		<path fill="#FFFFFF" d="M682.988,305.811l-2.103,0.717c0.667,0.053-1.172,2.234-5.571,6.578
			c-4.372,4.354-9.831,9.188-16.347,14.523c-6.48,5.361-13.819,10.07-21.93,14.115c-8.103,4.078-15.895,5.84-23.326,5.295
			c-3.335-0.818-6.628-4.42-9.88-10.766c-3.289-6.355-6.328-13.693-9.104-22.072c-2.805-8.357-5.41-16.838-7.822-25.459
			c-2.432-8.605-4.425-15.9-6.034-21.855c32.767-30.209,57.576-53.559,74.426-70.094c16.815-16.521,25.544-28.826,26.139-36.939
			c0.42-5.783-1.104-10.854-4.521-15.182c-3.419-4.307-8.063-7.859-13.972-10.615c-5.944-2.756-12.23-4.959-18.904-6.635
			c-4.399-1.078-8.662-1.871-12.79-2.445c-19.457-1.915-25.782,14.283-27.508,20.76c-0.177,0.82-0.358,1.639-0.574,2.469
			c-0.021,0.084-0.021,0.117-0.021,0.117h-0.019c-1.565,5.799-4.674,12.006-9.365,18.646c-6.436,9.125-17.718,21.555-33.791,37.262
			c-6.637-20.859-10.04-36.83-10.262-47.91c-0.212-11.057-0.166-18.623,0.133-22.68c0.05-0.653,0.136-1.27,0.251-1.877h-0.005
			c0,0,0.005-0.047,0.011-0.124c0.021-0.027,0.021-0.042,0.022-0.065c0.268-1.609,1.592-13.084-16.704-13.064
			c-1.257,0.035-2.523,0.07-3.888,0.117c-8.161,0.271-16.242,1.435-24.197,3.471c-7.979,2.027-15.004,5.169-21.074,9.377
			c-6.079,4.217-9.363,9.781-9.868,16.719c-0.033,0.467-0.036,0.959-0.05,1.449c0.444,0.094,0.883,0.236,1.301,0.443
			c24.748,12.188,46.563,14.004,57.359,14.004c6.229,0,9.909-0.574,9.945-0.582c2.978-0.473,5.818,1.479,6.437,4.434
			c0.615,2.957-1.195,5.875-4.12,6.629c-0.825,0.213-11.389,2.916-24.275,5.455c8.042,2.988,15.813,7.301,21.381,13.504
			c1.085,1.031,1.76,2.488,1.76,4.104c0,3.121-2.53,5.652-5.655,5.652h-0.025c-1.378,0-2.753-0.5-3.84-1.502
			c-3.063-2.83-20.122-6.801-48.527-6.873c0.616,1.492,1.229,2.992,1.886,4.486c4.065,9.328,8.496,18.523,13.271,27.617
			c4.771,9.074,8.968,16.666,12.61,22.746c-17.589,17.361-33.2,33.395-46.834,48.117c-13.648,14.721-20.727,25.568-21.234,32.516
			c-0.341,4.645,1.53,9.291,5.609,13.939c4.071,4.682,8.681,8.943,13.834,12.814c5.161,3.877,9.716,6.688,13.654,8.408
			c3.967,1.756,6.01,1.467,6.179-0.84c0.167-2.309,1.776-5.693,4.812-10.143c3.044-4.418,6.98-9.533,11.824-15.281
			c4.829-5.77,10.548-11.91,17.143-18.406c6.587-6.51,13.186-13.018,19.765-19.518c2.396,4.25,5.364,10.299,8.861,18.104
			c3.521,7.84,7.859,15.57,13.1,23.23c5.188,7.67,10.812,14.494,16.841,20.457c6.028,5.986,12.396,9.205,19.168,9.697
			c13.491,0.988,25.887-1.176,37.144-6.451c11.258-5.297,20.714-11.441,28.354-18.471c7.649-6.992,13.746-13.523,18.266-19.611
			c4.516-6.068,6.797-9.412,6.838-9.988c0,0,0.539-2.867,1.271-3.404C688.434,314.936,685.01,305.956,682.988,305.811"/>
		<path fill="#FFFFFF" d="M509.765,24.856c-0.03-0.091-0.055-0.178-0.088-0.273c-0.854-2.34-1.952-4.631-3.262-6.873
			c-0.099-0.185-0.154-0.289-0.154-0.289v0.017c-0.565-0.952-1.16-1.897-1.811-2.829c-2.241-3.226-4.734-6.009-7.455-8.373
			c-2.742-2.357-5.594-3.542-8.581-3.542c-1.978,0-3.237,0.653-3.725,1.929c-3.484,3.866-8.072,7.517-13.797,10.943
			c-5.724,3.45-14.174,6.44-25.348,9.017c-11.188,2.58-25.98,4.617-44.376,6.106c-18.39,1.519-42.028,3.171-70.839,2.259
			c-9.645-0.305-15.048-1.449-22.731-1.658c-6.96-0.203-13.747-0.691-20.486-0.793l0.042-0.021c0,0-233.82-10.243-279.514,96.683
			l0.002,0.004c-5.097,11.76-7.645,25.936-7.645,38.975c0,10.744,2.852,20.617,8.581,29.627c5.703,9.029,13.16,16.852,22.364,23.514
			c9.199,6.656,19.389,11.807,30.58,15.457c11.187,3.631,22.484,5.479,33.924,5.479c13.912,0,25.347-1.848,34.3-5.479
			c8.951-3.65,15.905-7.836,20.879-12.57c4.971-4.727,8.319-9.105,10.065-13.201c1.739-4.064,2.616-6.756,2.616-8.047
			c0-3.426-1.125-7.076-3.358-10.945c-2.239-3.861-5.104-7.41-8.58-10.623c-3.484-3.232-7.336-5.896-11.555-8.049
			c-4.226-2.15-8.573-3.223-13.044-3.223c-2.499,0-4.477,1.395-5.976,4.178c-1.485,2.797-3.474,5.795-5.959,9.027
			c-2.493,3.213-5.849,6.229-10.071,9.014c-4.226,2.797-10.319,4.178-18.269,4.178c-5.475,0-11.177-0.842-17.143-2.564
			c-5.968-1.723-11.565-4.396-16.783-8.043c-5.231-3.66-9.447-8.273-12.67-13.859c-3.241-5.58-4.856-12.229-4.856-19.953
			c0-11.592,3.233-21.03,9.7-28.329c6.455-7.295,15.03-13.204,25.724-17.706c10.691-4.51,22.74-7.618,36.167-9.335
			c13.416-1.709,27.084-2.567,41.013-2.567c11.429,0,23.482,0.312,36.152,0.952c12.691,0.644,25.473,1.405,38.421,2.253
			c-3.491,8.163-7.729,17.711-12.685,28.646c-4.982,10.953-10.335,22.541-16.036,34.773c-5.715,12.242-11.439,24.586-17.148,37.027
			c-5.715,12.461-11.069,24.465-16.034,36.055c-2.986,7.309-6.214,15.447-9.691,24.469c-3.483,9.01-6.593,18.25-9.33,27.688
			c-2.72,9.438-4.968,18.57-6.712,27.346c-1.739,8.807-2.598,16.645-2.598,23.521c0,4.279,0.608,8.781,1.86,13.516
			c1.236,4.719,3.094,9,5.604,12.861c2.468,3.859,5.696,7.084,9.689,9.662c3.976,2.57,8.68,3.865,14.168,3.865h2.236
			c0.485,0,0.745-0.223,0.745-0.648c0-0.863-0.873-1.938-2.608-3.217c-1.752-1.291-2.616-4.08-2.616-8.371
			c0-7.295,2.356-17.801,7.09-31.537c4.706-13.742,10.805-28.967,18.271-45.713c7.447-16.729,15.77-34.445,24.963-53.107
			c9.193-18.668,18.146-36.488,26.847-53.453c8.703-16.951,16.662-32.404,23.872-46.352c7.198-13.939,12.542-24.788,16.033-32.518
			c3.126,0.277,6.208,0.541,9.301,0.804c145.646,12.054,203.194-12.306,214.445-18.034c0.712-0.374,1.429-0.768,2.142-1.17h0.002
			c7.803-4.42,15.363-10.598,15.363-17.971C518.254,47.262,513.257,33.059,509.765,24.856 M304.514,57.903
			c-0.192,1.818-0.29,2.727-0.48,4.547c-2.992-0.347-4.49-0.533-7.481-0.931c0.242-2.003,0.366-3.003,0.611-5.004
			c0.409-3.337-0.981-4.806-3.447-5.157c-2.465-0.349-4.193,0.676-4.663,4.008c-1.416,10.062-2.102,15.098-3.432,25.18
			c-0.44,3.334,1.07,4.787,3.72,5.16c2.648,0.371,4.45-0.613,4.831-3.955c0.306-2.672,0.458-4.008,0.769-6.676
			c3.08,0.402,4.619,0.594,7.699,0.949c-0.251,2.488-0.375,3.735-0.618,6.221c-0.736,7.498-5.433,11.344-13.722,10.174
			c-8.286-1.17-11.968-6.201-10.858-13.651c1.447-9.685,2.19-14.522,3.716-24.19c1.173-7.434,5.753-10.979,13.248-9.91
			C301.902,45.736,305.312,50.418,304.514,57.903 M332.638,55.721c-5.354-0.292-8.034-0.477-13.393-0.932
			c-0.402,5.23-0.598,7.84-0.976,13.071c4.381,0.371,6.57,0.524,10.948,0.792c-0.134,2.684-0.197,4.029-0.323,6.713
			c-4.44-0.265-6.66-0.426-11.102-0.799c-0.387,5.499-0.572,8.252-0.933,13.75c5.75,0.48,8.625,0.68,14.37,0.99
			c-0.096,2.686-0.145,4.031-0.235,6.72c-9.195-0.491-13.799-0.848-23.003-1.772c1.254-15.641,2.633-31.266,4.133-46.881
			c8.341,0.851,12.513,1.176,20.842,1.635C332.832,51.692,332.766,53.038,332.638,55.721 M356.699,96.732
			c-5.01-0.005-7.521-0.039-12.536-0.178c-2.629-15.714-4.884-31.498-6.757-47.324c3.082,0.14,4.619,0.196,7.697,0.283
			c1.629,12.864,3.496,25.702,5.603,38.502h0.149c2.041-12.763,4-25.544,5.879-38.334c2.791,0.005,4.188-0.005,6.977-0.045
			C361.51,65.353,359.172,81.052,356.699,96.732 M370.73,96.554c-0.715-15.671-1.307-31.345-1.774-47.024
			c3.035-0.078,4.551-0.129,7.581-0.26c0.729,15.667,1.586,31.332,2.564,46.986C375.755,96.403,374.082,96.463,370.73,96.554
			 M398.871,95.525c-8.177,0.69-12.779-3.397-13.332-10.909c-0.717-9.762-1.055-14.645-1.693-24.412
			c-0.484-7.511,3.107-11.982,10.49-12.596c7.382-0.617,11.662,3.198,12.529,10.676c0.209,1.815,0.313,2.721,0.527,4.536
			c-2.937,0.322-4.405,0.47-7.354,0.745c-0.201-2.006-0.303-3.011-0.502-5.02c-0.334-3.344-1.982-4.465-4.411-4.262
			c-2.428,0.203-3.854,1.586-3.58,4.938c0.83,10.129,1.268,15.189,2.187,25.316c0.304,3.344,2.062,4.433,4.676,4.211
			c2.611-0.224,4.119-1.584,3.757-4.926c-0.289-2.674-0.434-4.012-0.715-6.686c3.029-0.285,4.545-0.436,7.564-0.768
			c0.306,2.483,0.457,3.724,0.769,6.207C410.711,90.051,407.05,94.833,398.871,95.525 M435.722,90.454
			c-1.426-7.941-2.126-11.914-3.499-19.863c-3.58,0.576-5.376,0.845-8.968,1.354c1.219,7.972,1.842,11.96,3.116,19.927
			c-3.297,0.467-4.947,0.688-8.254,1.102c-2.214-15.529-4.306-31.076-6.271-46.637c2.992-0.371,4.486-0.566,7.471-0.986
			c1.146,7.984,1.729,11.975,2.934,19.945c3.543-0.5,5.31-0.764,8.841-1.33c-1.354-7.952-2.017-11.932-3.314-19.889
			c3.022-0.488,4.531-0.742,7.548-1.279c2.795,15.432,5.71,30.845,8.75,46.232C440.736,89.627,439.068,89.913,435.722,90.454
			 M451.863,87.565c-3.287-15.338-6.452-30.699-9.492-46.084c8.041-1.57,12.042-2.449,19.991-4.389
			c0.642,2.611,0.965,3.914,1.61,6.521c-5.108,1.25-7.676,1.836-12.825,2.932c1.114,5.123,1.679,7.683,2.815,12.801
			c4.213-0.896,6.313-1.373,10.499-2.365c0.646,2.607,0.969,3.913,1.619,6.52c-4.248,1.013-6.378,1.492-10.651,2.406
			c1.209,5.379,1.821,8.065,3.058,13.44c5.533-1.185,8.293-1.815,13.785-3.161c0.678,2.602,1.02,3.9,1.7,6.505
			C465.183,84.842,460.758,85.819,451.863,87.565 M491.625,78.569c-7.84,2.236-13.1-0.904-15.072-8.172
			c-0.305-1.113-0.456-1.673-0.757-2.788c2.948-0.762,4.42-1.153,7.359-1.957c0.37,1.292,0.557,1.937,0.931,3.231
			c0.932,3.228,2.854,3.962,5.359,3.244c2.504-0.709,3.716-2.33,2.724-5.541c-1.009-3.276-3.349-5.226-9.515-7.912
			c-7.9-3.438-10.854-6.768-12.221-11.969c-1.915-7.277,0.653-12.334,7.651-14.319c7.003-1.989,11.84,0.962,14.121,8.138
			c0.178,0.564,0.266,0.844,0.446,1.405c-2.783,0.868-4.18,1.291-6.976,2.114c-0.224-0.746-0.336-1.123-0.56-1.869
			c-0.966-3.219-2.654-4.047-4.979-3.389c-2.321,0.664-3.313,2.252-2.4,5.494c0.927,3.297,3.1,5.373,9.235,7.996
			c7.862,3.359,11.136,6.401,12.809,11.514C502.123,70.946,499.465,76.338,491.625,78.569"/>
		<path fill="#FFFFFF" d="M435.23,194.614c-2.808,0.477-5.559,0.992-8.242,1.549C429.672,195.606,432.423,195.09,435.23,194.614"/>
		<path fill="#FFFFFF" d="M448.268,161.793c-0.018,0.457,0.009,0.92,0.083,1.387c0.061,0.35,0.15,0.688,0.264,1.008
			c-0.111-0.32-0.203-0.658-0.264-1.008C448.274,162.713,448.25,162.25,448.268,161.793"/>
		<path fill="#FFFFFF" d="M462.169,147.627c-1.39-0.842-2.786-1.715-4.189-2.625c-2.726-1.766-5.397-3.414-8.042-4.994
			c2.645,1.58,5.316,3.229,8.042,4.994C459.381,145.915,460.779,146.788,462.169,147.627"/>
		<path fill="#FFFFFF" d="M500.282,179.122c2.462-0.318,4.976-0.688,7.492-1.086C505.258,178.436,502.744,178.803,500.282,179.122"
			/>
		<path fill="#FFFFFF" d="M449.559,158.061c0.516-0.715,1.161-1.336,1.917-1.811C450.72,156.725,450.072,157.346,449.559,158.061"/>
		<path fill="#FFFFFF" d="M544.991,168.385c-0.161-0.262-0.406-0.455-0.689-0.557C544.585,167.93,544.828,168.124,544.991,168.385"
			/>
		<path fill="#FFFFFF" d="M485.284,190.598c-6.336,0-12.643,0.188-18.841,0.549C472.644,190.784,478.948,190.598,485.284,190.598"/>
		<path fill="#FFFFFF" d="M507.773,178.036c3.146-0.508,6.293-1.066,9.352-1.646C514.066,176.969,510.92,177.528,507.773,178.036"/>
	</g>
</g>
</svg>
