<?xml version="1.0" encoding="utf-8"?>
<!-- Generator: Adobe Illustrator 15.0.2, SVG Export Plug-In . SVG Version: 6.00 Build 0)  -->
<!DOCTYPE svg PUBLIC "-//W3C//DTD SVG 1.1//EN" "http://www.w3.org/Graphics/SVG/1.1/DTD/svg11.dtd">
<svg version="1.1" id="Layer_2" xmlns="http://www.w3.org/2000/svg" xmlns:xlink="http://www.w3.org/1999/xlink" x="0px" y="0px"
	 width="728.085px" height="587.549px" viewBox="0 0 728.085 587.549" enable-background="new 0 0 728.085 587.549"
	 xml:space="preserve">
<g>
	<path fill="#FFFFFF" d="M388.249,384.604l16.754-5.604l-4.201-12.246c-4.999-14.564-13.447-34.746-29.035-41.835
		c-7.227-3.292-15.096-3.387-22.754-0.276c-14.646,5.954-33.002,21.585-37.264,62.23l-1.695,16.167l16.117-2.093
		C347.949,398.127,368.439,391.252,388.249,384.604 M358.687,348.443c0.648-0.269,1.111-0.367,1.47-0.376
		c0.44-0.011,0.719,0.114,0.974,0.23c1.337,0.609,5.379,3.313,10.626,14.738c-10.512,3.482-20.782,6.711-31.132,9.151
		C343.75,361.796,349.208,352.295,358.687,348.443"/>
	<path fill="#FFFFFF" d="M426.773,432.37c-14.924-11.672-20.618,9.919-27.061,18.412c-9.558,12.605-27.119,21.165-42.825,20.609
		c-14.116-0.504-21.805-12.424-25.485-25.02c-1.176-4.038-2.019-8.171-2.65-12.326c-1.018-6.746,1.402-5.231,7.047-6.658
		c10.406-2.631,20.903-4.912,31.346-7.414c15.496-3.708,38.842-8.541,49.983-18.481c10.206-9.112,9.01-24.64,6.228-37.02
		c-6.129-27.345-23.826-62.81-54.206-67.962c-35.198-5.976-58.68,31.776-66.659,61.097c-9.777,35.913-10.475,79.844,3.706,114.652
		c12.967,31.819,39.734,49.27,73.206,39.491c25.889-7.563,67.705-38.04,53.556-70.958
		C431.566,437.546,429.546,434.543,426.773,432.37C423.408,429.739,430.218,435.069,426.773,432.37 M357.423,332.768
		c18.235-7.411,29.204,18.077,34.802,34.383c-21.058,7.04-42.03,14.426-64.131,17.288
		C329.153,374.321,333.211,342.613,357.423,332.768"/>
	<path fill="#FFFFFF" d="M480.264,472.434c-3.957-45.55-7.443-91.139-11.049-136.721c-1.207-15.343,2.267-83.753-32.112-66.422
		c-11.016,5.551-9.369,17.823-8.537,28.042c5.82,71.632,11.638,143.258,17.449,214.887c1.447,17.818,2.543,31.277,3.99,49.095
		c2.021,24.913,93.686,0.842,93.216-23.079c-0.217-11.007-6.048-32.966-22.135-26.677c-7.272,2.838-35.754,12.669-36.794,4.829
		C482.065,499.544,481.737,489.357,480.264,472.434C478.65,453.881,481.874,490.959,480.264,472.434"/>
	<path fill="#FFFFFF" d="M622.267,316.291c-4.423-30.198-25.467-47.994-55.871-48.529c-29.494-0.522-64.996,9.521-82.706,34.836
		c-8.725,12.456-11.252,29.275-2.712,42.571c7.083,11.021,23.114,15.742,33.776,6.545c12.268-10.624,5.916-26.077,6.878-39.75
		c1.003-14.524,17.44-19.055,29.636-18.046c15.251,1.269,21.773,15.473,24.834,28.712c1.084,4.691,1.749,9.45,2.442,14.208
		c0.787,5.374-10.895,7.782-15.396,9.87c-27.072,12.564-58.432,29.126-72.266,57.079c-13.462,27.222-5.505,66.26,23.767,79.669
		c29.889,13.685,60.51-4.679,79.502-27.25c1.392,16.245,10.229,32.068,25.938,29.662c13.453-2.057,25.708-6.822,23.127-21.5
		c-2.919-16.604-5.359-38.311-7.785-54.985C630.92,378.371,626.535,347.34,622.267,316.291
		C621.042,307.947,622.445,317.591,622.267,316.291 M582.544,364.197c1.693,11.542,3.378,23.079,5.068,34.62
		c1.039,7.112,2.078,14.224,3.117,21.335c1.054,7.183-0.821,7.727-6.396,13.437c-8.047,8.32-19.69,17.938-32.14,16.288
		c-12.438-1.646-21.289-14.284-22.997-25.939C525.264,397.028,563.276,375.005,582.544,364.197
		C582.544,364.197,579.822,365.729,582.544,364.197"/>
	<path fill="#FFFFFF" d="M410.45,99.199c-0.93-2.152-2.497-4.002-4.677-5.499c-2.167-1.48-4.574-2.298-8.159-2.426
		c-2.361,0.065-4.663,0.765-6.803,2.078c-2.636,1.62-4.563,4.195-5.688,7.504l-43.29,123.369c-1.157,3.855-0.529,7.668,1.791,10.738
		c1.909,2.525,4.428,4.272,7.473,5.188c1.612,0.495,3.251,0.715,4.897,0.673c1.335-0.037,2.667-0.253,3.988-0.641
		c3.895-1.148,6.692-4.049,7.786-7.89l4.41-13.281c1.547-4.708,3.548-14.229,5.487-19.881l43.547-7.685l20.566,45.361
		c2.83,6.848,4.881,12.015,6.139,15.362c1.402,4.06,4.354,6.806,8.308,7.739c2.999,0.704,6.013,0.52,8.879-0.521
		c2.981-1.083,5.398-2.964,7.169-5.588c2.147-3.195,2.571-7.036,1.061-11.154L410.45,99.199z M396.257,169.206
		c-3.015,0.54-5.889,1.054-8.648,1.537l11.506-32.293l3.458,8.137c2.769,6.516,5.55,13.124,8.342,19.804
		C405.941,167.398,401.06,168.328,396.257,169.206"/>
	<path fill="#FFFFFF" d="M562.158,188.338c-2.311-4.313-5.388-8.187-9.156-11.526c-3.601-3.174-7.724-5.989-12.287-8.366
		c-4.303-2.246-8.606-4.224-12.916-5.938c-4.271-1.703-8.387-3.146-12.34-4.327c-3.709-1.103-6.824-2.075-9.449-2.938
		c-2.596-0.811-5.502-2.094-8.662-3.785c-2.924-1.573-5.49-3.503-7.642-5.744c-1.898-1.973-3.151-4.102-3.82-6.527
		c-0.497-1.779-0.031-4.053,1.396-6.757c1.692-3.203,3.749-5.671,6.287-7.545c2.611-1.937,5.386-3.23,8.464-3.955
		c3.248-0.775,6.587-0.99,9.898-0.72c3.393,0.295,6.652,1.067,9.712,2.302c2.969,1.2,5.611,2.829,7.857,4.845
		c2.158,1.921,3.712,4.018,4.674,6.188c1.234,3.154,3.857,5.331,7.367,6.135c2.729,0.631,5.494,0.39,8.064-0.65
		c2.673-1.072,4.889-2.974,6.397-5.479c1.247-2.067,2.402-5.557,0.791-10.413c-1.831-5.613-5.126-10.495-9.827-14.504
		c-4.358-3.723-9.442-6.661-15.141-8.733c-5.513-2.015-11.497-3.262-17.789-3.712c-6.287-0.454-12.525,0-18.487,1.376
		c-6.111,1.396-11.765,3.813-16.796,7.187c-5.296,3.559-9.471,8.285-12.398,14.057c-3.501,6.881-5.194,13.468-5.024,19.569
		c0.167,6.102,1.733,11.74,4.64,16.764c2.811,4.853,6.771,9.185,11.77,12.865c4.662,3.446,10.006,6.467,15.839,8.963
		c4.097,1.752,9.008,3.407,14.585,4.926c5.039,1.362,9.96,3.037,14.654,4.992c4.382,1.815,8.306,4.116,11.678,6.836
		c2.731,2.186,4.465,5.025,5.263,8.55c0.577,2.797-0.067,4.105-0.613,4.853c-1.316,1.824-3.173,3.278-5.666,4.442
		c-2.945,1.374-6.287,2.396-9.925,3.029c-3.776,0.648-7.709,0.949-10.46,0.851c-6.837-0.336-12.632-2.353-17.721-6.187
		c-5.116-3.83-8.691-8.819-10.92-15.171c-1.29-3.803-4.467-6.27-8.512-6.592l-1.517-0.039c-2.136,0.057-4.231,0.609-6.221,1.63
		c-2.433,1.261-4.408,3.101-5.879,5.487c-1.932,3.132-2.203,6.819-0.705,10.479c2.546,5.955,5.738,11.204,9.503,15.593
		c3.72,4.362,7.855,8.045,12.268,10.933c4.418,2.881,9.067,5.083,13.839,6.519c4.79,1.453,9.566,2.185,13.976,2.175
		c1.548,0.045,3.115,0.057,4.703,0.01c4.168-0.113,8.478-0.559,12.813-1.317c6.17-1.081,11.923-2.955,17.079-5.562
		c5.458-2.763,10.063-6.552,13.658-11.243c3.872-5.033,5.92-11.201,6.116-18.235C565.795,198.245,564.656,193.002,562.158,188.338"
		/>
	<path fill="#FFFFFF" d="M315.068,94.488c0,0-27.944-7.194-28.857,22.978l3.978,143.365c0,0-0.954,24.054,15,27.21
		c17.859,3.537,76.334,8.542,116.545-19.642c5.916-4.149,6.574-34.768-16.141-26.638c0,0-69.297,19.296-75.053,10.801
		c0,0-7.999-4.496-5.641-22.183l1.152-113.777C326.05,116.604,328.75,97.235,315.068,94.488"/>
	<path fill="#FFFFFF" d="M91.192,185.063c-1.337-9.752-5.476-32.512,13.968-38.466c17.382-5.32,28.847-8.302,43.097,22.483
		c29.301,63.307,93.099,249.174,93.099,249.174s-18.923-173.061-22.805-211.405c-0.915-9.068,2.007-23.098,25.252-23.948
		c0,0,25.965-3.366,26.83,21.683l26.74,330.102c0,0,1.619,34.19-23.706,32.326c0,0-21.171,3.576-31.686-31.228L146.608,311.37
		c0,0,8.241,62.864,10.87,92.154c3.526,39.273,22.35,144.798-33.907,171.788c0,0-35.227,22.165-77.117,6.835
		c-18.659-6.835-48.303-38.133-41.558-97.656c0,0,14.993-56.831,69.009-59.288c0,0,15.025-2.838,21.307,14.212
		c0,0,7.595,19.014-7.455,19.126c0,0-32.726,5.108-39.988,40.038c0,0-9.243,44.527,31.806,46.275c0,0,42.288,0.532,37.25-49.521
		C110.383,431.337,100.029,249.405,91.192,185.063"/>
	<path fill="#FFFFFF" d="M655.04,208.628c0,0,19.937,26.295,29.252,53.804c9.313,27.502,29.93,18.235,32.214,17.588
		c2.284-0.653,19.396-6.666,0.981-51.292c-9.923-24.045-27.917-83.875-87.324-65.622c-70.493,21.667-30.562,89.604-26.589,96.073
		c19.064,31.04,40.139,58.864,60.359,100.726c17.635,36.491,22.446,88.797,3.775,128.259c-12.002,25.34-41.471,21.875-58.399,9.89
		c-30.12-21.331-46.96-3.938-49.262-2.604c-2.296,1.332-15.559,30.288,32.427,54.267c47.996,23.979,94.988,2.343,116.841-33.169
		c17.587-28.564,30.683-103.785-5.346-169.22c-44.323-80.503-38.216-70.103-52.504-92.919
		c-7.067-11.282-23.857-36.619-17.633-45.416C640.06,200.193,651.525,203.719,655.04,208.628"/>
	<path fill="#FFFFFF" d="M301.402,104.102c0,0-5.714,0.332-7.103,5.772c-1.39,5.439,1.309,99.902,1.309,99.902
		s1.76-83.206,2.328-91.214c0.099-1.406,0.465-6.814,2.79-9.403C303.274,106.315,303.289,104.057,301.402,104.102"/>
	<path fill="#FFFFFF" d="M394.927,98.449c0,0-5.73,2.483-7.415,8.246l-34.106,101.493c0,0,22.375-54.981,33.449-87.407
		c2.683-7.859,4.798-18.105,11.404-18.908C402.368,101.369,398.94,97.415,394.927,98.449"/>
	<path fill="#FFFFFF" d="M562.154,195.239c0,0-0.541,34.949-41.901,38.887c-6.576,0.627-11.206-3.733-9.23-5.856
		c1.186-1.284,5.563,1.465,14.155,1.569C544.342,230.058,560.756,210.974,562.154,195.239"/>
	<path fill="#FFFFFF" d="M550.4,130.01c-0.051,1.553,4.208-3.591,2.754-7.177c-6.539-16.207-28.235-23.063-38.758-19.912
		C514.396,102.921,551.122,107.107,550.4,130.01"/>
	<path fill="#FFFFFF" d="M118.548,153.655c-7.676,0.142-20.066,4.59-19.232,23.926c1.022,23.969,26.426,196.324,26.426,196.324
		s-18.177-129.309-17.074-182.958c0.164-7.831-2.87-29.521,18.092-31.917C132.623,158.363,126.242,153.511,118.548,153.655"/>
	<path fill="#FFFFFF" d="M239.286,195.281c0,0,14.824-4.35,20.312,6.773c16.518,33.477,15.346,237.916,15.346,237.916
		s-6.718-192.967-18.076-225.583c-5.89-16.915-23.587-4.547-27.258-9.805C226.755,200.5,230.495,197.063,239.286,195.281"/>
	<path fill="#FFFFFF" d="M309.451,14.964c0.206,0.865,0.054,1.692-0.439,2.477c-0.494,0.781-1.228,1.288-2.207,1.521
		c-0.674,0.161-1.784,0.181-3.272,0.147c-1.863-0.043-3.177,0.069-3.849,0.243c-2.535,0.649-3.798,0.986-6.321,1.68
		c-0.062,0.021-0.126,0.036-0.183,0.052c-0.662,0.19-1.072,0.34-1.204,0.456c-0.127,0.118-0.176,0.475-0.067,0.956
		c0.053,0.243,0.104,0.488,0.102,0.703c0.212,2.382,0.323,3.574,0.548,5.955c0.541,6.089,2.265,13.94,5.08,23.566
		c1.688,5.768,3.588,9.538,5.669,11.339c0.232,0.813,0.347,1.222,0.579,2.038c-0.875,0.784-1.601,1.268-2.19,1.438
		c-3.358,0.973-6.029,0.109-8.078-2.646c-0.954-1.343-2.106-4.132-3.452-8.363c-1.663-5.228-2.764-9.114-3.322-11.604
		c-0.477-2.134-1.085-5.118-1.77-8.886c-0.801-4.391-1.471-7.34-2.001-8.818c-0.311-0.854-0.466-1.281-0.774-2.139
		c-1.891,0.816-2.835,1.227-4.713,2.066c-2.141,0.967-3.716,1.634-4.73,1.978c-4.126,1.396-6.546,1.144-7.281-0.869
		c-0.305-0.837-0.182-1.43,0.37-1.794c0.471-1.333,4.884-4.059,13.378-7.595c6.528-2.716,12.011-4.537,16.245-5.651
		c2.987-0.788,5.707-1.115,8.083-1.073C307.061,12.202,309.021,13.136,309.451,14.964"/>
	<path fill="#FFFFFF" d="M368.266,27.366c0.591,7.447-1.009,13.955-4.522,19.562c-3.94,6.289-9.526,9.846-17.018,10.938
		c-2.134,0.31-4.483,0.279-7.073-0.085c-5.689-0.69-10.159-2.765-13.462-6.352c-2.765-3.006-4.839-7.422-6.114-13.292
		c-1.642-7.552-0.989-14.689,2.166-21.315c3.686-7.743,10.14-12.506,19.05-13.748c7.832-1.092,14.492,1.248,19.629,6.813
		C365.351,14.684,367.726,20.548,368.266,27.366 M359.618,27.406c-1.109-10.81-5.935-16.938-14.616-17.954
		c-0.781-0.107-1.798-0.079-3.048,0.096c-3.502,0.49-6.814,2.325-9.824,5.477c-4.767,5.095-5.947,13.037-3.874,23.7
		c0.159,0.824,0.669,2.14,1.478,3.949c1.684,3.753,3.688,6.35,5.91,7.767c2.536,1.619,5.874,2.171,10.046,1.558
		c5.622-0.821,9.619-3.9,12.025-9.348C359.567,38.445,360.229,33.333,359.618,27.406"/>
	<path fill="#FFFFFF" d="M419.705,2.336c-0.02,0.42-0.354,1.13-0.981,2.139c-0.54,0.819-0.806,1.226-1.34,2.044
		c-2.076,4.749-3.133,8.593-3.264,11.517c-0.508,8.982-0.763,13.473-1.276,22.453c-0.104,2.193-0.784,4.533-2.023,6.965
		c-1.514,2.959-3.312,4.414-5.367,4.354c-3.07-0.09-6.064-2.546-9.107-7.355c-2.339-3.693-4.659-8.604-7.044-14.676
		c-0.498-1.35-1.247-3.375-2.256-6.071c-1.008-2.69-1.794-4.712-2.329-6.056c-0.977,8.914-1.353,14.893-1.239,17.916
		c0.248,6.679,0.813,10.534,1.688,11.471c0.908,0.962,1.404,1.686,1.419,2.154c0.021,0.936-0.496,1.815-1.555,2.634
		c-1.058,0.815-2.166,1.248-3.328,1.293c-1.547,0.064-2.924-1.426-4.072-4.441c-0.936-2.441-1.453-4.63-1.564-6.506
		c-0.086-1.457-0.133-2.767-0.142-3.916c-0.015-1.199-0.063-2.534-0.146-3.996c-0.14-2.344-0.04-5.541,0.333-9.588
		c0.366-4.046,0.503-7.247,0.371-9.593c-0.214-3.819-0.322-5.728-0.538-9.544c0-0.053-0.059-0.205-0.17-0.463
		c-0.108-0.255-0.168-0.413-0.169-0.462c-0.043-0.978,0.77-1.951,2.435-2.705c1.454-0.661,2.899-0.985,4.173-1.028
		c3.266-0.108,5.625,0.711,7.064,2.411c0.396,0.567,0.768,1.767,1.117,3.587c0.26,1.535,0.386,2.299,0.64,3.832
		c0.487,2.87,2.549,8.868,5.911,17.847c3.615,9.642,6.135,14.572,7.797,14.615c0.626,0.016,0.956-0.707,0.993-2.169
		c0.008-0.261-0.045-0.943-0.159-2.042c-0.121-1.104-0.177-1.834-0.165-2.2c0.553-8.483,0.837-12.724,1.415-21.203
		c0.268-3.181,0.986-6.313,2.215-9.337c1.74-4.269,4.106-6.357,6.929-6.207c0.899,0.045,2.131,0.587,3.678,1.618
		C419.705,1.788,419.716,2.023,419.705,2.336"/>
	<path fill="#FFFFFF" d="M459.258,52.969c-0.158,0.872-0.501,1.607-1.008,2.202c-0.661,0.776-1.402,1.094-2.234,0.943
		c-0.11-0.017-0.407-0.113-0.889-0.276c-0.493-0.168-0.817-0.264-0.98-0.292c-2.267-0.404-5.872-0.318-10.697,0.368
		c-4.768,0.686-8.259,0.972-10.521,0.72c-8.867-0.988-12.867-7.576-12.008-20.289c0.694-10.265,1.51-18.171,2.514-23.705
		c0.097-0.514,0.16-0.93,0.18-1.242c0.016-0.264-0.012-0.801-0.079-1.619c-0.073-0.817-0.101-1.331-0.087-1.54
		c0.138-2.378,1.862-3.672,5.045-3.845c3.891-0.209,8.891-0.529,14.934-0.731c6.365-0.213,11.27,0.031,14.652,0.579
		c1.916,0.309,3.508,0.874,4.748,1.59c1.752,1.013,2.569,2.182,2.334,3.52c-0.333,1.902-2.031,2.568-5.1,2.048
		c-0.248-0.041-0.826-0.18-1.719-0.408c-0.899-0.226-1.478-0.359-1.726-0.401c-5.131-0.833-12.25-0.907-21.135,0.053
		c-0.508,0-0.855,0.004-1.044,0.012c-0.191,0.006-0.438,0.102-0.737,0.279c-0.299,0.181-0.535,0.472-0.701,0.876
		c-0.924,2.536-1.698,7.394-2.354,14.573c-0.101,1.094,0.413,1.692,1.553,1.807c1.61,0.161,3.881,0.058,6.833-0.272
		c2.947-0.332,5.241-0.369,6.856-0.145c1.799,0.249,3.743,1.003,5.802,2.274c0.366,1.643,0.505,2.696,0.433,3.162
		c-0.206,1.34-0.749,1.969-1.641,1.881c-1.144-0.048-1.722-0.068-2.864-0.109c-0.431-0.327-1.062-0.549-1.882-0.662
		c-2.471-0.35-4.978-0.439-7.502-0.264c-0.775,0.014-1.992,0.082-3.638,0.215c-1.646,0.134-2.915,0.243-3.813,0.313
		c-0.06-0.007-0.162-0.003-0.309,0.007c-0.148,0.013-0.253,0.017-0.319,0.008c-0.057-0.004-0.144,0.014-0.267,0.054
		c-0.123,0.042-0.22,0.087-0.279,0.132c-0.063,0.045-0.135,0.132-0.203,0.256c-0.067,0.124-0.14,0.289-0.219,0.489
		c-0.229,1.24-0.358,1.988-0.38,2.247c-0.362,4.006-0.494,6.407-0.39,7.206c0.289,3.074,1.688,4.722,4.22,4.996
		c2.019,0.222,5.241,0.006,9.577-0.646c4.246-0.636,7.67-0.781,10.099-0.381C456.153,49.593,458.474,50.963,459.258,52.969"/>
	<path fill="#FFFFFF" d="M503.245,62.354c-0.981,3.033-3.723,4.681-8.009,5.195c-3.346,0.398-6.924,0.131-10.706-0.9
		c-3.456-0.943-7.298-2.678-11.533-5.185c-5.315-3.141-7.816-5.893-7.318-8.35c0.187-0.921,0.713-1.641,1.58-2.15
		c0.871-0.511,1.821-0.659,2.838-0.438c1.407,0.309,2.696,1.186,3.841,2.634c1.163,1.427,1.735,2.14,2.875,3.574
		c1.702,1.489,5.053,2.842,10.053,4.218c4.451,1.227,6.937,0.978,7.481-0.877c0.544-1.853-0.912-4.65-4.53-8.308
		c-3.034-3.046-4.582-4.557-7.739-7.538c-3.177-2.996-5.587-5.877-7.117-8.676c-1.816-3.325-2.394-6.777-1.664-10.307
		c0.928-4.502,3.438-8.175,7.534-10.946c4.454-3.01,9.505-3.912,14.92-2.486c4.721,1.241,8.391,3.405,10.928,6.394
		c2.543,2.989,3.665,6.439,3.402,10.299c-0.214,1.358-0.493,3.542-0.841,6.553c0.004,0.824-0.063,1.464-0.204,1.909
		c-0.555,1.735-1.394,3.154-2.48,4.23c-1.402,1.396-3.02,1.841-4.881,1.278c-1.043-0.317-1.924-1.028-2.656-2.139
		c-0.726-1.111-0.964-2.121-0.706-3.023c0.127-0.453,0.581-1.382,1.363-2.789c0.786-1.402,1.239-2.306,1.354-2.706
		c1.912-6.766,0.14-11.014-5.416-12.503c-3.091-0.827-5.983-0.345-8.585,1.275c-2.542,1.583-4.163,3.695-4.772,6.345
		c-0.977,4.224,0.781,8.369,5.069,12.56c4.753,4.671,7.056,7.042,11.513,11.862C502.803,55.671,504.201,59.371,503.245,62.354"/>
</g>
</svg>
