<?xml version="1.0" encoding="utf-8"?>
<!-- Generator: Adobe Illustrator 15.0.2, SVG Export Plug-In . SVG Version: 6.00 Build 0)  -->
<!DOCTYPE svg PUBLIC "-//W3C//DTD SVG 1.1//EN" "http://www.w3.org/Graphics/SVG/1.1/DTD/svg11.dtd">
<svg version="1.1" id="Layer_2" xmlns="http://www.w3.org/2000/svg" xmlns:xlink="http://www.w3.org/1999/xlink" x="0px" y="0px"
	 width="723.93px" height="768px" viewBox="0 0 723.93 768" enable-background="new 0 0 723.93 768" xml:space="preserve">
<g>
	<path fill="#FFFFFF" d="M20.947,9.802c-1.664-3.435,0.554-6.859,4.671-6.859h36.566c2.198,0,4.139,1.574,4.671,2.899l45.366,96.393
		h1.644L159.24,5.842c0.555-1.326,2.465-2.899,4.642-2.899h36.588c4.118,0,6.334,3.425,4.671,6.859l-86.327,177.711
		c-0.812,1.583-2.455,2.919-4.671,2.919h-2.73c-2.218,0-3.861-1.335-4.691-2.919L20.947,9.802z"/>
	<path fill="#FFFFFF" d="M231.327,180.933l86.03-177.722c0.831-1.594,2.751-2.919,4.691-2.919h2.73c1.938,0,3.859,1.326,4.691,2.919
		l86.049,177.721c1.633,3.414-0.564,6.858-4.67,6.858h-30.531c-4.947,0-7.145-1.603-9.621-6.611l-9.916-20.852h-74.769
		l-9.877,21.109c-1.385,3.176-4.414,6.354-9.905,6.354h-30.265C231.862,187.791,229.665,184.346,231.327,180.933 M344.304,124.403
		l-20.89-43.554h-0.287l-20.615,43.554H344.304z"/>
	<path fill="#FFFFFF" d="M234.439,229.903c0-2.652,2.168-5.017,5.195-5.017h82.222c32.984,0,59.931,25.611,59.931,57.043
		c0,24.295-16.764,43.831-40.703,53.075l37.677,67.06c1.938,3.433,0,7.658-4.672,7.658h-36.57c-2.197,0-3.857-1.296-4.413-2.364
		l-36.548-69.979h-18.971v67.335c0,2.644-2.477,5.008-5.226,5.008h-32.729c-3.027,0-5.195-2.364-5.195-5.008V229.903
		L234.439,229.903z M318.273,303.841c11.281,0,20.89-10.025,20.89-21.119c0-11.095-9.607-20.071-20.89-20.071h-40.685v41.189
		L318.273,303.841L318.273,303.841z"/>
	<path fill="#FFFFFF" d="M509.35,402.859L595.4,225.167c0.832-1.603,2.754-2.919,4.674-2.919h2.75c1.918,0,3.859,1.316,4.674,2.919
		l86.051,177.692c1.662,3.451-0.537,6.867-4.672,6.867h-30.514c-4.938,0-7.166-1.586-9.631-6.591l-9.885-20.861h-74.809
		l-9.865,21.128c-1.387,3.167-4.416,6.323-9.918,6.323h-30.234C509.904,409.728,507.688,406.313,509.35,402.859 M622.33,346.36
		l-20.895-43.575h-0.258l-20.623,43.575H622.33z"/>
	<path fill="#FFFFFF" d="M33.995,492.429c0-2.635,2.218-5.01,4.948-5.01h67.078c53.066,0,96.521,41.446,96.521,92.146
		c0,51.234-43.456,92.684-96.521,92.684H38.942c-2.73,0-4.948-2.377-4.948-5.019L33.995,492.429L33.995,492.429z M103.271,633.165
		c31.085,0,53.619-23.494,53.619-53.601c0-29.845-22.534-53.342-53.619-53.342H76.896v106.941L103.271,633.165L103.271,633.165z"/>
	<path fill="#FFFFFF" d="M233.307,454.688c0-3.204,2.477-6.096,5.227-6.096h32.985c2.75,0,5.244,2.894,5.244,6.096V666.66
		c0,3.199-2.494,6.08-5.244,6.08h-32.985c-2.75,0-5.227-2.881-5.227-6.08V454.688z"/>
	<path fill="#FFFFFF" d="M381.082,526.222h-43.535c-3.375,0-5.819-2.366-5.819-5.008v-28.789c0-2.623,2.444-4.998,5.819-4.998
		h135.195c3.348,0,5.818,2.375,5.818,4.998v28.789c0,2.642-2.475,5.008-5.818,5.008h-43.545v141.006
		c0,2.651-2.721,5.026-5.789,5.026h-36.547c-3.049,0-5.779-2.375-5.779-5.026V526.222L381.082,526.222z"/>
	<path fill="#FFFFFF" d="M587.707,484.775c54.982,0,98.975,42.516,98.975,95.331c0,52.809-43.99,94.79-98.975,94.79
		s-98.699-41.981-98.699-94.79C489.008,527.291,532.723,484.775,587.707,484.775 M587.707,632.648
		c30.262,0,54.982-23.763,54.982-52.542c0-29.056-24.721-53.083-54.982-53.083c-29.979,0-54.709,24.027-54.709,53.083
		C532.998,608.887,557.73,632.648,587.707,632.648"/>
	<path fill="#FFFFFF" d="M565.555,116.475c0,15.032-12.689,27.215-28.346,27.215c-15.635,0-28.354-12.183-28.354-27.215
		c0-15.033,12.719-27.206,28.354-27.206C552.867,89.269,565.555,101.442,565.555,116.475"/>
	<path fill="#FFFFFF" d="M143.822,337.254c0,15.033-12.708,27.206-28.334,27.206c-15.655,0-28.364-12.173-28.364-27.206
		c0-15.032,12.709-27.225,28.364-27.225C131.115,310.029,143.822,322.223,143.822,337.254"/>
	<path fill="#FFFFFF" d="M430.801,230.652c0-3.226,2.477-6.106,5.227-6.106h32.984c2.754,0,5.227,2.88,5.227,6.106v211.972
		c0,3.198-2.475,6.078-5.227,6.078h-32.984c-2.752,0-5.227-2.88-5.227-6.078V230.652z"/>
	<path fill="#FFFFFF" d="M0,736.115c0-4.632,3.226-7.058,4.286-7.897c0.326-0.227,0.633-0.308,1.019,0.089l0.673,0.653
		c0.326,0.366,0.238,0.753-0.049,0.968c-0.496,0.358-3.198,2.309-3.237,5.296c0,0,0.771-0.296,1.811-0.296
		c1.801,0,3.335,1.355,3.335,3.118c0,1.73-1.534,3.186-3.641,3.186C2.445,741.23,0,739.954,0,736.115 M9.154,736.115
		c0-4.632,3.226-7.058,4.265-7.897c0.316-0.227,0.644-0.308,1.01,0.089l0.693,0.653c0.325,0.366,0.247,0.753-0.04,0.968
		c-0.515,0.358-3.217,2.309-3.267,5.296c0,0,0.781-0.296,1.841-0.296c1.791,0,3.306,1.355,3.306,3.118
		c0,1.73-1.516,3.186-3.632,3.186C11.579,741.23,9.154,739.954,9.154,736.115"/>
	<path fill="#FFFFFF" d="M34.803,729.232c0-0.437,0.396-0.843,0.841-0.843h11.213c8.847,0,16.121,6.917,16.121,15.398
		c0,8.56-7.274,15.479-16.121,15.479H35.644c-0.444,0-0.841-0.396-0.841-0.832V729.232L34.803,729.232z M46.402,752.736
		c5.186,0,8.956-3.919,8.956-8.945c0-4.987-3.771-8.916-8.956-8.916h-4.415v17.861H46.402L46.402,752.736z"/>
	<path fill="#FFFFFF" d="M78.747,729.23c0-0.437,0.367-0.843,0.871-0.843h19.011c0.504,0,0.89,0.404,0.89,0.843v4.799
		c0,0.436-0.386,0.852-0.89,0.852H85.911v5.465h10.471c0.475,0,0.861,0.394,0.861,0.849v4.81c0,0.484-0.387,0.813-0.861,0.813
		H85.911v5.968h12.718c0.504,0,0.89,0.404,0.89,0.843v4.811c0,0.436-0.386,0.831-0.89,0.831H79.618
		c-0.504,0-0.871-0.396-0.871-0.831V729.23z"/>
	<path fill="#FFFFFF" d="M140.254,734.877h-6.57c-0.505,0-0.871-0.406-0.871-0.843v-4.811c0-0.426,0.366-0.842,0.871-0.842h20.396
		c0.494,0,0.872,0.416,0.872,0.842v4.811c0,0.435-0.378,0.843-0.872,0.843h-6.572v23.563c0,0.429-0.414,0.82-0.871,0.82h-5.521
		c-0.444,0-0.86-0.393-0.86-0.82L140.254,734.877L140.254,734.877z"/>
	<path fill="#FFFFFF" d="M183.853,727.95c9.193,0,16.527,7.104,16.527,15.935c0,8.816-7.333,15.837-16.527,15.837
		s-16.488-7.021-16.488-15.837C167.365,735.056,174.659,727.95,183.853,727.95 M183.853,752.653c5.067,0,9.193-3.972,9.193-8.771
		c0-4.851-4.126-8.876-9.193-8.876c-5.017,0-9.155,4.027-9.155,8.876C174.699,748.685,178.836,752.653,183.853,752.653"/>
	<path fill="#FFFFFF" d="M216.085,729.232c0-0.437,0.395-0.843,0.85-0.843h11.187c8.864,0,16.118,6.917,16.118,15.398
		c0,8.56-7.254,15.479-16.118,15.479h-11.187c-0.455,0-0.85-0.396-0.85-0.832V729.232z M227.665,752.736
		c5.214,0,8.955-3.919,8.955-8.945c0-4.987-3.741-8.916-8.955-8.916h-4.415v17.861H227.665L227.665,752.736z"/>
	<path fill="#FFFFFF" d="M274.159,727.95c9.193,0,16.527,7.104,16.527,15.935c0,8.816-7.334,15.837-16.527,15.837
		c-9.175,0-16.486-7.021-16.486-15.837C257.671,735.056,264.984,727.95,274.159,727.95 M274.159,752.653
		c5.068,0,9.193-3.972,9.193-8.771c0-4.851-4.125-8.876-9.193-8.876c-4.996,0-9.135,4.027-9.135,8.876
		C265.024,748.685,269.162,752.653,274.159,752.653"/>
	<path fill="#FFFFFF" d="M326.259,729.23c0-0.437,0.406-0.843,0.861-0.843h5.649c0.514,0,0.891,0.404,0.891,0.843v17.872
		c0,3.078,2.376,5.553,5.641,5.553c3.296,0,5.74-2.477,5.74-5.553V729.23c0-0.437,0.365-0.843,0.882-0.843h5.648
		c0.456,0,0.861,0.404,0.861,0.843v18.22c0,6.698-5.888,12.271-13.133,12.271c-7.204,0-13.044-5.572-13.044-12.271v-18.22H326.259z"
		/>
	<path fill="#FFFFFF" d="M369.941,728.751c0-0.444,0.406-0.801,0.861-0.801h1.178l18.318,16.953h0.039v-15.678
		c0-0.426,0.395-0.842,0.873-0.842h5.512c0.455,0,0.871,0.416,0.871,0.842v29.69c0,0.456-0.416,0.812-0.871,0.812h-0.734
		c-0.127,0-0.492-0.139-0.604-0.219l-18.129-17.524h-0.051v16.458c0,0.425-0.387,0.82-0.883,0.82h-5.473
		c-0.455,0-0.85-0.396-0.85-0.82L369.941,728.751z"/>
	<path fill="#FFFFFF" d="M435.975,729.23c0-0.437,0.367-0.843,0.871-0.843h11.047c5.668,0,10.301,4.414,10.301,9.756
		c0,5.455-4.633,9.908-10.232,9.908h-4.82v10.381c0,0.437-0.414,0.832-0.891,0.832h-5.404c-0.504,0-0.869-0.395-0.869-0.832V729.23
		H435.975z M447.486,741.63c1.969,0,3.629-1.503,3.629-3.485c0-1.858-1.66-3.264-3.629-3.264h-4.346v6.749H447.486L447.486,741.63z"
		/>
	<path fill="#FFFFFF" d="M487.314,727.95c9.191,0,16.525,7.104,16.525,15.935c0,8.816-7.332,15.837-16.525,15.837
		c-9.195,0-16.49-7.021-16.49-15.837C470.824,735.056,478.119,727.95,487.314,727.95 M487.314,752.653
		c5.047,0,9.191-3.972,9.191-8.771c0-4.851-4.146-8.876-9.191-8.876c-5.02,0-9.125,4.027-9.125,8.876
		C478.189,748.685,482.295,752.653,487.314,752.653"/>
	<path fill="#FFFFFF" d="M533.723,727.95c9.174,0,16.525,7.104,16.525,15.935c0,5.729-3.441,10.916-8.498,13.884l5.926,8.916
		c0.367,0.624,0,1.315-0.732,1.315h-6.195c-0.365,0-0.594-0.205-0.75-0.434l-4.871-7.889c-0.533,0.041-1.078,0.041-1.404,0.041
		c-9.174,0-16.486-7.019-16.486-15.837C517.234,735.056,524.547,727.95,533.723,727.95 M533.723,752.653
		c5.037,0,9.174-3.972,9.174-8.771c0-4.851-4.137-8.876-9.174-8.876c-5.018,0-9.156,4.027-9.156,8.876
		C524.566,748.685,528.705,752.653,533.723,752.653"/>
	<path fill="#FFFFFF" d="M565.662,729.23c0-0.437,0.402-0.843,0.859-0.843h5.65c0.494,0,0.881,0.404,0.881,0.843v17.872
		c0,3.078,2.389,5.553,5.631,5.553c3.316,0,5.76-2.477,5.76-5.553V729.23c0-0.437,0.357-0.843,0.861-0.843h5.65
		c0.465,0,0.881,0.404,0.881,0.843v18.22c0,6.698-5.889,12.271-13.152,12.271c-7.205,0-13.021-5.572-13.021-12.271V729.23
		L565.662,729.23z"/>
	<path fill="#FFFFFF" d="M609.379,729.23c0-0.437,0.416-0.843,0.891-0.843h5.514c0.436,0,0.869,0.404,0.869,0.843v29.202
		c0,0.437-0.434,0.832-0.869,0.832h-5.514c-0.477,0-0.891-0.395-0.891-0.832V729.23z"/>
	<path fill="#FFFFFF" d="M638.834,734.877h-6.582c-0.504,0-0.871-0.406-0.871-0.843v-4.811c0-0.426,0.367-0.842,0.871-0.842h20.396
		c0.525,0,0.902,0.416,0.902,0.842v4.811c0,0.435-0.377,0.843-0.902,0.843h-6.57v23.563c0,0.429-0.416,0.82-0.871,0.82h-5.514
		c-0.453,0-0.859-0.393-0.859-0.82V734.877L638.834,734.877z"/>
	<path fill="#FFFFFF" d="M682.43,727.95c9.174,0,16.527,7.104,16.527,15.935c0,8.816-7.355,15.837-16.527,15.837
		c-9.176,0-16.488-7.021-16.488-15.837C665.939,735.056,673.254,727.95,682.43,727.95 M682.43,752.653
		c5.037,0,9.174-3.972,9.174-8.771c0-4.851-4.137-8.876-9.174-8.876c-4.998,0-9.135,4.027-9.135,8.876
		C673.295,748.685,677.43,752.653,682.43,752.653"/>
	<path fill="#FFFFFF" d="M723.93,733.516c0,4.631-3.215,7.06-4.285,7.897c-0.314,0.219-0.621,0.298-1.02-0.09l-0.662-0.672
		c-0.326-0.346-0.238-0.732,0.049-0.947c0.496-0.368,3.197-2.31,3.236-5.298c0,0-0.783,0.297-1.811,0.297
		c-1.801,0-3.334-1.356-3.334-3.136c0-1.724,1.531-3.178,3.629-3.178C721.486,728.391,723.93,729.667,723.93,733.516
		 M714.775,733.516c0,4.631-3.215,7.06-4.258,7.897c-0.324,0.219-0.643,0.298-1.018-0.09l-0.693-0.672
		c-0.326-0.346-0.238-0.732,0.039-0.947c0.523-0.368,3.227-2.31,3.266-5.298c0,0-0.77,0.297-1.84,0.297
		c-1.793,0-3.307-1.356-3.307-3.136c0-1.724,1.516-3.178,3.633-3.178C712.361,728.391,714.775,729.667,714.775,733.516"/>
</g>
</svg>
