<?xml version="1.0" encoding="utf-8"?>
<!-- Generator: Adobe Illustrator 15.0.2, SVG Export Plug-In . SVG Version: 6.00 Build 0)  -->
<!DOCTYPE svg PUBLIC "-//W3C//DTD SVG 1.1//EN" "http://www.w3.org/Graphics/SVG/1.1/DTD/svg11.dtd">
<svg version="1.1" id="Layer_2" xmlns="http://www.w3.org/2000/svg" xmlns:xlink="http://www.w3.org/1999/xlink" x="0px" y="0px"
	 width="430.414px" height="720px" viewBox="0 0 430.414 720" enable-background="new 0 0 430.414 720" xml:space="preserve">
<g>
	<path fill="#FFFFFF" d="M215.89,580.773c-0.067,0.074-2.45,2.146-2.415,2.242c-1.029,0.715-2.094,1.388-3.171,2.034
		c-0.187,0.107-2.472,1.216-2.775,1.435c-1.582,0.583-3.201,1.059-4.834,1.477c-0.285,0.074-2.023,0.321-2.748,0.443
		c-1.687,0.113-3.375,0.113-5.063,0.044c-0.377-0.007-0.657-0.014-0.893-0.014c-0.209-0.047-0.461-0.091-0.768-0.146
		c-1.747-0.314-3.443-0.824-5.13-1.373c17.221-14.508,34.44-29.01,51.657-43.521c6.95-5.854,6.203-17.887,0-23.855
		c-16.56-15.948-41.133-22.16-62.967-13.996c-23.628,8.841-38.858,30.676-39.751,55.771c-0.89,25.107,15.748,47.325,38.305,56.711
		c22.001,9.163,47.557,2.849,64.413-13.392c6.621-6.374,6.408-17.445,0-23.858C233.162,574.181,222.515,574.399,215.89,580.773
		 M173.195,550.644c-1.162,3.088,1.508-2.438,1.866-3.027c0.076-0.133,1.465-1.946,1.804-2.444c1.066-1.213,2.221-2.334,3.414-3.418
		c-0.563,0.583,2.268-1.691,2.451-1.811c0.444-0.296,4.135-2.162,3.939-2.202c1.159-0.426,2.343-0.8,3.532-1.146
		c0.542-0.161,4.041-0.721,4.313-0.842c0.746-0.048,1.483-0.072,2.226-0.082c-8.459,7.126-16.917,14.248-25.369,21.379
		c0.138-0.868,0.271-1.711,0.337-1.965C172.098,553.567,172.647,552.102,173.195,550.644"/>
	<path fill="#FFFFFF" d="M305.806,504.515c-7.103,0.166-13.808,1.706-19.882,4.362c-8.33-11.102-30.655-7.798-30.655,9.901V554.5
		c-0.011,0.196-0.025,0.396-0.028,0.591c-0.003,0.284,0.02,0.558,0.028,0.831v50.028c0,21.765,33.737,21.765,33.737,0v-51.261
		c0.073-0.816,0.236-2.464,0.209-2.656c0.332-1.433,0.792-2.833,1.271-4.22c-1.216,3.505,1.101-1.723,1.544-2.454
		c0.154-0.219,0.281-0.398,0.395-0.558c0.481-0.552,0.966-1.097,1.482-1.622c0.257-0.268,1.96-1.653,2.148-1.856
		c1.225-0.795,2.521-1.469,3.814-2.122c-3.322,1.67,2.063-0.484,2.896-0.7c0.359-0.063,0.625-0.12,0.853-0.165
		c0.729-0.049,1.458-0.077,2.188-0.077c9.192-0.207,16.868-7.517,16.868-16.867C322.674,512.35,315.001,504.31,305.806,504.515"/>
	<path fill="#FFFFFF" d="M396.079,604.486c8.045,8.044,16.089,16.09,24.131,24.134c3.477,3.475,8.869-1.908,5.393-5.386
		c-8.043-8.048-16.09-16.092-24.133-24.132C397.992,595.62,392.603,601.015,396.079,604.486"/>
	<path fill="#FFFFFF" d="M157.154,484.314c-6.674-6.679-17.123-6.256-23.855,0c-0.201,0.188-0.372,0.346-0.531,0.479
		c-0.684,0.357-1.069,0.583-1.173,0.672c-0.39,0.112-0.782,0.218-1.181,0.317c-0.209,0.01-0.445,0.023-0.742,0.037
		c-0.301-0.014-0.539-0.028-0.754-0.037c-0.393-0.101-0.785-0.203-1.179-0.317c-0.108-0.089-0.493-0.314-1.177-0.666
		c-0.151-0.141-0.316-0.292-0.521-0.479c-4.967-4.615-11.936-5.994-17.936-3.75l11.235,11.24c1.398,1.392,1.791,3.286,1.059,5.067
		c-0.772,1.871-2.661,3.175-4.593,3.175c-1.229,0-2.363-0.496-3.292-1.428l-12.123-12.12c-2.164,3.112-3.229,6.93-3.08,10.694
		c-0.03,0.466-0.067,0.928-0.07,1.409c-0.021,4.41-0.314,8.802-0.743,13.188c-0.12,1.231-0.263,2.456-0.411,3.687
		c-0.02,0.197-0.04,0.355-0.056,0.5c-0.007,0.038-0.011,0.074-0.013,0.111c-0.385,2.659-0.826,5.308-1.289,7.95
		c-1.953,11.152-4.685,22.183-8.08,32.979c-0.829,2.634-1.731,5.248-2.67,7.841c-0.451,1.266-0.936,2.518-1.418,3.772
		c-0.121,0.313-0.551,1.36-0.813,2.008c-1.736,3.943-3.693,7.794-5.914,11.495c-0.432,0.703-2.133,3.054-2.639,3.826
		c-0.09,0.097-0.168,0.203-0.258,0.305c-0.049-0.063-0.099-0.115-0.15-0.171c0.568,0.564-2.148-3.022-2.729-3.96
		c-2.205-3.541-4.039-7.307-5.74-11.108c-0.17-0.432-0.832-2.003-0.994-2.396c-0.493-1.249-0.954-2.515-1.415-3.772
		c-0.958-2.587-1.819-5.211-2.671-7.841c-3.463-10.774-6.066-21.841-8.077-32.98c-0.479-2.635-0.896-5.289-1.288-7.938
		c-0.021-0.172-0.044-0.373-0.074-0.622c-0.15-1.23-0.281-2.453-0.408-3.688c-0.455-4.382-0.72-8.782-0.744-13.187
		c-0.114-21.753-33.857-21.759-33.746,0c0.031,4.9,0.294,9.823,0.738,14.752l15.504,15.508c1.396,1.396,1.793,3.288,1.06,5.069
		c-0.772,1.871-2.666,3.166-4.597,3.166c-1.223,0-2.358-0.483-3.289-1.419l-6.65-6.647c2.109,12.587,5.287,25.037,9.037,36.959
		c6.376,20.275,15.813,45.57,37.137,54.101c13.605,5.44,25.254-1.418,34.002-11.46l-11.574-11.571c-0.721-0.72-1.17-1.572-1.34-2.47
		c-0.222-0.775-0.207-1.61,0.129-2.422c0.125-0.306,0.295-0.59,0.487-0.856c0.905-1.499,2.563-2.497,4.257-2.497
		c1.225,0,2.363,0.496,3.291,1.417l10.6,10.609c2.67-4.05,4.935-8.224,6.704-12.076c10.104-21.995,15.674-45.621,18.937-69.517
		c9.874,0.08,19.776-3.603,27.818-11.076C163.894,501.912,163.478,490.632,157.154,484.314"/>
	<path fill="#FFFFFF" d="M401.62,582.255c-0.069,0.073-2.438,2.136-2.419,2.242c-1.029,0.716-2.095,1.383-3.171,2.028
		c-0.205,0.135-3.083,1.522-2.768,1.479c-1.587,0.569-3.215,1.017-4.837,1.432c-0.333,0.089-2.594,0.41-2.999,0.495
		c-1.6,0.096-3.214,0.06-4.817,0.003c-0.363-0.009-0.658-0.015-0.894-0.021c-0.208-0.045-0.459-0.089-0.766-0.141
		c-1.743-0.313-3.449-0.817-5.136-1.368c17.224-14.511,34.44-29.009,51.666-43.524c6.943-5.854,6.199-17.884,0-23.863
		c-15.157-14.601-37.038-20.995-57.375-15.717l11.848,11.856c1.4,1.4,1.795,3.292,1.061,5.071c-0.772,1.865-2.663,3.171-4.596,3.171
		c-1.222,0-2.36-0.493-3.282-1.421l-0.879-0.868c-0.183-0.133-0.359-0.286-0.535-0.451l-13.73-13.736
		c-20.654,9.635-33.869,29.675-35.133,52.585l15.941,15.948c1.399,1.396,1.791,3.295,1.06,5.073c-0.773,1.863-2.662,3.17-4.593,3.17
		c-1.229,0-2.36-0.489-3.298-1.422l-7.945-7.95c4.23,19.332,18.646,35.527,37.041,43.188c15.299,6.369,32.313,5.226,46.928-1.503
		l-12.774-12.772c-1.399-1.4-1.79-3.305-1.057-5.072c0.771-1.869,2.658-3.176,4.588-3.176c1.229,0,2.366,0.488,3.295,1.426
		l14.702,14.696c3.099-2.063,6.031-4.393,8.732-6.992c6.625-6.375,6.405-17.454,0-23.861
		C418.888,575.668,408.238,575.88,401.62,582.255 M357.099,558.532c0.14-0.872,0.28-1.709,0.344-1.968
		c0.383-1.513,0.933-2.979,1.479-4.443c-1.153,3.091,1.511-2.434,1.865-3.022c0.09-0.146,1.811-2.397,1.878-2.564
		c1.128-1.257,2.357-2.422,3.613-3.544c-1.423,1.303,1.983-1.437,2.181-1.566c0.445-0.288,4.146-2.157,3.942-2.196
		c1.162-0.428,2.342-0.801,3.528-1.153c0.548-0.157,4.044-0.715,4.32-0.84c0.734-0.041,1.484-0.07,2.226-0.076
		C374.012,544.274,365.562,551.401,357.099,558.532"/>
	<path fill="#FFFFFF" d="M308.884,559.528c8.045,8.04,16.087,16.089,24.134,24.132c3.479,3.479,8.865-1.906,5.386-5.392
		c-8.044-8.047-16.086-16.087-24.127-24.129C310.796,550.658,305.414,556.05,308.884,559.528"/>
	<path fill="#FFFFFF" d="M349.685,499.196c8.044,8.041,16.084,16.09,24.132,24.131c3.478,3.477,8.862-1.911,5.385-5.385
		c-8.04-8.052-16.083-16.092-24.134-24.135C351.592,490.327,346.203,495.72,349.685,499.196"/>
	<path fill="#FFFFFF" d="M87.024,596.257c8.039,8.043,16.086,16.09,24.134,24.134c3.473,3.475,8.863-1.914,5.388-5.389
		c-8.044-8.045-16.087-16.089-24.128-24.134C88.935,587.39,83.551,592.781,87.024,596.257"/>
	<path fill="#FFFFFF" d="M1.124,510.924c8.043,8.045,16.087,16.089,24.133,24.135c3.477,3.479,8.867-1.91,5.389-5.383
		c-8.045-8.053-16.086-16.097-24.135-24.139C3.033,502.057-2.351,507.45,1.124,510.924"/>
	<path fill="#FFFFFF" d="M89.037,473.775c8.04,8.045,16.082,16.083,24.131,24.133c3.478,3.473,8.865-1.908,5.39-5.394
		c-8.046-8.046-16.086-16.089-24.133-24.13C90.944,464.9,85.56,470.293,89.037,473.775"/>
	<path fill="#FFFFFF" d="M427.819,433.781l0.283,0.483c4.068-78.233-35.146-155.924-107.791-197.127
		c-12.254-6.95-25.13-12.64-38.41-17.027v-44.853H265.5v-67.793c0-15.922-8.287-29.93-20.735-38.011V51.841l18.918,0.012
		c0.017,0.003,0.021,0.003,0.024,0c2.406,0,4.342-1.941,4.342-4.332c0-1.375-0.633-2.595-1.622-3.391L224.321,2.402
		c-1.701-1.687-4.443-1.672-6.137,0.028l-41.603,41.98c-1.229,1.24-1.599,3.104-0.922,4.715c0.673,1.617,2.25,2.671,3.997,2.671
		l15.887,0.011V69.5c-12.412,8.091-20.66,22.07-20.66,37.962v67.793H158.49v41.752C104.528,231.895,57.604,267.65,29.31,317.529
		C8.14,354.853-0.28,395.887,2.257,435.812c0.458,3.783,2.289,11.662,9.541,12.749h14.708h27.839h4.979h13.84v-68.883
		c33.991-31.236,86.545-31.236,120.541,0v68.883h18.819v-76.794l-2.755-2.758c-42.095-42.089-110.58-42.089-152.668,0l-2.756,2.758
		v56.502H24.828c-1.067-33.688,6.657-68.027,24.461-99.418c33.776-59.582,97.339-96.583,165.903-96.583
		c32.724,0,65.154,8.582,93.803,24.831c63.365,35.934,98.127,102.973,96.281,171.171H275.501l-0.1-50.208
		c-13.059-30.706-57.057-40.626-68.439-40.626h-38.321c18.089,5.171,34.674,14.844,48.322,28.495l4.037,4.028v21.085v1.96v55.559
		h34.349h59.104h89.208h14.466C427.718,447.125,427.819,433.781,427.819,433.781 M253.144,43.178l-13.716-0.01L227.72,17.979
		L253.144,43.178z M190.055,43.132l29.242-29.508l13.73,29.537L190.055,43.132z M230.263,51.832v11.495
		c-3.242-0.738-6.603-1.167-10.073-1.167c-3.49,0-6.878,0.438-10.147,1.188v-11.53L230.263,51.832z M195.184,107.462
		c0-10.809,6.91-20.011,16.536-23.495c10.683,5.265,18.058,16.231,18.058,28.914v60.7h-34.594V107.462z M234.613,210.233
		c-6.447-0.601-12.929-0.915-19.42-0.915c-12.316,0-24.49,1.076-36.41,3.145v-16.907h55.83V210.233L234.613,210.233z M220.283,82.46
		c13.751,0.049,24.917,11.248,24.917,25.002v66.12h-9.634v-60.7C235.566,100.441,229.545,89.41,220.283,82.46 M261.604,214.498
		c-7-1.571-14.074-2.782-21.19-3.641v-15.3h21.19V214.498z"/>
	<path fill="#FFFFFF" d="M78.872,381.614v66.95h24.999c5.033-38.763,38.144-68.705,78.283-68.705c2.309,0,4.578,0.12,6.833,0.314
		c-15.179-12.64-34.255-19.569-54.195-19.569C114.096,360.604,94.317,368.052,78.872,381.614"/>
	<path fill="#FFFFFF" d="M266.024,649.274c-8.731,8.729,2.002-2.001-6.742,6.741c-3.771,3.769,2.074,9.626,5.854,5.848
		c8.738-8.734-1.992,1.998,6.743-6.742C275.661,651.347,269.806,645.494,266.024,649.274"/>
	<path fill="#FFFFFF" d="M2.804,683.849c0-9.003,7.33-16.337,16.277-16.337c3.225,0,5.614,0.222,7.779,0.666v-15.061
		c0-1.054,7.279-1.054,7.279,0v50.68c0,1.111-7.279,1.111-7.279,0v-0.501c-2,0.892-4.168,1.335-6.444,1.335h-1.335
		c-8.948,0-16.277-7.28-16.277-16.278V683.849z M26.86,676.345c-2.055-0.834-3.664-1.392-6.443-1.499h-1.336
		c-4.941,0-8.999,4.001-8.999,9.003v4.502c0,4.939,4.058,8.999,8.999,8.999h1.335c2.5,0,4.834-1.059,6.444-2.722V676.345
		L26.86,676.345z"/>
	<path fill="#FFFFFF" d="M42.505,668.177c0-0.831,7.28-0.831,7.28,0v20.345c0,4.992,4.001,8.998,9.004,8.998h1.276
		c2.5,0,4.776-1.061,6.441-2.724v-26.619c0.059-0.831,7.283-0.831,7.283,0v35.784c0,0.889-7.227,0.889-7.227,0v-0.498
		c-2.054,0.887-4.222,1.33-6.5,1.33h-1.275c-9.004,0-16.284-7.274-16.284-16.271L42.505,668.177L42.505,668.177z"/>
	<path fill="#FFFFFF" d="M82.159,653.064c0-0.889,7.279-0.889,7.279,0v38.393c0,3.673,0.39,4.563,0.775,5.058
		c0.559,0.722,2.611,0.784,3.057,0.784c1.949,0,2.111,7.331-0.108,7.331c-2.724-0.056-6.612,0.278-8.839-1.612
		c-1.495-1.609-2.164-3.669-2.164-6.39V653.064z"/>
	<path fill="#FFFFFF" d="M114.989,704.629c-8.727,0-16.285-7.112-16.285-16.279v-4.45c0-8.166,6.451-16.277,16.229-16.331h1.392
		c6.775,0,11.722,4.107,14.058,8.11c1.004,1.722-5.276,5.393-6.279,3.609c-1.279-2.169-4.112-4.501-7.724-4.443h-1.389
		c-5.442,0-9.002,4.559-9.002,9.054v4.45c0,4.999,4.169,9.002,8.943,9.002h1.446c3.609,0.056,6.443-2.226,7.723-4.396
		c1.003-1.772,7.282,1.891,6.28,3.615c-2.336,4.001-7.28,8.113-14.058,8.058L114.989,704.629L114.989,704.629z"/>
	<path fill="#FFFFFF" d="M152.365,704.629c-8.726-0.056-16.281-7.172-16.281-16.279v-4.503c0-9.002,7.281-16.278,16.281-16.278
		h0.274c9.004,0,16.282,7.277,16.282,16.278v1.775c0,1.835-0.387,3.841-1.496,3.841H143.42c0.608,4.439,4.497,7.888,8.944,7.888
		h1.391c3.611,0,6.443-2.282,7.72-4.445c1.003-1.723,7.28,1.891,6.282,3.666c-2.279,3.945-7.279,8.058-14.059,8.058H152.365
		L152.365,704.629z M152.365,674.846c-4.609,0-8.445,3.503-8.944,8h18.17c-0.498-4.497-4.334-8-8.951-8H152.365z"/>
	<path fill="#FFFFFF" d="M185.298,688.907l-0.115-0.06c-1.162-0.058-3.499-0.442-5.605-1.777c-2.396-1.557-4.396-4.282-4.451-8.336
		c0.055-4.336,2.17-7.334,5.111-9.112c2.67-1.609,5.835-2.054,8.34-2.054c4.549,0.054,8.441,1.053,11.22,2.275
		c1.839,0.838-1.11,7.557-2.942,6.722c-1.948-0.829-4.835-1.664-8.276-1.721c-1.779,0.057-3.504,0.388-4.614,1.054
		c-0.886,0.557-1.505,1.279-1.505,2.836c0,1.277,0.504,1.837,1.062,2.168c0.771,0.501,1.723,0.612,1.942,0.666h0.227
		c1.775,0.11,5.388,0,8.556,1.111c3.947,1.335,7.114,4.558,7.114,10.505c-0.117,5.163-3.006,9.057-8.114,10.668
		c-4.668,1.384-10.948,0.833-18.504-1.284c-1.945-0.551,0.051-7.606,2-7.054c7.055,2.002,11.723,2.058,14.336,1.278
		c2.168-0.668,2.941-1.833,2.941-3.723c0-1.388-0.335-2.109-0.611-2.447c-0.28-0.386-0.723-0.772-1.553-1.056
		c-0.834-0.274-1.892-0.442-3.115-0.556c-0.667-0.054-1.273-0.054-1.831-0.106L185.298,688.907L185.298,688.907z"/>
	<path fill="#FFFFFF" d="M237.051,674.289h-4.778c-1.105,0-1.105-6.72,0-6.72h4.778v-9.892c0-1.059,7.277-1.059,7.277,0v9.892h6.78
		c1.11,0,1.11,6.72,0,6.72h-6.78v20.339c0,2.945,2.342,2.725,5.281,2.725h1.499c1.11,0,1.11,7.278,0,7.278h-1.499
		c-8.058,0-12.56-1.281-12.56-9.5L237.051,674.289L237.051,674.289z"/>
	<path fill="#FFFFFF" d="M258.706,668.177c0-0.831,7.28-0.831,7.28,0v35.839c0,0.835-7.28,0.835-7.28,0V668.177z"/>
	<path fill="#FFFFFF" d="M274.424,670.453c4.943-1.883,8.226-2.884,15.062-2.884c8.939,0,16.223,7.277,16.223,16.279v4.502
		c0,9.002-7.282,16.279-16.223,16.279h-1.335c-2.284,0-4.447-0.503-6.449-1.332v14.721c0,1.114-7.277,1.114-7.277,0V670.453
		L274.424,670.453z M298.425,683.849c0-4.948-3.996-9.003-8.939-9.003h-1.335c-2.777,0.166-4.396,0.723-6.449,1.499v18.282
		c1.67,1.664,3.95,2.725,6.449,2.725h1.335c4.943,0,8.939-4.059,8.939-9.002V683.849z"/>
	<path fill="#FFFFFF" d="M311.298,658.01c0-2.556,2.057-4.557,4.561-4.557h0.494c2.496,0,4.556,2.001,4.556,4.557v1.609
		c0,2.556-2.059,4.614-4.556,4.614h-0.494c-2.504,0-4.561-2.06-4.561-4.614V658.01z M312.46,668.177c0-0.831,7.286-0.831,7.286,0
		v35.839c0,0.835-7.286,0.835-7.286,0V668.177z"/>
	<path fill="#FFFFFF" d="M342.795,704.629c-8.721,0-16.283-7.112-16.283-16.279v-4.45c0-8.166,6.45-16.277,16.229-16.331h1.388
		c6.773,0,11.728,4.107,14.058,8.11c1.007,1.722-5.274,5.393-6.281,3.609c-1.273-2.169-4.107-4.501-7.715-4.443h-1.395
		c-5.438,0-8.997,4.559-8.997,9.054v4.45c0,4.999,4.159,9.002,8.942,9.002h1.445c3.608,0.056,6.442-2.226,7.717-4.396
		c1.008-1.772,7.287,1.891,6.28,3.615c-2.328,4.001-7.281,8.113-14.057,8.058L342.795,704.629L342.795,704.629z"/>
	<path fill="#FFFFFF" d="M363.336,683.849c0-9.003,7.278-16.279,16.282-16.279h1.282c8.993,0,16.271,7.277,16.271,16.279v4.502
		c0,9.002-7.278,16.279-16.271,16.279h-1.282c-9.004,0-16.282-7.278-16.282-16.279V683.849L363.336,683.849z M389.894,683.849
		c0-4.948-3.994-9.003-8.993-9.003h-1.282c-5,0-9.004,4.054-9.004,9.003v4.502c0,4.943,4.003,9.002,9.004,9.002h1.282
		c4.998,0,8.993-4.059,8.993-9.002V683.849z"/>
	<path fill="#FFFFFF" d="M413.544,688.907l-0.111-0.06c-1.164-0.058-3.494-0.442-5.609-1.777c-2.389-1.557-4.389-4.282-4.447-8.336
		c0.061-4.336,2.176-7.334,5.112-9.112c2.671-1.609,5.831-2.054,8.339-2.054c4.556,0.054,8.439,1.053,11.224,2.275
		c1.835,0.838-1.109,7.557-2.951,6.722c-1.937-0.829-4.829-1.664-8.271-1.721c-1.779,0.057-3.503,0.388-4.611,1.054
		c-0.887,0.557-1.503,1.279-1.503,2.836c0,1.277,0.499,1.837,1.052,2.168c0.779,0.501,1.731,0.612,1.951,0.666h0.22
		c1.778,0.11,5.395,0,8.563,1.111c3.944,1.335,7.109,4.558,7.109,10.505c-0.11,5.163-2.999,9.057-8.114,10.668
		c-4.666,1.384-10.948,0.833-18.496-1.284c-1.95-0.551,0.048-7.606,1.996-7.054c7.052,2.002,11.721,2.058,14.336,1.278
		c2.164-0.668,2.944-1.833,2.944-3.723c0-1.388-0.333-2.109-0.608-2.447c-0.281-0.386-0.729-0.772-1.56-1.056
		c-0.836-0.274-1.888-0.442-3.114-0.556c-0.662-0.054-1.277-0.054-1.835-0.106L413.544,688.907L413.544,688.907z"/>
</g>
</svg>
