<?xml version="1.0" encoding="utf-8"?>
<!-- Generator: Adobe Illustrator 15.0.2, SVG Export Plug-In . SVG Version: 6.00 Build 0)  -->
<!DOCTYPE svg PUBLIC "-//W3C//DTD SVG 1.1//EN" "http://www.w3.org/Graphics/SVG/1.1/DTD/svg11.dtd">
<svg version="1.1" id="Layer_2" xmlns="http://www.w3.org/2000/svg" xmlns:xlink="http://www.w3.org/1999/xlink" x="0px" y="0px"
	 width="779.192px" height="768px" viewBox="0 0 779.192 768" enable-background="new 0 0 779.192 768" xml:space="preserve">
<g>
	<g>
		<path fill="#FFFFFF" d="M225.515,1.558c0,0,84.018-4.843,155.609,66.748c0,0-55.9,65.384-62.777,156.696
			c0,0-59.822-65.367-152.976-65.367C165.371,159.635,163.078,77.999,225.515,1.558"/>
		<path fill="#FFFFFF" d="M318.035,224.971c6.863-91.304,62.773-156.695,62.773-156.695C309.216-3.313,225.198,1.53,225.198,1.53
			L318.035,224.971z"/>
		<path fill="#FFFFFF" d="M553.093,1.49c0,0,52.617,48.149,60.404,158.482c0,0-72.838-5.525-154.557,65.029
			c0,0,2.127-86.64-61.924-155.962C397.017,69.04,455.996-0.991,553.093,1.49"/>
		<path fill="#FFFFFF" d="M776.277,239.392c0,0,7.953,84.528-59.729,160.282c0,0-62.447-65.014-150.695-71.226
			c0,0,57.525-58.481,57.525-157.048C623.376,171.399,709.082,166.235,776.277,239.392"/>
		<path fill="#FFFFFF" d="M1.627,242.214c0,0,52.58-69.933,154.359-69.933c0,0,0.015,88.192,56.476,157.647
			c0,0-85.457-0.251-151.074,69.759C61.389,399.688,1.627,341.935,1.627,242.214"/>
		<path fill="#FFFFFF" d="M165.347,171.301c0,0,0.016,89.695,62.12,158.857c0,0,92.847-1.376,157.589,67.101
			C385.056,397.259,375.248,182.803,165.347,171.301"/>
		<path fill="#FFFFFF" d="M381.125,408.691c0,0-145.154-156.715-311.868,0C69.256,408.691,212.466,564.325,381.125,408.691"/>
		<path fill="#FFFFFF" d="M708.904,408.691c0,0-145.156-156.715-311.877,0C397.027,408.691,540.24,564.325,708.904,408.691"/>
		<path fill="#FFFFFF" d="M388.912,77.648c0,0-55.91,53.964-60.807,157.725c0,0,46.717,52.53,60.869,122.974
			c0,0,21.648-81.187,60.871-120.625C449.845,237.722,455.603,139.927,388.912,77.648"/>
		<path fill="#FFFFFF" d="M613.498,171.301c0,0-197.063,0-218.645,225.958c0,0,59.84-63.299,158.09-68.477
			C552.943,328.782,609.156,279.489,613.498,171.301"/>
		<path fill="#FFFFFF" d="M212.463,328.941C155.995,259.503,155.99,171.3,155.99,171.3c-101.782,0-154.362,69.94-154.362,69.94
			L212.463,328.941z"/>
		<path fill="#FFFFFF" d="M458.943,225.002c81.717-70.562,154.545-65.026,154.545-65.026C605.724,49.626,553.093,1.49,553.093,1.49
			L458.943,225.002z"/>
		<path fill="#FFFFFF" d="M565.841,328.435c88.262,6.225,150.703,71.247,150.703,71.247c67.686-75.761,59.732-160.29,59.732-160.29
			L565.841,328.435z"/>
		<path fill="#FFFFFF" d="M381.14,408.791c0,0-145.165-159.927-311.897,0C69.243,408.791,141.614,411.308,381.14,408.791"/>
		<path fill="#FFFFFF" d="M385.06,397.262c0,0-9.813-214.452-219.713-225.958L385.06,397.262z"/>
		<path fill="#FFFFFF" d="M390.433,358.347c0,0,21.641-81.185,60.865-120.629c0,0,5.768-97.79-60.934-160.074L390.433,358.347z"/>
		<path fill="#FFFFFF" d="M614.576,171.301c0,0-94.703,98.044-218.639,225.958c0,0,59.814-63.299,158.094-68.477
			C554.031,328.782,610.234,279.489,614.576,171.301"/>
		<path fill="#FFFFFF" d="M708.904,410.021c0,0-110.549-0.236-311.877,0C397.027,410.021,540.24,565.676,708.904,410.021"/>
		<polygon fill="#FFFFFF" points="257.744,602.137 231.52,513.184 241.456,513.184 260.298,576.958 279.154,513.184 
			289.148,513.184 262.814,602.137 		"/>
		<polygon fill="#FFFFFF" points="257.744,602.137 259.045,601.755 233.335,514.551 240.447,514.551 260.298,581.735 
			280.169,514.551 287.328,514.551 261.807,600.776 257.744,600.776 257.744,602.137 259.045,601.755 257.744,602.137 
			257.744,603.506 262.814,603.506 263.828,603.506 290.962,511.816 278.146,511.816 260.298,572.173 242.47,511.816 
			229.704,511.816 256.73,603.506 257.744,603.506 		"/>
		<rect x="299.095" y="513.185" fill="#FFFFFF" width="9.332" height="88.952"/>
		<polygon fill="#FFFFFF" points="308.427,602.137 308.427,600.776 300.449,600.776 300.449,514.552 307.078,514.552 
			307.078,602.137 308.427,602.137 308.427,600.776 308.427,602.137 309.783,602.137 309.783,511.819 297.74,511.819 
			297.74,603.506 309.783,603.506 309.783,602.137 		"/>
		<polygon fill="#FFFFFF" points="344.64,602.137 318.412,513.184 328.349,513.184 347.183,576.958 366.044,513.184 
			376.025,513.184 349.716,602.137 		"/>
		<polygon fill="#FFFFFF" points="344.64,602.137 345.943,601.755 320.234,514.551 327.333,514.551 347.183,581.742 
			367.054,514.551 374.203,514.551 348.705,600.776 344.64,600.776 344.64,602.137 345.943,601.755 344.64,602.137 344.64,603.506 
			349.716,603.506 350.724,603.506 377.845,511.816 365.031,511.816 347.183,572.173 329.353,511.816 316.605,511.816 
			343.634,603.506 344.64,603.506 		"/>
		<polygon fill="#FFFFFF" points="423.988,513.184 423.988,524.681 394.408,524.681 394.408,551.887 423.988,551.887 
			423.988,563.384 394.408,563.384 394.408,590.586 423.988,590.586 423.988,602.133 385.076,602.133 385.076,513.184 		"/>
		<polygon fill="#FFFFFF" points="423.988,513.184 422.636,513.184 422.636,523.32 393.056,523.32 393.056,553.25 422.636,553.25 
			422.636,562.014 393.056,562.014 393.056,591.952 422.636,591.952 422.636,600.768 386.427,600.768 386.427,514.551 
			423.988,514.551 423.988,513.184 422.636,513.184 423.988,513.184 423.988,511.815 383.722,511.815 383.722,603.498 
			425.341,603.498 425.341,589.223 395.765,589.223 395.765,564.746 425.341,564.746 425.341,550.519 395.765,550.519 
			395.765,526.047 425.341,526.047 425.341,511.815 423.988,511.815 		"/>
		<path fill="#FFFFFF" d="M445.746,524.73v37.4h8.555c4.123,0,7.697-1.85,10.682-5.501c2.949-3.649,4.432-8.067,4.432-13.264
			c0-5.146-1.482-9.539-4.432-13.179c-2.982-3.61-6.559-5.459-10.682-5.459h-8.555V524.73z M454.298,573.661h-8.555v28.476h-9.338
			v-88.952h20.498c5.816,0.959,10.729,3.903,14.719,8.839c4.805,5.914,7.189,13.057,7.189,21.346c0,8.374-2.387,15.556-7.189,21.468
			c-3.301,4.085-5.844,6.368-7.559,6.887l16.02,30.417h-11.33L454.298,573.661z"/>
		<path fill="#FFFFFF" d="M445.746,524.73h-1.361v38.765h9.916c4.529,0.017,8.564-2.102,11.729-5.995v-0.004
			c3.15-3.891,4.74-8.675,4.74-14.129c0-5.412-1.592-10.162-4.74-14.042l-0.01-0.011c-3.154-3.854-7.189-5.966-11.719-5.952h-9.916
			v1.365h1.361v1.366h8.555c3.707,0.019,6.828,1.597,9.639,4.973v-0.004l-0.012-0.008c2.744,3.396,4.117,7.426,4.127,12.312
			c-0.01,4.93-1.383,9-4.127,12.4v-0.005c-2.814,3.41-5.92,4.98-9.627,5h-7.199v-36.035h-1.355v1.366V524.73L445.746,524.73z
			 M454.298,573.661v-1.363h-9.914v28.479h-6.623v-86.226h19.145v-1.366l-0.223,1.346c5.504,0.917,10.057,3.642,13.881,8.355
			c4.602,5.677,6.885,12.455,6.896,20.482c-0.012,8.12-2.295,14.937-6.883,20.607c-3.209,4.015-5.801,6.173-6.896,6.438
			l-1.594,0.473l15.742,29.891h-8.25l-14.453-28.479H454.3L454.298,573.661l-1.211,0.624l14.838,29.221h14.414l-17.088-32.425
			l-1.186,0.642l0.373,1.308c2.35-0.768,4.834-3.179,8.229-7.331c5.01-6.151,7.502-13.693,7.498-22.331
			c0.004-8.549-2.492-16.045-7.498-22.211c-4.156-5.157-9.408-8.316-15.541-9.316l-0.117-0.022h-21.951v91.689h12.041v-28.476h7.199
			V573.661l-1.213,0.624L454.298,573.661z"/>
		<path fill="#FFFFFF" d="M525.15,523.646c-7.613,0-14.105,3.306-19.475,9.916c-5.406,6.602-8.074,14.637-8.074,23.982
			c0,9.378,2.703,17.397,8.082,24.015c5.395,6.631,11.873,9.962,19.467,9.962c7.607,0,14.113-3.331,19.479-9.962
			c5.393-6.615,8.063-14.637,8.063-24.015c0-9.349-2.67-17.384-8.063-23.982C539.265,526.952,532.757,523.646,525.15,523.646
			 M551.318,525.36c7.188,8.88,10.809,19.635,10.809,32.186c0,12.586-3.619,23.315-10.809,32.193
			c-7.26,8.884-15.961,13.372-26.168,13.372c-10.213,0-18.928-4.488-26.16-13.372c-7.197-8.878-10.818-19.607-10.818-32.193
			c0-12.551,3.619-23.306,10.818-32.186c7.23-8.887,15.947-13.337,26.16-13.337C535.359,512.023,544.058,516.475,551.318,525.36"/>
		<path fill="#FFFFFF" d="M525.156,522.277c-8.018-0.018-14.986,3.557-20.527,10.424l0.027-0.029l-0.027,0.023
			c-5.619,6.848-8.387,15.246-8.381,24.853c-0.006,9.643,2.799,18.022,8.381,24.88c5.57,6.889,12.521,10.483,20.527,10.464
			c8.002,0.021,14.988-3.575,20.518-10.464l-0.025,0.034l0.025-0.03c5.6-6.86,8.385-15.241,8.373-24.884
			c0.012-9.604-2.773-18.005-8.377-24.853C540.128,525.834,533.158,522.261,525.156,522.277v2.731
			c7.195,0.021,13.238,3.058,18.426,9.42c5.186,6.354,7.75,14.021,7.758,23.116c-0.008,9.12-2.572,16.778-7.758,23.146v0.011
			c-5.188,6.377-11.229,9.437-18.426,9.451c-7.205-0.017-13.211-3.074-18.428-9.462c-5.174-6.367-7.764-14.03-7.771-23.146
			c0.01-9.096,2.564-16.763,7.76-23.111v-0.005c5.193-6.362,11.227-9.398,18.439-9.42V522.277L525.156,522.277z M550.269,526.221
			c6.98,8.646,10.5,19.035,10.506,31.326c-0.006,12.323-3.525,22.698-10.506,31.33v-0.006c-7.092,8.644-15.313,12.853-25.111,12.874
			c-9.811-0.021-18.064-4.23-25.117-12.868c-7.004-8.631-10.504-19.007-10.514-31.33c0.01-12.291,3.51-22.682,10.514-31.326
			c7.047-8.634,15.301-12.819,25.117-12.832c9.799,0.013,18.023,4.195,25.111,12.839l2.092-1.735
			c-7.438-9.134-16.588-13.858-27.205-13.838c-10.625-0.021-19.803,4.704-27.209,13.838c-7.416,9.129-11.146,20.241-11.135,33.055
			c-0.012,12.846,3.719,23.933,11.135,33.06c7.395,9.134,16.578,13.886,27.209,13.871c10.617,0.015,19.771-4.737,27.205-13.87
			l-0.029,0.033l0.029-0.034c7.398-9.127,11.131-20.214,11.125-33.061c0.006-12.813-3.727-23.925-11.121-33.05L550.269,526.221z"/>
		<polygon fill="#FFFFFF" points="14.139,619.009 69.336,712.739 124.407,619.009 133.881,619.009 133.515,619.618 133.515,763.189 
			125.24,763.189 125.24,633.699 69.336,728.665 13.293,633.699 13.293,763.189 5.026,763.189 5.026,619.618 4.673,619.009 		"/>
		<polygon fill="#FFFFFF" points="14.139,619.009 11.809,620.403 69.336,718.097 125.951,621.743 133.881,621.743 133.881,619.009 
			131.567,617.586 131.193,618.197 130.805,618.855 130.805,760.454 127.946,760.454 127.946,623.744 69.331,723.325 
			10.583,623.764 10.583,760.454 7.733,760.454 7.733,618.893 7.025,617.648 4.673,619.009 4.673,621.743 14.139,621.743 
			14.139,619.009 11.809,620.403 14.139,619.009 14.139,616.276 0,616.276 2.316,620.35 2.316,765.918 15.999,765.918 
			15.999,643.632 69.336,734.017 122.529,643.649 122.529,765.918 136.222,765.918 136.222,619.618 133.515,619.618 
			135.826,621.037 136.194,620.428 138.703,616.276 122.862,616.276 69.331,707.387 15.683,616.276 14.139,616.276 		"/>
		<rect x="151.938" y="619.2" fill="#FFFFFF" width="9.235" height="144.758"/>
		<polygon fill="#FFFFFF" points="161.17,763.958 161.17,761.229 154.642,761.229 154.642,621.935 158.464,621.935 158.464,763.958 
			161.17,763.958 161.17,761.229 161.17,763.958 163.88,763.958 163.88,616.473 149.227,616.473 149.227,766.693 163.88,766.693 
			163.88,763.958 		"/>
		<path fill="#FFFFFF" d="M264.154,736.932c0,9.149-2.729,16.104-8.192,20.908c-5.783,5.197-12.805,7.768-21.044,7.768
			c-8.26,0-15.281-2.569-21.088-7.709c-5.786-5.138-8.689-10.753-8.689-16.907l6.03-2.087c1.365,6.501,4.251,11.386,8.701,14.632
			c3.675,2.771,7.852,4.153,12.467,4.153c0.842,0,1.691-0.051,2.58-0.202c5.657,0,10.52-1.766,14.623-5.301
			c3.613-3.197,5.416-8.587,5.416-16.16V619.991h9.198v116.94H264.154z"/>
		<path fill="#FFFFFF" d="M264.154,736.932h-2.708c-0.03,8.633-2.494,14.617-7.263,18.855l-0.024,0.016
			c-5.311,4.745-11.551,7.049-19.242,7.068c-7.707-0.014-13.969-2.329-19.301-7.022c-5.39-4.832-7.748-9.617-7.77-14.859h-2.707
			l0.878,2.592l6.029-2.086l-0.877-2.59l-2.651,0.571c1.447,6.976,4.699,12.593,9.764,16.272l1.588-2.214l-1.623,2.187
			c4.119,3.11,8.933,4.711,14.09,4.7c0.95,0,1.961-0.059,3.035-0.247l-0.455-2.688v2.73c6.208,0.019,11.822-1.999,16.38-5.948
			l0.02-0.021l0.008-0.003c4.453-3.967,6.34-10.261,6.34-18.22V622.722h3.781v114.209L264.154,736.932l2.71-0.001V617.26h-14.616
			v118.77c-0.006,7.188-1.727,11.679-4.499,14.104l1.79,2.055l-1.756-2.074c-3.645,3.113-7.769,4.622-12.867,4.646h-0.227
			l-0.229,0.038c-0.697,0.118-1.391,0.166-2.124,0.166c-4.078-0.012-7.605-1.189-10.848-3.617l-0.018-0.006l-0.017-0.018
			c-3.822-2.808-6.361-6.962-7.64-12.976l-0.632-3.025l-10.754,3.724v1.944c-0.014,7.066,3.431,13.518,9.61,18.966
			c6.278,5.581,14.068,8.4,22.877,8.382c8.793,0.024,16.584-2.801,22.842-8.45l-0.01,0.01l-0.01,0.004
			c6.148-5.376,9.155-13.301,9.125-22.967h-2.708V736.932z"/>
		<path fill="#FFFFFF" d="M362.662,702.529l-24.957-58.71l-24.967,58.71H362.662z M366.041,710.413h-56.672l-22.816,53.638h-9.814
			l60.969-143.24l60.85,143.24h-9.711L366.041,710.413z"/>
		<path fill="#FFFFFF" d="M362.662,702.529l2.486-1.08l-27.443-64.563l-29.074,68.369h58.143l-1.625-3.808L362.662,702.529v-2.735
			h-45.82l20.863-49.037l22.469,52.847L362.662,702.529v-2.735V702.529z M366.041,710.413v-2.73h-58.457l-22.816,53.638h-3.926
			l56.859-133.573l56.74,133.573h-3.813l-22.799-53.638h-1.789V710.413l-2.488,1.079l23.5,55.291h15.605l-64.953-152.899
			l-65.082,152.899h15.717l22.813-53.639h54.887L366.041,710.413l-2.488,1.079L366.041,710.413z"/>
		<path fill="#FFFFFF" d="M425.947,627.425v78.608h27.816c12.133,0,22.494-3.854,31.139-11.544
			c8.631-7.679,12.947-16.948,12.947-27.807c0-10.896-4.316-20.147-12.947-27.805c-8.645-7.654-19.006-11.454-31.139-11.454
			L425.947,627.425L425.947,627.425z M456.513,713.051c-0.881,0.071-1.811,0.115-2.75,0.115h-27.816v49.919h-9.217V619.126h42.949
			c12.492,1.499,23.094,6.1,31.826,13.753c10.412,9.186,15.646,20.264,15.646,33.21c0,13.037-5.234,24.089-15.646,33.301
			c-7.229,6.33-15.514,10.512-24.863,12.496l37.754,51.199h-11.367L456.513,713.051z"/>
		<path fill="#FFFFFF" d="M425.947,627.425h-2.711v81.34h30.527c12.699,0.021,23.826-4.104,32.928-12.224
			c9.125-8.068,13.898-18.253,13.861-29.857c0.037-11.638-4.742-21.814-13.861-29.861c-9.109-8.083-20.24-12.151-32.928-12.129
			h-30.527v2.729h2.711v2.732h27.816c11.576,0.023,21.174,3.558,29.355,10.777c8.131,7.267,11.984,15.586,12.021,25.747
			c-0.035,10.109-3.896,18.474-12.029,25.761c-8.186,7.249-17.785,10.84-29.348,10.855h-25.111v-75.875h-2.705v2.73V627.425z
			 M456.513,713.051l-0.227-2.722c-0.813,0.063-1.67,0.104-2.523,0.104h-30.525v49.916h-3.801V621.861h40.24v-2.735l-0.316,2.716
			c12.021,1.447,22.047,5.818,30.363,13.102l-0.023-0.022l0.023,0.02c9.92,8.798,14.688,18.967,14.717,31.149
			c-0.029,12.273-4.791,22.408-14.717,31.247v-0.017c-6.898,6.051-14.73,9.994-23.637,11.897l-4.15,0.88l37.064,50.254h-4.604
			l-36.607-50.153l-1.504,0.132L456.513,713.051l-2.182,1.614l37.32,51.152h18.135l-40.969-55.561l-2.18,1.63l0.561,2.672
			c9.785-2.073,18.523-6.482,26.084-13.108l0.029-0.034l-0.021,0.03c10.904-9.595,16.598-21.567,16.57-35.357
			c0.027-13.702-5.668-25.696-16.58-35.265v-0.006c-9.145-8.031-20.336-12.854-33.281-14.405l-0.152-0.016h-45.828v149.421h14.631
			v-49.92h25.111c1.025,0,2.027-0.049,2.977-0.131L456.513,713.051l-2.182,1.614L456.513,713.051z"/>
		<path fill="#FFFFFF" d="M537.027,626.87v128.724h0.711c24.256,0,42.928-5.841,55.936-17.487
			c14.545-12.935,21.834-28.559,21.834-46.913c0-18.273-7.289-33.925-21.834-46.913c-13.008-11.597-31.68-17.409-55.936-17.409
			L537.027,626.87L537.027,626.87z M537.027,618.506h0.711c26.918,0,47.795,6.604,62.619,19.854
			c16.365,14.638,24.537,32.238,24.537,52.832c0,20.649-8.172,38.252-24.537,52.847c-14.824,13.221-35.701,19.851-62.619,19.851
			h-0.711v0.161h-9.213V618.333h9.213V618.506z"/>
		<path fill="#FFFFFF" d="M537.027,626.87h-2.713v131.455h3.422c24.654,0.007,44.07-5.948,57.734-18.178l-0.004,0.005
			c15.037-13.322,22.783-29.854,22.75-48.96c0.033-19.021-7.713-35.582-22.75-48.958c-13.66-12.182-33.076-18.104-57.73-18.097
			h-0.709h-2.713v2.731L537.027,626.87v2.729h0.711c23.854,0.008,41.785,5.711,54.145,16.728
			c14.045,12.597,20.885,27.343,20.912,44.864c-0.025,17.613-6.867,32.316-20.912,44.862l0.035-0.031l-0.041,0.035
			c-12.354,11.067-30.287,16.8-54.141,16.806h-0.711v2.729h2.711V626.87H537.027v2.73V626.87z M537.027,618.506v2.735h0.711
			c26.51,0.007,46.633,6.483,60.818,19.164c15.879,14.238,23.59,30.938,23.631,50.786c-0.041,19.914-7.752,36.588-23.631,50.795
			c-14.188,12.659-34.32,19.16-60.818,19.165h-0.711h-2.713v0.166h-3.797V621.064h6.508v-2.731h-2.711v0.173v2.735h2.711
			L537.027,618.506h2.709v-0.173v-2.732h-14.635v151.184h14.635v-2.895h-2.711v2.728h0.711c27.336,0.013,48.955-6.75,64.408-20.535
			c16.861-14.984,25.49-33.494,25.455-54.89c0.033-21.339-8.594-39.852-25.445-54.874c-15.463-13.822-37.082-20.545-64.418-20.542
			h-0.711L537.027,618.506h2.709H537.027z"/>
		<rect x="640.408" y="621.965" fill="#FFFFFF" width="9.188" height="141.009"/>
		<polygon fill="#FFFFFF" points="649.597,762.976 649.597,760.239 643.123,760.239 643.123,624.697 646.89,624.697 646.89,762.976 
			649.597,762.976 649.597,760.239 649.597,762.976 652.306,762.976 652.306,619.232 637.701,619.232 637.701,765.705 
			652.306,765.705 652.306,762.976 		"/>
		<polygon fill="#FFFFFF" points="666.164,619.409 676.96,619.409 766.671,747.971 766.671,619.409 776.48,619.409 776.48,763.967 
			766.671,763.967 675.992,634.126 675.992,763.967 666.164,763.967 		"/>
		<polygon fill="#FFFFFF" points="666.164,619.409 666.164,622.143 675.546,622.143 769.378,756.597 769.378,622.143 
			773.777,622.143 773.777,761.235 768.082,761.235 673.281,625.502 673.281,761.235 668.873,761.235 668.873,619.409 
			666.164,619.409 666.164,622.143 666.164,619.409 663.458,619.409 663.458,766.699 678.703,766.699 678.703,642.748 
			765.275,766.699 779.193,766.699 779.193,616.679 763.962,616.679 763.962,739.342 678.357,616.679 663.458,616.679 
			663.458,619.409 		"/>
		<polygon fill="#FFFFFF" points="659.72,565.909 682.197,565.909 656.126,602.357 642.646,602.357 		"/>
	</g>
</g>
</svg>
